G04 #@! TF.GenerationSoftware,KiCad,Pcbnew,8.0.0*
G04 #@! TF.CreationDate,2025-07-03T23:16:26-06:00*
G04 #@! TF.ProjectId,Color Sensor,436f6c6f-7220-4536-956e-736f722e6b69,rev?*
G04 #@! TF.SameCoordinates,Original*
G04 #@! TF.FileFunction,Copper,L2,Bot*
G04 #@! TF.FilePolarity,Positive*
%FSLAX46Y46*%
G04 Gerber Fmt 4.6, Leading zero omitted, Abs format (unit mm)*
G04 Created by KiCad (PCBNEW 8.0.0) date 2025-07-03 23:16:26*
%MOMM*%
%LPD*%
G01*
G04 APERTURE LIST*
G04 Aperture macros list*
%AMRoundRect*
0 Rectangle with rounded corners*
0 $1 Rounding radius*
0 $2 $3 $4 $5 $6 $7 $8 $9 X,Y pos of 4 corners*
0 Add a 4 corners polygon primitive as box body*
4,1,4,$2,$3,$4,$5,$6,$7,$8,$9,$2,$3,0*
0 Add four circle primitives for the rounded corners*
1,1,$1+$1,$2,$3*
1,1,$1+$1,$4,$5*
1,1,$1+$1,$6,$7*
1,1,$1+$1,$8,$9*
0 Add four rect primitives between the rounded corners*
20,1,$1+$1,$2,$3,$4,$5,0*
20,1,$1+$1,$4,$5,$6,$7,0*
20,1,$1+$1,$6,$7,$8,$9,0*
20,1,$1+$1,$8,$9,$2,$3,0*%
G04 Aperture macros list end*
G04 #@! TA.AperFunction,ComponentPad*
%ADD10O,1.950000X1.700000*%
G04 #@! TD*
G04 #@! TA.AperFunction,ComponentPad*
%ADD11RoundRect,0.250000X-0.725000X0.600000X-0.725000X-0.600000X0.725000X-0.600000X0.725000X0.600000X0*%
G04 #@! TD*
G04 #@! TA.AperFunction,ViaPad*
%ADD12C,0.800000*%
G04 #@! TD*
G04 #@! TA.AperFunction,ViaPad*
%ADD13C,0.600000*%
G04 #@! TD*
G04 #@! TA.AperFunction,ViaPad*
%ADD14C,1.000000*%
G04 #@! TD*
G04 #@! TA.AperFunction,Conductor*
%ADD15C,0.250000*%
G04 #@! TD*
G04 #@! TA.AperFunction,Conductor*
%ADD16C,0.400000*%
G04 #@! TD*
G04 #@! TA.AperFunction,Conductor*
%ADD17C,0.600000*%
G04 #@! TD*
G04 APERTURE END LIST*
D10*
X101900000Y-97250000D03*
X101900000Y-94750000D03*
X101900000Y-92250000D03*
X101900000Y-89750000D03*
X101900000Y-87250000D03*
X101900000Y-84750000D03*
D11*
X101900000Y-82250000D03*
D12*
X116050000Y-67266666D03*
X115450000Y-76350000D03*
D13*
X139950000Y-112350000D03*
X139950000Y-108950000D03*
D12*
X154550000Y-94350000D03*
D13*
X156950000Y-94350000D03*
D12*
X155750000Y-118550000D03*
X155750000Y-114262500D03*
X135950000Y-118550000D03*
X135750000Y-113950000D03*
X172550000Y-92550000D03*
X137350000Y-109150000D03*
X137350000Y-76925000D03*
X137350000Y-90750000D03*
X155750000Y-109350000D03*
X155750000Y-90750000D03*
X155750000Y-76925000D03*
X172750000Y-105550000D03*
X139950000Y-88750000D03*
D14*
X165900000Y-105650000D03*
X161300000Y-105650000D03*
X165950000Y-87350000D03*
X161550000Y-87375000D03*
X128550000Y-101550000D03*
X128750000Y-95150000D03*
D13*
X109575000Y-67941666D03*
X110200000Y-67350000D03*
X117750000Y-74550000D03*
X117150000Y-73950000D03*
D14*
X122550000Y-87150000D03*
X125150000Y-87150000D03*
D13*
X116550000Y-73375000D03*
X115500000Y-72700000D03*
X116550000Y-71975000D03*
X115533330Y-71325000D03*
X116550000Y-70566666D03*
X115541666Y-69941666D03*
X118591942Y-105391942D03*
X118550000Y-104550000D03*
X116650000Y-109625000D03*
X115650000Y-109000000D03*
X115578616Y-107583333D03*
X116650000Y-108208333D03*
X116650000Y-106875000D03*
X115650000Y-106250000D03*
X167900000Y-72000000D03*
X167900000Y-70250000D03*
X149400000Y-72000000D03*
X149400000Y-70250000D03*
X130900000Y-70250000D03*
X130900000Y-72000000D03*
X130900000Y-90750000D03*
X130900000Y-89000000D03*
X149400000Y-90750000D03*
X149400000Y-89000000D03*
X167900000Y-90750000D03*
X167900000Y-89000000D03*
X167900000Y-109250000D03*
X167900000Y-107250000D03*
X149400000Y-109250000D03*
X149400000Y-107250000D03*
X130900000Y-109250000D03*
X130900000Y-107250000D03*
X106400000Y-111250000D03*
X105650000Y-112000000D03*
X106900000Y-74250000D03*
X106900000Y-73250000D03*
X108650000Y-95250000D03*
X108650000Y-81250000D03*
X133900000Y-70000000D03*
X152400000Y-70000000D03*
X170900000Y-69250000D03*
X133900000Y-88750000D03*
X152400000Y-88750000D03*
X170900000Y-88750000D03*
X133900000Y-107250000D03*
X170900000Y-107250000D03*
X152400000Y-107950000D03*
X106400000Y-107000000D03*
X112350000Y-92100000D03*
X113150000Y-97750000D03*
X113650000Y-83750000D03*
X106400000Y-69250000D03*
D15*
X129052512Y-70400000D02*
X130652512Y-72000000D01*
X116716666Y-70400000D02*
X129052512Y-70400000D01*
X116550000Y-70566666D02*
X116716666Y-70400000D01*
X130652512Y-72000000D02*
X130900000Y-72000000D01*
X130268324Y-73525000D02*
X164625000Y-73525000D01*
X117658884Y-71750000D02*
X128493324Y-71750000D01*
X116708884Y-72700000D02*
X117658884Y-71750000D01*
X115500000Y-72700000D02*
X116708884Y-72700000D01*
X128493324Y-71750000D02*
X130268324Y-73525000D01*
X164625000Y-73525000D02*
X167900000Y-70250000D01*
X147025000Y-72625000D02*
X149400000Y-70250000D01*
X130641116Y-72625000D02*
X147025000Y-72625000D01*
X115533330Y-71325000D02*
X116683884Y-71325000D01*
X117158884Y-70850000D02*
X128866116Y-70850000D01*
X116683884Y-71325000D02*
X117158884Y-70850000D01*
X128866116Y-70850000D02*
X130641116Y-72625000D01*
X129638908Y-70350000D02*
X130800000Y-70350000D01*
X129230574Y-69941666D02*
X129638908Y-70350000D01*
X115541666Y-69941666D02*
X129230574Y-69941666D01*
X130800000Y-70350000D02*
X130900000Y-70250000D01*
X100550000Y-92250000D02*
X101900000Y-92250000D01*
X100250000Y-92550000D02*
X100550000Y-92250000D01*
X100250000Y-95350000D02*
X100250000Y-92550000D01*
X102438604Y-95925000D02*
X100825000Y-95925000D01*
X100825000Y-95925000D02*
X100250000Y-95350000D01*
X103700000Y-97186396D02*
X102438604Y-95925000D01*
X103700000Y-108186396D02*
X103700000Y-97186396D01*
X105650000Y-110136396D02*
X103700000Y-108186396D01*
X105650000Y-112000000D02*
X105650000Y-110136396D01*
X129288908Y-107250000D02*
X130900000Y-107250000D01*
X128288908Y-106250000D02*
X129288908Y-107250000D01*
X115650000Y-106250000D02*
X128288908Y-106250000D01*
X130206928Y-111350000D02*
X164436396Y-111350000D01*
X166536396Y-109250000D02*
X167900000Y-109250000D01*
X127356928Y-108500000D02*
X130206928Y-111350000D01*
X116991667Y-109283333D02*
X117095280Y-109283333D01*
X117878613Y-108500000D02*
X127356928Y-108500000D01*
X164436396Y-111350000D02*
X166536396Y-109250000D01*
X116650000Y-109625000D02*
X116991667Y-109283333D01*
X117095280Y-109283333D02*
X117878613Y-108500000D01*
X148036396Y-109250000D02*
X149400000Y-109250000D01*
X130579720Y-110450000D02*
X146836396Y-110450000D01*
X146836396Y-110450000D02*
X148036396Y-109250000D01*
X117445280Y-107600000D02*
X127729720Y-107600000D01*
X127729720Y-107600000D02*
X130579720Y-110450000D01*
X116836947Y-108208333D02*
X117445280Y-107600000D01*
X116650000Y-108208333D02*
X116836947Y-108208333D01*
X130393324Y-110900000D02*
X164250000Y-110900000D01*
X116908884Y-108833333D02*
X117692217Y-108050000D01*
X164250000Y-110900000D02*
X167900000Y-107250000D01*
X116103892Y-108546108D02*
X116391116Y-108833333D01*
X117692217Y-108050000D02*
X127543324Y-108050000D01*
X115650000Y-109000000D02*
X116103892Y-108546108D01*
X116391116Y-108833333D02*
X116908884Y-108833333D01*
X127543324Y-108050000D02*
X130393324Y-110900000D01*
X130766116Y-110000000D02*
X146650000Y-110000000D01*
X146650000Y-110000000D02*
X149400000Y-107250000D01*
X116825551Y-107583333D02*
X117258884Y-107150000D01*
X117258884Y-107150000D02*
X127916116Y-107150000D01*
X115578616Y-107583333D02*
X116825551Y-107583333D01*
X127916116Y-107150000D02*
X130766116Y-110000000D01*
X130652512Y-109250000D02*
X130900000Y-109250000D01*
X116650000Y-106875000D02*
X116825000Y-106700000D01*
X116825000Y-106700000D02*
X128102512Y-106700000D01*
X128102512Y-106700000D02*
X130652512Y-109250000D01*
X148775000Y-90125000D02*
X149400000Y-90750000D01*
X148775000Y-86175000D02*
X148775000Y-90125000D01*
X119820280Y-74000000D02*
X127561344Y-74000000D01*
X118195280Y-75625000D02*
X119820280Y-74000000D01*
X129336344Y-75775000D02*
X138375000Y-75775000D01*
X109575000Y-68295280D02*
X116904720Y-75625000D01*
X127561344Y-74000000D02*
X129336344Y-75775000D01*
X109575000Y-67941666D02*
X109575000Y-68295280D01*
X116904720Y-75625000D02*
X118195280Y-75625000D01*
X138375000Y-75775000D02*
X148775000Y-86175000D01*
X149400000Y-86100000D02*
X149400000Y-89000000D01*
X138625000Y-75325000D02*
X149400000Y-86100000D01*
X129522740Y-75325000D02*
X138625000Y-75325000D01*
X127747740Y-73550000D02*
X129522740Y-75325000D01*
X119633884Y-73550000D02*
X127747740Y-73550000D01*
X110200000Y-68283884D02*
X117091116Y-75175000D01*
X117091116Y-75175000D02*
X118008884Y-75175000D01*
X110200000Y-67350000D02*
X110200000Y-68283884D01*
X118008884Y-75175000D02*
X119633884Y-73550000D01*
D16*
X153950000Y-92550000D02*
X155750000Y-90750000D01*
X139150000Y-92550000D02*
X153950000Y-92550000D01*
X137350000Y-90750000D02*
X139150000Y-92550000D01*
X155750000Y-114262500D02*
X155750000Y-118550000D01*
X135750000Y-118350000D02*
X135950000Y-118550000D01*
X135750000Y-113950000D02*
X135750000Y-118350000D01*
X157550000Y-92550000D02*
X172550000Y-92550000D01*
X155750000Y-90750000D02*
X157550000Y-92550000D01*
X151350000Y-104950000D02*
X155750000Y-109350000D01*
X137350000Y-109150000D02*
X141550000Y-104950000D01*
X141550000Y-104950000D02*
X151350000Y-104950000D01*
X137350000Y-90750000D02*
X137350000Y-109150000D01*
X155750000Y-90750000D02*
X155750000Y-109350000D01*
X137350000Y-90750000D02*
X137350000Y-76925000D01*
X155750000Y-76925000D02*
X155750000Y-90750000D01*
D15*
X128679720Y-71300000D02*
X130454720Y-73075000D01*
X117345280Y-71300000D02*
X128679720Y-71300000D01*
X116670280Y-71975000D02*
X117345280Y-71300000D01*
X147211396Y-73075000D02*
X148286396Y-72000000D01*
X116550000Y-71975000D02*
X116670280Y-71975000D01*
X130454720Y-73075000D02*
X147211396Y-73075000D01*
X148286396Y-72000000D02*
X149400000Y-72000000D01*
X166786396Y-72000000D02*
X167900000Y-72000000D01*
X164811396Y-73975000D02*
X166786396Y-72000000D01*
X117845280Y-72200000D02*
X128306928Y-72200000D01*
X116670280Y-73375000D02*
X117845280Y-72200000D01*
X128306928Y-72200000D02*
X130081928Y-73975000D01*
X116550000Y-73375000D02*
X116670280Y-73375000D01*
X130081928Y-73975000D02*
X164811396Y-73975000D01*
X117150000Y-73658884D02*
X117150000Y-73950000D01*
X117175000Y-73506676D02*
X117175000Y-73633884D01*
X118031676Y-72650000D02*
X117175000Y-73506676D01*
X128120532Y-72650000D02*
X118031676Y-72650000D01*
X117175000Y-73633884D02*
X117150000Y-73658884D01*
X129895532Y-74425000D02*
X128120532Y-72650000D01*
X167900000Y-77900000D02*
X164425000Y-74425000D01*
X164425000Y-74425000D02*
X129895532Y-74425000D01*
X167900000Y-89000000D02*
X167900000Y-77900000D01*
X107575000Y-74925000D02*
X106900000Y-74250000D01*
X107575000Y-88438604D02*
X107575000Y-74925000D01*
X103763604Y-92250000D02*
X107575000Y-88438604D01*
X101900000Y-92250000D02*
X103763604Y-92250000D01*
X129786396Y-90750000D02*
X130900000Y-90750000D01*
X118375000Y-104375000D02*
X118375000Y-102161396D01*
X118375000Y-102161396D02*
X129786396Y-90750000D01*
X118550000Y-104550000D02*
X118375000Y-104375000D01*
X167275000Y-90125000D02*
X167900000Y-90750000D01*
X167275000Y-88741116D02*
X167275000Y-90125000D01*
X167450000Y-88566116D02*
X167275000Y-88741116D01*
X129709136Y-74875000D02*
X164238604Y-74875000D01*
X167450000Y-78086396D02*
X167450000Y-88566116D01*
X127934136Y-73100000D02*
X129709136Y-74875000D01*
X118218072Y-73100000D02*
X127934136Y-73100000D01*
X117775000Y-74208884D02*
X117775000Y-73543072D01*
X164238604Y-74875000D02*
X167450000Y-78086396D01*
X117750000Y-74233884D02*
X117775000Y-74208884D01*
X117750000Y-74550000D02*
X117750000Y-74233884D01*
X117775000Y-73543072D02*
X118218072Y-73100000D01*
D17*
X165900000Y-105650000D02*
X161300000Y-105650000D01*
X165950000Y-87350000D02*
X161575000Y-87350000D01*
X161575000Y-87350000D02*
X161550000Y-87375000D01*
X128750000Y-101350000D02*
X128550000Y-101550000D01*
X128750000Y-95150000D02*
X128750000Y-101350000D01*
D15*
X117925000Y-101975000D02*
X130900000Y-89000000D01*
X117925000Y-104808884D02*
X117925000Y-101975000D01*
X118508058Y-105391942D02*
X117925000Y-104808884D01*
X118591942Y-105391942D02*
X118508058Y-105391942D01*
D17*
X122550000Y-87150000D02*
X125150000Y-87150000D01*
D15*
X106400000Y-110250000D02*
X106400000Y-111250000D01*
X104150000Y-108000000D02*
X106400000Y-110250000D01*
X104150000Y-97000000D02*
X104150000Y-108000000D01*
X101900000Y-94750000D02*
X104150000Y-97000000D01*
X108025000Y-74375000D02*
X106900000Y-73250000D01*
X108025000Y-88625000D02*
X108025000Y-74375000D01*
X101900000Y-94750000D02*
X108025000Y-88625000D01*
X108650000Y-81500000D02*
X108650000Y-95250000D01*
X108650000Y-81250000D02*
X108650000Y-81500000D01*
G04 #@! TA.AperFunction,Conductor*
G36*
X151075520Y-105670185D02*
G01*
X151096162Y-105686819D01*
X154823495Y-109414152D01*
X154856980Y-109475475D01*
X154859134Y-109488869D01*
X154864325Y-109538249D01*
X154864327Y-109538260D01*
X154922818Y-109718277D01*
X154922821Y-109718284D01*
X155017467Y-109882216D01*
X155100579Y-109974521D01*
X155144129Y-110022888D01*
X155181696Y-110050182D01*
X155224362Y-110105512D01*
X155230341Y-110175125D01*
X155197736Y-110236920D01*
X155136897Y-110271277D01*
X155108811Y-110274500D01*
X149625668Y-110274500D01*
X149558629Y-110254815D01*
X149512874Y-110202011D01*
X149502930Y-110132853D01*
X149531955Y-110069297D01*
X149584713Y-110033458D01*
X149749522Y-109975789D01*
X149902262Y-109879816D01*
X150029816Y-109752262D01*
X150125789Y-109599522D01*
X150185368Y-109429255D01*
X150187070Y-109414152D01*
X150205565Y-109250003D01*
X150205565Y-109249996D01*
X150185369Y-109070750D01*
X150185368Y-109070745D01*
X150160612Y-108999996D01*
X150125789Y-108900478D01*
X150029816Y-108747738D01*
X149902262Y-108620184D01*
X149857414Y-108592004D01*
X149749523Y-108524211D01*
X149579254Y-108464631D01*
X149579249Y-108464630D01*
X149400004Y-108444435D01*
X149393036Y-108444435D01*
X149393036Y-108442370D01*
X149334104Y-108432033D01*
X149282736Y-108384672D01*
X149265128Y-108317057D01*
X149286870Y-108250657D01*
X149301383Y-108233205D01*
X149458379Y-108076209D01*
X149519700Y-108042726D01*
X149532156Y-108040674D01*
X149579255Y-108035368D01*
X149749522Y-107975789D01*
X149902262Y-107879816D01*
X150029816Y-107752262D01*
X150125789Y-107599522D01*
X150185368Y-107429255D01*
X150185369Y-107429249D01*
X150205565Y-107250003D01*
X150205565Y-107249996D01*
X150185369Y-107070750D01*
X150185368Y-107070745D01*
X150125788Y-106900476D01*
X150058440Y-106793293D01*
X150029816Y-106747738D01*
X149902262Y-106620184D01*
X149878883Y-106605494D01*
X149749523Y-106524211D01*
X149579254Y-106464631D01*
X149579249Y-106464630D01*
X149400004Y-106444435D01*
X149399996Y-106444435D01*
X149220750Y-106464630D01*
X149220745Y-106464631D01*
X149050476Y-106524211D01*
X148897737Y-106620184D01*
X148770184Y-106747737D01*
X148674210Y-106900478D01*
X148614630Y-107070750D01*
X148609326Y-107117825D01*
X148582258Y-107182239D01*
X148573787Y-107191621D01*
X146427229Y-109338181D01*
X146365906Y-109371666D01*
X146339548Y-109374500D01*
X138415518Y-109374500D01*
X138348479Y-109354815D01*
X138302724Y-109302011D01*
X138292780Y-109232853D01*
X138321805Y-109169297D01*
X138327837Y-109162819D01*
X140043496Y-107447161D01*
X141803838Y-105686819D01*
X141865161Y-105653334D01*
X141891519Y-105650500D01*
X151008481Y-105650500D01*
X151075520Y-105670185D01*
G37*
G04 #@! TD.AperFunction*
G04 #@! TA.AperFunction,Conductor*
G36*
X138255703Y-92646805D02*
G01*
X138262181Y-92652837D01*
X138605886Y-92996542D01*
X138691558Y-93082214D01*
X138703459Y-93094115D01*
X138818182Y-93170771D01*
X138818186Y-93170773D01*
X138818189Y-93170775D01*
X138892866Y-93201707D01*
X138892867Y-93201707D01*
X138892869Y-93201709D01*
X138939481Y-93221016D01*
X138945671Y-93223580D01*
X138955324Y-93225500D01*
X139005597Y-93235500D01*
X139081004Y-93250500D01*
X139081007Y-93250500D01*
X154018996Y-93250500D01*
X154110040Y-93232389D01*
X154154328Y-93223580D01*
X154218069Y-93197177D01*
X154281807Y-93170777D01*
X154281808Y-93170776D01*
X154281811Y-93170775D01*
X154396543Y-93094114D01*
X154837819Y-92652836D01*
X154899142Y-92619352D01*
X154968833Y-92624336D01*
X155024767Y-92666207D01*
X155049184Y-92731672D01*
X155049500Y-92740518D01*
X155049500Y-107359480D01*
X155029815Y-107426519D01*
X154977011Y-107472274D01*
X154907853Y-107482218D01*
X154844297Y-107453193D01*
X154837819Y-107447161D01*
X151796545Y-104405887D01*
X151681807Y-104329222D01*
X151554332Y-104276421D01*
X151554322Y-104276418D01*
X151418996Y-104249500D01*
X151418994Y-104249500D01*
X151418993Y-104249500D01*
X141618994Y-104249500D01*
X141481006Y-104249500D01*
X141481004Y-104249500D01*
X141345677Y-104276418D01*
X141345667Y-104276421D01*
X141218192Y-104329222D01*
X141103454Y-104405887D01*
X141103453Y-104405888D01*
X138262181Y-107247161D01*
X138200858Y-107280646D01*
X138131166Y-107275662D01*
X138075233Y-107233790D01*
X138050816Y-107168326D01*
X138050500Y-107159480D01*
X138050500Y-92740518D01*
X138070185Y-92673479D01*
X138122989Y-92627724D01*
X138192147Y-92617780D01*
X138255703Y-92646805D01*
G37*
G04 #@! TD.AperFunction*
G04 #@! TA.AperFunction,Conductor*
G36*
X179653032Y-54250648D02*
G01*
X179986929Y-54267052D01*
X179999037Y-54268245D01*
X180102146Y-54283539D01*
X180326699Y-54316849D01*
X180338617Y-54319219D01*
X180659951Y-54399709D01*
X180671588Y-54403240D01*
X180742806Y-54428722D01*
X180983467Y-54514832D01*
X180994688Y-54519479D01*
X181294163Y-54661120D01*
X181304871Y-54666844D01*
X181588988Y-54837137D01*
X181599106Y-54843897D01*
X181865170Y-55041224D01*
X181874576Y-55048944D01*
X182120013Y-55271395D01*
X182128604Y-55279986D01*
X182315755Y-55486475D01*
X182351055Y-55525423D01*
X182358775Y-55534829D01*
X182556102Y-55800893D01*
X182562862Y-55811011D01*
X182691776Y-56026092D01*
X182733148Y-56095116D01*
X182738885Y-56105848D01*
X182880514Y-56405297D01*
X182885170Y-56416540D01*
X182996759Y-56728411D01*
X183000292Y-56740055D01*
X183080777Y-57061369D01*
X183083151Y-57073305D01*
X183131754Y-57400962D01*
X183132947Y-57413071D01*
X183149351Y-57746966D01*
X183149500Y-57753051D01*
X183149500Y-121746948D01*
X183149351Y-121753033D01*
X183132947Y-122086928D01*
X183131754Y-122099037D01*
X183083151Y-122426694D01*
X183080777Y-122438630D01*
X183000292Y-122759944D01*
X182996759Y-122771588D01*
X182885170Y-123083459D01*
X182880514Y-123094702D01*
X182738885Y-123394151D01*
X182733148Y-123404883D01*
X182562862Y-123688988D01*
X182556102Y-123699106D01*
X182358775Y-123965170D01*
X182351055Y-123974576D01*
X182128611Y-124220006D01*
X182120006Y-124228611D01*
X181874576Y-124451055D01*
X181865170Y-124458775D01*
X181599106Y-124656102D01*
X181588988Y-124662862D01*
X181304883Y-124833148D01*
X181294151Y-124838885D01*
X180994702Y-124980514D01*
X180983459Y-124985170D01*
X180671588Y-125096759D01*
X180659944Y-125100292D01*
X180338630Y-125180777D01*
X180326694Y-125183151D01*
X179999037Y-125231754D01*
X179986928Y-125232947D01*
X179671989Y-125248419D01*
X179653031Y-125249351D01*
X179646949Y-125249500D01*
X97653051Y-125249500D01*
X97646968Y-125249351D01*
X97626900Y-125248365D01*
X97313071Y-125232947D01*
X97300962Y-125231754D01*
X96973305Y-125183151D01*
X96961369Y-125180777D01*
X96640055Y-125100292D01*
X96628411Y-125096759D01*
X96316540Y-124985170D01*
X96305301Y-124980515D01*
X96005844Y-124838883D01*
X95995121Y-124833150D01*
X95711011Y-124662862D01*
X95700893Y-124656102D01*
X95434829Y-124458775D01*
X95425423Y-124451055D01*
X95386475Y-124415755D01*
X95179986Y-124228604D01*
X95171395Y-124220013D01*
X94948944Y-123974576D01*
X94941224Y-123965170D01*
X94743897Y-123699106D01*
X94737137Y-123688988D01*
X94695407Y-123619365D01*
X94566844Y-123404871D01*
X94561120Y-123394163D01*
X94419479Y-123094688D01*
X94414829Y-123083459D01*
X94413126Y-123078700D01*
X94303240Y-122771588D01*
X94299707Y-122759944D01*
X94219219Y-122438617D01*
X94216848Y-122426694D01*
X94200730Y-122318037D01*
X94168245Y-122099037D01*
X94167052Y-122086927D01*
X94150649Y-121753032D01*
X94150575Y-121750000D01*
X113544592Y-121750000D01*
X113564201Y-122036680D01*
X113564201Y-122036684D01*
X113564202Y-122036686D01*
X113577159Y-122099037D01*
X113622666Y-122318034D01*
X113622667Y-122318037D01*
X113718894Y-122588793D01*
X113718893Y-122588793D01*
X113851098Y-122843935D01*
X114016812Y-123078700D01*
X114101923Y-123169831D01*
X114212947Y-123288708D01*
X114342554Y-123394151D01*
X114435853Y-123470055D01*
X114681382Y-123619365D01*
X114864967Y-123699106D01*
X114944942Y-123733844D01*
X115221642Y-123811371D01*
X115471920Y-123845771D01*
X115506321Y-123850500D01*
X115506322Y-123850500D01*
X115793679Y-123850500D01*
X115824370Y-123846281D01*
X116078358Y-123811371D01*
X116355058Y-123733844D01*
X116468015Y-123684779D01*
X116618617Y-123619365D01*
X116618620Y-123619363D01*
X116618625Y-123619361D01*
X116864147Y-123470055D01*
X117087053Y-123288708D01*
X117283189Y-123078698D01*
X117448901Y-122843936D01*
X117581104Y-122588797D01*
X117677334Y-122318032D01*
X117735798Y-122036686D01*
X117755408Y-121750000D01*
X177544592Y-121750000D01*
X177564201Y-122036680D01*
X177564201Y-122036684D01*
X177564202Y-122036686D01*
X177577159Y-122099037D01*
X177622666Y-122318034D01*
X177622667Y-122318037D01*
X177718894Y-122588793D01*
X177718893Y-122588793D01*
X177851098Y-122843935D01*
X178016812Y-123078700D01*
X178101923Y-123169831D01*
X178212947Y-123288708D01*
X178342554Y-123394151D01*
X178435853Y-123470055D01*
X178681382Y-123619365D01*
X178864967Y-123699106D01*
X178944942Y-123733844D01*
X179221642Y-123811371D01*
X179471920Y-123845771D01*
X179506321Y-123850500D01*
X179506322Y-123850500D01*
X179793679Y-123850500D01*
X179824370Y-123846281D01*
X180078358Y-123811371D01*
X180355058Y-123733844D01*
X180468015Y-123684779D01*
X180618617Y-123619365D01*
X180618620Y-123619363D01*
X180618625Y-123619361D01*
X180864147Y-123470055D01*
X181087053Y-123288708D01*
X181283189Y-123078698D01*
X181448901Y-122843936D01*
X181581104Y-122588797D01*
X181677334Y-122318032D01*
X181735798Y-122036686D01*
X181755408Y-121750000D01*
X181735798Y-121463314D01*
X181677334Y-121181968D01*
X181581105Y-120911206D01*
X181581106Y-120911206D01*
X181448901Y-120656064D01*
X181283187Y-120421299D01*
X181204554Y-120337105D01*
X181087053Y-120211292D01*
X180864147Y-120029945D01*
X180864146Y-120029944D01*
X180618617Y-119880634D01*
X180355063Y-119766158D01*
X180355061Y-119766157D01*
X180355058Y-119766156D01*
X180225578Y-119729877D01*
X180078364Y-119688630D01*
X180078359Y-119688629D01*
X180078358Y-119688629D01*
X179936018Y-119669064D01*
X179793679Y-119649500D01*
X179793678Y-119649500D01*
X179506322Y-119649500D01*
X179506321Y-119649500D01*
X179221642Y-119688629D01*
X179221635Y-119688630D01*
X179013861Y-119746845D01*
X178944942Y-119766156D01*
X178944939Y-119766156D01*
X178944936Y-119766158D01*
X178944935Y-119766158D01*
X178681382Y-119880634D01*
X178435853Y-120029944D01*
X178212950Y-120211289D01*
X178016812Y-120421299D01*
X177851098Y-120656064D01*
X177718894Y-120911206D01*
X177622667Y-121181962D01*
X177622666Y-121181965D01*
X177564201Y-121463319D01*
X177544592Y-121750000D01*
X117755408Y-121750000D01*
X117735798Y-121463314D01*
X117677334Y-121181968D01*
X117581105Y-120911206D01*
X117581106Y-120911206D01*
X117448901Y-120656064D01*
X117283187Y-120421299D01*
X117204554Y-120337105D01*
X117087053Y-120211292D01*
X116864147Y-120029945D01*
X116864146Y-120029944D01*
X116618617Y-119880634D01*
X116355063Y-119766158D01*
X116355061Y-119766157D01*
X116355058Y-119766156D01*
X116225578Y-119729877D01*
X116078364Y-119688630D01*
X116078359Y-119688629D01*
X116078358Y-119688629D01*
X115936018Y-119669064D01*
X115793679Y-119649500D01*
X115793678Y-119649500D01*
X115506322Y-119649500D01*
X115506321Y-119649500D01*
X115221642Y-119688629D01*
X115221635Y-119688630D01*
X115013861Y-119746845D01*
X114944942Y-119766156D01*
X114944939Y-119766156D01*
X114944936Y-119766158D01*
X114944935Y-119766158D01*
X114681382Y-119880634D01*
X114435853Y-120029944D01*
X114212950Y-120211289D01*
X114016812Y-120421299D01*
X113851098Y-120656064D01*
X113718894Y-120911206D01*
X113622667Y-121181962D01*
X113622666Y-121181965D01*
X113564201Y-121463319D01*
X113544592Y-121750000D01*
X94150575Y-121750000D01*
X94150500Y-121746948D01*
X94150500Y-113950000D01*
X134844540Y-113950000D01*
X134864326Y-114138256D01*
X134864327Y-114138259D01*
X134922818Y-114318277D01*
X134922821Y-114318284D01*
X135017466Y-114482215D01*
X135017648Y-114482417D01*
X135017716Y-114482559D01*
X135021285Y-114487471D01*
X135020386Y-114488123D01*
X135047879Y-114545408D01*
X135049500Y-114565391D01*
X135049500Y-118418997D01*
X135051594Y-118429525D01*
X135053297Y-118466672D01*
X135044540Y-118550000D01*
X135064326Y-118738256D01*
X135064327Y-118738259D01*
X135122818Y-118918277D01*
X135122821Y-118918284D01*
X135217467Y-119082216D01*
X135344129Y-119222888D01*
X135497265Y-119334148D01*
X135497270Y-119334151D01*
X135670192Y-119411142D01*
X135670197Y-119411144D01*
X135855354Y-119450500D01*
X135855355Y-119450500D01*
X136044644Y-119450500D01*
X136044646Y-119450500D01*
X136229803Y-119411144D01*
X136402730Y-119334151D01*
X136555871Y-119222888D01*
X136682533Y-119082216D01*
X136777179Y-118918284D01*
X136835674Y-118738256D01*
X136855460Y-118550000D01*
X154844540Y-118550000D01*
X154864326Y-118738256D01*
X154864327Y-118738259D01*
X154922818Y-118918277D01*
X154922821Y-118918284D01*
X155017467Y-119082216D01*
X155144129Y-119222888D01*
X155297265Y-119334148D01*
X155297270Y-119334151D01*
X155470192Y-119411142D01*
X155470197Y-119411144D01*
X155655354Y-119450500D01*
X155655355Y-119450500D01*
X155844644Y-119450500D01*
X155844646Y-119450500D01*
X156029803Y-119411144D01*
X156202730Y-119334151D01*
X156355871Y-119222888D01*
X156482533Y-119082216D01*
X156577179Y-118918284D01*
X156635674Y-118738256D01*
X156655460Y-118550000D01*
X156635674Y-118361744D01*
X156577179Y-118181716D01*
X156482533Y-118017784D01*
X156482344Y-118017574D01*
X156482273Y-118017427D01*
X156478714Y-118012528D01*
X156479610Y-118011876D01*
X156452119Y-117954580D01*
X156450500Y-117934608D01*
X156450500Y-114877891D01*
X156470185Y-114810852D01*
X156482352Y-114794917D01*
X156482533Y-114794716D01*
X156577179Y-114630784D01*
X156635674Y-114450756D01*
X156655460Y-114262500D01*
X156635674Y-114074244D01*
X156577179Y-113894216D01*
X156482533Y-113730284D01*
X156355871Y-113589612D01*
X156355870Y-113589611D01*
X156202734Y-113478351D01*
X156202729Y-113478348D01*
X156029807Y-113401357D01*
X156029802Y-113401355D01*
X155884001Y-113370365D01*
X155844646Y-113362000D01*
X155655354Y-113362000D01*
X155622897Y-113368898D01*
X155470197Y-113401355D01*
X155470192Y-113401357D01*
X155297270Y-113478348D01*
X155297265Y-113478351D01*
X155144129Y-113589611D01*
X155017466Y-113730285D01*
X154922821Y-113894215D01*
X154922818Y-113894222D01*
X154864327Y-114074240D01*
X154864326Y-114074244D01*
X154844540Y-114262500D01*
X154864326Y-114450756D01*
X154864327Y-114450759D01*
X154922818Y-114630777D01*
X154922821Y-114630784D01*
X155017466Y-114794715D01*
X155017648Y-114794917D01*
X155017716Y-114795059D01*
X155021285Y-114799971D01*
X155020386Y-114800623D01*
X155047879Y-114857908D01*
X155049500Y-114877891D01*
X155049500Y-117934608D01*
X155029815Y-118001647D01*
X155017656Y-118017574D01*
X155017468Y-118017782D01*
X155017464Y-118017787D01*
X154922821Y-118181715D01*
X154922818Y-118181722D01*
X154864327Y-118361740D01*
X154864326Y-118361744D01*
X154844540Y-118550000D01*
X136855460Y-118550000D01*
X136835674Y-118361744D01*
X136777179Y-118181716D01*
X136682533Y-118017784D01*
X136607641Y-117934608D01*
X136555876Y-117877116D01*
X136555871Y-117877112D01*
X136501613Y-117837690D01*
X136458948Y-117782359D01*
X136450500Y-117737373D01*
X136450500Y-114565391D01*
X136470185Y-114498352D01*
X136482352Y-114482417D01*
X136482533Y-114482216D01*
X136577179Y-114318284D01*
X136635674Y-114138256D01*
X136655460Y-113950000D01*
X136635674Y-113761744D01*
X136577179Y-113581716D01*
X136482533Y-113417784D01*
X136355871Y-113277112D01*
X136355870Y-113277111D01*
X136202734Y-113165851D01*
X136202729Y-113165848D01*
X136029807Y-113088857D01*
X136029802Y-113088855D01*
X135884001Y-113057865D01*
X135844646Y-113049500D01*
X135655354Y-113049500D01*
X135622897Y-113056398D01*
X135470197Y-113088855D01*
X135470192Y-113088857D01*
X135297270Y-113165848D01*
X135297265Y-113165851D01*
X135144129Y-113277111D01*
X135017466Y-113417785D01*
X134922821Y-113581715D01*
X134922818Y-113581722D01*
X134864327Y-113761740D01*
X134864326Y-113761744D01*
X134844540Y-113950000D01*
X94150500Y-113950000D01*
X94150500Y-95411610D01*
X99624500Y-95411610D01*
X99648535Y-95532443D01*
X99648535Y-95532446D01*
X99648536Y-95532449D01*
X99648537Y-95532452D01*
X99657679Y-95554523D01*
X99684555Y-95619410D01*
X99695688Y-95646287D01*
X99721243Y-95684530D01*
X99721244Y-95684532D01*
X99764141Y-95748733D01*
X99855586Y-95840178D01*
X99855608Y-95840198D01*
X100336016Y-96320606D01*
X100336045Y-96320637D01*
X100426264Y-96410856D01*
X100426267Y-96410858D01*
X100503190Y-96462256D01*
X100529057Y-96479541D01*
X100573862Y-96533154D01*
X100582568Y-96602479D01*
X100570650Y-96638936D01*
X100523445Y-96731582D01*
X100523443Y-96731587D01*
X100523443Y-96731588D01*
X100479650Y-96866367D01*
X100457753Y-96933760D01*
X100424500Y-97143713D01*
X100424500Y-97356286D01*
X100457753Y-97566239D01*
X100523444Y-97768414D01*
X100619951Y-97957820D01*
X100744890Y-98129786D01*
X100895213Y-98280109D01*
X101067179Y-98405048D01*
X101067181Y-98405049D01*
X101067184Y-98405051D01*
X101256588Y-98501557D01*
X101458757Y-98567246D01*
X101668713Y-98600500D01*
X101668714Y-98600500D01*
X102131286Y-98600500D01*
X102131287Y-98600500D01*
X102341243Y-98567246D01*
X102543412Y-98501557D01*
X102732816Y-98405051D01*
X102819183Y-98342302D01*
X102877615Y-98299850D01*
X102943421Y-98276370D01*
X103011475Y-98292196D01*
X103060170Y-98342302D01*
X103074500Y-98400168D01*
X103074500Y-108124789D01*
X103074500Y-108248003D01*
X103079713Y-108274211D01*
X103092789Y-108339950D01*
X103098537Y-108368848D01*
X103098539Y-108368854D01*
X103106842Y-108388899D01*
X103145685Y-108482677D01*
X103145687Y-108482681D01*
X103173438Y-108524211D01*
X103173439Y-108524213D01*
X103214140Y-108585127D01*
X103214141Y-108585128D01*
X103214142Y-108585129D01*
X103301267Y-108672254D01*
X103301268Y-108672254D01*
X103308335Y-108679321D01*
X103308334Y-108679321D01*
X103308338Y-108679324D01*
X104988181Y-110359167D01*
X105021666Y-110420490D01*
X105024500Y-110446848D01*
X105024500Y-111455145D01*
X105005494Y-111521117D01*
X104924211Y-111650476D01*
X104864631Y-111820745D01*
X104864630Y-111820750D01*
X104844435Y-111999996D01*
X104844435Y-112000003D01*
X104864630Y-112179249D01*
X104864631Y-112179254D01*
X104924211Y-112349523D01*
X105020184Y-112502262D01*
X105147738Y-112629816D01*
X105300478Y-112725789D01*
X105470745Y-112785368D01*
X105470750Y-112785369D01*
X105649996Y-112805565D01*
X105650000Y-112805565D01*
X105650004Y-112805565D01*
X105829249Y-112785369D01*
X105829252Y-112785368D01*
X105829255Y-112785368D01*
X105999522Y-112725789D01*
X106152262Y-112629816D01*
X106279816Y-112502262D01*
X106375789Y-112349522D01*
X106435368Y-112179255D01*
X106438866Y-112148203D01*
X106465930Y-112083792D01*
X106523523Y-112044235D01*
X106548196Y-112038867D01*
X106579255Y-112035368D01*
X106749522Y-111975789D01*
X106902262Y-111879816D01*
X107029816Y-111752262D01*
X107125789Y-111599522D01*
X107185368Y-111429255D01*
X107205565Y-111250000D01*
X107185368Y-111070745D01*
X107125789Y-110900478D01*
X107044505Y-110771116D01*
X107025500Y-110705145D01*
X107025500Y-110317741D01*
X107025501Y-110317720D01*
X107025501Y-110188391D01*
X107025500Y-110188389D01*
X107001465Y-110067558D01*
X107001463Y-110067551D01*
X107001463Y-110067549D01*
X106999001Y-110061606D01*
X106981932Y-110020397D01*
X106954312Y-109953715D01*
X106885858Y-109851267D01*
X106885855Y-109851263D01*
X104811819Y-107777227D01*
X104778334Y-107715904D01*
X104775500Y-107689546D01*
X104775500Y-97067741D01*
X104775501Y-97067720D01*
X104775501Y-96938390D01*
X104751464Y-96817555D01*
X104751463Y-96817549D01*
X104704312Y-96703715D01*
X104635858Y-96601267D01*
X104635855Y-96601263D01*
X103336773Y-95302183D01*
X103303288Y-95240860D01*
X103306522Y-95176186D01*
X103342246Y-95066243D01*
X103375500Y-94856287D01*
X103375500Y-94643713D01*
X103342246Y-94433757D01*
X103306522Y-94323813D01*
X103304528Y-94253973D01*
X103336771Y-94197817D01*
X107812821Y-89721768D01*
X107874142Y-89688285D01*
X107943834Y-89693269D01*
X107999767Y-89735141D01*
X108024184Y-89800605D01*
X108024500Y-89809451D01*
X108024500Y-94705145D01*
X108005494Y-94771117D01*
X107924211Y-94900476D01*
X107864631Y-95070745D01*
X107864630Y-95070750D01*
X107844435Y-95249996D01*
X107844435Y-95250003D01*
X107864630Y-95429249D01*
X107864631Y-95429254D01*
X107924211Y-95599523D01*
X107953595Y-95646287D01*
X108020184Y-95752262D01*
X108147738Y-95879816D01*
X108300478Y-95975789D01*
X108470745Y-96035368D01*
X108470750Y-96035369D01*
X108649996Y-96055565D01*
X108650000Y-96055565D01*
X108650004Y-96055565D01*
X108829249Y-96035369D01*
X108829252Y-96035368D01*
X108829255Y-96035368D01*
X108999522Y-95975789D01*
X109152262Y-95879816D01*
X109279816Y-95752262D01*
X109375789Y-95599522D01*
X109435368Y-95429255D01*
X109444734Y-95346129D01*
X109455565Y-95250003D01*
X109455565Y-95249996D01*
X109435369Y-95070750D01*
X109435368Y-95070745D01*
X109433791Y-95066237D01*
X109375789Y-94900478D01*
X109294505Y-94771116D01*
X109275500Y-94705145D01*
X109275500Y-87150000D01*
X121544659Y-87150000D01*
X121563975Y-87346129D01*
X121621188Y-87534733D01*
X121714086Y-87708532D01*
X121714090Y-87708539D01*
X121839116Y-87860883D01*
X121991460Y-87985909D01*
X121991467Y-87985913D01*
X122165266Y-88078811D01*
X122165269Y-88078811D01*
X122165273Y-88078814D01*
X122353868Y-88136024D01*
X122550000Y-88155341D01*
X122746132Y-88136024D01*
X122934727Y-88078814D01*
X122937360Y-88077407D01*
X123108532Y-87985913D01*
X123108534Y-87985912D01*
X123108533Y-87985912D01*
X123108538Y-87985910D01*
X123117387Y-87978647D01*
X123181696Y-87951334D01*
X123196053Y-87950500D01*
X124503947Y-87950500D01*
X124570986Y-87970185D01*
X124582607Y-87978643D01*
X124591462Y-87985910D01*
X124591463Y-87985910D01*
X124591465Y-87985912D01*
X124591467Y-87985913D01*
X124765266Y-88078811D01*
X124765269Y-88078811D01*
X124765273Y-88078814D01*
X124953868Y-88136024D01*
X125150000Y-88155341D01*
X125346132Y-88136024D01*
X125534727Y-88078814D01*
X125537360Y-88077407D01*
X125708532Y-87985913D01*
X125708534Y-87985912D01*
X125708538Y-87985910D01*
X125860883Y-87860883D01*
X125985910Y-87708538D01*
X126061968Y-87566243D01*
X126078811Y-87534733D01*
X126078811Y-87534732D01*
X126078814Y-87534727D01*
X126136024Y-87346132D01*
X126155341Y-87150000D01*
X126136024Y-86953868D01*
X126078814Y-86765273D01*
X126078811Y-86765269D01*
X126078811Y-86765266D01*
X125985913Y-86591467D01*
X125985909Y-86591460D01*
X125860883Y-86439116D01*
X125708539Y-86314090D01*
X125708532Y-86314086D01*
X125534733Y-86221188D01*
X125534727Y-86221186D01*
X125346132Y-86163976D01*
X125346129Y-86163975D01*
X125150000Y-86144659D01*
X124953870Y-86163975D01*
X124765266Y-86221188D01*
X124591467Y-86314086D01*
X124591465Y-86314087D01*
X124587276Y-86317525D01*
X124582612Y-86321352D01*
X124518304Y-86348666D01*
X124503947Y-86349500D01*
X123196053Y-86349500D01*
X123129014Y-86329815D01*
X123117392Y-86321356D01*
X123108538Y-86314090D01*
X123108537Y-86314089D01*
X123108534Y-86314087D01*
X123108532Y-86314086D01*
X122934733Y-86221188D01*
X122934727Y-86221186D01*
X122746132Y-86163976D01*
X122746129Y-86163975D01*
X122550000Y-86144659D01*
X122353870Y-86163975D01*
X122165266Y-86221188D01*
X121991467Y-86314086D01*
X121991460Y-86314090D01*
X121839116Y-86439116D01*
X121714090Y-86591460D01*
X121714086Y-86591467D01*
X121621188Y-86765266D01*
X121563975Y-86953870D01*
X121544659Y-87150000D01*
X109275500Y-87150000D01*
X109275500Y-81794854D01*
X109294507Y-81728881D01*
X109375788Y-81599524D01*
X109375789Y-81599522D01*
X109435368Y-81429255D01*
X109446476Y-81330668D01*
X109455565Y-81250003D01*
X109455565Y-81249996D01*
X109435369Y-81070750D01*
X109435368Y-81070745D01*
X109430659Y-81057288D01*
X109375789Y-80900478D01*
X109375174Y-80899500D01*
X109279815Y-80747737D01*
X109152262Y-80620184D01*
X108999521Y-80524210D01*
X108829249Y-80464630D01*
X108760616Y-80456897D01*
X108696202Y-80429830D01*
X108656647Y-80372235D01*
X108650500Y-80333677D01*
X108650500Y-74313389D01*
X108647737Y-74299502D01*
X108647735Y-74299495D01*
X108636991Y-74245476D01*
X108636991Y-74245475D01*
X108626464Y-74192555D01*
X108626463Y-74192548D01*
X108579311Y-74078714D01*
X108579310Y-74078713D01*
X108579307Y-74078707D01*
X108510858Y-73976267D01*
X108510855Y-73976263D01*
X108420637Y-73886045D01*
X108420606Y-73886016D01*
X107726211Y-73191621D01*
X107692726Y-73130298D01*
X107690673Y-73117838D01*
X107685368Y-73070745D01*
X107625789Y-72900478D01*
X107625174Y-72899500D01*
X107553461Y-72785369D01*
X107529816Y-72747738D01*
X107402262Y-72620184D01*
X107249523Y-72524211D01*
X107079254Y-72464631D01*
X107079249Y-72464630D01*
X106900004Y-72444435D01*
X106899996Y-72444435D01*
X106720750Y-72464630D01*
X106720745Y-72464631D01*
X106550476Y-72524211D01*
X106397737Y-72620184D01*
X106270184Y-72747737D01*
X106174211Y-72900476D01*
X106114631Y-73070745D01*
X106114630Y-73070750D01*
X106094435Y-73249996D01*
X106094435Y-73250003D01*
X106114630Y-73429249D01*
X106114633Y-73429262D01*
X106174209Y-73599520D01*
X106227309Y-73684029D01*
X106246309Y-73751266D01*
X106227309Y-73815971D01*
X106174209Y-73900479D01*
X106114633Y-74070737D01*
X106114630Y-74070750D01*
X106094435Y-74249996D01*
X106094435Y-74250003D01*
X106114630Y-74429249D01*
X106114631Y-74429254D01*
X106174211Y-74599523D01*
X106270184Y-74752262D01*
X106397738Y-74879816D01*
X106550478Y-74975789D01*
X106720745Y-75035368D01*
X106767823Y-75040672D01*
X106832236Y-75067737D01*
X106841621Y-75076211D01*
X106913181Y-75147771D01*
X106946666Y-75209094D01*
X106949500Y-75235452D01*
X106949500Y-88128152D01*
X106929815Y-88195191D01*
X106913181Y-88215833D01*
X103540833Y-91588181D01*
X103479510Y-91621666D01*
X103453152Y-91624500D01*
X103297981Y-91624500D01*
X103230942Y-91604815D01*
X103187497Y-91556797D01*
X103180049Y-91542180D01*
X103055109Y-91370213D01*
X102904792Y-91219896D01*
X102904784Y-91219890D01*
X102740204Y-91100316D01*
X102697540Y-91044989D01*
X102691561Y-90975376D01*
X102724166Y-90913580D01*
X102740199Y-90899686D01*
X102904792Y-90780104D01*
X103055104Y-90629792D01*
X103055106Y-90629788D01*
X103055109Y-90629786D01*
X103180048Y-90457820D01*
X103180047Y-90457820D01*
X103180051Y-90457816D01*
X103276557Y-90268412D01*
X103342246Y-90066243D01*
X103375500Y-89856287D01*
X103375500Y-89643713D01*
X103342246Y-89433757D01*
X103276557Y-89231588D01*
X103180051Y-89042184D01*
X103180049Y-89042181D01*
X103180048Y-89042179D01*
X103055109Y-88870213D01*
X102904792Y-88719896D01*
X102849198Y-88679505D01*
X102740204Y-88600316D01*
X102697540Y-88544989D01*
X102691561Y-88475376D01*
X102724166Y-88413580D01*
X102740199Y-88399686D01*
X102904792Y-88280104D01*
X103055104Y-88129792D01*
X103055106Y-88129788D01*
X103055109Y-88129786D01*
X103180048Y-87957820D01*
X103180047Y-87957820D01*
X103180051Y-87957816D01*
X103276557Y-87768412D01*
X103342246Y-87566243D01*
X103375500Y-87356287D01*
X103375500Y-87143713D01*
X103342246Y-86933757D01*
X103276557Y-86731588D01*
X103180051Y-86542184D01*
X103180049Y-86542181D01*
X103180048Y-86542179D01*
X103055109Y-86370213D01*
X102904790Y-86219894D01*
X102904785Y-86219890D01*
X102739781Y-86100008D01*
X102697115Y-86044678D01*
X102691136Y-85975065D01*
X102723741Y-85913270D01*
X102739781Y-85899371D01*
X102904466Y-85779721D01*
X103054723Y-85629464D01*
X103054727Y-85629459D01*
X103179620Y-85457557D01*
X103276095Y-85268217D01*
X103341757Y-85066129D01*
X103341757Y-85066126D01*
X103352231Y-85000000D01*
X102304146Y-85000000D01*
X102342630Y-84933343D01*
X102375000Y-84812535D01*
X102375000Y-84687465D01*
X102342630Y-84566657D01*
X102304146Y-84500000D01*
X103352231Y-84500000D01*
X103341757Y-84433873D01*
X103341757Y-84433870D01*
X103276095Y-84231782D01*
X103179620Y-84042442D01*
X103054727Y-83870540D01*
X103054723Y-83870535D01*
X102915856Y-83731668D01*
X102882371Y-83670345D01*
X102887355Y-83600653D01*
X102929227Y-83544720D01*
X102938441Y-83538448D01*
X102944331Y-83534814D01*
X102944334Y-83534814D01*
X103093656Y-83442712D01*
X103217712Y-83318656D01*
X103309814Y-83169334D01*
X103364999Y-83002797D01*
X103375500Y-82900009D01*
X103375499Y-81599992D01*
X103364999Y-81497203D01*
X103309814Y-81330666D01*
X103217712Y-81181344D01*
X103093656Y-81057288D01*
X102944334Y-80965186D01*
X102777797Y-80910001D01*
X102777795Y-80910000D01*
X102675010Y-80899500D01*
X101124998Y-80899500D01*
X101124981Y-80899501D01*
X101022203Y-80910000D01*
X101022200Y-80910001D01*
X100855668Y-80965185D01*
X100855663Y-80965187D01*
X100706342Y-81057289D01*
X100582289Y-81181342D01*
X100490187Y-81330663D01*
X100490186Y-81330666D01*
X100435001Y-81497203D01*
X100435001Y-81497204D01*
X100435000Y-81497204D01*
X100424500Y-81599983D01*
X100424500Y-82900001D01*
X100424501Y-82900018D01*
X100435000Y-83002796D01*
X100435001Y-83002799D01*
X100490185Y-83169331D01*
X100490187Y-83169336D01*
X100582289Y-83318657D01*
X100706344Y-83442712D01*
X100861558Y-83538448D01*
X100908283Y-83590396D01*
X100919506Y-83659358D01*
X100891663Y-83723441D01*
X100884144Y-83731668D01*
X100745271Y-83870541D01*
X100620379Y-84042442D01*
X100523904Y-84231782D01*
X100458242Y-84433870D01*
X100458242Y-84433873D01*
X100447769Y-84500000D01*
X101495854Y-84500000D01*
X101457370Y-84566657D01*
X101425000Y-84687465D01*
X101425000Y-84812535D01*
X101457370Y-84933343D01*
X101495854Y-85000000D01*
X100447769Y-85000000D01*
X100458242Y-85066126D01*
X100458242Y-85066129D01*
X100523904Y-85268217D01*
X100620379Y-85457557D01*
X100745272Y-85629459D01*
X100745276Y-85629464D01*
X100895535Y-85779723D01*
X100895540Y-85779727D01*
X101060218Y-85899372D01*
X101102884Y-85954701D01*
X101108863Y-86024315D01*
X101076258Y-86086110D01*
X101060218Y-86100008D01*
X100895214Y-86219890D01*
X100895209Y-86219894D01*
X100744890Y-86370213D01*
X100619951Y-86542179D01*
X100523444Y-86731585D01*
X100457753Y-86933760D01*
X100424500Y-87143713D01*
X100424500Y-87356286D01*
X100457753Y-87566239D01*
X100523444Y-87768414D01*
X100619951Y-87957820D01*
X100744890Y-88129786D01*
X100895209Y-88280105D01*
X100895214Y-88280109D01*
X101059793Y-88399682D01*
X101102459Y-88455011D01*
X101108438Y-88524625D01*
X101075833Y-88586420D01*
X101059793Y-88600318D01*
X100895214Y-88719890D01*
X100895209Y-88719894D01*
X100744890Y-88870213D01*
X100619951Y-89042179D01*
X100523444Y-89231585D01*
X100457753Y-89433760D01*
X100424500Y-89643713D01*
X100424500Y-89856286D01*
X100457302Y-90063393D01*
X100457754Y-90066243D01*
X100516725Y-90247737D01*
X100523444Y-90268414D01*
X100619951Y-90457820D01*
X100744890Y-90629786D01*
X100895209Y-90780105D01*
X100895214Y-90780109D01*
X101059793Y-90899682D01*
X101102459Y-90955011D01*
X101108438Y-91024625D01*
X101075833Y-91086420D01*
X101059793Y-91100318D01*
X100895214Y-91219890D01*
X100895209Y-91219894D01*
X100744890Y-91370213D01*
X100619950Y-91542180D01*
X100612503Y-91556797D01*
X100564527Y-91607592D01*
X100502019Y-91624500D01*
X100488393Y-91624500D01*
X100470018Y-91628155D01*
X100411289Y-91639836D01*
X100367545Y-91648537D01*
X100347543Y-91656823D01*
X100334207Y-91662347D01*
X100253719Y-91695684D01*
X100253705Y-91695692D01*
X100151272Y-91764138D01*
X100151264Y-91764144D01*
X99764144Y-92151264D01*
X99764138Y-92151272D01*
X99695692Y-92253705D01*
X99695684Y-92253720D01*
X99662346Y-92334205D01*
X99662347Y-92334206D01*
X99653203Y-92356283D01*
X99648539Y-92367542D01*
X99648537Y-92367548D01*
X99648537Y-92367549D01*
X99633897Y-92441156D01*
X99625972Y-92480998D01*
X99625970Y-92481006D01*
X99624501Y-92488388D01*
X99624500Y-92488399D01*
X99624500Y-95411610D01*
X94150500Y-95411610D01*
X94150500Y-67941669D01*
X108769435Y-67941669D01*
X108789630Y-68120915D01*
X108789631Y-68120920D01*
X108849211Y-68291189D01*
X108945184Y-68443928D01*
X108952242Y-68450986D01*
X108979122Y-68491215D01*
X109020685Y-68591560D01*
X109020690Y-68591569D01*
X109054914Y-68642787D01*
X109054915Y-68642789D01*
X109089140Y-68694011D01*
X109089141Y-68694012D01*
X109089142Y-68694013D01*
X109176267Y-68781138D01*
X109176268Y-68781138D01*
X109183335Y-68788205D01*
X109183334Y-68788205D01*
X109183338Y-68788208D01*
X116505982Y-76110854D01*
X116505985Y-76110857D01*
X116574131Y-76156390D01*
X116608434Y-76179311D01*
X116608435Y-76179311D01*
X116608436Y-76179312D01*
X116634222Y-76189993D01*
X116722268Y-76226463D01*
X116843108Y-76250499D01*
X116843112Y-76250500D01*
X116843113Y-76250500D01*
X118256887Y-76250500D01*
X118317309Y-76238481D01*
X118377732Y-76226463D01*
X118377735Y-76226461D01*
X118377738Y-76226461D01*
X118411067Y-76212654D01*
X118411066Y-76212654D01*
X118411072Y-76212652D01*
X118491566Y-76179312D01*
X118549128Y-76140849D01*
X118594013Y-76110858D01*
X118681138Y-76023733D01*
X118681139Y-76023731D01*
X118688205Y-76016665D01*
X118688207Y-76016661D01*
X120043051Y-74661819D01*
X120104374Y-74628334D01*
X120130732Y-74625500D01*
X127250892Y-74625500D01*
X127317931Y-74645185D01*
X127338573Y-74661819D01*
X128847360Y-76170606D01*
X128847389Y-76170637D01*
X128937608Y-76260856D01*
X128937611Y-76260858D01*
X128988834Y-76295084D01*
X129040058Y-76329312D01*
X129120551Y-76362652D01*
X129153892Y-76376463D01*
X129153894Y-76376463D01*
X129153896Y-76376464D01*
X129172582Y-76380180D01*
X129176129Y-76380886D01*
X129274735Y-76400499D01*
X129274736Y-76400500D01*
X129274737Y-76400500D01*
X129274738Y-76400500D01*
X136402907Y-76400500D01*
X136469946Y-76420185D01*
X136515701Y-76472989D01*
X136525645Y-76542147D01*
X136520838Y-76562818D01*
X136464327Y-76736740D01*
X136464326Y-76736744D01*
X136444540Y-76925000D01*
X136464326Y-77113256D01*
X136464327Y-77113259D01*
X136522818Y-77293277D01*
X136522821Y-77293284D01*
X136617466Y-77457215D01*
X136617648Y-77457417D01*
X136617716Y-77457559D01*
X136621285Y-77462471D01*
X136620386Y-77463123D01*
X136647879Y-77520408D01*
X136649500Y-77540391D01*
X136649500Y-90134608D01*
X136629815Y-90201647D01*
X136617656Y-90217574D01*
X136617468Y-90217782D01*
X136617466Y-90217786D01*
X136522821Y-90381715D01*
X136522818Y-90381722D01*
X136464327Y-90561740D01*
X136464326Y-90561744D01*
X136444540Y-90750000D01*
X136464326Y-90938256D01*
X136464327Y-90938259D01*
X136522818Y-91118277D01*
X136522821Y-91118284D01*
X136617466Y-91282215D01*
X136617648Y-91282417D01*
X136617716Y-91282559D01*
X136621285Y-91287471D01*
X136620386Y-91288123D01*
X136647879Y-91345408D01*
X136649500Y-91365391D01*
X136649500Y-108534608D01*
X136629815Y-108601647D01*
X136617656Y-108617574D01*
X136617468Y-108617782D01*
X136617464Y-108617787D01*
X136522821Y-108781715D01*
X136522818Y-108781722D01*
X136464327Y-108961740D01*
X136464326Y-108961744D01*
X136444540Y-109150000D01*
X136453740Y-109237540D01*
X136441172Y-109306268D01*
X136393439Y-109357292D01*
X136330420Y-109374500D01*
X131829565Y-109374500D01*
X131762526Y-109354815D01*
X131716771Y-109302011D01*
X131706946Y-109256851D01*
X131706345Y-109256919D01*
X131705682Y-109251041D01*
X131705565Y-109250500D01*
X131705565Y-109249996D01*
X131685369Y-109070750D01*
X131685368Y-109070745D01*
X131660612Y-108999996D01*
X131625789Y-108900478D01*
X131529816Y-108747738D01*
X131402262Y-108620184D01*
X131357414Y-108592004D01*
X131249523Y-108524211D01*
X131079254Y-108464631D01*
X131079249Y-108464630D01*
X130900004Y-108444435D01*
X130899996Y-108444435D01*
X130807934Y-108454807D01*
X130739113Y-108442752D01*
X130706371Y-108419268D01*
X130492252Y-108205149D01*
X130458767Y-108143826D01*
X130463751Y-108074134D01*
X130505623Y-108018201D01*
X130571087Y-107993784D01*
X130620888Y-108000427D01*
X130720737Y-108035366D01*
X130720743Y-108035367D01*
X130720745Y-108035368D01*
X130720746Y-108035368D01*
X130720750Y-108035369D01*
X130899996Y-108055565D01*
X130900000Y-108055565D01*
X130900004Y-108055565D01*
X131079249Y-108035369D01*
X131079252Y-108035368D01*
X131079255Y-108035368D01*
X131249522Y-107975789D01*
X131402262Y-107879816D01*
X131529816Y-107752262D01*
X131625789Y-107599522D01*
X131685368Y-107429255D01*
X131685369Y-107429249D01*
X131705565Y-107250003D01*
X131705565Y-107249996D01*
X131685369Y-107070750D01*
X131685368Y-107070745D01*
X131625788Y-106900476D01*
X131558440Y-106793293D01*
X131529816Y-106747738D01*
X131402262Y-106620184D01*
X131378883Y-106605494D01*
X131249523Y-106524211D01*
X131079254Y-106464631D01*
X131079249Y-106464630D01*
X130900004Y-106444435D01*
X130899996Y-106444435D01*
X130720750Y-106464630D01*
X130720745Y-106464631D01*
X130550476Y-106524211D01*
X130421117Y-106605494D01*
X130355145Y-106624500D01*
X129599361Y-106624500D01*
X129532322Y-106604815D01*
X129511680Y-106588181D01*
X128781836Y-105858338D01*
X128781833Y-105858334D01*
X128781833Y-105858335D01*
X128774767Y-105851269D01*
X128774766Y-105851267D01*
X128687641Y-105764142D01*
X128687637Y-105764139D01*
X128687636Y-105764138D01*
X128634812Y-105728842D01*
X128634810Y-105728841D01*
X128585198Y-105695690D01*
X128585194Y-105695688D01*
X128563782Y-105686819D01*
X128504700Y-105662347D01*
X128471361Y-105648537D01*
X128461335Y-105646543D01*
X128410937Y-105636518D01*
X128350518Y-105624500D01*
X128350515Y-105624500D01*
X128350514Y-105624500D01*
X119510060Y-105624500D01*
X119443021Y-105604815D01*
X119397266Y-105552011D01*
X119386840Y-105486616D01*
X119397507Y-105391944D01*
X119397507Y-105391938D01*
X119377311Y-105212692D01*
X119377309Y-105212683D01*
X119334893Y-105091467D01*
X119317731Y-105042420D01*
X119290444Y-104998993D01*
X119271444Y-104931757D01*
X119278395Y-104892072D01*
X119335368Y-104729255D01*
X119342723Y-104663976D01*
X119355565Y-104550003D01*
X119355565Y-104549996D01*
X119335369Y-104370750D01*
X119335368Y-104370745D01*
X119275789Y-104200478D01*
X119179816Y-104047738D01*
X119052262Y-103920184D01*
X119052261Y-103920183D01*
X119047185Y-103916135D01*
X119007046Y-103858946D01*
X119000500Y-103819190D01*
X119000500Y-102471848D01*
X119020185Y-102404809D01*
X119036819Y-102384167D01*
X119870986Y-101550000D01*
X127544659Y-101550000D01*
X127563975Y-101746129D01*
X127621188Y-101934733D01*
X127714086Y-102108532D01*
X127714090Y-102108539D01*
X127839116Y-102260883D01*
X127991460Y-102385909D01*
X127991467Y-102385913D01*
X128165266Y-102478811D01*
X128165269Y-102478811D01*
X128165273Y-102478814D01*
X128353868Y-102536024D01*
X128550000Y-102555341D01*
X128746132Y-102536024D01*
X128934727Y-102478814D01*
X128947760Y-102471848D01*
X129108532Y-102385913D01*
X129108538Y-102385910D01*
X129260883Y-102260883D01*
X129385910Y-102108538D01*
X129478814Y-101934727D01*
X129536024Y-101746132D01*
X129555341Y-101550000D01*
X129547559Y-101470993D01*
X129549345Y-101434646D01*
X129550500Y-101428842D01*
X129550500Y-101271157D01*
X129550500Y-95796052D01*
X129570185Y-95729013D01*
X129578643Y-95717392D01*
X129585910Y-95708538D01*
X129678814Y-95534727D01*
X129736024Y-95346132D01*
X129755341Y-95150000D01*
X129736024Y-94953868D01*
X129678814Y-94765273D01*
X129678811Y-94765269D01*
X129678811Y-94765266D01*
X129585913Y-94591467D01*
X129585909Y-94591460D01*
X129460883Y-94439116D01*
X129308539Y-94314090D01*
X129308532Y-94314086D01*
X129134733Y-94221188D01*
X129134727Y-94221186D01*
X128946132Y-94163976D01*
X128946129Y-94163975D01*
X128750000Y-94144659D01*
X128553870Y-94163975D01*
X128365266Y-94221188D01*
X128191467Y-94314086D01*
X128191460Y-94314090D01*
X128039116Y-94439116D01*
X127914090Y-94591460D01*
X127914086Y-94591467D01*
X127821188Y-94765266D01*
X127763975Y-94953870D01*
X127744659Y-95150000D01*
X127763975Y-95346129D01*
X127821187Y-95534730D01*
X127914090Y-95708538D01*
X127921350Y-95717385D01*
X127948666Y-95781691D01*
X127949500Y-95796052D01*
X127949500Y-100689880D01*
X127929815Y-100756919D01*
X127904169Y-100785729D01*
X127839117Y-100839117D01*
X127839114Y-100839119D01*
X127839112Y-100839122D01*
X127714090Y-100991460D01*
X127714086Y-100991467D01*
X127621188Y-101165266D01*
X127563975Y-101353870D01*
X127544659Y-101550000D01*
X119870986Y-101550000D01*
X130009167Y-91411819D01*
X130070490Y-91378334D01*
X130096848Y-91375500D01*
X130355145Y-91375500D01*
X130421116Y-91394505D01*
X130550478Y-91475789D01*
X130720745Y-91535368D01*
X130720750Y-91535369D01*
X130899996Y-91555565D01*
X130900000Y-91555565D01*
X130900004Y-91555565D01*
X131079249Y-91535369D01*
X131079252Y-91535368D01*
X131079255Y-91535368D01*
X131249522Y-91475789D01*
X131402262Y-91379816D01*
X131529816Y-91252262D01*
X131625789Y-91099522D01*
X131685368Y-90929255D01*
X131692078Y-90869701D01*
X131705565Y-90750003D01*
X131705565Y-90749996D01*
X131685369Y-90570750D01*
X131685368Y-90570745D01*
X131625789Y-90400478D01*
X131613999Y-90381715D01*
X131567332Y-90307444D01*
X131529816Y-90247738D01*
X131402262Y-90120184D01*
X131249520Y-90024209D01*
X131157587Y-89992040D01*
X131100812Y-89951318D01*
X131075065Y-89886365D01*
X131088522Y-89817804D01*
X131136909Y-89767401D01*
X131157586Y-89757958D01*
X131222796Y-89735141D01*
X131249520Y-89725790D01*
X131255918Y-89721770D01*
X131402262Y-89629816D01*
X131529816Y-89502262D01*
X131625789Y-89349522D01*
X131685368Y-89179255D01*
X131705565Y-89000000D01*
X131698987Y-88941621D01*
X131685369Y-88820750D01*
X131685368Y-88820745D01*
X131650077Y-88719890D01*
X131625789Y-88650478D01*
X131529816Y-88497738D01*
X131402262Y-88370184D01*
X131347897Y-88336024D01*
X131249523Y-88274211D01*
X131079254Y-88214631D01*
X131079249Y-88214630D01*
X130900004Y-88194435D01*
X130899996Y-88194435D01*
X130720750Y-88214630D01*
X130720745Y-88214631D01*
X130550476Y-88274211D01*
X130397737Y-88370184D01*
X130270184Y-88497737D01*
X130174210Y-88650478D01*
X130114630Y-88820750D01*
X130109326Y-88867825D01*
X130082258Y-88932239D01*
X130073787Y-88941621D01*
X123774549Y-95240860D01*
X117526270Y-101489139D01*
X117526267Y-101489142D01*
X117482704Y-101532704D01*
X117439142Y-101576266D01*
X117418550Y-101607085D01*
X117418549Y-101607084D01*
X117370687Y-101678715D01*
X117356725Y-101712423D01*
X117342763Y-101746132D01*
X117323538Y-101792544D01*
X117323535Y-101792556D01*
X117299500Y-101913389D01*
X117299500Y-101913394D01*
X117299500Y-104870490D01*
X117319202Y-104969544D01*
X117323537Y-104991335D01*
X117370688Y-105105170D01*
X117401620Y-105151461D01*
X117401621Y-105151464D01*
X117439138Y-105207612D01*
X117439139Y-105207613D01*
X117439142Y-105207617D01*
X117526267Y-105294742D01*
X117526269Y-105294743D01*
X117533335Y-105301809D01*
X117533334Y-105301809D01*
X117533338Y-105301812D01*
X117644345Y-105412819D01*
X117677830Y-105474142D01*
X117672846Y-105543834D01*
X117630974Y-105599767D01*
X117565510Y-105624184D01*
X117556664Y-105624500D01*
X116194855Y-105624500D01*
X116128883Y-105605494D01*
X115999523Y-105524211D01*
X115829254Y-105464631D01*
X115829249Y-105464630D01*
X115650004Y-105444435D01*
X115649996Y-105444435D01*
X115470750Y-105464630D01*
X115470745Y-105464631D01*
X115300476Y-105524211D01*
X115147737Y-105620184D01*
X115020184Y-105747737D01*
X114924211Y-105900476D01*
X114864631Y-106070745D01*
X114864630Y-106070750D01*
X114844435Y-106249996D01*
X114844435Y-106250003D01*
X114864630Y-106429249D01*
X114864631Y-106429254D01*
X114924211Y-106599523D01*
X115020184Y-106752262D01*
X115061215Y-106793293D01*
X115094700Y-106854616D01*
X115089716Y-106924308D01*
X115061216Y-106968655D01*
X114948799Y-107081072D01*
X114852827Y-107233809D01*
X114793247Y-107404078D01*
X114793246Y-107404083D01*
X114773051Y-107583329D01*
X114773051Y-107583336D01*
X114793246Y-107762582D01*
X114793247Y-107762587D01*
X114852827Y-107932856D01*
X114923625Y-108045530D01*
X114948800Y-108085595D01*
X115076354Y-108213149D01*
X115084971Y-108218563D01*
X115131263Y-108270897D01*
X115141913Y-108339950D01*
X115113539Y-108403799D01*
X115106683Y-108411239D01*
X115020183Y-108497739D01*
X114924211Y-108650476D01*
X114864631Y-108820745D01*
X114864630Y-108820750D01*
X114844435Y-108999996D01*
X114844435Y-109000003D01*
X114864630Y-109179249D01*
X114864631Y-109179254D01*
X114924211Y-109349523D01*
X115011769Y-109488869D01*
X115020184Y-109502262D01*
X115147738Y-109629816D01*
X115219632Y-109674990D01*
X115288522Y-109718277D01*
X115300478Y-109725789D01*
X115470745Y-109785368D01*
X115470750Y-109785369D01*
X115649996Y-109805565D01*
X115650000Y-109805565D01*
X115650002Y-109805565D01*
X115689399Y-109801125D01*
X115758667Y-109793321D01*
X115827488Y-109805375D01*
X115878867Y-109852724D01*
X115889592Y-109875587D01*
X115924210Y-109974521D01*
X115978930Y-110061607D01*
X116020184Y-110127262D01*
X116147738Y-110254816D01*
X116300478Y-110350789D01*
X116428215Y-110395486D01*
X116470745Y-110410368D01*
X116470750Y-110410369D01*
X116649996Y-110430565D01*
X116650000Y-110430565D01*
X116650004Y-110430565D01*
X116829249Y-110410369D01*
X116829252Y-110410368D01*
X116829255Y-110410368D01*
X116999522Y-110350789D01*
X117152262Y-110254816D01*
X117279816Y-110127262D01*
X117375789Y-109974522D01*
X117419796Y-109848753D01*
X117460516Y-109791979D01*
X117467983Y-109786582D01*
X117469802Y-109785368D01*
X117494013Y-109769191D01*
X117581138Y-109682066D01*
X117581139Y-109682064D01*
X117588205Y-109674998D01*
X117588207Y-109674994D01*
X118101384Y-109161819D01*
X118162707Y-109128334D01*
X118189065Y-109125500D01*
X127046476Y-109125500D01*
X127113515Y-109145185D01*
X127134157Y-109161819D01*
X129808191Y-111835855D01*
X129808195Y-111835858D01*
X129910638Y-111904309D01*
X129910639Y-111904309D01*
X129910643Y-111904312D01*
X129977324Y-111931931D01*
X129977326Y-111931933D01*
X130024471Y-111951461D01*
X130024476Y-111951463D01*
X130044525Y-111955451D01*
X130078124Y-111962134D01*
X130145320Y-111975501D01*
X130145322Y-111975501D01*
X130274649Y-111975501D01*
X130274669Y-111975500D01*
X164498003Y-111975500D01*
X164558425Y-111963481D01*
X164618848Y-111951463D01*
X164618851Y-111951461D01*
X164618854Y-111951461D01*
X164652183Y-111937654D01*
X164652182Y-111937654D01*
X164652188Y-111937652D01*
X164732682Y-111904312D01*
X164794963Y-111862696D01*
X164835129Y-111835858D01*
X164922254Y-111748733D01*
X164922254Y-111748731D01*
X164932462Y-111738524D01*
X164932463Y-111738521D01*
X166759168Y-109911819D01*
X166820491Y-109878334D01*
X166846849Y-109875500D01*
X167355145Y-109875500D01*
X167421117Y-109894506D01*
X167548461Y-109974522D01*
X167550478Y-109975789D01*
X167677963Y-110020398D01*
X167720745Y-110035368D01*
X167720750Y-110035369D01*
X167899996Y-110055565D01*
X167900000Y-110055565D01*
X167900004Y-110055565D01*
X168079249Y-110035369D01*
X168079252Y-110035368D01*
X168079255Y-110035368D01*
X168249522Y-109975789D01*
X168402262Y-109879816D01*
X168529816Y-109752262D01*
X168625789Y-109599522D01*
X168685368Y-109429255D01*
X168687070Y-109414152D01*
X168705565Y-109250003D01*
X168705565Y-109249996D01*
X168685369Y-109070750D01*
X168685368Y-109070745D01*
X168660612Y-108999996D01*
X168625789Y-108900478D01*
X168529816Y-108747738D01*
X168402262Y-108620184D01*
X168357414Y-108592004D01*
X168249523Y-108524211D01*
X168079254Y-108464631D01*
X168079249Y-108464630D01*
X167900004Y-108444435D01*
X167893036Y-108444435D01*
X167893036Y-108442369D01*
X167834108Y-108432035D01*
X167782739Y-108384675D01*
X167765129Y-108317061D01*
X167786870Y-108250659D01*
X167801384Y-108233205D01*
X167958380Y-108076209D01*
X168019701Y-108042726D01*
X168032158Y-108040674D01*
X168079255Y-108035368D01*
X168249522Y-107975789D01*
X168402262Y-107879816D01*
X168529816Y-107752262D01*
X168625789Y-107599522D01*
X168685368Y-107429255D01*
X168685369Y-107429249D01*
X168705565Y-107250003D01*
X168705565Y-107249996D01*
X168685369Y-107070750D01*
X168685368Y-107070745D01*
X168625788Y-106900476D01*
X168558440Y-106793293D01*
X168529816Y-106747738D01*
X168402262Y-106620184D01*
X168378883Y-106605494D01*
X168249523Y-106524211D01*
X168079254Y-106464631D01*
X168079249Y-106464630D01*
X167900004Y-106444435D01*
X167899996Y-106444435D01*
X167720750Y-106464630D01*
X167720745Y-106464631D01*
X167550476Y-106524211D01*
X167397737Y-106620184D01*
X167270184Y-106747737D01*
X167174210Y-106900478D01*
X167114630Y-107070750D01*
X167109326Y-107117825D01*
X167082258Y-107182238D01*
X167073787Y-107191620D01*
X164027229Y-110238181D01*
X163965906Y-110271666D01*
X163939548Y-110274500D01*
X156391189Y-110274500D01*
X156324150Y-110254815D01*
X156278395Y-110202011D01*
X156268451Y-110132853D01*
X156297476Y-110069297D01*
X156318304Y-110050182D01*
X156338692Y-110035369D01*
X156355871Y-110022888D01*
X156482533Y-109882216D01*
X156577179Y-109718284D01*
X156635674Y-109538256D01*
X156655460Y-109350000D01*
X156635674Y-109161744D01*
X156577179Y-108981716D01*
X156519256Y-108881390D01*
X156482535Y-108817787D01*
X156482531Y-108817782D01*
X156482344Y-108817574D01*
X156482273Y-108817427D01*
X156478714Y-108812528D01*
X156479610Y-108811876D01*
X156452119Y-108754580D01*
X156450500Y-108734608D01*
X156450500Y-105650000D01*
X160294659Y-105650000D01*
X160313975Y-105846129D01*
X160371188Y-106034733D01*
X160464086Y-106208532D01*
X160464090Y-106208539D01*
X160589116Y-106360883D01*
X160741460Y-106485909D01*
X160741467Y-106485913D01*
X160915266Y-106578811D01*
X160915269Y-106578811D01*
X160915273Y-106578814D01*
X161103868Y-106636024D01*
X161300000Y-106655341D01*
X161496132Y-106636024D01*
X161684727Y-106578814D01*
X161858538Y-106485910D01*
X161867387Y-106478647D01*
X161931696Y-106451334D01*
X161946053Y-106450500D01*
X165253947Y-106450500D01*
X165320986Y-106470185D01*
X165332607Y-106478643D01*
X165341462Y-106485910D01*
X165341463Y-106485910D01*
X165341465Y-106485912D01*
X165341467Y-106485913D01*
X165515266Y-106578811D01*
X165515269Y-106578811D01*
X165515273Y-106578814D01*
X165703868Y-106636024D01*
X165900000Y-106655341D01*
X166096132Y-106636024D01*
X166284727Y-106578814D01*
X166458538Y-106485910D01*
X166610883Y-106360883D01*
X166735910Y-106208538D01*
X166828814Y-106034727D01*
X166886024Y-105846132D01*
X166905341Y-105650000D01*
X166886024Y-105453868D01*
X166828814Y-105265273D01*
X166828811Y-105265269D01*
X166828811Y-105265266D01*
X166735913Y-105091467D01*
X166735909Y-105091460D01*
X166610883Y-104939116D01*
X166458539Y-104814090D01*
X166458532Y-104814086D01*
X166284733Y-104721188D01*
X166284727Y-104721186D01*
X166096132Y-104663976D01*
X166096129Y-104663975D01*
X165900000Y-104644659D01*
X165703870Y-104663975D01*
X165515266Y-104721188D01*
X165341467Y-104814086D01*
X165341465Y-104814087D01*
X165337276Y-104817525D01*
X165332612Y-104821352D01*
X165268304Y-104848666D01*
X165253947Y-104849500D01*
X161946053Y-104849500D01*
X161879014Y-104829815D01*
X161867392Y-104821356D01*
X161858538Y-104814090D01*
X161858537Y-104814089D01*
X161858534Y-104814087D01*
X161858532Y-104814086D01*
X161684733Y-104721188D01*
X161684727Y-104721186D01*
X161496132Y-104663976D01*
X161496129Y-104663975D01*
X161300000Y-104644659D01*
X161103870Y-104663975D01*
X160915266Y-104721188D01*
X160741467Y-104814086D01*
X160741460Y-104814090D01*
X160589116Y-104939116D01*
X160464090Y-105091460D01*
X160464086Y-105091467D01*
X160371188Y-105265266D01*
X160313975Y-105453870D01*
X160294659Y-105650000D01*
X156450500Y-105650000D01*
X156450500Y-92740518D01*
X156470185Y-92673479D01*
X156522989Y-92627724D01*
X156592147Y-92617780D01*
X156655703Y-92646805D01*
X156662181Y-92652837D01*
X157005886Y-92996542D01*
X157091558Y-93082214D01*
X157103459Y-93094115D01*
X157218182Y-93170771D01*
X157218186Y-93170773D01*
X157218189Y-93170775D01*
X157292866Y-93201707D01*
X157292867Y-93201707D01*
X157292869Y-93201709D01*
X157339481Y-93221016D01*
X157345671Y-93223580D01*
X157355324Y-93225500D01*
X157405597Y-93235500D01*
X157481004Y-93250500D01*
X157481007Y-93250500D01*
X171941844Y-93250500D01*
X172008883Y-93270185D01*
X172014729Y-93274182D01*
X172097265Y-93334148D01*
X172097270Y-93334151D01*
X172270192Y-93411142D01*
X172270197Y-93411144D01*
X172455354Y-93450500D01*
X172455355Y-93450500D01*
X172644644Y-93450500D01*
X172644646Y-93450500D01*
X172829803Y-93411144D01*
X173002730Y-93334151D01*
X173155871Y-93222888D01*
X173282533Y-93082216D01*
X173377179Y-92918284D01*
X173435674Y-92738256D01*
X173455460Y-92550000D01*
X173435674Y-92361744D01*
X173377179Y-92181716D01*
X173282533Y-92017784D01*
X173155871Y-91877112D01*
X173155870Y-91877111D01*
X173002734Y-91765851D01*
X173002729Y-91765848D01*
X172829807Y-91688857D01*
X172829802Y-91688855D01*
X172684001Y-91657865D01*
X172644646Y-91649500D01*
X172455354Y-91649500D01*
X172422897Y-91656398D01*
X172270197Y-91688855D01*
X172270192Y-91688857D01*
X172097270Y-91765848D01*
X172097265Y-91765851D01*
X172014729Y-91825818D01*
X171948923Y-91849298D01*
X171941844Y-91849500D01*
X157891518Y-91849500D01*
X157824479Y-91829815D01*
X157803837Y-91813181D01*
X156676503Y-90685846D01*
X156643018Y-90624523D01*
X156640864Y-90611129D01*
X156635674Y-90561744D01*
X156635672Y-90561739D01*
X156577181Y-90381722D01*
X156577180Y-90381721D01*
X156577179Y-90381716D01*
X156482533Y-90217784D01*
X156482344Y-90217574D01*
X156482273Y-90217427D01*
X156478714Y-90212528D01*
X156479610Y-90211876D01*
X156452119Y-90154580D01*
X156450500Y-90134608D01*
X156450500Y-77540391D01*
X156470185Y-77473352D01*
X156482352Y-77457417D01*
X156482533Y-77457216D01*
X156577179Y-77293284D01*
X156635674Y-77113256D01*
X156655460Y-76925000D01*
X156635674Y-76736744D01*
X156577179Y-76556716D01*
X156482533Y-76392784D01*
X156355871Y-76252112D01*
X156355870Y-76252111D01*
X156202734Y-76140851D01*
X156202729Y-76140848D01*
X156029807Y-76063857D01*
X156029802Y-76063855D01*
X155884001Y-76032865D01*
X155844646Y-76024500D01*
X155655354Y-76024500D01*
X155622897Y-76031398D01*
X155470197Y-76063855D01*
X155470192Y-76063857D01*
X155297270Y-76140848D01*
X155297265Y-76140851D01*
X155144129Y-76252111D01*
X155017466Y-76392785D01*
X154922821Y-76556715D01*
X154922818Y-76556722D01*
X154864327Y-76736740D01*
X154864326Y-76736744D01*
X154844540Y-76925000D01*
X154864326Y-77113256D01*
X154864327Y-77113259D01*
X154922818Y-77293277D01*
X154922821Y-77293284D01*
X155017466Y-77457215D01*
X155017648Y-77457417D01*
X155017716Y-77457559D01*
X155021285Y-77462471D01*
X155020386Y-77463123D01*
X155047879Y-77520408D01*
X155049500Y-77540391D01*
X155049500Y-90134608D01*
X155029815Y-90201647D01*
X155017656Y-90217574D01*
X155017468Y-90217782D01*
X155017466Y-90217786D01*
X154922821Y-90381715D01*
X154922818Y-90381722D01*
X154864327Y-90561739D01*
X154864325Y-90561750D01*
X154859134Y-90611129D01*
X154832549Y-90675743D01*
X154823495Y-90685846D01*
X153696162Y-91813181D01*
X153634839Y-91846666D01*
X153608481Y-91849500D01*
X139491518Y-91849500D01*
X139424479Y-91829815D01*
X139403837Y-91813181D01*
X138276503Y-90685846D01*
X138243018Y-90624523D01*
X138240864Y-90611129D01*
X138235674Y-90561744D01*
X138235672Y-90561739D01*
X138177181Y-90381722D01*
X138177180Y-90381721D01*
X138177179Y-90381716D01*
X138082533Y-90217784D01*
X138082344Y-90217574D01*
X138082273Y-90217427D01*
X138078714Y-90212528D01*
X138079610Y-90211876D01*
X138052119Y-90154580D01*
X138050500Y-90134608D01*
X138050500Y-77540391D01*
X138070185Y-77473352D01*
X138082352Y-77457417D01*
X138082533Y-77457216D01*
X138177179Y-77293284D01*
X138235674Y-77113256D01*
X138255460Y-76925000D01*
X138246850Y-76843082D01*
X138259419Y-76774355D01*
X138307152Y-76723331D01*
X138374892Y-76706213D01*
X138441133Y-76728435D01*
X138457852Y-76742442D01*
X148113181Y-86397771D01*
X148146666Y-86459094D01*
X148149500Y-86485452D01*
X148149500Y-90186607D01*
X148155700Y-90217783D01*
X148173535Y-90307444D01*
X148173537Y-90307452D01*
X148187347Y-90340792D01*
X148187347Y-90340793D01*
X148220685Y-90421280D01*
X148220690Y-90421289D01*
X148254914Y-90472507D01*
X148254915Y-90472509D01*
X148289140Y-90523731D01*
X148289141Y-90523732D01*
X148289142Y-90523733D01*
X148376267Y-90610858D01*
X148376268Y-90610858D01*
X148383335Y-90617925D01*
X148383334Y-90617925D01*
X148383338Y-90617928D01*
X148573787Y-90808378D01*
X148607272Y-90869701D01*
X148609326Y-90882174D01*
X148614630Y-90929249D01*
X148674210Y-91099521D01*
X148686000Y-91118284D01*
X148770184Y-91252262D01*
X148897738Y-91379816D01*
X149050478Y-91475789D01*
X149220745Y-91535368D01*
X149220750Y-91535369D01*
X149399996Y-91555565D01*
X149400000Y-91555565D01*
X149400004Y-91555565D01*
X149579249Y-91535369D01*
X149579252Y-91535368D01*
X149579255Y-91535368D01*
X149749522Y-91475789D01*
X149902262Y-91379816D01*
X150029816Y-91252262D01*
X150125789Y-91099522D01*
X150185368Y-90929255D01*
X150192078Y-90869701D01*
X150205565Y-90750003D01*
X150205565Y-90749996D01*
X150185369Y-90570750D01*
X150185368Y-90570745D01*
X150125789Y-90400478D01*
X150113999Y-90381715D01*
X150067332Y-90307444D01*
X150029816Y-90247738D01*
X149902262Y-90120184D01*
X149749521Y-90024210D01*
X149657588Y-89992042D01*
X149600812Y-89951320D01*
X149575064Y-89886368D01*
X149588520Y-89817806D01*
X149636907Y-89767403D01*
X149657588Y-89757958D01*
X149657591Y-89757957D01*
X149749522Y-89725789D01*
X149902262Y-89629816D01*
X150029816Y-89502262D01*
X150125789Y-89349522D01*
X150185368Y-89179255D01*
X150205565Y-89000000D01*
X150198987Y-88941621D01*
X150185369Y-88820750D01*
X150185368Y-88820745D01*
X150150077Y-88719890D01*
X150125789Y-88650478D01*
X150094271Y-88600318D01*
X150044506Y-88521117D01*
X150025500Y-88455145D01*
X150025500Y-86038396D01*
X150025500Y-86038394D01*
X150001463Y-85917548D01*
X149993934Y-85899371D01*
X149985377Y-85878712D01*
X149954313Y-85803716D01*
X149954312Y-85803714D01*
X149938280Y-85779721D01*
X149920084Y-85752490D01*
X149885858Y-85701267D01*
X149885856Y-85701264D01*
X149795637Y-85611045D01*
X149795606Y-85611016D01*
X139896771Y-75712181D01*
X139863286Y-75650858D01*
X139868270Y-75581166D01*
X139910142Y-75525233D01*
X139975606Y-75500816D01*
X139984452Y-75500500D01*
X163928152Y-75500500D01*
X163995191Y-75520185D01*
X164015833Y-75536819D01*
X166788181Y-78309167D01*
X166821666Y-78370490D01*
X166824500Y-78396848D01*
X166824500Y-86511217D01*
X166804815Y-86578256D01*
X166752011Y-86624011D01*
X166682853Y-86633955D01*
X166621835Y-86607070D01*
X166508539Y-86514090D01*
X166508532Y-86514086D01*
X166334733Y-86421188D01*
X166334727Y-86421186D01*
X166146132Y-86363976D01*
X166146129Y-86363975D01*
X165950000Y-86344659D01*
X165753870Y-86363975D01*
X165565266Y-86421188D01*
X165391467Y-86514086D01*
X165391465Y-86514087D01*
X165387276Y-86517525D01*
X165382612Y-86521352D01*
X165318304Y-86548666D01*
X165303947Y-86549500D01*
X162159074Y-86549500D01*
X162100621Y-86534858D01*
X161934732Y-86446188D01*
X161934729Y-86446187D01*
X161934727Y-86446186D01*
X161746132Y-86388976D01*
X161746129Y-86388975D01*
X161550000Y-86369659D01*
X161353870Y-86388975D01*
X161165266Y-86446188D01*
X160991467Y-86539086D01*
X160991460Y-86539090D01*
X160839116Y-86664116D01*
X160714090Y-86816460D01*
X160714086Y-86816467D01*
X160621188Y-86990266D01*
X160563975Y-87178870D01*
X160544659Y-87375000D01*
X160563975Y-87571129D01*
X160621188Y-87759733D01*
X160714086Y-87933532D01*
X160714090Y-87933539D01*
X160839116Y-88085883D01*
X160991460Y-88210909D01*
X160991467Y-88210913D01*
X161165266Y-88303811D01*
X161165269Y-88303811D01*
X161165273Y-88303814D01*
X161353868Y-88361024D01*
X161550000Y-88380341D01*
X161746132Y-88361024D01*
X161934727Y-88303814D01*
X161979084Y-88280105D01*
X162024813Y-88255662D01*
X162108538Y-88210910D01*
X162147849Y-88178648D01*
X162212159Y-88151334D01*
X162226515Y-88150500D01*
X165303947Y-88150500D01*
X165370986Y-88170185D01*
X165382607Y-88178643D01*
X165391462Y-88185910D01*
X165391463Y-88185910D01*
X165391465Y-88185912D01*
X165391467Y-88185913D01*
X165565266Y-88278811D01*
X165565269Y-88278811D01*
X165565273Y-88278814D01*
X165753868Y-88336024D01*
X165950000Y-88355341D01*
X166146132Y-88336024D01*
X166334727Y-88278814D01*
X166378042Y-88255662D01*
X166508532Y-88185913D01*
X166508534Y-88185912D01*
X166508538Y-88185910D01*
X166621835Y-88092928D01*
X166686145Y-88065616D01*
X166755012Y-88077407D01*
X166806572Y-88124559D01*
X166824500Y-88188782D01*
X166824500Y-88255662D01*
X166804815Y-88322701D01*
X166792852Y-88337546D01*
X166793007Y-88337673D01*
X166789141Y-88342383D01*
X166770566Y-88370183D01*
X166720687Y-88444831D01*
X166716471Y-88455011D01*
X166691978Y-88514143D01*
X166673538Y-88558660D01*
X166673535Y-88558672D01*
X166649500Y-88679505D01*
X166649500Y-90186607D01*
X166655700Y-90217783D01*
X166673535Y-90307444D01*
X166673537Y-90307452D01*
X166687347Y-90340792D01*
X166687347Y-90340793D01*
X166720685Y-90421280D01*
X166720690Y-90421289D01*
X166754914Y-90472507D01*
X166754915Y-90472509D01*
X166789140Y-90523731D01*
X166789141Y-90523732D01*
X166789142Y-90523733D01*
X166876267Y-90610858D01*
X166876268Y-90610858D01*
X166883335Y-90617925D01*
X166883334Y-90617925D01*
X166883338Y-90617928D01*
X167073787Y-90808378D01*
X167107272Y-90869701D01*
X167109326Y-90882174D01*
X167114630Y-90929249D01*
X167174210Y-91099521D01*
X167186000Y-91118284D01*
X167270184Y-91252262D01*
X167397738Y-91379816D01*
X167550478Y-91475789D01*
X167720745Y-91535368D01*
X167720750Y-91535369D01*
X167899996Y-91555565D01*
X167900000Y-91555565D01*
X167900004Y-91555565D01*
X168079249Y-91535369D01*
X168079252Y-91535368D01*
X168079255Y-91535368D01*
X168249522Y-91475789D01*
X168402262Y-91379816D01*
X168529816Y-91252262D01*
X168625789Y-91099522D01*
X168685368Y-90929255D01*
X168692078Y-90869701D01*
X168705565Y-90750003D01*
X168705565Y-90749996D01*
X168685369Y-90570750D01*
X168685368Y-90570745D01*
X168625789Y-90400478D01*
X168613999Y-90381715D01*
X168567332Y-90307444D01*
X168529816Y-90247738D01*
X168402262Y-90120184D01*
X168249521Y-90024210D01*
X168157588Y-89992042D01*
X168100812Y-89951320D01*
X168075064Y-89886368D01*
X168088520Y-89817806D01*
X168136907Y-89767403D01*
X168157588Y-89757958D01*
X168157591Y-89757957D01*
X168249522Y-89725789D01*
X168402262Y-89629816D01*
X168529816Y-89502262D01*
X168625789Y-89349522D01*
X168685368Y-89179255D01*
X168705565Y-89000000D01*
X168698987Y-88941621D01*
X168685369Y-88820750D01*
X168685368Y-88820745D01*
X168650077Y-88719890D01*
X168625789Y-88650478D01*
X168594271Y-88600318D01*
X168544506Y-88521117D01*
X168525500Y-88455145D01*
X168525500Y-77838396D01*
X168525500Y-77838394D01*
X168501463Y-77717548D01*
X168487652Y-77684207D01*
X168454312Y-77603714D01*
X168406450Y-77532085D01*
X168385858Y-77501267D01*
X168385856Y-77501264D01*
X168295637Y-77411045D01*
X168295606Y-77411016D01*
X165365468Y-74480878D01*
X165331983Y-74419555D01*
X165336967Y-74349863D01*
X165365466Y-74305518D01*
X167009167Y-72661819D01*
X167070490Y-72628334D01*
X167096848Y-72625500D01*
X167355145Y-72625500D01*
X167421117Y-72644506D01*
X167545784Y-72722840D01*
X167550478Y-72725789D01*
X167613202Y-72747737D01*
X167720745Y-72785368D01*
X167720750Y-72785369D01*
X167899996Y-72805565D01*
X167900000Y-72805565D01*
X167900004Y-72805565D01*
X168079249Y-72785369D01*
X168079252Y-72785368D01*
X168079255Y-72785368D01*
X168249522Y-72725789D01*
X168402262Y-72629816D01*
X168529816Y-72502262D01*
X168625789Y-72349522D01*
X168685368Y-72179255D01*
X168685369Y-72179249D01*
X168705565Y-72000003D01*
X168705565Y-71999996D01*
X168685369Y-71820750D01*
X168685368Y-71820745D01*
X168625788Y-71650476D01*
X168529815Y-71497737D01*
X168402262Y-71370184D01*
X168249523Y-71274211D01*
X168157588Y-71242042D01*
X168100812Y-71201320D01*
X168075065Y-71136367D01*
X168088521Y-71067806D01*
X168136908Y-71017403D01*
X168157588Y-71007958D01*
X168157591Y-71007957D01*
X168249522Y-70975789D01*
X168402262Y-70879816D01*
X168529816Y-70752262D01*
X168625789Y-70599522D01*
X168685368Y-70429255D01*
X168700924Y-70291189D01*
X168705565Y-70250003D01*
X168705565Y-70249996D01*
X168685369Y-70070750D01*
X168685368Y-70070745D01*
X168625788Y-69900476D01*
X168586582Y-69838080D01*
X168529816Y-69747738D01*
X168402262Y-69620184D01*
X168357637Y-69592144D01*
X168249523Y-69524211D01*
X168079254Y-69464631D01*
X168079249Y-69464630D01*
X167900004Y-69444435D01*
X167899996Y-69444435D01*
X167720750Y-69464630D01*
X167720745Y-69464631D01*
X167550476Y-69524211D01*
X167397737Y-69620184D01*
X167270184Y-69747737D01*
X167174210Y-69900478D01*
X167114630Y-70070750D01*
X167109326Y-70117825D01*
X167082258Y-70182238D01*
X167073787Y-70191620D01*
X164402229Y-72863181D01*
X164340906Y-72896666D01*
X164314548Y-72899500D01*
X149903476Y-72899500D01*
X149836437Y-72879815D01*
X149790682Y-72827011D01*
X149780738Y-72757853D01*
X149809763Y-72694297D01*
X149837504Y-72670506D01*
X149902262Y-72629816D01*
X150029816Y-72502262D01*
X150125789Y-72349522D01*
X150185368Y-72179255D01*
X150185369Y-72179249D01*
X150205565Y-72000003D01*
X150205565Y-71999996D01*
X150185369Y-71820750D01*
X150185368Y-71820745D01*
X150125788Y-71650476D01*
X150029815Y-71497737D01*
X149902262Y-71370184D01*
X149749520Y-71274209D01*
X149657587Y-71242040D01*
X149600812Y-71201318D01*
X149575065Y-71136365D01*
X149588522Y-71067804D01*
X149636909Y-71017401D01*
X149657586Y-71007958D01*
X149709997Y-70989619D01*
X149749520Y-70975790D01*
X149749522Y-70975789D01*
X149902262Y-70879816D01*
X150029816Y-70752262D01*
X150125789Y-70599522D01*
X150185368Y-70429255D01*
X150200924Y-70291189D01*
X150205565Y-70250003D01*
X150205565Y-70249996D01*
X150185369Y-70070750D01*
X150185368Y-70070745D01*
X150125788Y-69900476D01*
X150086582Y-69838080D01*
X150029816Y-69747738D01*
X149902262Y-69620184D01*
X149857637Y-69592144D01*
X149749523Y-69524211D01*
X149579254Y-69464631D01*
X149579249Y-69464630D01*
X149400004Y-69444435D01*
X149399996Y-69444435D01*
X149220750Y-69464630D01*
X149220745Y-69464631D01*
X149050476Y-69524211D01*
X148897737Y-69620184D01*
X148770184Y-69747737D01*
X148674210Y-69900478D01*
X148614630Y-70070750D01*
X148609326Y-70117825D01*
X148582258Y-70182239D01*
X148573787Y-70191621D01*
X146802229Y-71963181D01*
X146740906Y-71996666D01*
X146714548Y-71999500D01*
X131816322Y-71999500D01*
X131749283Y-71979815D01*
X131703528Y-71927011D01*
X131693102Y-71889383D01*
X131685369Y-71820750D01*
X131685368Y-71820748D01*
X131685368Y-71820745D01*
X131625789Y-71650478D01*
X131529816Y-71497738D01*
X131402262Y-71370184D01*
X131330357Y-71325003D01*
X131249523Y-71274211D01*
X131157588Y-71242042D01*
X131100812Y-71201320D01*
X131075065Y-71136367D01*
X131088521Y-71067806D01*
X131136908Y-71017403D01*
X131157588Y-71007958D01*
X131157591Y-71007957D01*
X131249522Y-70975789D01*
X131402262Y-70879816D01*
X131529816Y-70752262D01*
X131625789Y-70599522D01*
X131685368Y-70429255D01*
X131700924Y-70291189D01*
X131705565Y-70250003D01*
X131705565Y-70249996D01*
X131685369Y-70070750D01*
X131685368Y-70070745D01*
X131625788Y-69900476D01*
X131586582Y-69838080D01*
X131529816Y-69747738D01*
X131402262Y-69620184D01*
X131357637Y-69592144D01*
X131249523Y-69524211D01*
X131079254Y-69464631D01*
X131079249Y-69464630D01*
X130900004Y-69444435D01*
X130899996Y-69444435D01*
X130720750Y-69464630D01*
X130720745Y-69464631D01*
X130550476Y-69524211D01*
X130397737Y-69620184D01*
X130329741Y-69688181D01*
X130268418Y-69721666D01*
X130242060Y-69724500D01*
X129949361Y-69724500D01*
X129882322Y-69704815D01*
X129861684Y-69688185D01*
X129716433Y-69542935D01*
X129716432Y-69542933D01*
X129629307Y-69455808D01*
X129629306Y-69455807D01*
X129629305Y-69455806D01*
X129578083Y-69421581D01*
X129526861Y-69387355D01*
X129526860Y-69387354D01*
X129526857Y-69387352D01*
X129526854Y-69387351D01*
X129446366Y-69354013D01*
X129413027Y-69340203D01*
X129403001Y-69338209D01*
X129352603Y-69328184D01*
X129292184Y-69316166D01*
X129292181Y-69316166D01*
X129292180Y-69316166D01*
X116086521Y-69316166D01*
X116020549Y-69297160D01*
X115891189Y-69215877D01*
X115720920Y-69156297D01*
X115720915Y-69156296D01*
X115541670Y-69136101D01*
X115541662Y-69136101D01*
X115362416Y-69156296D01*
X115362411Y-69156297D01*
X115192142Y-69215877D01*
X115039403Y-69311850D01*
X114911850Y-69439403D01*
X114815877Y-69592142D01*
X114756297Y-69762411D01*
X114756296Y-69762416D01*
X114736101Y-69941662D01*
X114736101Y-69941669D01*
X114756296Y-70120915D01*
X114756297Y-70120920D01*
X114815877Y-70291189D01*
X114911850Y-70443928D01*
X115009406Y-70541484D01*
X115042891Y-70602807D01*
X115037907Y-70672499D01*
X115009406Y-70716846D01*
X114903514Y-70822737D01*
X114807541Y-70975476D01*
X114747961Y-71145745D01*
X114747960Y-71145750D01*
X114727765Y-71324996D01*
X114727765Y-71325003D01*
X114747960Y-71504249D01*
X114747962Y-71504257D01*
X114806977Y-71672912D01*
X114810538Y-71742690D01*
X114775809Y-71803318D01*
X114713816Y-71835545D01*
X114644240Y-71829140D01*
X114602254Y-71801547D01*
X110861819Y-68061112D01*
X110828334Y-67999789D01*
X110825500Y-67973431D01*
X110825500Y-67894854D01*
X110844507Y-67828881D01*
X110925788Y-67699524D01*
X110985368Y-67529254D01*
X110985369Y-67529249D01*
X111005565Y-67350003D01*
X111005565Y-67349996D01*
X110985369Y-67170750D01*
X110985368Y-67170745D01*
X110925788Y-67000476D01*
X110829815Y-66847737D01*
X110702262Y-66720184D01*
X110549523Y-66624211D01*
X110379254Y-66564631D01*
X110379249Y-66564630D01*
X110200004Y-66544435D01*
X110199996Y-66544435D01*
X110020750Y-66564630D01*
X110020745Y-66564631D01*
X109850476Y-66624211D01*
X109697737Y-66720184D01*
X109570184Y-66847737D01*
X109474212Y-67000475D01*
X109474211Y-67000476D01*
X109442749Y-67090388D01*
X109402027Y-67147164D01*
X109366663Y-67166473D01*
X109225480Y-67215875D01*
X109072737Y-67311850D01*
X108945184Y-67439403D01*
X108849211Y-67592142D01*
X108789631Y-67762411D01*
X108789630Y-67762416D01*
X108769435Y-67941662D01*
X108769435Y-67941669D01*
X94150500Y-67941669D01*
X94150500Y-57753051D01*
X94150575Y-57750000D01*
X113544592Y-57750000D01*
X113564201Y-58036680D01*
X113622666Y-58318034D01*
X113622667Y-58318037D01*
X113718894Y-58588793D01*
X113718893Y-58588793D01*
X113851098Y-58843935D01*
X114016812Y-59078700D01*
X114101923Y-59169831D01*
X114212947Y-59288708D01*
X114435853Y-59470055D01*
X114681382Y-59619365D01*
X114868237Y-59700526D01*
X114944942Y-59733844D01*
X115221642Y-59811371D01*
X115471920Y-59845771D01*
X115506321Y-59850500D01*
X115506322Y-59850500D01*
X115793679Y-59850500D01*
X115824370Y-59846281D01*
X116078358Y-59811371D01*
X116355058Y-59733844D01*
X116468015Y-59684779D01*
X116618617Y-59619365D01*
X116618620Y-59619363D01*
X116618625Y-59619361D01*
X116864147Y-59470055D01*
X117087053Y-59288708D01*
X117283189Y-59078698D01*
X117448901Y-58843936D01*
X117581104Y-58588797D01*
X117677334Y-58318032D01*
X117735798Y-58036686D01*
X117755408Y-57750000D01*
X177544592Y-57750000D01*
X177564201Y-58036680D01*
X177622666Y-58318034D01*
X177622667Y-58318037D01*
X177718894Y-58588793D01*
X177718893Y-58588793D01*
X177851098Y-58843935D01*
X178016812Y-59078700D01*
X178101923Y-59169831D01*
X178212947Y-59288708D01*
X178435853Y-59470055D01*
X178681382Y-59619365D01*
X178868237Y-59700526D01*
X178944942Y-59733844D01*
X179221642Y-59811371D01*
X179471920Y-59845771D01*
X179506321Y-59850500D01*
X179506322Y-59850500D01*
X179793679Y-59850500D01*
X179824370Y-59846281D01*
X180078358Y-59811371D01*
X180355058Y-59733844D01*
X180468015Y-59684779D01*
X180618617Y-59619365D01*
X180618620Y-59619363D01*
X180618625Y-59619361D01*
X180864147Y-59470055D01*
X181087053Y-59288708D01*
X181283189Y-59078698D01*
X181448901Y-58843936D01*
X181581104Y-58588797D01*
X181677334Y-58318032D01*
X181735798Y-58036686D01*
X181755408Y-57750000D01*
X181735798Y-57463314D01*
X181677334Y-57181968D01*
X181581105Y-56911206D01*
X181581106Y-56911206D01*
X181448901Y-56656064D01*
X181283187Y-56421299D01*
X181204554Y-56337105D01*
X181087053Y-56211292D01*
X180864147Y-56029945D01*
X180864146Y-56029944D01*
X180618617Y-55880634D01*
X180355063Y-55766158D01*
X180355061Y-55766157D01*
X180355058Y-55766156D01*
X180225578Y-55729877D01*
X180078364Y-55688630D01*
X180078359Y-55688629D01*
X180078358Y-55688629D01*
X179936018Y-55669064D01*
X179793679Y-55649500D01*
X179793678Y-55649500D01*
X179506322Y-55649500D01*
X179506321Y-55649500D01*
X179221642Y-55688629D01*
X179221635Y-55688630D01*
X179013861Y-55746845D01*
X178944942Y-55766156D01*
X178944939Y-55766156D01*
X178944936Y-55766158D01*
X178944935Y-55766158D01*
X178681382Y-55880634D01*
X178435853Y-56029944D01*
X178212950Y-56211289D01*
X178016812Y-56421299D01*
X177851098Y-56656064D01*
X177718894Y-56911206D01*
X177622667Y-57181962D01*
X177622666Y-57181965D01*
X177564201Y-57463319D01*
X177544592Y-57750000D01*
X117755408Y-57750000D01*
X117735798Y-57463314D01*
X117677334Y-57181968D01*
X117581105Y-56911206D01*
X117581106Y-56911206D01*
X117448901Y-56656064D01*
X117283187Y-56421299D01*
X117204554Y-56337105D01*
X117087053Y-56211292D01*
X116864147Y-56029945D01*
X116864146Y-56029944D01*
X116618617Y-55880634D01*
X116355063Y-55766158D01*
X116355061Y-55766157D01*
X116355058Y-55766156D01*
X116225578Y-55729877D01*
X116078364Y-55688630D01*
X116078359Y-55688629D01*
X116078358Y-55688629D01*
X115936018Y-55669064D01*
X115793679Y-55649500D01*
X115793678Y-55649500D01*
X115506322Y-55649500D01*
X115506321Y-55649500D01*
X115221642Y-55688629D01*
X115221635Y-55688630D01*
X115013861Y-55746845D01*
X114944942Y-55766156D01*
X114944939Y-55766156D01*
X114944936Y-55766158D01*
X114944935Y-55766158D01*
X114681382Y-55880634D01*
X114435853Y-56029944D01*
X114212950Y-56211289D01*
X114016812Y-56421299D01*
X113851098Y-56656064D01*
X113718894Y-56911206D01*
X113622667Y-57181962D01*
X113622666Y-57181965D01*
X113564201Y-57463319D01*
X113544592Y-57750000D01*
X94150575Y-57750000D01*
X94150649Y-57746967D01*
X94167052Y-57413072D01*
X94168245Y-57400962D01*
X94175387Y-57352815D01*
X94216849Y-57073296D01*
X94219218Y-57061385D01*
X94299710Y-56740043D01*
X94303240Y-56728411D01*
X94329439Y-56655190D01*
X94414835Y-56416525D01*
X94419476Y-56405318D01*
X94561124Y-56105828D01*
X94566840Y-56095136D01*
X94737145Y-55810998D01*
X94743888Y-55800905D01*
X94941232Y-55534818D01*
X94948935Y-55525433D01*
X95171405Y-55279975D01*
X95179975Y-55271405D01*
X95425433Y-55048935D01*
X95434818Y-55041232D01*
X95700905Y-54843888D01*
X95710998Y-54837145D01*
X95995136Y-54666840D01*
X96005828Y-54661124D01*
X96305318Y-54519476D01*
X96316525Y-54514835D01*
X96628412Y-54403239D01*
X96640043Y-54399710D01*
X96961385Y-54319218D01*
X96973296Y-54316849D01*
X97300962Y-54268244D01*
X97313068Y-54267052D01*
X97646967Y-54250648D01*
X97653051Y-54250500D01*
X97715892Y-54250500D01*
X179584108Y-54250500D01*
X179646949Y-54250500D01*
X179653032Y-54250648D01*
G37*
G04 #@! TD.AperFunction*
M02*
