G04 #@! TF.GenerationSoftware,KiCad,Pcbnew,8.0.0*
G04 #@! TF.CreationDate,2025-07-03T23:16:26-06:00*
G04 #@! TF.ProjectId,Color Sensor,436f6c6f-7220-4536-956e-736f722e6b69,rev?*
G04 #@! TF.SameCoordinates,Original*
G04 #@! TF.FileFunction,Legend,Top*
G04 #@! TF.FilePolarity,Positive*
%FSLAX46Y46*%
G04 Gerber Fmt 4.6, Leading zero omitted, Abs format (unit mm)*
G04 Created by KiCad (PCBNEW 8.0.0) date 2025-07-03 23:16:26*
%MOMM*%
%LPD*%
G01*
G04 APERTURE LIST*
G04 Aperture macros list*
%AMRoundRect*
0 Rectangle with rounded corners*
0 $1 Rounding radius*
0 $2 $3 $4 $5 $6 $7 $8 $9 X,Y pos of 4 corners*
0 Add a 4 corners polygon primitive as box body*
4,1,4,$2,$3,$4,$5,$6,$7,$8,$9,$2,$3,0*
0 Add four circle primitives for the rounded corners*
1,1,$1+$1,$2,$3*
1,1,$1+$1,$4,$5*
1,1,$1+$1,$6,$7*
1,1,$1+$1,$8,$9*
0 Add four rect primitives between the rounded corners*
20,1,$1+$1,$2,$3,$4,$5,0*
20,1,$1+$1,$4,$5,$6,$7,0*
20,1,$1+$1,$6,$7,$8,$9,0*
20,1,$1+$1,$8,$9,$2,$3,0*%
G04 Aperture macros list end*
%ADD10C,0.150000*%
%ADD11C,0.100000*%
%ADD12C,1.000000*%
%ADD13C,0.400000*%
%ADD14C,0.300000*%
%ADD15C,0.200000*%
%ADD16C,0.127000*%
%ADD17C,0.120000*%
%ADD18RoundRect,0.102000X-0.175000X0.450000X-0.175000X-0.450000X0.175000X-0.450000X0.175000X0.450000X0*%
%ADD19RoundRect,0.102000X-0.175000X0.500000X-0.175000X-0.500000X0.175000X-0.500000X0.175000X0.500000X0*%
%ADD20R,2.200000X2.200000*%
%ADD21R,2.200000X1.250000*%
%ADD22RoundRect,0.250000X-0.475000X0.250000X-0.475000X-0.250000X0.475000X-0.250000X0.475000X0.250000X0*%
%ADD23RoundRect,0.250000X-0.450000X0.262500X-0.450000X-0.262500X0.450000X-0.262500X0.450000X0.262500X0*%
%ADD24RoundRect,0.250000X-0.250000X-0.475000X0.250000X-0.475000X0.250000X0.475000X-0.250000X0.475000X0*%
%ADD25RoundRect,0.100000X0.637500X0.100000X-0.637500X0.100000X-0.637500X-0.100000X0.637500X-0.100000X0*%
%ADD26RoundRect,0.250000X0.262500X0.450000X-0.262500X0.450000X-0.262500X-0.450000X0.262500X-0.450000X0*%
%ADD27RoundRect,0.102000X-0.700000X0.500000X-0.700000X-0.500000X0.700000X-0.500000X0.700000X0.500000X0*%
%ADD28O,1.950000X1.700000*%
%ADD29RoundRect,0.250000X-0.725000X0.600000X-0.725000X-0.600000X0.725000X-0.600000X0.725000X0.600000X0*%
%ADD30RoundRect,0.250000X-0.262500X-0.450000X0.262500X-0.450000X0.262500X0.450000X-0.262500X0.450000X0*%
G04 APERTURE END LIST*
D10*
X95762969Y-67960155D02*
X95286779Y-67960155D01*
X95286779Y-67960155D02*
X95239160Y-68436345D01*
X95239160Y-68436345D02*
X95286779Y-68388726D01*
X95286779Y-68388726D02*
X95382017Y-68341107D01*
X95382017Y-68341107D02*
X95620112Y-68341107D01*
X95620112Y-68341107D02*
X95715350Y-68388726D01*
X95715350Y-68388726D02*
X95762969Y-68436345D01*
X95762969Y-68436345D02*
X95810588Y-68531583D01*
X95810588Y-68531583D02*
X95810588Y-68769678D01*
X95810588Y-68769678D02*
X95762969Y-68864916D01*
X95762969Y-68864916D02*
X95715350Y-68912536D01*
X95715350Y-68912536D02*
X95620112Y-68960155D01*
X95620112Y-68960155D02*
X95382017Y-68960155D01*
X95382017Y-68960155D02*
X95286779Y-68912536D01*
X95286779Y-68912536D02*
X95239160Y-68864916D01*
X96096303Y-67960155D02*
X96429636Y-68960155D01*
X96429636Y-68960155D02*
X96762969Y-67960155D01*
X95810588Y-69617718D02*
X95715350Y-69570099D01*
X95715350Y-69570099D02*
X95572493Y-69570099D01*
X95572493Y-69570099D02*
X95429636Y-69617718D01*
X95429636Y-69617718D02*
X95334398Y-69712956D01*
X95334398Y-69712956D02*
X95286779Y-69808194D01*
X95286779Y-69808194D02*
X95239160Y-69998670D01*
X95239160Y-69998670D02*
X95239160Y-70141527D01*
X95239160Y-70141527D02*
X95286779Y-70332003D01*
X95286779Y-70332003D02*
X95334398Y-70427241D01*
X95334398Y-70427241D02*
X95429636Y-70522480D01*
X95429636Y-70522480D02*
X95572493Y-70570099D01*
X95572493Y-70570099D02*
X95667731Y-70570099D01*
X95667731Y-70570099D02*
X95810588Y-70522480D01*
X95810588Y-70522480D02*
X95858207Y-70474860D01*
X95858207Y-70474860D02*
X95858207Y-70141527D01*
X95858207Y-70141527D02*
X95667731Y-70141527D01*
X96286779Y-70570099D02*
X96286779Y-69570099D01*
X96286779Y-69570099D02*
X96858207Y-70570099D01*
X96858207Y-70570099D02*
X96858207Y-69570099D01*
X97334398Y-70570099D02*
X97334398Y-69570099D01*
X97334398Y-69570099D02*
X97572493Y-69570099D01*
X97572493Y-69570099D02*
X97715350Y-69617718D01*
X97715350Y-69617718D02*
X97810588Y-69712956D01*
X97810588Y-69712956D02*
X97858207Y-69808194D01*
X97858207Y-69808194D02*
X97905826Y-69998670D01*
X97905826Y-69998670D02*
X97905826Y-70141527D01*
X97905826Y-70141527D02*
X97858207Y-70332003D01*
X97858207Y-70332003D02*
X97810588Y-70427241D01*
X97810588Y-70427241D02*
X97715350Y-70522480D01*
X97715350Y-70522480D02*
X97572493Y-70570099D01*
X97572493Y-70570099D02*
X97334398Y-70570099D01*
X95191541Y-71180043D02*
X95810588Y-71180043D01*
X95810588Y-71180043D02*
X95477255Y-71560995D01*
X95477255Y-71560995D02*
X95620112Y-71560995D01*
X95620112Y-71560995D02*
X95715350Y-71608614D01*
X95715350Y-71608614D02*
X95762969Y-71656233D01*
X95762969Y-71656233D02*
X95810588Y-71751471D01*
X95810588Y-71751471D02*
X95810588Y-71989566D01*
X95810588Y-71989566D02*
X95762969Y-72084804D01*
X95762969Y-72084804D02*
X95715350Y-72132424D01*
X95715350Y-72132424D02*
X95620112Y-72180043D01*
X95620112Y-72180043D02*
X95334398Y-72180043D01*
X95334398Y-72180043D02*
X95239160Y-72132424D01*
X95239160Y-72132424D02*
X95191541Y-72084804D01*
X96239160Y-72084804D02*
X96286779Y-72132424D01*
X96286779Y-72132424D02*
X96239160Y-72180043D01*
X96239160Y-72180043D02*
X96191541Y-72132424D01*
X96191541Y-72132424D02*
X96239160Y-72084804D01*
X96239160Y-72084804D02*
X96239160Y-72180043D01*
X96620112Y-71180043D02*
X97239159Y-71180043D01*
X97239159Y-71180043D02*
X96905826Y-71560995D01*
X96905826Y-71560995D02*
X97048683Y-71560995D01*
X97048683Y-71560995D02*
X97143921Y-71608614D01*
X97143921Y-71608614D02*
X97191540Y-71656233D01*
X97191540Y-71656233D02*
X97239159Y-71751471D01*
X97239159Y-71751471D02*
X97239159Y-71989566D01*
X97239159Y-71989566D02*
X97191540Y-72084804D01*
X97191540Y-72084804D02*
X97143921Y-72132424D01*
X97143921Y-72132424D02*
X97048683Y-72180043D01*
X97048683Y-72180043D02*
X96762969Y-72180043D01*
X96762969Y-72180043D02*
X96667731Y-72132424D01*
X96667731Y-72132424D02*
X96620112Y-72084804D01*
X97524874Y-71180043D02*
X97858207Y-72180043D01*
X97858207Y-72180043D02*
X98191540Y-71180043D01*
X95762969Y-73789987D02*
X95286779Y-73789987D01*
X95286779Y-73789987D02*
X95286779Y-72789987D01*
X96096303Y-73266177D02*
X96429636Y-73266177D01*
X96572493Y-73789987D02*
X96096303Y-73789987D01*
X96096303Y-73789987D02*
X96096303Y-72789987D01*
X96096303Y-72789987D02*
X96572493Y-72789987D01*
X97001065Y-73789987D02*
X97001065Y-72789987D01*
X97001065Y-72789987D02*
X97239160Y-72789987D01*
X97239160Y-72789987D02*
X97382017Y-72837606D01*
X97382017Y-72837606D02*
X97477255Y-72932844D01*
X97477255Y-72932844D02*
X97524874Y-73028082D01*
X97524874Y-73028082D02*
X97572493Y-73218558D01*
X97572493Y-73218558D02*
X97572493Y-73361415D01*
X97572493Y-73361415D02*
X97524874Y-73551891D01*
X97524874Y-73551891D02*
X97477255Y-73647129D01*
X97477255Y-73647129D02*
X97382017Y-73742368D01*
X97382017Y-73742368D02*
X97239160Y-73789987D01*
X97239160Y-73789987D02*
X97001065Y-73789987D01*
X95239160Y-75352312D02*
X95382017Y-75399931D01*
X95382017Y-75399931D02*
X95620112Y-75399931D01*
X95620112Y-75399931D02*
X95715350Y-75352312D01*
X95715350Y-75352312D02*
X95762969Y-75304692D01*
X95762969Y-75304692D02*
X95810588Y-75209454D01*
X95810588Y-75209454D02*
X95810588Y-75114216D01*
X95810588Y-75114216D02*
X95762969Y-75018978D01*
X95762969Y-75018978D02*
X95715350Y-74971359D01*
X95715350Y-74971359D02*
X95620112Y-74923740D01*
X95620112Y-74923740D02*
X95429636Y-74876121D01*
X95429636Y-74876121D02*
X95334398Y-74828502D01*
X95334398Y-74828502D02*
X95286779Y-74780883D01*
X95286779Y-74780883D02*
X95239160Y-74685645D01*
X95239160Y-74685645D02*
X95239160Y-74590407D01*
X95239160Y-74590407D02*
X95286779Y-74495169D01*
X95286779Y-74495169D02*
X95334398Y-74447550D01*
X95334398Y-74447550D02*
X95429636Y-74399931D01*
X95429636Y-74399931D02*
X95667731Y-74399931D01*
X95667731Y-74399931D02*
X95810588Y-74447550D01*
X96239160Y-75399931D02*
X96239160Y-74399931D01*
X96239160Y-74399931D02*
X96477255Y-74399931D01*
X96477255Y-74399931D02*
X96620112Y-74447550D01*
X96620112Y-74447550D02*
X96715350Y-74542788D01*
X96715350Y-74542788D02*
X96762969Y-74638026D01*
X96762969Y-74638026D02*
X96810588Y-74828502D01*
X96810588Y-74828502D02*
X96810588Y-74971359D01*
X96810588Y-74971359D02*
X96762969Y-75161835D01*
X96762969Y-75161835D02*
X96715350Y-75257073D01*
X96715350Y-75257073D02*
X96620112Y-75352312D01*
X96620112Y-75352312D02*
X96477255Y-75399931D01*
X96477255Y-75399931D02*
X96239160Y-75399931D01*
X97191541Y-75114216D02*
X97667731Y-75114216D01*
X97096303Y-75399931D02*
X97429636Y-74399931D01*
X97429636Y-74399931D02*
X97762969Y-75399931D01*
X95239160Y-76962256D02*
X95382017Y-77009875D01*
X95382017Y-77009875D02*
X95620112Y-77009875D01*
X95620112Y-77009875D02*
X95715350Y-76962256D01*
X95715350Y-76962256D02*
X95762969Y-76914636D01*
X95762969Y-76914636D02*
X95810588Y-76819398D01*
X95810588Y-76819398D02*
X95810588Y-76724160D01*
X95810588Y-76724160D02*
X95762969Y-76628922D01*
X95762969Y-76628922D02*
X95715350Y-76581303D01*
X95715350Y-76581303D02*
X95620112Y-76533684D01*
X95620112Y-76533684D02*
X95429636Y-76486065D01*
X95429636Y-76486065D02*
X95334398Y-76438446D01*
X95334398Y-76438446D02*
X95286779Y-76390827D01*
X95286779Y-76390827D02*
X95239160Y-76295589D01*
X95239160Y-76295589D02*
X95239160Y-76200351D01*
X95239160Y-76200351D02*
X95286779Y-76105113D01*
X95286779Y-76105113D02*
X95334398Y-76057494D01*
X95334398Y-76057494D02*
X95429636Y-76009875D01*
X95429636Y-76009875D02*
X95667731Y-76009875D01*
X95667731Y-76009875D02*
X95810588Y-76057494D01*
X96810588Y-76914636D02*
X96762969Y-76962256D01*
X96762969Y-76962256D02*
X96620112Y-77009875D01*
X96620112Y-77009875D02*
X96524874Y-77009875D01*
X96524874Y-77009875D02*
X96382017Y-76962256D01*
X96382017Y-76962256D02*
X96286779Y-76867017D01*
X96286779Y-76867017D02*
X96239160Y-76771779D01*
X96239160Y-76771779D02*
X96191541Y-76581303D01*
X96191541Y-76581303D02*
X96191541Y-76438446D01*
X96191541Y-76438446D02*
X96239160Y-76247970D01*
X96239160Y-76247970D02*
X96286779Y-76152732D01*
X96286779Y-76152732D02*
X96382017Y-76057494D01*
X96382017Y-76057494D02*
X96524874Y-76009875D01*
X96524874Y-76009875D02*
X96620112Y-76009875D01*
X96620112Y-76009875D02*
X96762969Y-76057494D01*
X96762969Y-76057494D02*
X96810588Y-76105113D01*
X97715350Y-77009875D02*
X97239160Y-77009875D01*
X97239160Y-77009875D02*
X97239160Y-76009875D01*
X95239160Y-78334104D02*
X95715350Y-78334104D01*
X95143922Y-78619819D02*
X95477255Y-77619819D01*
X95477255Y-77619819D02*
X95810588Y-78619819D01*
X96143922Y-78619819D02*
X96143922Y-77619819D01*
X96143922Y-77619819D02*
X96382017Y-77619819D01*
X96382017Y-77619819D02*
X96524874Y-77667438D01*
X96524874Y-77667438D02*
X96620112Y-77762676D01*
X96620112Y-77762676D02*
X96667731Y-77857914D01*
X96667731Y-77857914D02*
X96715350Y-78048390D01*
X96715350Y-78048390D02*
X96715350Y-78191247D01*
X96715350Y-78191247D02*
X96667731Y-78381723D01*
X96667731Y-78381723D02*
X96620112Y-78476961D01*
X96620112Y-78476961D02*
X96524874Y-78572200D01*
X96524874Y-78572200D02*
X96382017Y-78619819D01*
X96382017Y-78619819D02*
X96143922Y-78619819D01*
X97143922Y-78619819D02*
X97143922Y-77619819D01*
X97143922Y-77619819D02*
X97382017Y-77619819D01*
X97382017Y-77619819D02*
X97524874Y-77667438D01*
X97524874Y-77667438D02*
X97620112Y-77762676D01*
X97620112Y-77762676D02*
X97667731Y-77857914D01*
X97667731Y-77857914D02*
X97715350Y-78048390D01*
X97715350Y-78048390D02*
X97715350Y-78191247D01*
X97715350Y-78191247D02*
X97667731Y-78381723D01*
X97667731Y-78381723D02*
X97620112Y-78476961D01*
X97620112Y-78476961D02*
X97524874Y-78572200D01*
X97524874Y-78572200D02*
X97382017Y-78619819D01*
X97382017Y-78619819D02*
X97143922Y-78619819D01*
X98715350Y-78619819D02*
X98382017Y-78143628D01*
X98143922Y-78619819D02*
X98143922Y-77619819D01*
X98143922Y-77619819D02*
X98524874Y-77619819D01*
X98524874Y-77619819D02*
X98620112Y-77667438D01*
X98620112Y-77667438D02*
X98667731Y-77715057D01*
X98667731Y-77715057D02*
X98715350Y-77810295D01*
X98715350Y-77810295D02*
X98715350Y-77953152D01*
X98715350Y-77953152D02*
X98667731Y-78048390D01*
X98667731Y-78048390D02*
X98620112Y-78096009D01*
X98620112Y-78096009D02*
X98524874Y-78143628D01*
X98524874Y-78143628D02*
X98143922Y-78143628D01*
D11*
X119650000Y-61750000D02*
X175650000Y-61750000D01*
X175650000Y-117750000D01*
X119650000Y-117750000D01*
X119650000Y-61750000D01*
D12*
X119650000Y-99083333D02*
X175650000Y-99083333D01*
X175650000Y-117750000D01*
X119650000Y-117750000D01*
X119650000Y-99083333D01*
X156983333Y-61750000D02*
X175650000Y-61750000D01*
X175650000Y-117750000D01*
X156983333Y-117750000D01*
X156983333Y-61750000D01*
X119650000Y-61750000D02*
X175650000Y-61750000D01*
X175650000Y-80416667D01*
X119650000Y-80416667D01*
X119650000Y-61750000D01*
X119650000Y-61750000D02*
X138316667Y-61750000D01*
X138316667Y-117750000D01*
X119650000Y-117750000D01*
X119650000Y-61750000D01*
D13*
X158841728Y-63362057D02*
X160698871Y-63362057D01*
X160698871Y-63362057D02*
X159698871Y-64504914D01*
X159698871Y-64504914D02*
X160127442Y-64504914D01*
X160127442Y-64504914D02*
X160413157Y-64647771D01*
X160413157Y-64647771D02*
X160556014Y-64790628D01*
X160556014Y-64790628D02*
X160698871Y-65076342D01*
X160698871Y-65076342D02*
X160698871Y-65790628D01*
X160698871Y-65790628D02*
X160556014Y-66076342D01*
X160556014Y-66076342D02*
X160413157Y-66219200D01*
X160413157Y-66219200D02*
X160127442Y-66362057D01*
X160127442Y-66362057D02*
X159270299Y-66362057D01*
X159270299Y-66362057D02*
X158984585Y-66219200D01*
X158984585Y-66219200D02*
X158841728Y-66076342D01*
X159270299Y-103862057D02*
X159841728Y-103862057D01*
X159841728Y-103862057D02*
X160127442Y-103719200D01*
X160127442Y-103719200D02*
X160270299Y-103576342D01*
X160270299Y-103576342D02*
X160556014Y-103147771D01*
X160556014Y-103147771D02*
X160698871Y-102576342D01*
X160698871Y-102576342D02*
X160698871Y-101433485D01*
X160698871Y-101433485D02*
X160556014Y-101147771D01*
X160556014Y-101147771D02*
X160413157Y-101004914D01*
X160413157Y-101004914D02*
X160127442Y-100862057D01*
X160127442Y-100862057D02*
X159556014Y-100862057D01*
X159556014Y-100862057D02*
X159270299Y-101004914D01*
X159270299Y-101004914D02*
X159127442Y-101147771D01*
X159127442Y-101147771D02*
X158984585Y-101433485D01*
X158984585Y-101433485D02*
X158984585Y-102147771D01*
X158984585Y-102147771D02*
X159127442Y-102433485D01*
X159127442Y-102433485D02*
X159270299Y-102576342D01*
X159270299Y-102576342D02*
X159556014Y-102719200D01*
X159556014Y-102719200D02*
X160127442Y-102719200D01*
X160127442Y-102719200D02*
X160413157Y-102576342D01*
X160413157Y-102576342D02*
X160556014Y-102433485D01*
X160556014Y-102433485D02*
X160698871Y-102147771D01*
X123198871Y-66362057D02*
X121484585Y-66362057D01*
X122341728Y-66362057D02*
X122341728Y-63362057D01*
X122341728Y-63362057D02*
X122056014Y-63790628D01*
X122056014Y-63790628D02*
X121770299Y-64076342D01*
X121770299Y-64076342D02*
X121484585Y-64219200D01*
X139984585Y-63647771D02*
X140127442Y-63504914D01*
X140127442Y-63504914D02*
X140413157Y-63362057D01*
X140413157Y-63362057D02*
X141127442Y-63362057D01*
X141127442Y-63362057D02*
X141413157Y-63504914D01*
X141413157Y-63504914D02*
X141556014Y-63647771D01*
X141556014Y-63647771D02*
X141698871Y-63933485D01*
X141698871Y-63933485D02*
X141698871Y-64219200D01*
X141698871Y-64219200D02*
X141556014Y-64647771D01*
X141556014Y-64647771D02*
X139841728Y-66362057D01*
X139841728Y-66362057D02*
X141698871Y-66362057D01*
X160413157Y-82362057D02*
X159841728Y-82362057D01*
X159841728Y-82362057D02*
X159556014Y-82504914D01*
X159556014Y-82504914D02*
X159413157Y-82647771D01*
X159413157Y-82647771D02*
X159127442Y-83076342D01*
X159127442Y-83076342D02*
X158984585Y-83647771D01*
X158984585Y-83647771D02*
X158984585Y-84790628D01*
X158984585Y-84790628D02*
X159127442Y-85076342D01*
X159127442Y-85076342D02*
X159270299Y-85219200D01*
X159270299Y-85219200D02*
X159556014Y-85362057D01*
X159556014Y-85362057D02*
X160127442Y-85362057D01*
X160127442Y-85362057D02*
X160413157Y-85219200D01*
X160413157Y-85219200D02*
X160556014Y-85076342D01*
X160556014Y-85076342D02*
X160698871Y-84790628D01*
X160698871Y-84790628D02*
X160698871Y-84076342D01*
X160698871Y-84076342D02*
X160556014Y-83790628D01*
X160556014Y-83790628D02*
X160413157Y-83647771D01*
X160413157Y-83647771D02*
X160127442Y-83504914D01*
X160127442Y-83504914D02*
X159556014Y-83504914D01*
X159556014Y-83504914D02*
X159270299Y-83647771D01*
X159270299Y-83647771D02*
X159127442Y-83790628D01*
X159127442Y-83790628D02*
X158984585Y-84076342D01*
D14*
X119264034Y-124520234D02*
X118680701Y-123686901D01*
X118264034Y-124520234D02*
X118264034Y-122770234D01*
X118264034Y-122770234D02*
X118930701Y-122770234D01*
X118930701Y-122770234D02*
X119097368Y-122853567D01*
X119097368Y-122853567D02*
X119180701Y-122936901D01*
X119180701Y-122936901D02*
X119264034Y-123103567D01*
X119264034Y-123103567D02*
X119264034Y-123353567D01*
X119264034Y-123353567D02*
X119180701Y-123520234D01*
X119180701Y-123520234D02*
X119097368Y-123603567D01*
X119097368Y-123603567D02*
X118930701Y-123686901D01*
X118930701Y-123686901D02*
X118264034Y-123686901D01*
X120014034Y-122770234D02*
X120014034Y-124186901D01*
X120014034Y-124186901D02*
X120097368Y-124353567D01*
X120097368Y-124353567D02*
X120180701Y-124436901D01*
X120180701Y-124436901D02*
X120347368Y-124520234D01*
X120347368Y-124520234D02*
X120680701Y-124520234D01*
X120680701Y-124520234D02*
X120847368Y-124436901D01*
X120847368Y-124436901D02*
X120930701Y-124353567D01*
X120930701Y-124353567D02*
X121014034Y-124186901D01*
X121014034Y-124186901D02*
X121014034Y-122770234D01*
X122430701Y-123603567D02*
X122680701Y-123686901D01*
X122680701Y-123686901D02*
X122764034Y-123770234D01*
X122764034Y-123770234D02*
X122847367Y-123936901D01*
X122847367Y-123936901D02*
X122847367Y-124186901D01*
X122847367Y-124186901D02*
X122764034Y-124353567D01*
X122764034Y-124353567D02*
X122680701Y-124436901D01*
X122680701Y-124436901D02*
X122514034Y-124520234D01*
X122514034Y-124520234D02*
X121847367Y-124520234D01*
X121847367Y-124520234D02*
X121847367Y-122770234D01*
X121847367Y-122770234D02*
X122430701Y-122770234D01*
X122430701Y-122770234D02*
X122597367Y-122853567D01*
X122597367Y-122853567D02*
X122680701Y-122936901D01*
X122680701Y-122936901D02*
X122764034Y-123103567D01*
X122764034Y-123103567D02*
X122764034Y-123270234D01*
X122764034Y-123270234D02*
X122680701Y-123436901D01*
X122680701Y-123436901D02*
X122597367Y-123520234D01*
X122597367Y-123520234D02*
X122430701Y-123603567D01*
X122430701Y-123603567D02*
X121847367Y-123603567D01*
X123597367Y-124520234D02*
X123597367Y-122770234D01*
X124430700Y-124520234D02*
X124430700Y-122770234D01*
X125430700Y-124520234D02*
X124680700Y-123520234D01*
X125430700Y-122770234D02*
X124430700Y-123770234D01*
X126264034Y-122770234D02*
X126097367Y-123103567D01*
X126930700Y-124436901D02*
X127180700Y-124520234D01*
X127180700Y-124520234D02*
X127597367Y-124520234D01*
X127597367Y-124520234D02*
X127764033Y-124436901D01*
X127764033Y-124436901D02*
X127847367Y-124353567D01*
X127847367Y-124353567D02*
X127930700Y-124186901D01*
X127930700Y-124186901D02*
X127930700Y-124020234D01*
X127930700Y-124020234D02*
X127847367Y-123853567D01*
X127847367Y-123853567D02*
X127764033Y-123770234D01*
X127764033Y-123770234D02*
X127597367Y-123686901D01*
X127597367Y-123686901D02*
X127264033Y-123603567D01*
X127264033Y-123603567D02*
X127097367Y-123520234D01*
X127097367Y-123520234D02*
X127014033Y-123436901D01*
X127014033Y-123436901D02*
X126930700Y-123270234D01*
X126930700Y-123270234D02*
X126930700Y-123103567D01*
X126930700Y-123103567D02*
X127014033Y-122936901D01*
X127014033Y-122936901D02*
X127097367Y-122853567D01*
X127097367Y-122853567D02*
X127264033Y-122770234D01*
X127264033Y-122770234D02*
X127680700Y-122770234D01*
X127680700Y-122770234D02*
X127930700Y-122853567D01*
X131014033Y-124353567D02*
X130930700Y-124436901D01*
X130930700Y-124436901D02*
X130680700Y-124520234D01*
X130680700Y-124520234D02*
X130514033Y-124520234D01*
X130514033Y-124520234D02*
X130264033Y-124436901D01*
X130264033Y-124436901D02*
X130097367Y-124270234D01*
X130097367Y-124270234D02*
X130014033Y-124103567D01*
X130014033Y-124103567D02*
X129930700Y-123770234D01*
X129930700Y-123770234D02*
X129930700Y-123520234D01*
X129930700Y-123520234D02*
X130014033Y-123186901D01*
X130014033Y-123186901D02*
X130097367Y-123020234D01*
X130097367Y-123020234D02*
X130264033Y-122853567D01*
X130264033Y-122853567D02*
X130514033Y-122770234D01*
X130514033Y-122770234D02*
X130680700Y-122770234D01*
X130680700Y-122770234D02*
X130930700Y-122853567D01*
X130930700Y-122853567D02*
X131014033Y-122936901D01*
X131764033Y-122770234D02*
X131764033Y-124186901D01*
X131764033Y-124186901D02*
X131847367Y-124353567D01*
X131847367Y-124353567D02*
X131930700Y-124436901D01*
X131930700Y-124436901D02*
X132097367Y-124520234D01*
X132097367Y-124520234D02*
X132430700Y-124520234D01*
X132430700Y-124520234D02*
X132597367Y-124436901D01*
X132597367Y-124436901D02*
X132680700Y-124353567D01*
X132680700Y-124353567D02*
X132764033Y-124186901D01*
X132764033Y-124186901D02*
X132764033Y-122770234D01*
X134180700Y-123603567D02*
X134430700Y-123686901D01*
X134430700Y-123686901D02*
X134514033Y-123770234D01*
X134514033Y-123770234D02*
X134597366Y-123936901D01*
X134597366Y-123936901D02*
X134597366Y-124186901D01*
X134597366Y-124186901D02*
X134514033Y-124353567D01*
X134514033Y-124353567D02*
X134430700Y-124436901D01*
X134430700Y-124436901D02*
X134264033Y-124520234D01*
X134264033Y-124520234D02*
X133597366Y-124520234D01*
X133597366Y-124520234D02*
X133597366Y-122770234D01*
X133597366Y-122770234D02*
X134180700Y-122770234D01*
X134180700Y-122770234D02*
X134347366Y-122853567D01*
X134347366Y-122853567D02*
X134430700Y-122936901D01*
X134430700Y-122936901D02*
X134514033Y-123103567D01*
X134514033Y-123103567D02*
X134514033Y-123270234D01*
X134514033Y-123270234D02*
X134430700Y-123436901D01*
X134430700Y-123436901D02*
X134347366Y-123520234D01*
X134347366Y-123520234D02*
X134180700Y-123603567D01*
X134180700Y-123603567D02*
X133597366Y-123603567D01*
X135347366Y-123603567D02*
X135930700Y-123603567D01*
X136180700Y-124520234D02*
X135347366Y-124520234D01*
X135347366Y-124520234D02*
X135347366Y-122770234D01*
X135347366Y-122770234D02*
X136180700Y-122770234D01*
X139264032Y-124353567D02*
X139180699Y-124436901D01*
X139180699Y-124436901D02*
X138930699Y-124520234D01*
X138930699Y-124520234D02*
X138764032Y-124520234D01*
X138764032Y-124520234D02*
X138514032Y-124436901D01*
X138514032Y-124436901D02*
X138347366Y-124270234D01*
X138347366Y-124270234D02*
X138264032Y-124103567D01*
X138264032Y-124103567D02*
X138180699Y-123770234D01*
X138180699Y-123770234D02*
X138180699Y-123520234D01*
X138180699Y-123520234D02*
X138264032Y-123186901D01*
X138264032Y-123186901D02*
X138347366Y-123020234D01*
X138347366Y-123020234D02*
X138514032Y-122853567D01*
X138514032Y-122853567D02*
X138764032Y-122770234D01*
X138764032Y-122770234D02*
X138930699Y-122770234D01*
X138930699Y-122770234D02*
X139180699Y-122853567D01*
X139180699Y-122853567D02*
X139264032Y-122936901D01*
X140347366Y-122770234D02*
X140680699Y-122770234D01*
X140680699Y-122770234D02*
X140847366Y-122853567D01*
X140847366Y-122853567D02*
X141014032Y-123020234D01*
X141014032Y-123020234D02*
X141097366Y-123353567D01*
X141097366Y-123353567D02*
X141097366Y-123936901D01*
X141097366Y-123936901D02*
X141014032Y-124270234D01*
X141014032Y-124270234D02*
X140847366Y-124436901D01*
X140847366Y-124436901D02*
X140680699Y-124520234D01*
X140680699Y-124520234D02*
X140347366Y-124520234D01*
X140347366Y-124520234D02*
X140180699Y-124436901D01*
X140180699Y-124436901D02*
X140014032Y-124270234D01*
X140014032Y-124270234D02*
X139930699Y-123936901D01*
X139930699Y-123936901D02*
X139930699Y-123353567D01*
X139930699Y-123353567D02*
X140014032Y-123020234D01*
X140014032Y-123020234D02*
X140180699Y-122853567D01*
X140180699Y-122853567D02*
X140347366Y-122770234D01*
X142680699Y-124520234D02*
X141847365Y-124520234D01*
X141847365Y-124520234D02*
X141847365Y-122770234D01*
X143597366Y-122770234D02*
X143930699Y-122770234D01*
X143930699Y-122770234D02*
X144097366Y-122853567D01*
X144097366Y-122853567D02*
X144264032Y-123020234D01*
X144264032Y-123020234D02*
X144347366Y-123353567D01*
X144347366Y-123353567D02*
X144347366Y-123936901D01*
X144347366Y-123936901D02*
X144264032Y-124270234D01*
X144264032Y-124270234D02*
X144097366Y-124436901D01*
X144097366Y-124436901D02*
X143930699Y-124520234D01*
X143930699Y-124520234D02*
X143597366Y-124520234D01*
X143597366Y-124520234D02*
X143430699Y-124436901D01*
X143430699Y-124436901D02*
X143264032Y-124270234D01*
X143264032Y-124270234D02*
X143180699Y-123936901D01*
X143180699Y-123936901D02*
X143180699Y-123353567D01*
X143180699Y-123353567D02*
X143264032Y-123020234D01*
X143264032Y-123020234D02*
X143430699Y-122853567D01*
X143430699Y-122853567D02*
X143597366Y-122770234D01*
X146097365Y-124520234D02*
X145514032Y-123686901D01*
X145097365Y-124520234D02*
X145097365Y-122770234D01*
X145097365Y-122770234D02*
X145764032Y-122770234D01*
X145764032Y-122770234D02*
X145930699Y-122853567D01*
X145930699Y-122853567D02*
X146014032Y-122936901D01*
X146014032Y-122936901D02*
X146097365Y-123103567D01*
X146097365Y-123103567D02*
X146097365Y-123353567D01*
X146097365Y-123353567D02*
X146014032Y-123520234D01*
X146014032Y-123520234D02*
X145930699Y-123603567D01*
X145930699Y-123603567D02*
X145764032Y-123686901D01*
X145764032Y-123686901D02*
X145097365Y-123686901D01*
X148097365Y-124436901D02*
X148347365Y-124520234D01*
X148347365Y-124520234D02*
X148764032Y-124520234D01*
X148764032Y-124520234D02*
X148930698Y-124436901D01*
X148930698Y-124436901D02*
X149014032Y-124353567D01*
X149014032Y-124353567D02*
X149097365Y-124186901D01*
X149097365Y-124186901D02*
X149097365Y-124020234D01*
X149097365Y-124020234D02*
X149014032Y-123853567D01*
X149014032Y-123853567D02*
X148930698Y-123770234D01*
X148930698Y-123770234D02*
X148764032Y-123686901D01*
X148764032Y-123686901D02*
X148430698Y-123603567D01*
X148430698Y-123603567D02*
X148264032Y-123520234D01*
X148264032Y-123520234D02*
X148180698Y-123436901D01*
X148180698Y-123436901D02*
X148097365Y-123270234D01*
X148097365Y-123270234D02*
X148097365Y-123103567D01*
X148097365Y-123103567D02*
X148180698Y-122936901D01*
X148180698Y-122936901D02*
X148264032Y-122853567D01*
X148264032Y-122853567D02*
X148430698Y-122770234D01*
X148430698Y-122770234D02*
X148847365Y-122770234D01*
X148847365Y-122770234D02*
X149097365Y-122853567D01*
X149847365Y-123603567D02*
X150430699Y-123603567D01*
X150680699Y-124520234D02*
X149847365Y-124520234D01*
X149847365Y-124520234D02*
X149847365Y-122770234D01*
X149847365Y-122770234D02*
X150680699Y-122770234D01*
X151430698Y-124520234D02*
X151430698Y-122770234D01*
X151430698Y-122770234D02*
X152430698Y-124520234D01*
X152430698Y-124520234D02*
X152430698Y-122770234D01*
X153180698Y-124436901D02*
X153430698Y-124520234D01*
X153430698Y-124520234D02*
X153847365Y-124520234D01*
X153847365Y-124520234D02*
X154014031Y-124436901D01*
X154014031Y-124436901D02*
X154097365Y-124353567D01*
X154097365Y-124353567D02*
X154180698Y-124186901D01*
X154180698Y-124186901D02*
X154180698Y-124020234D01*
X154180698Y-124020234D02*
X154097365Y-123853567D01*
X154097365Y-123853567D02*
X154014031Y-123770234D01*
X154014031Y-123770234D02*
X153847365Y-123686901D01*
X153847365Y-123686901D02*
X153514031Y-123603567D01*
X153514031Y-123603567D02*
X153347365Y-123520234D01*
X153347365Y-123520234D02*
X153264031Y-123436901D01*
X153264031Y-123436901D02*
X153180698Y-123270234D01*
X153180698Y-123270234D02*
X153180698Y-123103567D01*
X153180698Y-123103567D02*
X153264031Y-122936901D01*
X153264031Y-122936901D02*
X153347365Y-122853567D01*
X153347365Y-122853567D02*
X153514031Y-122770234D01*
X153514031Y-122770234D02*
X153930698Y-122770234D01*
X153930698Y-122770234D02*
X154180698Y-122853567D01*
X155264032Y-122770234D02*
X155597365Y-122770234D01*
X155597365Y-122770234D02*
X155764032Y-122853567D01*
X155764032Y-122853567D02*
X155930698Y-123020234D01*
X155930698Y-123020234D02*
X156014032Y-123353567D01*
X156014032Y-123353567D02*
X156014032Y-123936901D01*
X156014032Y-123936901D02*
X155930698Y-124270234D01*
X155930698Y-124270234D02*
X155764032Y-124436901D01*
X155764032Y-124436901D02*
X155597365Y-124520234D01*
X155597365Y-124520234D02*
X155264032Y-124520234D01*
X155264032Y-124520234D02*
X155097365Y-124436901D01*
X155097365Y-124436901D02*
X154930698Y-124270234D01*
X154930698Y-124270234D02*
X154847365Y-123936901D01*
X154847365Y-123936901D02*
X154847365Y-123353567D01*
X154847365Y-123353567D02*
X154930698Y-123020234D01*
X154930698Y-123020234D02*
X155097365Y-122853567D01*
X155097365Y-122853567D02*
X155264032Y-122770234D01*
X157764031Y-124520234D02*
X157180698Y-123686901D01*
X156764031Y-124520234D02*
X156764031Y-122770234D01*
X156764031Y-122770234D02*
X157430698Y-122770234D01*
X157430698Y-122770234D02*
X157597365Y-122853567D01*
X157597365Y-122853567D02*
X157680698Y-122936901D01*
X157680698Y-122936901D02*
X157764031Y-123103567D01*
X157764031Y-123103567D02*
X157764031Y-123353567D01*
X157764031Y-123353567D02*
X157680698Y-123520234D01*
X157680698Y-123520234D02*
X157597365Y-123603567D01*
X157597365Y-123603567D02*
X157430698Y-123686901D01*
X157430698Y-123686901D02*
X156764031Y-123686901D01*
X159597364Y-122770234D02*
X160180698Y-124520234D01*
X160180698Y-124520234D02*
X160764031Y-122770234D01*
X161264031Y-122936901D02*
X161347364Y-122853567D01*
X161347364Y-122853567D02*
X161514031Y-122770234D01*
X161514031Y-122770234D02*
X161930698Y-122770234D01*
X161930698Y-122770234D02*
X162097364Y-122853567D01*
X162097364Y-122853567D02*
X162180698Y-122936901D01*
X162180698Y-122936901D02*
X162264031Y-123103567D01*
X162264031Y-123103567D02*
X162264031Y-123270234D01*
X162264031Y-123270234D02*
X162180698Y-123520234D01*
X162180698Y-123520234D02*
X161180698Y-124520234D01*
X161180698Y-124520234D02*
X162264031Y-124520234D01*
D15*
X164591101Y-124521980D02*
X164543482Y-124569600D01*
X164543482Y-124569600D02*
X164400625Y-124617219D01*
X164400625Y-124617219D02*
X164305387Y-124617219D01*
X164305387Y-124617219D02*
X164162530Y-124569600D01*
X164162530Y-124569600D02*
X164067292Y-124474361D01*
X164067292Y-124474361D02*
X164019673Y-124379123D01*
X164019673Y-124379123D02*
X163972054Y-124188647D01*
X163972054Y-124188647D02*
X163972054Y-124045790D01*
X163972054Y-124045790D02*
X164019673Y-123855314D01*
X164019673Y-123855314D02*
X164067292Y-123760076D01*
X164067292Y-123760076D02*
X164162530Y-123664838D01*
X164162530Y-123664838D02*
X164305387Y-123617219D01*
X164305387Y-123617219D02*
X164400625Y-123617219D01*
X164400625Y-123617219D02*
X164543482Y-123664838D01*
X164543482Y-123664838D02*
X164591101Y-123712457D01*
X165019673Y-124617219D02*
X165019673Y-123617219D01*
X165019673Y-124093409D02*
X165591101Y-124093409D01*
X165591101Y-124617219D02*
X165591101Y-123617219D01*
X166019673Y-124331504D02*
X166495863Y-124331504D01*
X165924435Y-124617219D02*
X166257768Y-123617219D01*
X166257768Y-123617219D02*
X166591101Y-124617219D01*
X167495863Y-124617219D02*
X167162530Y-124141028D01*
X166924435Y-124617219D02*
X166924435Y-123617219D01*
X166924435Y-123617219D02*
X167305387Y-123617219D01*
X167305387Y-123617219D02*
X167400625Y-123664838D01*
X167400625Y-123664838D02*
X167448244Y-123712457D01*
X167448244Y-123712457D02*
X167495863Y-123807695D01*
X167495863Y-123807695D02*
X167495863Y-123950552D01*
X167495863Y-123950552D02*
X167448244Y-124045790D01*
X167448244Y-124045790D02*
X167400625Y-124093409D01*
X167400625Y-124093409D02*
X167305387Y-124141028D01*
X167305387Y-124141028D02*
X166924435Y-124141028D01*
X168400625Y-124617219D02*
X167924435Y-124617219D01*
X167924435Y-124617219D02*
X167924435Y-123617219D01*
X168733959Y-124617219D02*
X168733959Y-123617219D01*
X169210149Y-124093409D02*
X169543482Y-124093409D01*
X169686339Y-124617219D02*
X169210149Y-124617219D01*
X169210149Y-124617219D02*
X169210149Y-123617219D01*
X169210149Y-123617219D02*
X169686339Y-123617219D01*
X171353006Y-124617219D02*
X170876816Y-124617219D01*
X170876816Y-124617219D02*
X170876816Y-123617219D01*
X171638721Y-124331504D02*
X172114911Y-124331504D01*
X171543483Y-124617219D02*
X171876816Y-123617219D01*
X171876816Y-123617219D02*
X172210149Y-124617219D01*
X172543483Y-124617219D02*
X172543483Y-123617219D01*
X172543483Y-123617219D02*
X172876816Y-124331504D01*
X172876816Y-124331504D02*
X173210149Y-123617219D01*
X173210149Y-123617219D02*
X173210149Y-124617219D01*
X174019673Y-124093409D02*
X174162530Y-124141028D01*
X174162530Y-124141028D02*
X174210149Y-124188647D01*
X174210149Y-124188647D02*
X174257768Y-124283885D01*
X174257768Y-124283885D02*
X174257768Y-124426742D01*
X174257768Y-124426742D02*
X174210149Y-124521980D01*
X174210149Y-124521980D02*
X174162530Y-124569600D01*
X174162530Y-124569600D02*
X174067292Y-124617219D01*
X174067292Y-124617219D02*
X173686340Y-124617219D01*
X173686340Y-124617219D02*
X173686340Y-123617219D01*
X173686340Y-123617219D02*
X174019673Y-123617219D01*
X174019673Y-123617219D02*
X174114911Y-123664838D01*
X174114911Y-123664838D02*
X174162530Y-123712457D01*
X174162530Y-123712457D02*
X174210149Y-123807695D01*
X174210149Y-123807695D02*
X174210149Y-123902933D01*
X174210149Y-123902933D02*
X174162530Y-123998171D01*
X174162530Y-123998171D02*
X174114911Y-124045790D01*
X174114911Y-124045790D02*
X174019673Y-124093409D01*
X174019673Y-124093409D02*
X173686340Y-124093409D01*
X174686340Y-124093409D02*
X175019673Y-124093409D01*
X175162530Y-124617219D02*
X174686340Y-124617219D01*
X174686340Y-124617219D02*
X174686340Y-123617219D01*
X174686340Y-123617219D02*
X175162530Y-123617219D01*
X176162530Y-124617219D02*
X175829197Y-124141028D01*
X175591102Y-124617219D02*
X175591102Y-123617219D01*
X175591102Y-123617219D02*
X175972054Y-123617219D01*
X175972054Y-123617219D02*
X176067292Y-123664838D01*
X176067292Y-123664838D02*
X176114911Y-123712457D01*
X176114911Y-123712457D02*
X176162530Y-123807695D01*
X176162530Y-123807695D02*
X176162530Y-123950552D01*
X176162530Y-123950552D02*
X176114911Y-124045790D01*
X176114911Y-124045790D02*
X176067292Y-124093409D01*
X176067292Y-124093409D02*
X175972054Y-124141028D01*
X175972054Y-124141028D02*
X175591102Y-124141028D01*
X176448245Y-123617219D02*
X177019673Y-123617219D01*
X176733959Y-124617219D02*
X176733959Y-123617219D01*
D13*
X121341728Y-100862057D02*
X123341728Y-100862057D01*
X123341728Y-100862057D02*
X122056014Y-103862057D01*
X140556014Y-102147771D02*
X140270299Y-102004914D01*
X140270299Y-102004914D02*
X140127442Y-101862057D01*
X140127442Y-101862057D02*
X139984585Y-101576342D01*
X139984585Y-101576342D02*
X139984585Y-101433485D01*
X139984585Y-101433485D02*
X140127442Y-101147771D01*
X140127442Y-101147771D02*
X140270299Y-101004914D01*
X140270299Y-101004914D02*
X140556014Y-100862057D01*
X140556014Y-100862057D02*
X141127442Y-100862057D01*
X141127442Y-100862057D02*
X141413157Y-101004914D01*
X141413157Y-101004914D02*
X141556014Y-101147771D01*
X141556014Y-101147771D02*
X141698871Y-101433485D01*
X141698871Y-101433485D02*
X141698871Y-101576342D01*
X141698871Y-101576342D02*
X141556014Y-101862057D01*
X141556014Y-101862057D02*
X141413157Y-102004914D01*
X141413157Y-102004914D02*
X141127442Y-102147771D01*
X141127442Y-102147771D02*
X140556014Y-102147771D01*
X140556014Y-102147771D02*
X140270299Y-102290628D01*
X140270299Y-102290628D02*
X140127442Y-102433485D01*
X140127442Y-102433485D02*
X139984585Y-102719200D01*
X139984585Y-102719200D02*
X139984585Y-103290628D01*
X139984585Y-103290628D02*
X140127442Y-103576342D01*
X140127442Y-103576342D02*
X140270299Y-103719200D01*
X140270299Y-103719200D02*
X140556014Y-103862057D01*
X140556014Y-103862057D02*
X141127442Y-103862057D01*
X141127442Y-103862057D02*
X141413157Y-103719200D01*
X141413157Y-103719200D02*
X141556014Y-103576342D01*
X141556014Y-103576342D02*
X141698871Y-103290628D01*
X141698871Y-103290628D02*
X141698871Y-102719200D01*
X141698871Y-102719200D02*
X141556014Y-102433485D01*
X141556014Y-102433485D02*
X141413157Y-102290628D01*
X141413157Y-102290628D02*
X141127442Y-102147771D01*
X122913157Y-83362057D02*
X122913157Y-85362057D01*
X122198871Y-82219200D02*
X121484585Y-84362057D01*
X121484585Y-84362057D02*
X123341728Y-84362057D01*
X141556014Y-82362057D02*
X140127442Y-82362057D01*
X140127442Y-82362057D02*
X139984585Y-83790628D01*
X139984585Y-83790628D02*
X140127442Y-83647771D01*
X140127442Y-83647771D02*
X140413157Y-83504914D01*
X140413157Y-83504914D02*
X141127442Y-83504914D01*
X141127442Y-83504914D02*
X141413157Y-83647771D01*
X141413157Y-83647771D02*
X141556014Y-83790628D01*
X141556014Y-83790628D02*
X141698871Y-84076342D01*
X141698871Y-84076342D02*
X141698871Y-84790628D01*
X141698871Y-84790628D02*
X141556014Y-85076342D01*
X141556014Y-85076342D02*
X141413157Y-85219200D01*
X141413157Y-85219200D02*
X141127442Y-85362057D01*
X141127442Y-85362057D02*
X140413157Y-85362057D01*
X140413157Y-85362057D02*
X140127442Y-85219200D01*
X140127442Y-85219200D02*
X139984585Y-85076342D01*
D10*
X151976836Y-71934997D02*
X152786359Y-71934997D01*
X152786359Y-71934997D02*
X152881597Y-71887378D01*
X152881597Y-71887378D02*
X152929217Y-71839759D01*
X152929217Y-71839759D02*
X152976836Y-71744521D01*
X152976836Y-71744521D02*
X152976836Y-71554045D01*
X152976836Y-71554045D02*
X152929217Y-71458807D01*
X152929217Y-71458807D02*
X152881597Y-71411188D01*
X152881597Y-71411188D02*
X152786359Y-71363569D01*
X152786359Y-71363569D02*
X151976836Y-71363569D01*
X152310169Y-70458807D02*
X152976836Y-70458807D01*
X151929217Y-70696902D02*
X152643502Y-70934997D01*
X152643502Y-70934997D02*
X152643502Y-70315950D01*
X170476836Y-71934997D02*
X171286359Y-71934997D01*
X171286359Y-71934997D02*
X171381597Y-71887378D01*
X171381597Y-71887378D02*
X171429217Y-71839759D01*
X171429217Y-71839759D02*
X171476836Y-71744521D01*
X171476836Y-71744521D02*
X171476836Y-71554045D01*
X171476836Y-71554045D02*
X171429217Y-71458807D01*
X171429217Y-71458807D02*
X171381597Y-71411188D01*
X171381597Y-71411188D02*
X171286359Y-71363569D01*
X171286359Y-71363569D02*
X170476836Y-71363569D01*
X170476836Y-70411188D02*
X170476836Y-70887378D01*
X170476836Y-70887378D02*
X170953026Y-70934997D01*
X170953026Y-70934997D02*
X170905407Y-70887378D01*
X170905407Y-70887378D02*
X170857788Y-70792140D01*
X170857788Y-70792140D02*
X170857788Y-70554045D01*
X170857788Y-70554045D02*
X170905407Y-70458807D01*
X170905407Y-70458807D02*
X170953026Y-70411188D01*
X170953026Y-70411188D02*
X171048264Y-70363569D01*
X171048264Y-70363569D02*
X171286359Y-70363569D01*
X171286359Y-70363569D02*
X171381597Y-70411188D01*
X171381597Y-70411188D02*
X171429217Y-70458807D01*
X171429217Y-70458807D02*
X171476836Y-70554045D01*
X171476836Y-70554045D02*
X171476836Y-70792140D01*
X171476836Y-70792140D02*
X171429217Y-70887378D01*
X171429217Y-70887378D02*
X171381597Y-70934997D01*
X133476836Y-90684997D02*
X134286359Y-90684997D01*
X134286359Y-90684997D02*
X134381597Y-90637378D01*
X134381597Y-90637378D02*
X134429217Y-90589759D01*
X134429217Y-90589759D02*
X134476836Y-90494521D01*
X134476836Y-90494521D02*
X134476836Y-90304045D01*
X134476836Y-90304045D02*
X134429217Y-90208807D01*
X134429217Y-90208807D02*
X134381597Y-90161188D01*
X134381597Y-90161188D02*
X134286359Y-90113569D01*
X134286359Y-90113569D02*
X133476836Y-90113569D01*
X133476836Y-89208807D02*
X133476836Y-89399283D01*
X133476836Y-89399283D02*
X133524455Y-89494521D01*
X133524455Y-89494521D02*
X133572074Y-89542140D01*
X133572074Y-89542140D02*
X133714931Y-89637378D01*
X133714931Y-89637378D02*
X133905407Y-89684997D01*
X133905407Y-89684997D02*
X134286359Y-89684997D01*
X134286359Y-89684997D02*
X134381597Y-89637378D01*
X134381597Y-89637378D02*
X134429217Y-89589759D01*
X134429217Y-89589759D02*
X134476836Y-89494521D01*
X134476836Y-89494521D02*
X134476836Y-89304045D01*
X134476836Y-89304045D02*
X134429217Y-89208807D01*
X134429217Y-89208807D02*
X134381597Y-89161188D01*
X134381597Y-89161188D02*
X134286359Y-89113569D01*
X134286359Y-89113569D02*
X134048264Y-89113569D01*
X134048264Y-89113569D02*
X133953026Y-89161188D01*
X133953026Y-89161188D02*
X133905407Y-89208807D01*
X133905407Y-89208807D02*
X133857788Y-89304045D01*
X133857788Y-89304045D02*
X133857788Y-89494521D01*
X133857788Y-89494521D02*
X133905407Y-89589759D01*
X133905407Y-89589759D02*
X133953026Y-89637378D01*
X133953026Y-89637378D02*
X134048264Y-89684997D01*
X151976836Y-90684997D02*
X152786359Y-90684997D01*
X152786359Y-90684997D02*
X152881597Y-90637378D01*
X152881597Y-90637378D02*
X152929217Y-90589759D01*
X152929217Y-90589759D02*
X152976836Y-90494521D01*
X152976836Y-90494521D02*
X152976836Y-90304045D01*
X152976836Y-90304045D02*
X152929217Y-90208807D01*
X152929217Y-90208807D02*
X152881597Y-90161188D01*
X152881597Y-90161188D02*
X152786359Y-90113569D01*
X152786359Y-90113569D02*
X151976836Y-90113569D01*
X151976836Y-89732616D02*
X151976836Y-89065950D01*
X151976836Y-89065950D02*
X152976836Y-89494521D01*
X170376836Y-90734997D02*
X171186359Y-90734997D01*
X171186359Y-90734997D02*
X171281597Y-90687378D01*
X171281597Y-90687378D02*
X171329217Y-90639759D01*
X171329217Y-90639759D02*
X171376836Y-90544521D01*
X171376836Y-90544521D02*
X171376836Y-90354045D01*
X171376836Y-90354045D02*
X171329217Y-90258807D01*
X171329217Y-90258807D02*
X171281597Y-90211188D01*
X171281597Y-90211188D02*
X171186359Y-90163569D01*
X171186359Y-90163569D02*
X170376836Y-90163569D01*
X170805407Y-89544521D02*
X170757788Y-89639759D01*
X170757788Y-89639759D02*
X170710169Y-89687378D01*
X170710169Y-89687378D02*
X170614931Y-89734997D01*
X170614931Y-89734997D02*
X170567312Y-89734997D01*
X170567312Y-89734997D02*
X170472074Y-89687378D01*
X170472074Y-89687378D02*
X170424455Y-89639759D01*
X170424455Y-89639759D02*
X170376836Y-89544521D01*
X170376836Y-89544521D02*
X170376836Y-89354045D01*
X170376836Y-89354045D02*
X170424455Y-89258807D01*
X170424455Y-89258807D02*
X170472074Y-89211188D01*
X170472074Y-89211188D02*
X170567312Y-89163569D01*
X170567312Y-89163569D02*
X170614931Y-89163569D01*
X170614931Y-89163569D02*
X170710169Y-89211188D01*
X170710169Y-89211188D02*
X170757788Y-89258807D01*
X170757788Y-89258807D02*
X170805407Y-89354045D01*
X170805407Y-89354045D02*
X170805407Y-89544521D01*
X170805407Y-89544521D02*
X170853026Y-89639759D01*
X170853026Y-89639759D02*
X170900645Y-89687378D01*
X170900645Y-89687378D02*
X170995883Y-89734997D01*
X170995883Y-89734997D02*
X171186359Y-89734997D01*
X171186359Y-89734997D02*
X171281597Y-89687378D01*
X171281597Y-89687378D02*
X171329217Y-89639759D01*
X171329217Y-89639759D02*
X171376836Y-89544521D01*
X171376836Y-89544521D02*
X171376836Y-89354045D01*
X171376836Y-89354045D02*
X171329217Y-89258807D01*
X171329217Y-89258807D02*
X171281597Y-89211188D01*
X171281597Y-89211188D02*
X171186359Y-89163569D01*
X171186359Y-89163569D02*
X170995883Y-89163569D01*
X170995883Y-89163569D02*
X170900645Y-89211188D01*
X170900645Y-89211188D02*
X170853026Y-89258807D01*
X170853026Y-89258807D02*
X170805407Y-89354045D01*
X133476836Y-109184997D02*
X134286359Y-109184997D01*
X134286359Y-109184997D02*
X134381597Y-109137378D01*
X134381597Y-109137378D02*
X134429217Y-109089759D01*
X134429217Y-109089759D02*
X134476836Y-108994521D01*
X134476836Y-108994521D02*
X134476836Y-108804045D01*
X134476836Y-108804045D02*
X134429217Y-108708807D01*
X134429217Y-108708807D02*
X134381597Y-108661188D01*
X134381597Y-108661188D02*
X134286359Y-108613569D01*
X134286359Y-108613569D02*
X133476836Y-108613569D01*
X134476836Y-108089759D02*
X134476836Y-107899283D01*
X134476836Y-107899283D02*
X134429217Y-107804045D01*
X134429217Y-107804045D02*
X134381597Y-107756426D01*
X134381597Y-107756426D02*
X134238740Y-107661188D01*
X134238740Y-107661188D02*
X134048264Y-107613569D01*
X134048264Y-107613569D02*
X133667312Y-107613569D01*
X133667312Y-107613569D02*
X133572074Y-107661188D01*
X133572074Y-107661188D02*
X133524455Y-107708807D01*
X133524455Y-107708807D02*
X133476836Y-107804045D01*
X133476836Y-107804045D02*
X133476836Y-107994521D01*
X133476836Y-107994521D02*
X133524455Y-108089759D01*
X133524455Y-108089759D02*
X133572074Y-108137378D01*
X133572074Y-108137378D02*
X133667312Y-108184997D01*
X133667312Y-108184997D02*
X133905407Y-108184997D01*
X133905407Y-108184997D02*
X134000645Y-108137378D01*
X134000645Y-108137378D02*
X134048264Y-108089759D01*
X134048264Y-108089759D02*
X134095883Y-107994521D01*
X134095883Y-107994521D02*
X134095883Y-107804045D01*
X134095883Y-107804045D02*
X134048264Y-107708807D01*
X134048264Y-107708807D02*
X134000645Y-107661188D01*
X134000645Y-107661188D02*
X133905407Y-107613569D01*
X151976836Y-109661187D02*
X152786359Y-109661187D01*
X152786359Y-109661187D02*
X152881597Y-109613568D01*
X152881597Y-109613568D02*
X152929217Y-109565949D01*
X152929217Y-109565949D02*
X152976836Y-109470711D01*
X152976836Y-109470711D02*
X152976836Y-109280235D01*
X152976836Y-109280235D02*
X152929217Y-109184997D01*
X152929217Y-109184997D02*
X152881597Y-109137378D01*
X152881597Y-109137378D02*
X152786359Y-109089759D01*
X152786359Y-109089759D02*
X151976836Y-109089759D01*
X152976836Y-108089759D02*
X152976836Y-108661187D01*
X152976836Y-108375473D02*
X151976836Y-108375473D01*
X151976836Y-108375473D02*
X152119693Y-108470711D01*
X152119693Y-108470711D02*
X152214931Y-108565949D01*
X152214931Y-108565949D02*
X152262550Y-108661187D01*
X151976836Y-107470711D02*
X151976836Y-107375473D01*
X151976836Y-107375473D02*
X152024455Y-107280235D01*
X152024455Y-107280235D02*
X152072074Y-107232616D01*
X152072074Y-107232616D02*
X152167312Y-107184997D01*
X152167312Y-107184997D02*
X152357788Y-107137378D01*
X152357788Y-107137378D02*
X152595883Y-107137378D01*
X152595883Y-107137378D02*
X152786359Y-107184997D01*
X152786359Y-107184997D02*
X152881597Y-107232616D01*
X152881597Y-107232616D02*
X152929217Y-107280235D01*
X152929217Y-107280235D02*
X152976836Y-107375473D01*
X152976836Y-107375473D02*
X152976836Y-107470711D01*
X152976836Y-107470711D02*
X152929217Y-107565949D01*
X152929217Y-107565949D02*
X152881597Y-107613568D01*
X152881597Y-107613568D02*
X152786359Y-107661187D01*
X152786359Y-107661187D02*
X152595883Y-107708806D01*
X152595883Y-107708806D02*
X152357788Y-107708806D01*
X152357788Y-107708806D02*
X152167312Y-107661187D01*
X152167312Y-107661187D02*
X152072074Y-107613568D01*
X152072074Y-107613568D02*
X152024455Y-107565949D01*
X152024455Y-107565949D02*
X151976836Y-107470711D01*
X170476836Y-109661187D02*
X171286359Y-109661187D01*
X171286359Y-109661187D02*
X171381597Y-109613568D01*
X171381597Y-109613568D02*
X171429217Y-109565949D01*
X171429217Y-109565949D02*
X171476836Y-109470711D01*
X171476836Y-109470711D02*
X171476836Y-109280235D01*
X171476836Y-109280235D02*
X171429217Y-109184997D01*
X171429217Y-109184997D02*
X171381597Y-109137378D01*
X171381597Y-109137378D02*
X171286359Y-109089759D01*
X171286359Y-109089759D02*
X170476836Y-109089759D01*
X171476836Y-108089759D02*
X171476836Y-108661187D01*
X171476836Y-108375473D02*
X170476836Y-108375473D01*
X170476836Y-108375473D02*
X170619693Y-108470711D01*
X170619693Y-108470711D02*
X170714931Y-108565949D01*
X170714931Y-108565949D02*
X170762550Y-108661187D01*
X171476836Y-107137378D02*
X171476836Y-107708806D01*
X171476836Y-107423092D02*
X170476836Y-107423092D01*
X170476836Y-107423092D02*
X170619693Y-107518330D01*
X170619693Y-107518330D02*
X170714931Y-107613568D01*
X170714931Y-107613568D02*
X170762550Y-107708806D01*
X133476836Y-71934997D02*
X134286359Y-71934997D01*
X134286359Y-71934997D02*
X134381597Y-71887378D01*
X134381597Y-71887378D02*
X134429217Y-71839759D01*
X134429217Y-71839759D02*
X134476836Y-71744521D01*
X134476836Y-71744521D02*
X134476836Y-71554045D01*
X134476836Y-71554045D02*
X134429217Y-71458807D01*
X134429217Y-71458807D02*
X134381597Y-71411188D01*
X134381597Y-71411188D02*
X134286359Y-71363569D01*
X134286359Y-71363569D02*
X133476836Y-71363569D01*
X133476836Y-70982616D02*
X133476836Y-70363569D01*
X133476836Y-70363569D02*
X133857788Y-70696902D01*
X133857788Y-70696902D02*
X133857788Y-70554045D01*
X133857788Y-70554045D02*
X133905407Y-70458807D01*
X133905407Y-70458807D02*
X133953026Y-70411188D01*
X133953026Y-70411188D02*
X134048264Y-70363569D01*
X134048264Y-70363569D02*
X134286359Y-70363569D01*
X134286359Y-70363569D02*
X134381597Y-70411188D01*
X134381597Y-70411188D02*
X134429217Y-70458807D01*
X134429217Y-70458807D02*
X134476836Y-70554045D01*
X134476836Y-70554045D02*
X134476836Y-70839759D01*
X134476836Y-70839759D02*
X134429217Y-70934997D01*
X134429217Y-70934997D02*
X134381597Y-70982616D01*
X123954819Y-72338094D02*
X122954819Y-72338094D01*
X122954819Y-72338094D02*
X122954819Y-72099999D01*
X122954819Y-72099999D02*
X123002438Y-71957142D01*
X123002438Y-71957142D02*
X123097676Y-71861904D01*
X123097676Y-71861904D02*
X123192914Y-71814285D01*
X123192914Y-71814285D02*
X123383390Y-71766666D01*
X123383390Y-71766666D02*
X123526247Y-71766666D01*
X123526247Y-71766666D02*
X123716723Y-71814285D01*
X123716723Y-71814285D02*
X123811961Y-71861904D01*
X123811961Y-71861904D02*
X123907200Y-71957142D01*
X123907200Y-71957142D02*
X123954819Y-72099999D01*
X123954819Y-72099999D02*
X123954819Y-72338094D01*
X123954819Y-70814285D02*
X123954819Y-71385713D01*
X123954819Y-71099999D02*
X122954819Y-71099999D01*
X122954819Y-71099999D02*
X123097676Y-71195237D01*
X123097676Y-71195237D02*
X123192914Y-71290475D01*
X123192914Y-71290475D02*
X123240533Y-71385713D01*
X137609580Y-71166666D02*
X137657200Y-71214285D01*
X137657200Y-71214285D02*
X137704819Y-71357142D01*
X137704819Y-71357142D02*
X137704819Y-71452380D01*
X137704819Y-71452380D02*
X137657200Y-71595237D01*
X137657200Y-71595237D02*
X137561961Y-71690475D01*
X137561961Y-71690475D02*
X137466723Y-71738094D01*
X137466723Y-71738094D02*
X137276247Y-71785713D01*
X137276247Y-71785713D02*
X137133390Y-71785713D01*
X137133390Y-71785713D02*
X136942914Y-71738094D01*
X136942914Y-71738094D02*
X136847676Y-71690475D01*
X136847676Y-71690475D02*
X136752438Y-71595237D01*
X136752438Y-71595237D02*
X136704819Y-71452380D01*
X136704819Y-71452380D02*
X136704819Y-71357142D01*
X136704819Y-71357142D02*
X136752438Y-71214285D01*
X136752438Y-71214285D02*
X136800057Y-71166666D01*
X136704819Y-70261904D02*
X136704819Y-70738094D01*
X136704819Y-70738094D02*
X137181009Y-70785713D01*
X137181009Y-70785713D02*
X137133390Y-70738094D01*
X137133390Y-70738094D02*
X137085771Y-70642856D01*
X137085771Y-70642856D02*
X137085771Y-70404761D01*
X137085771Y-70404761D02*
X137133390Y-70309523D01*
X137133390Y-70309523D02*
X137181009Y-70261904D01*
X137181009Y-70261904D02*
X137276247Y-70214285D01*
X137276247Y-70214285D02*
X137514342Y-70214285D01*
X137514342Y-70214285D02*
X137609580Y-70261904D01*
X137609580Y-70261904D02*
X137657200Y-70309523D01*
X137657200Y-70309523D02*
X137704819Y-70404761D01*
X137704819Y-70404761D02*
X137704819Y-70642856D01*
X137704819Y-70642856D02*
X137657200Y-70738094D01*
X137657200Y-70738094D02*
X137609580Y-70785713D01*
X146504819Y-77079166D02*
X146028628Y-77412499D01*
X146504819Y-77650594D02*
X145504819Y-77650594D01*
X145504819Y-77650594D02*
X145504819Y-77269642D01*
X145504819Y-77269642D02*
X145552438Y-77174404D01*
X145552438Y-77174404D02*
X145600057Y-77126785D01*
X145600057Y-77126785D02*
X145695295Y-77079166D01*
X145695295Y-77079166D02*
X145838152Y-77079166D01*
X145838152Y-77079166D02*
X145933390Y-77126785D01*
X145933390Y-77126785D02*
X145981009Y-77174404D01*
X145981009Y-77174404D02*
X146028628Y-77269642D01*
X146028628Y-77269642D02*
X146028628Y-77650594D01*
X145838152Y-76222023D02*
X146504819Y-76222023D01*
X145457200Y-76460118D02*
X146171485Y-76698213D01*
X146171485Y-76698213D02*
X146171485Y-76079166D01*
X142204819Y-90838094D02*
X141204819Y-90838094D01*
X141204819Y-90838094D02*
X141204819Y-90599999D01*
X141204819Y-90599999D02*
X141252438Y-90457142D01*
X141252438Y-90457142D02*
X141347676Y-90361904D01*
X141347676Y-90361904D02*
X141442914Y-90314285D01*
X141442914Y-90314285D02*
X141633390Y-90266666D01*
X141633390Y-90266666D02*
X141776247Y-90266666D01*
X141776247Y-90266666D02*
X141966723Y-90314285D01*
X141966723Y-90314285D02*
X142061961Y-90361904D01*
X142061961Y-90361904D02*
X142157200Y-90457142D01*
X142157200Y-90457142D02*
X142204819Y-90599999D01*
X142204819Y-90599999D02*
X142204819Y-90838094D01*
X141204819Y-89361904D02*
X141204819Y-89838094D01*
X141204819Y-89838094D02*
X141681009Y-89885713D01*
X141681009Y-89885713D02*
X141633390Y-89838094D01*
X141633390Y-89838094D02*
X141585771Y-89742856D01*
X141585771Y-89742856D02*
X141585771Y-89504761D01*
X141585771Y-89504761D02*
X141633390Y-89409523D01*
X141633390Y-89409523D02*
X141681009Y-89361904D01*
X141681009Y-89361904D02*
X141776247Y-89314285D01*
X141776247Y-89314285D02*
X142014342Y-89314285D01*
X142014342Y-89314285D02*
X142109580Y-89361904D01*
X142109580Y-89361904D02*
X142157200Y-89409523D01*
X142157200Y-89409523D02*
X142204819Y-89504761D01*
X142204819Y-89504761D02*
X142204819Y-89742856D01*
X142204819Y-89742856D02*
X142157200Y-89838094D01*
X142157200Y-89838094D02*
X142109580Y-89885713D01*
X128004819Y-95579166D02*
X127528628Y-95912499D01*
X128004819Y-96150594D02*
X127004819Y-96150594D01*
X127004819Y-96150594D02*
X127004819Y-95769642D01*
X127004819Y-95769642D02*
X127052438Y-95674404D01*
X127052438Y-95674404D02*
X127100057Y-95626785D01*
X127100057Y-95626785D02*
X127195295Y-95579166D01*
X127195295Y-95579166D02*
X127338152Y-95579166D01*
X127338152Y-95579166D02*
X127433390Y-95626785D01*
X127433390Y-95626785D02*
X127481009Y-95674404D01*
X127481009Y-95674404D02*
X127528628Y-95769642D01*
X127528628Y-95769642D02*
X127528628Y-96150594D01*
X127004819Y-94722023D02*
X127004819Y-94912499D01*
X127004819Y-94912499D02*
X127052438Y-95007737D01*
X127052438Y-95007737D02*
X127100057Y-95055356D01*
X127100057Y-95055356D02*
X127242914Y-95150594D01*
X127242914Y-95150594D02*
X127433390Y-95198213D01*
X127433390Y-95198213D02*
X127814342Y-95198213D01*
X127814342Y-95198213D02*
X127909580Y-95150594D01*
X127909580Y-95150594D02*
X127957200Y-95102975D01*
X127957200Y-95102975D02*
X128004819Y-95007737D01*
X128004819Y-95007737D02*
X128004819Y-94817261D01*
X128004819Y-94817261D02*
X127957200Y-94722023D01*
X127957200Y-94722023D02*
X127909580Y-94674404D01*
X127909580Y-94674404D02*
X127814342Y-94626785D01*
X127814342Y-94626785D02*
X127576247Y-94626785D01*
X127576247Y-94626785D02*
X127481009Y-94674404D01*
X127481009Y-94674404D02*
X127433390Y-94722023D01*
X127433390Y-94722023D02*
X127385771Y-94817261D01*
X127385771Y-94817261D02*
X127385771Y-95007737D01*
X127385771Y-95007737D02*
X127433390Y-95102975D01*
X127433390Y-95102975D02*
X127481009Y-95150594D01*
X127481009Y-95150594D02*
X127576247Y-95198213D01*
X165004819Y-77079166D02*
X164528628Y-77412499D01*
X165004819Y-77650594D02*
X164004819Y-77650594D01*
X164004819Y-77650594D02*
X164004819Y-77269642D01*
X164004819Y-77269642D02*
X164052438Y-77174404D01*
X164052438Y-77174404D02*
X164100057Y-77126785D01*
X164100057Y-77126785D02*
X164195295Y-77079166D01*
X164195295Y-77079166D02*
X164338152Y-77079166D01*
X164338152Y-77079166D02*
X164433390Y-77126785D01*
X164433390Y-77126785D02*
X164481009Y-77174404D01*
X164481009Y-77174404D02*
X164528628Y-77269642D01*
X164528628Y-77269642D02*
X164528628Y-77650594D01*
X164004819Y-76174404D02*
X164004819Y-76650594D01*
X164004819Y-76650594D02*
X164481009Y-76698213D01*
X164481009Y-76698213D02*
X164433390Y-76650594D01*
X164433390Y-76650594D02*
X164385771Y-76555356D01*
X164385771Y-76555356D02*
X164385771Y-76317261D01*
X164385771Y-76317261D02*
X164433390Y-76222023D01*
X164433390Y-76222023D02*
X164481009Y-76174404D01*
X164481009Y-76174404D02*
X164576247Y-76126785D01*
X164576247Y-76126785D02*
X164814342Y-76126785D01*
X164814342Y-76126785D02*
X164909580Y-76174404D01*
X164909580Y-76174404D02*
X164957200Y-76222023D01*
X164957200Y-76222023D02*
X165004819Y-76317261D01*
X165004819Y-76317261D02*
X165004819Y-76555356D01*
X165004819Y-76555356D02*
X164957200Y-76650594D01*
X164957200Y-76650594D02*
X164909580Y-76698213D01*
X137609580Y-108892857D02*
X137657200Y-108940476D01*
X137657200Y-108940476D02*
X137704819Y-109083333D01*
X137704819Y-109083333D02*
X137704819Y-109178571D01*
X137704819Y-109178571D02*
X137657200Y-109321428D01*
X137657200Y-109321428D02*
X137561961Y-109416666D01*
X137561961Y-109416666D02*
X137466723Y-109464285D01*
X137466723Y-109464285D02*
X137276247Y-109511904D01*
X137276247Y-109511904D02*
X137133390Y-109511904D01*
X137133390Y-109511904D02*
X136942914Y-109464285D01*
X136942914Y-109464285D02*
X136847676Y-109416666D01*
X136847676Y-109416666D02*
X136752438Y-109321428D01*
X136752438Y-109321428D02*
X136704819Y-109178571D01*
X136704819Y-109178571D02*
X136704819Y-109083333D01*
X136704819Y-109083333D02*
X136752438Y-108940476D01*
X136752438Y-108940476D02*
X136800057Y-108892857D01*
X137704819Y-107940476D02*
X137704819Y-108511904D01*
X137704819Y-108226190D02*
X136704819Y-108226190D01*
X136704819Y-108226190D02*
X136847676Y-108321428D01*
X136847676Y-108321428D02*
X136942914Y-108416666D01*
X136942914Y-108416666D02*
X136990533Y-108511904D01*
X137704819Y-106988095D02*
X137704819Y-107559523D01*
X137704819Y-107273809D02*
X136704819Y-107273809D01*
X136704819Y-107273809D02*
X136847676Y-107369047D01*
X136847676Y-107369047D02*
X136942914Y-107464285D01*
X136942914Y-107464285D02*
X136990533Y-107559523D01*
X105939580Y-109892857D02*
X105987200Y-109940476D01*
X105987200Y-109940476D02*
X106034819Y-110083333D01*
X106034819Y-110083333D02*
X106034819Y-110178571D01*
X106034819Y-110178571D02*
X105987200Y-110321428D01*
X105987200Y-110321428D02*
X105891961Y-110416666D01*
X105891961Y-110416666D02*
X105796723Y-110464285D01*
X105796723Y-110464285D02*
X105606247Y-110511904D01*
X105606247Y-110511904D02*
X105463390Y-110511904D01*
X105463390Y-110511904D02*
X105272914Y-110464285D01*
X105272914Y-110464285D02*
X105177676Y-110416666D01*
X105177676Y-110416666D02*
X105082438Y-110321428D01*
X105082438Y-110321428D02*
X105034819Y-110178571D01*
X105034819Y-110178571D02*
X105034819Y-110083333D01*
X105034819Y-110083333D02*
X105082438Y-109940476D01*
X105082438Y-109940476D02*
X105130057Y-109892857D01*
X106034819Y-108940476D02*
X106034819Y-109511904D01*
X106034819Y-109226190D02*
X105034819Y-109226190D01*
X105034819Y-109226190D02*
X105177676Y-109321428D01*
X105177676Y-109321428D02*
X105272914Y-109416666D01*
X105272914Y-109416666D02*
X105320533Y-109511904D01*
X105034819Y-108607142D02*
X105034819Y-107988095D01*
X105034819Y-107988095D02*
X105415771Y-108321428D01*
X105415771Y-108321428D02*
X105415771Y-108178571D01*
X105415771Y-108178571D02*
X105463390Y-108083333D01*
X105463390Y-108083333D02*
X105511009Y-108035714D01*
X105511009Y-108035714D02*
X105606247Y-107988095D01*
X105606247Y-107988095D02*
X105844342Y-107988095D01*
X105844342Y-107988095D02*
X105939580Y-108035714D01*
X105939580Y-108035714D02*
X105987200Y-108083333D01*
X105987200Y-108083333D02*
X106034819Y-108178571D01*
X106034819Y-108178571D02*
X106034819Y-108464285D01*
X106034819Y-108464285D02*
X105987200Y-108559523D01*
X105987200Y-108559523D02*
X105939580Y-108607142D01*
X146504819Y-114892857D02*
X146028628Y-115226190D01*
X146504819Y-115464285D02*
X145504819Y-115464285D01*
X145504819Y-115464285D02*
X145504819Y-115083333D01*
X145504819Y-115083333D02*
X145552438Y-114988095D01*
X145552438Y-114988095D02*
X145600057Y-114940476D01*
X145600057Y-114940476D02*
X145695295Y-114892857D01*
X145695295Y-114892857D02*
X145838152Y-114892857D01*
X145838152Y-114892857D02*
X145933390Y-114940476D01*
X145933390Y-114940476D02*
X145981009Y-114988095D01*
X145981009Y-114988095D02*
X146028628Y-115083333D01*
X146028628Y-115083333D02*
X146028628Y-115464285D01*
X146504819Y-113940476D02*
X146504819Y-114511904D01*
X146504819Y-114226190D02*
X145504819Y-114226190D01*
X145504819Y-114226190D02*
X145647676Y-114321428D01*
X145647676Y-114321428D02*
X145742914Y-114416666D01*
X145742914Y-114416666D02*
X145790533Y-114511904D01*
X145504819Y-113321428D02*
X145504819Y-113226190D01*
X145504819Y-113226190D02*
X145552438Y-113130952D01*
X145552438Y-113130952D02*
X145600057Y-113083333D01*
X145600057Y-113083333D02*
X145695295Y-113035714D01*
X145695295Y-113035714D02*
X145885771Y-112988095D01*
X145885771Y-112988095D02*
X146123866Y-112988095D01*
X146123866Y-112988095D02*
X146314342Y-113035714D01*
X146314342Y-113035714D02*
X146409580Y-113083333D01*
X146409580Y-113083333D02*
X146457200Y-113130952D01*
X146457200Y-113130952D02*
X146504819Y-113226190D01*
X146504819Y-113226190D02*
X146504819Y-113321428D01*
X146504819Y-113321428D02*
X146457200Y-113416666D01*
X146457200Y-113416666D02*
X146409580Y-113464285D01*
X146409580Y-113464285D02*
X146314342Y-113511904D01*
X146314342Y-113511904D02*
X146123866Y-113559523D01*
X146123866Y-113559523D02*
X145885771Y-113559523D01*
X145885771Y-113559523D02*
X145695295Y-113511904D01*
X145695295Y-113511904D02*
X145600057Y-113464285D01*
X145600057Y-113464285D02*
X145552438Y-113416666D01*
X145552438Y-113416666D02*
X145504819Y-113321428D01*
X156189580Y-89916666D02*
X156237200Y-89964285D01*
X156237200Y-89964285D02*
X156284819Y-90107142D01*
X156284819Y-90107142D02*
X156284819Y-90202380D01*
X156284819Y-90202380D02*
X156237200Y-90345237D01*
X156237200Y-90345237D02*
X156141961Y-90440475D01*
X156141961Y-90440475D02*
X156046723Y-90488094D01*
X156046723Y-90488094D02*
X155856247Y-90535713D01*
X155856247Y-90535713D02*
X155713390Y-90535713D01*
X155713390Y-90535713D02*
X155522914Y-90488094D01*
X155522914Y-90488094D02*
X155427676Y-90440475D01*
X155427676Y-90440475D02*
X155332438Y-90345237D01*
X155332438Y-90345237D02*
X155284819Y-90202380D01*
X155284819Y-90202380D02*
X155284819Y-90107142D01*
X155284819Y-90107142D02*
X155332438Y-89964285D01*
X155332438Y-89964285D02*
X155380057Y-89916666D01*
X155284819Y-89583332D02*
X155284819Y-88916666D01*
X155284819Y-88916666D02*
X156284819Y-89345237D01*
X146504819Y-95579166D02*
X146028628Y-95912499D01*
X146504819Y-96150594D02*
X145504819Y-96150594D01*
X145504819Y-96150594D02*
X145504819Y-95769642D01*
X145504819Y-95769642D02*
X145552438Y-95674404D01*
X145552438Y-95674404D02*
X145600057Y-95626785D01*
X145600057Y-95626785D02*
X145695295Y-95579166D01*
X145695295Y-95579166D02*
X145838152Y-95579166D01*
X145838152Y-95579166D02*
X145933390Y-95626785D01*
X145933390Y-95626785D02*
X145981009Y-95674404D01*
X145981009Y-95674404D02*
X146028628Y-95769642D01*
X146028628Y-95769642D02*
X146028628Y-96150594D01*
X145504819Y-95245832D02*
X145504819Y-94579166D01*
X145504819Y-94579166D02*
X146504819Y-95007737D01*
X165004819Y-114892857D02*
X164528628Y-115226190D01*
X165004819Y-115464285D02*
X164004819Y-115464285D01*
X164004819Y-115464285D02*
X164004819Y-115083333D01*
X164004819Y-115083333D02*
X164052438Y-114988095D01*
X164052438Y-114988095D02*
X164100057Y-114940476D01*
X164100057Y-114940476D02*
X164195295Y-114892857D01*
X164195295Y-114892857D02*
X164338152Y-114892857D01*
X164338152Y-114892857D02*
X164433390Y-114940476D01*
X164433390Y-114940476D02*
X164481009Y-114988095D01*
X164481009Y-114988095D02*
X164528628Y-115083333D01*
X164528628Y-115083333D02*
X164528628Y-115464285D01*
X165004819Y-113940476D02*
X165004819Y-114511904D01*
X165004819Y-114226190D02*
X164004819Y-114226190D01*
X164004819Y-114226190D02*
X164147676Y-114321428D01*
X164147676Y-114321428D02*
X164242914Y-114416666D01*
X164242914Y-114416666D02*
X164290533Y-114511904D01*
X165004819Y-112988095D02*
X165004819Y-113559523D01*
X165004819Y-113273809D02*
X164004819Y-113273809D01*
X164004819Y-113273809D02*
X164147676Y-113369047D01*
X164147676Y-113369047D02*
X164242914Y-113464285D01*
X164242914Y-113464285D02*
X164290533Y-113559523D01*
X160954819Y-109588094D02*
X159954819Y-109588094D01*
X159954819Y-109588094D02*
X159954819Y-109349999D01*
X159954819Y-109349999D02*
X160002438Y-109207142D01*
X160002438Y-109207142D02*
X160097676Y-109111904D01*
X160097676Y-109111904D02*
X160192914Y-109064285D01*
X160192914Y-109064285D02*
X160383390Y-109016666D01*
X160383390Y-109016666D02*
X160526247Y-109016666D01*
X160526247Y-109016666D02*
X160716723Y-109064285D01*
X160716723Y-109064285D02*
X160811961Y-109111904D01*
X160811961Y-109111904D02*
X160907200Y-109207142D01*
X160907200Y-109207142D02*
X160954819Y-109349999D01*
X160954819Y-109349999D02*
X160954819Y-109588094D01*
X160954819Y-108540475D02*
X160954819Y-108349999D01*
X160954819Y-108349999D02*
X160907200Y-108254761D01*
X160907200Y-108254761D02*
X160859580Y-108207142D01*
X160859580Y-108207142D02*
X160716723Y-108111904D01*
X160716723Y-108111904D02*
X160526247Y-108064285D01*
X160526247Y-108064285D02*
X160145295Y-108064285D01*
X160145295Y-108064285D02*
X160050057Y-108111904D01*
X160050057Y-108111904D02*
X160002438Y-108159523D01*
X160002438Y-108159523D02*
X159954819Y-108254761D01*
X159954819Y-108254761D02*
X159954819Y-108445237D01*
X159954819Y-108445237D02*
X160002438Y-108540475D01*
X160002438Y-108540475D02*
X160050057Y-108588094D01*
X160050057Y-108588094D02*
X160145295Y-108635713D01*
X160145295Y-108635713D02*
X160383390Y-108635713D01*
X160383390Y-108635713D02*
X160478628Y-108588094D01*
X160478628Y-108588094D02*
X160526247Y-108540475D01*
X160526247Y-108540475D02*
X160573866Y-108445237D01*
X160573866Y-108445237D02*
X160573866Y-108254761D01*
X160573866Y-108254761D02*
X160526247Y-108159523D01*
X160526247Y-108159523D02*
X160478628Y-108111904D01*
X160478628Y-108111904D02*
X160383390Y-108064285D01*
X123954819Y-109588094D02*
X122954819Y-109588094D01*
X122954819Y-109588094D02*
X122954819Y-109349999D01*
X122954819Y-109349999D02*
X123002438Y-109207142D01*
X123002438Y-109207142D02*
X123097676Y-109111904D01*
X123097676Y-109111904D02*
X123192914Y-109064285D01*
X123192914Y-109064285D02*
X123383390Y-109016666D01*
X123383390Y-109016666D02*
X123526247Y-109016666D01*
X123526247Y-109016666D02*
X123716723Y-109064285D01*
X123716723Y-109064285D02*
X123811961Y-109111904D01*
X123811961Y-109111904D02*
X123907200Y-109207142D01*
X123907200Y-109207142D02*
X123954819Y-109349999D01*
X123954819Y-109349999D02*
X123954819Y-109588094D01*
X122954819Y-108683332D02*
X122954819Y-108016666D01*
X122954819Y-108016666D02*
X123954819Y-108445237D01*
X160954819Y-72338094D02*
X159954819Y-72338094D01*
X159954819Y-72338094D02*
X159954819Y-72099999D01*
X159954819Y-72099999D02*
X160002438Y-71957142D01*
X160002438Y-71957142D02*
X160097676Y-71861904D01*
X160097676Y-71861904D02*
X160192914Y-71814285D01*
X160192914Y-71814285D02*
X160383390Y-71766666D01*
X160383390Y-71766666D02*
X160526247Y-71766666D01*
X160526247Y-71766666D02*
X160716723Y-71814285D01*
X160716723Y-71814285D02*
X160811961Y-71861904D01*
X160811961Y-71861904D02*
X160907200Y-71957142D01*
X160907200Y-71957142D02*
X160954819Y-72099999D01*
X160954819Y-72099999D02*
X160954819Y-72338094D01*
X159954819Y-71433332D02*
X159954819Y-70814285D01*
X159954819Y-70814285D02*
X160335771Y-71147618D01*
X160335771Y-71147618D02*
X160335771Y-71004761D01*
X160335771Y-71004761D02*
X160383390Y-70909523D01*
X160383390Y-70909523D02*
X160431009Y-70861904D01*
X160431009Y-70861904D02*
X160526247Y-70814285D01*
X160526247Y-70814285D02*
X160764342Y-70814285D01*
X160764342Y-70814285D02*
X160859580Y-70861904D01*
X160859580Y-70861904D02*
X160907200Y-70909523D01*
X160907200Y-70909523D02*
X160954819Y-71004761D01*
X160954819Y-71004761D02*
X160954819Y-71290475D01*
X160954819Y-71290475D02*
X160907200Y-71385713D01*
X160907200Y-71385713D02*
X160859580Y-71433332D01*
X156189580Y-71166666D02*
X156237200Y-71214285D01*
X156237200Y-71214285D02*
X156284819Y-71357142D01*
X156284819Y-71357142D02*
X156284819Y-71452380D01*
X156284819Y-71452380D02*
X156237200Y-71595237D01*
X156237200Y-71595237D02*
X156141961Y-71690475D01*
X156141961Y-71690475D02*
X156046723Y-71738094D01*
X156046723Y-71738094D02*
X155856247Y-71785713D01*
X155856247Y-71785713D02*
X155713390Y-71785713D01*
X155713390Y-71785713D02*
X155522914Y-71738094D01*
X155522914Y-71738094D02*
X155427676Y-71690475D01*
X155427676Y-71690475D02*
X155332438Y-71595237D01*
X155332438Y-71595237D02*
X155284819Y-71452380D01*
X155284819Y-71452380D02*
X155284819Y-71357142D01*
X155284819Y-71357142D02*
X155332438Y-71214285D01*
X155332438Y-71214285D02*
X155380057Y-71166666D01*
X155618152Y-70309523D02*
X156284819Y-70309523D01*
X155237200Y-70547618D02*
X155951485Y-70785713D01*
X155951485Y-70785713D02*
X155951485Y-70166666D01*
X111033333Y-84429580D02*
X110985714Y-84477200D01*
X110985714Y-84477200D02*
X110842857Y-84524819D01*
X110842857Y-84524819D02*
X110747619Y-84524819D01*
X110747619Y-84524819D02*
X110604762Y-84477200D01*
X110604762Y-84477200D02*
X110509524Y-84381961D01*
X110509524Y-84381961D02*
X110461905Y-84286723D01*
X110461905Y-84286723D02*
X110414286Y-84096247D01*
X110414286Y-84096247D02*
X110414286Y-83953390D01*
X110414286Y-83953390D02*
X110461905Y-83762914D01*
X110461905Y-83762914D02*
X110509524Y-83667676D01*
X110509524Y-83667676D02*
X110604762Y-83572438D01*
X110604762Y-83572438D02*
X110747619Y-83524819D01*
X110747619Y-83524819D02*
X110842857Y-83524819D01*
X110842857Y-83524819D02*
X110985714Y-83572438D01*
X110985714Y-83572438D02*
X111033333Y-83620057D01*
X111985714Y-84524819D02*
X111414286Y-84524819D01*
X111700000Y-84524819D02*
X111700000Y-83524819D01*
X111700000Y-83524819D02*
X111604762Y-83667676D01*
X111604762Y-83667676D02*
X111509524Y-83762914D01*
X111509524Y-83762914D02*
X111414286Y-83810533D01*
X128004819Y-114329166D02*
X127528628Y-114662499D01*
X128004819Y-114900594D02*
X127004819Y-114900594D01*
X127004819Y-114900594D02*
X127004819Y-114519642D01*
X127004819Y-114519642D02*
X127052438Y-114424404D01*
X127052438Y-114424404D02*
X127100057Y-114376785D01*
X127100057Y-114376785D02*
X127195295Y-114329166D01*
X127195295Y-114329166D02*
X127338152Y-114329166D01*
X127338152Y-114329166D02*
X127433390Y-114376785D01*
X127433390Y-114376785D02*
X127481009Y-114424404D01*
X127481009Y-114424404D02*
X127528628Y-114519642D01*
X127528628Y-114519642D02*
X127528628Y-114900594D01*
X128004819Y-113852975D02*
X128004819Y-113662499D01*
X128004819Y-113662499D02*
X127957200Y-113567261D01*
X127957200Y-113567261D02*
X127909580Y-113519642D01*
X127909580Y-113519642D02*
X127766723Y-113424404D01*
X127766723Y-113424404D02*
X127576247Y-113376785D01*
X127576247Y-113376785D02*
X127195295Y-113376785D01*
X127195295Y-113376785D02*
X127100057Y-113424404D01*
X127100057Y-113424404D02*
X127052438Y-113472023D01*
X127052438Y-113472023D02*
X127004819Y-113567261D01*
X127004819Y-113567261D02*
X127004819Y-113757737D01*
X127004819Y-113757737D02*
X127052438Y-113852975D01*
X127052438Y-113852975D02*
X127100057Y-113900594D01*
X127100057Y-113900594D02*
X127195295Y-113948213D01*
X127195295Y-113948213D02*
X127433390Y-113948213D01*
X127433390Y-113948213D02*
X127528628Y-113900594D01*
X127528628Y-113900594D02*
X127576247Y-113852975D01*
X127576247Y-113852975D02*
X127623866Y-113757737D01*
X127623866Y-113757737D02*
X127623866Y-113567261D01*
X127623866Y-113567261D02*
X127576247Y-113472023D01*
X127576247Y-113472023D02*
X127528628Y-113424404D01*
X127528628Y-113424404D02*
X127433390Y-113376785D01*
X142454819Y-72338094D02*
X141454819Y-72338094D01*
X141454819Y-72338094D02*
X141454819Y-72099999D01*
X141454819Y-72099999D02*
X141502438Y-71957142D01*
X141502438Y-71957142D02*
X141597676Y-71861904D01*
X141597676Y-71861904D02*
X141692914Y-71814285D01*
X141692914Y-71814285D02*
X141883390Y-71766666D01*
X141883390Y-71766666D02*
X142026247Y-71766666D01*
X142026247Y-71766666D02*
X142216723Y-71814285D01*
X142216723Y-71814285D02*
X142311961Y-71861904D01*
X142311961Y-71861904D02*
X142407200Y-71957142D01*
X142407200Y-71957142D02*
X142454819Y-72099999D01*
X142454819Y-72099999D02*
X142454819Y-72338094D01*
X141550057Y-71385713D02*
X141502438Y-71338094D01*
X141502438Y-71338094D02*
X141454819Y-71242856D01*
X141454819Y-71242856D02*
X141454819Y-71004761D01*
X141454819Y-71004761D02*
X141502438Y-70909523D01*
X141502438Y-70909523D02*
X141550057Y-70861904D01*
X141550057Y-70861904D02*
X141645295Y-70814285D01*
X141645295Y-70814285D02*
X141740533Y-70814285D01*
X141740533Y-70814285D02*
X141883390Y-70861904D01*
X141883390Y-70861904D02*
X142454819Y-71433332D01*
X142454819Y-71433332D02*
X142454819Y-70814285D01*
X110638095Y-112888152D02*
X110638095Y-113697675D01*
X110638095Y-113697675D02*
X110685714Y-113792913D01*
X110685714Y-113792913D02*
X110733333Y-113840533D01*
X110733333Y-113840533D02*
X110828571Y-113888152D01*
X110828571Y-113888152D02*
X111019047Y-113888152D01*
X111019047Y-113888152D02*
X111114285Y-113840533D01*
X111114285Y-113840533D02*
X111161904Y-113792913D01*
X111161904Y-113792913D02*
X111209523Y-113697675D01*
X111209523Y-113697675D02*
X111209523Y-112888152D01*
X111638095Y-112983390D02*
X111685714Y-112935771D01*
X111685714Y-112935771D02*
X111780952Y-112888152D01*
X111780952Y-112888152D02*
X112019047Y-112888152D01*
X112019047Y-112888152D02*
X112114285Y-112935771D01*
X112114285Y-112935771D02*
X112161904Y-112983390D01*
X112161904Y-112983390D02*
X112209523Y-113078628D01*
X112209523Y-113078628D02*
X112209523Y-113173866D01*
X112209523Y-113173866D02*
X112161904Y-113316723D01*
X112161904Y-113316723D02*
X111590476Y-113888152D01*
X111590476Y-113888152D02*
X112209523Y-113888152D01*
X156189580Y-108892857D02*
X156237200Y-108940476D01*
X156237200Y-108940476D02*
X156284819Y-109083333D01*
X156284819Y-109083333D02*
X156284819Y-109178571D01*
X156284819Y-109178571D02*
X156237200Y-109321428D01*
X156237200Y-109321428D02*
X156141961Y-109416666D01*
X156141961Y-109416666D02*
X156046723Y-109464285D01*
X156046723Y-109464285D02*
X155856247Y-109511904D01*
X155856247Y-109511904D02*
X155713390Y-109511904D01*
X155713390Y-109511904D02*
X155522914Y-109464285D01*
X155522914Y-109464285D02*
X155427676Y-109416666D01*
X155427676Y-109416666D02*
X155332438Y-109321428D01*
X155332438Y-109321428D02*
X155284819Y-109178571D01*
X155284819Y-109178571D02*
X155284819Y-109083333D01*
X155284819Y-109083333D02*
X155332438Y-108940476D01*
X155332438Y-108940476D02*
X155380057Y-108892857D01*
X156284819Y-107940476D02*
X156284819Y-108511904D01*
X156284819Y-108226190D02*
X155284819Y-108226190D01*
X155284819Y-108226190D02*
X155427676Y-108321428D01*
X155427676Y-108321428D02*
X155522914Y-108416666D01*
X155522914Y-108416666D02*
X155570533Y-108511904D01*
X155284819Y-107321428D02*
X155284819Y-107226190D01*
X155284819Y-107226190D02*
X155332438Y-107130952D01*
X155332438Y-107130952D02*
X155380057Y-107083333D01*
X155380057Y-107083333D02*
X155475295Y-107035714D01*
X155475295Y-107035714D02*
X155665771Y-106988095D01*
X155665771Y-106988095D02*
X155903866Y-106988095D01*
X155903866Y-106988095D02*
X156094342Y-107035714D01*
X156094342Y-107035714D02*
X156189580Y-107083333D01*
X156189580Y-107083333D02*
X156237200Y-107130952D01*
X156237200Y-107130952D02*
X156284819Y-107226190D01*
X156284819Y-107226190D02*
X156284819Y-107321428D01*
X156284819Y-107321428D02*
X156237200Y-107416666D01*
X156237200Y-107416666D02*
X156189580Y-107464285D01*
X156189580Y-107464285D02*
X156094342Y-107511904D01*
X156094342Y-107511904D02*
X155903866Y-107559523D01*
X155903866Y-107559523D02*
X155665771Y-107559523D01*
X155665771Y-107559523D02*
X155475295Y-107511904D01*
X155475295Y-107511904D02*
X155380057Y-107464285D01*
X155380057Y-107464285D02*
X155332438Y-107416666D01*
X155332438Y-107416666D02*
X155284819Y-107321428D01*
X110983333Y-80929580D02*
X110935714Y-80977200D01*
X110935714Y-80977200D02*
X110792857Y-81024819D01*
X110792857Y-81024819D02*
X110697619Y-81024819D01*
X110697619Y-81024819D02*
X110554762Y-80977200D01*
X110554762Y-80977200D02*
X110459524Y-80881961D01*
X110459524Y-80881961D02*
X110411905Y-80786723D01*
X110411905Y-80786723D02*
X110364286Y-80596247D01*
X110364286Y-80596247D02*
X110364286Y-80453390D01*
X110364286Y-80453390D02*
X110411905Y-80262914D01*
X110411905Y-80262914D02*
X110459524Y-80167676D01*
X110459524Y-80167676D02*
X110554762Y-80072438D01*
X110554762Y-80072438D02*
X110697619Y-80024819D01*
X110697619Y-80024819D02*
X110792857Y-80024819D01*
X110792857Y-80024819D02*
X110935714Y-80072438D01*
X110935714Y-80072438D02*
X110983333Y-80120057D01*
X111364286Y-80120057D02*
X111411905Y-80072438D01*
X111411905Y-80072438D02*
X111507143Y-80024819D01*
X111507143Y-80024819D02*
X111745238Y-80024819D01*
X111745238Y-80024819D02*
X111840476Y-80072438D01*
X111840476Y-80072438D02*
X111888095Y-80120057D01*
X111888095Y-80120057D02*
X111935714Y-80215295D01*
X111935714Y-80215295D02*
X111935714Y-80310533D01*
X111935714Y-80310533D02*
X111888095Y-80453390D01*
X111888095Y-80453390D02*
X111316667Y-81024819D01*
X111316667Y-81024819D02*
X111935714Y-81024819D01*
X128004819Y-77079166D02*
X127528628Y-77412499D01*
X128004819Y-77650594D02*
X127004819Y-77650594D01*
X127004819Y-77650594D02*
X127004819Y-77269642D01*
X127004819Y-77269642D02*
X127052438Y-77174404D01*
X127052438Y-77174404D02*
X127100057Y-77126785D01*
X127100057Y-77126785D02*
X127195295Y-77079166D01*
X127195295Y-77079166D02*
X127338152Y-77079166D01*
X127338152Y-77079166D02*
X127433390Y-77126785D01*
X127433390Y-77126785D02*
X127481009Y-77174404D01*
X127481009Y-77174404D02*
X127528628Y-77269642D01*
X127528628Y-77269642D02*
X127528628Y-77650594D01*
X128004819Y-76126785D02*
X128004819Y-76698213D01*
X128004819Y-76412499D02*
X127004819Y-76412499D01*
X127004819Y-76412499D02*
X127147676Y-76507737D01*
X127147676Y-76507737D02*
X127242914Y-76602975D01*
X127242914Y-76602975D02*
X127290533Y-76698213D01*
X174689580Y-71166666D02*
X174737200Y-71214285D01*
X174737200Y-71214285D02*
X174784819Y-71357142D01*
X174784819Y-71357142D02*
X174784819Y-71452380D01*
X174784819Y-71452380D02*
X174737200Y-71595237D01*
X174737200Y-71595237D02*
X174641961Y-71690475D01*
X174641961Y-71690475D02*
X174546723Y-71738094D01*
X174546723Y-71738094D02*
X174356247Y-71785713D01*
X174356247Y-71785713D02*
X174213390Y-71785713D01*
X174213390Y-71785713D02*
X174022914Y-71738094D01*
X174022914Y-71738094D02*
X173927676Y-71690475D01*
X173927676Y-71690475D02*
X173832438Y-71595237D01*
X173832438Y-71595237D02*
X173784819Y-71452380D01*
X173784819Y-71452380D02*
X173784819Y-71357142D01*
X173784819Y-71357142D02*
X173832438Y-71214285D01*
X173832438Y-71214285D02*
X173880057Y-71166666D01*
X173784819Y-70833332D02*
X173784819Y-70214285D01*
X173784819Y-70214285D02*
X174165771Y-70547618D01*
X174165771Y-70547618D02*
X174165771Y-70404761D01*
X174165771Y-70404761D02*
X174213390Y-70309523D01*
X174213390Y-70309523D02*
X174261009Y-70261904D01*
X174261009Y-70261904D02*
X174356247Y-70214285D01*
X174356247Y-70214285D02*
X174594342Y-70214285D01*
X174594342Y-70214285D02*
X174689580Y-70261904D01*
X174689580Y-70261904D02*
X174737200Y-70309523D01*
X174737200Y-70309523D02*
X174784819Y-70404761D01*
X174784819Y-70404761D02*
X174784819Y-70690475D01*
X174784819Y-70690475D02*
X174737200Y-70785713D01*
X174737200Y-70785713D02*
X174689580Y-70833332D01*
X174689580Y-89916666D02*
X174737200Y-89964285D01*
X174737200Y-89964285D02*
X174784819Y-90107142D01*
X174784819Y-90107142D02*
X174784819Y-90202380D01*
X174784819Y-90202380D02*
X174737200Y-90345237D01*
X174737200Y-90345237D02*
X174641961Y-90440475D01*
X174641961Y-90440475D02*
X174546723Y-90488094D01*
X174546723Y-90488094D02*
X174356247Y-90535713D01*
X174356247Y-90535713D02*
X174213390Y-90535713D01*
X174213390Y-90535713D02*
X174022914Y-90488094D01*
X174022914Y-90488094D02*
X173927676Y-90440475D01*
X173927676Y-90440475D02*
X173832438Y-90345237D01*
X173832438Y-90345237D02*
X173784819Y-90202380D01*
X173784819Y-90202380D02*
X173784819Y-90107142D01*
X173784819Y-90107142D02*
X173832438Y-89964285D01*
X173832438Y-89964285D02*
X173880057Y-89916666D01*
X173784819Y-89059523D02*
X173784819Y-89249999D01*
X173784819Y-89249999D02*
X173832438Y-89345237D01*
X173832438Y-89345237D02*
X173880057Y-89392856D01*
X173880057Y-89392856D02*
X174022914Y-89488094D01*
X174022914Y-89488094D02*
X174213390Y-89535713D01*
X174213390Y-89535713D02*
X174594342Y-89535713D01*
X174594342Y-89535713D02*
X174689580Y-89488094D01*
X174689580Y-89488094D02*
X174737200Y-89440475D01*
X174737200Y-89440475D02*
X174784819Y-89345237D01*
X174784819Y-89345237D02*
X174784819Y-89154761D01*
X174784819Y-89154761D02*
X174737200Y-89059523D01*
X174737200Y-89059523D02*
X174689580Y-89011904D01*
X174689580Y-89011904D02*
X174594342Y-88964285D01*
X174594342Y-88964285D02*
X174356247Y-88964285D01*
X174356247Y-88964285D02*
X174261009Y-89011904D01*
X174261009Y-89011904D02*
X174213390Y-89059523D01*
X174213390Y-89059523D02*
X174165771Y-89154761D01*
X174165771Y-89154761D02*
X174165771Y-89345237D01*
X174165771Y-89345237D02*
X174213390Y-89440475D01*
X174213390Y-89440475D02*
X174261009Y-89488094D01*
X174261009Y-89488094D02*
X174356247Y-89535713D01*
X137609580Y-89916666D02*
X137657200Y-89964285D01*
X137657200Y-89964285D02*
X137704819Y-90107142D01*
X137704819Y-90107142D02*
X137704819Y-90202380D01*
X137704819Y-90202380D02*
X137657200Y-90345237D01*
X137657200Y-90345237D02*
X137561961Y-90440475D01*
X137561961Y-90440475D02*
X137466723Y-90488094D01*
X137466723Y-90488094D02*
X137276247Y-90535713D01*
X137276247Y-90535713D02*
X137133390Y-90535713D01*
X137133390Y-90535713D02*
X136942914Y-90488094D01*
X136942914Y-90488094D02*
X136847676Y-90440475D01*
X136847676Y-90440475D02*
X136752438Y-90345237D01*
X136752438Y-90345237D02*
X136704819Y-90202380D01*
X136704819Y-90202380D02*
X136704819Y-90107142D01*
X136704819Y-90107142D02*
X136752438Y-89964285D01*
X136752438Y-89964285D02*
X136800057Y-89916666D01*
X137133390Y-89345237D02*
X137085771Y-89440475D01*
X137085771Y-89440475D02*
X137038152Y-89488094D01*
X137038152Y-89488094D02*
X136942914Y-89535713D01*
X136942914Y-89535713D02*
X136895295Y-89535713D01*
X136895295Y-89535713D02*
X136800057Y-89488094D01*
X136800057Y-89488094D02*
X136752438Y-89440475D01*
X136752438Y-89440475D02*
X136704819Y-89345237D01*
X136704819Y-89345237D02*
X136704819Y-89154761D01*
X136704819Y-89154761D02*
X136752438Y-89059523D01*
X136752438Y-89059523D02*
X136800057Y-89011904D01*
X136800057Y-89011904D02*
X136895295Y-88964285D01*
X136895295Y-88964285D02*
X136942914Y-88964285D01*
X136942914Y-88964285D02*
X137038152Y-89011904D01*
X137038152Y-89011904D02*
X137085771Y-89059523D01*
X137085771Y-89059523D02*
X137133390Y-89154761D01*
X137133390Y-89154761D02*
X137133390Y-89345237D01*
X137133390Y-89345237D02*
X137181009Y-89440475D01*
X137181009Y-89440475D02*
X137228628Y-89488094D01*
X137228628Y-89488094D02*
X137323866Y-89535713D01*
X137323866Y-89535713D02*
X137514342Y-89535713D01*
X137514342Y-89535713D02*
X137609580Y-89488094D01*
X137609580Y-89488094D02*
X137657200Y-89440475D01*
X137657200Y-89440475D02*
X137704819Y-89345237D01*
X137704819Y-89345237D02*
X137704819Y-89154761D01*
X137704819Y-89154761D02*
X137657200Y-89059523D01*
X137657200Y-89059523D02*
X137609580Y-89011904D01*
X137609580Y-89011904D02*
X137514342Y-88964285D01*
X137514342Y-88964285D02*
X137323866Y-88964285D01*
X137323866Y-88964285D02*
X137228628Y-89011904D01*
X137228628Y-89011904D02*
X137181009Y-89059523D01*
X137181009Y-89059523D02*
X137133390Y-89154761D01*
X160954819Y-90838094D02*
X159954819Y-90838094D01*
X159954819Y-90838094D02*
X159954819Y-90599999D01*
X159954819Y-90599999D02*
X160002438Y-90457142D01*
X160002438Y-90457142D02*
X160097676Y-90361904D01*
X160097676Y-90361904D02*
X160192914Y-90314285D01*
X160192914Y-90314285D02*
X160383390Y-90266666D01*
X160383390Y-90266666D02*
X160526247Y-90266666D01*
X160526247Y-90266666D02*
X160716723Y-90314285D01*
X160716723Y-90314285D02*
X160811961Y-90361904D01*
X160811961Y-90361904D02*
X160907200Y-90457142D01*
X160907200Y-90457142D02*
X160954819Y-90599999D01*
X160954819Y-90599999D02*
X160954819Y-90838094D01*
X159954819Y-89409523D02*
X159954819Y-89599999D01*
X159954819Y-89599999D02*
X160002438Y-89695237D01*
X160002438Y-89695237D02*
X160050057Y-89742856D01*
X160050057Y-89742856D02*
X160192914Y-89838094D01*
X160192914Y-89838094D02*
X160383390Y-89885713D01*
X160383390Y-89885713D02*
X160764342Y-89885713D01*
X160764342Y-89885713D02*
X160859580Y-89838094D01*
X160859580Y-89838094D02*
X160907200Y-89790475D01*
X160907200Y-89790475D02*
X160954819Y-89695237D01*
X160954819Y-89695237D02*
X160954819Y-89504761D01*
X160954819Y-89504761D02*
X160907200Y-89409523D01*
X160907200Y-89409523D02*
X160859580Y-89361904D01*
X160859580Y-89361904D02*
X160764342Y-89314285D01*
X160764342Y-89314285D02*
X160526247Y-89314285D01*
X160526247Y-89314285D02*
X160431009Y-89361904D01*
X160431009Y-89361904D02*
X160383390Y-89409523D01*
X160383390Y-89409523D02*
X160335771Y-89504761D01*
X160335771Y-89504761D02*
X160335771Y-89695237D01*
X160335771Y-89695237D02*
X160383390Y-89790475D01*
X160383390Y-89790475D02*
X160431009Y-89838094D01*
X160431009Y-89838094D02*
X160526247Y-89885713D01*
X174689580Y-108416666D02*
X174737200Y-108464285D01*
X174737200Y-108464285D02*
X174784819Y-108607142D01*
X174784819Y-108607142D02*
X174784819Y-108702380D01*
X174784819Y-108702380D02*
X174737200Y-108845237D01*
X174737200Y-108845237D02*
X174641961Y-108940475D01*
X174641961Y-108940475D02*
X174546723Y-108988094D01*
X174546723Y-108988094D02*
X174356247Y-109035713D01*
X174356247Y-109035713D02*
X174213390Y-109035713D01*
X174213390Y-109035713D02*
X174022914Y-108988094D01*
X174022914Y-108988094D02*
X173927676Y-108940475D01*
X173927676Y-108940475D02*
X173832438Y-108845237D01*
X173832438Y-108845237D02*
X173784819Y-108702380D01*
X173784819Y-108702380D02*
X173784819Y-108607142D01*
X173784819Y-108607142D02*
X173832438Y-108464285D01*
X173832438Y-108464285D02*
X173880057Y-108416666D01*
X174784819Y-107940475D02*
X174784819Y-107749999D01*
X174784819Y-107749999D02*
X174737200Y-107654761D01*
X174737200Y-107654761D02*
X174689580Y-107607142D01*
X174689580Y-107607142D02*
X174546723Y-107511904D01*
X174546723Y-107511904D02*
X174356247Y-107464285D01*
X174356247Y-107464285D02*
X173975295Y-107464285D01*
X173975295Y-107464285D02*
X173880057Y-107511904D01*
X173880057Y-107511904D02*
X173832438Y-107559523D01*
X173832438Y-107559523D02*
X173784819Y-107654761D01*
X173784819Y-107654761D02*
X173784819Y-107845237D01*
X173784819Y-107845237D02*
X173832438Y-107940475D01*
X173832438Y-107940475D02*
X173880057Y-107988094D01*
X173880057Y-107988094D02*
X173975295Y-108035713D01*
X173975295Y-108035713D02*
X174213390Y-108035713D01*
X174213390Y-108035713D02*
X174308628Y-107988094D01*
X174308628Y-107988094D02*
X174356247Y-107940475D01*
X174356247Y-107940475D02*
X174403866Y-107845237D01*
X174403866Y-107845237D02*
X174403866Y-107654761D01*
X174403866Y-107654761D02*
X174356247Y-107559523D01*
X174356247Y-107559523D02*
X174308628Y-107511904D01*
X174308628Y-107511904D02*
X174213390Y-107464285D01*
X107807142Y-91854819D02*
X107473809Y-91378628D01*
X107235714Y-91854819D02*
X107235714Y-90854819D01*
X107235714Y-90854819D02*
X107616666Y-90854819D01*
X107616666Y-90854819D02*
X107711904Y-90902438D01*
X107711904Y-90902438D02*
X107759523Y-90950057D01*
X107759523Y-90950057D02*
X107807142Y-91045295D01*
X107807142Y-91045295D02*
X107807142Y-91188152D01*
X107807142Y-91188152D02*
X107759523Y-91283390D01*
X107759523Y-91283390D02*
X107711904Y-91331009D01*
X107711904Y-91331009D02*
X107616666Y-91378628D01*
X107616666Y-91378628D02*
X107235714Y-91378628D01*
X108759523Y-91854819D02*
X108188095Y-91854819D01*
X108473809Y-91854819D02*
X108473809Y-90854819D01*
X108473809Y-90854819D02*
X108378571Y-90997676D01*
X108378571Y-90997676D02*
X108283333Y-91092914D01*
X108283333Y-91092914D02*
X108188095Y-91140533D01*
X109140476Y-90950057D02*
X109188095Y-90902438D01*
X109188095Y-90902438D02*
X109283333Y-90854819D01*
X109283333Y-90854819D02*
X109521428Y-90854819D01*
X109521428Y-90854819D02*
X109616666Y-90902438D01*
X109616666Y-90902438D02*
X109664285Y-90950057D01*
X109664285Y-90950057D02*
X109711904Y-91045295D01*
X109711904Y-91045295D02*
X109711904Y-91140533D01*
X109711904Y-91140533D02*
X109664285Y-91283390D01*
X109664285Y-91283390D02*
X109092857Y-91854819D01*
X109092857Y-91854819D02*
X109711904Y-91854819D01*
X165004819Y-95579166D02*
X164528628Y-95912499D01*
X165004819Y-96150594D02*
X164004819Y-96150594D01*
X164004819Y-96150594D02*
X164004819Y-95769642D01*
X164004819Y-95769642D02*
X164052438Y-95674404D01*
X164052438Y-95674404D02*
X164100057Y-95626785D01*
X164100057Y-95626785D02*
X164195295Y-95579166D01*
X164195295Y-95579166D02*
X164338152Y-95579166D01*
X164338152Y-95579166D02*
X164433390Y-95626785D01*
X164433390Y-95626785D02*
X164481009Y-95674404D01*
X164481009Y-95674404D02*
X164528628Y-95769642D01*
X164528628Y-95769642D02*
X164528628Y-96150594D01*
X164433390Y-95007737D02*
X164385771Y-95102975D01*
X164385771Y-95102975D02*
X164338152Y-95150594D01*
X164338152Y-95150594D02*
X164242914Y-95198213D01*
X164242914Y-95198213D02*
X164195295Y-95198213D01*
X164195295Y-95198213D02*
X164100057Y-95150594D01*
X164100057Y-95150594D02*
X164052438Y-95102975D01*
X164052438Y-95102975D02*
X164004819Y-95007737D01*
X164004819Y-95007737D02*
X164004819Y-94817261D01*
X164004819Y-94817261D02*
X164052438Y-94722023D01*
X164052438Y-94722023D02*
X164100057Y-94674404D01*
X164100057Y-94674404D02*
X164195295Y-94626785D01*
X164195295Y-94626785D02*
X164242914Y-94626785D01*
X164242914Y-94626785D02*
X164338152Y-94674404D01*
X164338152Y-94674404D02*
X164385771Y-94722023D01*
X164385771Y-94722023D02*
X164433390Y-94817261D01*
X164433390Y-94817261D02*
X164433390Y-95007737D01*
X164433390Y-95007737D02*
X164481009Y-95102975D01*
X164481009Y-95102975D02*
X164528628Y-95150594D01*
X164528628Y-95150594D02*
X164623866Y-95198213D01*
X164623866Y-95198213D02*
X164814342Y-95198213D01*
X164814342Y-95198213D02*
X164909580Y-95150594D01*
X164909580Y-95150594D02*
X164957200Y-95102975D01*
X164957200Y-95102975D02*
X165004819Y-95007737D01*
X165004819Y-95007737D02*
X165004819Y-94817261D01*
X165004819Y-94817261D02*
X164957200Y-94722023D01*
X164957200Y-94722023D02*
X164909580Y-94674404D01*
X164909580Y-94674404D02*
X164814342Y-94626785D01*
X164814342Y-94626785D02*
X164623866Y-94626785D01*
X164623866Y-94626785D02*
X164528628Y-94674404D01*
X164528628Y-94674404D02*
X164481009Y-94722023D01*
X164481009Y-94722023D02*
X164433390Y-94817261D01*
X105689580Y-72142857D02*
X105737200Y-72190476D01*
X105737200Y-72190476D02*
X105784819Y-72333333D01*
X105784819Y-72333333D02*
X105784819Y-72428571D01*
X105784819Y-72428571D02*
X105737200Y-72571428D01*
X105737200Y-72571428D02*
X105641961Y-72666666D01*
X105641961Y-72666666D02*
X105546723Y-72714285D01*
X105546723Y-72714285D02*
X105356247Y-72761904D01*
X105356247Y-72761904D02*
X105213390Y-72761904D01*
X105213390Y-72761904D02*
X105022914Y-72714285D01*
X105022914Y-72714285D02*
X104927676Y-72666666D01*
X104927676Y-72666666D02*
X104832438Y-72571428D01*
X104832438Y-72571428D02*
X104784819Y-72428571D01*
X104784819Y-72428571D02*
X104784819Y-72333333D01*
X104784819Y-72333333D02*
X104832438Y-72190476D01*
X104832438Y-72190476D02*
X104880057Y-72142857D01*
X105784819Y-71190476D02*
X105784819Y-71761904D01*
X105784819Y-71476190D02*
X104784819Y-71476190D01*
X104784819Y-71476190D02*
X104927676Y-71571428D01*
X104927676Y-71571428D02*
X105022914Y-71666666D01*
X105022914Y-71666666D02*
X105070533Y-71761904D01*
X104880057Y-70809523D02*
X104832438Y-70761904D01*
X104832438Y-70761904D02*
X104784819Y-70666666D01*
X104784819Y-70666666D02*
X104784819Y-70428571D01*
X104784819Y-70428571D02*
X104832438Y-70333333D01*
X104832438Y-70333333D02*
X104880057Y-70285714D01*
X104880057Y-70285714D02*
X104975295Y-70238095D01*
X104975295Y-70238095D02*
X105070533Y-70238095D01*
X105070533Y-70238095D02*
X105213390Y-70285714D01*
X105213390Y-70285714D02*
X105784819Y-70857142D01*
X105784819Y-70857142D02*
X105784819Y-70238095D01*
X123954819Y-90863094D02*
X122954819Y-90863094D01*
X122954819Y-90863094D02*
X122954819Y-90624999D01*
X122954819Y-90624999D02*
X123002438Y-90482142D01*
X123002438Y-90482142D02*
X123097676Y-90386904D01*
X123097676Y-90386904D02*
X123192914Y-90339285D01*
X123192914Y-90339285D02*
X123383390Y-90291666D01*
X123383390Y-90291666D02*
X123526247Y-90291666D01*
X123526247Y-90291666D02*
X123716723Y-90339285D01*
X123716723Y-90339285D02*
X123811961Y-90386904D01*
X123811961Y-90386904D02*
X123907200Y-90482142D01*
X123907200Y-90482142D02*
X123954819Y-90624999D01*
X123954819Y-90624999D02*
X123954819Y-90863094D01*
X123288152Y-89434523D02*
X123954819Y-89434523D01*
X122907200Y-89672618D02*
X123621485Y-89910713D01*
X123621485Y-89910713D02*
X123621485Y-89291666D01*
X110638095Y-75221485D02*
X110638095Y-76031008D01*
X110638095Y-76031008D02*
X110685714Y-76126246D01*
X110685714Y-76126246D02*
X110733333Y-76173866D01*
X110733333Y-76173866D02*
X110828571Y-76221485D01*
X110828571Y-76221485D02*
X111019047Y-76221485D01*
X111019047Y-76221485D02*
X111114285Y-76173866D01*
X111114285Y-76173866D02*
X111161904Y-76126246D01*
X111161904Y-76126246D02*
X111209523Y-76031008D01*
X111209523Y-76031008D02*
X111209523Y-75221485D01*
X112209523Y-76221485D02*
X111638095Y-76221485D01*
X111923809Y-76221485D02*
X111923809Y-75221485D01*
X111923809Y-75221485D02*
X111828571Y-75364342D01*
X111828571Y-75364342D02*
X111733333Y-75459580D01*
X111733333Y-75459580D02*
X111638095Y-75507199D01*
X110233333Y-99854819D02*
X109900000Y-99378628D01*
X109661905Y-99854819D02*
X109661905Y-98854819D01*
X109661905Y-98854819D02*
X110042857Y-98854819D01*
X110042857Y-98854819D02*
X110138095Y-98902438D01*
X110138095Y-98902438D02*
X110185714Y-98950057D01*
X110185714Y-98950057D02*
X110233333Y-99045295D01*
X110233333Y-99045295D02*
X110233333Y-99188152D01*
X110233333Y-99188152D02*
X110185714Y-99283390D01*
X110185714Y-99283390D02*
X110138095Y-99331009D01*
X110138095Y-99331009D02*
X110042857Y-99378628D01*
X110042857Y-99378628D02*
X109661905Y-99378628D01*
X110614286Y-98950057D02*
X110661905Y-98902438D01*
X110661905Y-98902438D02*
X110757143Y-98854819D01*
X110757143Y-98854819D02*
X110995238Y-98854819D01*
X110995238Y-98854819D02*
X111090476Y-98902438D01*
X111090476Y-98902438D02*
X111138095Y-98950057D01*
X111138095Y-98950057D02*
X111185714Y-99045295D01*
X111185714Y-99045295D02*
X111185714Y-99140533D01*
X111185714Y-99140533D02*
X111138095Y-99283390D01*
X111138095Y-99283390D02*
X110566667Y-99854819D01*
X110566667Y-99854819D02*
X111185714Y-99854819D01*
X142454819Y-109588094D02*
X141454819Y-109588094D01*
X141454819Y-109588094D02*
X141454819Y-109349999D01*
X141454819Y-109349999D02*
X141502438Y-109207142D01*
X141502438Y-109207142D02*
X141597676Y-109111904D01*
X141597676Y-109111904D02*
X141692914Y-109064285D01*
X141692914Y-109064285D02*
X141883390Y-109016666D01*
X141883390Y-109016666D02*
X142026247Y-109016666D01*
X142026247Y-109016666D02*
X142216723Y-109064285D01*
X142216723Y-109064285D02*
X142311961Y-109111904D01*
X142311961Y-109111904D02*
X142407200Y-109207142D01*
X142407200Y-109207142D02*
X142454819Y-109349999D01*
X142454819Y-109349999D02*
X142454819Y-109588094D01*
X141883390Y-108445237D02*
X141835771Y-108540475D01*
X141835771Y-108540475D02*
X141788152Y-108588094D01*
X141788152Y-108588094D02*
X141692914Y-108635713D01*
X141692914Y-108635713D02*
X141645295Y-108635713D01*
X141645295Y-108635713D02*
X141550057Y-108588094D01*
X141550057Y-108588094D02*
X141502438Y-108540475D01*
X141502438Y-108540475D02*
X141454819Y-108445237D01*
X141454819Y-108445237D02*
X141454819Y-108254761D01*
X141454819Y-108254761D02*
X141502438Y-108159523D01*
X141502438Y-108159523D02*
X141550057Y-108111904D01*
X141550057Y-108111904D02*
X141645295Y-108064285D01*
X141645295Y-108064285D02*
X141692914Y-108064285D01*
X141692914Y-108064285D02*
X141788152Y-108111904D01*
X141788152Y-108111904D02*
X141835771Y-108159523D01*
X141835771Y-108159523D02*
X141883390Y-108254761D01*
X141883390Y-108254761D02*
X141883390Y-108445237D01*
X141883390Y-108445237D02*
X141931009Y-108540475D01*
X141931009Y-108540475D02*
X141978628Y-108588094D01*
X141978628Y-108588094D02*
X142073866Y-108635713D01*
X142073866Y-108635713D02*
X142264342Y-108635713D01*
X142264342Y-108635713D02*
X142359580Y-108588094D01*
X142359580Y-108588094D02*
X142407200Y-108540475D01*
X142407200Y-108540475D02*
X142454819Y-108445237D01*
X142454819Y-108445237D02*
X142454819Y-108254761D01*
X142454819Y-108254761D02*
X142407200Y-108159523D01*
X142407200Y-108159523D02*
X142359580Y-108111904D01*
X142359580Y-108111904D02*
X142264342Y-108064285D01*
X142264342Y-108064285D02*
X142073866Y-108064285D01*
X142073866Y-108064285D02*
X141978628Y-108111904D01*
X141978628Y-108111904D02*
X141931009Y-108159523D01*
X141931009Y-108159523D02*
X141883390Y-108254761D01*
X116540809Y-91115576D02*
X116493178Y-91210837D01*
X116493178Y-91210837D02*
X116397917Y-91306099D01*
X116397917Y-91306099D02*
X116255025Y-91448991D01*
X116255025Y-91448991D02*
X116207394Y-91544252D01*
X116207394Y-91544252D02*
X116207394Y-91639513D01*
X116445547Y-91591883D02*
X116397917Y-91687144D01*
X116397917Y-91687144D02*
X116302655Y-91782405D01*
X116302655Y-91782405D02*
X116112133Y-91830036D01*
X116112133Y-91830036D02*
X115778718Y-91830036D01*
X115778718Y-91830036D02*
X115588195Y-91782405D01*
X115588195Y-91782405D02*
X115492934Y-91687144D01*
X115492934Y-91687144D02*
X115445303Y-91591883D01*
X115445303Y-91591883D02*
X115445303Y-91401360D01*
X115445303Y-91401360D02*
X115492934Y-91306099D01*
X115492934Y-91306099D02*
X115588195Y-91210837D01*
X115588195Y-91210837D02*
X115778718Y-91163207D01*
X115778718Y-91163207D02*
X116112133Y-91163207D01*
X116112133Y-91163207D02*
X116302655Y-91210837D01*
X116302655Y-91210837D02*
X116397917Y-91306099D01*
X116397917Y-91306099D02*
X116445547Y-91401360D01*
X116445547Y-91401360D02*
X116445547Y-91591883D01*
X116445547Y-90210593D02*
X116445547Y-90782161D01*
X116445547Y-90496377D02*
X115445303Y-90496377D01*
X115445303Y-90496377D02*
X115588195Y-90591638D01*
X115588195Y-90591638D02*
X115683457Y-90686900D01*
X115683457Y-90686900D02*
X115731087Y-90782161D01*
X99504819Y-101283333D02*
X100219104Y-101283333D01*
X100219104Y-101283333D02*
X100361961Y-101330952D01*
X100361961Y-101330952D02*
X100457200Y-101426190D01*
X100457200Y-101426190D02*
X100504819Y-101569047D01*
X100504819Y-101569047D02*
X100504819Y-101664285D01*
X100504819Y-100283333D02*
X100504819Y-100854761D01*
X100504819Y-100569047D02*
X99504819Y-100569047D01*
X99504819Y-100569047D02*
X99647676Y-100664285D01*
X99647676Y-100664285D02*
X99742914Y-100759523D01*
X99742914Y-100759523D02*
X99790533Y-100854761D01*
X104783333Y-75554819D02*
X104450000Y-75078628D01*
X104211905Y-75554819D02*
X104211905Y-74554819D01*
X104211905Y-74554819D02*
X104592857Y-74554819D01*
X104592857Y-74554819D02*
X104688095Y-74602438D01*
X104688095Y-74602438D02*
X104735714Y-74650057D01*
X104735714Y-74650057D02*
X104783333Y-74745295D01*
X104783333Y-74745295D02*
X104783333Y-74888152D01*
X104783333Y-74888152D02*
X104735714Y-74983390D01*
X104735714Y-74983390D02*
X104688095Y-75031009D01*
X104688095Y-75031009D02*
X104592857Y-75078628D01*
X104592857Y-75078628D02*
X104211905Y-75078628D01*
X105116667Y-74554819D02*
X105735714Y-74554819D01*
X105735714Y-74554819D02*
X105402381Y-74935771D01*
X105402381Y-74935771D02*
X105545238Y-74935771D01*
X105545238Y-74935771D02*
X105640476Y-74983390D01*
X105640476Y-74983390D02*
X105688095Y-75031009D01*
X105688095Y-75031009D02*
X105735714Y-75126247D01*
X105735714Y-75126247D02*
X105735714Y-75364342D01*
X105735714Y-75364342D02*
X105688095Y-75459580D01*
X105688095Y-75459580D02*
X105640476Y-75507200D01*
X105640476Y-75507200D02*
X105545238Y-75554819D01*
X105545238Y-75554819D02*
X105259524Y-75554819D01*
X105259524Y-75554819D02*
X105164286Y-75507200D01*
X105164286Y-75507200D02*
X105116667Y-75459580D01*
X119054819Y-113792857D02*
X118578628Y-114126190D01*
X119054819Y-114364285D02*
X118054819Y-114364285D01*
X118054819Y-114364285D02*
X118054819Y-113983333D01*
X118054819Y-113983333D02*
X118102438Y-113888095D01*
X118102438Y-113888095D02*
X118150057Y-113840476D01*
X118150057Y-113840476D02*
X118245295Y-113792857D01*
X118245295Y-113792857D02*
X118388152Y-113792857D01*
X118388152Y-113792857D02*
X118483390Y-113840476D01*
X118483390Y-113840476D02*
X118531009Y-113888095D01*
X118531009Y-113888095D02*
X118578628Y-113983333D01*
X118578628Y-113983333D02*
X118578628Y-114364285D01*
X119054819Y-112840476D02*
X119054819Y-113411904D01*
X119054819Y-113126190D02*
X118054819Y-113126190D01*
X118054819Y-113126190D02*
X118197676Y-113221428D01*
X118197676Y-113221428D02*
X118292914Y-113316666D01*
X118292914Y-113316666D02*
X118340533Y-113411904D01*
X118054819Y-112507142D02*
X118054819Y-111888095D01*
X118054819Y-111888095D02*
X118435771Y-112221428D01*
X118435771Y-112221428D02*
X118435771Y-112078571D01*
X118435771Y-112078571D02*
X118483390Y-111983333D01*
X118483390Y-111983333D02*
X118531009Y-111935714D01*
X118531009Y-111935714D02*
X118626247Y-111888095D01*
X118626247Y-111888095D02*
X118864342Y-111888095D01*
X118864342Y-111888095D02*
X118959580Y-111935714D01*
X118959580Y-111935714D02*
X119007200Y-111983333D01*
X119007200Y-111983333D02*
X119054819Y-112078571D01*
X119054819Y-112078571D02*
X119054819Y-112364285D01*
X119054819Y-112364285D02*
X119007200Y-112459523D01*
X119007200Y-112459523D02*
X118959580Y-112507142D01*
D16*
X151150000Y-68800000D02*
G75*
G02*
X151050000Y-68800000I-50000J0D01*
G01*
X151050000Y-68800000D02*
G75*
G02*
X151150000Y-68800000I50000J0D01*
G01*
X169650000Y-68800000D02*
G75*
G02*
X169550000Y-68800000I-50000J0D01*
G01*
X169550000Y-68800000D02*
G75*
G02*
X169650000Y-68800000I50000J0D01*
G01*
X132650000Y-87550000D02*
G75*
G02*
X132550000Y-87550000I-50000J0D01*
G01*
X132550000Y-87550000D02*
G75*
G02*
X132650000Y-87550000I50000J0D01*
G01*
X151150000Y-87550000D02*
G75*
G02*
X151050000Y-87550000I-50000J0D01*
G01*
X151050000Y-87550000D02*
G75*
G02*
X151150000Y-87550000I50000J0D01*
G01*
X169550000Y-87600000D02*
G75*
G02*
X169450000Y-87600000I-50000J0D01*
G01*
X169450000Y-87600000D02*
G75*
G02*
X169550000Y-87600000I50000J0D01*
G01*
X132650000Y-106050000D02*
G75*
G02*
X132550000Y-106050000I-50000J0D01*
G01*
X132550000Y-106050000D02*
G75*
G02*
X132650000Y-106050000I50000J0D01*
G01*
X151150000Y-106050000D02*
G75*
G02*
X151050000Y-106050000I-50000J0D01*
G01*
X151050000Y-106050000D02*
G75*
G02*
X151150000Y-106050000I50000J0D01*
G01*
X169650000Y-106050000D02*
G75*
G02*
X169550000Y-106050000I-50000J0D01*
G01*
X169550000Y-106050000D02*
G75*
G02*
X169650000Y-106050000I50000J0D01*
G01*
X132650000Y-68800000D02*
G75*
G02*
X132550000Y-68800000I-50000J0D01*
G01*
X132550000Y-68800000D02*
G75*
G02*
X132650000Y-68800000I50000J0D01*
G01*
D17*
X124300000Y-73800000D02*
X127500000Y-73800000D01*
X124300000Y-70200000D02*
X124300000Y-73800000D01*
X127500000Y-70200000D02*
X127500000Y-73800000D01*
X136385000Y-70738748D02*
X136385000Y-71261252D01*
X134915000Y-70738748D02*
X134915000Y-71261252D01*
X145135000Y-76685436D02*
X145135000Y-77139564D01*
X143665000Y-76685436D02*
X143665000Y-77139564D01*
X142550000Y-92300000D02*
X145750000Y-92300000D01*
X142550000Y-88700000D02*
X142550000Y-92300000D01*
X145750000Y-88700000D02*
X145750000Y-92300000D01*
X126635000Y-95185436D02*
X126635000Y-95639564D01*
X125165000Y-95185436D02*
X125165000Y-95639564D01*
X163635000Y-76685436D02*
X163635000Y-77139564D01*
X162165000Y-76685436D02*
X162165000Y-77139564D01*
X134915000Y-107988748D02*
X134915000Y-108511252D01*
X136385000Y-107988748D02*
X136385000Y-108511252D01*
X104635000Y-108988748D02*
X104635000Y-109511252D01*
X103165000Y-108988748D02*
X103165000Y-109511252D01*
X145135000Y-114022936D02*
X145135000Y-114477064D01*
X143665000Y-114022936D02*
X143665000Y-114477064D01*
X154885000Y-89488748D02*
X154885000Y-90011252D01*
X153415000Y-89488748D02*
X153415000Y-90011252D01*
X143665000Y-95185436D02*
X143665000Y-95639564D01*
X145135000Y-95185436D02*
X145135000Y-95639564D01*
X163635000Y-114022936D02*
X163635000Y-114477064D01*
X162165000Y-114022936D02*
X162165000Y-114477064D01*
X161300000Y-111050000D02*
X164500000Y-111050000D01*
X161300000Y-107450000D02*
X161300000Y-111050000D01*
X164500000Y-107450000D02*
X164500000Y-111050000D01*
X124300000Y-111050000D02*
X127500000Y-111050000D01*
X124300000Y-107450000D02*
X124300000Y-111050000D01*
X127500000Y-107450000D02*
X127500000Y-111050000D01*
X161300000Y-73800000D02*
X164500000Y-73800000D01*
X161300000Y-70200000D02*
X161300000Y-73800000D01*
X164500000Y-70200000D02*
X164500000Y-73800000D01*
X154885000Y-70738748D02*
X154885000Y-71261252D01*
X153415000Y-70738748D02*
X153415000Y-71261252D01*
X110938748Y-85015000D02*
X111461252Y-85015000D01*
X110938748Y-86485000D02*
X111461252Y-86485000D01*
X126635000Y-113935436D02*
X126635000Y-114389564D01*
X125165000Y-113935436D02*
X125165000Y-114389564D01*
X142800000Y-73800000D02*
X146000000Y-73800000D01*
X142800000Y-70200000D02*
X142800000Y-73800000D01*
X146000000Y-70200000D02*
X146000000Y-73800000D01*
X111400000Y-112618333D02*
X113600000Y-112618333D01*
X111400000Y-112618333D02*
X109200000Y-112618333D01*
X111400000Y-104548333D02*
X113600000Y-104548333D01*
X111400000Y-104548333D02*
X109200000Y-104548333D01*
X115590000Y-112398333D02*
X115260000Y-112158333D01*
X115590000Y-111918333D01*
X115590000Y-112398333D01*
G36*
X115590000Y-112398333D02*
G01*
X115260000Y-112158333D01*
X115590000Y-111918333D01*
X115590000Y-112398333D01*
G37*
X153415000Y-107988748D02*
X153415000Y-108511252D01*
X154885000Y-107988748D02*
X154885000Y-108511252D01*
X110888748Y-81515000D02*
X111411252Y-81515000D01*
X110888748Y-82985000D02*
X111411252Y-82985000D01*
X126635000Y-76685436D02*
X126635000Y-77139564D01*
X125165000Y-76685436D02*
X125165000Y-77139564D01*
X173385000Y-70738748D02*
X173385000Y-71261252D01*
X171915000Y-70738748D02*
X171915000Y-71261252D01*
X173385000Y-89488748D02*
X173385000Y-90011252D01*
X171915000Y-89488748D02*
X171915000Y-90011252D01*
X136385000Y-89488748D02*
X136385000Y-90011252D01*
X134915000Y-89488748D02*
X134915000Y-90011252D01*
X161300000Y-92300000D02*
X164500000Y-92300000D01*
X161300000Y-88700000D02*
X161300000Y-92300000D01*
X164500000Y-88700000D02*
X164500000Y-92300000D01*
X173385000Y-107988748D02*
X173385000Y-108511252D01*
X171915000Y-107988748D02*
X171915000Y-108511252D01*
X108677064Y-89015000D02*
X108222936Y-89015000D01*
X108677064Y-90485000D02*
X108222936Y-90485000D01*
X163635000Y-95185436D02*
X163635000Y-95639564D01*
X162165000Y-95185436D02*
X162165000Y-95639564D01*
X104385000Y-71238748D02*
X104385000Y-71761252D01*
X102915000Y-71238748D02*
X102915000Y-71761252D01*
X124300000Y-92325000D02*
X127500000Y-92325000D01*
X124300000Y-88725000D02*
X124300000Y-92325000D01*
X127500000Y-88725000D02*
X127500000Y-92325000D01*
X111400000Y-74951666D02*
X113600000Y-74951666D01*
X111400000Y-74951666D02*
X109200000Y-74951666D01*
X111400000Y-66881666D02*
X113600000Y-66881666D01*
X111400000Y-66881666D02*
X109200000Y-66881666D01*
X115590000Y-74731666D02*
X115260000Y-74491666D01*
X115590000Y-74251666D01*
X115590000Y-74731666D01*
G36*
X115590000Y-74731666D02*
G01*
X115260000Y-74491666D01*
X115590000Y-74251666D01*
X115590000Y-74731666D01*
G37*
X110627064Y-98485000D02*
X110172936Y-98485000D01*
X110627064Y-97015000D02*
X110172936Y-97015000D01*
X142800000Y-111050000D02*
X146000000Y-111050000D01*
X142800000Y-107450000D02*
X142800000Y-111050000D01*
X146000000Y-107450000D02*
X146000000Y-111050000D01*
X94190000Y-99810000D02*
X105910000Y-99810000D01*
X105910000Y-99810000D02*
X105910000Y-98390000D01*
X105910000Y-98390000D02*
X101410000Y-98390000D01*
X94800000Y-97500000D02*
X100300000Y-97500000D01*
X100300000Y-97500000D02*
X100300000Y-97000000D01*
X94800000Y-97000000D02*
X94800000Y-97500000D01*
X100300000Y-97000000D02*
X94800000Y-97000000D01*
X94800000Y-95000000D02*
X100300000Y-95000000D01*
X100300000Y-95000000D02*
X100300000Y-94500000D01*
X94800000Y-94500000D02*
X94800000Y-95000000D01*
X100300000Y-94500000D02*
X94800000Y-94500000D01*
X94800000Y-92500000D02*
X100300000Y-92500000D01*
X100300000Y-92500000D02*
X100300000Y-92000000D01*
X94800000Y-92000000D02*
X94800000Y-92500000D01*
X100300000Y-92000000D02*
X94800000Y-92000000D01*
X94800000Y-90000000D02*
X100300000Y-90000000D01*
X100300000Y-90000000D02*
X100300000Y-89500000D01*
X94190000Y-89750000D02*
X94190000Y-99810000D01*
X94190000Y-89750000D02*
X94190000Y-79690000D01*
X94800000Y-89500000D02*
X94800000Y-90000000D01*
X100300000Y-89500000D02*
X94800000Y-89500000D01*
X94800000Y-87500000D02*
X100300000Y-87500000D01*
X100300000Y-87500000D02*
X100300000Y-87000000D01*
X94800000Y-87000000D02*
X94800000Y-87500000D01*
X100300000Y-87000000D02*
X94800000Y-87000000D01*
X94800000Y-85000000D02*
X100300000Y-85000000D01*
X100300000Y-85000000D02*
X100300000Y-84500000D01*
X94800000Y-84500000D02*
X94800000Y-85000000D01*
X100300000Y-84500000D02*
X94800000Y-84500000D01*
X104000000Y-82550000D02*
X103400000Y-82250000D01*
X94800000Y-82500000D02*
X100300000Y-82500000D01*
X100300000Y-82500000D02*
X100300000Y-82000000D01*
X103400000Y-82250000D02*
X104000000Y-81950000D01*
X94800000Y-82000000D02*
X94800000Y-82500000D01*
X100300000Y-82000000D02*
X94800000Y-82000000D01*
X104000000Y-81950000D02*
X104000000Y-82550000D01*
X105910000Y-81110000D02*
X101410000Y-81110000D01*
X94190000Y-79690000D02*
X105910000Y-79690000D01*
X105910000Y-79690000D02*
X105910000Y-81110000D01*
X104722936Y-76015000D02*
X105177064Y-76015000D01*
X104722936Y-77485000D02*
X105177064Y-77485000D01*
X117685000Y-112922936D02*
X117685000Y-113377064D01*
X116215000Y-112922936D02*
X116215000Y-113377064D01*
%LPC*%
D18*
X151000000Y-70050000D03*
X150300000Y-70050000D03*
D19*
X150300000Y-71900000D03*
D18*
X151000000Y-71950000D03*
X169500000Y-70050000D03*
X168800000Y-70050000D03*
D19*
X168800000Y-71900000D03*
D18*
X169500000Y-71950000D03*
X132500000Y-88800000D03*
X131800000Y-88800000D03*
D19*
X131800000Y-90650000D03*
D18*
X132500000Y-90700000D03*
X151000000Y-88800000D03*
X150300000Y-88800000D03*
D19*
X150300000Y-90650000D03*
D18*
X151000000Y-90700000D03*
X169400000Y-88850000D03*
X168700000Y-88850000D03*
D19*
X168700000Y-90700000D03*
D18*
X169400000Y-90750000D03*
X132500000Y-107300000D03*
X131800000Y-107300000D03*
D19*
X131800000Y-109150000D03*
D18*
X132500000Y-109200000D03*
X151000000Y-107300000D03*
X150300000Y-107300000D03*
D19*
X150300000Y-109150000D03*
D18*
X151000000Y-109200000D03*
X169500000Y-107300000D03*
X168800000Y-107300000D03*
D19*
X168800000Y-109150000D03*
D18*
X169500000Y-109200000D03*
X132500000Y-70050000D03*
X131800000Y-70050000D03*
D19*
X131800000Y-71900000D03*
D18*
X132500000Y-71950000D03*
D20*
X125900000Y-72500000D03*
D21*
X125900000Y-70225000D03*
D22*
X135650000Y-70050000D03*
X135650000Y-71950000D03*
D23*
X144400000Y-76000000D03*
X144400000Y-77825000D03*
D20*
X144150000Y-91000000D03*
D21*
X144150000Y-88725000D03*
D23*
X125900000Y-94500000D03*
X125900000Y-96325000D03*
X162900000Y-76000000D03*
X162900000Y-77825000D03*
D22*
X135650000Y-109200000D03*
X135650000Y-107300000D03*
X103900000Y-108300000D03*
X103900000Y-110200000D03*
D23*
X144400000Y-113337500D03*
X144400000Y-115162500D03*
D22*
X154150000Y-88800000D03*
X154150000Y-90700000D03*
D23*
X144400000Y-96325000D03*
X144400000Y-94500000D03*
X162900000Y-113337500D03*
X162900000Y-115162500D03*
D20*
X162900000Y-109750000D03*
D21*
X162900000Y-107475000D03*
D20*
X125900000Y-109750000D03*
D21*
X125900000Y-107475000D03*
D20*
X162900000Y-72500000D03*
D21*
X162900000Y-70225000D03*
D22*
X154150000Y-70050000D03*
X154150000Y-71950000D03*
D24*
X110250000Y-85750000D03*
X112150000Y-85750000D03*
D23*
X125900000Y-113250000D03*
X125900000Y-115075000D03*
D20*
X144400000Y-72500000D03*
D21*
X144400000Y-70225000D03*
D25*
X114262500Y-112158333D03*
X114262500Y-111508333D03*
X114262500Y-110858333D03*
X114262500Y-110208333D03*
X114262500Y-109558333D03*
X114262500Y-108908333D03*
X114262500Y-108258333D03*
X114262500Y-107608333D03*
X114262500Y-106958333D03*
X114262500Y-106308333D03*
X114262500Y-105658333D03*
X114262500Y-105008333D03*
X108537500Y-105008333D03*
X108537500Y-105658333D03*
X108537500Y-106308333D03*
X108537500Y-106958333D03*
X108537500Y-107608333D03*
X108537500Y-108258333D03*
X108537500Y-108908333D03*
X108537500Y-109558333D03*
X108537500Y-110208333D03*
X108537500Y-110858333D03*
X108537500Y-111508333D03*
X108537500Y-112158333D03*
D22*
X154150000Y-109200000D03*
X154150000Y-107300000D03*
D24*
X110200000Y-82250000D03*
X112100000Y-82250000D03*
D23*
X125900000Y-76000000D03*
X125900000Y-77825000D03*
D22*
X172650000Y-70050000D03*
X172650000Y-71950000D03*
X172650000Y-88800000D03*
X172650000Y-90700000D03*
X135650000Y-88800000D03*
X135650000Y-90700000D03*
D20*
X162900000Y-91000000D03*
D21*
X162900000Y-88725000D03*
D22*
X172650000Y-107300000D03*
X172650000Y-109200000D03*
D26*
X107537500Y-89750000D03*
X109362500Y-89750000D03*
D23*
X162900000Y-94500000D03*
X162900000Y-96325000D03*
D22*
X103650000Y-70550000D03*
X103650000Y-72450000D03*
D20*
X125900000Y-91025000D03*
D21*
X125900000Y-88750000D03*
D25*
X114262500Y-74491666D03*
X114262500Y-73841666D03*
X114262500Y-73191666D03*
X114262500Y-72541666D03*
X114262500Y-71891666D03*
X114262500Y-71241666D03*
X114262500Y-70591666D03*
X114262500Y-69941666D03*
X114262500Y-69291666D03*
X114262500Y-68641666D03*
X114262500Y-67991666D03*
X114262500Y-67341666D03*
X108537500Y-67341666D03*
X108537500Y-67991666D03*
X108537500Y-68641666D03*
X108537500Y-69291666D03*
X108537500Y-69941666D03*
X108537500Y-70591666D03*
X108537500Y-71241666D03*
X108537500Y-71891666D03*
X108537500Y-72541666D03*
X108537500Y-73191666D03*
X108537500Y-73841666D03*
X108537500Y-74491666D03*
D26*
X111312500Y-97750000D03*
X109487500Y-97750000D03*
D20*
X144400000Y-109750000D03*
D21*
X144400000Y-107475000D03*
D27*
X114550000Y-89750000D03*
X112350000Y-90700000D03*
X112350000Y-88800000D03*
D28*
X101900000Y-97250000D03*
X101900000Y-94750000D03*
X101900000Y-92250000D03*
X101900000Y-89750000D03*
X101900000Y-87250000D03*
X101900000Y-84750000D03*
D29*
X101900000Y-82250000D03*
D30*
X104037500Y-76750000D03*
X105862500Y-76750000D03*
D23*
X116950000Y-112237500D03*
X116950000Y-114062500D03*
%LPD*%
M02*
