M48
; DRILL file {KiCad 8.0.0} date 2025-07-03T23:17:28-0600
; FORMAT={-:-/ absolute / metric / decimal}
; #@! TF.CreationDate,2025-07-03T23:17:28-06:00
; #@! TF.GenerationSoftware,Kicad,Pcbnew,8.0.0
; #@! TF.FileFunction,Plated,1,2,PTH
FMAT,2
METRIC
; #@! TA.AperFunction,Plated,PTH,ViaDrill
T1C0.300
; #@! TA.AperFunction,Plated,PTH,ViaDrill
T2C0.400
; #@! TA.AperFunction,Plated,PTH,ViaDrill
T3C0.500
; #@! TA.AperFunction,Plated,PTH,ComponentDrill
T4C0.950
%
G90
G05
T1
X105.65Y-112.0
X106.4Y-69.25
X106.4Y-107.0
X106.4Y-111.25
X106.9Y-73.25
X106.9Y-74.25
X108.65Y-81.25
X108.65Y-95.25
X109.575Y-67.942
X110.2Y-67.35
X112.35Y-92.1
X113.15Y-97.75
X113.65Y-83.75
X115.5Y-72.7
X115.533Y-71.325
X115.542Y-69.942
X115.579Y-107.583
X115.65Y-106.25
X115.65Y-109.0
X116.55Y-70.567
X116.55Y-71.975
X116.55Y-73.375
X116.65Y-106.875
X116.65Y-108.208
X116.65Y-109.625
X117.15Y-73.95
X117.75Y-74.55
X118.55Y-104.55
X118.592Y-105.392
X130.9Y-70.25
X130.9Y-72.0
X130.9Y-89.0
X130.9Y-90.75
X130.9Y-107.25
X130.9Y-109.25
X133.9Y-70.0
X133.9Y-88.75
X133.9Y-107.25
X139.95Y-108.95
X139.95Y-112.35
X149.4Y-70.25
X149.4Y-72.0
X149.4Y-89.0
X149.4Y-90.75
X149.4Y-107.25
X149.4Y-109.25
X152.4Y-70.0
X152.4Y-88.75
X152.4Y-107.95
X156.95Y-94.35
X167.9Y-70.25
X167.9Y-72.0
X167.9Y-89.0
X167.9Y-90.75
X167.9Y-107.25
X167.9Y-109.25
X170.9Y-69.25
X170.9Y-88.75
X170.9Y-107.25
T2
X115.45Y-76.35
X116.05Y-67.267
X135.75Y-113.95
X135.95Y-118.55
X137.35Y-76.925
X137.35Y-90.75
X137.35Y-109.15
X139.95Y-88.75
X154.55Y-94.35
X155.75Y-76.925
X155.75Y-90.75
X155.75Y-109.35
X155.75Y-114.262
X155.75Y-118.55
X172.55Y-92.55
X172.75Y-105.55
T3
X122.55Y-87.15
X125.15Y-87.15
X128.55Y-101.55
X128.75Y-95.15
X161.3Y-105.65
X161.55Y-87.375
X165.9Y-105.65
X165.95Y-87.35
T4
X101.9Y-82.25
X101.9Y-84.75
X101.9Y-87.25
X101.9Y-89.75
X101.9Y-92.25
X101.9Y-94.75
X101.9Y-97.25
M30
