M48
INCH,TZ
T1C0.0118
T2C0.0295
T3C0.0354
T4C0.0374
T5C0.0394
%
G90
G05
T1
X48425Y-36122
X48622Y-43110
X49508Y-36122
X51772Y-45079
X52165Y-35039
X52165Y-42323
X52165Y-49606
X52756Y-45079
X54331Y-37598
X54331Y-44882
X55118Y-37598
X55315Y-44882
X55591Y-27756
X55610Y-27165
X56693Y-50157
X56693Y-51181
X58661Y-50157
X58661Y-50787
X59449Y-35039
X59449Y-42323
X59449Y-49606
X61614Y-37598
X61614Y-45079
X62598Y-37598
X62795Y-45079
X63189Y-27559
X64173Y-50157
X65945Y-50157
X65945Y-50787
X66732Y-35039
X66732Y-42323
X66732Y-49606
X68898Y-37598
X68898Y-45079
T2
X44291Y-40535
X44291Y-41035
X44291Y-41535
X44291Y-42807
X44291Y-43307
X44291Y-43807
X44291Y-45063
X44291Y-45563
X44291Y-46063
T3
X49606Y-31890
X49606Y-39370
X49606Y-46457
X50106Y-31890
X50106Y-39370
X50106Y-46457
X50606Y-31890
X50606Y-39370
X50606Y-46457
X51106Y-31890
X51106Y-39370
X51106Y-46457
X52756Y-31890
X52756Y-39370
X52756Y-46457
X53756Y-31890
X53756Y-39370
X53756Y-46457
X57087Y-31890
X57087Y-39370
X57087Y-46457
X57587Y-31890
X57587Y-39370
X57587Y-46457
X58087Y-31890
X58087Y-39370
X58087Y-46457
X58587Y-31890
X58587Y-39370
X58587Y-46457
X60236Y-31890
X60236Y-39370
X60236Y-46457
X61236Y-31890
X61236Y-39370
X61236Y-46457
X64173Y-31890
X64173Y-39370
X64173Y-46457
X64673Y-31890
X64673Y-39370
X64673Y-46457
X65173Y-31890
X65173Y-39370
X65173Y-46457
X65673Y-31890
X65673Y-39370
X65673Y-46457
X67323Y-31890
X67323Y-39370
X67323Y-46457
X68323Y-31890
X68323Y-39370
X68323Y-46457
T4
X40148Y-28150
X40148Y-29134
X40148Y-30118
X40148Y-31102
X40148Y-32087
X40148Y-46457
X40148Y-47441
X40148Y-48425
X40148Y-49409
X40157Y-35433
X40157Y-36417
X40157Y-37402
X40157Y-38386
T5
X40148Y-41831
X40148Y-42815
M30
