G04 #@! TF.GenerationSoftware,KiCad,Pcbnew,8.0.0*
G04 #@! TF.CreationDate,2024-03-14T11:38:26-06:00*
G04 #@! TF.ProjectId,ColorSensor,436f6c6f-7253-4656-9e73-6f722e6b6963,A*
G04 #@! TF.SameCoordinates,Original*
G04 #@! TF.FileFunction,Copper,L2,Bot*
G04 #@! TF.FilePolarity,Positive*
%FSLAX46Y46*%
G04 Gerber Fmt 4.6, Leading zero omitted, Abs format (unit mm)*
G04 Created by KiCad (PCBNEW 8.0.0) date 2024-03-14 11:38:26*
%MOMM*%
%LPD*%
G01*
G04 APERTURE LIST*
G04 Aperture macros list*
%AMRoundRect*
0 Rectangle with rounded corners*
0 $1 Rounding radius*
0 $2 $3 $4 $5 $6 $7 $8 $9 X,Y pos of 4 corners*
0 Add a 4 corners polygon primitive as box body*
4,1,4,$2,$3,$4,$5,$6,$7,$8,$9,$2,$3,0*
0 Add four circle primitives for the rounded corners*
1,1,$1+$1,$2,$3*
1,1,$1+$1,$4,$5*
1,1,$1+$1,$6,$7*
1,1,$1+$1,$8,$9*
0 Add four rect primitives between the rounded corners*
20,1,$1+$1,$2,$3,$4,$5,0*
20,1,$1+$1,$4,$5,$6,$7,0*
20,1,$1+$1,$6,$7,$8,$9,0*
20,1,$1+$1,$8,$9,$2,$3,0*%
%AMOutline5P*
0 Free polygon, 5 corners , with rotation*
0 The origin of the aperture is its center*
0 number of corners: always 5*
0 $1 to $10 corner X, Y*
0 $11 Rotation angle, in degrees counterclockwise*
0 create outline with 5 corners*
4,1,5,$1,$2,$3,$4,$5,$6,$7,$8,$9,$10,$1,$2,$11*%
%AMOutline6P*
0 Free polygon, 6 corners , with rotation*
0 The origin of the aperture is its center*
0 number of corners: always 6*
0 $1 to $12 corner X, Y*
0 $13 Rotation angle, in degrees counterclockwise*
0 create outline with 6 corners*
4,1,6,$1,$2,$3,$4,$5,$6,$7,$8,$9,$10,$11,$12,$1,$2,$13*%
%AMOutline7P*
0 Free polygon, 7 corners , with rotation*
0 The origin of the aperture is its center*
0 number of corners: always 7*
0 $1 to $14 corner X, Y*
0 $15 Rotation angle, in degrees counterclockwise*
0 create outline with 7 corners*
4,1,7,$1,$2,$3,$4,$5,$6,$7,$8,$9,$10,$11,$12,$13,$14,$1,$2,$15*%
%AMOutline8P*
0 Free polygon, 8 corners , with rotation*
0 The origin of the aperture is its center*
0 number of corners: always 8*
0 $1 to $16 corner X, Y*
0 $17 Rotation angle, in degrees counterclockwise*
0 create outline with 8 corners*
4,1,8,$1,$2,$3,$4,$5,$6,$7,$8,$9,$10,$11,$12,$13,$14,$15,$16,$1,$2,$17*%
G04 Aperture macros list end*
G04 #@! TA.AperFunction,ComponentPad*
%ADD10Outline6P,-0.900000X0.540000X-0.540000X0.900000X0.540000X0.900000X0.900000X0.540000X0.900000X-0.900000X-0.900000X-0.900000X0.000000*%
G04 #@! TD*
G04 #@! TA.AperFunction,ComponentPad*
%ADD11C,1.800000*%
G04 #@! TD*
G04 #@! TA.AperFunction,ComponentPad*
%ADD12O,1.950000X1.700000*%
G04 #@! TD*
G04 #@! TA.AperFunction,ComponentPad*
%ADD13R,1.500000X1.050000*%
G04 #@! TD*
G04 #@! TA.AperFunction,ComponentPad*
%ADD14O,1.500000X1.050000*%
G04 #@! TD*
G04 #@! TA.AperFunction,ComponentPad*
%ADD15O,1.070000X1.800000*%
G04 #@! TD*
G04 #@! TA.AperFunction,ComponentPad*
%ADD16R,1.070000X1.800000*%
G04 #@! TD*
G04 #@! TA.AperFunction,ComponentPad*
%ADD17Outline6P,-0.850000X0.660000X-0.510000X1.000000X0.510000X1.000000X0.850000X0.660000X0.850000X-1.000000X-0.850000X-1.000000X90.000000*%
G04 #@! TD*
G04 #@! TA.AperFunction,ComponentPad*
%ADD18RoundRect,0.250000X0.750000X-0.600000X0.750000X0.600000X-0.750000X0.600000X-0.750000X-0.600000X0*%
G04 #@! TD*
G04 #@! TA.AperFunction,ComponentPad*
%ADD19Outline6P,-0.850000X0.635000X-0.510000X0.975000X0.510000X0.975000X0.850000X0.635000X0.850000X-0.975000X-0.850000X-0.975000X90.000000*%
G04 #@! TD*
G04 #@! TA.AperFunction,ViaPad*
%ADD20C,0.600000*%
G04 #@! TD*
G04 #@! TA.AperFunction,Conductor*
%ADD21C,0.200000*%
G04 #@! TD*
G04 APERTURE END LIST*
D10*
X134000000Y-81000000D03*
D11*
X136540000Y-81000000D03*
D10*
X171000000Y-100000000D03*
D11*
X173540000Y-100000000D03*
D10*
X153000000Y-118000000D03*
D11*
X155540000Y-118000000D03*
D12*
X101975000Y-81500000D03*
X101975000Y-79000000D03*
X101975000Y-76500000D03*
X101975000Y-74000000D03*
X101975000Y-71500000D03*
D13*
X112500000Y-105500000D03*
D14*
X112500000Y-104230000D03*
X112500000Y-102960000D03*
D15*
X126000000Y-100000000D03*
D16*
X127270000Y-100000000D03*
D15*
X128540000Y-100000000D03*
X129810000Y-100000000D03*
D10*
X153000000Y-100000000D03*
D11*
X155540000Y-100000000D03*
D13*
X112500000Y-117000000D03*
D14*
X112500000Y-115730000D03*
X112500000Y-114460000D03*
D10*
X171000000Y-81000000D03*
D11*
X173540000Y-81000000D03*
D13*
X112500000Y-111270000D03*
D14*
X112500000Y-110000000D03*
X112500000Y-108730000D03*
D15*
X163000000Y-100000000D03*
D16*
X164270000Y-100000000D03*
D15*
X165540000Y-100000000D03*
X166810000Y-100000000D03*
D10*
X153000000Y-81000000D03*
D11*
X155540000Y-81000000D03*
D10*
X171000000Y-118000000D03*
D11*
X173540000Y-118000000D03*
D15*
X145000000Y-100000000D03*
D16*
X146270000Y-100000000D03*
D15*
X147540000Y-100000000D03*
X148810000Y-100000000D03*
X145000000Y-118000000D03*
D16*
X146270000Y-118000000D03*
D15*
X147540000Y-118000000D03*
X148810000Y-118000000D03*
D17*
X101975000Y-108750000D03*
D18*
X101975000Y-106250000D03*
D15*
X163000000Y-81000000D03*
D16*
X164270000Y-81000000D03*
D15*
X165540000Y-81000000D03*
X166810000Y-81000000D03*
X126000000Y-118000000D03*
D16*
X127270000Y-118000000D03*
D15*
X128540000Y-118000000D03*
X129810000Y-118000000D03*
X145000000Y-81000000D03*
D16*
X146270000Y-81000000D03*
D15*
X147540000Y-81000000D03*
X148810000Y-81000000D03*
D12*
X102000000Y-97500000D03*
X102000000Y-95000000D03*
X102000000Y-92500000D03*
X102000000Y-90000000D03*
D10*
X134000000Y-100000000D03*
D11*
X136540000Y-100000000D03*
D10*
X134000000Y-118000000D03*
D11*
X136540000Y-118000000D03*
D15*
X163000000Y-118000000D03*
D16*
X164270000Y-118000000D03*
D15*
X165540000Y-118000000D03*
X166810000Y-118000000D03*
X126000000Y-81000000D03*
D16*
X127270000Y-81000000D03*
D15*
X128540000Y-81000000D03*
X129810000Y-81000000D03*
D12*
X101975000Y-125500000D03*
X101975000Y-123000000D03*
X101975000Y-120500000D03*
D19*
X101975000Y-118000000D03*
D20*
X134000000Y-114500000D03*
X131500000Y-114500000D03*
X138000000Y-95500000D03*
X140000000Y-95500000D03*
X141200000Y-70500000D03*
X160500000Y-70000000D03*
X159000000Y-95500000D03*
X141250000Y-69000000D03*
X156500000Y-95500000D03*
X156500000Y-114500000D03*
X159500000Y-114500000D03*
X175000000Y-95500000D03*
X175000000Y-114500000D03*
X138000000Y-114000000D03*
X140500000Y-114000000D03*
X163000000Y-127400000D03*
X144000000Y-127400000D03*
X144000000Y-130000000D03*
X151000000Y-89000000D03*
X132500000Y-107500000D03*
X169500000Y-107500000D03*
X167500000Y-129000000D03*
X151000000Y-126000000D03*
X151000000Y-107500000D03*
X132500000Y-89000000D03*
X169500000Y-126000000D03*
X167500000Y-127400000D03*
X149000000Y-129000000D03*
X123500000Y-109500000D03*
X169500000Y-89000000D03*
X132500000Y-126000000D03*
X149000000Y-127400000D03*
X123000000Y-91750000D03*
X125750000Y-91750000D03*
D21*
X145500000Y-122000000D02*
X142000000Y-122000000D01*
X127270000Y-96480000D02*
X127270000Y-81000000D01*
X146640000Y-129600000D02*
X155900000Y-129600000D01*
X127270000Y-96520000D02*
X127270000Y-100000000D01*
X127270000Y-125270000D02*
X131500000Y-129500000D01*
X134500000Y-129500000D02*
X131500000Y-129500000D01*
X146270000Y-121230000D02*
X145500000Y-122000000D01*
X146270000Y-118000000D02*
X146270000Y-129230000D01*
X146270000Y-118000000D02*
X146270000Y-121230000D01*
X127270000Y-118000000D02*
X127270000Y-125270000D01*
X155900000Y-129600000D02*
X164270000Y-121230000D01*
X127250000Y-96500000D02*
X114000000Y-96500000D01*
X164270000Y-121230000D02*
X164270000Y-118000000D01*
X104250000Y-106250000D02*
X101975000Y-106250000D01*
X146270000Y-129230000D02*
X146640000Y-129600000D01*
X142000000Y-122000000D02*
X134500000Y-129500000D01*
X114000000Y-96500000D02*
X104250000Y-106250000D01*
X134000000Y-114000000D02*
X134000000Y-118000000D01*
X153000000Y-100000000D02*
X153000000Y-84000000D01*
X125000000Y-114500000D02*
X121500000Y-118000000D01*
X134000000Y-84000000D02*
X153000000Y-84000000D01*
X171000000Y-100000000D02*
X171000000Y-114500000D01*
X134000000Y-100000000D02*
X134000000Y-103500000D01*
X171000000Y-100000000D02*
X171000000Y-96500000D01*
X121500000Y-118000000D02*
X101975000Y-118000000D01*
X153000000Y-84000000D02*
X171000000Y-84000000D01*
X134000000Y-114000000D02*
X134000000Y-114500000D01*
X134000000Y-103500000D02*
X134000000Y-114000000D01*
X134000000Y-81000000D02*
X134000000Y-84000000D01*
X131500000Y-114500000D02*
X125000000Y-114500000D01*
X153000000Y-81000000D02*
X153000000Y-84000000D01*
X171000000Y-114500000D02*
X171000000Y-118000000D01*
X153000000Y-100000000D02*
X153000000Y-118000000D01*
X171000000Y-81000000D02*
X171000000Y-84000000D01*
X171000000Y-96500000D02*
X171000000Y-84000000D01*
X134000000Y-100000000D02*
X134000000Y-84000000D01*
X108750000Y-108750000D02*
X110500000Y-107000000D01*
X110500000Y-112500000D02*
X112460000Y-114460000D01*
X112500000Y-102960000D02*
X112275000Y-102960000D01*
X112500000Y-108730000D02*
X112275000Y-108730000D01*
X110500000Y-110505000D02*
X110500000Y-112500000D01*
X112275000Y-108730000D02*
X110500000Y-110505000D01*
X110500000Y-104735000D02*
X110500000Y-107000000D01*
X112275000Y-102960000D02*
X110500000Y-104735000D01*
X101975000Y-108750000D02*
X108750000Y-108750000D01*
X110500000Y-107000000D02*
X110500000Y-112500000D01*
X112460000Y-114460000D02*
X112500000Y-114460000D01*
X138000000Y-95500000D02*
X140000000Y-95500000D01*
X106500000Y-95000000D02*
X131000000Y-70500000D01*
X131000000Y-70500000D02*
X141200000Y-70500000D01*
X102000000Y-95000000D02*
X106500000Y-95000000D01*
X141448529Y-69900000D02*
X140951471Y-69900000D01*
X141548529Y-70000000D02*
X141448529Y-69900000D01*
X140951471Y-69900000D02*
X140851471Y-70000000D01*
X130500000Y-70000000D02*
X108000000Y-92500000D01*
X140851471Y-70000000D02*
X130500000Y-70000000D01*
X160500000Y-70000000D02*
X141548529Y-70000000D01*
X108000000Y-92500000D02*
X102000000Y-92500000D01*
X129500000Y-69000000D02*
X117000000Y-81500000D01*
X117000000Y-81500000D02*
X101975000Y-81500000D01*
X141250000Y-69000000D02*
X129500000Y-69000000D01*
X156500000Y-95500000D02*
X159000000Y-95500000D01*
X156500000Y-114500000D02*
X159500000Y-114500000D01*
X178000000Y-95500000D02*
X178000000Y-68500000D01*
X141001471Y-68400000D02*
X141498529Y-68400000D01*
X118500000Y-79000000D02*
X129000000Y-68500000D01*
X140901471Y-68500000D02*
X141001471Y-68400000D01*
X101975000Y-79000000D02*
X118500000Y-79000000D01*
X141598529Y-68500000D02*
X160500000Y-68500000D01*
X129000000Y-68500000D02*
X140901471Y-68500000D01*
X160500000Y-68500000D02*
X178000000Y-68500000D01*
X175000000Y-95500000D02*
X178000000Y-95500000D01*
X141498529Y-68400000D02*
X141598529Y-68500000D01*
X127500000Y-67000000D02*
X178500000Y-67000000D01*
X178600000Y-67100000D02*
X178600000Y-114400000D01*
X178600000Y-114400000D02*
X178500000Y-114500000D01*
X101975000Y-71500000D02*
X123000000Y-71500000D01*
X123000000Y-71500000D02*
X127500000Y-67000000D01*
X175000000Y-114500000D02*
X178500000Y-114500000D01*
X178500000Y-67000000D02*
X178600000Y-67100000D01*
X138000000Y-114000000D02*
X140500000Y-114000000D01*
X163000000Y-130000000D02*
X144000000Y-130000000D01*
X163000000Y-127400000D02*
X163000000Y-130000000D01*
X144000000Y-127400000D02*
X144000000Y-130000000D01*
X123500000Y-109500000D02*
X132500000Y-109500000D01*
X149000000Y-127400000D02*
X149000000Y-129000000D01*
X169500000Y-126000000D02*
X169500000Y-107500000D01*
X132500000Y-126000000D02*
X132500000Y-109500000D01*
X169500000Y-89000000D02*
X169500000Y-107500000D01*
X167500000Y-127400000D02*
X167500000Y-129000000D01*
X132500000Y-109500000D02*
X132500000Y-107500000D01*
X151000000Y-89000000D02*
X151000000Y-107500000D01*
X132500000Y-89000000D02*
X132500000Y-107500000D01*
X151000000Y-126000000D02*
X151000000Y-107500000D01*
X123000000Y-91750000D02*
X125750000Y-91750000D01*
M02*
