G04 #@! TF.GenerationSoftware,KiCad,Pcbnew,8.0.0*
G04 #@! TF.CreationDate,2024-03-14T11:38:26-06:00*
G04 #@! TF.ProjectId,ColorSensor,436f6c6f-7253-4656-9e73-6f722e6b6963,A*
G04 #@! TF.SameCoordinates,Original*
G04 #@! TF.FileFunction,Copper,L1,Top*
G04 #@! TF.FilePolarity,Positive*
%FSLAX46Y46*%
G04 Gerber Fmt 4.6, Leading zero omitted, Abs format (unit mm)*
G04 Created by KiCad (PCBNEW 8.0.0) date 2024-03-14 11:38:26*
%MOMM*%
%LPD*%
G01*
G04 APERTURE LIST*
G04 Aperture macros list*
%AMRoundRect*
0 Rectangle with rounded corners*
0 $1 Rounding radius*
0 $2 $3 $4 $5 $6 $7 $8 $9 X,Y pos of 4 corners*
0 Add a 4 corners polygon primitive as box body*
4,1,4,$2,$3,$4,$5,$6,$7,$8,$9,$2,$3,0*
0 Add four circle primitives for the rounded corners*
1,1,$1+$1,$2,$3*
1,1,$1+$1,$4,$5*
1,1,$1+$1,$6,$7*
1,1,$1+$1,$8,$9*
0 Add four rect primitives between the rounded corners*
20,1,$1+$1,$2,$3,$4,$5,0*
20,1,$1+$1,$4,$5,$6,$7,0*
20,1,$1+$1,$6,$7,$8,$9,0*
20,1,$1+$1,$8,$9,$2,$3,0*%
%AMOutline5P*
0 Free polygon, 5 corners , with rotation*
0 The origin of the aperture is its center*
0 number of corners: always 5*
0 $1 to $10 corner X, Y*
0 $11 Rotation angle, in degrees counterclockwise*
0 create outline with 5 corners*
4,1,5,$1,$2,$3,$4,$5,$6,$7,$8,$9,$10,$1,$2,$11*%
%AMOutline6P*
0 Free polygon, 6 corners , with rotation*
0 The origin of the aperture is its center*
0 number of corners: always 6*
0 $1 to $12 corner X, Y*
0 $13 Rotation angle, in degrees counterclockwise*
0 create outline with 6 corners*
4,1,6,$1,$2,$3,$4,$5,$6,$7,$8,$9,$10,$11,$12,$1,$2,$13*%
%AMOutline7P*
0 Free polygon, 7 corners , with rotation*
0 The origin of the aperture is its center*
0 number of corners: always 7*
0 $1 to $14 corner X, Y*
0 $15 Rotation angle, in degrees counterclockwise*
0 create outline with 7 corners*
4,1,7,$1,$2,$3,$4,$5,$6,$7,$8,$9,$10,$11,$12,$13,$14,$1,$2,$15*%
%AMOutline8P*
0 Free polygon, 8 corners , with rotation*
0 The origin of the aperture is its center*
0 number of corners: always 8*
0 $1 to $16 corner X, Y*
0 $17 Rotation angle, in degrees counterclockwise*
0 create outline with 8 corners*
4,1,8,$1,$2,$3,$4,$5,$6,$7,$8,$9,$10,$11,$12,$13,$14,$15,$16,$1,$2,$17*%
G04 Aperture macros list end*
G04 #@! TA.AperFunction,SMDPad,CuDef*
%ADD10RoundRect,0.250000X0.450000X-0.262500X0.450000X0.262500X-0.450000X0.262500X-0.450000X-0.262500X0*%
G04 #@! TD*
G04 #@! TA.AperFunction,ComponentPad*
%ADD11Outline6P,-0.900000X0.540000X-0.540000X0.900000X0.540000X0.900000X0.900000X0.540000X0.900000X-0.900000X-0.900000X-0.900000X0.000000*%
G04 #@! TD*
G04 #@! TA.AperFunction,ComponentPad*
%ADD12C,1.800000*%
G04 #@! TD*
G04 #@! TA.AperFunction,SMDPad,CuDef*
%ADD13RoundRect,0.250000X-0.450000X0.262500X-0.450000X-0.262500X0.450000X-0.262500X0.450000X0.262500X0*%
G04 #@! TD*
G04 #@! TA.AperFunction,ComponentPad*
%ADD14O,1.950000X1.700000*%
G04 #@! TD*
G04 #@! TA.AperFunction,ComponentPad*
%ADD15R,1.500000X1.050000*%
G04 #@! TD*
G04 #@! TA.AperFunction,ComponentPad*
%ADD16O,1.500000X1.050000*%
G04 #@! TD*
G04 #@! TA.AperFunction,ComponentPad*
%ADD17O,1.070000X1.800000*%
G04 #@! TD*
G04 #@! TA.AperFunction,ComponentPad*
%ADD18R,1.070000X1.800000*%
G04 #@! TD*
G04 #@! TA.AperFunction,SMDPad,CuDef*
%ADD19RoundRect,0.250000X-0.262500X-0.450000X0.262500X-0.450000X0.262500X0.450000X-0.262500X0.450000X0*%
G04 #@! TD*
G04 #@! TA.AperFunction,ComponentPad*
%ADD20Outline6P,-0.850000X0.660000X-0.510000X1.000000X0.510000X1.000000X0.850000X0.660000X0.850000X-1.000000X-0.850000X-1.000000X90.000000*%
G04 #@! TD*
G04 #@! TA.AperFunction,ComponentPad*
%ADD21RoundRect,0.250000X0.750000X-0.600000X0.750000X0.600000X-0.750000X0.600000X-0.750000X-0.600000X0*%
G04 #@! TD*
G04 #@! TA.AperFunction,ComponentPad*
%ADD22Outline6P,-0.850000X0.635000X-0.510000X0.975000X0.510000X0.975000X0.850000X0.635000X0.850000X-0.975000X-0.850000X-0.975000X90.000000*%
G04 #@! TD*
G04 #@! TA.AperFunction,ViaPad*
%ADD23C,0.600000*%
G04 #@! TD*
G04 #@! TA.AperFunction,Conductor*
%ADD24C,0.200000*%
G04 #@! TD*
G04 APERTURE END LIST*
D10*
X125500000Y-107412500D03*
X125500000Y-105587500D03*
D11*
X134000000Y-81000000D03*
D12*
X136540000Y-81000000D03*
D13*
X156500000Y-92087500D03*
X156500000Y-93912500D03*
D11*
X171000000Y-100000000D03*
D12*
X173540000Y-100000000D03*
D10*
X135500000Y-88912500D03*
X135500000Y-87087500D03*
D11*
X153000000Y-118000000D03*
D12*
X155540000Y-118000000D03*
D14*
X101975000Y-81500000D03*
X101975000Y-79000000D03*
X101975000Y-76500000D03*
X101975000Y-74000000D03*
X101975000Y-71500000D03*
D13*
X138000000Y-73587500D03*
X138000000Y-75412500D03*
D10*
X172500000Y-125825000D03*
X172500000Y-124000000D03*
D15*
X112500000Y-105500000D03*
D16*
X112500000Y-104230000D03*
X112500000Y-102960000D03*
D17*
X126000000Y-100000000D03*
D18*
X127270000Y-100000000D03*
D17*
X128540000Y-100000000D03*
X129810000Y-100000000D03*
D13*
X175000000Y-92087500D03*
X175000000Y-93912500D03*
D11*
X153000000Y-100000000D03*
D12*
X155540000Y-100000000D03*
D10*
X125500000Y-126000000D03*
X125500000Y-124175000D03*
D15*
X112500000Y-117000000D03*
D16*
X112500000Y-115730000D03*
X112500000Y-114460000D03*
D10*
X154500000Y-88825000D03*
X154500000Y-87000000D03*
X130500000Y-125912500D03*
X130500000Y-124087500D03*
X172500000Y-88825000D03*
X172500000Y-87000000D03*
X167500000Y-107325000D03*
X167500000Y-105500000D03*
D11*
X171000000Y-81000000D03*
D12*
X173540000Y-81000000D03*
D10*
X167500000Y-88825000D03*
X167500000Y-87000000D03*
X135500000Y-125912500D03*
X135500000Y-124087500D03*
D19*
X107087500Y-127500000D03*
X108912500Y-127500000D03*
D13*
X175000000Y-73587500D03*
X175000000Y-75412500D03*
D15*
X112500000Y-111270000D03*
D16*
X112500000Y-110000000D03*
X112500000Y-108730000D03*
D10*
X130500000Y-107412500D03*
X130500000Y-105587500D03*
D17*
X163000000Y-100000000D03*
D18*
X164270000Y-100000000D03*
D17*
X165540000Y-100000000D03*
X166810000Y-100000000D03*
D10*
X154500000Y-125912500D03*
X154500000Y-124087500D03*
X149000000Y-125912500D03*
X149000000Y-124087500D03*
D11*
X153000000Y-81000000D03*
D12*
X155540000Y-81000000D03*
D10*
X144000000Y-107412500D03*
X144000000Y-105587500D03*
X135500000Y-107412500D03*
X135500000Y-105587500D03*
X154500000Y-107412500D03*
X154500000Y-105587500D03*
D19*
X107087500Y-124000000D03*
X108912500Y-124000000D03*
D10*
X130500000Y-88912500D03*
X130500000Y-87087500D03*
D11*
X171000000Y-118000000D03*
D12*
X173540000Y-118000000D03*
D13*
X138000000Y-111087500D03*
X138000000Y-112912500D03*
D17*
X145000000Y-100000000D03*
D18*
X146270000Y-100000000D03*
D17*
X147540000Y-100000000D03*
X148810000Y-100000000D03*
D10*
X149000000Y-88912500D03*
X149000000Y-87087500D03*
D17*
X145000000Y-118000000D03*
D18*
X146270000Y-118000000D03*
D17*
X147540000Y-118000000D03*
X148810000Y-118000000D03*
D10*
X167500000Y-125912500D03*
X167500000Y-124087500D03*
D20*
X101975000Y-108750000D03*
D21*
X101975000Y-106250000D03*
D10*
X125500000Y-88912500D03*
X125500000Y-87087500D03*
D13*
X175000000Y-111087500D03*
X175000000Y-112912500D03*
D10*
X162500000Y-107325000D03*
X162500000Y-105500000D03*
D19*
X107087500Y-120500000D03*
X108912500Y-120500000D03*
D10*
X163000000Y-125825000D03*
X163000000Y-124000000D03*
D13*
X138000000Y-92087500D03*
X138000000Y-93912500D03*
D10*
X149000000Y-107412500D03*
X149000000Y-105587500D03*
D17*
X163000000Y-81000000D03*
D18*
X164270000Y-81000000D03*
D17*
X165540000Y-81000000D03*
X166810000Y-81000000D03*
X126000000Y-118000000D03*
D18*
X127270000Y-118000000D03*
D17*
X128540000Y-118000000D03*
X129810000Y-118000000D03*
X145000000Y-81000000D03*
D18*
X146270000Y-81000000D03*
D17*
X147540000Y-81000000D03*
X148810000Y-81000000D03*
D10*
X172500000Y-107500000D03*
X172500000Y-105675000D03*
D14*
X102000000Y-97500000D03*
X102000000Y-95000000D03*
X102000000Y-92500000D03*
X102000000Y-90000000D03*
D10*
X144000000Y-125912500D03*
X144000000Y-124087500D03*
D11*
X134000000Y-100000000D03*
D12*
X136540000Y-100000000D03*
D13*
X156500000Y-73587500D03*
X156500000Y-75412500D03*
D11*
X134000000Y-118000000D03*
D12*
X136540000Y-118000000D03*
D17*
X163000000Y-118000000D03*
D18*
X164270000Y-118000000D03*
D17*
X165540000Y-118000000D03*
X166810000Y-118000000D03*
D10*
X162500000Y-88825000D03*
X162500000Y-87000000D03*
D17*
X126000000Y-81000000D03*
D18*
X127270000Y-81000000D03*
D17*
X128540000Y-81000000D03*
X129810000Y-81000000D03*
D13*
X156500000Y-111087500D03*
X156500000Y-112912500D03*
D10*
X144000000Y-88825000D03*
X144000000Y-87000000D03*
D14*
X101975000Y-125500000D03*
X101975000Y-123000000D03*
X101975000Y-120500000D03*
D22*
X101975000Y-118000000D03*
D23*
X134000000Y-114500000D03*
X131500000Y-114500000D03*
X138000000Y-95500000D03*
X140000000Y-95500000D03*
X141200000Y-70500000D03*
X160500000Y-70000000D03*
X159000000Y-95500000D03*
X141250000Y-69000000D03*
X156500000Y-95500000D03*
X156500000Y-114500000D03*
X159500000Y-114500000D03*
X175000000Y-95500000D03*
X175000000Y-114500000D03*
X138000000Y-114000000D03*
X140500000Y-114000000D03*
X163000000Y-127400000D03*
X144000000Y-127400000D03*
X144000000Y-130000000D03*
X151000000Y-89000000D03*
X132500000Y-107500000D03*
X169500000Y-107500000D03*
X167500000Y-129000000D03*
X151000000Y-126000000D03*
X151000000Y-107500000D03*
X132500000Y-89000000D03*
X169500000Y-126000000D03*
X167500000Y-127400000D03*
X149000000Y-129000000D03*
X123500000Y-109500000D03*
X169500000Y-89000000D03*
X132500000Y-126000000D03*
X149000000Y-127400000D03*
X123000000Y-91750000D03*
X125750000Y-91750000D03*
D24*
X128540000Y-85127500D02*
X130500000Y-87087500D01*
X128540000Y-81000000D02*
X128540000Y-85127500D01*
X129810000Y-81397500D02*
X135500000Y-87087500D01*
X126000000Y-86587500D02*
X125500000Y-87087500D01*
X126000000Y-81000000D02*
X126000000Y-86587500D01*
X127270000Y-80635000D02*
X134317500Y-73587500D01*
X127270000Y-117635000D02*
X133817500Y-111087500D01*
X152906632Y-111087500D02*
X156500000Y-111087500D01*
X127270000Y-99635000D02*
X134817500Y-92087500D01*
X127250000Y-96500000D02*
X127270000Y-96480000D01*
X164270000Y-100000000D02*
X164270000Y-81000000D01*
X146270000Y-118000000D02*
X146270000Y-100000000D01*
X146270000Y-117724132D02*
X152906632Y-111087500D01*
X164270000Y-117635000D02*
X170817500Y-111087500D01*
X164270000Y-117635000D02*
X164270000Y-100000000D01*
X170817500Y-111087500D02*
X175000000Y-111087500D01*
X127270000Y-118000000D02*
X127270000Y-100000000D01*
X171317500Y-73587500D02*
X175000000Y-73587500D01*
X146270000Y-80635000D02*
X153317500Y-73587500D01*
X164270000Y-99635000D02*
X171817500Y-92087500D01*
X134817500Y-92087500D02*
X138000000Y-92087500D01*
X153317500Y-73587500D02*
X156500000Y-73587500D01*
X133817500Y-111087500D02*
X138000000Y-111087500D01*
X171817500Y-92087500D02*
X175000000Y-92087500D01*
X134317500Y-73587500D02*
X138000000Y-73587500D01*
X127250000Y-96500000D02*
X127270000Y-96520000D01*
X146270000Y-100000000D02*
X146270000Y-81000000D01*
X164270000Y-80635000D02*
X171317500Y-73587500D01*
X146270000Y-99635000D02*
X153817500Y-92087500D01*
X153817500Y-92087500D02*
X156500000Y-92087500D01*
X148810000Y-81000000D02*
X154000000Y-86190000D01*
X154000000Y-86190000D02*
X154000000Y-87000000D01*
X145000000Y-86000000D02*
X144000000Y-87000000D01*
X145000000Y-81000000D02*
X145000000Y-86000000D01*
X147540000Y-81000000D02*
X147540000Y-85627500D01*
X147540000Y-85627500D02*
X149000000Y-87087500D01*
X163000000Y-81000000D02*
X163000000Y-86500000D01*
X163000000Y-86500000D02*
X162500000Y-87000000D01*
X166810000Y-81310000D02*
X172500000Y-87000000D01*
X165540000Y-85040000D02*
X167500000Y-87000000D01*
X165540000Y-81000000D02*
X165540000Y-85040000D01*
X128540000Y-103627500D02*
X130500000Y-105587500D01*
X128540000Y-100000000D02*
X128540000Y-103627500D01*
X129912500Y-100000000D02*
X135500000Y-105587500D01*
X126000000Y-100000000D02*
X126000000Y-105087500D01*
X126000000Y-105087500D02*
X125500000Y-105587500D01*
X148810000Y-100000000D02*
X154000000Y-105190000D01*
X145000000Y-100000000D02*
X145000000Y-104587500D01*
X145000000Y-104587500D02*
X144000000Y-105587500D01*
X147540000Y-100000000D02*
X147540000Y-104127500D01*
X147540000Y-104127500D02*
X149000000Y-105587500D01*
X163000000Y-100000000D02*
X163000000Y-105000000D01*
X163000000Y-105000000D02*
X162500000Y-105500000D01*
X165540000Y-103540000D02*
X167500000Y-105500000D01*
X165540000Y-100000000D02*
X165540000Y-103540000D01*
X166825000Y-100000000D02*
X172500000Y-105675000D01*
X126000000Y-118000000D02*
X126000000Y-123675000D01*
X126000000Y-123675000D02*
X125500000Y-124175000D01*
X129810000Y-118397500D02*
X135500000Y-124087500D01*
X128540000Y-122127500D02*
X130500000Y-124087500D01*
X128540000Y-118000000D02*
X128540000Y-122127500D01*
X147540000Y-122627500D02*
X149000000Y-124087500D01*
X147540000Y-118000000D02*
X147540000Y-122627500D01*
X145000000Y-118000000D02*
X145000000Y-123087500D01*
X145000000Y-123087500D02*
X144000000Y-124087500D01*
X148810000Y-118000000D02*
X154000000Y-123190000D01*
X154000000Y-123190000D02*
X154000000Y-124087500D01*
X163000000Y-118000000D02*
X163000000Y-124000000D01*
X166810000Y-118310000D02*
X172500000Y-124000000D01*
X165540000Y-122127500D02*
X167500000Y-124087500D01*
X165540000Y-118000000D02*
X165540000Y-122127500D01*
X106087500Y-123000000D02*
X107087500Y-124000000D01*
X101975000Y-123000000D02*
X106087500Y-123000000D01*
X131500000Y-114500000D02*
X134000000Y-114500000D01*
X105087500Y-125500000D02*
X107087500Y-127500000D01*
X101975000Y-125500000D02*
X105087500Y-125500000D01*
X101975000Y-120500000D02*
X107087500Y-120500000D01*
X139500000Y-72500000D02*
X138000000Y-71000000D01*
X131500000Y-71000000D02*
X105000000Y-97500000D01*
X136540000Y-76872500D02*
X138000000Y-75412500D01*
X136540000Y-81000000D02*
X136540000Y-76872500D01*
X138000000Y-71000000D02*
X131500000Y-71000000D01*
X139500000Y-73912500D02*
X139500000Y-72500000D01*
X138000000Y-75412500D02*
X139500000Y-73912500D01*
X105000000Y-97500000D02*
X102000000Y-97500000D01*
X140000000Y-69500000D02*
X140000000Y-95500000D01*
X102000000Y-90000000D02*
X109500000Y-90000000D01*
X136540000Y-95372500D02*
X138000000Y-93912500D01*
X138000000Y-93912500D02*
X138000000Y-95500000D01*
X136540000Y-100000000D02*
X136540000Y-95372500D01*
X130000000Y-69500000D02*
X140000000Y-69500000D01*
X109500000Y-90000000D02*
X130000000Y-69500000D01*
X156500000Y-75412500D02*
X158500000Y-73412500D01*
X158500000Y-70500000D02*
X141200000Y-70500000D01*
X158500000Y-73412500D02*
X158500000Y-70500000D01*
X155540000Y-76372500D02*
X156500000Y-75412500D01*
X155540000Y-81000000D02*
X155540000Y-76372500D01*
X160500000Y-70000000D02*
X177500000Y-70000000D01*
X177500000Y-72912500D02*
X175000000Y-75412500D01*
X177500000Y-70000000D02*
X177500000Y-72912500D01*
X173540000Y-81000000D02*
X173540000Y-76872500D01*
X173540000Y-76872500D02*
X175000000Y-75412500D01*
X158500000Y-69000000D02*
X159000000Y-69500000D01*
X156500000Y-93912500D02*
X156500000Y-95500000D01*
X155540000Y-100000000D02*
X155540000Y-94872500D01*
X159000000Y-69500000D02*
X159000000Y-95500000D01*
X141250000Y-69000000D02*
X158500000Y-69000000D01*
X155540000Y-94872500D02*
X156500000Y-93912500D01*
X121500000Y-74000000D02*
X128000000Y-67500000D01*
X156500000Y-112912500D02*
X156500000Y-114500000D01*
X155540000Y-113872500D02*
X156500000Y-112912500D01*
X159600000Y-67600000D02*
X159600000Y-114400000D01*
X155540000Y-118000000D02*
X155540000Y-113872500D01*
X159500000Y-67500000D02*
X159600000Y-67600000D01*
X159600000Y-114400000D02*
X159500000Y-114500000D01*
X128000000Y-67500000D02*
X159500000Y-67500000D01*
X101975000Y-74000000D02*
X121500000Y-74000000D01*
X173540000Y-95372500D02*
X175000000Y-93912500D01*
X175000000Y-93912500D02*
X175000000Y-95500000D01*
X173540000Y-100000000D02*
X173540000Y-95372500D01*
X175000000Y-112912500D02*
X175000000Y-114500000D01*
X173540000Y-118000000D02*
X173540000Y-114372500D01*
X173540000Y-114372500D02*
X175000000Y-112912500D01*
X128500000Y-68000000D02*
X120000000Y-76500000D01*
X138000000Y-112912500D02*
X138000000Y-114000000D01*
X140600000Y-113900000D02*
X140600000Y-68100000D01*
X140500000Y-114000000D02*
X140600000Y-113900000D01*
X140600000Y-68100000D02*
X140500000Y-68000000D01*
X136540000Y-114372500D02*
X138000000Y-112912500D01*
X120000000Y-76500000D02*
X101975000Y-76500000D01*
X140500000Y-68000000D02*
X128500000Y-68000000D01*
X136540000Y-118000000D02*
X136540000Y-114372500D01*
X144000000Y-88825000D02*
X143000000Y-89825000D01*
X124500000Y-106412500D02*
X125500000Y-107412500D01*
X124500000Y-89912500D02*
X124500000Y-106412500D01*
X125500000Y-107412500D02*
X124500000Y-108412500D01*
X116500000Y-117000000D02*
X125500000Y-126000000D01*
X143000000Y-106412500D02*
X144000000Y-107412500D01*
X163000000Y-125825000D02*
X162000000Y-124825000D01*
X144000000Y-125912500D02*
X144000000Y-127400000D01*
X143000000Y-89825000D02*
X143000000Y-106412500D01*
X125500000Y-88912500D02*
X124500000Y-89912500D01*
X124500000Y-125000000D02*
X125500000Y-126000000D01*
X143000000Y-108412500D02*
X143000000Y-124912500D01*
X161500000Y-106325000D02*
X161500000Y-89825000D01*
X163000000Y-125825000D02*
X163000000Y-127400000D01*
X124500000Y-108412500D02*
X124500000Y-125000000D01*
X162000000Y-124825000D02*
X162000000Y-107825000D01*
X143000000Y-124912500D02*
X144000000Y-125912500D01*
X162500000Y-107325000D02*
X161500000Y-106325000D01*
X162000000Y-107825000D02*
X162500000Y-107325000D01*
X161500000Y-89825000D02*
X162500000Y-88825000D01*
X125500000Y-126000000D02*
X129500000Y-130000000D01*
X112500000Y-117000000D02*
X116500000Y-117000000D01*
X129500000Y-130000000D02*
X144000000Y-130000000D01*
X144000000Y-107412500D02*
X143000000Y-108412500D01*
X112500000Y-115730000D02*
X111550000Y-115730000D01*
X111550000Y-115730000D02*
X110300000Y-116980000D01*
X110300000Y-116980000D02*
X110300000Y-126112500D01*
X110300000Y-126112500D02*
X108912500Y-127500000D01*
X109900000Y-123012500D02*
X109900000Y-111650000D01*
X109900000Y-111650000D02*
X111550000Y-110000000D01*
X111550000Y-110000000D02*
X112500000Y-110000000D01*
X108912500Y-124000000D02*
X109900000Y-123012500D01*
X167500000Y-125912500D02*
X167500000Y-127400000D01*
X132412500Y-125912500D02*
X132500000Y-126000000D01*
X169325000Y-107325000D02*
X167500000Y-107325000D01*
X169412500Y-125912500D02*
X169500000Y-126000000D01*
X169325000Y-88825000D02*
X169500000Y-89000000D01*
X167500000Y-125912500D02*
X169412500Y-125912500D01*
X130500000Y-125912500D02*
X133587500Y-129000000D01*
X149000000Y-88912500D02*
X150912500Y-88912500D01*
X121730000Y-111270000D02*
X123500000Y-109500000D01*
X149000000Y-125912500D02*
X150912500Y-125912500D01*
X150912500Y-88912500D02*
X151000000Y-89000000D01*
X149000000Y-125912500D02*
X149000000Y-127400000D01*
X132412500Y-107412500D02*
X130500000Y-107412500D01*
X130500000Y-125912500D02*
X132412500Y-125912500D01*
X132412500Y-88912500D02*
X132500000Y-89000000D01*
X169500000Y-107500000D02*
X169325000Y-107325000D01*
X130500000Y-88912500D02*
X132412500Y-88912500D01*
X150912500Y-125912500D02*
X151000000Y-126000000D01*
X151000000Y-107500000D02*
X149087500Y-107500000D01*
X112500000Y-111270000D02*
X121730000Y-111270000D01*
X149000000Y-129000000D02*
X167500000Y-129000000D01*
X132500000Y-107500000D02*
X132412500Y-107412500D01*
X167500000Y-88825000D02*
X169325000Y-88825000D01*
X133587500Y-129000000D02*
X149000000Y-129000000D01*
X108912500Y-120500000D02*
X108912500Y-106867500D01*
X108912500Y-106867500D02*
X111550000Y-104230000D01*
X111550000Y-104230000D02*
X112500000Y-104230000D01*
X136412500Y-107412500D02*
X135500000Y-107412500D01*
X135500000Y-125912500D02*
X137587500Y-128000000D01*
X151912500Y-128000000D02*
X154000000Y-125912500D01*
X172500000Y-88825000D02*
X174075000Y-88825000D01*
X173700000Y-125825000D02*
X176000000Y-123525000D01*
X139000000Y-122412500D02*
X139000000Y-110000000D01*
X176500000Y-103500000D02*
X172500000Y-107500000D01*
X173000000Y-125825000D02*
X173700000Y-125825000D01*
X154000000Y-125912500D02*
X156087500Y-128000000D01*
X154500000Y-107412500D02*
X158000000Y-103912500D01*
X155614936Y-88825000D02*
X154734744Y-88825000D01*
X158000000Y-91210064D02*
X155614936Y-88825000D01*
X158000000Y-103912500D02*
X158000000Y-91210064D01*
X139250000Y-103662500D02*
X135500000Y-107412500D01*
X135500000Y-88912500D02*
X136912500Y-88912500D01*
X135500000Y-125912500D02*
X139000000Y-122412500D01*
X157500000Y-110212500D02*
X154700000Y-107412500D01*
X136912500Y-88912500D02*
X139250000Y-91250000D01*
X176000000Y-110500000D02*
X173000000Y-107500000D01*
X154500000Y-125912500D02*
X157500000Y-122912500D01*
X157500000Y-122912500D02*
X157500000Y-110212500D01*
X174075000Y-88825000D02*
X176500000Y-91250000D01*
X139000000Y-110000000D02*
X136412500Y-107412500D01*
X117500000Y-105500000D02*
X112725000Y-105500000D01*
X170325000Y-128000000D02*
X172500000Y-125825000D01*
X132662500Y-91750000D02*
X135500000Y-88912500D01*
X139250000Y-91250000D02*
X139250000Y-103662500D01*
X156087500Y-128000000D02*
X170325000Y-128000000D01*
X125750000Y-91750000D02*
X132662500Y-91750000D01*
X123000000Y-91750000D02*
X119250000Y-95500000D01*
X176000000Y-123525000D02*
X176000000Y-110500000D01*
X137587500Y-128000000D02*
X151912500Y-128000000D01*
X176500000Y-91250000D02*
X176500000Y-103500000D01*
X119250000Y-95500000D02*
X119250000Y-103750000D01*
X119250000Y-103750000D02*
X117500000Y-105500000D01*
M02*
