G04 #@! TF.GenerationSoftware,KiCad,Pcbnew,8.0.0*
G04 #@! TF.CreationDate,2024-03-14T11:38:26-06:00*
G04 #@! TF.ProjectId,ColorSensor,436f6c6f-7253-4656-9e73-6f722e6b6963,A*
G04 #@! TF.SameCoordinates,Original*
G04 #@! TF.FileFunction,Legend,Top*
G04 #@! TF.FilePolarity,Positive*
%FSLAX46Y46*%
G04 Gerber Fmt 4.6, Leading zero omitted, Abs format (unit mm)*
G04 Created by KiCad (PCBNEW 8.0.0) date 2024-03-14 11:38:26*
%MOMM*%
%LPD*%
G01*
G04 APERTURE LIST*
%ADD10C,0.100000*%
%ADD11C,1.000000*%
%ADD12C,0.400000*%
%ADD13C,0.200000*%
%ADD14C,0.300000*%
%ADD15C,0.150000*%
%ADD16C,0.120000*%
G04 APERTURE END LIST*
D10*
X122000000Y-72000000D02*
X178000000Y-72000000D01*
X178000000Y-128000000D01*
X122000000Y-128000000D01*
X122000000Y-72000000D01*
D11*
X159333333Y-72000000D02*
X178000000Y-72000000D01*
X178000000Y-128000000D01*
X159333333Y-128000000D01*
X159333333Y-72000000D01*
X122000000Y-72000000D02*
X178000000Y-72000000D01*
X178000000Y-90666667D01*
X122000000Y-90666667D01*
X122000000Y-72000000D01*
X122000000Y-109333333D02*
X178000000Y-109333333D01*
X178000000Y-128000000D01*
X122000000Y-128000000D01*
X122000000Y-109333333D01*
X122000000Y-72000000D02*
X140666667Y-72000000D01*
X140666667Y-128000000D01*
X122000000Y-128000000D01*
X122000000Y-72000000D01*
D12*
X142334585Y-73897771D02*
X142477442Y-73754914D01*
X142477442Y-73754914D02*
X142763157Y-73612057D01*
X142763157Y-73612057D02*
X143477442Y-73612057D01*
X143477442Y-73612057D02*
X143763157Y-73754914D01*
X143763157Y-73754914D02*
X143906014Y-73897771D01*
X143906014Y-73897771D02*
X144048871Y-74183485D01*
X144048871Y-74183485D02*
X144048871Y-74469200D01*
X144048871Y-74469200D02*
X143906014Y-74897771D01*
X143906014Y-74897771D02*
X142191728Y-76612057D01*
X142191728Y-76612057D02*
X144048871Y-76612057D01*
D13*
X166941101Y-134771980D02*
X166893482Y-134819600D01*
X166893482Y-134819600D02*
X166750625Y-134867219D01*
X166750625Y-134867219D02*
X166655387Y-134867219D01*
X166655387Y-134867219D02*
X166512530Y-134819600D01*
X166512530Y-134819600D02*
X166417292Y-134724361D01*
X166417292Y-134724361D02*
X166369673Y-134629123D01*
X166369673Y-134629123D02*
X166322054Y-134438647D01*
X166322054Y-134438647D02*
X166322054Y-134295790D01*
X166322054Y-134295790D02*
X166369673Y-134105314D01*
X166369673Y-134105314D02*
X166417292Y-134010076D01*
X166417292Y-134010076D02*
X166512530Y-133914838D01*
X166512530Y-133914838D02*
X166655387Y-133867219D01*
X166655387Y-133867219D02*
X166750625Y-133867219D01*
X166750625Y-133867219D02*
X166893482Y-133914838D01*
X166893482Y-133914838D02*
X166941101Y-133962457D01*
X167369673Y-134867219D02*
X167369673Y-133867219D01*
X167369673Y-134343409D02*
X167941101Y-134343409D01*
X167941101Y-134867219D02*
X167941101Y-133867219D01*
X168369673Y-134581504D02*
X168845863Y-134581504D01*
X168274435Y-134867219D02*
X168607768Y-133867219D01*
X168607768Y-133867219D02*
X168941101Y-134867219D01*
X169845863Y-134867219D02*
X169512530Y-134391028D01*
X169274435Y-134867219D02*
X169274435Y-133867219D01*
X169274435Y-133867219D02*
X169655387Y-133867219D01*
X169655387Y-133867219D02*
X169750625Y-133914838D01*
X169750625Y-133914838D02*
X169798244Y-133962457D01*
X169798244Y-133962457D02*
X169845863Y-134057695D01*
X169845863Y-134057695D02*
X169845863Y-134200552D01*
X169845863Y-134200552D02*
X169798244Y-134295790D01*
X169798244Y-134295790D02*
X169750625Y-134343409D01*
X169750625Y-134343409D02*
X169655387Y-134391028D01*
X169655387Y-134391028D02*
X169274435Y-134391028D01*
X170750625Y-134867219D02*
X170274435Y-134867219D01*
X170274435Y-134867219D02*
X170274435Y-133867219D01*
X171083959Y-134867219D02*
X171083959Y-133867219D01*
X171560149Y-134343409D02*
X171893482Y-134343409D01*
X172036339Y-134867219D02*
X171560149Y-134867219D01*
X171560149Y-134867219D02*
X171560149Y-133867219D01*
X171560149Y-133867219D02*
X172036339Y-133867219D01*
X173703006Y-134867219D02*
X173226816Y-134867219D01*
X173226816Y-134867219D02*
X173226816Y-133867219D01*
X173988721Y-134581504D02*
X174464911Y-134581504D01*
X173893483Y-134867219D02*
X174226816Y-133867219D01*
X174226816Y-133867219D02*
X174560149Y-134867219D01*
X174893483Y-134867219D02*
X174893483Y-133867219D01*
X174893483Y-133867219D02*
X175226816Y-134581504D01*
X175226816Y-134581504D02*
X175560149Y-133867219D01*
X175560149Y-133867219D02*
X175560149Y-134867219D01*
X176369673Y-134343409D02*
X176512530Y-134391028D01*
X176512530Y-134391028D02*
X176560149Y-134438647D01*
X176560149Y-134438647D02*
X176607768Y-134533885D01*
X176607768Y-134533885D02*
X176607768Y-134676742D01*
X176607768Y-134676742D02*
X176560149Y-134771980D01*
X176560149Y-134771980D02*
X176512530Y-134819600D01*
X176512530Y-134819600D02*
X176417292Y-134867219D01*
X176417292Y-134867219D02*
X176036340Y-134867219D01*
X176036340Y-134867219D02*
X176036340Y-133867219D01*
X176036340Y-133867219D02*
X176369673Y-133867219D01*
X176369673Y-133867219D02*
X176464911Y-133914838D01*
X176464911Y-133914838D02*
X176512530Y-133962457D01*
X176512530Y-133962457D02*
X176560149Y-134057695D01*
X176560149Y-134057695D02*
X176560149Y-134152933D01*
X176560149Y-134152933D02*
X176512530Y-134248171D01*
X176512530Y-134248171D02*
X176464911Y-134295790D01*
X176464911Y-134295790D02*
X176369673Y-134343409D01*
X176369673Y-134343409D02*
X176036340Y-134343409D01*
X177036340Y-134343409D02*
X177369673Y-134343409D01*
X177512530Y-134867219D02*
X177036340Y-134867219D01*
X177036340Y-134867219D02*
X177036340Y-133867219D01*
X177036340Y-133867219D02*
X177512530Y-133867219D01*
X178512530Y-134867219D02*
X178179197Y-134391028D01*
X177941102Y-134867219D02*
X177941102Y-133867219D01*
X177941102Y-133867219D02*
X178322054Y-133867219D01*
X178322054Y-133867219D02*
X178417292Y-133914838D01*
X178417292Y-133914838D02*
X178464911Y-133962457D01*
X178464911Y-133962457D02*
X178512530Y-134057695D01*
X178512530Y-134057695D02*
X178512530Y-134200552D01*
X178512530Y-134200552D02*
X178464911Y-134295790D01*
X178464911Y-134295790D02*
X178417292Y-134343409D01*
X178417292Y-134343409D02*
X178322054Y-134391028D01*
X178322054Y-134391028D02*
X177941102Y-134391028D01*
X178798245Y-133867219D02*
X179369673Y-133867219D01*
X179083959Y-134867219D02*
X179083959Y-133867219D01*
X98330504Y-125316041D02*
X97711457Y-125749374D01*
X98330504Y-126058898D02*
X97030504Y-126058898D01*
X97030504Y-126058898D02*
X97030504Y-125563660D01*
X97030504Y-125563660D02*
X97092409Y-125439850D01*
X97092409Y-125439850D02*
X97154314Y-125377945D01*
X97154314Y-125377945D02*
X97278123Y-125316041D01*
X97278123Y-125316041D02*
X97463838Y-125316041D01*
X97463838Y-125316041D02*
X97587647Y-125377945D01*
X97587647Y-125377945D02*
X97649552Y-125439850D01*
X97649552Y-125439850D02*
X97711457Y-125563660D01*
X97711457Y-125563660D02*
X97711457Y-126058898D01*
X97092409Y-123087469D02*
X97030504Y-123211279D01*
X97030504Y-123211279D02*
X97030504Y-123396993D01*
X97030504Y-123396993D02*
X97092409Y-123582707D01*
X97092409Y-123582707D02*
X97216219Y-123706517D01*
X97216219Y-123706517D02*
X97340028Y-123768422D01*
X97340028Y-123768422D02*
X97587647Y-123830326D01*
X97587647Y-123830326D02*
X97773361Y-123830326D01*
X97773361Y-123830326D02*
X98020980Y-123768422D01*
X98020980Y-123768422D02*
X98144790Y-123706517D01*
X98144790Y-123706517D02*
X98268600Y-123582707D01*
X98268600Y-123582707D02*
X98330504Y-123396993D01*
X98330504Y-123396993D02*
X98330504Y-123273184D01*
X98330504Y-123273184D02*
X98268600Y-123087469D01*
X98268600Y-123087469D02*
X98206695Y-123025565D01*
X98206695Y-123025565D02*
X97773361Y-123025565D01*
X97773361Y-123025565D02*
X97773361Y-123273184D01*
X97649552Y-121044612D02*
X97711457Y-120858898D01*
X97711457Y-120858898D02*
X97773361Y-120796993D01*
X97773361Y-120796993D02*
X97897171Y-120735089D01*
X97897171Y-120735089D02*
X98082885Y-120735089D01*
X98082885Y-120735089D02*
X98206695Y-120796993D01*
X98206695Y-120796993D02*
X98268600Y-120858898D01*
X98268600Y-120858898D02*
X98330504Y-120982708D01*
X98330504Y-120982708D02*
X98330504Y-121477946D01*
X98330504Y-121477946D02*
X97030504Y-121477946D01*
X97030504Y-121477946D02*
X97030504Y-121044612D01*
X97030504Y-121044612D02*
X97092409Y-120920803D01*
X97092409Y-120920803D02*
X97154314Y-120858898D01*
X97154314Y-120858898D02*
X97278123Y-120796993D01*
X97278123Y-120796993D02*
X97401933Y-120796993D01*
X97401933Y-120796993D02*
X97525742Y-120858898D01*
X97525742Y-120858898D02*
X97587647Y-120920803D01*
X97587647Y-120920803D02*
X97649552Y-121044612D01*
X97649552Y-121044612D02*
X97649552Y-121477946D01*
X97030504Y-119311279D02*
X97030504Y-118506517D01*
X97030504Y-118506517D02*
X97525742Y-118939851D01*
X97525742Y-118939851D02*
X97525742Y-118754136D01*
X97525742Y-118754136D02*
X97587647Y-118630327D01*
X97587647Y-118630327D02*
X97649552Y-118568422D01*
X97649552Y-118568422D02*
X97773361Y-118506517D01*
X97773361Y-118506517D02*
X98082885Y-118506517D01*
X98082885Y-118506517D02*
X98206695Y-118568422D01*
X98206695Y-118568422D02*
X98268600Y-118630327D01*
X98268600Y-118630327D02*
X98330504Y-118754136D01*
X98330504Y-118754136D02*
X98330504Y-119125565D01*
X98330504Y-119125565D02*
X98268600Y-119249374D01*
X98268600Y-119249374D02*
X98206695Y-119311279D01*
X97463838Y-118073184D02*
X98330504Y-117763660D01*
X98330504Y-117763660D02*
X97463838Y-117454137D01*
X97030504Y-117082708D02*
X97030504Y-116277946D01*
X97030504Y-116277946D02*
X97525742Y-116711280D01*
X97525742Y-116711280D02*
X97525742Y-116525565D01*
X97525742Y-116525565D02*
X97587647Y-116401756D01*
X97587647Y-116401756D02*
X97649552Y-116339851D01*
X97649552Y-116339851D02*
X97773361Y-116277946D01*
X97773361Y-116277946D02*
X98082885Y-116277946D01*
X98082885Y-116277946D02*
X98206695Y-116339851D01*
X98206695Y-116339851D02*
X98268600Y-116401756D01*
X98268600Y-116401756D02*
X98330504Y-116525565D01*
X98330504Y-116525565D02*
X98330504Y-116896994D01*
X98330504Y-116896994D02*
X98268600Y-117020803D01*
X98268600Y-117020803D02*
X98206695Y-117082708D01*
D12*
X125263157Y-93612057D02*
X125263157Y-95612057D01*
X124548871Y-92469200D02*
X123834585Y-94612057D01*
X123834585Y-94612057D02*
X125691728Y-94612057D01*
D14*
X121614034Y-134770234D02*
X121030701Y-133936901D01*
X120614034Y-134770234D02*
X120614034Y-133020234D01*
X120614034Y-133020234D02*
X121280701Y-133020234D01*
X121280701Y-133020234D02*
X121447368Y-133103567D01*
X121447368Y-133103567D02*
X121530701Y-133186901D01*
X121530701Y-133186901D02*
X121614034Y-133353567D01*
X121614034Y-133353567D02*
X121614034Y-133603567D01*
X121614034Y-133603567D02*
X121530701Y-133770234D01*
X121530701Y-133770234D02*
X121447368Y-133853567D01*
X121447368Y-133853567D02*
X121280701Y-133936901D01*
X121280701Y-133936901D02*
X120614034Y-133936901D01*
X122364034Y-133020234D02*
X122364034Y-134436901D01*
X122364034Y-134436901D02*
X122447368Y-134603567D01*
X122447368Y-134603567D02*
X122530701Y-134686901D01*
X122530701Y-134686901D02*
X122697368Y-134770234D01*
X122697368Y-134770234D02*
X123030701Y-134770234D01*
X123030701Y-134770234D02*
X123197368Y-134686901D01*
X123197368Y-134686901D02*
X123280701Y-134603567D01*
X123280701Y-134603567D02*
X123364034Y-134436901D01*
X123364034Y-134436901D02*
X123364034Y-133020234D01*
X124780701Y-133853567D02*
X125030701Y-133936901D01*
X125030701Y-133936901D02*
X125114034Y-134020234D01*
X125114034Y-134020234D02*
X125197367Y-134186901D01*
X125197367Y-134186901D02*
X125197367Y-134436901D01*
X125197367Y-134436901D02*
X125114034Y-134603567D01*
X125114034Y-134603567D02*
X125030701Y-134686901D01*
X125030701Y-134686901D02*
X124864034Y-134770234D01*
X124864034Y-134770234D02*
X124197367Y-134770234D01*
X124197367Y-134770234D02*
X124197367Y-133020234D01*
X124197367Y-133020234D02*
X124780701Y-133020234D01*
X124780701Y-133020234D02*
X124947367Y-133103567D01*
X124947367Y-133103567D02*
X125030701Y-133186901D01*
X125030701Y-133186901D02*
X125114034Y-133353567D01*
X125114034Y-133353567D02*
X125114034Y-133520234D01*
X125114034Y-133520234D02*
X125030701Y-133686901D01*
X125030701Y-133686901D02*
X124947367Y-133770234D01*
X124947367Y-133770234D02*
X124780701Y-133853567D01*
X124780701Y-133853567D02*
X124197367Y-133853567D01*
X125947367Y-134770234D02*
X125947367Y-133020234D01*
X126780700Y-134770234D02*
X126780700Y-133020234D01*
X127780700Y-134770234D02*
X127030700Y-133770234D01*
X127780700Y-133020234D02*
X126780700Y-134020234D01*
X128614034Y-133020234D02*
X128447367Y-133353567D01*
X129280700Y-134686901D02*
X129530700Y-134770234D01*
X129530700Y-134770234D02*
X129947367Y-134770234D01*
X129947367Y-134770234D02*
X130114033Y-134686901D01*
X130114033Y-134686901D02*
X130197367Y-134603567D01*
X130197367Y-134603567D02*
X130280700Y-134436901D01*
X130280700Y-134436901D02*
X130280700Y-134270234D01*
X130280700Y-134270234D02*
X130197367Y-134103567D01*
X130197367Y-134103567D02*
X130114033Y-134020234D01*
X130114033Y-134020234D02*
X129947367Y-133936901D01*
X129947367Y-133936901D02*
X129614033Y-133853567D01*
X129614033Y-133853567D02*
X129447367Y-133770234D01*
X129447367Y-133770234D02*
X129364033Y-133686901D01*
X129364033Y-133686901D02*
X129280700Y-133520234D01*
X129280700Y-133520234D02*
X129280700Y-133353567D01*
X129280700Y-133353567D02*
X129364033Y-133186901D01*
X129364033Y-133186901D02*
X129447367Y-133103567D01*
X129447367Y-133103567D02*
X129614033Y-133020234D01*
X129614033Y-133020234D02*
X130030700Y-133020234D01*
X130030700Y-133020234D02*
X130280700Y-133103567D01*
X133364033Y-134603567D02*
X133280700Y-134686901D01*
X133280700Y-134686901D02*
X133030700Y-134770234D01*
X133030700Y-134770234D02*
X132864033Y-134770234D01*
X132864033Y-134770234D02*
X132614033Y-134686901D01*
X132614033Y-134686901D02*
X132447367Y-134520234D01*
X132447367Y-134520234D02*
X132364033Y-134353567D01*
X132364033Y-134353567D02*
X132280700Y-134020234D01*
X132280700Y-134020234D02*
X132280700Y-133770234D01*
X132280700Y-133770234D02*
X132364033Y-133436901D01*
X132364033Y-133436901D02*
X132447367Y-133270234D01*
X132447367Y-133270234D02*
X132614033Y-133103567D01*
X132614033Y-133103567D02*
X132864033Y-133020234D01*
X132864033Y-133020234D02*
X133030700Y-133020234D01*
X133030700Y-133020234D02*
X133280700Y-133103567D01*
X133280700Y-133103567D02*
X133364033Y-133186901D01*
X134114033Y-133020234D02*
X134114033Y-134436901D01*
X134114033Y-134436901D02*
X134197367Y-134603567D01*
X134197367Y-134603567D02*
X134280700Y-134686901D01*
X134280700Y-134686901D02*
X134447367Y-134770234D01*
X134447367Y-134770234D02*
X134780700Y-134770234D01*
X134780700Y-134770234D02*
X134947367Y-134686901D01*
X134947367Y-134686901D02*
X135030700Y-134603567D01*
X135030700Y-134603567D02*
X135114033Y-134436901D01*
X135114033Y-134436901D02*
X135114033Y-133020234D01*
X136530700Y-133853567D02*
X136780700Y-133936901D01*
X136780700Y-133936901D02*
X136864033Y-134020234D01*
X136864033Y-134020234D02*
X136947366Y-134186901D01*
X136947366Y-134186901D02*
X136947366Y-134436901D01*
X136947366Y-134436901D02*
X136864033Y-134603567D01*
X136864033Y-134603567D02*
X136780700Y-134686901D01*
X136780700Y-134686901D02*
X136614033Y-134770234D01*
X136614033Y-134770234D02*
X135947366Y-134770234D01*
X135947366Y-134770234D02*
X135947366Y-133020234D01*
X135947366Y-133020234D02*
X136530700Y-133020234D01*
X136530700Y-133020234D02*
X136697366Y-133103567D01*
X136697366Y-133103567D02*
X136780700Y-133186901D01*
X136780700Y-133186901D02*
X136864033Y-133353567D01*
X136864033Y-133353567D02*
X136864033Y-133520234D01*
X136864033Y-133520234D02*
X136780700Y-133686901D01*
X136780700Y-133686901D02*
X136697366Y-133770234D01*
X136697366Y-133770234D02*
X136530700Y-133853567D01*
X136530700Y-133853567D02*
X135947366Y-133853567D01*
X137697366Y-133853567D02*
X138280700Y-133853567D01*
X138530700Y-134770234D02*
X137697366Y-134770234D01*
X137697366Y-134770234D02*
X137697366Y-133020234D01*
X137697366Y-133020234D02*
X138530700Y-133020234D01*
X141614032Y-134603567D02*
X141530699Y-134686901D01*
X141530699Y-134686901D02*
X141280699Y-134770234D01*
X141280699Y-134770234D02*
X141114032Y-134770234D01*
X141114032Y-134770234D02*
X140864032Y-134686901D01*
X140864032Y-134686901D02*
X140697366Y-134520234D01*
X140697366Y-134520234D02*
X140614032Y-134353567D01*
X140614032Y-134353567D02*
X140530699Y-134020234D01*
X140530699Y-134020234D02*
X140530699Y-133770234D01*
X140530699Y-133770234D02*
X140614032Y-133436901D01*
X140614032Y-133436901D02*
X140697366Y-133270234D01*
X140697366Y-133270234D02*
X140864032Y-133103567D01*
X140864032Y-133103567D02*
X141114032Y-133020234D01*
X141114032Y-133020234D02*
X141280699Y-133020234D01*
X141280699Y-133020234D02*
X141530699Y-133103567D01*
X141530699Y-133103567D02*
X141614032Y-133186901D01*
X142697366Y-133020234D02*
X143030699Y-133020234D01*
X143030699Y-133020234D02*
X143197366Y-133103567D01*
X143197366Y-133103567D02*
X143364032Y-133270234D01*
X143364032Y-133270234D02*
X143447366Y-133603567D01*
X143447366Y-133603567D02*
X143447366Y-134186901D01*
X143447366Y-134186901D02*
X143364032Y-134520234D01*
X143364032Y-134520234D02*
X143197366Y-134686901D01*
X143197366Y-134686901D02*
X143030699Y-134770234D01*
X143030699Y-134770234D02*
X142697366Y-134770234D01*
X142697366Y-134770234D02*
X142530699Y-134686901D01*
X142530699Y-134686901D02*
X142364032Y-134520234D01*
X142364032Y-134520234D02*
X142280699Y-134186901D01*
X142280699Y-134186901D02*
X142280699Y-133603567D01*
X142280699Y-133603567D02*
X142364032Y-133270234D01*
X142364032Y-133270234D02*
X142530699Y-133103567D01*
X142530699Y-133103567D02*
X142697366Y-133020234D01*
X145030699Y-134770234D02*
X144197365Y-134770234D01*
X144197365Y-134770234D02*
X144197365Y-133020234D01*
X145947366Y-133020234D02*
X146280699Y-133020234D01*
X146280699Y-133020234D02*
X146447366Y-133103567D01*
X146447366Y-133103567D02*
X146614032Y-133270234D01*
X146614032Y-133270234D02*
X146697366Y-133603567D01*
X146697366Y-133603567D02*
X146697366Y-134186901D01*
X146697366Y-134186901D02*
X146614032Y-134520234D01*
X146614032Y-134520234D02*
X146447366Y-134686901D01*
X146447366Y-134686901D02*
X146280699Y-134770234D01*
X146280699Y-134770234D02*
X145947366Y-134770234D01*
X145947366Y-134770234D02*
X145780699Y-134686901D01*
X145780699Y-134686901D02*
X145614032Y-134520234D01*
X145614032Y-134520234D02*
X145530699Y-134186901D01*
X145530699Y-134186901D02*
X145530699Y-133603567D01*
X145530699Y-133603567D02*
X145614032Y-133270234D01*
X145614032Y-133270234D02*
X145780699Y-133103567D01*
X145780699Y-133103567D02*
X145947366Y-133020234D01*
X148447365Y-134770234D02*
X147864032Y-133936901D01*
X147447365Y-134770234D02*
X147447365Y-133020234D01*
X147447365Y-133020234D02*
X148114032Y-133020234D01*
X148114032Y-133020234D02*
X148280699Y-133103567D01*
X148280699Y-133103567D02*
X148364032Y-133186901D01*
X148364032Y-133186901D02*
X148447365Y-133353567D01*
X148447365Y-133353567D02*
X148447365Y-133603567D01*
X148447365Y-133603567D02*
X148364032Y-133770234D01*
X148364032Y-133770234D02*
X148280699Y-133853567D01*
X148280699Y-133853567D02*
X148114032Y-133936901D01*
X148114032Y-133936901D02*
X147447365Y-133936901D01*
X150447365Y-134686901D02*
X150697365Y-134770234D01*
X150697365Y-134770234D02*
X151114032Y-134770234D01*
X151114032Y-134770234D02*
X151280698Y-134686901D01*
X151280698Y-134686901D02*
X151364032Y-134603567D01*
X151364032Y-134603567D02*
X151447365Y-134436901D01*
X151447365Y-134436901D02*
X151447365Y-134270234D01*
X151447365Y-134270234D02*
X151364032Y-134103567D01*
X151364032Y-134103567D02*
X151280698Y-134020234D01*
X151280698Y-134020234D02*
X151114032Y-133936901D01*
X151114032Y-133936901D02*
X150780698Y-133853567D01*
X150780698Y-133853567D02*
X150614032Y-133770234D01*
X150614032Y-133770234D02*
X150530698Y-133686901D01*
X150530698Y-133686901D02*
X150447365Y-133520234D01*
X150447365Y-133520234D02*
X150447365Y-133353567D01*
X150447365Y-133353567D02*
X150530698Y-133186901D01*
X150530698Y-133186901D02*
X150614032Y-133103567D01*
X150614032Y-133103567D02*
X150780698Y-133020234D01*
X150780698Y-133020234D02*
X151197365Y-133020234D01*
X151197365Y-133020234D02*
X151447365Y-133103567D01*
X152197365Y-133853567D02*
X152780699Y-133853567D01*
X153030699Y-134770234D02*
X152197365Y-134770234D01*
X152197365Y-134770234D02*
X152197365Y-133020234D01*
X152197365Y-133020234D02*
X153030699Y-133020234D01*
X153780698Y-134770234D02*
X153780698Y-133020234D01*
X153780698Y-133020234D02*
X154780698Y-134770234D01*
X154780698Y-134770234D02*
X154780698Y-133020234D01*
X155530698Y-134686901D02*
X155780698Y-134770234D01*
X155780698Y-134770234D02*
X156197365Y-134770234D01*
X156197365Y-134770234D02*
X156364031Y-134686901D01*
X156364031Y-134686901D02*
X156447365Y-134603567D01*
X156447365Y-134603567D02*
X156530698Y-134436901D01*
X156530698Y-134436901D02*
X156530698Y-134270234D01*
X156530698Y-134270234D02*
X156447365Y-134103567D01*
X156447365Y-134103567D02*
X156364031Y-134020234D01*
X156364031Y-134020234D02*
X156197365Y-133936901D01*
X156197365Y-133936901D02*
X155864031Y-133853567D01*
X155864031Y-133853567D02*
X155697365Y-133770234D01*
X155697365Y-133770234D02*
X155614031Y-133686901D01*
X155614031Y-133686901D02*
X155530698Y-133520234D01*
X155530698Y-133520234D02*
X155530698Y-133353567D01*
X155530698Y-133353567D02*
X155614031Y-133186901D01*
X155614031Y-133186901D02*
X155697365Y-133103567D01*
X155697365Y-133103567D02*
X155864031Y-133020234D01*
X155864031Y-133020234D02*
X156280698Y-133020234D01*
X156280698Y-133020234D02*
X156530698Y-133103567D01*
X157614032Y-133020234D02*
X157947365Y-133020234D01*
X157947365Y-133020234D02*
X158114032Y-133103567D01*
X158114032Y-133103567D02*
X158280698Y-133270234D01*
X158280698Y-133270234D02*
X158364032Y-133603567D01*
X158364032Y-133603567D02*
X158364032Y-134186901D01*
X158364032Y-134186901D02*
X158280698Y-134520234D01*
X158280698Y-134520234D02*
X158114032Y-134686901D01*
X158114032Y-134686901D02*
X157947365Y-134770234D01*
X157947365Y-134770234D02*
X157614032Y-134770234D01*
X157614032Y-134770234D02*
X157447365Y-134686901D01*
X157447365Y-134686901D02*
X157280698Y-134520234D01*
X157280698Y-134520234D02*
X157197365Y-134186901D01*
X157197365Y-134186901D02*
X157197365Y-133603567D01*
X157197365Y-133603567D02*
X157280698Y-133270234D01*
X157280698Y-133270234D02*
X157447365Y-133103567D01*
X157447365Y-133103567D02*
X157614032Y-133020234D01*
X160114031Y-134770234D02*
X159530698Y-133936901D01*
X159114031Y-134770234D02*
X159114031Y-133020234D01*
X159114031Y-133020234D02*
X159780698Y-133020234D01*
X159780698Y-133020234D02*
X159947365Y-133103567D01*
X159947365Y-133103567D02*
X160030698Y-133186901D01*
X160030698Y-133186901D02*
X160114031Y-133353567D01*
X160114031Y-133353567D02*
X160114031Y-133603567D01*
X160114031Y-133603567D02*
X160030698Y-133770234D01*
X160030698Y-133770234D02*
X159947365Y-133853567D01*
X159947365Y-133853567D02*
X159780698Y-133936901D01*
X159780698Y-133936901D02*
X159114031Y-133936901D01*
X161947364Y-133020234D02*
X162530698Y-134770234D01*
X162530698Y-134770234D02*
X163114031Y-133020234D01*
X164614031Y-134770234D02*
X163614031Y-134770234D01*
X164114031Y-134770234D02*
X164114031Y-133020234D01*
X164114031Y-133020234D02*
X163947364Y-133270234D01*
X163947364Y-133270234D02*
X163780698Y-133436901D01*
X163780698Y-133436901D02*
X163614031Y-133520234D01*
D13*
X98318266Y-96801755D02*
X98318266Y-97601755D01*
X98318266Y-97201755D02*
X96918266Y-97201755D01*
X96918266Y-97201755D02*
X97118266Y-97335088D01*
X97118266Y-97335088D02*
X97251600Y-97468422D01*
X97251600Y-97468422D02*
X97318266Y-97601755D01*
X97051600Y-95201755D02*
X96984933Y-95135088D01*
X96984933Y-95135088D02*
X96918266Y-95001755D01*
X96918266Y-95001755D02*
X96918266Y-94668422D01*
X96918266Y-94668422D02*
X96984933Y-94535088D01*
X96984933Y-94535088D02*
X97051600Y-94468422D01*
X97051600Y-94468422D02*
X97184933Y-94401755D01*
X97184933Y-94401755D02*
X97318266Y-94401755D01*
X97318266Y-94401755D02*
X97518266Y-94468422D01*
X97518266Y-94468422D02*
X98318266Y-95268422D01*
X98318266Y-95268422D02*
X98318266Y-94401755D01*
X96918266Y-92868422D02*
X96918266Y-92001755D01*
X96918266Y-92001755D02*
X97451600Y-92468422D01*
X97451600Y-92468422D02*
X97451600Y-92268422D01*
X97451600Y-92268422D02*
X97518266Y-92135088D01*
X97518266Y-92135088D02*
X97584933Y-92068422D01*
X97584933Y-92068422D02*
X97718266Y-92001755D01*
X97718266Y-92001755D02*
X98051600Y-92001755D01*
X98051600Y-92001755D02*
X98184933Y-92068422D01*
X98184933Y-92068422D02*
X98251600Y-92135088D01*
X98251600Y-92135088D02*
X98318266Y-92268422D01*
X98318266Y-92268422D02*
X98318266Y-92668422D01*
X98318266Y-92668422D02*
X98251600Y-92801755D01*
X98251600Y-92801755D02*
X98184933Y-92868422D01*
X97384933Y-89735088D02*
X98318266Y-89735088D01*
X96851600Y-90068422D02*
X97851600Y-90401755D01*
X97851600Y-90401755D02*
X97851600Y-89535088D01*
D12*
X161620299Y-114112057D02*
X162191728Y-114112057D01*
X162191728Y-114112057D02*
X162477442Y-113969200D01*
X162477442Y-113969200D02*
X162620299Y-113826342D01*
X162620299Y-113826342D02*
X162906014Y-113397771D01*
X162906014Y-113397771D02*
X163048871Y-112826342D01*
X163048871Y-112826342D02*
X163048871Y-111683485D01*
X163048871Y-111683485D02*
X162906014Y-111397771D01*
X162906014Y-111397771D02*
X162763157Y-111254914D01*
X162763157Y-111254914D02*
X162477442Y-111112057D01*
X162477442Y-111112057D02*
X161906014Y-111112057D01*
X161906014Y-111112057D02*
X161620299Y-111254914D01*
X161620299Y-111254914D02*
X161477442Y-111397771D01*
X161477442Y-111397771D02*
X161334585Y-111683485D01*
X161334585Y-111683485D02*
X161334585Y-112397771D01*
X161334585Y-112397771D02*
X161477442Y-112683485D01*
X161477442Y-112683485D02*
X161620299Y-112826342D01*
X161620299Y-112826342D02*
X161906014Y-112969200D01*
X161906014Y-112969200D02*
X162477442Y-112969200D01*
X162477442Y-112969200D02*
X162763157Y-112826342D01*
X162763157Y-112826342D02*
X162906014Y-112683485D01*
X162906014Y-112683485D02*
X163048871Y-112397771D01*
X142906014Y-112397771D02*
X142620299Y-112254914D01*
X142620299Y-112254914D02*
X142477442Y-112112057D01*
X142477442Y-112112057D02*
X142334585Y-111826342D01*
X142334585Y-111826342D02*
X142334585Y-111683485D01*
X142334585Y-111683485D02*
X142477442Y-111397771D01*
X142477442Y-111397771D02*
X142620299Y-111254914D01*
X142620299Y-111254914D02*
X142906014Y-111112057D01*
X142906014Y-111112057D02*
X143477442Y-111112057D01*
X143477442Y-111112057D02*
X143763157Y-111254914D01*
X143763157Y-111254914D02*
X143906014Y-111397771D01*
X143906014Y-111397771D02*
X144048871Y-111683485D01*
X144048871Y-111683485D02*
X144048871Y-111826342D01*
X144048871Y-111826342D02*
X143906014Y-112112057D01*
X143906014Y-112112057D02*
X143763157Y-112254914D01*
X143763157Y-112254914D02*
X143477442Y-112397771D01*
X143477442Y-112397771D02*
X142906014Y-112397771D01*
X142906014Y-112397771D02*
X142620299Y-112540628D01*
X142620299Y-112540628D02*
X142477442Y-112683485D01*
X142477442Y-112683485D02*
X142334585Y-112969200D01*
X142334585Y-112969200D02*
X142334585Y-113540628D01*
X142334585Y-113540628D02*
X142477442Y-113826342D01*
X142477442Y-113826342D02*
X142620299Y-113969200D01*
X142620299Y-113969200D02*
X142906014Y-114112057D01*
X142906014Y-114112057D02*
X143477442Y-114112057D01*
X143477442Y-114112057D02*
X143763157Y-113969200D01*
X143763157Y-113969200D02*
X143906014Y-113826342D01*
X143906014Y-113826342D02*
X144048871Y-113540628D01*
X144048871Y-113540628D02*
X144048871Y-112969200D01*
X144048871Y-112969200D02*
X143906014Y-112683485D01*
X143906014Y-112683485D02*
X143763157Y-112540628D01*
X143763157Y-112540628D02*
X143477442Y-112397771D01*
X162763157Y-92612057D02*
X162191728Y-92612057D01*
X162191728Y-92612057D02*
X161906014Y-92754914D01*
X161906014Y-92754914D02*
X161763157Y-92897771D01*
X161763157Y-92897771D02*
X161477442Y-93326342D01*
X161477442Y-93326342D02*
X161334585Y-93897771D01*
X161334585Y-93897771D02*
X161334585Y-95040628D01*
X161334585Y-95040628D02*
X161477442Y-95326342D01*
X161477442Y-95326342D02*
X161620299Y-95469200D01*
X161620299Y-95469200D02*
X161906014Y-95612057D01*
X161906014Y-95612057D02*
X162477442Y-95612057D01*
X162477442Y-95612057D02*
X162763157Y-95469200D01*
X162763157Y-95469200D02*
X162906014Y-95326342D01*
X162906014Y-95326342D02*
X163048871Y-95040628D01*
X163048871Y-95040628D02*
X163048871Y-94326342D01*
X163048871Y-94326342D02*
X162906014Y-94040628D01*
X162906014Y-94040628D02*
X162763157Y-93897771D01*
X162763157Y-93897771D02*
X162477442Y-93754914D01*
X162477442Y-93754914D02*
X161906014Y-93754914D01*
X161906014Y-93754914D02*
X161620299Y-93897771D01*
X161620299Y-93897771D02*
X161477442Y-94040628D01*
X161477442Y-94040628D02*
X161334585Y-94326342D01*
X161191728Y-73612057D02*
X163048871Y-73612057D01*
X163048871Y-73612057D02*
X162048871Y-74754914D01*
X162048871Y-74754914D02*
X162477442Y-74754914D01*
X162477442Y-74754914D02*
X162763157Y-74897771D01*
X162763157Y-74897771D02*
X162906014Y-75040628D01*
X162906014Y-75040628D02*
X163048871Y-75326342D01*
X163048871Y-75326342D02*
X163048871Y-76040628D01*
X163048871Y-76040628D02*
X162906014Y-76326342D01*
X162906014Y-76326342D02*
X162763157Y-76469200D01*
X162763157Y-76469200D02*
X162477442Y-76612057D01*
X162477442Y-76612057D02*
X161620299Y-76612057D01*
X161620299Y-76612057D02*
X161334585Y-76469200D01*
X161334585Y-76469200D02*
X161191728Y-76326342D01*
D13*
X98330504Y-110987469D02*
X98330504Y-111730326D01*
X98330504Y-111358898D02*
X97030504Y-111358898D01*
X97030504Y-111358898D02*
X97216219Y-111482707D01*
X97216219Y-111482707D02*
X97340028Y-111606517D01*
X97340028Y-111606517D02*
X97401933Y-111730326D01*
X97154314Y-110492231D02*
X97092409Y-110430327D01*
X97092409Y-110430327D02*
X97030504Y-110306517D01*
X97030504Y-110306517D02*
X97030504Y-109996993D01*
X97030504Y-109996993D02*
X97092409Y-109873184D01*
X97092409Y-109873184D02*
X97154314Y-109811279D01*
X97154314Y-109811279D02*
X97278123Y-109749374D01*
X97278123Y-109749374D02*
X97401933Y-109749374D01*
X97401933Y-109749374D02*
X97587647Y-109811279D01*
X97587647Y-109811279D02*
X98330504Y-110554136D01*
X98330504Y-110554136D02*
X98330504Y-109749374D01*
X97030504Y-109377946D02*
X98330504Y-108944613D01*
X98330504Y-108944613D02*
X97030504Y-108511279D01*
X97092409Y-106406517D02*
X97030504Y-106530327D01*
X97030504Y-106530327D02*
X97030504Y-106716041D01*
X97030504Y-106716041D02*
X97092409Y-106901755D01*
X97092409Y-106901755D02*
X97216219Y-107025565D01*
X97216219Y-107025565D02*
X97340028Y-107087470D01*
X97340028Y-107087470D02*
X97587647Y-107149374D01*
X97587647Y-107149374D02*
X97773361Y-107149374D01*
X97773361Y-107149374D02*
X98020980Y-107087470D01*
X98020980Y-107087470D02*
X98144790Y-107025565D01*
X98144790Y-107025565D02*
X98268600Y-106901755D01*
X98268600Y-106901755D02*
X98330504Y-106716041D01*
X98330504Y-106716041D02*
X98330504Y-106592232D01*
X98330504Y-106592232D02*
X98268600Y-106406517D01*
X98268600Y-106406517D02*
X98206695Y-106344613D01*
X98206695Y-106344613D02*
X97773361Y-106344613D01*
X97773361Y-106344613D02*
X97773361Y-106592232D01*
X98330504Y-105787470D02*
X97030504Y-105787470D01*
X97030504Y-105787470D02*
X98330504Y-105044613D01*
X98330504Y-105044613D02*
X97030504Y-105044613D01*
X98330504Y-104425565D02*
X97030504Y-104425565D01*
X97030504Y-104425565D02*
X97030504Y-104116041D01*
X97030504Y-104116041D02*
X97092409Y-103930327D01*
X97092409Y-103930327D02*
X97216219Y-103806517D01*
X97216219Y-103806517D02*
X97340028Y-103744612D01*
X97340028Y-103744612D02*
X97587647Y-103682708D01*
X97587647Y-103682708D02*
X97773361Y-103682708D01*
X97773361Y-103682708D02*
X98020980Y-103744612D01*
X98020980Y-103744612D02*
X98144790Y-103806517D01*
X98144790Y-103806517D02*
X98268600Y-103930327D01*
X98268600Y-103930327D02*
X98330504Y-104116041D01*
X98330504Y-104116041D02*
X98330504Y-104425565D01*
D12*
X123691728Y-111112057D02*
X125691728Y-111112057D01*
X125691728Y-111112057D02*
X124406014Y-114112057D01*
X143906014Y-92612057D02*
X142477442Y-92612057D01*
X142477442Y-92612057D02*
X142334585Y-94040628D01*
X142334585Y-94040628D02*
X142477442Y-93897771D01*
X142477442Y-93897771D02*
X142763157Y-93754914D01*
X142763157Y-93754914D02*
X143477442Y-93754914D01*
X143477442Y-93754914D02*
X143763157Y-93897771D01*
X143763157Y-93897771D02*
X143906014Y-94040628D01*
X143906014Y-94040628D02*
X144048871Y-94326342D01*
X144048871Y-94326342D02*
X144048871Y-95040628D01*
X144048871Y-95040628D02*
X143906014Y-95326342D01*
X143906014Y-95326342D02*
X143763157Y-95469200D01*
X143763157Y-95469200D02*
X143477442Y-95612057D01*
X143477442Y-95612057D02*
X142763157Y-95612057D01*
X142763157Y-95612057D02*
X142477442Y-95469200D01*
X142477442Y-95469200D02*
X142334585Y-95326342D01*
D13*
X96918266Y-80868422D02*
X96918266Y-81535088D01*
X96918266Y-81535088D02*
X97584933Y-81601755D01*
X97584933Y-81601755D02*
X97518266Y-81535088D01*
X97518266Y-81535088D02*
X97451600Y-81401755D01*
X97451600Y-81401755D02*
X97451600Y-81068422D01*
X97451600Y-81068422D02*
X97518266Y-80935088D01*
X97518266Y-80935088D02*
X97584933Y-80868422D01*
X97584933Y-80868422D02*
X97718266Y-80801755D01*
X97718266Y-80801755D02*
X98051600Y-80801755D01*
X98051600Y-80801755D02*
X98184933Y-80868422D01*
X98184933Y-80868422D02*
X98251600Y-80935088D01*
X98251600Y-80935088D02*
X98318266Y-81068422D01*
X98318266Y-81068422D02*
X98318266Y-81401755D01*
X98318266Y-81401755D02*
X98251600Y-81535088D01*
X98251600Y-81535088D02*
X98184933Y-81601755D01*
X96918266Y-78535088D02*
X96918266Y-78801755D01*
X96918266Y-78801755D02*
X96984933Y-78935088D01*
X96984933Y-78935088D02*
X97051600Y-79001755D01*
X97051600Y-79001755D02*
X97251600Y-79135088D01*
X97251600Y-79135088D02*
X97518266Y-79201755D01*
X97518266Y-79201755D02*
X98051600Y-79201755D01*
X98051600Y-79201755D02*
X98184933Y-79135088D01*
X98184933Y-79135088D02*
X98251600Y-79068422D01*
X98251600Y-79068422D02*
X98318266Y-78935088D01*
X98318266Y-78935088D02*
X98318266Y-78668422D01*
X98318266Y-78668422D02*
X98251600Y-78535088D01*
X98251600Y-78535088D02*
X98184933Y-78468422D01*
X98184933Y-78468422D02*
X98051600Y-78401755D01*
X98051600Y-78401755D02*
X97718266Y-78401755D01*
X97718266Y-78401755D02*
X97584933Y-78468422D01*
X97584933Y-78468422D02*
X97518266Y-78535088D01*
X97518266Y-78535088D02*
X97451600Y-78668422D01*
X97451600Y-78668422D02*
X97451600Y-78935088D01*
X97451600Y-78935088D02*
X97518266Y-79068422D01*
X97518266Y-79068422D02*
X97584933Y-79135088D01*
X97584933Y-79135088D02*
X97718266Y-79201755D01*
X96918266Y-76868422D02*
X96918266Y-75935088D01*
X96918266Y-75935088D02*
X98318266Y-76535088D01*
X97518266Y-74135088D02*
X97451600Y-74268422D01*
X97451600Y-74268422D02*
X97384933Y-74335088D01*
X97384933Y-74335088D02*
X97251600Y-74401755D01*
X97251600Y-74401755D02*
X97184933Y-74401755D01*
X97184933Y-74401755D02*
X97051600Y-74335088D01*
X97051600Y-74335088D02*
X96984933Y-74268422D01*
X96984933Y-74268422D02*
X96918266Y-74135088D01*
X96918266Y-74135088D02*
X96918266Y-73868422D01*
X96918266Y-73868422D02*
X96984933Y-73735088D01*
X96984933Y-73735088D02*
X97051600Y-73668422D01*
X97051600Y-73668422D02*
X97184933Y-73601755D01*
X97184933Y-73601755D02*
X97251600Y-73601755D01*
X97251600Y-73601755D02*
X97384933Y-73668422D01*
X97384933Y-73668422D02*
X97451600Y-73735088D01*
X97451600Y-73735088D02*
X97518266Y-73868422D01*
X97518266Y-73868422D02*
X97518266Y-74135088D01*
X97518266Y-74135088D02*
X97584933Y-74268422D01*
X97584933Y-74268422D02*
X97651600Y-74335088D01*
X97651600Y-74335088D02*
X97784933Y-74401755D01*
X97784933Y-74401755D02*
X98051600Y-74401755D01*
X98051600Y-74401755D02*
X98184933Y-74335088D01*
X98184933Y-74335088D02*
X98251600Y-74268422D01*
X98251600Y-74268422D02*
X98318266Y-74135088D01*
X98318266Y-74135088D02*
X98318266Y-73868422D01*
X98318266Y-73868422D02*
X98251600Y-73735088D01*
X98251600Y-73735088D02*
X98184933Y-73668422D01*
X98184933Y-73668422D02*
X98051600Y-73601755D01*
X98051600Y-73601755D02*
X97784933Y-73601755D01*
X97784933Y-73601755D02*
X97651600Y-73668422D01*
X97651600Y-73668422D02*
X97584933Y-73735088D01*
X97584933Y-73735088D02*
X97518266Y-73868422D01*
X98318266Y-71868422D02*
X98318266Y-71601755D01*
X98318266Y-71601755D02*
X98251600Y-71468422D01*
X98251600Y-71468422D02*
X98184933Y-71401755D01*
X98184933Y-71401755D02*
X97984933Y-71268422D01*
X97984933Y-71268422D02*
X97718266Y-71201755D01*
X97718266Y-71201755D02*
X97184933Y-71201755D01*
X97184933Y-71201755D02*
X97051600Y-71268422D01*
X97051600Y-71268422D02*
X96984933Y-71335088D01*
X96984933Y-71335088D02*
X96918266Y-71468422D01*
X96918266Y-71468422D02*
X96918266Y-71735088D01*
X96918266Y-71735088D02*
X96984933Y-71868422D01*
X96984933Y-71868422D02*
X97051600Y-71935088D01*
X97051600Y-71935088D02*
X97184933Y-72001755D01*
X97184933Y-72001755D02*
X97518266Y-72001755D01*
X97518266Y-72001755D02*
X97651600Y-71935088D01*
X97651600Y-71935088D02*
X97718266Y-71868422D01*
X97718266Y-71868422D02*
X97784933Y-71735088D01*
X97784933Y-71735088D02*
X97784933Y-71468422D01*
X97784933Y-71468422D02*
X97718266Y-71335088D01*
X97718266Y-71335088D02*
X97651600Y-71268422D01*
X97651600Y-71268422D02*
X97518266Y-71201755D01*
D12*
X125548871Y-76612057D02*
X123834585Y-76612057D01*
X124691728Y-76612057D02*
X124691728Y-73612057D01*
X124691728Y-73612057D02*
X124406014Y-74040628D01*
X124406014Y-74040628D02*
X124120299Y-74326342D01*
X124120299Y-74326342D02*
X123834585Y-74469200D01*
D15*
X124304819Y-107142857D02*
X123828628Y-107476190D01*
X124304819Y-107714285D02*
X123304819Y-107714285D01*
X123304819Y-107714285D02*
X123304819Y-107333333D01*
X123304819Y-107333333D02*
X123352438Y-107238095D01*
X123352438Y-107238095D02*
X123400057Y-107190476D01*
X123400057Y-107190476D02*
X123495295Y-107142857D01*
X123495295Y-107142857D02*
X123638152Y-107142857D01*
X123638152Y-107142857D02*
X123733390Y-107190476D01*
X123733390Y-107190476D02*
X123781009Y-107238095D01*
X123781009Y-107238095D02*
X123828628Y-107333333D01*
X123828628Y-107333333D02*
X123828628Y-107714285D01*
X124304819Y-106190476D02*
X124304819Y-106761904D01*
X124304819Y-106476190D02*
X123304819Y-106476190D01*
X123304819Y-106476190D02*
X123447676Y-106571428D01*
X123447676Y-106571428D02*
X123542914Y-106666666D01*
X123542914Y-106666666D02*
X123590533Y-106761904D01*
X123304819Y-105571428D02*
X123304819Y-105476190D01*
X123304819Y-105476190D02*
X123352438Y-105380952D01*
X123352438Y-105380952D02*
X123400057Y-105333333D01*
X123400057Y-105333333D02*
X123495295Y-105285714D01*
X123495295Y-105285714D02*
X123685771Y-105238095D01*
X123685771Y-105238095D02*
X123923866Y-105238095D01*
X123923866Y-105238095D02*
X124114342Y-105285714D01*
X124114342Y-105285714D02*
X124209580Y-105333333D01*
X124209580Y-105333333D02*
X124257200Y-105380952D01*
X124257200Y-105380952D02*
X124304819Y-105476190D01*
X124304819Y-105476190D02*
X124304819Y-105571428D01*
X124304819Y-105571428D02*
X124257200Y-105666666D01*
X124257200Y-105666666D02*
X124209580Y-105714285D01*
X124209580Y-105714285D02*
X124114342Y-105761904D01*
X124114342Y-105761904D02*
X123923866Y-105809523D01*
X123923866Y-105809523D02*
X123685771Y-105809523D01*
X123685771Y-105809523D02*
X123495295Y-105761904D01*
X123495295Y-105761904D02*
X123400057Y-105714285D01*
X123400057Y-105714285D02*
X123352438Y-105666666D01*
X123352438Y-105666666D02*
X123304819Y-105571428D01*
X135174761Y-77590057D02*
X135079523Y-77542438D01*
X135079523Y-77542438D02*
X134984285Y-77447200D01*
X134984285Y-77447200D02*
X134841428Y-77304342D01*
X134841428Y-77304342D02*
X134746190Y-77256723D01*
X134746190Y-77256723D02*
X134650952Y-77256723D01*
X134698571Y-77494819D02*
X134603333Y-77447200D01*
X134603333Y-77447200D02*
X134508095Y-77351961D01*
X134508095Y-77351961D02*
X134460476Y-77161485D01*
X134460476Y-77161485D02*
X134460476Y-76828152D01*
X134460476Y-76828152D02*
X134508095Y-76637676D01*
X134508095Y-76637676D02*
X134603333Y-76542438D01*
X134603333Y-76542438D02*
X134698571Y-76494819D01*
X134698571Y-76494819D02*
X134889047Y-76494819D01*
X134889047Y-76494819D02*
X134984285Y-76542438D01*
X134984285Y-76542438D02*
X135079523Y-76637676D01*
X135079523Y-76637676D02*
X135127142Y-76828152D01*
X135127142Y-76828152D02*
X135127142Y-77161485D01*
X135127142Y-77161485D02*
X135079523Y-77351961D01*
X135079523Y-77351961D02*
X134984285Y-77447200D01*
X134984285Y-77447200D02*
X134889047Y-77494819D01*
X134889047Y-77494819D02*
X134698571Y-77494819D01*
X136079523Y-77494819D02*
X135508095Y-77494819D01*
X135793809Y-77494819D02*
X135793809Y-76494819D01*
X135793809Y-76494819D02*
X135698571Y-76637676D01*
X135698571Y-76637676D02*
X135603333Y-76732914D01*
X135603333Y-76732914D02*
X135508095Y-76780533D01*
X158604819Y-93642857D02*
X158128628Y-93976190D01*
X158604819Y-94214285D02*
X157604819Y-94214285D01*
X157604819Y-94214285D02*
X157604819Y-93833333D01*
X157604819Y-93833333D02*
X157652438Y-93738095D01*
X157652438Y-93738095D02*
X157700057Y-93690476D01*
X157700057Y-93690476D02*
X157795295Y-93642857D01*
X157795295Y-93642857D02*
X157938152Y-93642857D01*
X157938152Y-93642857D02*
X158033390Y-93690476D01*
X158033390Y-93690476D02*
X158081009Y-93738095D01*
X158081009Y-93738095D02*
X158128628Y-93833333D01*
X158128628Y-93833333D02*
X158128628Y-94214285D01*
X157604819Y-93309523D02*
X157604819Y-92690476D01*
X157604819Y-92690476D02*
X157985771Y-93023809D01*
X157985771Y-93023809D02*
X157985771Y-92880952D01*
X157985771Y-92880952D02*
X158033390Y-92785714D01*
X158033390Y-92785714D02*
X158081009Y-92738095D01*
X158081009Y-92738095D02*
X158176247Y-92690476D01*
X158176247Y-92690476D02*
X158414342Y-92690476D01*
X158414342Y-92690476D02*
X158509580Y-92738095D01*
X158509580Y-92738095D02*
X158557200Y-92785714D01*
X158557200Y-92785714D02*
X158604819Y-92880952D01*
X158604819Y-92880952D02*
X158604819Y-93166666D01*
X158604819Y-93166666D02*
X158557200Y-93261904D01*
X158557200Y-93261904D02*
X158509580Y-93309523D01*
X157938152Y-91833333D02*
X158604819Y-91833333D01*
X157557200Y-92071428D02*
X158271485Y-92309523D01*
X158271485Y-92309523D02*
X158271485Y-91690476D01*
X172174761Y-96590057D02*
X172079523Y-96542438D01*
X172079523Y-96542438D02*
X171984285Y-96447200D01*
X171984285Y-96447200D02*
X171841428Y-96304342D01*
X171841428Y-96304342D02*
X171746190Y-96256723D01*
X171746190Y-96256723D02*
X171650952Y-96256723D01*
X171698571Y-96494819D02*
X171603333Y-96447200D01*
X171603333Y-96447200D02*
X171508095Y-96351961D01*
X171508095Y-96351961D02*
X171460476Y-96161485D01*
X171460476Y-96161485D02*
X171460476Y-95828152D01*
X171460476Y-95828152D02*
X171508095Y-95637676D01*
X171508095Y-95637676D02*
X171603333Y-95542438D01*
X171603333Y-95542438D02*
X171698571Y-95494819D01*
X171698571Y-95494819D02*
X171889047Y-95494819D01*
X171889047Y-95494819D02*
X171984285Y-95542438D01*
X171984285Y-95542438D02*
X172079523Y-95637676D01*
X172079523Y-95637676D02*
X172127142Y-95828152D01*
X172127142Y-95828152D02*
X172127142Y-96161485D01*
X172127142Y-96161485D02*
X172079523Y-96351961D01*
X172079523Y-96351961D02*
X171984285Y-96447200D01*
X171984285Y-96447200D02*
X171889047Y-96494819D01*
X171889047Y-96494819D02*
X171698571Y-96494819D01*
X172984285Y-95494819D02*
X172793809Y-95494819D01*
X172793809Y-95494819D02*
X172698571Y-95542438D01*
X172698571Y-95542438D02*
X172650952Y-95590057D01*
X172650952Y-95590057D02*
X172555714Y-95732914D01*
X172555714Y-95732914D02*
X172508095Y-95923390D01*
X172508095Y-95923390D02*
X172508095Y-96304342D01*
X172508095Y-96304342D02*
X172555714Y-96399580D01*
X172555714Y-96399580D02*
X172603333Y-96447200D01*
X172603333Y-96447200D02*
X172698571Y-96494819D01*
X172698571Y-96494819D02*
X172889047Y-96494819D01*
X172889047Y-96494819D02*
X172984285Y-96447200D01*
X172984285Y-96447200D02*
X173031904Y-96399580D01*
X173031904Y-96399580D02*
X173079523Y-96304342D01*
X173079523Y-96304342D02*
X173079523Y-96066247D01*
X173079523Y-96066247D02*
X173031904Y-95971009D01*
X173031904Y-95971009D02*
X172984285Y-95923390D01*
X172984285Y-95923390D02*
X172889047Y-95875771D01*
X172889047Y-95875771D02*
X172698571Y-95875771D01*
X172698571Y-95875771D02*
X172603333Y-95923390D01*
X172603333Y-95923390D02*
X172555714Y-95971009D01*
X172555714Y-95971009D02*
X172508095Y-96066247D01*
X134304819Y-88166666D02*
X133828628Y-88499999D01*
X134304819Y-88738094D02*
X133304819Y-88738094D01*
X133304819Y-88738094D02*
X133304819Y-88357142D01*
X133304819Y-88357142D02*
X133352438Y-88261904D01*
X133352438Y-88261904D02*
X133400057Y-88214285D01*
X133400057Y-88214285D02*
X133495295Y-88166666D01*
X133495295Y-88166666D02*
X133638152Y-88166666D01*
X133638152Y-88166666D02*
X133733390Y-88214285D01*
X133733390Y-88214285D02*
X133781009Y-88261904D01*
X133781009Y-88261904D02*
X133828628Y-88357142D01*
X133828628Y-88357142D02*
X133828628Y-88738094D01*
X133304819Y-87833332D02*
X133304819Y-87214285D01*
X133304819Y-87214285D02*
X133685771Y-87547618D01*
X133685771Y-87547618D02*
X133685771Y-87404761D01*
X133685771Y-87404761D02*
X133733390Y-87309523D01*
X133733390Y-87309523D02*
X133781009Y-87261904D01*
X133781009Y-87261904D02*
X133876247Y-87214285D01*
X133876247Y-87214285D02*
X134114342Y-87214285D01*
X134114342Y-87214285D02*
X134209580Y-87261904D01*
X134209580Y-87261904D02*
X134257200Y-87309523D01*
X134257200Y-87309523D02*
X134304819Y-87404761D01*
X134304819Y-87404761D02*
X134304819Y-87690475D01*
X134304819Y-87690475D02*
X134257200Y-87785713D01*
X134257200Y-87785713D02*
X134209580Y-87833332D01*
X154174761Y-114590057D02*
X154079523Y-114542438D01*
X154079523Y-114542438D02*
X153984285Y-114447200D01*
X153984285Y-114447200D02*
X153841428Y-114304342D01*
X153841428Y-114304342D02*
X153746190Y-114256723D01*
X153746190Y-114256723D02*
X153650952Y-114256723D01*
X153698571Y-114494819D02*
X153603333Y-114447200D01*
X153603333Y-114447200D02*
X153508095Y-114351961D01*
X153508095Y-114351961D02*
X153460476Y-114161485D01*
X153460476Y-114161485D02*
X153460476Y-113828152D01*
X153460476Y-113828152D02*
X153508095Y-113637676D01*
X153508095Y-113637676D02*
X153603333Y-113542438D01*
X153603333Y-113542438D02*
X153698571Y-113494819D01*
X153698571Y-113494819D02*
X153889047Y-113494819D01*
X153889047Y-113494819D02*
X153984285Y-113542438D01*
X153984285Y-113542438D02*
X154079523Y-113637676D01*
X154079523Y-113637676D02*
X154127142Y-113828152D01*
X154127142Y-113828152D02*
X154127142Y-114161485D01*
X154127142Y-114161485D02*
X154079523Y-114351961D01*
X154079523Y-114351961D02*
X153984285Y-114447200D01*
X153984285Y-114447200D02*
X153889047Y-114494819D01*
X153889047Y-114494819D02*
X153698571Y-114494819D01*
X154698571Y-113923390D02*
X154603333Y-113875771D01*
X154603333Y-113875771D02*
X154555714Y-113828152D01*
X154555714Y-113828152D02*
X154508095Y-113732914D01*
X154508095Y-113732914D02*
X154508095Y-113685295D01*
X154508095Y-113685295D02*
X154555714Y-113590057D01*
X154555714Y-113590057D02*
X154603333Y-113542438D01*
X154603333Y-113542438D02*
X154698571Y-113494819D01*
X154698571Y-113494819D02*
X154889047Y-113494819D01*
X154889047Y-113494819D02*
X154984285Y-113542438D01*
X154984285Y-113542438D02*
X155031904Y-113590057D01*
X155031904Y-113590057D02*
X155079523Y-113685295D01*
X155079523Y-113685295D02*
X155079523Y-113732914D01*
X155079523Y-113732914D02*
X155031904Y-113828152D01*
X155031904Y-113828152D02*
X154984285Y-113875771D01*
X154984285Y-113875771D02*
X154889047Y-113923390D01*
X154889047Y-113923390D02*
X154698571Y-113923390D01*
X154698571Y-113923390D02*
X154603333Y-113971009D01*
X154603333Y-113971009D02*
X154555714Y-114018628D01*
X154555714Y-114018628D02*
X154508095Y-114113866D01*
X154508095Y-114113866D02*
X154508095Y-114304342D01*
X154508095Y-114304342D02*
X154555714Y-114399580D01*
X154555714Y-114399580D02*
X154603333Y-114447200D01*
X154603333Y-114447200D02*
X154698571Y-114494819D01*
X154698571Y-114494819D02*
X154889047Y-114494819D01*
X154889047Y-114494819D02*
X154984285Y-114447200D01*
X154984285Y-114447200D02*
X155031904Y-114399580D01*
X155031904Y-114399580D02*
X155079523Y-114304342D01*
X155079523Y-114304342D02*
X155079523Y-114113866D01*
X155079523Y-114113866D02*
X155031904Y-114018628D01*
X155031904Y-114018628D02*
X154984285Y-113971009D01*
X154984285Y-113971009D02*
X154889047Y-113923390D01*
X140104819Y-75142857D02*
X139628628Y-75476190D01*
X140104819Y-75714285D02*
X139104819Y-75714285D01*
X139104819Y-75714285D02*
X139104819Y-75333333D01*
X139104819Y-75333333D02*
X139152438Y-75238095D01*
X139152438Y-75238095D02*
X139200057Y-75190476D01*
X139200057Y-75190476D02*
X139295295Y-75142857D01*
X139295295Y-75142857D02*
X139438152Y-75142857D01*
X139438152Y-75142857D02*
X139533390Y-75190476D01*
X139533390Y-75190476D02*
X139581009Y-75238095D01*
X139581009Y-75238095D02*
X139628628Y-75333333D01*
X139628628Y-75333333D02*
X139628628Y-75714285D01*
X139104819Y-74809523D02*
X139104819Y-74190476D01*
X139104819Y-74190476D02*
X139485771Y-74523809D01*
X139485771Y-74523809D02*
X139485771Y-74380952D01*
X139485771Y-74380952D02*
X139533390Y-74285714D01*
X139533390Y-74285714D02*
X139581009Y-74238095D01*
X139581009Y-74238095D02*
X139676247Y-74190476D01*
X139676247Y-74190476D02*
X139914342Y-74190476D01*
X139914342Y-74190476D02*
X140009580Y-74238095D01*
X140009580Y-74238095D02*
X140057200Y-74285714D01*
X140057200Y-74285714D02*
X140104819Y-74380952D01*
X140104819Y-74380952D02*
X140104819Y-74666666D01*
X140104819Y-74666666D02*
X140057200Y-74761904D01*
X140057200Y-74761904D02*
X140009580Y-74809523D01*
X139104819Y-73571428D02*
X139104819Y-73476190D01*
X139104819Y-73476190D02*
X139152438Y-73380952D01*
X139152438Y-73380952D02*
X139200057Y-73333333D01*
X139200057Y-73333333D02*
X139295295Y-73285714D01*
X139295295Y-73285714D02*
X139485771Y-73238095D01*
X139485771Y-73238095D02*
X139723866Y-73238095D01*
X139723866Y-73238095D02*
X139914342Y-73285714D01*
X139914342Y-73285714D02*
X140009580Y-73333333D01*
X140009580Y-73333333D02*
X140057200Y-73380952D01*
X140057200Y-73380952D02*
X140104819Y-73476190D01*
X140104819Y-73476190D02*
X140104819Y-73571428D01*
X140104819Y-73571428D02*
X140057200Y-73666666D01*
X140057200Y-73666666D02*
X140009580Y-73714285D01*
X140009580Y-73714285D02*
X139914342Y-73761904D01*
X139914342Y-73761904D02*
X139723866Y-73809523D01*
X139723866Y-73809523D02*
X139485771Y-73809523D01*
X139485771Y-73809523D02*
X139295295Y-73761904D01*
X139295295Y-73761904D02*
X139200057Y-73714285D01*
X139200057Y-73714285D02*
X139152438Y-73666666D01*
X139152438Y-73666666D02*
X139104819Y-73571428D01*
X171304819Y-125555357D02*
X170828628Y-125888690D01*
X171304819Y-126126785D02*
X170304819Y-126126785D01*
X170304819Y-126126785D02*
X170304819Y-125745833D01*
X170304819Y-125745833D02*
X170352438Y-125650595D01*
X170352438Y-125650595D02*
X170400057Y-125602976D01*
X170400057Y-125602976D02*
X170495295Y-125555357D01*
X170495295Y-125555357D02*
X170638152Y-125555357D01*
X170638152Y-125555357D02*
X170733390Y-125602976D01*
X170733390Y-125602976D02*
X170781009Y-125650595D01*
X170781009Y-125650595D02*
X170828628Y-125745833D01*
X170828628Y-125745833D02*
X170828628Y-126126785D01*
X170400057Y-125174404D02*
X170352438Y-125126785D01*
X170352438Y-125126785D02*
X170304819Y-125031547D01*
X170304819Y-125031547D02*
X170304819Y-124793452D01*
X170304819Y-124793452D02*
X170352438Y-124698214D01*
X170352438Y-124698214D02*
X170400057Y-124650595D01*
X170400057Y-124650595D02*
X170495295Y-124602976D01*
X170495295Y-124602976D02*
X170590533Y-124602976D01*
X170590533Y-124602976D02*
X170733390Y-124650595D01*
X170733390Y-124650595D02*
X171304819Y-125222023D01*
X171304819Y-125222023D02*
X171304819Y-124602976D01*
X170304819Y-124269642D02*
X170304819Y-123602976D01*
X170304819Y-123602976D02*
X171304819Y-124031547D01*
X109490057Y-104801428D02*
X109442438Y-104896666D01*
X109442438Y-104896666D02*
X109347200Y-104991904D01*
X109347200Y-104991904D02*
X109204342Y-105134761D01*
X109204342Y-105134761D02*
X109156723Y-105229999D01*
X109156723Y-105229999D02*
X109156723Y-105325237D01*
X109394819Y-105277618D02*
X109347200Y-105372856D01*
X109347200Y-105372856D02*
X109251961Y-105468094D01*
X109251961Y-105468094D02*
X109061485Y-105515713D01*
X109061485Y-105515713D02*
X108728152Y-105515713D01*
X108728152Y-105515713D02*
X108537676Y-105468094D01*
X108537676Y-105468094D02*
X108442438Y-105372856D01*
X108442438Y-105372856D02*
X108394819Y-105277618D01*
X108394819Y-105277618D02*
X108394819Y-105087142D01*
X108394819Y-105087142D02*
X108442438Y-104991904D01*
X108442438Y-104991904D02*
X108537676Y-104896666D01*
X108537676Y-104896666D02*
X108728152Y-104849047D01*
X108728152Y-104849047D02*
X109061485Y-104849047D01*
X109061485Y-104849047D02*
X109251961Y-104896666D01*
X109251961Y-104896666D02*
X109347200Y-104991904D01*
X109347200Y-104991904D02*
X109394819Y-105087142D01*
X109394819Y-105087142D02*
X109394819Y-105277618D01*
X109394819Y-103896666D02*
X109394819Y-104468094D01*
X109394819Y-104182380D02*
X108394819Y-104182380D01*
X108394819Y-104182380D02*
X108537676Y-104277618D01*
X108537676Y-104277618D02*
X108632914Y-104372856D01*
X108632914Y-104372856D02*
X108680533Y-104468094D01*
X108490057Y-103515713D02*
X108442438Y-103468094D01*
X108442438Y-103468094D02*
X108394819Y-103372856D01*
X108394819Y-103372856D02*
X108394819Y-103134761D01*
X108394819Y-103134761D02*
X108442438Y-103039523D01*
X108442438Y-103039523D02*
X108490057Y-102991904D01*
X108490057Y-102991904D02*
X108585295Y-102944285D01*
X108585295Y-102944285D02*
X108680533Y-102944285D01*
X108680533Y-102944285D02*
X108823390Y-102991904D01*
X108823390Y-102991904D02*
X109394819Y-103563332D01*
X109394819Y-103563332D02*
X109394819Y-102944285D01*
X127166905Y-96494819D02*
X127166905Y-95494819D01*
X127166905Y-95494819D02*
X127405000Y-95494819D01*
X127405000Y-95494819D02*
X127547857Y-95542438D01*
X127547857Y-95542438D02*
X127643095Y-95637676D01*
X127643095Y-95637676D02*
X127690714Y-95732914D01*
X127690714Y-95732914D02*
X127738333Y-95923390D01*
X127738333Y-95923390D02*
X127738333Y-96066247D01*
X127738333Y-96066247D02*
X127690714Y-96256723D01*
X127690714Y-96256723D02*
X127643095Y-96351961D01*
X127643095Y-96351961D02*
X127547857Y-96447200D01*
X127547857Y-96447200D02*
X127405000Y-96494819D01*
X127405000Y-96494819D02*
X127166905Y-96494819D01*
X128595476Y-95828152D02*
X128595476Y-96494819D01*
X128357381Y-95447200D02*
X128119286Y-96161485D01*
X128119286Y-96161485D02*
X128738333Y-96161485D01*
X177104819Y-93642857D02*
X176628628Y-93976190D01*
X177104819Y-94214285D02*
X176104819Y-94214285D01*
X176104819Y-94214285D02*
X176104819Y-93833333D01*
X176104819Y-93833333D02*
X176152438Y-93738095D01*
X176152438Y-93738095D02*
X176200057Y-93690476D01*
X176200057Y-93690476D02*
X176295295Y-93642857D01*
X176295295Y-93642857D02*
X176438152Y-93642857D01*
X176438152Y-93642857D02*
X176533390Y-93690476D01*
X176533390Y-93690476D02*
X176581009Y-93738095D01*
X176581009Y-93738095D02*
X176628628Y-93833333D01*
X176628628Y-93833333D02*
X176628628Y-94214285D01*
X176104819Y-93309523D02*
X176104819Y-92690476D01*
X176104819Y-92690476D02*
X176485771Y-93023809D01*
X176485771Y-93023809D02*
X176485771Y-92880952D01*
X176485771Y-92880952D02*
X176533390Y-92785714D01*
X176533390Y-92785714D02*
X176581009Y-92738095D01*
X176581009Y-92738095D02*
X176676247Y-92690476D01*
X176676247Y-92690476D02*
X176914342Y-92690476D01*
X176914342Y-92690476D02*
X177009580Y-92738095D01*
X177009580Y-92738095D02*
X177057200Y-92785714D01*
X177057200Y-92785714D02*
X177104819Y-92880952D01*
X177104819Y-92880952D02*
X177104819Y-93166666D01*
X177104819Y-93166666D02*
X177057200Y-93261904D01*
X177057200Y-93261904D02*
X177009580Y-93309523D01*
X176104819Y-91785714D02*
X176104819Y-92261904D01*
X176104819Y-92261904D02*
X176581009Y-92309523D01*
X176581009Y-92309523D02*
X176533390Y-92261904D01*
X176533390Y-92261904D02*
X176485771Y-92166666D01*
X176485771Y-92166666D02*
X176485771Y-91928571D01*
X176485771Y-91928571D02*
X176533390Y-91833333D01*
X176533390Y-91833333D02*
X176581009Y-91785714D01*
X176581009Y-91785714D02*
X176676247Y-91738095D01*
X176676247Y-91738095D02*
X176914342Y-91738095D01*
X176914342Y-91738095D02*
X177009580Y-91785714D01*
X177009580Y-91785714D02*
X177057200Y-91833333D01*
X177057200Y-91833333D02*
X177104819Y-91928571D01*
X177104819Y-91928571D02*
X177104819Y-92166666D01*
X177104819Y-92166666D02*
X177057200Y-92261904D01*
X177057200Y-92261904D02*
X177009580Y-92309523D01*
X154174761Y-96590057D02*
X154079523Y-96542438D01*
X154079523Y-96542438D02*
X153984285Y-96447200D01*
X153984285Y-96447200D02*
X153841428Y-96304342D01*
X153841428Y-96304342D02*
X153746190Y-96256723D01*
X153746190Y-96256723D02*
X153650952Y-96256723D01*
X153698571Y-96494819D02*
X153603333Y-96447200D01*
X153603333Y-96447200D02*
X153508095Y-96351961D01*
X153508095Y-96351961D02*
X153460476Y-96161485D01*
X153460476Y-96161485D02*
X153460476Y-95828152D01*
X153460476Y-95828152D02*
X153508095Y-95637676D01*
X153508095Y-95637676D02*
X153603333Y-95542438D01*
X153603333Y-95542438D02*
X153698571Y-95494819D01*
X153698571Y-95494819D02*
X153889047Y-95494819D01*
X153889047Y-95494819D02*
X153984285Y-95542438D01*
X153984285Y-95542438D02*
X154079523Y-95637676D01*
X154079523Y-95637676D02*
X154127142Y-95828152D01*
X154127142Y-95828152D02*
X154127142Y-96161485D01*
X154127142Y-96161485D02*
X154079523Y-96351961D01*
X154079523Y-96351961D02*
X153984285Y-96447200D01*
X153984285Y-96447200D02*
X153889047Y-96494819D01*
X153889047Y-96494819D02*
X153698571Y-96494819D01*
X155031904Y-95494819D02*
X154555714Y-95494819D01*
X154555714Y-95494819D02*
X154508095Y-95971009D01*
X154508095Y-95971009D02*
X154555714Y-95923390D01*
X154555714Y-95923390D02*
X154650952Y-95875771D01*
X154650952Y-95875771D02*
X154889047Y-95875771D01*
X154889047Y-95875771D02*
X154984285Y-95923390D01*
X154984285Y-95923390D02*
X155031904Y-95971009D01*
X155031904Y-95971009D02*
X155079523Y-96066247D01*
X155079523Y-96066247D02*
X155079523Y-96304342D01*
X155079523Y-96304342D02*
X155031904Y-96399580D01*
X155031904Y-96399580D02*
X154984285Y-96447200D01*
X154984285Y-96447200D02*
X154889047Y-96494819D01*
X154889047Y-96494819D02*
X154650952Y-96494819D01*
X154650952Y-96494819D02*
X154555714Y-96447200D01*
X154555714Y-96447200D02*
X154508095Y-96399580D01*
X124304819Y-125730357D02*
X123828628Y-126063690D01*
X124304819Y-126301785D02*
X123304819Y-126301785D01*
X123304819Y-126301785D02*
X123304819Y-125920833D01*
X123304819Y-125920833D02*
X123352438Y-125825595D01*
X123352438Y-125825595D02*
X123400057Y-125777976D01*
X123400057Y-125777976D02*
X123495295Y-125730357D01*
X123495295Y-125730357D02*
X123638152Y-125730357D01*
X123638152Y-125730357D02*
X123733390Y-125777976D01*
X123733390Y-125777976D02*
X123781009Y-125825595D01*
X123781009Y-125825595D02*
X123828628Y-125920833D01*
X123828628Y-125920833D02*
X123828628Y-126301785D01*
X124304819Y-124777976D02*
X124304819Y-125349404D01*
X124304819Y-125063690D02*
X123304819Y-125063690D01*
X123304819Y-125063690D02*
X123447676Y-125158928D01*
X123447676Y-125158928D02*
X123542914Y-125254166D01*
X123542914Y-125254166D02*
X123590533Y-125349404D01*
X124304819Y-124301785D02*
X124304819Y-124111309D01*
X124304819Y-124111309D02*
X124257200Y-124016071D01*
X124257200Y-124016071D02*
X124209580Y-123968452D01*
X124209580Y-123968452D02*
X124066723Y-123873214D01*
X124066723Y-123873214D02*
X123876247Y-123825595D01*
X123876247Y-123825595D02*
X123495295Y-123825595D01*
X123495295Y-123825595D02*
X123400057Y-123873214D01*
X123400057Y-123873214D02*
X123352438Y-123920833D01*
X123352438Y-123920833D02*
X123304819Y-124016071D01*
X123304819Y-124016071D02*
X123304819Y-124206547D01*
X123304819Y-124206547D02*
X123352438Y-124301785D01*
X123352438Y-124301785D02*
X123400057Y-124349404D01*
X123400057Y-124349404D02*
X123495295Y-124397023D01*
X123495295Y-124397023D02*
X123733390Y-124397023D01*
X123733390Y-124397023D02*
X123828628Y-124349404D01*
X123828628Y-124349404D02*
X123876247Y-124301785D01*
X123876247Y-124301785D02*
X123923866Y-124206547D01*
X123923866Y-124206547D02*
X123923866Y-124016071D01*
X123923866Y-124016071D02*
X123876247Y-123920833D01*
X123876247Y-123920833D02*
X123828628Y-123873214D01*
X123828628Y-123873214D02*
X123733390Y-123825595D01*
X109490057Y-116301428D02*
X109442438Y-116396666D01*
X109442438Y-116396666D02*
X109347200Y-116491904D01*
X109347200Y-116491904D02*
X109204342Y-116634761D01*
X109204342Y-116634761D02*
X109156723Y-116729999D01*
X109156723Y-116729999D02*
X109156723Y-116825237D01*
X109394819Y-116777618D02*
X109347200Y-116872856D01*
X109347200Y-116872856D02*
X109251961Y-116968094D01*
X109251961Y-116968094D02*
X109061485Y-117015713D01*
X109061485Y-117015713D02*
X108728152Y-117015713D01*
X108728152Y-117015713D02*
X108537676Y-116968094D01*
X108537676Y-116968094D02*
X108442438Y-116872856D01*
X108442438Y-116872856D02*
X108394819Y-116777618D01*
X108394819Y-116777618D02*
X108394819Y-116587142D01*
X108394819Y-116587142D02*
X108442438Y-116491904D01*
X108442438Y-116491904D02*
X108537676Y-116396666D01*
X108537676Y-116396666D02*
X108728152Y-116349047D01*
X108728152Y-116349047D02*
X109061485Y-116349047D01*
X109061485Y-116349047D02*
X109251961Y-116396666D01*
X109251961Y-116396666D02*
X109347200Y-116491904D01*
X109347200Y-116491904D02*
X109394819Y-116587142D01*
X109394819Y-116587142D02*
X109394819Y-116777618D01*
X109394819Y-115396666D02*
X109394819Y-115968094D01*
X109394819Y-115682380D02*
X108394819Y-115682380D01*
X108394819Y-115682380D02*
X108537676Y-115777618D01*
X108537676Y-115777618D02*
X108632914Y-115872856D01*
X108632914Y-115872856D02*
X108680533Y-115968094D01*
X108394819Y-114777618D02*
X108394819Y-114682380D01*
X108394819Y-114682380D02*
X108442438Y-114587142D01*
X108442438Y-114587142D02*
X108490057Y-114539523D01*
X108490057Y-114539523D02*
X108585295Y-114491904D01*
X108585295Y-114491904D02*
X108775771Y-114444285D01*
X108775771Y-114444285D02*
X109013866Y-114444285D01*
X109013866Y-114444285D02*
X109204342Y-114491904D01*
X109204342Y-114491904D02*
X109299580Y-114539523D01*
X109299580Y-114539523D02*
X109347200Y-114587142D01*
X109347200Y-114587142D02*
X109394819Y-114682380D01*
X109394819Y-114682380D02*
X109394819Y-114777618D01*
X109394819Y-114777618D02*
X109347200Y-114872856D01*
X109347200Y-114872856D02*
X109299580Y-114920475D01*
X109299580Y-114920475D02*
X109204342Y-114968094D01*
X109204342Y-114968094D02*
X109013866Y-115015713D01*
X109013866Y-115015713D02*
X108775771Y-115015713D01*
X108775771Y-115015713D02*
X108585295Y-114968094D01*
X108585295Y-114968094D02*
X108490057Y-114920475D01*
X108490057Y-114920475D02*
X108442438Y-114872856D01*
X108442438Y-114872856D02*
X108394819Y-114777618D01*
X153304819Y-88079166D02*
X152828628Y-88412499D01*
X153304819Y-88650594D02*
X152304819Y-88650594D01*
X152304819Y-88650594D02*
X152304819Y-88269642D01*
X152304819Y-88269642D02*
X152352438Y-88174404D01*
X152352438Y-88174404D02*
X152400057Y-88126785D01*
X152400057Y-88126785D02*
X152495295Y-88079166D01*
X152495295Y-88079166D02*
X152638152Y-88079166D01*
X152638152Y-88079166D02*
X152733390Y-88126785D01*
X152733390Y-88126785D02*
X152781009Y-88174404D01*
X152781009Y-88174404D02*
X152828628Y-88269642D01*
X152828628Y-88269642D02*
X152828628Y-88650594D01*
X152304819Y-87222023D02*
X152304819Y-87412499D01*
X152304819Y-87412499D02*
X152352438Y-87507737D01*
X152352438Y-87507737D02*
X152400057Y-87555356D01*
X152400057Y-87555356D02*
X152542914Y-87650594D01*
X152542914Y-87650594D02*
X152733390Y-87698213D01*
X152733390Y-87698213D02*
X153114342Y-87698213D01*
X153114342Y-87698213D02*
X153209580Y-87650594D01*
X153209580Y-87650594D02*
X153257200Y-87602975D01*
X153257200Y-87602975D02*
X153304819Y-87507737D01*
X153304819Y-87507737D02*
X153304819Y-87317261D01*
X153304819Y-87317261D02*
X153257200Y-87222023D01*
X153257200Y-87222023D02*
X153209580Y-87174404D01*
X153209580Y-87174404D02*
X153114342Y-87126785D01*
X153114342Y-87126785D02*
X152876247Y-87126785D01*
X152876247Y-87126785D02*
X152781009Y-87174404D01*
X152781009Y-87174404D02*
X152733390Y-87222023D01*
X152733390Y-87222023D02*
X152685771Y-87317261D01*
X152685771Y-87317261D02*
X152685771Y-87507737D01*
X152685771Y-87507737D02*
X152733390Y-87602975D01*
X152733390Y-87602975D02*
X152781009Y-87650594D01*
X152781009Y-87650594D02*
X152876247Y-87698213D01*
X129304819Y-125642857D02*
X128828628Y-125976190D01*
X129304819Y-126214285D02*
X128304819Y-126214285D01*
X128304819Y-126214285D02*
X128304819Y-125833333D01*
X128304819Y-125833333D02*
X128352438Y-125738095D01*
X128352438Y-125738095D02*
X128400057Y-125690476D01*
X128400057Y-125690476D02*
X128495295Y-125642857D01*
X128495295Y-125642857D02*
X128638152Y-125642857D01*
X128638152Y-125642857D02*
X128733390Y-125690476D01*
X128733390Y-125690476D02*
X128781009Y-125738095D01*
X128781009Y-125738095D02*
X128828628Y-125833333D01*
X128828628Y-125833333D02*
X128828628Y-126214285D01*
X128400057Y-125261904D02*
X128352438Y-125214285D01*
X128352438Y-125214285D02*
X128304819Y-125119047D01*
X128304819Y-125119047D02*
X128304819Y-124880952D01*
X128304819Y-124880952D02*
X128352438Y-124785714D01*
X128352438Y-124785714D02*
X128400057Y-124738095D01*
X128400057Y-124738095D02*
X128495295Y-124690476D01*
X128495295Y-124690476D02*
X128590533Y-124690476D01*
X128590533Y-124690476D02*
X128733390Y-124738095D01*
X128733390Y-124738095D02*
X129304819Y-125309523D01*
X129304819Y-125309523D02*
X129304819Y-124690476D01*
X128304819Y-124071428D02*
X128304819Y-123976190D01*
X128304819Y-123976190D02*
X128352438Y-123880952D01*
X128352438Y-123880952D02*
X128400057Y-123833333D01*
X128400057Y-123833333D02*
X128495295Y-123785714D01*
X128495295Y-123785714D02*
X128685771Y-123738095D01*
X128685771Y-123738095D02*
X128923866Y-123738095D01*
X128923866Y-123738095D02*
X129114342Y-123785714D01*
X129114342Y-123785714D02*
X129209580Y-123833333D01*
X129209580Y-123833333D02*
X129257200Y-123880952D01*
X129257200Y-123880952D02*
X129304819Y-123976190D01*
X129304819Y-123976190D02*
X129304819Y-124071428D01*
X129304819Y-124071428D02*
X129257200Y-124166666D01*
X129257200Y-124166666D02*
X129209580Y-124214285D01*
X129209580Y-124214285D02*
X129114342Y-124261904D01*
X129114342Y-124261904D02*
X128923866Y-124309523D01*
X128923866Y-124309523D02*
X128685771Y-124309523D01*
X128685771Y-124309523D02*
X128495295Y-124261904D01*
X128495295Y-124261904D02*
X128400057Y-124214285D01*
X128400057Y-124214285D02*
X128352438Y-124166666D01*
X128352438Y-124166666D02*
X128304819Y-124071428D01*
X171304819Y-88079166D02*
X170828628Y-88412499D01*
X171304819Y-88650594D02*
X170304819Y-88650594D01*
X170304819Y-88650594D02*
X170304819Y-88269642D01*
X170304819Y-88269642D02*
X170352438Y-88174404D01*
X170352438Y-88174404D02*
X170400057Y-88126785D01*
X170400057Y-88126785D02*
X170495295Y-88079166D01*
X170495295Y-88079166D02*
X170638152Y-88079166D01*
X170638152Y-88079166D02*
X170733390Y-88126785D01*
X170733390Y-88126785D02*
X170781009Y-88174404D01*
X170781009Y-88174404D02*
X170828628Y-88269642D01*
X170828628Y-88269642D02*
X170828628Y-88650594D01*
X171304819Y-87602975D02*
X171304819Y-87412499D01*
X171304819Y-87412499D02*
X171257200Y-87317261D01*
X171257200Y-87317261D02*
X171209580Y-87269642D01*
X171209580Y-87269642D02*
X171066723Y-87174404D01*
X171066723Y-87174404D02*
X170876247Y-87126785D01*
X170876247Y-87126785D02*
X170495295Y-87126785D01*
X170495295Y-87126785D02*
X170400057Y-87174404D01*
X170400057Y-87174404D02*
X170352438Y-87222023D01*
X170352438Y-87222023D02*
X170304819Y-87317261D01*
X170304819Y-87317261D02*
X170304819Y-87507737D01*
X170304819Y-87507737D02*
X170352438Y-87602975D01*
X170352438Y-87602975D02*
X170400057Y-87650594D01*
X170400057Y-87650594D02*
X170495295Y-87698213D01*
X170495295Y-87698213D02*
X170733390Y-87698213D01*
X170733390Y-87698213D02*
X170828628Y-87650594D01*
X170828628Y-87650594D02*
X170876247Y-87602975D01*
X170876247Y-87602975D02*
X170923866Y-87507737D01*
X170923866Y-87507737D02*
X170923866Y-87317261D01*
X170923866Y-87317261D02*
X170876247Y-87222023D01*
X170876247Y-87222023D02*
X170828628Y-87174404D01*
X170828628Y-87174404D02*
X170733390Y-87126785D01*
X166304819Y-107055357D02*
X165828628Y-107388690D01*
X166304819Y-107626785D02*
X165304819Y-107626785D01*
X165304819Y-107626785D02*
X165304819Y-107245833D01*
X165304819Y-107245833D02*
X165352438Y-107150595D01*
X165352438Y-107150595D02*
X165400057Y-107102976D01*
X165400057Y-107102976D02*
X165495295Y-107055357D01*
X165495295Y-107055357D02*
X165638152Y-107055357D01*
X165638152Y-107055357D02*
X165733390Y-107102976D01*
X165733390Y-107102976D02*
X165781009Y-107150595D01*
X165781009Y-107150595D02*
X165828628Y-107245833D01*
X165828628Y-107245833D02*
X165828628Y-107626785D01*
X166304819Y-106102976D02*
X166304819Y-106674404D01*
X166304819Y-106388690D02*
X165304819Y-106388690D01*
X165304819Y-106388690D02*
X165447676Y-106483928D01*
X165447676Y-106483928D02*
X165542914Y-106579166D01*
X165542914Y-106579166D02*
X165590533Y-106674404D01*
X165304819Y-105769642D02*
X165304819Y-105102976D01*
X165304819Y-105102976D02*
X166304819Y-105531547D01*
X172174761Y-77590057D02*
X172079523Y-77542438D01*
X172079523Y-77542438D02*
X171984285Y-77447200D01*
X171984285Y-77447200D02*
X171841428Y-77304342D01*
X171841428Y-77304342D02*
X171746190Y-77256723D01*
X171746190Y-77256723D02*
X171650952Y-77256723D01*
X171698571Y-77494819D02*
X171603333Y-77447200D01*
X171603333Y-77447200D02*
X171508095Y-77351961D01*
X171508095Y-77351961D02*
X171460476Y-77161485D01*
X171460476Y-77161485D02*
X171460476Y-76828152D01*
X171460476Y-76828152D02*
X171508095Y-76637676D01*
X171508095Y-76637676D02*
X171603333Y-76542438D01*
X171603333Y-76542438D02*
X171698571Y-76494819D01*
X171698571Y-76494819D02*
X171889047Y-76494819D01*
X171889047Y-76494819D02*
X171984285Y-76542438D01*
X171984285Y-76542438D02*
X172079523Y-76637676D01*
X172079523Y-76637676D02*
X172127142Y-76828152D01*
X172127142Y-76828152D02*
X172127142Y-77161485D01*
X172127142Y-77161485D02*
X172079523Y-77351961D01*
X172079523Y-77351961D02*
X171984285Y-77447200D01*
X171984285Y-77447200D02*
X171889047Y-77494819D01*
X171889047Y-77494819D02*
X171698571Y-77494819D01*
X172460476Y-76494819D02*
X173079523Y-76494819D01*
X173079523Y-76494819D02*
X172746190Y-76875771D01*
X172746190Y-76875771D02*
X172889047Y-76875771D01*
X172889047Y-76875771D02*
X172984285Y-76923390D01*
X172984285Y-76923390D02*
X173031904Y-76971009D01*
X173031904Y-76971009D02*
X173079523Y-77066247D01*
X173079523Y-77066247D02*
X173079523Y-77304342D01*
X173079523Y-77304342D02*
X173031904Y-77399580D01*
X173031904Y-77399580D02*
X172984285Y-77447200D01*
X172984285Y-77447200D02*
X172889047Y-77494819D01*
X172889047Y-77494819D02*
X172603333Y-77494819D01*
X172603333Y-77494819D02*
X172508095Y-77447200D01*
X172508095Y-77447200D02*
X172460476Y-77399580D01*
X166304819Y-88079166D02*
X165828628Y-88412499D01*
X166304819Y-88650594D02*
X165304819Y-88650594D01*
X165304819Y-88650594D02*
X165304819Y-88269642D01*
X165304819Y-88269642D02*
X165352438Y-88174404D01*
X165352438Y-88174404D02*
X165400057Y-88126785D01*
X165400057Y-88126785D02*
X165495295Y-88079166D01*
X165495295Y-88079166D02*
X165638152Y-88079166D01*
X165638152Y-88079166D02*
X165733390Y-88126785D01*
X165733390Y-88126785D02*
X165781009Y-88174404D01*
X165781009Y-88174404D02*
X165828628Y-88269642D01*
X165828628Y-88269642D02*
X165828628Y-88650594D01*
X165733390Y-87507737D02*
X165685771Y-87602975D01*
X165685771Y-87602975D02*
X165638152Y-87650594D01*
X165638152Y-87650594D02*
X165542914Y-87698213D01*
X165542914Y-87698213D02*
X165495295Y-87698213D01*
X165495295Y-87698213D02*
X165400057Y-87650594D01*
X165400057Y-87650594D02*
X165352438Y-87602975D01*
X165352438Y-87602975D02*
X165304819Y-87507737D01*
X165304819Y-87507737D02*
X165304819Y-87317261D01*
X165304819Y-87317261D02*
X165352438Y-87222023D01*
X165352438Y-87222023D02*
X165400057Y-87174404D01*
X165400057Y-87174404D02*
X165495295Y-87126785D01*
X165495295Y-87126785D02*
X165542914Y-87126785D01*
X165542914Y-87126785D02*
X165638152Y-87174404D01*
X165638152Y-87174404D02*
X165685771Y-87222023D01*
X165685771Y-87222023D02*
X165733390Y-87317261D01*
X165733390Y-87317261D02*
X165733390Y-87507737D01*
X165733390Y-87507737D02*
X165781009Y-87602975D01*
X165781009Y-87602975D02*
X165828628Y-87650594D01*
X165828628Y-87650594D02*
X165923866Y-87698213D01*
X165923866Y-87698213D02*
X166114342Y-87698213D01*
X166114342Y-87698213D02*
X166209580Y-87650594D01*
X166209580Y-87650594D02*
X166257200Y-87602975D01*
X166257200Y-87602975D02*
X166304819Y-87507737D01*
X166304819Y-87507737D02*
X166304819Y-87317261D01*
X166304819Y-87317261D02*
X166257200Y-87222023D01*
X166257200Y-87222023D02*
X166209580Y-87174404D01*
X166209580Y-87174404D02*
X166114342Y-87126785D01*
X166114342Y-87126785D02*
X165923866Y-87126785D01*
X165923866Y-87126785D02*
X165828628Y-87174404D01*
X165828628Y-87174404D02*
X165781009Y-87222023D01*
X165781009Y-87222023D02*
X165733390Y-87317261D01*
X134304819Y-125642857D02*
X133828628Y-125976190D01*
X134304819Y-126214285D02*
X133304819Y-126214285D01*
X133304819Y-126214285D02*
X133304819Y-125833333D01*
X133304819Y-125833333D02*
X133352438Y-125738095D01*
X133352438Y-125738095D02*
X133400057Y-125690476D01*
X133400057Y-125690476D02*
X133495295Y-125642857D01*
X133495295Y-125642857D02*
X133638152Y-125642857D01*
X133638152Y-125642857D02*
X133733390Y-125690476D01*
X133733390Y-125690476D02*
X133781009Y-125738095D01*
X133781009Y-125738095D02*
X133828628Y-125833333D01*
X133828628Y-125833333D02*
X133828628Y-126214285D01*
X133400057Y-125261904D02*
X133352438Y-125214285D01*
X133352438Y-125214285D02*
X133304819Y-125119047D01*
X133304819Y-125119047D02*
X133304819Y-124880952D01*
X133304819Y-124880952D02*
X133352438Y-124785714D01*
X133352438Y-124785714D02*
X133400057Y-124738095D01*
X133400057Y-124738095D02*
X133495295Y-124690476D01*
X133495295Y-124690476D02*
X133590533Y-124690476D01*
X133590533Y-124690476D02*
X133733390Y-124738095D01*
X133733390Y-124738095D02*
X134304819Y-125309523D01*
X134304819Y-125309523D02*
X134304819Y-124690476D01*
X134304819Y-123738095D02*
X134304819Y-124309523D01*
X134304819Y-124023809D02*
X133304819Y-124023809D01*
X133304819Y-124023809D02*
X133447676Y-124119047D01*
X133447676Y-124119047D02*
X133542914Y-124214285D01*
X133542914Y-124214285D02*
X133590533Y-124309523D01*
X107357142Y-126304819D02*
X107023809Y-125828628D01*
X106785714Y-126304819D02*
X106785714Y-125304819D01*
X106785714Y-125304819D02*
X107166666Y-125304819D01*
X107166666Y-125304819D02*
X107261904Y-125352438D01*
X107261904Y-125352438D02*
X107309523Y-125400057D01*
X107309523Y-125400057D02*
X107357142Y-125495295D01*
X107357142Y-125495295D02*
X107357142Y-125638152D01*
X107357142Y-125638152D02*
X107309523Y-125733390D01*
X107309523Y-125733390D02*
X107261904Y-125781009D01*
X107261904Y-125781009D02*
X107166666Y-125828628D01*
X107166666Y-125828628D02*
X106785714Y-125828628D01*
X107738095Y-125400057D02*
X107785714Y-125352438D01*
X107785714Y-125352438D02*
X107880952Y-125304819D01*
X107880952Y-125304819D02*
X108119047Y-125304819D01*
X108119047Y-125304819D02*
X108214285Y-125352438D01*
X108214285Y-125352438D02*
X108261904Y-125400057D01*
X108261904Y-125400057D02*
X108309523Y-125495295D01*
X108309523Y-125495295D02*
X108309523Y-125590533D01*
X108309523Y-125590533D02*
X108261904Y-125733390D01*
X108261904Y-125733390D02*
X107690476Y-126304819D01*
X107690476Y-126304819D02*
X108309523Y-126304819D01*
X108880952Y-125733390D02*
X108785714Y-125685771D01*
X108785714Y-125685771D02*
X108738095Y-125638152D01*
X108738095Y-125638152D02*
X108690476Y-125542914D01*
X108690476Y-125542914D02*
X108690476Y-125495295D01*
X108690476Y-125495295D02*
X108738095Y-125400057D01*
X108738095Y-125400057D02*
X108785714Y-125352438D01*
X108785714Y-125352438D02*
X108880952Y-125304819D01*
X108880952Y-125304819D02*
X109071428Y-125304819D01*
X109071428Y-125304819D02*
X109166666Y-125352438D01*
X109166666Y-125352438D02*
X109214285Y-125400057D01*
X109214285Y-125400057D02*
X109261904Y-125495295D01*
X109261904Y-125495295D02*
X109261904Y-125542914D01*
X109261904Y-125542914D02*
X109214285Y-125638152D01*
X109214285Y-125638152D02*
X109166666Y-125685771D01*
X109166666Y-125685771D02*
X109071428Y-125733390D01*
X109071428Y-125733390D02*
X108880952Y-125733390D01*
X108880952Y-125733390D02*
X108785714Y-125781009D01*
X108785714Y-125781009D02*
X108738095Y-125828628D01*
X108738095Y-125828628D02*
X108690476Y-125923866D01*
X108690476Y-125923866D02*
X108690476Y-126114342D01*
X108690476Y-126114342D02*
X108738095Y-126209580D01*
X108738095Y-126209580D02*
X108785714Y-126257200D01*
X108785714Y-126257200D02*
X108880952Y-126304819D01*
X108880952Y-126304819D02*
X109071428Y-126304819D01*
X109071428Y-126304819D02*
X109166666Y-126257200D01*
X109166666Y-126257200D02*
X109214285Y-126209580D01*
X109214285Y-126209580D02*
X109261904Y-126114342D01*
X109261904Y-126114342D02*
X109261904Y-125923866D01*
X109261904Y-125923866D02*
X109214285Y-125828628D01*
X109214285Y-125828628D02*
X109166666Y-125781009D01*
X109166666Y-125781009D02*
X109071428Y-125733390D01*
X177104819Y-75142857D02*
X176628628Y-75476190D01*
X177104819Y-75714285D02*
X176104819Y-75714285D01*
X176104819Y-75714285D02*
X176104819Y-75333333D01*
X176104819Y-75333333D02*
X176152438Y-75238095D01*
X176152438Y-75238095D02*
X176200057Y-75190476D01*
X176200057Y-75190476D02*
X176295295Y-75142857D01*
X176295295Y-75142857D02*
X176438152Y-75142857D01*
X176438152Y-75142857D02*
X176533390Y-75190476D01*
X176533390Y-75190476D02*
X176581009Y-75238095D01*
X176581009Y-75238095D02*
X176628628Y-75333333D01*
X176628628Y-75333333D02*
X176628628Y-75714285D01*
X176104819Y-74809523D02*
X176104819Y-74190476D01*
X176104819Y-74190476D02*
X176485771Y-74523809D01*
X176485771Y-74523809D02*
X176485771Y-74380952D01*
X176485771Y-74380952D02*
X176533390Y-74285714D01*
X176533390Y-74285714D02*
X176581009Y-74238095D01*
X176581009Y-74238095D02*
X176676247Y-74190476D01*
X176676247Y-74190476D02*
X176914342Y-74190476D01*
X176914342Y-74190476D02*
X177009580Y-74238095D01*
X177009580Y-74238095D02*
X177057200Y-74285714D01*
X177057200Y-74285714D02*
X177104819Y-74380952D01*
X177104819Y-74380952D02*
X177104819Y-74666666D01*
X177104819Y-74666666D02*
X177057200Y-74761904D01*
X177057200Y-74761904D02*
X177009580Y-74809523D01*
X176200057Y-73809523D02*
X176152438Y-73761904D01*
X176152438Y-73761904D02*
X176104819Y-73666666D01*
X176104819Y-73666666D02*
X176104819Y-73428571D01*
X176104819Y-73428571D02*
X176152438Y-73333333D01*
X176152438Y-73333333D02*
X176200057Y-73285714D01*
X176200057Y-73285714D02*
X176295295Y-73238095D01*
X176295295Y-73238095D02*
X176390533Y-73238095D01*
X176390533Y-73238095D02*
X176533390Y-73285714D01*
X176533390Y-73285714D02*
X177104819Y-73857142D01*
X177104819Y-73857142D02*
X177104819Y-73238095D01*
X109490057Y-110571428D02*
X109442438Y-110666666D01*
X109442438Y-110666666D02*
X109347200Y-110761904D01*
X109347200Y-110761904D02*
X109204342Y-110904761D01*
X109204342Y-110904761D02*
X109156723Y-110999999D01*
X109156723Y-110999999D02*
X109156723Y-111095237D01*
X109394819Y-111047618D02*
X109347200Y-111142856D01*
X109347200Y-111142856D02*
X109251961Y-111238094D01*
X109251961Y-111238094D02*
X109061485Y-111285713D01*
X109061485Y-111285713D02*
X108728152Y-111285713D01*
X108728152Y-111285713D02*
X108537676Y-111238094D01*
X108537676Y-111238094D02*
X108442438Y-111142856D01*
X108442438Y-111142856D02*
X108394819Y-111047618D01*
X108394819Y-111047618D02*
X108394819Y-110857142D01*
X108394819Y-110857142D02*
X108442438Y-110761904D01*
X108442438Y-110761904D02*
X108537676Y-110666666D01*
X108537676Y-110666666D02*
X108728152Y-110619047D01*
X108728152Y-110619047D02*
X109061485Y-110619047D01*
X109061485Y-110619047D02*
X109251961Y-110666666D01*
X109251961Y-110666666D02*
X109347200Y-110761904D01*
X109347200Y-110761904D02*
X109394819Y-110857142D01*
X109394819Y-110857142D02*
X109394819Y-111047618D01*
X109394819Y-109666666D02*
X109394819Y-110238094D01*
X109394819Y-109952380D02*
X108394819Y-109952380D01*
X108394819Y-109952380D02*
X108537676Y-110047618D01*
X108537676Y-110047618D02*
X108632914Y-110142856D01*
X108632914Y-110142856D02*
X108680533Y-110238094D01*
X109394819Y-108714285D02*
X109394819Y-109285713D01*
X109394819Y-108999999D02*
X108394819Y-108999999D01*
X108394819Y-108999999D02*
X108537676Y-109095237D01*
X108537676Y-109095237D02*
X108632914Y-109190475D01*
X108632914Y-109190475D02*
X108680533Y-109285713D01*
X129304819Y-107142857D02*
X128828628Y-107476190D01*
X129304819Y-107714285D02*
X128304819Y-107714285D01*
X128304819Y-107714285D02*
X128304819Y-107333333D01*
X128304819Y-107333333D02*
X128352438Y-107238095D01*
X128352438Y-107238095D02*
X128400057Y-107190476D01*
X128400057Y-107190476D02*
X128495295Y-107142857D01*
X128495295Y-107142857D02*
X128638152Y-107142857D01*
X128638152Y-107142857D02*
X128733390Y-107190476D01*
X128733390Y-107190476D02*
X128781009Y-107238095D01*
X128781009Y-107238095D02*
X128828628Y-107333333D01*
X128828628Y-107333333D02*
X128828628Y-107714285D01*
X129304819Y-106190476D02*
X129304819Y-106761904D01*
X129304819Y-106476190D02*
X128304819Y-106476190D01*
X128304819Y-106476190D02*
X128447676Y-106571428D01*
X128447676Y-106571428D02*
X128542914Y-106666666D01*
X128542914Y-106666666D02*
X128590533Y-106761904D01*
X129304819Y-105238095D02*
X129304819Y-105809523D01*
X129304819Y-105523809D02*
X128304819Y-105523809D01*
X128304819Y-105523809D02*
X128447676Y-105619047D01*
X128447676Y-105619047D02*
X128542914Y-105714285D01*
X128542914Y-105714285D02*
X128590533Y-105809523D01*
X164166905Y-96494819D02*
X164166905Y-95494819D01*
X164166905Y-95494819D02*
X164405000Y-95494819D01*
X164405000Y-95494819D02*
X164547857Y-95542438D01*
X164547857Y-95542438D02*
X164643095Y-95637676D01*
X164643095Y-95637676D02*
X164690714Y-95732914D01*
X164690714Y-95732914D02*
X164738333Y-95923390D01*
X164738333Y-95923390D02*
X164738333Y-96066247D01*
X164738333Y-96066247D02*
X164690714Y-96256723D01*
X164690714Y-96256723D02*
X164643095Y-96351961D01*
X164643095Y-96351961D02*
X164547857Y-96447200D01*
X164547857Y-96447200D02*
X164405000Y-96494819D01*
X164405000Y-96494819D02*
X164166905Y-96494819D01*
X165595476Y-95494819D02*
X165405000Y-95494819D01*
X165405000Y-95494819D02*
X165309762Y-95542438D01*
X165309762Y-95542438D02*
X165262143Y-95590057D01*
X165262143Y-95590057D02*
X165166905Y-95732914D01*
X165166905Y-95732914D02*
X165119286Y-95923390D01*
X165119286Y-95923390D02*
X165119286Y-96304342D01*
X165119286Y-96304342D02*
X165166905Y-96399580D01*
X165166905Y-96399580D02*
X165214524Y-96447200D01*
X165214524Y-96447200D02*
X165309762Y-96494819D01*
X165309762Y-96494819D02*
X165500238Y-96494819D01*
X165500238Y-96494819D02*
X165595476Y-96447200D01*
X165595476Y-96447200D02*
X165643095Y-96399580D01*
X165643095Y-96399580D02*
X165690714Y-96304342D01*
X165690714Y-96304342D02*
X165690714Y-96066247D01*
X165690714Y-96066247D02*
X165643095Y-95971009D01*
X165643095Y-95971009D02*
X165595476Y-95923390D01*
X165595476Y-95923390D02*
X165500238Y-95875771D01*
X165500238Y-95875771D02*
X165309762Y-95875771D01*
X165309762Y-95875771D02*
X165214524Y-95923390D01*
X165214524Y-95923390D02*
X165166905Y-95971009D01*
X165166905Y-95971009D02*
X165119286Y-96066247D01*
X153304819Y-125642857D02*
X152828628Y-125976190D01*
X153304819Y-126214285D02*
X152304819Y-126214285D01*
X152304819Y-126214285D02*
X152304819Y-125833333D01*
X152304819Y-125833333D02*
X152352438Y-125738095D01*
X152352438Y-125738095D02*
X152400057Y-125690476D01*
X152400057Y-125690476D02*
X152495295Y-125642857D01*
X152495295Y-125642857D02*
X152638152Y-125642857D01*
X152638152Y-125642857D02*
X152733390Y-125690476D01*
X152733390Y-125690476D02*
X152781009Y-125738095D01*
X152781009Y-125738095D02*
X152828628Y-125833333D01*
X152828628Y-125833333D02*
X152828628Y-126214285D01*
X152400057Y-125261904D02*
X152352438Y-125214285D01*
X152352438Y-125214285D02*
X152304819Y-125119047D01*
X152304819Y-125119047D02*
X152304819Y-124880952D01*
X152304819Y-124880952D02*
X152352438Y-124785714D01*
X152352438Y-124785714D02*
X152400057Y-124738095D01*
X152400057Y-124738095D02*
X152495295Y-124690476D01*
X152495295Y-124690476D02*
X152590533Y-124690476D01*
X152590533Y-124690476D02*
X152733390Y-124738095D01*
X152733390Y-124738095D02*
X153304819Y-125309523D01*
X153304819Y-125309523D02*
X153304819Y-124690476D01*
X152638152Y-123833333D02*
X153304819Y-123833333D01*
X152257200Y-124071428D02*
X152971485Y-124309523D01*
X152971485Y-124309523D02*
X152971485Y-123690476D01*
X147804819Y-125642857D02*
X147328628Y-125976190D01*
X147804819Y-126214285D02*
X146804819Y-126214285D01*
X146804819Y-126214285D02*
X146804819Y-125833333D01*
X146804819Y-125833333D02*
X146852438Y-125738095D01*
X146852438Y-125738095D02*
X146900057Y-125690476D01*
X146900057Y-125690476D02*
X146995295Y-125642857D01*
X146995295Y-125642857D02*
X147138152Y-125642857D01*
X147138152Y-125642857D02*
X147233390Y-125690476D01*
X147233390Y-125690476D02*
X147281009Y-125738095D01*
X147281009Y-125738095D02*
X147328628Y-125833333D01*
X147328628Y-125833333D02*
X147328628Y-126214285D01*
X146900057Y-125261904D02*
X146852438Y-125214285D01*
X146852438Y-125214285D02*
X146804819Y-125119047D01*
X146804819Y-125119047D02*
X146804819Y-124880952D01*
X146804819Y-124880952D02*
X146852438Y-124785714D01*
X146852438Y-124785714D02*
X146900057Y-124738095D01*
X146900057Y-124738095D02*
X146995295Y-124690476D01*
X146995295Y-124690476D02*
X147090533Y-124690476D01*
X147090533Y-124690476D02*
X147233390Y-124738095D01*
X147233390Y-124738095D02*
X147804819Y-125309523D01*
X147804819Y-125309523D02*
X147804819Y-124690476D01*
X146804819Y-124357142D02*
X146804819Y-123738095D01*
X146804819Y-123738095D02*
X147185771Y-124071428D01*
X147185771Y-124071428D02*
X147185771Y-123928571D01*
X147185771Y-123928571D02*
X147233390Y-123833333D01*
X147233390Y-123833333D02*
X147281009Y-123785714D01*
X147281009Y-123785714D02*
X147376247Y-123738095D01*
X147376247Y-123738095D02*
X147614342Y-123738095D01*
X147614342Y-123738095D02*
X147709580Y-123785714D01*
X147709580Y-123785714D02*
X147757200Y-123833333D01*
X147757200Y-123833333D02*
X147804819Y-123928571D01*
X147804819Y-123928571D02*
X147804819Y-124214285D01*
X147804819Y-124214285D02*
X147757200Y-124309523D01*
X147757200Y-124309523D02*
X147709580Y-124357142D01*
X154174761Y-77590057D02*
X154079523Y-77542438D01*
X154079523Y-77542438D02*
X153984285Y-77447200D01*
X153984285Y-77447200D02*
X153841428Y-77304342D01*
X153841428Y-77304342D02*
X153746190Y-77256723D01*
X153746190Y-77256723D02*
X153650952Y-77256723D01*
X153698571Y-77494819D02*
X153603333Y-77447200D01*
X153603333Y-77447200D02*
X153508095Y-77351961D01*
X153508095Y-77351961D02*
X153460476Y-77161485D01*
X153460476Y-77161485D02*
X153460476Y-76828152D01*
X153460476Y-76828152D02*
X153508095Y-76637676D01*
X153508095Y-76637676D02*
X153603333Y-76542438D01*
X153603333Y-76542438D02*
X153698571Y-76494819D01*
X153698571Y-76494819D02*
X153889047Y-76494819D01*
X153889047Y-76494819D02*
X153984285Y-76542438D01*
X153984285Y-76542438D02*
X154079523Y-76637676D01*
X154079523Y-76637676D02*
X154127142Y-76828152D01*
X154127142Y-76828152D02*
X154127142Y-77161485D01*
X154127142Y-77161485D02*
X154079523Y-77351961D01*
X154079523Y-77351961D02*
X153984285Y-77447200D01*
X153984285Y-77447200D02*
X153889047Y-77494819D01*
X153889047Y-77494819D02*
X153698571Y-77494819D01*
X154508095Y-76590057D02*
X154555714Y-76542438D01*
X154555714Y-76542438D02*
X154650952Y-76494819D01*
X154650952Y-76494819D02*
X154889047Y-76494819D01*
X154889047Y-76494819D02*
X154984285Y-76542438D01*
X154984285Y-76542438D02*
X155031904Y-76590057D01*
X155031904Y-76590057D02*
X155079523Y-76685295D01*
X155079523Y-76685295D02*
X155079523Y-76780533D01*
X155079523Y-76780533D02*
X155031904Y-76923390D01*
X155031904Y-76923390D02*
X154460476Y-77494819D01*
X154460476Y-77494819D02*
X155079523Y-77494819D01*
X142804819Y-107142857D02*
X142328628Y-107476190D01*
X142804819Y-107714285D02*
X141804819Y-107714285D01*
X141804819Y-107714285D02*
X141804819Y-107333333D01*
X141804819Y-107333333D02*
X141852438Y-107238095D01*
X141852438Y-107238095D02*
X141900057Y-107190476D01*
X141900057Y-107190476D02*
X141995295Y-107142857D01*
X141995295Y-107142857D02*
X142138152Y-107142857D01*
X142138152Y-107142857D02*
X142233390Y-107190476D01*
X142233390Y-107190476D02*
X142281009Y-107238095D01*
X142281009Y-107238095D02*
X142328628Y-107333333D01*
X142328628Y-107333333D02*
X142328628Y-107714285D01*
X142804819Y-106190476D02*
X142804819Y-106761904D01*
X142804819Y-106476190D02*
X141804819Y-106476190D01*
X141804819Y-106476190D02*
X141947676Y-106571428D01*
X141947676Y-106571428D02*
X142042914Y-106666666D01*
X142042914Y-106666666D02*
X142090533Y-106761904D01*
X141804819Y-105857142D02*
X141804819Y-105238095D01*
X141804819Y-105238095D02*
X142185771Y-105571428D01*
X142185771Y-105571428D02*
X142185771Y-105428571D01*
X142185771Y-105428571D02*
X142233390Y-105333333D01*
X142233390Y-105333333D02*
X142281009Y-105285714D01*
X142281009Y-105285714D02*
X142376247Y-105238095D01*
X142376247Y-105238095D02*
X142614342Y-105238095D01*
X142614342Y-105238095D02*
X142709580Y-105285714D01*
X142709580Y-105285714D02*
X142757200Y-105333333D01*
X142757200Y-105333333D02*
X142804819Y-105428571D01*
X142804819Y-105428571D02*
X142804819Y-105714285D01*
X142804819Y-105714285D02*
X142757200Y-105809523D01*
X142757200Y-105809523D02*
X142709580Y-105857142D01*
X134304819Y-107142857D02*
X133828628Y-107476190D01*
X134304819Y-107714285D02*
X133304819Y-107714285D01*
X133304819Y-107714285D02*
X133304819Y-107333333D01*
X133304819Y-107333333D02*
X133352438Y-107238095D01*
X133352438Y-107238095D02*
X133400057Y-107190476D01*
X133400057Y-107190476D02*
X133495295Y-107142857D01*
X133495295Y-107142857D02*
X133638152Y-107142857D01*
X133638152Y-107142857D02*
X133733390Y-107190476D01*
X133733390Y-107190476D02*
X133781009Y-107238095D01*
X133781009Y-107238095D02*
X133828628Y-107333333D01*
X133828628Y-107333333D02*
X133828628Y-107714285D01*
X134304819Y-106190476D02*
X134304819Y-106761904D01*
X134304819Y-106476190D02*
X133304819Y-106476190D01*
X133304819Y-106476190D02*
X133447676Y-106571428D01*
X133447676Y-106571428D02*
X133542914Y-106666666D01*
X133542914Y-106666666D02*
X133590533Y-106761904D01*
X133400057Y-105809523D02*
X133352438Y-105761904D01*
X133352438Y-105761904D02*
X133304819Y-105666666D01*
X133304819Y-105666666D02*
X133304819Y-105428571D01*
X133304819Y-105428571D02*
X133352438Y-105333333D01*
X133352438Y-105333333D02*
X133400057Y-105285714D01*
X133400057Y-105285714D02*
X133495295Y-105238095D01*
X133495295Y-105238095D02*
X133590533Y-105238095D01*
X133590533Y-105238095D02*
X133733390Y-105285714D01*
X133733390Y-105285714D02*
X134304819Y-105857142D01*
X134304819Y-105857142D02*
X134304819Y-105238095D01*
X153304819Y-107142857D02*
X152828628Y-107476190D01*
X153304819Y-107714285D02*
X152304819Y-107714285D01*
X152304819Y-107714285D02*
X152304819Y-107333333D01*
X152304819Y-107333333D02*
X152352438Y-107238095D01*
X152352438Y-107238095D02*
X152400057Y-107190476D01*
X152400057Y-107190476D02*
X152495295Y-107142857D01*
X152495295Y-107142857D02*
X152638152Y-107142857D01*
X152638152Y-107142857D02*
X152733390Y-107190476D01*
X152733390Y-107190476D02*
X152781009Y-107238095D01*
X152781009Y-107238095D02*
X152828628Y-107333333D01*
X152828628Y-107333333D02*
X152828628Y-107714285D01*
X153304819Y-106190476D02*
X153304819Y-106761904D01*
X153304819Y-106476190D02*
X152304819Y-106476190D01*
X152304819Y-106476190D02*
X152447676Y-106571428D01*
X152447676Y-106571428D02*
X152542914Y-106666666D01*
X152542914Y-106666666D02*
X152590533Y-106761904D01*
X152304819Y-105285714D02*
X152304819Y-105761904D01*
X152304819Y-105761904D02*
X152781009Y-105809523D01*
X152781009Y-105809523D02*
X152733390Y-105761904D01*
X152733390Y-105761904D02*
X152685771Y-105666666D01*
X152685771Y-105666666D02*
X152685771Y-105428571D01*
X152685771Y-105428571D02*
X152733390Y-105333333D01*
X152733390Y-105333333D02*
X152781009Y-105285714D01*
X152781009Y-105285714D02*
X152876247Y-105238095D01*
X152876247Y-105238095D02*
X153114342Y-105238095D01*
X153114342Y-105238095D02*
X153209580Y-105285714D01*
X153209580Y-105285714D02*
X153257200Y-105333333D01*
X153257200Y-105333333D02*
X153304819Y-105428571D01*
X153304819Y-105428571D02*
X153304819Y-105666666D01*
X153304819Y-105666666D02*
X153257200Y-105761904D01*
X153257200Y-105761904D02*
X153209580Y-105809523D01*
X107357142Y-122804819D02*
X107023809Y-122328628D01*
X106785714Y-122804819D02*
X106785714Y-121804819D01*
X106785714Y-121804819D02*
X107166666Y-121804819D01*
X107166666Y-121804819D02*
X107261904Y-121852438D01*
X107261904Y-121852438D02*
X107309523Y-121900057D01*
X107309523Y-121900057D02*
X107357142Y-121995295D01*
X107357142Y-121995295D02*
X107357142Y-122138152D01*
X107357142Y-122138152D02*
X107309523Y-122233390D01*
X107309523Y-122233390D02*
X107261904Y-122281009D01*
X107261904Y-122281009D02*
X107166666Y-122328628D01*
X107166666Y-122328628D02*
X106785714Y-122328628D01*
X107738095Y-121900057D02*
X107785714Y-121852438D01*
X107785714Y-121852438D02*
X107880952Y-121804819D01*
X107880952Y-121804819D02*
X108119047Y-121804819D01*
X108119047Y-121804819D02*
X108214285Y-121852438D01*
X108214285Y-121852438D02*
X108261904Y-121900057D01*
X108261904Y-121900057D02*
X108309523Y-121995295D01*
X108309523Y-121995295D02*
X108309523Y-122090533D01*
X108309523Y-122090533D02*
X108261904Y-122233390D01*
X108261904Y-122233390D02*
X107690476Y-122804819D01*
X107690476Y-122804819D02*
X108309523Y-122804819D01*
X108785714Y-122804819D02*
X108976190Y-122804819D01*
X108976190Y-122804819D02*
X109071428Y-122757200D01*
X109071428Y-122757200D02*
X109119047Y-122709580D01*
X109119047Y-122709580D02*
X109214285Y-122566723D01*
X109214285Y-122566723D02*
X109261904Y-122376247D01*
X109261904Y-122376247D02*
X109261904Y-121995295D01*
X109261904Y-121995295D02*
X109214285Y-121900057D01*
X109214285Y-121900057D02*
X109166666Y-121852438D01*
X109166666Y-121852438D02*
X109071428Y-121804819D01*
X109071428Y-121804819D02*
X108880952Y-121804819D01*
X108880952Y-121804819D02*
X108785714Y-121852438D01*
X108785714Y-121852438D02*
X108738095Y-121900057D01*
X108738095Y-121900057D02*
X108690476Y-121995295D01*
X108690476Y-121995295D02*
X108690476Y-122233390D01*
X108690476Y-122233390D02*
X108738095Y-122328628D01*
X108738095Y-122328628D02*
X108785714Y-122376247D01*
X108785714Y-122376247D02*
X108880952Y-122423866D01*
X108880952Y-122423866D02*
X109071428Y-122423866D01*
X109071428Y-122423866D02*
X109166666Y-122376247D01*
X109166666Y-122376247D02*
X109214285Y-122328628D01*
X109214285Y-122328628D02*
X109261904Y-122233390D01*
X129304819Y-88166666D02*
X128828628Y-88499999D01*
X129304819Y-88738094D02*
X128304819Y-88738094D01*
X128304819Y-88738094D02*
X128304819Y-88357142D01*
X128304819Y-88357142D02*
X128352438Y-88261904D01*
X128352438Y-88261904D02*
X128400057Y-88214285D01*
X128400057Y-88214285D02*
X128495295Y-88166666D01*
X128495295Y-88166666D02*
X128638152Y-88166666D01*
X128638152Y-88166666D02*
X128733390Y-88214285D01*
X128733390Y-88214285D02*
X128781009Y-88261904D01*
X128781009Y-88261904D02*
X128828628Y-88357142D01*
X128828628Y-88357142D02*
X128828628Y-88738094D01*
X128400057Y-87785713D02*
X128352438Y-87738094D01*
X128352438Y-87738094D02*
X128304819Y-87642856D01*
X128304819Y-87642856D02*
X128304819Y-87404761D01*
X128304819Y-87404761D02*
X128352438Y-87309523D01*
X128352438Y-87309523D02*
X128400057Y-87261904D01*
X128400057Y-87261904D02*
X128495295Y-87214285D01*
X128495295Y-87214285D02*
X128590533Y-87214285D01*
X128590533Y-87214285D02*
X128733390Y-87261904D01*
X128733390Y-87261904D02*
X129304819Y-87833332D01*
X129304819Y-87833332D02*
X129304819Y-87214285D01*
X172174761Y-114590057D02*
X172079523Y-114542438D01*
X172079523Y-114542438D02*
X171984285Y-114447200D01*
X171984285Y-114447200D02*
X171841428Y-114304342D01*
X171841428Y-114304342D02*
X171746190Y-114256723D01*
X171746190Y-114256723D02*
X171650952Y-114256723D01*
X171698571Y-114494819D02*
X171603333Y-114447200D01*
X171603333Y-114447200D02*
X171508095Y-114351961D01*
X171508095Y-114351961D02*
X171460476Y-114161485D01*
X171460476Y-114161485D02*
X171460476Y-113828152D01*
X171460476Y-113828152D02*
X171508095Y-113637676D01*
X171508095Y-113637676D02*
X171603333Y-113542438D01*
X171603333Y-113542438D02*
X171698571Y-113494819D01*
X171698571Y-113494819D02*
X171889047Y-113494819D01*
X171889047Y-113494819D02*
X171984285Y-113542438D01*
X171984285Y-113542438D02*
X172079523Y-113637676D01*
X172079523Y-113637676D02*
X172127142Y-113828152D01*
X172127142Y-113828152D02*
X172127142Y-114161485D01*
X172127142Y-114161485D02*
X172079523Y-114351961D01*
X172079523Y-114351961D02*
X171984285Y-114447200D01*
X171984285Y-114447200D02*
X171889047Y-114494819D01*
X171889047Y-114494819D02*
X171698571Y-114494819D01*
X172603333Y-114494819D02*
X172793809Y-114494819D01*
X172793809Y-114494819D02*
X172889047Y-114447200D01*
X172889047Y-114447200D02*
X172936666Y-114399580D01*
X172936666Y-114399580D02*
X173031904Y-114256723D01*
X173031904Y-114256723D02*
X173079523Y-114066247D01*
X173079523Y-114066247D02*
X173079523Y-113685295D01*
X173079523Y-113685295D02*
X173031904Y-113590057D01*
X173031904Y-113590057D02*
X172984285Y-113542438D01*
X172984285Y-113542438D02*
X172889047Y-113494819D01*
X172889047Y-113494819D02*
X172698571Y-113494819D01*
X172698571Y-113494819D02*
X172603333Y-113542438D01*
X172603333Y-113542438D02*
X172555714Y-113590057D01*
X172555714Y-113590057D02*
X172508095Y-113685295D01*
X172508095Y-113685295D02*
X172508095Y-113923390D01*
X172508095Y-113923390D02*
X172555714Y-114018628D01*
X172555714Y-114018628D02*
X172603333Y-114066247D01*
X172603333Y-114066247D02*
X172698571Y-114113866D01*
X172698571Y-114113866D02*
X172889047Y-114113866D01*
X172889047Y-114113866D02*
X172984285Y-114066247D01*
X172984285Y-114066247D02*
X173031904Y-114018628D01*
X173031904Y-114018628D02*
X173079523Y-113923390D01*
X140104819Y-112642857D02*
X139628628Y-112976190D01*
X140104819Y-113214285D02*
X139104819Y-113214285D01*
X139104819Y-113214285D02*
X139104819Y-112833333D01*
X139104819Y-112833333D02*
X139152438Y-112738095D01*
X139152438Y-112738095D02*
X139200057Y-112690476D01*
X139200057Y-112690476D02*
X139295295Y-112642857D01*
X139295295Y-112642857D02*
X139438152Y-112642857D01*
X139438152Y-112642857D02*
X139533390Y-112690476D01*
X139533390Y-112690476D02*
X139581009Y-112738095D01*
X139581009Y-112738095D02*
X139628628Y-112833333D01*
X139628628Y-112833333D02*
X139628628Y-113214285D01*
X139104819Y-112309523D02*
X139104819Y-111690476D01*
X139104819Y-111690476D02*
X139485771Y-112023809D01*
X139485771Y-112023809D02*
X139485771Y-111880952D01*
X139485771Y-111880952D02*
X139533390Y-111785714D01*
X139533390Y-111785714D02*
X139581009Y-111738095D01*
X139581009Y-111738095D02*
X139676247Y-111690476D01*
X139676247Y-111690476D02*
X139914342Y-111690476D01*
X139914342Y-111690476D02*
X140009580Y-111738095D01*
X140009580Y-111738095D02*
X140057200Y-111785714D01*
X140057200Y-111785714D02*
X140104819Y-111880952D01*
X140104819Y-111880952D02*
X140104819Y-112166666D01*
X140104819Y-112166666D02*
X140057200Y-112261904D01*
X140057200Y-112261904D02*
X140009580Y-112309523D01*
X139104819Y-110833333D02*
X139104819Y-111023809D01*
X139104819Y-111023809D02*
X139152438Y-111119047D01*
X139152438Y-111119047D02*
X139200057Y-111166666D01*
X139200057Y-111166666D02*
X139342914Y-111261904D01*
X139342914Y-111261904D02*
X139533390Y-111309523D01*
X139533390Y-111309523D02*
X139914342Y-111309523D01*
X139914342Y-111309523D02*
X140009580Y-111261904D01*
X140009580Y-111261904D02*
X140057200Y-111214285D01*
X140057200Y-111214285D02*
X140104819Y-111119047D01*
X140104819Y-111119047D02*
X140104819Y-110928571D01*
X140104819Y-110928571D02*
X140057200Y-110833333D01*
X140057200Y-110833333D02*
X140009580Y-110785714D01*
X140009580Y-110785714D02*
X139914342Y-110738095D01*
X139914342Y-110738095D02*
X139676247Y-110738095D01*
X139676247Y-110738095D02*
X139581009Y-110785714D01*
X139581009Y-110785714D02*
X139533390Y-110833333D01*
X139533390Y-110833333D02*
X139485771Y-110928571D01*
X139485771Y-110928571D02*
X139485771Y-111119047D01*
X139485771Y-111119047D02*
X139533390Y-111214285D01*
X139533390Y-111214285D02*
X139581009Y-111261904D01*
X139581009Y-111261904D02*
X139676247Y-111309523D01*
X146166905Y-96494819D02*
X146166905Y-95494819D01*
X146166905Y-95494819D02*
X146405000Y-95494819D01*
X146405000Y-95494819D02*
X146547857Y-95542438D01*
X146547857Y-95542438D02*
X146643095Y-95637676D01*
X146643095Y-95637676D02*
X146690714Y-95732914D01*
X146690714Y-95732914D02*
X146738333Y-95923390D01*
X146738333Y-95923390D02*
X146738333Y-96066247D01*
X146738333Y-96066247D02*
X146690714Y-96256723D01*
X146690714Y-96256723D02*
X146643095Y-96351961D01*
X146643095Y-96351961D02*
X146547857Y-96447200D01*
X146547857Y-96447200D02*
X146405000Y-96494819D01*
X146405000Y-96494819D02*
X146166905Y-96494819D01*
X147643095Y-95494819D02*
X147166905Y-95494819D01*
X147166905Y-95494819D02*
X147119286Y-95971009D01*
X147119286Y-95971009D02*
X147166905Y-95923390D01*
X147166905Y-95923390D02*
X147262143Y-95875771D01*
X147262143Y-95875771D02*
X147500238Y-95875771D01*
X147500238Y-95875771D02*
X147595476Y-95923390D01*
X147595476Y-95923390D02*
X147643095Y-95971009D01*
X147643095Y-95971009D02*
X147690714Y-96066247D01*
X147690714Y-96066247D02*
X147690714Y-96304342D01*
X147690714Y-96304342D02*
X147643095Y-96399580D01*
X147643095Y-96399580D02*
X147595476Y-96447200D01*
X147595476Y-96447200D02*
X147500238Y-96494819D01*
X147500238Y-96494819D02*
X147262143Y-96494819D01*
X147262143Y-96494819D02*
X147166905Y-96447200D01*
X147166905Y-96447200D02*
X147119286Y-96399580D01*
X147804819Y-88166666D02*
X147328628Y-88499999D01*
X147804819Y-88738094D02*
X146804819Y-88738094D01*
X146804819Y-88738094D02*
X146804819Y-88357142D01*
X146804819Y-88357142D02*
X146852438Y-88261904D01*
X146852438Y-88261904D02*
X146900057Y-88214285D01*
X146900057Y-88214285D02*
X146995295Y-88166666D01*
X146995295Y-88166666D02*
X147138152Y-88166666D01*
X147138152Y-88166666D02*
X147233390Y-88214285D01*
X147233390Y-88214285D02*
X147281009Y-88261904D01*
X147281009Y-88261904D02*
X147328628Y-88357142D01*
X147328628Y-88357142D02*
X147328628Y-88738094D01*
X146804819Y-87261904D02*
X146804819Y-87738094D01*
X146804819Y-87738094D02*
X147281009Y-87785713D01*
X147281009Y-87785713D02*
X147233390Y-87738094D01*
X147233390Y-87738094D02*
X147185771Y-87642856D01*
X147185771Y-87642856D02*
X147185771Y-87404761D01*
X147185771Y-87404761D02*
X147233390Y-87309523D01*
X147233390Y-87309523D02*
X147281009Y-87261904D01*
X147281009Y-87261904D02*
X147376247Y-87214285D01*
X147376247Y-87214285D02*
X147614342Y-87214285D01*
X147614342Y-87214285D02*
X147709580Y-87261904D01*
X147709580Y-87261904D02*
X147757200Y-87309523D01*
X147757200Y-87309523D02*
X147804819Y-87404761D01*
X147804819Y-87404761D02*
X147804819Y-87642856D01*
X147804819Y-87642856D02*
X147757200Y-87738094D01*
X147757200Y-87738094D02*
X147709580Y-87785713D01*
X146166905Y-114494819D02*
X146166905Y-113494819D01*
X146166905Y-113494819D02*
X146405000Y-113494819D01*
X146405000Y-113494819D02*
X146547857Y-113542438D01*
X146547857Y-113542438D02*
X146643095Y-113637676D01*
X146643095Y-113637676D02*
X146690714Y-113732914D01*
X146690714Y-113732914D02*
X146738333Y-113923390D01*
X146738333Y-113923390D02*
X146738333Y-114066247D01*
X146738333Y-114066247D02*
X146690714Y-114256723D01*
X146690714Y-114256723D02*
X146643095Y-114351961D01*
X146643095Y-114351961D02*
X146547857Y-114447200D01*
X146547857Y-114447200D02*
X146405000Y-114494819D01*
X146405000Y-114494819D02*
X146166905Y-114494819D01*
X147309762Y-113923390D02*
X147214524Y-113875771D01*
X147214524Y-113875771D02*
X147166905Y-113828152D01*
X147166905Y-113828152D02*
X147119286Y-113732914D01*
X147119286Y-113732914D02*
X147119286Y-113685295D01*
X147119286Y-113685295D02*
X147166905Y-113590057D01*
X147166905Y-113590057D02*
X147214524Y-113542438D01*
X147214524Y-113542438D02*
X147309762Y-113494819D01*
X147309762Y-113494819D02*
X147500238Y-113494819D01*
X147500238Y-113494819D02*
X147595476Y-113542438D01*
X147595476Y-113542438D02*
X147643095Y-113590057D01*
X147643095Y-113590057D02*
X147690714Y-113685295D01*
X147690714Y-113685295D02*
X147690714Y-113732914D01*
X147690714Y-113732914D02*
X147643095Y-113828152D01*
X147643095Y-113828152D02*
X147595476Y-113875771D01*
X147595476Y-113875771D02*
X147500238Y-113923390D01*
X147500238Y-113923390D02*
X147309762Y-113923390D01*
X147309762Y-113923390D02*
X147214524Y-113971009D01*
X147214524Y-113971009D02*
X147166905Y-114018628D01*
X147166905Y-114018628D02*
X147119286Y-114113866D01*
X147119286Y-114113866D02*
X147119286Y-114304342D01*
X147119286Y-114304342D02*
X147166905Y-114399580D01*
X147166905Y-114399580D02*
X147214524Y-114447200D01*
X147214524Y-114447200D02*
X147309762Y-114494819D01*
X147309762Y-114494819D02*
X147500238Y-114494819D01*
X147500238Y-114494819D02*
X147595476Y-114447200D01*
X147595476Y-114447200D02*
X147643095Y-114399580D01*
X147643095Y-114399580D02*
X147690714Y-114304342D01*
X147690714Y-114304342D02*
X147690714Y-114113866D01*
X147690714Y-114113866D02*
X147643095Y-114018628D01*
X147643095Y-114018628D02*
X147595476Y-113971009D01*
X147595476Y-113971009D02*
X147500238Y-113923390D01*
X166304819Y-125642857D02*
X165828628Y-125976190D01*
X166304819Y-126214285D02*
X165304819Y-126214285D01*
X165304819Y-126214285D02*
X165304819Y-125833333D01*
X165304819Y-125833333D02*
X165352438Y-125738095D01*
X165352438Y-125738095D02*
X165400057Y-125690476D01*
X165400057Y-125690476D02*
X165495295Y-125642857D01*
X165495295Y-125642857D02*
X165638152Y-125642857D01*
X165638152Y-125642857D02*
X165733390Y-125690476D01*
X165733390Y-125690476D02*
X165781009Y-125738095D01*
X165781009Y-125738095D02*
X165828628Y-125833333D01*
X165828628Y-125833333D02*
X165828628Y-126214285D01*
X165400057Y-125261904D02*
X165352438Y-125214285D01*
X165352438Y-125214285D02*
X165304819Y-125119047D01*
X165304819Y-125119047D02*
X165304819Y-124880952D01*
X165304819Y-124880952D02*
X165352438Y-124785714D01*
X165352438Y-124785714D02*
X165400057Y-124738095D01*
X165400057Y-124738095D02*
X165495295Y-124690476D01*
X165495295Y-124690476D02*
X165590533Y-124690476D01*
X165590533Y-124690476D02*
X165733390Y-124738095D01*
X165733390Y-124738095D02*
X166304819Y-125309523D01*
X166304819Y-125309523D02*
X166304819Y-124690476D01*
X165304819Y-123833333D02*
X165304819Y-124023809D01*
X165304819Y-124023809D02*
X165352438Y-124119047D01*
X165352438Y-124119047D02*
X165400057Y-124166666D01*
X165400057Y-124166666D02*
X165542914Y-124261904D01*
X165542914Y-124261904D02*
X165733390Y-124309523D01*
X165733390Y-124309523D02*
X166114342Y-124309523D01*
X166114342Y-124309523D02*
X166209580Y-124261904D01*
X166209580Y-124261904D02*
X166257200Y-124214285D01*
X166257200Y-124214285D02*
X166304819Y-124119047D01*
X166304819Y-124119047D02*
X166304819Y-123928571D01*
X166304819Y-123928571D02*
X166257200Y-123833333D01*
X166257200Y-123833333D02*
X166209580Y-123785714D01*
X166209580Y-123785714D02*
X166114342Y-123738095D01*
X166114342Y-123738095D02*
X165876247Y-123738095D01*
X165876247Y-123738095D02*
X165781009Y-123785714D01*
X165781009Y-123785714D02*
X165733390Y-123833333D01*
X165733390Y-123833333D02*
X165685771Y-123928571D01*
X165685771Y-123928571D02*
X165685771Y-124119047D01*
X165685771Y-124119047D02*
X165733390Y-124214285D01*
X165733390Y-124214285D02*
X165781009Y-124261904D01*
X165781009Y-124261904D02*
X165876247Y-124309523D01*
X124304819Y-88166666D02*
X123828628Y-88499999D01*
X124304819Y-88738094D02*
X123304819Y-88738094D01*
X123304819Y-88738094D02*
X123304819Y-88357142D01*
X123304819Y-88357142D02*
X123352438Y-88261904D01*
X123352438Y-88261904D02*
X123400057Y-88214285D01*
X123400057Y-88214285D02*
X123495295Y-88166666D01*
X123495295Y-88166666D02*
X123638152Y-88166666D01*
X123638152Y-88166666D02*
X123733390Y-88214285D01*
X123733390Y-88214285D02*
X123781009Y-88261904D01*
X123781009Y-88261904D02*
X123828628Y-88357142D01*
X123828628Y-88357142D02*
X123828628Y-88738094D01*
X124304819Y-87214285D02*
X124304819Y-87785713D01*
X124304819Y-87499999D02*
X123304819Y-87499999D01*
X123304819Y-87499999D02*
X123447676Y-87595237D01*
X123447676Y-87595237D02*
X123542914Y-87690475D01*
X123542914Y-87690475D02*
X123590533Y-87785713D01*
X177104819Y-112642857D02*
X176628628Y-112976190D01*
X177104819Y-113214285D02*
X176104819Y-113214285D01*
X176104819Y-113214285D02*
X176104819Y-112833333D01*
X176104819Y-112833333D02*
X176152438Y-112738095D01*
X176152438Y-112738095D02*
X176200057Y-112690476D01*
X176200057Y-112690476D02*
X176295295Y-112642857D01*
X176295295Y-112642857D02*
X176438152Y-112642857D01*
X176438152Y-112642857D02*
X176533390Y-112690476D01*
X176533390Y-112690476D02*
X176581009Y-112738095D01*
X176581009Y-112738095D02*
X176628628Y-112833333D01*
X176628628Y-112833333D02*
X176628628Y-113214285D01*
X176104819Y-112309523D02*
X176104819Y-111690476D01*
X176104819Y-111690476D02*
X176485771Y-112023809D01*
X176485771Y-112023809D02*
X176485771Y-111880952D01*
X176485771Y-111880952D02*
X176533390Y-111785714D01*
X176533390Y-111785714D02*
X176581009Y-111738095D01*
X176581009Y-111738095D02*
X176676247Y-111690476D01*
X176676247Y-111690476D02*
X176914342Y-111690476D01*
X176914342Y-111690476D02*
X177009580Y-111738095D01*
X177009580Y-111738095D02*
X177057200Y-111785714D01*
X177057200Y-111785714D02*
X177104819Y-111880952D01*
X177104819Y-111880952D02*
X177104819Y-112166666D01*
X177104819Y-112166666D02*
X177057200Y-112261904D01*
X177057200Y-112261904D02*
X177009580Y-112309523D01*
X176533390Y-111119047D02*
X176485771Y-111214285D01*
X176485771Y-111214285D02*
X176438152Y-111261904D01*
X176438152Y-111261904D02*
X176342914Y-111309523D01*
X176342914Y-111309523D02*
X176295295Y-111309523D01*
X176295295Y-111309523D02*
X176200057Y-111261904D01*
X176200057Y-111261904D02*
X176152438Y-111214285D01*
X176152438Y-111214285D02*
X176104819Y-111119047D01*
X176104819Y-111119047D02*
X176104819Y-110928571D01*
X176104819Y-110928571D02*
X176152438Y-110833333D01*
X176152438Y-110833333D02*
X176200057Y-110785714D01*
X176200057Y-110785714D02*
X176295295Y-110738095D01*
X176295295Y-110738095D02*
X176342914Y-110738095D01*
X176342914Y-110738095D02*
X176438152Y-110785714D01*
X176438152Y-110785714D02*
X176485771Y-110833333D01*
X176485771Y-110833333D02*
X176533390Y-110928571D01*
X176533390Y-110928571D02*
X176533390Y-111119047D01*
X176533390Y-111119047D02*
X176581009Y-111214285D01*
X176581009Y-111214285D02*
X176628628Y-111261904D01*
X176628628Y-111261904D02*
X176723866Y-111309523D01*
X176723866Y-111309523D02*
X176914342Y-111309523D01*
X176914342Y-111309523D02*
X177009580Y-111261904D01*
X177009580Y-111261904D02*
X177057200Y-111214285D01*
X177057200Y-111214285D02*
X177104819Y-111119047D01*
X177104819Y-111119047D02*
X177104819Y-110928571D01*
X177104819Y-110928571D02*
X177057200Y-110833333D01*
X177057200Y-110833333D02*
X177009580Y-110785714D01*
X177009580Y-110785714D02*
X176914342Y-110738095D01*
X176914342Y-110738095D02*
X176723866Y-110738095D01*
X176723866Y-110738095D02*
X176628628Y-110785714D01*
X176628628Y-110785714D02*
X176581009Y-110833333D01*
X176581009Y-110833333D02*
X176533390Y-110928571D01*
X161304819Y-107055357D02*
X160828628Y-107388690D01*
X161304819Y-107626785D02*
X160304819Y-107626785D01*
X160304819Y-107626785D02*
X160304819Y-107245833D01*
X160304819Y-107245833D02*
X160352438Y-107150595D01*
X160352438Y-107150595D02*
X160400057Y-107102976D01*
X160400057Y-107102976D02*
X160495295Y-107055357D01*
X160495295Y-107055357D02*
X160638152Y-107055357D01*
X160638152Y-107055357D02*
X160733390Y-107102976D01*
X160733390Y-107102976D02*
X160781009Y-107150595D01*
X160781009Y-107150595D02*
X160828628Y-107245833D01*
X160828628Y-107245833D02*
X160828628Y-107626785D01*
X161304819Y-106102976D02*
X161304819Y-106674404D01*
X161304819Y-106388690D02*
X160304819Y-106388690D01*
X160304819Y-106388690D02*
X160447676Y-106483928D01*
X160447676Y-106483928D02*
X160542914Y-106579166D01*
X160542914Y-106579166D02*
X160590533Y-106674404D01*
X160304819Y-105245833D02*
X160304819Y-105436309D01*
X160304819Y-105436309D02*
X160352438Y-105531547D01*
X160352438Y-105531547D02*
X160400057Y-105579166D01*
X160400057Y-105579166D02*
X160542914Y-105674404D01*
X160542914Y-105674404D02*
X160733390Y-105722023D01*
X160733390Y-105722023D02*
X161114342Y-105722023D01*
X161114342Y-105722023D02*
X161209580Y-105674404D01*
X161209580Y-105674404D02*
X161257200Y-105626785D01*
X161257200Y-105626785D02*
X161304819Y-105531547D01*
X161304819Y-105531547D02*
X161304819Y-105341071D01*
X161304819Y-105341071D02*
X161257200Y-105245833D01*
X161257200Y-105245833D02*
X161209580Y-105198214D01*
X161209580Y-105198214D02*
X161114342Y-105150595D01*
X161114342Y-105150595D02*
X160876247Y-105150595D01*
X160876247Y-105150595D02*
X160781009Y-105198214D01*
X160781009Y-105198214D02*
X160733390Y-105245833D01*
X160733390Y-105245833D02*
X160685771Y-105341071D01*
X160685771Y-105341071D02*
X160685771Y-105531547D01*
X160685771Y-105531547D02*
X160733390Y-105626785D01*
X160733390Y-105626785D02*
X160781009Y-105674404D01*
X160781009Y-105674404D02*
X160876247Y-105722023D01*
X107357142Y-119304819D02*
X107023809Y-118828628D01*
X106785714Y-119304819D02*
X106785714Y-118304819D01*
X106785714Y-118304819D02*
X107166666Y-118304819D01*
X107166666Y-118304819D02*
X107261904Y-118352438D01*
X107261904Y-118352438D02*
X107309523Y-118400057D01*
X107309523Y-118400057D02*
X107357142Y-118495295D01*
X107357142Y-118495295D02*
X107357142Y-118638152D01*
X107357142Y-118638152D02*
X107309523Y-118733390D01*
X107309523Y-118733390D02*
X107261904Y-118781009D01*
X107261904Y-118781009D02*
X107166666Y-118828628D01*
X107166666Y-118828628D02*
X106785714Y-118828628D01*
X107690476Y-118304819D02*
X108309523Y-118304819D01*
X108309523Y-118304819D02*
X107976190Y-118685771D01*
X107976190Y-118685771D02*
X108119047Y-118685771D01*
X108119047Y-118685771D02*
X108214285Y-118733390D01*
X108214285Y-118733390D02*
X108261904Y-118781009D01*
X108261904Y-118781009D02*
X108309523Y-118876247D01*
X108309523Y-118876247D02*
X108309523Y-119114342D01*
X108309523Y-119114342D02*
X108261904Y-119209580D01*
X108261904Y-119209580D02*
X108214285Y-119257200D01*
X108214285Y-119257200D02*
X108119047Y-119304819D01*
X108119047Y-119304819D02*
X107833333Y-119304819D01*
X107833333Y-119304819D02*
X107738095Y-119257200D01*
X107738095Y-119257200D02*
X107690476Y-119209580D01*
X108785714Y-119304819D02*
X108976190Y-119304819D01*
X108976190Y-119304819D02*
X109071428Y-119257200D01*
X109071428Y-119257200D02*
X109119047Y-119209580D01*
X109119047Y-119209580D02*
X109214285Y-119066723D01*
X109214285Y-119066723D02*
X109261904Y-118876247D01*
X109261904Y-118876247D02*
X109261904Y-118495295D01*
X109261904Y-118495295D02*
X109214285Y-118400057D01*
X109214285Y-118400057D02*
X109166666Y-118352438D01*
X109166666Y-118352438D02*
X109071428Y-118304819D01*
X109071428Y-118304819D02*
X108880952Y-118304819D01*
X108880952Y-118304819D02*
X108785714Y-118352438D01*
X108785714Y-118352438D02*
X108738095Y-118400057D01*
X108738095Y-118400057D02*
X108690476Y-118495295D01*
X108690476Y-118495295D02*
X108690476Y-118733390D01*
X108690476Y-118733390D02*
X108738095Y-118828628D01*
X108738095Y-118828628D02*
X108785714Y-118876247D01*
X108785714Y-118876247D02*
X108880952Y-118923866D01*
X108880952Y-118923866D02*
X109071428Y-118923866D01*
X109071428Y-118923866D02*
X109166666Y-118876247D01*
X109166666Y-118876247D02*
X109214285Y-118828628D01*
X109214285Y-118828628D02*
X109261904Y-118733390D01*
X161804819Y-125555357D02*
X161328628Y-125888690D01*
X161804819Y-126126785D02*
X160804819Y-126126785D01*
X160804819Y-126126785D02*
X160804819Y-125745833D01*
X160804819Y-125745833D02*
X160852438Y-125650595D01*
X160852438Y-125650595D02*
X160900057Y-125602976D01*
X160900057Y-125602976D02*
X160995295Y-125555357D01*
X160995295Y-125555357D02*
X161138152Y-125555357D01*
X161138152Y-125555357D02*
X161233390Y-125602976D01*
X161233390Y-125602976D02*
X161281009Y-125650595D01*
X161281009Y-125650595D02*
X161328628Y-125745833D01*
X161328628Y-125745833D02*
X161328628Y-126126785D01*
X160900057Y-125174404D02*
X160852438Y-125126785D01*
X160852438Y-125126785D02*
X160804819Y-125031547D01*
X160804819Y-125031547D02*
X160804819Y-124793452D01*
X160804819Y-124793452D02*
X160852438Y-124698214D01*
X160852438Y-124698214D02*
X160900057Y-124650595D01*
X160900057Y-124650595D02*
X160995295Y-124602976D01*
X160995295Y-124602976D02*
X161090533Y-124602976D01*
X161090533Y-124602976D02*
X161233390Y-124650595D01*
X161233390Y-124650595D02*
X161804819Y-125222023D01*
X161804819Y-125222023D02*
X161804819Y-124602976D01*
X160804819Y-123698214D02*
X160804819Y-124174404D01*
X160804819Y-124174404D02*
X161281009Y-124222023D01*
X161281009Y-124222023D02*
X161233390Y-124174404D01*
X161233390Y-124174404D02*
X161185771Y-124079166D01*
X161185771Y-124079166D02*
X161185771Y-123841071D01*
X161185771Y-123841071D02*
X161233390Y-123745833D01*
X161233390Y-123745833D02*
X161281009Y-123698214D01*
X161281009Y-123698214D02*
X161376247Y-123650595D01*
X161376247Y-123650595D02*
X161614342Y-123650595D01*
X161614342Y-123650595D02*
X161709580Y-123698214D01*
X161709580Y-123698214D02*
X161757200Y-123745833D01*
X161757200Y-123745833D02*
X161804819Y-123841071D01*
X161804819Y-123841071D02*
X161804819Y-124079166D01*
X161804819Y-124079166D02*
X161757200Y-124174404D01*
X161757200Y-124174404D02*
X161709580Y-124222023D01*
X140104819Y-93642857D02*
X139628628Y-93976190D01*
X140104819Y-94214285D02*
X139104819Y-94214285D01*
X139104819Y-94214285D02*
X139104819Y-93833333D01*
X139104819Y-93833333D02*
X139152438Y-93738095D01*
X139152438Y-93738095D02*
X139200057Y-93690476D01*
X139200057Y-93690476D02*
X139295295Y-93642857D01*
X139295295Y-93642857D02*
X139438152Y-93642857D01*
X139438152Y-93642857D02*
X139533390Y-93690476D01*
X139533390Y-93690476D02*
X139581009Y-93738095D01*
X139581009Y-93738095D02*
X139628628Y-93833333D01*
X139628628Y-93833333D02*
X139628628Y-94214285D01*
X139104819Y-93309523D02*
X139104819Y-92690476D01*
X139104819Y-92690476D02*
X139485771Y-93023809D01*
X139485771Y-93023809D02*
X139485771Y-92880952D01*
X139485771Y-92880952D02*
X139533390Y-92785714D01*
X139533390Y-92785714D02*
X139581009Y-92738095D01*
X139581009Y-92738095D02*
X139676247Y-92690476D01*
X139676247Y-92690476D02*
X139914342Y-92690476D01*
X139914342Y-92690476D02*
X140009580Y-92738095D01*
X140009580Y-92738095D02*
X140057200Y-92785714D01*
X140057200Y-92785714D02*
X140104819Y-92880952D01*
X140104819Y-92880952D02*
X140104819Y-93166666D01*
X140104819Y-93166666D02*
X140057200Y-93261904D01*
X140057200Y-93261904D02*
X140009580Y-93309523D01*
X139104819Y-92357142D02*
X139104819Y-91738095D01*
X139104819Y-91738095D02*
X139485771Y-92071428D01*
X139485771Y-92071428D02*
X139485771Y-91928571D01*
X139485771Y-91928571D02*
X139533390Y-91833333D01*
X139533390Y-91833333D02*
X139581009Y-91785714D01*
X139581009Y-91785714D02*
X139676247Y-91738095D01*
X139676247Y-91738095D02*
X139914342Y-91738095D01*
X139914342Y-91738095D02*
X140009580Y-91785714D01*
X140009580Y-91785714D02*
X140057200Y-91833333D01*
X140057200Y-91833333D02*
X140104819Y-91928571D01*
X140104819Y-91928571D02*
X140104819Y-92214285D01*
X140104819Y-92214285D02*
X140057200Y-92309523D01*
X140057200Y-92309523D02*
X140009580Y-92357142D01*
X147804819Y-107142857D02*
X147328628Y-107476190D01*
X147804819Y-107714285D02*
X146804819Y-107714285D01*
X146804819Y-107714285D02*
X146804819Y-107333333D01*
X146804819Y-107333333D02*
X146852438Y-107238095D01*
X146852438Y-107238095D02*
X146900057Y-107190476D01*
X146900057Y-107190476D02*
X146995295Y-107142857D01*
X146995295Y-107142857D02*
X147138152Y-107142857D01*
X147138152Y-107142857D02*
X147233390Y-107190476D01*
X147233390Y-107190476D02*
X147281009Y-107238095D01*
X147281009Y-107238095D02*
X147328628Y-107333333D01*
X147328628Y-107333333D02*
X147328628Y-107714285D01*
X147804819Y-106190476D02*
X147804819Y-106761904D01*
X147804819Y-106476190D02*
X146804819Y-106476190D01*
X146804819Y-106476190D02*
X146947676Y-106571428D01*
X146947676Y-106571428D02*
X147042914Y-106666666D01*
X147042914Y-106666666D02*
X147090533Y-106761904D01*
X147138152Y-105333333D02*
X147804819Y-105333333D01*
X146757200Y-105571428D02*
X147471485Y-105809523D01*
X147471485Y-105809523D02*
X147471485Y-105190476D01*
X164166905Y-77494819D02*
X164166905Y-76494819D01*
X164166905Y-76494819D02*
X164405000Y-76494819D01*
X164405000Y-76494819D02*
X164547857Y-76542438D01*
X164547857Y-76542438D02*
X164643095Y-76637676D01*
X164643095Y-76637676D02*
X164690714Y-76732914D01*
X164690714Y-76732914D02*
X164738333Y-76923390D01*
X164738333Y-76923390D02*
X164738333Y-77066247D01*
X164738333Y-77066247D02*
X164690714Y-77256723D01*
X164690714Y-77256723D02*
X164643095Y-77351961D01*
X164643095Y-77351961D02*
X164547857Y-77447200D01*
X164547857Y-77447200D02*
X164405000Y-77494819D01*
X164405000Y-77494819D02*
X164166905Y-77494819D01*
X165071667Y-76494819D02*
X165690714Y-76494819D01*
X165690714Y-76494819D02*
X165357381Y-76875771D01*
X165357381Y-76875771D02*
X165500238Y-76875771D01*
X165500238Y-76875771D02*
X165595476Y-76923390D01*
X165595476Y-76923390D02*
X165643095Y-76971009D01*
X165643095Y-76971009D02*
X165690714Y-77066247D01*
X165690714Y-77066247D02*
X165690714Y-77304342D01*
X165690714Y-77304342D02*
X165643095Y-77399580D01*
X165643095Y-77399580D02*
X165595476Y-77447200D01*
X165595476Y-77447200D02*
X165500238Y-77494819D01*
X165500238Y-77494819D02*
X165214524Y-77494819D01*
X165214524Y-77494819D02*
X165119286Y-77447200D01*
X165119286Y-77447200D02*
X165071667Y-77399580D01*
X127166905Y-114494819D02*
X127166905Y-113494819D01*
X127166905Y-113494819D02*
X127405000Y-113494819D01*
X127405000Y-113494819D02*
X127547857Y-113542438D01*
X127547857Y-113542438D02*
X127643095Y-113637676D01*
X127643095Y-113637676D02*
X127690714Y-113732914D01*
X127690714Y-113732914D02*
X127738333Y-113923390D01*
X127738333Y-113923390D02*
X127738333Y-114066247D01*
X127738333Y-114066247D02*
X127690714Y-114256723D01*
X127690714Y-114256723D02*
X127643095Y-114351961D01*
X127643095Y-114351961D02*
X127547857Y-114447200D01*
X127547857Y-114447200D02*
X127405000Y-114494819D01*
X127405000Y-114494819D02*
X127166905Y-114494819D01*
X128071667Y-113494819D02*
X128738333Y-113494819D01*
X128738333Y-113494819D02*
X128309762Y-114494819D01*
X146166905Y-77494819D02*
X146166905Y-76494819D01*
X146166905Y-76494819D02*
X146405000Y-76494819D01*
X146405000Y-76494819D02*
X146547857Y-76542438D01*
X146547857Y-76542438D02*
X146643095Y-76637676D01*
X146643095Y-76637676D02*
X146690714Y-76732914D01*
X146690714Y-76732914D02*
X146738333Y-76923390D01*
X146738333Y-76923390D02*
X146738333Y-77066247D01*
X146738333Y-77066247D02*
X146690714Y-77256723D01*
X146690714Y-77256723D02*
X146643095Y-77351961D01*
X146643095Y-77351961D02*
X146547857Y-77447200D01*
X146547857Y-77447200D02*
X146405000Y-77494819D01*
X146405000Y-77494819D02*
X146166905Y-77494819D01*
X147119286Y-76590057D02*
X147166905Y-76542438D01*
X147166905Y-76542438D02*
X147262143Y-76494819D01*
X147262143Y-76494819D02*
X147500238Y-76494819D01*
X147500238Y-76494819D02*
X147595476Y-76542438D01*
X147595476Y-76542438D02*
X147643095Y-76590057D01*
X147643095Y-76590057D02*
X147690714Y-76685295D01*
X147690714Y-76685295D02*
X147690714Y-76780533D01*
X147690714Y-76780533D02*
X147643095Y-76923390D01*
X147643095Y-76923390D02*
X147071667Y-77494819D01*
X147071667Y-77494819D02*
X147690714Y-77494819D01*
X171304819Y-107230357D02*
X170828628Y-107563690D01*
X171304819Y-107801785D02*
X170304819Y-107801785D01*
X170304819Y-107801785D02*
X170304819Y-107420833D01*
X170304819Y-107420833D02*
X170352438Y-107325595D01*
X170352438Y-107325595D02*
X170400057Y-107277976D01*
X170400057Y-107277976D02*
X170495295Y-107230357D01*
X170495295Y-107230357D02*
X170638152Y-107230357D01*
X170638152Y-107230357D02*
X170733390Y-107277976D01*
X170733390Y-107277976D02*
X170781009Y-107325595D01*
X170781009Y-107325595D02*
X170828628Y-107420833D01*
X170828628Y-107420833D02*
X170828628Y-107801785D01*
X171304819Y-106277976D02*
X171304819Y-106849404D01*
X171304819Y-106563690D02*
X170304819Y-106563690D01*
X170304819Y-106563690D02*
X170447676Y-106658928D01*
X170447676Y-106658928D02*
X170542914Y-106754166D01*
X170542914Y-106754166D02*
X170590533Y-106849404D01*
X170733390Y-105706547D02*
X170685771Y-105801785D01*
X170685771Y-105801785D02*
X170638152Y-105849404D01*
X170638152Y-105849404D02*
X170542914Y-105897023D01*
X170542914Y-105897023D02*
X170495295Y-105897023D01*
X170495295Y-105897023D02*
X170400057Y-105849404D01*
X170400057Y-105849404D02*
X170352438Y-105801785D01*
X170352438Y-105801785D02*
X170304819Y-105706547D01*
X170304819Y-105706547D02*
X170304819Y-105516071D01*
X170304819Y-105516071D02*
X170352438Y-105420833D01*
X170352438Y-105420833D02*
X170400057Y-105373214D01*
X170400057Y-105373214D02*
X170495295Y-105325595D01*
X170495295Y-105325595D02*
X170542914Y-105325595D01*
X170542914Y-105325595D02*
X170638152Y-105373214D01*
X170638152Y-105373214D02*
X170685771Y-105420833D01*
X170685771Y-105420833D02*
X170733390Y-105516071D01*
X170733390Y-105516071D02*
X170733390Y-105706547D01*
X170733390Y-105706547D02*
X170781009Y-105801785D01*
X170781009Y-105801785D02*
X170828628Y-105849404D01*
X170828628Y-105849404D02*
X170923866Y-105897023D01*
X170923866Y-105897023D02*
X171114342Y-105897023D01*
X171114342Y-105897023D02*
X171209580Y-105849404D01*
X171209580Y-105849404D02*
X171257200Y-105801785D01*
X171257200Y-105801785D02*
X171304819Y-105706547D01*
X171304819Y-105706547D02*
X171304819Y-105516071D01*
X171304819Y-105516071D02*
X171257200Y-105420833D01*
X171257200Y-105420833D02*
X171209580Y-105373214D01*
X171209580Y-105373214D02*
X171114342Y-105325595D01*
X171114342Y-105325595D02*
X170923866Y-105325595D01*
X170923866Y-105325595D02*
X170828628Y-105373214D01*
X170828628Y-105373214D02*
X170781009Y-105420833D01*
X170781009Y-105420833D02*
X170733390Y-105516071D01*
X142804819Y-125642857D02*
X142328628Y-125976190D01*
X142804819Y-126214285D02*
X141804819Y-126214285D01*
X141804819Y-126214285D02*
X141804819Y-125833333D01*
X141804819Y-125833333D02*
X141852438Y-125738095D01*
X141852438Y-125738095D02*
X141900057Y-125690476D01*
X141900057Y-125690476D02*
X141995295Y-125642857D01*
X141995295Y-125642857D02*
X142138152Y-125642857D01*
X142138152Y-125642857D02*
X142233390Y-125690476D01*
X142233390Y-125690476D02*
X142281009Y-125738095D01*
X142281009Y-125738095D02*
X142328628Y-125833333D01*
X142328628Y-125833333D02*
X142328628Y-126214285D01*
X141900057Y-125261904D02*
X141852438Y-125214285D01*
X141852438Y-125214285D02*
X141804819Y-125119047D01*
X141804819Y-125119047D02*
X141804819Y-124880952D01*
X141804819Y-124880952D02*
X141852438Y-124785714D01*
X141852438Y-124785714D02*
X141900057Y-124738095D01*
X141900057Y-124738095D02*
X141995295Y-124690476D01*
X141995295Y-124690476D02*
X142090533Y-124690476D01*
X142090533Y-124690476D02*
X142233390Y-124738095D01*
X142233390Y-124738095D02*
X142804819Y-125309523D01*
X142804819Y-125309523D02*
X142804819Y-124690476D01*
X141900057Y-124309523D02*
X141852438Y-124261904D01*
X141852438Y-124261904D02*
X141804819Y-124166666D01*
X141804819Y-124166666D02*
X141804819Y-123928571D01*
X141804819Y-123928571D02*
X141852438Y-123833333D01*
X141852438Y-123833333D02*
X141900057Y-123785714D01*
X141900057Y-123785714D02*
X141995295Y-123738095D01*
X141995295Y-123738095D02*
X142090533Y-123738095D01*
X142090533Y-123738095D02*
X142233390Y-123785714D01*
X142233390Y-123785714D02*
X142804819Y-124357142D01*
X142804819Y-124357142D02*
X142804819Y-123738095D01*
X135174761Y-96590057D02*
X135079523Y-96542438D01*
X135079523Y-96542438D02*
X134984285Y-96447200D01*
X134984285Y-96447200D02*
X134841428Y-96304342D01*
X134841428Y-96304342D02*
X134746190Y-96256723D01*
X134746190Y-96256723D02*
X134650952Y-96256723D01*
X134698571Y-96494819D02*
X134603333Y-96447200D01*
X134603333Y-96447200D02*
X134508095Y-96351961D01*
X134508095Y-96351961D02*
X134460476Y-96161485D01*
X134460476Y-96161485D02*
X134460476Y-95828152D01*
X134460476Y-95828152D02*
X134508095Y-95637676D01*
X134508095Y-95637676D02*
X134603333Y-95542438D01*
X134603333Y-95542438D02*
X134698571Y-95494819D01*
X134698571Y-95494819D02*
X134889047Y-95494819D01*
X134889047Y-95494819D02*
X134984285Y-95542438D01*
X134984285Y-95542438D02*
X135079523Y-95637676D01*
X135079523Y-95637676D02*
X135127142Y-95828152D01*
X135127142Y-95828152D02*
X135127142Y-96161485D01*
X135127142Y-96161485D02*
X135079523Y-96351961D01*
X135079523Y-96351961D02*
X134984285Y-96447200D01*
X134984285Y-96447200D02*
X134889047Y-96494819D01*
X134889047Y-96494819D02*
X134698571Y-96494819D01*
X135984285Y-95828152D02*
X135984285Y-96494819D01*
X135746190Y-95447200D02*
X135508095Y-96161485D01*
X135508095Y-96161485D02*
X136127142Y-96161485D01*
X158604819Y-75142857D02*
X158128628Y-75476190D01*
X158604819Y-75714285D02*
X157604819Y-75714285D01*
X157604819Y-75714285D02*
X157604819Y-75333333D01*
X157604819Y-75333333D02*
X157652438Y-75238095D01*
X157652438Y-75238095D02*
X157700057Y-75190476D01*
X157700057Y-75190476D02*
X157795295Y-75142857D01*
X157795295Y-75142857D02*
X157938152Y-75142857D01*
X157938152Y-75142857D02*
X158033390Y-75190476D01*
X158033390Y-75190476D02*
X158081009Y-75238095D01*
X158081009Y-75238095D02*
X158128628Y-75333333D01*
X158128628Y-75333333D02*
X158128628Y-75714285D01*
X157604819Y-74809523D02*
X157604819Y-74190476D01*
X157604819Y-74190476D02*
X157985771Y-74523809D01*
X157985771Y-74523809D02*
X157985771Y-74380952D01*
X157985771Y-74380952D02*
X158033390Y-74285714D01*
X158033390Y-74285714D02*
X158081009Y-74238095D01*
X158081009Y-74238095D02*
X158176247Y-74190476D01*
X158176247Y-74190476D02*
X158414342Y-74190476D01*
X158414342Y-74190476D02*
X158509580Y-74238095D01*
X158509580Y-74238095D02*
X158557200Y-74285714D01*
X158557200Y-74285714D02*
X158604819Y-74380952D01*
X158604819Y-74380952D02*
X158604819Y-74666666D01*
X158604819Y-74666666D02*
X158557200Y-74761904D01*
X158557200Y-74761904D02*
X158509580Y-74809523D01*
X158604819Y-73238095D02*
X158604819Y-73809523D01*
X158604819Y-73523809D02*
X157604819Y-73523809D01*
X157604819Y-73523809D02*
X157747676Y-73619047D01*
X157747676Y-73619047D02*
X157842914Y-73714285D01*
X157842914Y-73714285D02*
X157890533Y-73809523D01*
X135174761Y-114590057D02*
X135079523Y-114542438D01*
X135079523Y-114542438D02*
X134984285Y-114447200D01*
X134984285Y-114447200D02*
X134841428Y-114304342D01*
X134841428Y-114304342D02*
X134746190Y-114256723D01*
X134746190Y-114256723D02*
X134650952Y-114256723D01*
X134698571Y-114494819D02*
X134603333Y-114447200D01*
X134603333Y-114447200D02*
X134508095Y-114351961D01*
X134508095Y-114351961D02*
X134460476Y-114161485D01*
X134460476Y-114161485D02*
X134460476Y-113828152D01*
X134460476Y-113828152D02*
X134508095Y-113637676D01*
X134508095Y-113637676D02*
X134603333Y-113542438D01*
X134603333Y-113542438D02*
X134698571Y-113494819D01*
X134698571Y-113494819D02*
X134889047Y-113494819D01*
X134889047Y-113494819D02*
X134984285Y-113542438D01*
X134984285Y-113542438D02*
X135079523Y-113637676D01*
X135079523Y-113637676D02*
X135127142Y-113828152D01*
X135127142Y-113828152D02*
X135127142Y-114161485D01*
X135127142Y-114161485D02*
X135079523Y-114351961D01*
X135079523Y-114351961D02*
X134984285Y-114447200D01*
X134984285Y-114447200D02*
X134889047Y-114494819D01*
X134889047Y-114494819D02*
X134698571Y-114494819D01*
X135460476Y-113494819D02*
X136127142Y-113494819D01*
X136127142Y-113494819D02*
X135698571Y-114494819D01*
X164166905Y-114494819D02*
X164166905Y-113494819D01*
X164166905Y-113494819D02*
X164405000Y-113494819D01*
X164405000Y-113494819D02*
X164547857Y-113542438D01*
X164547857Y-113542438D02*
X164643095Y-113637676D01*
X164643095Y-113637676D02*
X164690714Y-113732914D01*
X164690714Y-113732914D02*
X164738333Y-113923390D01*
X164738333Y-113923390D02*
X164738333Y-114066247D01*
X164738333Y-114066247D02*
X164690714Y-114256723D01*
X164690714Y-114256723D02*
X164643095Y-114351961D01*
X164643095Y-114351961D02*
X164547857Y-114447200D01*
X164547857Y-114447200D02*
X164405000Y-114494819D01*
X164405000Y-114494819D02*
X164166905Y-114494819D01*
X165214524Y-114494819D02*
X165405000Y-114494819D01*
X165405000Y-114494819D02*
X165500238Y-114447200D01*
X165500238Y-114447200D02*
X165547857Y-114399580D01*
X165547857Y-114399580D02*
X165643095Y-114256723D01*
X165643095Y-114256723D02*
X165690714Y-114066247D01*
X165690714Y-114066247D02*
X165690714Y-113685295D01*
X165690714Y-113685295D02*
X165643095Y-113590057D01*
X165643095Y-113590057D02*
X165595476Y-113542438D01*
X165595476Y-113542438D02*
X165500238Y-113494819D01*
X165500238Y-113494819D02*
X165309762Y-113494819D01*
X165309762Y-113494819D02*
X165214524Y-113542438D01*
X165214524Y-113542438D02*
X165166905Y-113590057D01*
X165166905Y-113590057D02*
X165119286Y-113685295D01*
X165119286Y-113685295D02*
X165119286Y-113923390D01*
X165119286Y-113923390D02*
X165166905Y-114018628D01*
X165166905Y-114018628D02*
X165214524Y-114066247D01*
X165214524Y-114066247D02*
X165309762Y-114113866D01*
X165309762Y-114113866D02*
X165500238Y-114113866D01*
X165500238Y-114113866D02*
X165595476Y-114066247D01*
X165595476Y-114066247D02*
X165643095Y-114018628D01*
X165643095Y-114018628D02*
X165690714Y-113923390D01*
X161304819Y-88079166D02*
X160828628Y-88412499D01*
X161304819Y-88650594D02*
X160304819Y-88650594D01*
X160304819Y-88650594D02*
X160304819Y-88269642D01*
X160304819Y-88269642D02*
X160352438Y-88174404D01*
X160352438Y-88174404D02*
X160400057Y-88126785D01*
X160400057Y-88126785D02*
X160495295Y-88079166D01*
X160495295Y-88079166D02*
X160638152Y-88079166D01*
X160638152Y-88079166D02*
X160733390Y-88126785D01*
X160733390Y-88126785D02*
X160781009Y-88174404D01*
X160781009Y-88174404D02*
X160828628Y-88269642D01*
X160828628Y-88269642D02*
X160828628Y-88650594D01*
X160304819Y-87745832D02*
X160304819Y-87079166D01*
X160304819Y-87079166D02*
X161304819Y-87507737D01*
X127166905Y-77494819D02*
X127166905Y-76494819D01*
X127166905Y-76494819D02*
X127405000Y-76494819D01*
X127405000Y-76494819D02*
X127547857Y-76542438D01*
X127547857Y-76542438D02*
X127643095Y-76637676D01*
X127643095Y-76637676D02*
X127690714Y-76732914D01*
X127690714Y-76732914D02*
X127738333Y-76923390D01*
X127738333Y-76923390D02*
X127738333Y-77066247D01*
X127738333Y-77066247D02*
X127690714Y-77256723D01*
X127690714Y-77256723D02*
X127643095Y-77351961D01*
X127643095Y-77351961D02*
X127547857Y-77447200D01*
X127547857Y-77447200D02*
X127405000Y-77494819D01*
X127405000Y-77494819D02*
X127166905Y-77494819D01*
X128690714Y-77494819D02*
X128119286Y-77494819D01*
X128405000Y-77494819D02*
X128405000Y-76494819D01*
X128405000Y-76494819D02*
X128309762Y-76637676D01*
X128309762Y-76637676D02*
X128214524Y-76732914D01*
X128214524Y-76732914D02*
X128119286Y-76780533D01*
X158604819Y-112642857D02*
X158128628Y-112976190D01*
X158604819Y-113214285D02*
X157604819Y-113214285D01*
X157604819Y-113214285D02*
X157604819Y-112833333D01*
X157604819Y-112833333D02*
X157652438Y-112738095D01*
X157652438Y-112738095D02*
X157700057Y-112690476D01*
X157700057Y-112690476D02*
X157795295Y-112642857D01*
X157795295Y-112642857D02*
X157938152Y-112642857D01*
X157938152Y-112642857D02*
X158033390Y-112690476D01*
X158033390Y-112690476D02*
X158081009Y-112738095D01*
X158081009Y-112738095D02*
X158128628Y-112833333D01*
X158128628Y-112833333D02*
X158128628Y-113214285D01*
X157604819Y-112309523D02*
X157604819Y-111690476D01*
X157604819Y-111690476D02*
X157985771Y-112023809D01*
X157985771Y-112023809D02*
X157985771Y-111880952D01*
X157985771Y-111880952D02*
X158033390Y-111785714D01*
X158033390Y-111785714D02*
X158081009Y-111738095D01*
X158081009Y-111738095D02*
X158176247Y-111690476D01*
X158176247Y-111690476D02*
X158414342Y-111690476D01*
X158414342Y-111690476D02*
X158509580Y-111738095D01*
X158509580Y-111738095D02*
X158557200Y-111785714D01*
X158557200Y-111785714D02*
X158604819Y-111880952D01*
X158604819Y-111880952D02*
X158604819Y-112166666D01*
X158604819Y-112166666D02*
X158557200Y-112261904D01*
X158557200Y-112261904D02*
X158509580Y-112309523D01*
X157604819Y-111357142D02*
X157604819Y-110690476D01*
X157604819Y-110690476D02*
X158604819Y-111119047D01*
X142804819Y-88079166D02*
X142328628Y-88412499D01*
X142804819Y-88650594D02*
X141804819Y-88650594D01*
X141804819Y-88650594D02*
X141804819Y-88269642D01*
X141804819Y-88269642D02*
X141852438Y-88174404D01*
X141852438Y-88174404D02*
X141900057Y-88126785D01*
X141900057Y-88126785D02*
X141995295Y-88079166D01*
X141995295Y-88079166D02*
X142138152Y-88079166D01*
X142138152Y-88079166D02*
X142233390Y-88126785D01*
X142233390Y-88126785D02*
X142281009Y-88174404D01*
X142281009Y-88174404D02*
X142328628Y-88269642D01*
X142328628Y-88269642D02*
X142328628Y-88650594D01*
X142138152Y-87222023D02*
X142804819Y-87222023D01*
X141757200Y-87460118D02*
X142471485Y-87698213D01*
X142471485Y-87698213D02*
X142471485Y-87079166D01*
D16*
X124765000Y-106727064D02*
X124765000Y-106272936D01*
X126235000Y-106727064D02*
X126235000Y-106272936D01*
X132710000Y-79455000D02*
X132710000Y-82545000D01*
X132710001Y-79455170D02*
G75*
G02*
X138259999Y-81000462I2559999J-1544830D01*
G01*
X138260000Y-80999538D02*
G75*
G02*
X132710000Y-82544830I-2990000J-462D01*
G01*
X137770000Y-81000000D02*
G75*
G02*
X132770000Y-81000000I-2500000J0D01*
G01*
X132770000Y-81000000D02*
G75*
G02*
X137770000Y-81000000I2500000J0D01*
G01*
X155765000Y-92772936D02*
X155765000Y-93227064D01*
X157235000Y-92772936D02*
X157235000Y-93227064D01*
X169710000Y-98455000D02*
X169710000Y-101545000D01*
X169710001Y-98455170D02*
G75*
G02*
X175259999Y-100000462I2559999J-1544830D01*
G01*
X175260000Y-99999538D02*
G75*
G02*
X169710000Y-101544830I-2990000J-462D01*
G01*
X174770000Y-100000000D02*
G75*
G02*
X169770000Y-100000000I-2500000J0D01*
G01*
X169770000Y-100000000D02*
G75*
G02*
X174770000Y-100000000I2500000J0D01*
G01*
X134765000Y-88227064D02*
X134765000Y-87772936D01*
X136235000Y-88227064D02*
X136235000Y-87772936D01*
X151710000Y-116455000D02*
X151710000Y-119545000D01*
X151710001Y-116455170D02*
G75*
G02*
X157259999Y-118000462I2559999J-1544830D01*
G01*
X157260000Y-117999538D02*
G75*
G02*
X151710000Y-119544830I-2990000J-462D01*
G01*
X156770000Y-118000000D02*
G75*
G02*
X151770000Y-118000000I-2500000J0D01*
G01*
X151770000Y-118000000D02*
G75*
G02*
X156770000Y-118000000I2500000J0D01*
G01*
X99225000Y-83100000D02*
X99225000Y-84350000D01*
X99225000Y-84350000D02*
X100475000Y-84350000D01*
X99515000Y-68940000D02*
X99515000Y-84060000D01*
X99515000Y-84060000D02*
X105485000Y-84060000D01*
X99525000Y-68950000D02*
X99525000Y-70750000D01*
X99525000Y-70750000D02*
X100275000Y-70750000D01*
X99525000Y-72250000D02*
X99525000Y-80750000D01*
X99525000Y-80750000D02*
X100275000Y-80750000D01*
X99525000Y-82250000D02*
X99525000Y-84050000D01*
X99525000Y-84050000D02*
X100275000Y-84050000D01*
X100275000Y-68950000D02*
X99525000Y-68950000D01*
X100275000Y-70750000D02*
X100275000Y-68950000D01*
X100275000Y-72250000D02*
X99525000Y-72250000D01*
X100275000Y-80750000D02*
X100275000Y-72250000D01*
X100275000Y-82250000D02*
X99525000Y-82250000D01*
X100275000Y-84050000D02*
X100275000Y-82250000D01*
X101775000Y-68950000D02*
X101775000Y-69700000D01*
X101775000Y-69700000D02*
X104725000Y-69700000D01*
X101775000Y-83300000D02*
X104725000Y-83300000D01*
X101775000Y-84050000D02*
X101775000Y-83300000D01*
X104725000Y-69700000D02*
X104725000Y-76500000D01*
X104725000Y-83300000D02*
X104725000Y-76500000D01*
X105485000Y-68940000D02*
X99515000Y-68940000D01*
X105485000Y-84060000D02*
X105485000Y-68940000D01*
X137265000Y-74272936D02*
X137265000Y-74727064D01*
X138735000Y-74272936D02*
X138735000Y-74727064D01*
X171765000Y-125139564D02*
X171765000Y-124685436D01*
X173235000Y-125139564D02*
X173235000Y-124685436D01*
X114350000Y-106030000D02*
X114350000Y-102430000D01*
X109900000Y-104230000D02*
G75*
G02*
X114338478Y-102391522I2600000J0D01*
G01*
X114338478Y-106068478D02*
G75*
G02*
X109900000Y-104230000I-1838478J1838478D01*
G01*
X125345000Y-98455000D02*
X125345000Y-98920000D01*
X125345000Y-101080000D02*
X125345000Y-101545000D01*
X125345001Y-98455170D02*
G75*
G02*
X130692814Y-98919173I2559999J-1544830D01*
G01*
X125650317Y-98920000D02*
G75*
G02*
X130159478Y-98919572I2254683J-1080000D01*
G01*
X130159479Y-101080429D02*
G75*
G02*
X125650316Y-101080000I-2254479J1080429D01*
G01*
X130692814Y-101080827D02*
G75*
G02*
X125345001Y-101544830I-2787814J1080827D01*
G01*
X174265000Y-92772936D02*
X174265000Y-93227064D01*
X175735000Y-92772936D02*
X175735000Y-93227064D01*
X151710000Y-98455000D02*
X151710000Y-101545000D01*
X151710001Y-98455170D02*
G75*
G02*
X157259999Y-100000462I2559999J-1544830D01*
G01*
X157260000Y-99999538D02*
G75*
G02*
X151710000Y-101544830I-2990000J-462D01*
G01*
X156770000Y-100000000D02*
G75*
G02*
X151770000Y-100000000I-2500000J0D01*
G01*
X151770000Y-100000000D02*
G75*
G02*
X156770000Y-100000000I2500000J0D01*
G01*
X124765000Y-125314564D02*
X124765000Y-124860436D01*
X126235000Y-125314564D02*
X126235000Y-124860436D01*
X114350000Y-117530000D02*
X114350000Y-113930000D01*
X109900000Y-115730000D02*
G75*
G02*
X114338478Y-113891522I2600000J0D01*
G01*
X114338478Y-117568478D02*
G75*
G02*
X109900000Y-115730000I-1838478J1838478D01*
G01*
X153765000Y-88139564D02*
X153765000Y-87685436D01*
X155235000Y-88139564D02*
X155235000Y-87685436D01*
X129765000Y-125227064D02*
X129765000Y-124772936D01*
X131235000Y-125227064D02*
X131235000Y-124772936D01*
X171765000Y-88139564D02*
X171765000Y-87685436D01*
X173235000Y-88139564D02*
X173235000Y-87685436D01*
X166765000Y-106639564D02*
X166765000Y-106185436D01*
X168235000Y-106639564D02*
X168235000Y-106185436D01*
X169710000Y-79455000D02*
X169710000Y-82545000D01*
X169710001Y-79455170D02*
G75*
G02*
X175259999Y-81000462I2559999J-1544830D01*
G01*
X175260000Y-80999538D02*
G75*
G02*
X169710000Y-82544830I-2990000J-462D01*
G01*
X174770000Y-81000000D02*
G75*
G02*
X169770000Y-81000000I-2500000J0D01*
G01*
X169770000Y-81000000D02*
G75*
G02*
X174770000Y-81000000I2500000J0D01*
G01*
X166765000Y-88139564D02*
X166765000Y-87685436D01*
X168235000Y-88139564D02*
X168235000Y-87685436D01*
X134765000Y-125227064D02*
X134765000Y-124772936D01*
X136235000Y-125227064D02*
X136235000Y-124772936D01*
X107772936Y-126765000D02*
X108227064Y-126765000D01*
X107772936Y-128235000D02*
X108227064Y-128235000D01*
X174265000Y-74272936D02*
X174265000Y-74727064D01*
X175735000Y-74272936D02*
X175735000Y-74727064D01*
X114350000Y-111800000D02*
X114350000Y-108200000D01*
X109900000Y-110000000D02*
G75*
G02*
X114338478Y-108161522I2600000J0D01*
G01*
X114338478Y-111838478D02*
G75*
G02*
X109900000Y-110000000I-1838478J1838478D01*
G01*
X129765000Y-106727064D02*
X129765000Y-106272936D01*
X131235000Y-106727064D02*
X131235000Y-106272936D01*
X162345000Y-98455000D02*
X162345000Y-98920000D01*
X162345000Y-101080000D02*
X162345000Y-101545000D01*
X162345001Y-98455170D02*
G75*
G02*
X167692814Y-98919173I2559999J-1544830D01*
G01*
X162650317Y-98920000D02*
G75*
G02*
X167159478Y-98919572I2254683J-1080000D01*
G01*
X167159479Y-101080429D02*
G75*
G02*
X162650316Y-101080000I-2254479J1080429D01*
G01*
X167692814Y-101080827D02*
G75*
G02*
X162345001Y-101544830I-2787814J1080827D01*
G01*
X153765000Y-125227064D02*
X153765000Y-124772936D01*
X155235000Y-125227064D02*
X155235000Y-124772936D01*
X148265000Y-125227064D02*
X148265000Y-124772936D01*
X149735000Y-125227064D02*
X149735000Y-124772936D01*
X151710000Y-79455000D02*
X151710000Y-82545000D01*
X151710001Y-79455170D02*
G75*
G02*
X157259999Y-81000462I2559999J-1544830D01*
G01*
X157260000Y-80999538D02*
G75*
G02*
X151710000Y-82544830I-2990000J-462D01*
G01*
X156770000Y-81000000D02*
G75*
G02*
X151770000Y-81000000I-2500000J0D01*
G01*
X151770000Y-81000000D02*
G75*
G02*
X156770000Y-81000000I2500000J0D01*
G01*
X143265000Y-106727064D02*
X143265000Y-106272936D01*
X144735000Y-106727064D02*
X144735000Y-106272936D01*
X134765000Y-106727064D02*
X134765000Y-106272936D01*
X136235000Y-106727064D02*
X136235000Y-106272936D01*
X153765000Y-106727064D02*
X153765000Y-106272936D01*
X155235000Y-106727064D02*
X155235000Y-106272936D01*
X107772936Y-123265000D02*
X108227064Y-123265000D01*
X107772936Y-124735000D02*
X108227064Y-124735000D01*
X129765000Y-88227064D02*
X129765000Y-87772936D01*
X131235000Y-88227064D02*
X131235000Y-87772936D01*
X169710000Y-116455000D02*
X169710000Y-119545000D01*
X169710001Y-116455170D02*
G75*
G02*
X175259999Y-118000462I2559999J-1544830D01*
G01*
X175260000Y-117999538D02*
G75*
G02*
X169710000Y-119544830I-2990000J-462D01*
G01*
X174770000Y-118000000D02*
G75*
G02*
X169770000Y-118000000I-2500000J0D01*
G01*
X169770000Y-118000000D02*
G75*
G02*
X174770000Y-118000000I2500000J0D01*
G01*
X137265000Y-111772936D02*
X137265000Y-112227064D01*
X138735000Y-111772936D02*
X138735000Y-112227064D01*
X144345000Y-98455000D02*
X144345000Y-98920000D01*
X144345000Y-101080000D02*
X144345000Y-101545000D01*
X144345001Y-98455170D02*
G75*
G02*
X149692814Y-98919173I2559999J-1544830D01*
G01*
X144650317Y-98920000D02*
G75*
G02*
X149159478Y-98919572I2254683J-1080000D01*
G01*
X149159479Y-101080429D02*
G75*
G02*
X144650316Y-101080000I-2254479J1080429D01*
G01*
X149692814Y-101080827D02*
G75*
G02*
X144345001Y-101544830I-2787814J1080827D01*
G01*
X148265000Y-88227064D02*
X148265000Y-87772936D01*
X149735000Y-88227064D02*
X149735000Y-87772936D01*
X144345000Y-116455000D02*
X144345000Y-116920000D01*
X144345000Y-119080000D02*
X144345000Y-119545000D01*
X144345001Y-116455170D02*
G75*
G02*
X149692814Y-116919173I2559999J-1544830D01*
G01*
X144650317Y-116920000D02*
G75*
G02*
X149159478Y-116919572I2254683J-1080000D01*
G01*
X149159479Y-119080429D02*
G75*
G02*
X144650316Y-119080000I-2254479J1080429D01*
G01*
X149692814Y-119080827D02*
G75*
G02*
X144345001Y-119544830I-2787814J1080827D01*
G01*
X166765000Y-125227064D02*
X166765000Y-124772936D01*
X168235000Y-125227064D02*
X168235000Y-124772936D01*
X99225000Y-110350000D02*
X99225000Y-111600000D01*
X99225000Y-111600000D02*
X100475000Y-111600000D01*
X99515000Y-103690000D02*
X99515000Y-111310000D01*
X99515000Y-111310000D02*
X105485000Y-111310000D01*
X99525000Y-103700000D02*
X99525000Y-105500000D01*
X99525000Y-105500000D02*
X100275000Y-105500000D01*
X99525000Y-107000000D02*
X99525000Y-108000000D01*
X99525000Y-108000000D02*
X100275000Y-108000000D01*
X99525000Y-109500000D02*
X99525000Y-111300000D01*
X99525000Y-111300000D02*
X100275000Y-111300000D01*
X100275000Y-103700000D02*
X99525000Y-103700000D01*
X100275000Y-105500000D02*
X100275000Y-103700000D01*
X100275000Y-107000000D02*
X99525000Y-107000000D01*
X100275000Y-108000000D02*
X100275000Y-107000000D01*
X100275000Y-109500000D02*
X99525000Y-109500000D01*
X100275000Y-111300000D02*
X100275000Y-109500000D01*
X101775000Y-103700000D02*
X101775000Y-104450000D01*
X101775000Y-104450000D02*
X104725000Y-104450000D01*
X101775000Y-110550000D02*
X104725000Y-110550000D01*
X101775000Y-111300000D02*
X101775000Y-110550000D01*
X104725000Y-104450000D02*
X104725000Y-107500000D01*
X104725000Y-110550000D02*
X104725000Y-107500000D01*
X105485000Y-103690000D02*
X99515000Y-103690000D01*
X105485000Y-111310000D02*
X105485000Y-103690000D01*
X124765000Y-88227064D02*
X124765000Y-87772936D01*
X126235000Y-88227064D02*
X126235000Y-87772936D01*
X174265000Y-111772936D02*
X174265000Y-112227064D01*
X175735000Y-111772936D02*
X175735000Y-112227064D01*
X161765000Y-106639564D02*
X161765000Y-106185436D01*
X163235000Y-106639564D02*
X163235000Y-106185436D01*
X107772936Y-119765000D02*
X108227064Y-119765000D01*
X107772936Y-121235000D02*
X108227064Y-121235000D01*
X162265000Y-125139564D02*
X162265000Y-124685436D01*
X163735000Y-125139564D02*
X163735000Y-124685436D01*
X137265000Y-92772936D02*
X137265000Y-93227064D01*
X138735000Y-92772936D02*
X138735000Y-93227064D01*
X148265000Y-106727064D02*
X148265000Y-106272936D01*
X149735000Y-106727064D02*
X149735000Y-106272936D01*
X162345000Y-79455000D02*
X162345000Y-79920000D01*
X162345000Y-82080000D02*
X162345000Y-82545000D01*
X162345001Y-79455170D02*
G75*
G02*
X167692814Y-79919173I2559999J-1544830D01*
G01*
X162650317Y-79920000D02*
G75*
G02*
X167159478Y-79919572I2254683J-1080000D01*
G01*
X167159479Y-82080429D02*
G75*
G02*
X162650316Y-82080000I-2254479J1080429D01*
G01*
X167692814Y-82080827D02*
G75*
G02*
X162345001Y-82544830I-2787814J1080827D01*
G01*
X125345000Y-116455000D02*
X125345000Y-116920000D01*
X125345000Y-119080000D02*
X125345000Y-119545000D01*
X125345001Y-116455170D02*
G75*
G02*
X130692814Y-116919173I2559999J-1544830D01*
G01*
X125650317Y-116920000D02*
G75*
G02*
X130159478Y-116919572I2254683J-1080000D01*
G01*
X130159479Y-119080429D02*
G75*
G02*
X125650316Y-119080000I-2254479J1080429D01*
G01*
X130692814Y-119080827D02*
G75*
G02*
X125345001Y-119544830I-2787814J1080827D01*
G01*
X144345000Y-79455000D02*
X144345000Y-79920000D01*
X144345000Y-82080000D02*
X144345000Y-82545000D01*
X144345001Y-79455170D02*
G75*
G02*
X149692814Y-79919173I2559999J-1544830D01*
G01*
X144650317Y-79920000D02*
G75*
G02*
X149159478Y-79919572I2254683J-1080000D01*
G01*
X149159479Y-82080429D02*
G75*
G02*
X144650316Y-82080000I-2254479J1080429D01*
G01*
X149692814Y-82080827D02*
G75*
G02*
X144345001Y-82544830I-2787814J1080827D01*
G01*
X171765000Y-106814564D02*
X171765000Y-106360436D01*
X173235000Y-106814564D02*
X173235000Y-106360436D01*
X99250000Y-99100000D02*
X99250000Y-100350000D01*
X99250000Y-100350000D02*
X100500000Y-100350000D01*
X99540000Y-87440000D02*
X99540000Y-100060000D01*
X99540000Y-100060000D02*
X105510000Y-100060000D01*
X99550000Y-87450000D02*
X99550000Y-89250000D01*
X99550000Y-89250000D02*
X100300000Y-89250000D01*
X99550000Y-90750000D02*
X99550000Y-96750000D01*
X99550000Y-96750000D02*
X100300000Y-96750000D01*
X99550000Y-98250000D02*
X99550000Y-100050000D01*
X99550000Y-100050000D02*
X100300000Y-100050000D01*
X100300000Y-87450000D02*
X99550000Y-87450000D01*
X100300000Y-89250000D02*
X100300000Y-87450000D01*
X100300000Y-90750000D02*
X99550000Y-90750000D01*
X100300000Y-96750000D02*
X100300000Y-90750000D01*
X100300000Y-98250000D02*
X99550000Y-98250000D01*
X100300000Y-100050000D02*
X100300000Y-98250000D01*
X101800000Y-87450000D02*
X101800000Y-88200000D01*
X101800000Y-88200000D02*
X104750000Y-88200000D01*
X101800000Y-99300000D02*
X104750000Y-99300000D01*
X101800000Y-100050000D02*
X101800000Y-99300000D01*
X104750000Y-88200000D02*
X104750000Y-93750000D01*
X104750000Y-99300000D02*
X104750000Y-93750000D01*
X105510000Y-87440000D02*
X99540000Y-87440000D01*
X105510000Y-100060000D02*
X105510000Y-87440000D01*
X143265000Y-125227064D02*
X143265000Y-124772936D01*
X144735000Y-125227064D02*
X144735000Y-124772936D01*
X132710000Y-98455000D02*
X132710000Y-101545000D01*
X132710001Y-98455170D02*
G75*
G02*
X138259999Y-100000462I2559999J-1544830D01*
G01*
X138260000Y-99999538D02*
G75*
G02*
X132710000Y-101544830I-2990000J-462D01*
G01*
X137770000Y-100000000D02*
G75*
G02*
X132770000Y-100000000I-2500000J0D01*
G01*
X132770000Y-100000000D02*
G75*
G02*
X137770000Y-100000000I2500000J0D01*
G01*
X155765000Y-74272936D02*
X155765000Y-74727064D01*
X157235000Y-74272936D02*
X157235000Y-74727064D01*
X132710000Y-116455000D02*
X132710000Y-119545000D01*
X132710001Y-116455170D02*
G75*
G02*
X138259999Y-118000462I2559999J-1544830D01*
G01*
X138260000Y-117999538D02*
G75*
G02*
X132710000Y-119544830I-2990000J-462D01*
G01*
X137770000Y-118000000D02*
G75*
G02*
X132770000Y-118000000I-2500000J0D01*
G01*
X132770000Y-118000000D02*
G75*
G02*
X137770000Y-118000000I2500000J0D01*
G01*
X162345000Y-116455000D02*
X162345000Y-116920000D01*
X162345000Y-119080000D02*
X162345000Y-119545000D01*
X162345001Y-116455170D02*
G75*
G02*
X167692814Y-116919173I2559999J-1544830D01*
G01*
X162650317Y-116920000D02*
G75*
G02*
X167159478Y-116919572I2254683J-1080000D01*
G01*
X167159479Y-119080429D02*
G75*
G02*
X162650316Y-119080000I-2254479J1080429D01*
G01*
X167692814Y-119080827D02*
G75*
G02*
X162345001Y-119544830I-2787814J1080827D01*
G01*
X161765000Y-88139564D02*
X161765000Y-87685436D01*
X163235000Y-88139564D02*
X163235000Y-87685436D01*
X125345000Y-79455000D02*
X125345000Y-79920000D01*
X125345000Y-82080000D02*
X125345000Y-82545000D01*
X125345001Y-79455170D02*
G75*
G02*
X130692814Y-79919173I2559999J-1544830D01*
G01*
X125650317Y-79920000D02*
G75*
G02*
X130159478Y-79919572I2254683J-1080000D01*
G01*
X130159479Y-82080429D02*
G75*
G02*
X125650316Y-82080000I-2254479J1080429D01*
G01*
X130692814Y-82080827D02*
G75*
G02*
X125345001Y-82544830I-2787814J1080827D01*
G01*
X155765000Y-111772936D02*
X155765000Y-112227064D01*
X157235000Y-111772936D02*
X157235000Y-112227064D01*
X143265000Y-88139564D02*
X143265000Y-87685436D01*
X144735000Y-88139564D02*
X144735000Y-87685436D01*
X99225000Y-127100000D02*
X99225000Y-128350000D01*
X99225000Y-128350000D02*
X100475000Y-128350000D01*
X99515000Y-115440000D02*
X99515000Y-128060000D01*
X99515000Y-128060000D02*
X105485000Y-128060000D01*
X99525000Y-115450000D02*
X99525000Y-117250000D01*
X99525000Y-117250000D02*
X100275000Y-117250000D01*
X99525000Y-118750000D02*
X99525000Y-124750000D01*
X99525000Y-124750000D02*
X100275000Y-124750000D01*
X99525000Y-126250000D02*
X99525000Y-128050000D01*
X99525000Y-128050000D02*
X100275000Y-128050000D01*
X100275000Y-115450000D02*
X99525000Y-115450000D01*
X100275000Y-117250000D02*
X100275000Y-115450000D01*
X100275000Y-118750000D02*
X99525000Y-118750000D01*
X100275000Y-124750000D02*
X100275000Y-118750000D01*
X100275000Y-126250000D02*
X99525000Y-126250000D01*
X100275000Y-128050000D02*
X100275000Y-126250000D01*
X101775000Y-115450000D02*
X101775000Y-116200000D01*
X101775000Y-116200000D02*
X104725000Y-116200000D01*
X101775000Y-127300000D02*
X104725000Y-127300000D01*
X101775000Y-128050000D02*
X101775000Y-127300000D01*
X104725000Y-116200000D02*
X104725000Y-121750000D01*
X104725000Y-127300000D02*
X104725000Y-121750000D01*
X105485000Y-115440000D02*
X99515000Y-115440000D01*
X105485000Y-128060000D02*
X105485000Y-115440000D01*
M02*
