G04 #@! TF.GenerationSoftware,KiCad,Pcbnew,8.0.0*
G04 #@! TF.CreationDate,2025-07-08T12:56:53-06:00*
G04 #@! TF.ProjectId,Motor Breakout,4d6f746f-7220-4427-9265-616b6f75742e,A*
G04 #@! TF.SameCoordinates,Original*
G04 #@! TF.FileFunction,Copper,L1,Top*
G04 #@! TF.FilePolarity,Positive*
%FSLAX46Y46*%
G04 Gerber Fmt 4.6, Leading zero omitted, Abs format (unit mm)*
G04 Created by KiCad (PCBNEW 8.0.0) date 2025-07-08 12:56:53*
%MOMM*%
%LPD*%
G01*
G04 APERTURE LIST*
G04 Aperture macros list*
%AMRoundRect*
0 Rectangle with rounded corners*
0 $1 Rounding radius*
0 $2 $3 $4 $5 $6 $7 $8 $9 X,Y pos of 4 corners*
0 Add a 4 corners polygon primitive as box body*
4,1,4,$2,$3,$4,$5,$6,$7,$8,$9,$2,$3,0*
0 Add four circle primitives for the rounded corners*
1,1,$1+$1,$2,$3*
1,1,$1+$1,$4,$5*
1,1,$1+$1,$6,$7*
1,1,$1+$1,$8,$9*
0 Add four rect primitives between the rounded corners*
20,1,$1+$1,$2,$3,$4,$5,0*
20,1,$1+$1,$4,$5,$6,$7,0*
20,1,$1+$1,$6,$7,$8,$9,0*
20,1,$1+$1,$8,$9,$2,$3,0*%
G04 Aperture macros list end*
G04 #@! TA.AperFunction,ComponentPad*
%ADD10C,1.600000*%
G04 #@! TD*
G04 #@! TA.AperFunction,ComponentPad*
%ADD11RoundRect,0.250000X-0.600000X-0.725000X0.600000X-0.725000X0.600000X0.725000X-0.600000X0.725000X0*%
G04 #@! TD*
G04 #@! TA.AperFunction,ComponentPad*
%ADD12O,1.700000X1.950000*%
G04 #@! TD*
G04 #@! TA.AperFunction,ComponentPad*
%ADD13C,1.200000*%
G04 #@! TD*
G04 #@! TA.AperFunction,Conductor*
%ADD14C,1.000000*%
G04 #@! TD*
G04 #@! TA.AperFunction,Conductor*
%ADD15C,0.250000*%
G04 #@! TD*
G04 #@! TA.AperFunction,Conductor*
%ADD16C,1.500000*%
G04 #@! TD*
G04 APERTURE END LIST*
D10*
X145000000Y-61500000D03*
X147000000Y-61500000D03*
D11*
X126500000Y-54500000D03*
D12*
X129000000Y-54500000D03*
X131500000Y-54500000D03*
X134000000Y-54500000D03*
D10*
X124000000Y-84000000D03*
X122000000Y-84000000D03*
D11*
X147500000Y-69475000D03*
D12*
X150000000Y-69475000D03*
X152500000Y-69475000D03*
D13*
X123000000Y-68000000D03*
X123000000Y-69500000D03*
D11*
X142000000Y-54500000D03*
D12*
X144500000Y-54500000D03*
X147000000Y-54500000D03*
X149500000Y-54500000D03*
D11*
X129500000Y-96000000D03*
D12*
X132000000Y-96000000D03*
X134500000Y-96000000D03*
X137000000Y-96000000D03*
X139500000Y-96000000D03*
X142000000Y-96000000D03*
X144500000Y-96000000D03*
X147000000Y-96000000D03*
D10*
X128300000Y-66500000D03*
X128300000Y-69040000D03*
X128300000Y-71580000D03*
X128300000Y-74120000D03*
X128300000Y-76660000D03*
X128300000Y-79200000D03*
X128300000Y-81740000D03*
X128300000Y-84280000D03*
X141000000Y-66500000D03*
X141000000Y-69040000D03*
X141000000Y-71580000D03*
X141000000Y-74120000D03*
X141000000Y-76660000D03*
X141000000Y-79200000D03*
X141000000Y-81740000D03*
X141000000Y-84280000D03*
D11*
X147500000Y-83000000D03*
D12*
X150000000Y-83000000D03*
X152500000Y-83000000D03*
D14*
X145275000Y-80775000D02*
X147500000Y-83000000D01*
X147500000Y-69475000D02*
X145275000Y-71700000D01*
X145275000Y-71700000D02*
X145275000Y-80775000D01*
X145000000Y-61500000D02*
X145000000Y-66975000D01*
X145000000Y-66975000D02*
X147500000Y-69475000D01*
D15*
X143000000Y-58500000D02*
X147000000Y-54500000D01*
X143000000Y-67863604D02*
X143000000Y-58500000D01*
X143900000Y-68763604D02*
X143000000Y-67863604D01*
X143900000Y-90372792D02*
X143900000Y-68763604D01*
X143000000Y-94500000D02*
X143000000Y-91272792D01*
X143000000Y-91272792D02*
X143900000Y-90372792D01*
X144500000Y-96000000D02*
X143000000Y-94500000D01*
X143450000Y-67677208D02*
X143450000Y-60550000D01*
X143450000Y-60550000D02*
X149500000Y-54500000D01*
X144350000Y-68577208D02*
X143450000Y-67677208D01*
X144350000Y-90559188D02*
X144350000Y-68577208D01*
X143450000Y-91459188D02*
X144350000Y-90559188D01*
X143450000Y-92450000D02*
X143450000Y-91459188D01*
X147000000Y-96000000D02*
X143450000Y-92450000D01*
X154000000Y-70975000D02*
X154000000Y-81000000D01*
X152500000Y-69475000D02*
X154000000Y-70975000D01*
X154000000Y-81000000D02*
X152500000Y-82500000D01*
D14*
X130000000Y-69880000D02*
X128300000Y-71580000D01*
X126500000Y-54500000D02*
X130000000Y-58000000D01*
X130000000Y-58000000D02*
X130000000Y-69880000D01*
X132600000Y-55600000D02*
X132600000Y-72360000D01*
X131500000Y-54500000D02*
X132600000Y-55600000D01*
X132600000Y-72360000D02*
X128300000Y-76660000D01*
X129000000Y-54500000D02*
X131300000Y-56800000D01*
X131300000Y-71120000D02*
X128300000Y-74120000D01*
X131300000Y-56800000D02*
X131300000Y-71120000D01*
X134000000Y-54500000D02*
X134000000Y-73500000D01*
X134000000Y-73500000D02*
X128300000Y-79200000D01*
X134500000Y-96000000D02*
X134500000Y-76000000D01*
X128300000Y-69040000D02*
X127840000Y-69500000D01*
X127840000Y-69500000D02*
X123000000Y-69500000D01*
X135300000Y-75200000D02*
X135300000Y-61200000D01*
X134500000Y-76000000D02*
X135300000Y-75200000D01*
X134500000Y-88240000D02*
X141000000Y-81740000D01*
X134500000Y-96000000D02*
X134500000Y-88240000D01*
X135300000Y-61200000D02*
X142000000Y-54500000D01*
D15*
X139500000Y-94136396D02*
X143450000Y-90186396D01*
X143450000Y-90186396D02*
X143450000Y-68950000D01*
X139500000Y-96000000D02*
X139500000Y-94136396D01*
X143450000Y-68950000D02*
X141000000Y-66500000D01*
X143000000Y-90000000D02*
X143000000Y-71040000D01*
X143000000Y-71040000D02*
X141000000Y-69040000D01*
X137000000Y-96000000D02*
X143000000Y-90000000D01*
D16*
X129500000Y-85480000D02*
X128300000Y-84280000D01*
X128300000Y-84280000D02*
X124280000Y-84280000D01*
X129500000Y-96000000D02*
X129500000Y-85480000D01*
X128300000Y-84280000D02*
X127168630Y-84280000D01*
X124280000Y-84280000D02*
X124000000Y-84000000D01*
M02*
