M48
; DRILL file {KiCad 8.0.0} date 2025-07-08T12:57:04-0600
; FORMAT={-:-/ absolute / metric / decimal}
; #@! TF.CreationDate,2025-07-08T12:57:04-06:00
; #@! TF.GenerationSoftware,Kicad,Pcbnew,8.0.0
; #@! TF.FileFunction,Plated,1,2,PTH
FMAT,2
METRIC
; #@! TA.AperFunction,Plated,PTH,ComponentDrill
T1C0.600
; #@! TA.AperFunction,Plated,PTH,ComponentDrill
T2C0.800
; #@! TA.AperFunction,Plated,PTH,ComponentDrill
T3C0.950
%
G90
G05
T1
X123.0Y-68.0
X123.0Y-69.5
T2
X122.0Y-84.0
X124.0Y-84.0
X128.3Y-66.5
X128.3Y-69.04
X128.3Y-71.58
X128.3Y-74.12
X128.3Y-76.66
X128.3Y-79.2
X128.3Y-81.74
X128.3Y-84.28
X141.0Y-66.5
X141.0Y-69.04
X141.0Y-71.58
X141.0Y-74.12
X141.0Y-76.66
X141.0Y-79.2
X141.0Y-81.74
X141.0Y-84.28
X145.0Y-61.5
X147.0Y-61.5
T3
X126.5Y-54.5
X129.0Y-54.5
X129.5Y-96.0
X131.5Y-54.5
X132.0Y-96.0
X134.0Y-54.5
X134.5Y-96.0
X137.0Y-96.0
X139.5Y-96.0
X142.0Y-54.5
X142.0Y-96.0
X144.5Y-54.5
X144.5Y-96.0
X147.0Y-54.5
X147.0Y-96.0
X147.5Y-69.475
X147.5Y-83.0
X149.5Y-54.5
X150.0Y-69.475
X150.0Y-83.0
X152.5Y-69.475
X152.5Y-83.0
M30
