G04 #@! TF.GenerationSoftware,KiCad,Pcbnew,8.0.0*
G04 #@! TF.CreationDate,2025-07-08T12:56:53-06:00*
G04 #@! TF.ProjectId,Motor Breakout,4d6f746f-7220-4427-9265-616b6f75742e,A*
G04 #@! TF.SameCoordinates,Original*
G04 #@! TF.FileFunction,Soldermask,Top*
G04 #@! TF.FilePolarity,Negative*
%FSLAX46Y46*%
G04 Gerber Fmt 4.6, Leading zero omitted, Abs format (unit mm)*
G04 Created by KiCad (PCBNEW 8.0.0) date 2025-07-08 12:56:53*
%MOMM*%
%LPD*%
G01*
G04 APERTURE LIST*
G04 Aperture macros list*
%AMRoundRect*
0 Rectangle with rounded corners*
0 $1 Rounding radius*
0 $2 $3 $4 $5 $6 $7 $8 $9 X,Y pos of 4 corners*
0 Add a 4 corners polygon primitive as box body*
4,1,4,$2,$3,$4,$5,$6,$7,$8,$9,$2,$3,0*
0 Add four circle primitives for the rounded corners*
1,1,$1+$1,$2,$3*
1,1,$1+$1,$4,$5*
1,1,$1+$1,$6,$7*
1,1,$1+$1,$8,$9*
0 Add four rect primitives between the rounded corners*
20,1,$1+$1,$2,$3,$4,$5,0*
20,1,$1+$1,$4,$5,$6,$7,0*
20,1,$1+$1,$6,$7,$8,$9,0*
20,1,$1+$1,$8,$9,$2,$3,0*%
G04 Aperture macros list end*
%ADD10C,1.600000*%
%ADD11RoundRect,0.250000X-0.600000X-0.725000X0.600000X-0.725000X0.600000X0.725000X-0.600000X0.725000X0*%
%ADD12O,1.700000X1.950000*%
%ADD13C,1.200000*%
G04 APERTURE END LIST*
D10*
X145000000Y-61500000D03*
X147000000Y-61500000D03*
D11*
X126500000Y-54500000D03*
D12*
X129000000Y-54500000D03*
X131500000Y-54500000D03*
X134000000Y-54500000D03*
D10*
X124000000Y-84000000D03*
X122000000Y-84000000D03*
D11*
X147500000Y-69475000D03*
D12*
X150000000Y-69475000D03*
X152500000Y-69475000D03*
D13*
X123000000Y-68000000D03*
X123000000Y-69500000D03*
D11*
X142000000Y-54500000D03*
D12*
X144500000Y-54500000D03*
X147000000Y-54500000D03*
X149500000Y-54500000D03*
D11*
X129500000Y-96000000D03*
D12*
X132000000Y-96000000D03*
X134500000Y-96000000D03*
X137000000Y-96000000D03*
X139500000Y-96000000D03*
X142000000Y-96000000D03*
X144500000Y-96000000D03*
X147000000Y-96000000D03*
D10*
X128300000Y-66500000D03*
X128300000Y-69040000D03*
X128300000Y-71580000D03*
X128300000Y-74120000D03*
X128300000Y-76660000D03*
X128300000Y-79200000D03*
X128300000Y-81740000D03*
X128300000Y-84280000D03*
X141000000Y-66500000D03*
X141000000Y-69040000D03*
X141000000Y-71580000D03*
X141000000Y-74120000D03*
X141000000Y-76660000D03*
X141000000Y-79200000D03*
X141000000Y-81740000D03*
X141000000Y-84280000D03*
D11*
X147500000Y-83000000D03*
D12*
X150000000Y-83000000D03*
X152500000Y-83000000D03*
M02*
