%TF.GenerationSoftware,KiCad,Pcbnew,8.0.0*%
%TF.CreationDate,2025-07-10T12:46:30-06:00*%
%TF.ProjectId,Motherboard,4d6f7468-6572-4626-9f61-72642e6b6963,A*%
%TF.SameCoordinates,Original*%
%TF.FileFunction,Copper,L1,Top*%
%TF.FilePolarity,Positive*%
%FSLAX46Y46*%
G04 Gerber Fmt 4.6, Leading zero omitted, Abs format (unit mm)*
G04 Created by KiCad (PCBNEW 8.0.0) date 2025-07-10 12:46:30*
%MOMM*%
%LPD*%
G01*
G04 APERTURE LIST*
G04 Aperture macros list*
%AMRoundRect*
0 Rectangle with rounded corners*
0 $1 Rounding radius*
0 $2 $3 $4 $5 $6 $7 $8 $9 X,Y pos of 4 corners*
0 Add a 4 corners polygon primitive as box body*
4,1,4,$2,$3,$4,$5,$6,$7,$8,$9,$2,$3,0*
0 Add four circle primitives for the rounded corners*
1,1,$1+$1,$2,$3*
1,1,$1+$1,$4,$5*
1,1,$1+$1,$6,$7*
1,1,$1+$1,$8,$9*
0 Add four rect primitives between the rounded corners*
20,1,$1+$1,$2,$3,$4,$5,0*
20,1,$1+$1,$4,$5,$6,$7,0*
20,1,$1+$1,$6,$7,$8,$9,0*
20,1,$1+$1,$8,$9,$2,$3,0*%
G04 Aperture macros list end*
%TA.AperFunction,ComponentPad*%
%ADD10RoundRect,0.250000X-0.725000X0.600000X-0.725000X-0.600000X0.725000X-0.600000X0.725000X0.600000X0*%
%TD*%
%TA.AperFunction,ComponentPad*%
%ADD11O,1.950000X1.700000*%
%TD*%
%TA.AperFunction,ComponentPad*%
%ADD12O,1.700000X1.700000*%
%TD*%
%TA.AperFunction,ComponentPad*%
%ADD13R,1.700000X1.700000*%
%TD*%
%TA.AperFunction,ComponentPad*%
%ADD14RoundRect,0.250000X-0.600000X-0.725000X0.600000X-0.725000X0.600000X0.725000X-0.600000X0.725000X0*%
%TD*%
%TA.AperFunction,ComponentPad*%
%ADD15O,1.700000X1.950000*%
%TD*%
%TA.AperFunction,ComponentPad*%
%ADD16C,1.600000*%
%TD*%
%TA.AperFunction,ComponentPad*%
%ADD17O,1.600000X1.600000*%
%TD*%
%TA.AperFunction,ComponentPad*%
%ADD18C,1.524000*%
%TD*%
%TA.AperFunction,ComponentPad*%
%ADD19RoundRect,0.250000X0.600000X0.725000X-0.600000X0.725000X-0.600000X-0.725000X0.600000X-0.725000X0*%
%TD*%
%TA.AperFunction,ComponentPad*%
%ADD20RoundRect,0.250000X-0.600000X-0.750000X0.600000X-0.750000X0.600000X0.750000X-0.600000X0.750000X0*%
%TD*%
%TA.AperFunction,ComponentPad*%
%ADD21O,1.700000X2.000000*%
%TD*%
%TA.AperFunction,ComponentPad*%
%ADD22R,1.508000X1.508000*%
%TD*%
%TA.AperFunction,ComponentPad*%
%ADD23C,1.508000*%
%TD*%
%TA.AperFunction,ComponentPad*%
%ADD24C,3.516000*%
%TD*%
%TA.AperFunction,ComponentPad*%
%ADD25RoundRect,1.500000X-1.500000X1.500000X-1.500000X-1.500000X1.500000X-1.500000X1.500000X1.500000X0*%
%TD*%
%TA.AperFunction,ComponentPad*%
%ADD26C,6.000000*%
%TD*%
%TA.AperFunction,ComponentPad*%
%ADD27R,2.540000X2.540000*%
%TD*%
%TA.AperFunction,ComponentPad*%
%ADD28C,2.540000*%
%TD*%
%TA.AperFunction,ViaPad*%
%ADD29C,1.200000*%
%TD*%
%TA.AperFunction,ViaPad*%
%ADD30C,0.600000*%
%TD*%
%TA.AperFunction,ViaPad*%
%ADD31C,1.000000*%
%TD*%
%TA.AperFunction,Conductor*%
%ADD32C,1.000000*%
%TD*%
%TA.AperFunction,Conductor*%
%ADD33C,1.500000*%
%TD*%
%TA.AperFunction,Conductor*%
%ADD34C,0.250000*%
%TD*%
%TA.AperFunction,Conductor*%
%ADD35C,2.000000*%
%TD*%
G04 APERTURE END LIST*
D10*
%TO.P,J1,1,5V*%
%TO.N,+5V*%
X215249999Y-98000000D03*
D11*
%TO.P,J1,2,GND*%
%TO.N,GND*%
X215249999Y-100500000D03*
%TO.P,J1,3,3.3V*%
%TO.N,+3.3V*%
X215249999Y-103000000D03*
%TO.P,J1,4,LED*%
%TO.N,LED1*%
X215249999Y-105500000D03*
%TO.P,J1,5,SDA*%
%TO.N,SDA*%
X215249999Y-108000000D03*
%TO.P,J1,6,SCL*%
%TO.N,SCL*%
X215249999Y-110500000D03*
%TO.P,J1,7,ADDR*%
%TO.N,GND*%
X215249999Y-113000000D03*
%TD*%
D10*
%TO.P,J2,1,5V*%
%TO.N,+5V*%
X215249999Y-121500000D03*
D11*
%TO.P,J2,2,GND*%
%TO.N,GND*%
X215249999Y-124000000D03*
%TO.P,J2,3,3.3V*%
%TO.N,+3.3V*%
X215249999Y-126500000D03*
%TO.P,J2,4,LED*%
%TO.N,LED2*%
X215249999Y-129000000D03*
%TO.P,J2,5,SDA*%
%TO.N,SDA*%
X215249999Y-131500000D03*
%TO.P,J2,6,SCL*%
%TO.N,SCL*%
X215249999Y-134000000D03*
%TO.P,J2,7,ADDR*%
%TO.N,+3.3V*%
X215249999Y-136500000D03*
%TD*%
D12*
%TO.P,REF\u002A\u002A,2*%
%TO.N,unconnected-(U2-SCL7-Pad24)*%
X142149999Y-127140000D03*
D13*
%TO.P,REF\u002A\u002A,1*%
%TO.N,unconnected-(U2-SDA7-Pad23)*%
X142149999Y-124600000D03*
%TD*%
D14*
%TO.P,J11,1,24V*%
%TO.N,+24V*%
X117249999Y-93000000D03*
D15*
%TO.P,J11,2,GND*%
%TO.N,GND*%
X119749999Y-93000000D03*
%TO.P,J11,3,3.3V*%
%TO.N,+3.3V*%
X122249999Y-93000000D03*
%TO.P,J11,4,STEP*%
%TO.N,F STEP*%
X124749999Y-93000000D03*
%TO.P,J11,5,DIR*%
%TO.N,F DIR*%
X127249999Y-93000000D03*
%TO.P,J11,6,EN*%
%TO.N,MOT EN*%
X129749999Y-93000000D03*
%TO.P,J11,7,SDA*%
%TO.N,F SDA*%
X132249999Y-93000000D03*
%TO.P,J11,8,SCL*%
%TO.N,F SCL*%
X134749999Y-93000000D03*
%TD*%
D14*
%TO.P,J8,1,24V*%
%TO.N,+24V*%
X117249999Y-74000000D03*
D15*
%TO.P,J8,2,GND*%
%TO.N,GND*%
X119749999Y-74000000D03*
%TO.P,J8,3,3.3V*%
%TO.N,+3.3V*%
X122249999Y-74000000D03*
%TO.P,J8,4,STEP*%
%TO.N,R STEP*%
X124749999Y-74000000D03*
%TO.P,J8,5,DIR*%
%TO.N,R DIR*%
X127249999Y-74000000D03*
%TO.P,J8,6,EN*%
%TO.N,MOT EN*%
X129749999Y-74000000D03*
%TO.P,J8,7,SDA*%
%TO.N,R SDA*%
X132249999Y-74000000D03*
%TO.P,J8,8,SCL*%
%TO.N,R SCL*%
X134749999Y-74000000D03*
%TD*%
D16*
%TO.P,R2,1*%
%TO.N,PWR*%
X130409999Y-159000000D03*
D17*
%TO.P,R2,2*%
%TO.N,GND*%
X120249999Y-159000000D03*
%TD*%
D13*
%TO.P,REF\u002A\u002A,1*%
%TO.N,GND*%
X174249999Y-57000000D03*
D12*
%TO.P,REF\u002A\u002A,2*%
%TO.N,U STEP*%
X174249999Y-59540000D03*
%TO.P,REF\u002A\u002A,3*%
%TO.N,U DIR*%
X174249999Y-62080000D03*
%TO.P,REF\u002A\u002A,4*%
%TO.N,R STEP*%
X174249999Y-64620000D03*
%TO.P,REF\u002A\u002A,5*%
%TO.N,R DIR*%
X174249999Y-67160000D03*
%TO.P,REF\u002A\u002A,6*%
%TO.N,F STEP*%
X174249999Y-69700000D03*
%TO.P,REF\u002A\u002A,7*%
%TO.N,F DIR*%
X174249999Y-72240000D03*
%TO.P,REF\u002A\u002A,8*%
%TO.N,D STEP*%
X174249999Y-74780000D03*
%TO.P,REF\u002A\u002A,9*%
%TO.N,D DIR*%
X174249999Y-77320000D03*
%TO.P,REF\u002A\u002A,10*%
%TO.N,L STEP*%
X174249999Y-79860000D03*
%TO.P,REF\u002A\u002A,11*%
%TO.N,L DIR*%
X174249999Y-82400000D03*
%TO.P,REF\u002A\u002A,12*%
%TO.N,DC*%
X174249999Y-84940000D03*
%TO.P,REF\u002A\u002A,13*%
%TO.N,MOSI*%
X174249999Y-87480000D03*
%TO.P,REF\u002A\u002A,14*%
%TO.N,MISO*%
X174249999Y-90020000D03*
%TO.P,REF\u002A\u002A,15*%
%TO.N,+3.3V*%
X174249999Y-92560000D03*
%TO.P,REF\u002A\u002A,16*%
%TO.N,B STEP*%
X174249999Y-95100000D03*
%TO.P,REF\u002A\u002A,17*%
%TO.N,B DIR*%
X174249999Y-97640000D03*
%TO.P,REF\u002A\u002A,18*%
%TO.N,MOT EN*%
X174249999Y-100180000D03*
%TO.P,REF\u002A\u002A,19*%
%TO.N,unconnected-(A1-A13-Pad27)*%
X174249999Y-102720000D03*
%TO.P,REF\u002A\u002A,20*%
%TO.N,RING STEP*%
X174249999Y-105260000D03*
%TO.P,REF\u002A\u002A,21*%
%TO.N,RING DIR*%
X174249999Y-107800000D03*
%TO.P,REF\u002A\u002A,22*%
%TO.N,MUX RST*%
X174249999Y-110340000D03*
%TO.P,REF\u002A\u002A,23*%
%TO.N,unconnected-(A1-D31-Pad31)*%
X174249999Y-112880000D03*
%TO.P,REF\u002A\u002A,24*%
%TO.N,PWR*%
X174249999Y-115420000D03*
%TD*%
D14*
%TO.P,J9,1,24V*%
%TO.N,+24V*%
X77249999Y-74000000D03*
D15*
%TO.P,J9,2,GND*%
%TO.N,GND*%
X79749999Y-74000000D03*
%TO.P,J9,3,3.3V*%
%TO.N,+3.3V*%
X82249999Y-74000000D03*
%TO.P,J9,4,STEP*%
%TO.N,L STEP*%
X84749999Y-74000000D03*
%TO.P,J9,5,DIR*%
%TO.N,L DIR*%
X87249999Y-74000000D03*
%TO.P,J9,6,EN*%
%TO.N,MOT EN*%
X89749999Y-74000000D03*
%TO.P,J9,7,SDA*%
%TO.N,L SDA*%
X92249999Y-74000000D03*
%TO.P,J9,8,SCL*%
%TO.N,L SCL*%
X94749999Y-74000000D03*
%TD*%
D18*
%TO.P,A1,0,D0*%
%TO.N,U STEP*%
X179519999Y-59564000D03*
%TO.P,A1,1,D1*%
%TO.N,U DIR*%
X179519999Y-62104000D03*
%TO.P,A1,2,D2*%
%TO.N,R STEP*%
X179519999Y-64644000D03*
%TO.P,A1,3,D3*%
%TO.N,R DIR*%
X179519999Y-67184000D03*
%TO.P,A1,3V,3.3V*%
%TO.N,+3.3V*%
X179519999Y-92584000D03*
X194759999Y-62104000D03*
%TO.P,A1,4,D4*%
%TO.N,F STEP*%
X179519999Y-69724000D03*
%TO.P,A1,5,D5*%
%TO.N,F DIR*%
X179519999Y-72264000D03*
%TO.P,A1,5V,VIN*%
%TO.N,+5V*%
X194759999Y-57024000D03*
%TO.P,A1,6,D6*%
%TO.N,D STEP*%
X179519999Y-74804000D03*
%TO.P,A1,7,D7*%
%TO.N,D DIR*%
X179519999Y-77344000D03*
%TO.P,A1,8,D8*%
%TO.N,L STEP*%
X179519999Y-79884000D03*
%TO.P,A1,9,D9*%
%TO.N,L DIR*%
X179519999Y-82424000D03*
%TO.P,A1,10,D10/CS*%
%TO.N,DC*%
X179519999Y-84964000D03*
%TO.P,A1,11,D11/MOSI*%
%TO.N,MOSI*%
X179519999Y-87504000D03*
%TO.P,A1,12,D12/MISO*%
%TO.N,MISO*%
X179519999Y-90044000D03*
%TO.P,A1,13,D13/SCK*%
%TO.N,SCK*%
X194759999Y-90044000D03*
%TO.P,A1,14,A0*%
%TO.N,CS*%
X194759999Y-87504000D03*
%TO.P,A1,15,A1*%
%TO.N,TFT_RESET*%
X194759999Y-84964000D03*
%TO.P,A1,16,A2*%
%TO.N,unconnected-(A1-A2-Pad16)*%
X194759999Y-82424000D03*
%TO.P,A1,17,A3*%
%TO.N,unconnected-(A1-A3-Pad17)*%
X194759999Y-79884000D03*
%TO.P,A1,18,A4/SDA*%
%TO.N,SDA*%
X194759999Y-77344000D03*
%TO.P,A1,19,A5/SCL*%
%TO.N,SCL*%
X194759999Y-74804000D03*
%TO.P,A1,20,A6*%
%TO.N,unconnected-(A1-A6-Pad20)*%
X194759999Y-72264000D03*
%TO.P,A1,21,A7*%
%TO.N,unconnected-(A1-A7-Pad21)*%
X194759999Y-69724000D03*
%TO.P,A1,22,A8*%
%TO.N,BOT SERVO*%
X194759999Y-67184000D03*
%TO.P,A1,23,A9*%
%TO.N,TOP SERVO*%
X194759999Y-64644000D03*
%TO.P,A1,24,A10*%
%TO.N,B STEP*%
X179519999Y-95124000D03*
%TO.P,A1,25,A11*%
%TO.N,B DIR*%
X179519999Y-97664000D03*
%TO.P,A1,26,A12*%
%TO.N,MOT EN*%
X179519999Y-100204000D03*
%TO.P,A1,27,A13*%
%TO.N,unconnected-(A1-A13-Pad27)*%
X179519999Y-102744000D03*
%TO.P,A1,28,D28*%
%TO.N,RING STEP*%
X179519999Y-105284000D03*
%TO.P,A1,29,D29*%
%TO.N,RING DIR*%
X179519999Y-107824000D03*
%TO.P,A1,30,D30*%
%TO.N,MUX RST*%
X179519999Y-110364000D03*
%TO.P,A1,31,D31*%
%TO.N,unconnected-(A1-D31-Pad31)*%
X179519999Y-112904000D03*
%TO.P,A1,32,D32*%
%TO.N,PWR*%
X179519999Y-115444000D03*
%TO.P,A1,33,D33*%
%TO.N,unconnected-(A1-D33-Pad33)*%
X194759999Y-115444000D03*
%TO.P,A1,34,D34*%
%TO.N,unconnected-(A1-D34-Pad34)*%
X194759999Y-112904000D03*
%TO.P,A1,35,D35*%
%TO.N,unconnected-(A1-D35-Pad35)*%
X194759999Y-110364000D03*
%TO.P,A1,36,D36*%
%TO.N,unconnected-(A1-D36-Pad36)*%
X194759999Y-107824000D03*
%TO.P,A1,37,D37*%
%TO.N,unconnected-(A1-D37-Pad37)*%
X194759999Y-105284000D03*
%TO.P,A1,38,A14*%
%TO.N,unconnected-(A1-A14-Pad38)*%
X194759999Y-102744000D03*
%TO.P,A1,39,A15*%
%TO.N,unconnected-(A1-A15-Pad39)*%
X194759999Y-100204000D03*
%TO.P,A1,40,A16*%
%TO.N,LED2*%
X194759999Y-97664000D03*
%TO.P,A1,41,A17*%
%TO.N,LED1*%
X194759999Y-95124000D03*
%TO.P,A1,G,GND*%
%TO.N,GND*%
X179519999Y-57024000D03*
X194759999Y-59564000D03*
X194759999Y-92584000D03*
%TD*%
D15*
%TO.P,J4,3,Signal*%
%TO.N,BOT SERVO*%
X212249999Y-76050000D03*
%TO.P,J4,2,GND*%
%TO.N,GND*%
X214749999Y-76050000D03*
D19*
%TO.P,J4,1,5V*%
%TO.N,+5V*%
X217249999Y-76050000D03*
%TD*%
D15*
%TO.P,J17,4,SCL*%
%TO.N,SCL*%
X210949999Y-87100000D03*
%TO.P,J17,3,SDA*%
%TO.N,SDA*%
X213449999Y-87100000D03*
%TO.P,J17,2,GND*%
%TO.N,GND*%
X215949999Y-87100000D03*
D19*
%TO.P,J17,1,3v3*%
%TO.N,+3.3V*%
X218449999Y-87100000D03*
%TD*%
D13*
%TO.P,REF\u002A\u002A,1*%
%TO.N,+5V*%
X200249999Y-57000000D03*
D12*
%TO.P,REF\u002A\u002A,2*%
%TO.N,GND*%
X200249999Y-59540000D03*
%TO.P,REF\u002A\u002A,3*%
%TO.N,+3.3V*%
X200249999Y-62080000D03*
%TO.P,REF\u002A\u002A,4*%
%TO.N,TOP SERVO*%
X200249999Y-64620000D03*
%TO.P,REF\u002A\u002A,5*%
%TO.N,BOT SERVO*%
X200249999Y-67160000D03*
%TO.P,REF\u002A\u002A,6*%
%TO.N,unconnected-(A1-A7-Pad21)*%
X200249999Y-69700000D03*
%TO.P,REF\u002A\u002A,7*%
%TO.N,unconnected-(A1-A6-Pad20)*%
X200249999Y-72240000D03*
%TO.P,REF\u002A\u002A,8*%
%TO.N,SCL*%
X200249999Y-74780000D03*
%TO.P,REF\u002A\u002A,9*%
%TO.N,SDA*%
X200249999Y-77320000D03*
%TO.P,REF\u002A\u002A,10*%
%TO.N,unconnected-(A1-A3-Pad17)*%
X200249999Y-79860000D03*
%TO.P,REF\u002A\u002A,11*%
%TO.N,unconnected-(A1-A2-Pad16)*%
X200249999Y-82400000D03*
%TO.P,REF\u002A\u002A,12*%
%TO.N,TFT_RESET*%
X200249999Y-84940000D03*
%TO.P,REF\u002A\u002A,13*%
%TO.N,CS*%
X200249999Y-87480000D03*
%TO.P,REF\u002A\u002A,14*%
%TO.N,SCK*%
X200249999Y-90020000D03*
%TO.P,REF\u002A\u002A,15*%
%TO.N,GND*%
X200249999Y-92560000D03*
%TO.P,REF\u002A\u002A,16*%
%TO.N,LED1*%
X200249999Y-95100000D03*
%TO.P,REF\u002A\u002A,17*%
%TO.N,LED2*%
X200249999Y-97640000D03*
%TO.P,REF\u002A\u002A,18*%
%TO.N,unconnected-(A1-A15-Pad39)*%
X200249999Y-100180000D03*
%TO.P,REF\u002A\u002A,19*%
%TO.N,unconnected-(A1-A14-Pad38)*%
X200249999Y-102720000D03*
%TO.P,REF\u002A\u002A,20*%
%TO.N,unconnected-(A1-D37-Pad37)*%
X200249999Y-105260000D03*
%TO.P,REF\u002A\u002A,21*%
%TO.N,unconnected-(A1-D36-Pad36)*%
X200249999Y-107800000D03*
%TO.P,REF\u002A\u002A,22*%
%TO.N,unconnected-(A1-D35-Pad35)*%
X200249999Y-110340000D03*
%TO.P,REF\u002A\u002A,23*%
%TO.N,unconnected-(A1-D34-Pad34)*%
X200249999Y-112880000D03*
%TO.P,REF\u002A\u002A,24*%
%TO.N,unconnected-(A1-D33-Pad33)*%
X200249999Y-115420000D03*
%TD*%
D14*
%TO.P,J5,1,24V*%
%TO.N,+24V*%
X117249999Y-55000000D03*
D15*
%TO.P,J5,2,GND*%
%TO.N,GND*%
X119749999Y-55000000D03*
%TO.P,J5,3,3.3V*%
%TO.N,+3.3V*%
X122249999Y-55000000D03*
%TO.P,J5,4,STEP*%
%TO.N,U STEP*%
X124749999Y-55000000D03*
%TO.P,J5,5,DIR*%
%TO.N,U DIR*%
X127249999Y-55000000D03*
%TO.P,J5,6,EN*%
%TO.N,MOT EN*%
X129749999Y-55000000D03*
%TO.P,J5,7,SDA*%
%TO.N,U SDA*%
X132249999Y-55000000D03*
%TO.P,J5,8,SCL*%
%TO.N,U SCL*%
X134749999Y-55000000D03*
%TD*%
D19*
%TO.P,J13,1,5V*%
%TO.N,+5V*%
X192249999Y-132000000D03*
D15*
%TO.P,J13,2,GND*%
%TO.N,GND*%
X189749999Y-132000000D03*
%TO.P,J13,3,RESET*%
%TO.N,TFT_RESET*%
X187249999Y-132000000D03*
%TO.P,J13,4,CS*%
%TO.N,CS*%
X184749999Y-132000000D03*
%TO.P,J13,5,DC*%
%TO.N,DC*%
X182249999Y-132000000D03*
%TO.P,J13,6,MOSI*%
%TO.N,MOSI*%
X179749999Y-132000000D03*
%TO.P,J13,7,MISO*%
%TO.N,MISO*%
X177249999Y-132000000D03*
%TO.P,J13,8,SCK*%
%TO.N,SCK*%
X174749999Y-132000000D03*
%TD*%
D20*
%TO.P,J15,1,5V*%
%TO.N,+5V*%
X89849999Y-155000000D03*
D21*
%TO.P,J15,2,GND*%
%TO.N,GND*%
X92349999Y-155000000D03*
%TD*%
D14*
%TO.P,J7,1,24V*%
%TO.N,+24V*%
X96249999Y-111000000D03*
D15*
%TO.P,J7,2,GND*%
%TO.N,GND*%
X98749999Y-111000000D03*
%TO.P,J7,3,3.3V*%
%TO.N,+3.3V*%
X101249999Y-111000000D03*
%TO.P,J7,4,STEP*%
%TO.N,RING STEP*%
X103749999Y-111000000D03*
%TO.P,J7,5,DIR*%
%TO.N,RING DIR*%
X106249999Y-111000000D03*
%TO.P,J7,6,EN*%
%TO.N,MOT EN*%
X108749999Y-111000000D03*
%TO.P,J7,7,SDA*%
%TO.N,RING SDA*%
X111249999Y-111000000D03*
%TO.P,J7,8,SCL*%
%TO.N,RING SCL*%
X113749999Y-111000000D03*
%TD*%
D19*
%TO.P,J3,1,5V*%
%TO.N,+5V*%
X217249999Y-64600000D03*
D15*
%TO.P,J3,2,GND*%
%TO.N,GND*%
X214749999Y-64600000D03*
%TO.P,J3,3,Signal*%
%TO.N,TOP SERVO*%
X212249999Y-64600000D03*
%TD*%
D22*
%TO.P,U2,1,VIN*%
%TO.N,+3.3V*%
X162869999Y-128970000D03*
D23*
%TO.P,U2,2,GND*%
%TO.N,GND*%
X162869999Y-126430000D03*
%TO.P,U2,3,SDA*%
%TO.N,SDA*%
X162869999Y-123890000D03*
%TO.P,U2,4,SCL*%
%TO.N,SCL*%
X162869999Y-121350000D03*
%TO.P,U2,5,RST*%
%TO.N,MUX RST*%
X162869999Y-118810000D03*
%TO.P,U2,6,A0*%
%TO.N,GND*%
X162869999Y-116270000D03*
%TO.P,U2,7,A1*%
X162869999Y-113730000D03*
%TO.P,U2,8,A2*%
X162869999Y-111190000D03*
%TO.P,U2,9,SDA0*%
%TO.N,U SCL*%
X162869999Y-108650000D03*
%TO.P,U2,10,SCL0*%
%TO.N,U SDA*%
X162869999Y-106110000D03*
%TO.P,U2,11,SDA1*%
%TO.N,R SCL*%
X162869999Y-103570000D03*
%TO.P,U2,12,SCL1*%
%TO.N,R SDA*%
X162869999Y-101030000D03*
%TO.P,U2,13,SDA2*%
%TO.N,F SCL*%
X147629999Y-101030000D03*
%TO.P,U2,14,SCL2*%
%TO.N,F SDA*%
X147629999Y-103570000D03*
%TO.P,U2,15,SDA3*%
%TO.N,D SCL*%
X147629999Y-106110000D03*
%TO.P,U2,16,SCL3*%
%TO.N,D SDA*%
X147629999Y-108650000D03*
%TO.P,U2,17,SDA4*%
%TO.N,L SCL*%
X147629999Y-111190000D03*
%TO.P,U2,18,SCL4*%
%TO.N,L SDA*%
X147629999Y-113730000D03*
%TO.P,U2,19,SDA5*%
%TO.N,B SCL*%
X147629999Y-116270000D03*
%TO.P,U2,20,SCL5*%
%TO.N,B SDA*%
X147629999Y-118810000D03*
%TO.P,U2,21,SDA6*%
%TO.N,RING SCL*%
X147629999Y-121350000D03*
%TO.P,U2,22,SCL6*%
%TO.N,RING SDA*%
X147629999Y-123890000D03*
%TO.P,U2,23,SDA7*%
%TO.N,unconnected-(U2-SDA7-Pad23)*%
X147629999Y-126430000D03*
%TO.P,U2,24,SCL7*%
%TO.N,unconnected-(U2-SCL7-Pad24)*%
X147629999Y-128970000D03*
D24*
%TO.P,U2,P1*%
%TO.N,N/C*%
X155249999Y-127700000D03*
%TO.P,U2,P2*%
X155249999Y-102300000D03*
%TD*%
D20*
%TO.P,J16,1,5V*%
%TO.N,+5V*%
X105849999Y-155000000D03*
D21*
%TO.P,J16,2,GND*%
%TO.N,GND*%
X108349999Y-155000000D03*
%TD*%
D14*
%TO.P,J6,1,24V*%
%TO.N,+24V*%
X77249999Y-55000000D03*
D15*
%TO.P,J6,2,GND*%
%TO.N,GND*%
X79749999Y-55000000D03*
%TO.P,J6,3,3.3V*%
%TO.N,+3.3V*%
X82249999Y-55000000D03*
%TO.P,J6,4,STEP*%
%TO.N,D STEP*%
X84749999Y-55000000D03*
%TO.P,J6,5,DIR*%
%TO.N,D DIR*%
X87249999Y-55000000D03*
%TO.P,J6,6,EN*%
%TO.N,MOT EN*%
X89749999Y-55000000D03*
%TO.P,J6,7,SDA*%
%TO.N,D SDA*%
X92249999Y-55000000D03*
%TO.P,J6,8,SCL*%
%TO.N,D SCL*%
X94749999Y-55000000D03*
%TD*%
D16*
%TO.P,R1,1*%
%TO.N,+5V*%
X120249999Y-152000000D03*
D17*
%TO.P,R1,2*%
%TO.N,PWR*%
X130409999Y-152000000D03*
%TD*%
D14*
%TO.P,J10,1,24V*%
%TO.N,+24V*%
X77249999Y-93000000D03*
D15*
%TO.P,J10,2,GND*%
%TO.N,GND*%
X79749999Y-93000000D03*
%TO.P,J10,3,3.3V*%
%TO.N,+3.3V*%
X82249999Y-93000000D03*
%TO.P,J10,4,STEP*%
%TO.N,B STEP*%
X84749999Y-93000000D03*
%TO.P,J10,5,DIR*%
%TO.N,B DIR*%
X87249999Y-93000000D03*
%TO.P,J10,6,EN*%
%TO.N,MOT EN*%
X89749999Y-93000000D03*
%TO.P,J10,7,SDA*%
%TO.N,B SDA*%
X92249999Y-93000000D03*
%TO.P,J10,8,SCL*%
%TO.N,B SCL*%
X94749999Y-93000000D03*
%TD*%
D25*
%TO.P,J14,1,Pin_1*%
%TO.N,+24V*%
X81249999Y-129400000D03*
D26*
%TO.P,J14,2,Pin_2*%
%TO.N,GND*%
X81249999Y-136600000D03*
%TD*%
D27*
%TO.P,U1,1,Vin*%
%TO.N,+24V*%
X94609999Y-126220000D03*
D28*
%TO.P,U1,2,GND*%
%TO.N,GND*%
X94609999Y-144000000D03*
%TO.P,U1,3,GND*%
X135249999Y-144000000D03*
%TO.P,U1,4,Vout*%
%TO.N,+5V*%
X135249999Y-126220000D03*
%TD*%
D29*
%TO.N,GND*%
X85499999Y-81250000D03*
X85749999Y-62500000D03*
X146999999Y-59250000D03*
D30*
%TO.N,LED2*%
X216249999Y-138600000D03*
%TO.N,PWR*%
X161449999Y-133400000D03*
D31*
%TO.N,+3.3V*%
X180647259Y-47991260D03*
D30*
%TO.N,MOT EN*%
X129749999Y-65700000D03*
X129749999Y-81900000D03*
D31*
%TO.N,+3.3V*%
X82249999Y-66500000D03*
X82249999Y-86000000D03*
D30*
%TO.N,SCK*%
X183774999Y-123100000D03*
X180724999Y-126000000D03*
%TO.N,D DIR*%
X157749999Y-62125000D03*
%TO.N,D STEP*%
X158249999Y-61500000D03*
%TO.N,L STEP*%
X158249999Y-66000000D03*
%TO.N,L DIR*%
X157749999Y-66625000D03*
%TO.N,MOT EN*%
X89749999Y-84300000D03*
X89749999Y-65200000D03*
%TD*%
D32*
%TO.N,+3.3V*%
X108000000Y-121000000D02*
X101249999Y-114249999D01*
X132957422Y-121000000D02*
X108000000Y-121000000D01*
X142538183Y-130580761D02*
X132957422Y-121000000D01*
X161259238Y-130580761D02*
X142538183Y-130580761D01*
X101249999Y-114249999D02*
X101249999Y-111000000D01*
X162869999Y-128970000D02*
X161259238Y-130580761D01*
%TO.N,+5V*%
X185749999Y-138500000D02*
X192249999Y-132000000D01*
X135249999Y-127249999D02*
X146500000Y-138500000D01*
X146500000Y-138500000D02*
X185749999Y-138500000D01*
X135249999Y-126220000D02*
X135249999Y-127249999D01*
D33*
%TO.N,GND*%
X83249999Y-81250000D02*
X85499999Y-81250000D01*
X79749999Y-77750000D02*
X83249999Y-81250000D01*
X79749999Y-74000000D02*
X79749999Y-77750000D01*
X82499999Y-62500000D02*
X85749999Y-62500000D01*
X79749999Y-59750000D02*
X82499999Y-62500000D01*
X79749999Y-55000000D02*
X79749999Y-59750000D01*
X174249999Y-57000000D02*
X160840810Y-57000000D01*
X160840810Y-57000000D02*
X158590810Y-59250000D01*
X146999999Y-59250000D02*
X123249999Y-59250000D01*
X158590810Y-59250000D02*
X146999999Y-59250000D01*
X123249999Y-59250000D02*
X119749999Y-55750000D01*
X119749999Y-55750000D02*
X119749999Y-55000000D01*
D32*
%TO.N,+3.3V*%
X122249999Y-91500000D02*
X116749999Y-86000000D01*
X116749999Y-86000000D02*
X82249999Y-86000000D01*
X122249999Y-93000000D02*
X122249999Y-91500000D01*
D33*
%TO.N,GND*%
X217474999Y-113000000D02*
X215249999Y-113000000D01*
X220499999Y-109975000D02*
X217474999Y-113000000D01*
X217474999Y-100500000D02*
X220499999Y-103525000D01*
X215249999Y-100500000D02*
X217474999Y-100500000D01*
X220499999Y-103525000D02*
X220499999Y-109975000D01*
D32*
%TO.N,+5V*%
X211249999Y-57000000D02*
X217249999Y-63000000D01*
X217249999Y-63000000D02*
X217249999Y-64600000D01*
X220849999Y-64600000D02*
X225249999Y-69000000D01*
X225249999Y-69000000D02*
X225249999Y-80000000D01*
X217249999Y-64600000D02*
X220849999Y-64600000D01*
X211249999Y-57000000D02*
X200249999Y-57000000D01*
D34*
%TO.N,PWR*%
X130409999Y-152000000D02*
X130409999Y-159000000D01*
D32*
%TO.N,+3.3V*%
X82249999Y-99000000D02*
X82249999Y-93000000D01*
X88849999Y-105600000D02*
X82249999Y-99000000D01*
X97549999Y-105600000D02*
X88849999Y-105600000D01*
X101249999Y-109300000D02*
X97549999Y-105600000D01*
X101249999Y-111000000D02*
X101249999Y-109300000D01*
D33*
%TO.N,GND*%
X98749999Y-139860000D02*
X94609999Y-144000000D01*
X98749999Y-111000000D02*
X98749999Y-139860000D01*
D34*
%TO.N,BOT SERVO*%
X205709999Y-67160000D02*
X200249999Y-67160000D01*
X212249999Y-73700000D02*
X205709999Y-67160000D01*
X212249999Y-76050000D02*
X212249999Y-73700000D01*
%TO.N,TOP SERVO*%
X200269999Y-64600000D02*
X200249999Y-64620000D01*
X212249999Y-64600000D02*
X200269999Y-64600000D01*
%TO.N,LED2*%
X210499999Y-106386396D02*
X210499999Y-103850000D01*
X210499999Y-103850000D02*
X204289999Y-97640000D01*
X211299999Y-137250000D02*
X211299999Y-107186396D01*
X212649999Y-138600000D02*
X211299999Y-137250000D01*
X216249999Y-138600000D02*
X212649999Y-138600000D01*
X211299999Y-107186396D02*
X210499999Y-106386396D01*
X204289999Y-97640000D02*
X200249999Y-97640000D01*
%TO.N,SCL*%
X213349999Y-110500000D02*
X215249999Y-110500000D01*
X211749999Y-112100000D02*
X213349999Y-110500000D01*
X211749999Y-130500000D02*
X211749999Y-112100000D01*
X215249999Y-134000000D02*
X211749999Y-130500000D01*
%TO.N,SDA*%
X211399999Y-106013604D02*
X211399999Y-89150000D01*
X213386395Y-108000000D02*
X211399999Y-106013604D01*
X215249999Y-108000000D02*
X213386395Y-108000000D01*
X211399999Y-89150000D02*
X213449999Y-87100000D01*
%TO.N,SCL*%
X210949999Y-106200000D02*
X210949999Y-87100000D01*
X215249999Y-110500000D02*
X210949999Y-106200000D01*
X211049999Y-87000000D02*
X211049999Y-81600000D01*
X210949999Y-87100000D02*
X211049999Y-87000000D01*
X211049999Y-81600000D02*
X204229999Y-74780000D01*
X204229999Y-74780000D02*
X200249999Y-74780000D01*
%TO.N,PWR*%
X161563999Y-133400000D02*
X161449999Y-133400000D01*
X179519999Y-115444000D02*
X161563999Y-133400000D01*
%TO.N,MOT EN*%
X99249999Y-64500000D02*
X128549999Y-64500000D01*
X128549999Y-64500000D02*
X129749999Y-65700000D01*
X89749999Y-55000000D02*
X99249999Y-64500000D01*
X89749999Y-74000000D02*
X97649999Y-81900000D01*
X97649999Y-81900000D02*
X129749999Y-81900000D01*
%TO.N,MUX RST*%
X165779999Y-118810000D02*
X174249999Y-110340000D01*
X162869999Y-118810000D02*
X165779999Y-118810000D01*
%TO.N,MOT EN*%
X89749999Y-65200000D02*
X89749999Y-55000000D01*
D32*
%TO.N,+3.3V*%
X82349999Y-66600000D02*
X82249999Y-66500000D01*
X114849999Y-66600000D02*
X82349999Y-66600000D01*
X122249999Y-74000000D02*
X114849999Y-66600000D01*
D34*
%TO.N,MOT EN*%
X89749999Y-84300000D02*
X89749999Y-74000000D01*
%TO.N,unconnected-(U2-SCL7-Pad24)*%
X145799999Y-127140000D02*
X147629999Y-128970000D01*
X142149999Y-127140000D02*
X145799999Y-127140000D01*
%TO.N,unconnected-(U2-SDA7-Pad23)*%
X142149999Y-124600000D02*
X145799999Y-124600000D01*
X145799999Y-124600000D02*
X147629999Y-126430000D01*
%TO.N,F DIR*%
X127249999Y-93000000D02*
X127249999Y-90436396D01*
X169909999Y-67900000D02*
X174249999Y-72240000D01*
X127249999Y-90436396D02*
X149786395Y-67900000D01*
X149786395Y-67900000D02*
X169909999Y-67900000D01*
%TO.N,F STEP*%
X172449999Y-69700000D02*
X174249999Y-69700000D01*
X170049999Y-67300000D02*
X172449999Y-69700000D01*
X149749999Y-67300000D02*
X170049999Y-67300000D01*
X124749999Y-92300000D02*
X149749999Y-67300000D01*
X124749999Y-93000000D02*
X124749999Y-92300000D01*
%TO.N,L STEP*%
X84749999Y-74000000D02*
X86749999Y-72000000D01*
X86749999Y-72000000D02*
X112539213Y-72000000D01*
X138249999Y-77500000D02*
X149749999Y-66000000D01*
X118039213Y-77500000D02*
X138249999Y-77500000D01*
X112539213Y-72000000D02*
X118039213Y-77500000D01*
X149749999Y-66000000D02*
X158249999Y-66000000D01*
%TO.N,SCL*%
X194759999Y-74804000D02*
X200225999Y-74804000D01*
X200225999Y-74804000D02*
X200249999Y-74780000D01*
%TO.N,SDA*%
X200225999Y-77344000D02*
X200249999Y-77320000D01*
X194759999Y-77344000D02*
X200225999Y-77344000D01*
%TO.N,CS*%
X194759999Y-87504000D02*
X200225999Y-87504000D01*
X200225999Y-87504000D02*
X200249999Y-87480000D01*
X184749999Y-132000000D02*
X183149999Y-130400000D01*
X183149999Y-122841116D02*
X183999999Y-121991116D01*
X183999999Y-121991116D02*
X183999999Y-89386396D01*
X183149999Y-130400000D02*
X183149999Y-122841116D01*
X183999999Y-89386396D02*
X185882395Y-87504000D01*
X185882395Y-87504000D02*
X194759999Y-87504000D01*
%TO.N,MOSI*%
X182649999Y-89336396D02*
X182649999Y-121431928D01*
X181799999Y-122281928D02*
X181799999Y-129950000D01*
X182649999Y-121431928D02*
X181799999Y-122281928D01*
X180817603Y-87504000D02*
X182649999Y-89336396D01*
X174273999Y-87504000D02*
X174249999Y-87480000D01*
X179519999Y-87504000D02*
X180817603Y-87504000D01*
X179519999Y-87504000D02*
X174273999Y-87504000D01*
X181799999Y-129950000D02*
X179749999Y-132000000D01*
%TO.N,TFT_RESET*%
X185695999Y-87054000D02*
X192669999Y-87054000D01*
X192669999Y-87054000D02*
X194759999Y-84964000D01*
X182699999Y-130663299D02*
X182699999Y-122654720D01*
X183424999Y-131388299D02*
X182699999Y-130663299D01*
X183424999Y-132461701D02*
X183424999Y-131388299D01*
X184263298Y-133300000D02*
X183424999Y-132461701D01*
X183549999Y-89200000D02*
X185695999Y-87054000D01*
X183549999Y-121804720D02*
X183549999Y-89200000D01*
X194759999Y-84964000D02*
X200225999Y-84964000D01*
X182699999Y-122654720D02*
X183549999Y-121804720D01*
X185949999Y-133300000D02*
X184263298Y-133300000D01*
X200225999Y-84964000D02*
X200249999Y-84940000D01*
X187249999Y-132000000D02*
X185949999Y-133300000D01*
%TO.N,MISO*%
X179519999Y-90044000D02*
X181093999Y-90044000D01*
X179495999Y-90020000D02*
X179519999Y-90044000D01*
X181349999Y-122095532D02*
X181349999Y-127900000D01*
X182199999Y-121245532D02*
X181349999Y-122095532D01*
X182199999Y-91150000D02*
X182199999Y-121245532D01*
X181093999Y-90044000D02*
X182199999Y-91150000D01*
X174249999Y-90020000D02*
X179495999Y-90020000D01*
X181349999Y-127900000D02*
X177249999Y-132000000D01*
%TO.N,SCK*%
X192669999Y-87954000D02*
X194759999Y-90044000D01*
X184449999Y-122425000D02*
X184449999Y-89572792D01*
X183774999Y-123100000D02*
X184449999Y-122425000D01*
X180724999Y-126025000D02*
X180724999Y-126000000D01*
X184449999Y-89572792D02*
X186068791Y-87954000D01*
X186068791Y-87954000D02*
X192669999Y-87954000D01*
X174749999Y-132000000D02*
X180724999Y-126025000D01*
X200225999Y-90044000D02*
X200249999Y-90020000D01*
X194759999Y-90044000D02*
X200225999Y-90044000D01*
%TO.N,DC*%
X182249999Y-122468324D02*
X183099999Y-121618324D01*
X182825152Y-131424847D02*
X182249999Y-130849695D01*
X179519999Y-84964000D02*
X179519999Y-85570000D01*
X183099999Y-121618324D02*
X183099999Y-90100000D01*
X179519999Y-85570000D02*
X183099999Y-89150000D01*
X182249999Y-132000000D02*
X182825152Y-131424847D01*
X183099999Y-89150000D02*
X183099999Y-90100000D01*
X179495999Y-84940000D02*
X179519999Y-84964000D01*
X174249999Y-84940000D02*
X179495999Y-84940000D01*
X182249999Y-130849695D02*
X182249999Y-122468324D01*
%TO.N,LED1*%
X194759999Y-95124000D02*
X200225999Y-95124000D01*
X200225999Y-95124000D02*
X200249999Y-95100000D01*
%TO.N,LED2*%
X200225999Y-97664000D02*
X200249999Y-97640000D01*
X194759999Y-97664000D02*
X200225999Y-97664000D01*
%TO.N,U DIR*%
X127249999Y-55000000D02*
X127249999Y-54500000D01*
X179495999Y-62080000D02*
X179519999Y-62104000D01*
X174249999Y-62080000D02*
X179495999Y-62080000D01*
%TO.N,U STEP*%
X174273999Y-59564000D02*
X174249999Y-59540000D01*
X179519999Y-59564000D02*
X174273999Y-59564000D01*
%TO.N,D DIR*%
X98180697Y-53430698D02*
X88819301Y-53430698D01*
X106874999Y-62125000D02*
X98180697Y-53430698D01*
X88819301Y-53430698D02*
X87249999Y-55000000D01*
X179495999Y-77320000D02*
X179519999Y-77344000D01*
X174249999Y-77320000D02*
X179495999Y-77320000D01*
X157749999Y-62125000D02*
X106874999Y-62125000D01*
%TO.N,D STEP*%
X87024999Y-52725000D02*
X84749999Y-55000000D01*
X158249999Y-61500000D02*
X107524999Y-61500000D01*
X174273999Y-74804000D02*
X174249999Y-74780000D01*
X179519999Y-74804000D02*
X174273999Y-74804000D01*
X107524999Y-61500000D02*
X98749999Y-52725000D01*
X98749999Y-52725000D02*
X87024999Y-52725000D01*
%TO.N,RING DIR*%
X106249999Y-111000000D02*
X106249999Y-109136396D01*
X174249999Y-107800000D02*
X179495999Y-107800000D01*
X166253603Y-97900000D02*
X173074999Y-104721396D01*
X173074999Y-106625000D02*
X174249999Y-107800000D01*
X106249999Y-109136396D02*
X117486395Y-97900000D01*
X179495999Y-107800000D02*
X179519999Y-107824000D01*
X117486395Y-97900000D02*
X166253603Y-97900000D01*
X173074999Y-104721396D02*
X173074999Y-106625000D01*
%TO.N,RING STEP*%
X166439999Y-97450000D02*
X174249999Y-105260000D01*
X179495999Y-105260000D02*
X179519999Y-105284000D01*
X117299999Y-97450000D02*
X166439999Y-97450000D01*
X174249999Y-105260000D02*
X179495999Y-105260000D01*
X103749999Y-111000000D02*
X117299999Y-97450000D01*
%TO.N,R DIR*%
X172159999Y-65070000D02*
X174249999Y-67160000D01*
X127249999Y-72136396D02*
X134316395Y-65070000D01*
X134316395Y-65070000D02*
X172159999Y-65070000D01*
X174249999Y-67160000D02*
X179495999Y-67160000D01*
X127249999Y-74000000D02*
X127249999Y-72136396D01*
X179495999Y-67160000D02*
X179519999Y-67184000D01*
%TO.N,R STEP*%
X124749999Y-74000000D02*
X134129999Y-64620000D01*
X134129999Y-64620000D02*
X174249999Y-64620000D01*
X174273999Y-64644000D02*
X174249999Y-64620000D01*
X179519999Y-64644000D02*
X174273999Y-64644000D01*
%TO.N,L STEP*%
X174273999Y-79884000D02*
X174249999Y-79860000D01*
X179519999Y-79884000D02*
X174273999Y-79884000D01*
%TO.N,L DIR*%
X174249999Y-82400000D02*
X179495999Y-82400000D01*
X149786395Y-66600000D02*
X157724999Y-66600000D01*
X179495999Y-82400000D02*
X179519999Y-82424000D01*
X157724999Y-66600000D02*
X157749999Y-66625000D01*
X149786395Y-66600000D02*
X138436395Y-77950000D01*
X112602817Y-72700000D02*
X88549999Y-72700000D01*
X138436395Y-77950000D02*
X117852817Y-77950000D01*
X117852817Y-77950000D02*
X112602817Y-72700000D01*
X88549999Y-72700000D02*
X87249999Y-74000000D01*
%TO.N,B STEP*%
X86624999Y-91000000D02*
X99149999Y-91000000D01*
X84749999Y-93000000D02*
X84749999Y-92875000D01*
X104699999Y-96550000D02*
X172799999Y-96550000D01*
X172799999Y-96550000D02*
X174249999Y-95100000D01*
X99149999Y-91000000D02*
X104699999Y-96550000D01*
X174249999Y-95100000D02*
X179495999Y-95100000D01*
X179495999Y-95100000D02*
X179519999Y-95124000D01*
X84749999Y-92875000D02*
X86624999Y-91000000D01*
%TO.N,B DIR*%
X179495999Y-97640000D02*
X179519999Y-97664000D01*
X88749999Y-91500000D02*
X99013603Y-91500000D01*
X174249999Y-97640000D02*
X179495999Y-97640000D01*
X99013603Y-91500000D02*
X104513603Y-97000000D01*
X173609999Y-97000000D02*
X174249999Y-97640000D01*
X104513603Y-97000000D02*
X173609999Y-97000000D01*
X87249999Y-93000000D02*
X88749999Y-91500000D01*
%TO.N,F DIR*%
X174249999Y-72240000D02*
X179495999Y-72240000D01*
X179495999Y-72240000D02*
X179519999Y-72264000D01*
%TO.N,F STEP*%
X179519999Y-69724000D02*
X174273999Y-69724000D01*
X174273999Y-69724000D02*
X174249999Y-69700000D01*
D33*
%TO.N,GND*%
X194759999Y-92584000D02*
X200225999Y-92584000D01*
X194759999Y-59564000D02*
X200225999Y-59564000D01*
X87209999Y-136600000D02*
X94609999Y-144000000D01*
X200225999Y-92584000D02*
X200249999Y-92560000D01*
X200225999Y-59564000D02*
X200249999Y-59540000D01*
X81249999Y-136600000D02*
X87209999Y-136600000D01*
X174273999Y-57024000D02*
X174249999Y-57000000D01*
X179519999Y-57024000D02*
X174273999Y-57024000D01*
D35*
%TO.N,+24V*%
X80160176Y-70000000D02*
X113249999Y-70000000D01*
X81249999Y-129400000D02*
X73649999Y-129400000D01*
X74249999Y-126000000D02*
X74249999Y-81000000D01*
X113249999Y-70000000D02*
X117249999Y-74000000D01*
X81249999Y-129400000D02*
X77649999Y-129400000D01*
X81249999Y-129400000D02*
X91429999Y-129400000D01*
X77249999Y-125400000D02*
X77249999Y-93000000D01*
X71249999Y-68000000D02*
X77249999Y-62000000D01*
X77249999Y-62000000D02*
X77249999Y-55000000D01*
X77249999Y-74000000D02*
X77249999Y-72910177D01*
X91429999Y-129400000D02*
X94609999Y-126220000D01*
X73649999Y-129400000D02*
X71249999Y-127000000D01*
X74249999Y-81000000D02*
X77249999Y-78000000D01*
X77249999Y-93000000D02*
X77249999Y-91910177D01*
X80160176Y-51000000D02*
X113249999Y-51000000D01*
X77249999Y-78000000D02*
X77249999Y-74000000D01*
X113249999Y-89000000D02*
X117249999Y-93000000D01*
X77249999Y-53910177D02*
X80160176Y-51000000D01*
X77249999Y-91910177D02*
X80160176Y-89000000D01*
X81249999Y-129400000D02*
X77249999Y-125400000D01*
X113249999Y-51000000D02*
X117249999Y-55000000D01*
X81249999Y-126000000D02*
X96249999Y-111000000D01*
X81249999Y-129400000D02*
X81249999Y-126000000D01*
X77249999Y-72910177D02*
X80160176Y-70000000D01*
X77649999Y-129400000D02*
X74249999Y-126000000D01*
X71249999Y-127000000D02*
X71249999Y-68000000D01*
X80160176Y-89000000D02*
X113249999Y-89000000D01*
X77249999Y-55000000D02*
X77249999Y-53910177D01*
D32*
%TO.N,+5V*%
X215249999Y-121500000D02*
X220749999Y-121500000D01*
X225249999Y-126000000D02*
X225249999Y-135000000D01*
X225249999Y-135000000D02*
X220249999Y-140000000D01*
X221299999Y-76050000D02*
X225249999Y-80000000D01*
X215249999Y-98000000D02*
X220249999Y-98000000D01*
X220249999Y-140000000D02*
X200249999Y-140000000D01*
X220249999Y-98000000D02*
X225249999Y-103000000D01*
X115449999Y-156800000D02*
X120249999Y-152000000D01*
X104049999Y-153200000D02*
X105849999Y-155000000D01*
X225249999Y-80000000D02*
X225249999Y-103000000D01*
X200249999Y-140000000D02*
X192249999Y-132000000D01*
X220749999Y-121500000D02*
X225249999Y-126000000D01*
X217249999Y-76050000D02*
X221299999Y-76050000D01*
X135249999Y-126220000D02*
X134629999Y-126220000D01*
X225249999Y-103000000D02*
X225249999Y-126000000D01*
X107249999Y-156800000D02*
X115449999Y-156800000D01*
X105849999Y-155000000D02*
X105849999Y-155400000D01*
X91649999Y-153200000D02*
X104049999Y-153200000D01*
X89849999Y-155000000D02*
X91649999Y-153200000D01*
X194759999Y-57024000D02*
X200225999Y-57024000D01*
X134629999Y-126220000D02*
X105849999Y-155000000D01*
X105849999Y-155400000D02*
X107249999Y-156800000D01*
X200225999Y-57024000D02*
X200249999Y-57000000D01*
D34*
%TO.N,unconnected-(A1-A7-Pad21)*%
X200225999Y-69724000D02*
X200249999Y-69700000D01*
X194759999Y-69724000D02*
X200225999Y-69724000D01*
%TO.N,MUX RST*%
X174249999Y-110340000D02*
X179495999Y-110340000D01*
X179495999Y-110340000D02*
X179519999Y-110364000D01*
%TO.N,unconnected-(A1-A15-Pad39)*%
X200225999Y-100204000D02*
X200249999Y-100180000D01*
X194759999Y-100204000D02*
X200225999Y-100204000D01*
%TO.N,BOT SERVO*%
X200225999Y-67184000D02*
X200249999Y-67160000D01*
X194759999Y-67184000D02*
X200225999Y-67184000D01*
D32*
%TO.N,+3.3V*%
X200225999Y-62104000D02*
X200249999Y-62080000D01*
X174249999Y-92560000D02*
X179495999Y-92560000D01*
X218749999Y-126500000D02*
X215249999Y-126500000D01*
X179495999Y-92560000D02*
X179519999Y-92584000D01*
X194759999Y-62104000D02*
X180647259Y-47991260D01*
X220249999Y-135000000D02*
X220249999Y-128000000D01*
X180647259Y-47991260D02*
X129258739Y-47991260D01*
X218749999Y-136500000D02*
X220249999Y-135000000D01*
X129258739Y-47991260D02*
X122249999Y-55000000D01*
X220249999Y-128000000D02*
X218749999Y-126500000D01*
X194759999Y-62104000D02*
X200225999Y-62104000D01*
X215249999Y-136500000D02*
X218749999Y-136500000D01*
D34*
%TO.N,unconnected-(A1-A13-Pad27)*%
X174249999Y-102720000D02*
X179495999Y-102720000D01*
X179495999Y-102720000D02*
X179519999Y-102744000D01*
%TO.N,unconnected-(A1-D33-Pad33)*%
X200225999Y-115444000D02*
X200249999Y-115420000D01*
X194759999Y-115444000D02*
X200225999Y-115444000D01*
%TO.N,unconnected-(A1-D35-Pad35)*%
X200225999Y-110364000D02*
X200249999Y-110340000D01*
X194759999Y-110364000D02*
X200225999Y-110364000D01*
%TO.N,unconnected-(A1-A2-Pad16)*%
X200225999Y-82424000D02*
X200249999Y-82400000D01*
X194759999Y-82424000D02*
X200225999Y-82424000D01*
%TO.N,unconnected-(A1-D34-Pad34)*%
X194783999Y-112880000D02*
X194759999Y-112904000D01*
X200249999Y-112880000D02*
X194783999Y-112880000D01*
%TO.N,unconnected-(A1-A3-Pad17)*%
X194759999Y-79884000D02*
X200225999Y-79884000D01*
X200225999Y-79884000D02*
X200249999Y-79860000D01*
%TO.N,unconnected-(A1-D31-Pad31)*%
X179495999Y-112880000D02*
X179519999Y-112904000D01*
X174249999Y-112880000D02*
X179495999Y-112880000D01*
%TO.N,MOT EN*%
X174249999Y-100180000D02*
X179495999Y-100180000D01*
X179495999Y-100180000D02*
X179519999Y-100204000D01*
%TO.N,PWR*%
X179495999Y-115420000D02*
X179519999Y-115444000D01*
X174249999Y-115420000D02*
X179495999Y-115420000D01*
%TO.N,unconnected-(A1-D37-Pad37)*%
X194759999Y-105284000D02*
X200225999Y-105284000D01*
X200225999Y-105284000D02*
X200249999Y-105260000D01*
%TO.N,unconnected-(A1-A6-Pad20)*%
X200225999Y-72264000D02*
X200249999Y-72240000D01*
X194759999Y-72264000D02*
X200225999Y-72264000D01*
%TO.N,unconnected-(A1-A14-Pad38)*%
X200225999Y-102744000D02*
X200249999Y-102720000D01*
X194759999Y-102744000D02*
X200225999Y-102744000D01*
%TO.N,unconnected-(A1-D36-Pad36)*%
X200225999Y-107824000D02*
X200249999Y-107800000D01*
X194759999Y-107824000D02*
X200225999Y-107824000D01*
%TO.N,TOP SERVO*%
X194759999Y-64644000D02*
X200225999Y-64644000D01*
X200225999Y-64644000D02*
X200249999Y-64620000D01*
%TD*%
%TA.AperFunction,Conductor*%
%TO.N,+24V*%
G36*
X80328190Y-133041647D02*
G01*
X80299165Y-133105203D01*
X80240387Y-133142977D01*
X80237593Y-133143761D01*
X80155261Y-133165822D01*
X80135848Y-133171024D01*
X79783530Y-133306267D01*
X79447274Y-133477599D01*
X79130775Y-133683135D01*
X78837492Y-133920631D01*
X78837484Y-133920638D01*
X78570637Y-134187485D01*
X78570630Y-134187493D01*
X78333134Y-134480776D01*
X78127598Y-134797275D01*
X77956266Y-135133531D01*
X77821022Y-135485852D01*
X77723346Y-135850385D01*
X77723345Y-135850392D01*
X77664309Y-136223127D01*
X77644558Y-136599999D01*
X77644558Y-136600000D01*
X77664309Y-136976872D01*
X77723345Y-137349607D01*
X77723346Y-137349614D01*
X77821022Y-137714147D01*
X77956266Y-138066468D01*
X78127598Y-138402725D01*
X78333134Y-138719223D01*
X78333136Y-138719225D01*
X78570634Y-139012511D01*
X78837488Y-139279365D01*
X78837492Y-139279368D01*
X79130775Y-139516864D01*
X79172187Y-139543757D01*
X79447278Y-139722403D01*
X79783534Y-139893734D01*
X80135856Y-140028978D01*
X80500386Y-140126653D01*
X80873128Y-140185690D01*
X81229154Y-140204348D01*
X81249998Y-140205441D01*
X81249999Y-140205441D01*
X81250000Y-140205441D01*
X81269751Y-140204405D01*
X81626870Y-140185690D01*
X81999612Y-140126653D01*
X82364142Y-140028978D01*
X82716464Y-139893734D01*
X83052720Y-139722403D01*
X83369224Y-139516863D01*
X83662510Y-139279365D01*
X83929364Y-139012511D01*
X84166862Y-138719225D01*
X84372402Y-138402721D01*
X84543733Y-138066465D01*
X84550808Y-138048032D01*
X84557708Y-138030061D01*
X84600111Y-137974529D01*
X84665805Y-137950737D01*
X84673471Y-137950500D01*
X86599242Y-137950500D01*
X86666281Y-137970185D01*
X86686923Y-137986819D01*
X88513204Y-139813100D01*
X88546689Y-139874423D01*
X88541705Y-139944115D01*
X88502985Y-139997609D01*
X67951961Y-156438430D01*
X67887315Y-156464938D01*
X67818600Y-156452288D01*
X67767633Y-156404496D01*
X67750499Y-156341602D01*
X67750499Y-133000000D01*
X80322202Y-133000000D01*
X80328190Y-133041647D01*
G37*
%TD.AperFunction*%
%TA.AperFunction,Conductor*%
G36*
X97230314Y-133007441D02*
G01*
X97203461Y-133037230D01*
X90819938Y-138144047D01*
X90755292Y-138170555D01*
X90686577Y-138157905D01*
X90654795Y-138134900D01*
X88244443Y-135724549D01*
X88244434Y-135724539D01*
X88240103Y-135720208D01*
X88089791Y-135569896D01*
X88089787Y-135569893D01*
X88089783Y-135569889D01*
X87917819Y-135444951D01*
X87728413Y-135348444D01*
X87728412Y-135348443D01*
X87728411Y-135348443D01*
X87526242Y-135282754D01*
X87526240Y-135282753D01*
X87526239Y-135282753D01*
X87364956Y-135257208D01*
X87316286Y-135249500D01*
X87316285Y-135249500D01*
X84673471Y-135249500D01*
X84606432Y-135229815D01*
X84560677Y-135177011D01*
X84557708Y-135169939D01*
X84543733Y-135133536D01*
X84543733Y-135133535D01*
X84372402Y-134797280D01*
X84166862Y-134480775D01*
X83929364Y-134187489D01*
X83662510Y-133920635D01*
X83369224Y-133683137D01*
X83369222Y-133683135D01*
X83052724Y-133477599D01*
X82716467Y-133306267D01*
X82364149Y-133171024D01*
X82364142Y-133171022D01*
X82262450Y-133143773D01*
X82202792Y-133107410D01*
X82172263Y-133044563D01*
X82177591Y-133000000D01*
X97232499Y-133000000D01*
X97230314Y-133007441D01*
G37*
%TD.AperFunction*%
%TD*%
%TA.AperFunction,Conductor*%
%TO.N,+5V*%
G36*
X219252106Y-45500571D02*
G01*
X219757563Y-45517838D01*
X219765986Y-45518415D01*
X220266993Y-45569920D01*
X220275331Y-45571066D01*
X220771648Y-45656640D01*
X220779937Y-45658362D01*
X221269239Y-45777602D01*
X221277353Y-45779875D01*
X221718972Y-45920039D01*
X221757399Y-45932235D01*
X221765354Y-45935061D01*
X222233905Y-46119835D01*
X222241613Y-46123183D01*
X222696438Y-46339489D01*
X222703931Y-46343370D01*
X223122535Y-46578739D01*
X223142925Y-46590204D01*
X223150159Y-46594603D01*
X223571284Y-46870819D01*
X223578193Y-46875696D01*
X223979473Y-47179997D01*
X223986030Y-47185331D01*
X224365629Y-47516324D01*
X224371800Y-47522088D01*
X224727910Y-47878198D01*
X224733689Y-47884386D01*
X225064658Y-48263958D01*
X225070002Y-48270526D01*
X225374303Y-48671806D01*
X225379186Y-48678723D01*
X225655395Y-49099839D01*
X225659794Y-49107073D01*
X225906622Y-49546055D01*
X225910517Y-49553573D01*
X226126808Y-50008368D01*
X226130170Y-50016107D01*
X226281308Y-50399365D01*
X226314929Y-50484621D01*
X226317764Y-50492599D01*
X226470118Y-50972626D01*
X226472402Y-50980779D01*
X226591636Y-51470061D01*
X226593359Y-51478351D01*
X226678929Y-51974642D01*
X226680082Y-51983030D01*
X226731583Y-52483999D01*
X226732161Y-52492446D01*
X226749427Y-52997861D01*
X226749499Y-53002095D01*
X226749499Y-133997874D01*
X226749427Y-134002108D01*
X226732160Y-134507553D01*
X226731582Y-134516000D01*
X226680081Y-135016969D01*
X226678928Y-135025357D01*
X226593358Y-135521648D01*
X226591635Y-135529938D01*
X226472401Y-136019220D01*
X226470117Y-136027373D01*
X226317763Y-136507400D01*
X226314928Y-136515378D01*
X226222405Y-136750000D01*
X219914918Y-136750000D01*
X221027138Y-135637782D01*
X221119535Y-135499500D01*
X221136630Y-135473916D01*
X221136635Y-135473906D01*
X221212048Y-135291839D01*
X221212050Y-135291835D01*
X221250499Y-135098541D01*
X221250499Y-127901459D01*
X221250499Y-127901456D01*
X221212051Y-127708170D01*
X221212050Y-127708169D01*
X221212050Y-127708165D01*
X221212048Y-127708160D01*
X221136634Y-127526092D01*
X221136627Y-127526079D01*
X221027139Y-127362219D01*
X221027138Y-127362218D01*
X220887781Y-127222861D01*
X220887780Y-127222860D01*
X219534207Y-125869288D01*
X219534205Y-125869285D01*
X219534205Y-125869286D01*
X219527138Y-125862219D01*
X219527138Y-125862218D01*
X219387781Y-125722861D01*
X219387780Y-125722860D01*
X219387779Y-125722859D01*
X219223919Y-125613371D01*
X219223910Y-125613366D01*
X219151314Y-125583296D01*
X219095164Y-125560038D01*
X219041835Y-125537949D01*
X219041831Y-125537948D01*
X219041827Y-125537946D01*
X218945187Y-125518724D01*
X218848543Y-125499500D01*
X218848540Y-125499500D01*
X218373999Y-125499500D01*
X218306960Y-125479815D01*
X218261205Y-125427011D01*
X218249999Y-125375500D01*
X218249999Y-114044836D01*
X218269684Y-113977797D01*
X218286318Y-113957155D01*
X219723498Y-112519975D01*
X221453827Y-110789646D01*
X221569523Y-110630405D01*
X221658883Y-110455026D01*
X221719708Y-110267826D01*
X221737235Y-110157164D01*
X221750499Y-110073422D01*
X221750499Y-103426577D01*
X221726617Y-103275797D01*
X221719708Y-103232174D01*
X221719707Y-103232170D01*
X221719707Y-103232169D01*
X221660390Y-103049612D01*
X221659328Y-103045847D01*
X221569522Y-102869594D01*
X221453827Y-102710354D01*
X218289645Y-99546172D01*
X218286318Y-99542845D01*
X218252833Y-99481522D01*
X218249999Y-99455164D01*
X218249999Y-88699499D01*
X218269684Y-88632460D01*
X218322488Y-88586705D01*
X218373996Y-88575499D01*
X219100007Y-88575499D01*
X219202796Y-88564999D01*
X219369333Y-88509814D01*
X219518655Y-88417712D01*
X219642711Y-88293656D01*
X219734813Y-88144334D01*
X219789998Y-87977797D01*
X219800499Y-87875009D01*
X219800498Y-86324992D01*
X219789998Y-86222203D01*
X219734813Y-86055666D01*
X219642711Y-85906344D01*
X219518655Y-85782288D01*
X219369333Y-85690186D01*
X219202796Y-85635001D01*
X219202794Y-85635000D01*
X219100015Y-85624500D01*
X218373999Y-85624500D01*
X218306960Y-85604815D01*
X218261205Y-85552011D01*
X218249999Y-85500500D01*
X218249999Y-78000000D01*
X218249999Y-77409470D01*
X218318344Y-77367315D01*
X218442314Y-77243345D01*
X218534355Y-77094124D01*
X218534357Y-77094119D01*
X218589504Y-76927697D01*
X218589505Y-76927690D01*
X218599998Y-76824986D01*
X218599999Y-76824973D01*
X218599999Y-76300000D01*
X218249999Y-76300000D01*
X218249999Y-75800000D01*
X218599998Y-75800000D01*
X218599998Y-75275028D01*
X218599997Y-75275013D01*
X218589504Y-75172302D01*
X218534357Y-75005880D01*
X218534355Y-75005875D01*
X218442314Y-74856654D01*
X218318344Y-74732684D01*
X218249999Y-74690528D01*
X218249999Y-65959470D01*
X218318344Y-65917315D01*
X218442314Y-65793345D01*
X218534355Y-65644124D01*
X218534357Y-65644119D01*
X218589504Y-65477697D01*
X218589505Y-65477690D01*
X218599998Y-65374986D01*
X218599999Y-65374973D01*
X218599999Y-64850000D01*
X218249999Y-64850000D01*
X218249999Y-64350000D01*
X218599998Y-64350000D01*
X218599998Y-63825028D01*
X218599997Y-63825013D01*
X218589504Y-63722302D01*
X218534357Y-63555880D01*
X218534355Y-63555875D01*
X218442314Y-63406654D01*
X218318344Y-63282684D01*
X218249999Y-63240528D01*
X218249999Y-57388106D01*
X218422151Y-57428596D01*
X218834302Y-57486088D01*
X219249999Y-57505307D01*
X219665696Y-57486088D01*
X220077847Y-57428596D01*
X220482935Y-57333320D01*
X220877504Y-57201074D01*
X221258187Y-57032985D01*
X221621738Y-56830489D01*
X221965053Y-56595313D01*
X222285205Y-56329462D01*
X222579461Y-56035206D01*
X222845312Y-55715054D01*
X223080488Y-55371739D01*
X223282984Y-55008188D01*
X223451073Y-54627505D01*
X223583319Y-54232936D01*
X223678595Y-53827848D01*
X223736087Y-53415697D01*
X223755306Y-53000000D01*
X223736087Y-52584303D01*
X223678595Y-52172152D01*
X223583319Y-51767064D01*
X223451073Y-51372495D01*
X223282984Y-50991812D01*
X223272297Y-50972626D01*
X223080492Y-50628268D01*
X223080491Y-50628267D01*
X223080488Y-50628261D01*
X222845312Y-50284946D01*
X222845306Y-50284939D01*
X222845302Y-50284933D01*
X222579470Y-49964805D01*
X222579461Y-49964794D01*
X222285205Y-49670538D01*
X222172528Y-49576972D01*
X221965065Y-49404696D01*
X221965055Y-49404689D01*
X221965053Y-49404687D01*
X221621738Y-49169511D01*
X221621734Y-49169509D01*
X221621730Y-49169506D01*
X221258197Y-48967020D01*
X221258176Y-48967010D01*
X220877513Y-48798929D01*
X220482932Y-48666679D01*
X220077852Y-48571405D01*
X220077844Y-48571403D01*
X219665706Y-48513913D01*
X219665701Y-48513912D01*
X219665696Y-48513912D01*
X219249999Y-48494693D01*
X218834302Y-48513912D01*
X218834296Y-48513912D01*
X218834291Y-48513913D01*
X218422153Y-48571403D01*
X218422145Y-48571405D01*
X218249999Y-48611893D01*
X218249999Y-45500500D01*
X219184107Y-45500500D01*
X219247874Y-45500500D01*
X219252106Y-45500571D01*
G37*
%TD.AperFunction*%
%TD*%
%TA.AperFunction,Conductor*%
%TO.N,+5V*%
G36*
X133768553Y-125019685D02*
G01*
X133814308Y-125072489D01*
X133824252Y-125141647D01*
X133798460Y-125201314D01*
X133783456Y-125220127D01*
X133650813Y-125449871D01*
X133553895Y-125696814D01*
X133553889Y-125696833D01*
X133494860Y-125955459D01*
X133494859Y-125955464D01*
X133475036Y-126219995D01*
X133475036Y-126220004D01*
X133494859Y-126484535D01*
X133494860Y-126484540D01*
X133553889Y-126743166D01*
X133553895Y-126743185D01*
X133650813Y-126990128D01*
X133650812Y-126990128D01*
X133783456Y-127219871D01*
X133833641Y-127282803D01*
X134767036Y-126349407D01*
X134784074Y-126412993D01*
X134849900Y-126527007D01*
X134942992Y-126620099D01*
X135057006Y-126685925D01*
X135120589Y-126702962D01*
X134186437Y-127637112D01*
X134362524Y-127757166D01*
X134362525Y-127757167D01*
X134601529Y-127872264D01*
X134601527Y-127872264D01*
X134855024Y-127950458D01*
X134855030Y-127950459D01*
X135117350Y-127989999D01*
X135117357Y-127990000D01*
X135382641Y-127990000D01*
X135382647Y-127989999D01*
X135644967Y-127950459D01*
X135644973Y-127950458D01*
X135898469Y-127872264D01*
X136137478Y-127757164D01*
X136313559Y-127637112D01*
X135379408Y-126702962D01*
X135442992Y-126685925D01*
X135557006Y-126620099D01*
X135650098Y-126527007D01*
X135715924Y-126412993D01*
X135732961Y-126349409D01*
X136666354Y-127282802D01*
X136717568Y-127279927D01*
X136785606Y-127295822D01*
X136807668Y-127311740D01*
X147249998Y-136750000D01*
X147249999Y-136750000D01*
X210550499Y-136750000D01*
X210617538Y-136769685D01*
X210663293Y-136822489D01*
X210674499Y-136874000D01*
X210674499Y-137311611D01*
X210698534Y-137432444D01*
X210698539Y-137432461D01*
X210745684Y-137546280D01*
X210745686Y-137546283D01*
X210745687Y-137546286D01*
X210768732Y-137580775D01*
X210779913Y-137597507D01*
X210779914Y-137597509D01*
X210814140Y-137648733D01*
X210905585Y-137740178D01*
X210905607Y-137740198D01*
X212161015Y-138995606D01*
X212161044Y-138995637D01*
X212251262Y-139085855D01*
X212251266Y-139085858D01*
X212353706Y-139154307D01*
X212353712Y-139154310D01*
X212353713Y-139154311D01*
X212467547Y-139201463D01*
X212497214Y-139207363D01*
X212523979Y-139212688D01*
X212523999Y-139212691D01*
X212524021Y-139212696D01*
X212588390Y-139225499D01*
X212588391Y-139225500D01*
X212588392Y-139225500D01*
X212588393Y-139225500D01*
X215705144Y-139225500D01*
X215771115Y-139244505D01*
X215900477Y-139325789D01*
X216070744Y-139385368D01*
X216070749Y-139385369D01*
X216249995Y-139405565D01*
X216249999Y-139405565D01*
X216250003Y-139405565D01*
X216429248Y-139385369D01*
X216429251Y-139385368D01*
X216429254Y-139385368D01*
X216599521Y-139325789D01*
X216752261Y-139229816D01*
X216879815Y-139102262D01*
X216975788Y-138949522D01*
X217035367Y-138779255D01*
X217040236Y-138736041D01*
X217055564Y-138600003D01*
X217055564Y-138599996D01*
X217035368Y-138420750D01*
X217035367Y-138420745D01*
X216975788Y-138250478D01*
X216879815Y-138097738D01*
X216752261Y-137970184D01*
X216744643Y-137965397D01*
X216599522Y-137874211D01*
X216429253Y-137814631D01*
X216429249Y-137814630D01*
X216256619Y-137795180D01*
X216192205Y-137768113D01*
X216152650Y-137710519D01*
X216150513Y-137640682D01*
X216186471Y-137580775D01*
X216197612Y-137571646D01*
X216232518Y-137546286D01*
X216258734Y-137527240D01*
X216259364Y-137528107D01*
X216318418Y-137501641D01*
X216335199Y-137500500D01*
X218848542Y-137500500D01*
X218932328Y-137483833D01*
X218974222Y-137475500D01*
X219041835Y-137462051D01*
X219113295Y-137432451D01*
X219223913Y-137386632D01*
X219387781Y-137277139D01*
X219527138Y-137137782D01*
X219527138Y-137137780D01*
X219537346Y-137127573D01*
X219537347Y-137127570D01*
X219914919Y-136750000D01*
X226222405Y-136750000D01*
X226130180Y-136983865D01*
X226126807Y-136991631D01*
X225910516Y-137446426D01*
X225906621Y-137453944D01*
X225659793Y-137892926D01*
X225655394Y-137900160D01*
X225379185Y-138321276D01*
X225374302Y-138328193D01*
X225070002Y-138729473D01*
X225064658Y-138736041D01*
X224733688Y-139115612D01*
X224727909Y-139121800D01*
X224371799Y-139477910D01*
X224365611Y-139483690D01*
X223986040Y-139814658D01*
X223979472Y-139820001D01*
X223578192Y-140124302D01*
X223571275Y-140129185D01*
X223150159Y-140405395D01*
X223142925Y-140409794D01*
X222703943Y-140656622D01*
X222696425Y-140660517D01*
X222241642Y-140876802D01*
X222233876Y-140880176D01*
X221765364Y-141064932D01*
X221757386Y-141067767D01*
X221277372Y-141220117D01*
X221269219Y-141222401D01*
X220779937Y-141341635D01*
X220771647Y-141343358D01*
X220275356Y-141428928D01*
X220266968Y-141430081D01*
X219765999Y-141481582D01*
X219757552Y-141482160D01*
X219519615Y-141490288D01*
X219252059Y-141499428D01*
X219247861Y-141499500D01*
X155301362Y-141499500D01*
X155301359Y-141499499D01*
X155249999Y-141499499D01*
X154971721Y-141499499D01*
X154612368Y-141523051D01*
X154416352Y-141535899D01*
X153864565Y-141608543D01*
X153864554Y-141608545D01*
X153318719Y-141717119D01*
X153318679Y-141717129D01*
X152781117Y-141861168D01*
X152781103Y-141861172D01*
X152459095Y-141970480D01*
X152391518Y-141993419D01*
X152351661Y-142000000D01*
X140295578Y-142000000D01*
X140228539Y-141980315D01*
X140215270Y-141970480D01*
X122950966Y-127295822D01*
X120507033Y-125218479D01*
X120468702Y-125160064D01*
X120468038Y-125090198D01*
X120505252Y-125031063D01*
X120568529Y-125001435D01*
X120587342Y-125000000D01*
X133701514Y-125000000D01*
X133768553Y-125019685D01*
G37*
%TD.AperFunction*%
%TD*%
%TA.AperFunction,NonConductor*%
G36*
X213763177Y-136769685D02*
G01*
X213808932Y-136822489D01*
X213814067Y-136835678D01*
X213836437Y-136904523D01*
X213873443Y-137018416D01*
X213969950Y-137207820D01*
X214094889Y-137379786D01*
X214245212Y-137530109D01*
X214397406Y-137640682D01*
X214417183Y-137655051D01*
X214548335Y-137721876D01*
X214583934Y-137740015D01*
X214634730Y-137787990D01*
X214651525Y-137855811D01*
X214628988Y-137921946D01*
X214574272Y-137965397D01*
X214527639Y-137974500D01*
X212960451Y-137974500D01*
X212893412Y-137954815D01*
X212872770Y-137938181D01*
X211961818Y-137027229D01*
X211928333Y-136965906D01*
X211925499Y-136939548D01*
X211925499Y-136874000D01*
X211945184Y-136806961D01*
X211997988Y-136761206D01*
X212049499Y-136750000D01*
X213696138Y-136750000D01*
X213763177Y-136769685D01*
G37*
%TD.AperFunction*%
%TA.AperFunction,Conductor*%
%TO.N,+24V*%
G36*
X78193038Y-45520185D02*
G01*
X78238793Y-45572989D01*
X78249999Y-45624500D01*
X78249999Y-53445722D01*
X78230314Y-53512761D01*
X78177510Y-53558516D01*
X78108352Y-53568460D01*
X78086996Y-53563428D01*
X78002699Y-53535495D01*
X78002689Y-53535493D01*
X77899985Y-53525000D01*
X77499999Y-53525000D01*
X77499999Y-54595854D01*
X77433342Y-54557370D01*
X77312534Y-54525000D01*
X77187464Y-54525000D01*
X77066656Y-54557370D01*
X76999999Y-54595854D01*
X76999999Y-53525000D01*
X76600027Y-53525000D01*
X76600011Y-53525001D01*
X76497301Y-53535494D01*
X76330879Y-53590641D01*
X76330874Y-53590643D01*
X76181653Y-53682684D01*
X76057683Y-53806654D01*
X75965642Y-53955875D01*
X75965640Y-53955880D01*
X75910493Y-54122302D01*
X75910492Y-54122309D01*
X75899999Y-54225013D01*
X75899999Y-54750000D01*
X76845853Y-54750000D01*
X76807369Y-54816657D01*
X76774999Y-54937465D01*
X76774999Y-55062535D01*
X76807369Y-55183343D01*
X76845853Y-55250000D01*
X75900000Y-55250000D01*
X75900000Y-55774986D01*
X75910493Y-55877697D01*
X75965640Y-56044119D01*
X75965642Y-56044124D01*
X76057683Y-56193345D01*
X76181653Y-56317315D01*
X76330874Y-56409356D01*
X76330879Y-56409358D01*
X76497301Y-56464505D01*
X76497308Y-56464506D01*
X76600018Y-56474999D01*
X76999998Y-56474999D01*
X76999999Y-56474998D01*
X76999999Y-55404145D01*
X77066656Y-55442630D01*
X77187464Y-55475000D01*
X77312534Y-55475000D01*
X77433342Y-55442630D01*
X77499999Y-55404145D01*
X77499999Y-56474999D01*
X77899971Y-56474999D01*
X77899985Y-56474998D01*
X78002694Y-56464506D01*
X78086994Y-56436571D01*
X78156822Y-56434169D01*
X78216864Y-56469900D01*
X78248058Y-56532420D01*
X78249999Y-56554277D01*
X78249999Y-72445722D01*
X78230314Y-72512761D01*
X78177510Y-72558516D01*
X78108352Y-72568460D01*
X78086996Y-72563428D01*
X78002699Y-72535495D01*
X78002689Y-72535493D01*
X77899985Y-72525000D01*
X77499999Y-72525000D01*
X77499999Y-73595854D01*
X77433342Y-73557370D01*
X77312534Y-73525000D01*
X77187464Y-73525000D01*
X77066656Y-73557370D01*
X76999999Y-73595854D01*
X76999999Y-72525000D01*
X76600027Y-72525000D01*
X76600011Y-72525001D01*
X76497301Y-72535494D01*
X76330879Y-72590641D01*
X76330874Y-72590643D01*
X76181653Y-72682684D01*
X76057683Y-72806654D01*
X75965642Y-72955875D01*
X75965640Y-72955880D01*
X75910493Y-73122302D01*
X75910492Y-73122309D01*
X75899999Y-73225013D01*
X75899999Y-73750000D01*
X76845853Y-73750000D01*
X76807369Y-73816657D01*
X76774999Y-73937465D01*
X76774999Y-74062535D01*
X76807369Y-74183343D01*
X76845853Y-74250000D01*
X75900000Y-74250000D01*
X75900000Y-74774986D01*
X75910493Y-74877697D01*
X75965640Y-75044119D01*
X75965642Y-75044124D01*
X76057683Y-75193345D01*
X76181653Y-75317315D01*
X76330874Y-75409356D01*
X76330879Y-75409358D01*
X76497301Y-75464505D01*
X76497308Y-75464506D01*
X76600018Y-75474999D01*
X76999998Y-75474999D01*
X76999999Y-75474998D01*
X76999999Y-74404145D01*
X77066656Y-74442630D01*
X77187464Y-74475000D01*
X77312534Y-74475000D01*
X77433342Y-74442630D01*
X77499999Y-74404145D01*
X77499999Y-75474999D01*
X77899971Y-75474999D01*
X77899985Y-75474998D01*
X78002694Y-75464506D01*
X78086994Y-75436571D01*
X78156822Y-75434169D01*
X78216864Y-75469900D01*
X78248058Y-75532420D01*
X78249999Y-75554277D01*
X78249999Y-91445722D01*
X78230314Y-91512761D01*
X78177510Y-91558516D01*
X78108352Y-91568460D01*
X78086996Y-91563428D01*
X78002699Y-91535495D01*
X78002689Y-91535493D01*
X77899985Y-91525000D01*
X77499999Y-91525000D01*
X77499999Y-92595854D01*
X77433342Y-92557370D01*
X77312534Y-92525000D01*
X77187464Y-92525000D01*
X77066656Y-92557370D01*
X76999999Y-92595854D01*
X76999999Y-91525000D01*
X76600027Y-91525000D01*
X76600011Y-91525001D01*
X76497301Y-91535494D01*
X76330879Y-91590641D01*
X76330874Y-91590643D01*
X76181653Y-91682684D01*
X76057683Y-91806654D01*
X75965642Y-91955875D01*
X75965640Y-91955880D01*
X75910493Y-92122302D01*
X75910492Y-92122309D01*
X75899999Y-92225013D01*
X75899999Y-92750000D01*
X76845853Y-92750000D01*
X76807369Y-92816657D01*
X76774999Y-92937465D01*
X76774999Y-93062535D01*
X76807369Y-93183343D01*
X76845853Y-93250000D01*
X75900000Y-93250000D01*
X75900000Y-93774986D01*
X75910493Y-93877697D01*
X75965640Y-94044119D01*
X75965642Y-94044124D01*
X76057683Y-94193345D01*
X76181653Y-94317315D01*
X76330874Y-94409356D01*
X76330879Y-94409358D01*
X76497301Y-94464505D01*
X76497308Y-94464506D01*
X76600018Y-94474999D01*
X76999998Y-94474999D01*
X76999999Y-94474998D01*
X76999999Y-93404145D01*
X77066656Y-93442630D01*
X77187464Y-93475000D01*
X77312534Y-93475000D01*
X77433342Y-93442630D01*
X77499999Y-93404145D01*
X77499999Y-94474999D01*
X77899971Y-94474999D01*
X77899985Y-94474998D01*
X78002694Y-94464506D01*
X78086994Y-94436571D01*
X78156822Y-94434169D01*
X78216864Y-94469900D01*
X78248058Y-94532420D01*
X78249999Y-94554277D01*
X78249999Y-98000000D01*
X90249999Y-109000000D01*
X97125999Y-109000000D01*
X97193038Y-109019685D01*
X97238793Y-109072489D01*
X97249999Y-109124000D01*
X97249999Y-109445722D01*
X97230314Y-109512761D01*
X97177510Y-109558516D01*
X97108352Y-109568460D01*
X97086996Y-109563428D01*
X97002699Y-109535495D01*
X97002689Y-109535493D01*
X96899985Y-109525000D01*
X96499999Y-109525000D01*
X96499999Y-110595854D01*
X96433342Y-110557370D01*
X96312534Y-110525000D01*
X96187464Y-110525000D01*
X96066656Y-110557370D01*
X95999999Y-110595854D01*
X95999999Y-109525000D01*
X95600027Y-109525000D01*
X95600011Y-109525001D01*
X95497301Y-109535494D01*
X95330879Y-109590641D01*
X95330874Y-109590643D01*
X95181653Y-109682684D01*
X95057683Y-109806654D01*
X94965642Y-109955875D01*
X94965640Y-109955880D01*
X94910493Y-110122302D01*
X94910492Y-110122309D01*
X94899999Y-110225013D01*
X94899999Y-110750000D01*
X95845853Y-110750000D01*
X95807369Y-110816657D01*
X95774999Y-110937465D01*
X95774999Y-111062535D01*
X95807369Y-111183343D01*
X95845853Y-111250000D01*
X94900000Y-111250000D01*
X94900000Y-111774986D01*
X94910493Y-111877697D01*
X94965640Y-112044119D01*
X94965642Y-112044124D01*
X95057683Y-112193345D01*
X95181653Y-112317315D01*
X95330874Y-112409356D01*
X95330879Y-112409358D01*
X95497301Y-112464505D01*
X95497308Y-112464506D01*
X95600018Y-112474999D01*
X95999998Y-112474999D01*
X95999999Y-112474998D01*
X95999999Y-111404145D01*
X96066656Y-111442630D01*
X96187464Y-111475000D01*
X96312534Y-111475000D01*
X96433342Y-111442630D01*
X96499999Y-111404145D01*
X96499999Y-112474999D01*
X96899971Y-112474999D01*
X96899985Y-112474998D01*
X97002694Y-112464506D01*
X97086994Y-112436571D01*
X97156822Y-112434169D01*
X97216864Y-112469900D01*
X97248058Y-112532420D01*
X97249999Y-112554277D01*
X97249999Y-132940402D01*
X97232499Y-133000000D01*
X82177591Y-133000000D01*
X82180558Y-132975187D01*
X82225043Y-132921310D01*
X82291595Y-132900035D01*
X82294546Y-132900000D01*
X82821433Y-132900000D01*
X82821435Y-132899999D01*
X83035361Y-132884699D01*
X83314894Y-132823890D01*
X83582957Y-132723908D01*
X83834037Y-132586808D01*
X83834038Y-132586807D01*
X84063064Y-132415360D01*
X84063076Y-132415350D01*
X84265349Y-132213077D01*
X84265359Y-132213065D01*
X84436806Y-131984039D01*
X84436807Y-131984038D01*
X84573907Y-131732958D01*
X84673889Y-131464895D01*
X84734698Y-131185362D01*
X84749998Y-130971436D01*
X84749999Y-130971434D01*
X84749999Y-129650000D01*
X83486501Y-129650000D01*
X83499999Y-129547473D01*
X83499999Y-129252527D01*
X83486501Y-129150000D01*
X84749999Y-129150000D01*
X84749999Y-127828566D01*
X84749998Y-127828563D01*
X84734698Y-127614637D01*
X84717993Y-127537844D01*
X92839999Y-127537844D01*
X92846400Y-127597372D01*
X92846402Y-127597379D01*
X92896644Y-127732086D01*
X92896648Y-127732093D01*
X92982808Y-127847187D01*
X92982811Y-127847190D01*
X93097905Y-127933350D01*
X93097912Y-127933354D01*
X93232619Y-127983596D01*
X93232626Y-127983598D01*
X93292154Y-127989999D01*
X93292171Y-127990000D01*
X94359999Y-127990000D01*
X94359999Y-126653012D01*
X94417006Y-126685925D01*
X94544173Y-126720000D01*
X94675825Y-126720000D01*
X94802992Y-126685925D01*
X94859999Y-126653012D01*
X94859999Y-127990000D01*
X95927827Y-127990000D01*
X95927843Y-127989999D01*
X95987371Y-127983598D01*
X95987378Y-127983596D01*
X96122085Y-127933354D01*
X96122092Y-127933350D01*
X96237186Y-127847190D01*
X96237189Y-127847187D01*
X96323349Y-127732093D01*
X96323353Y-127732086D01*
X96373595Y-127597379D01*
X96373597Y-127597372D01*
X96379998Y-127537844D01*
X96379999Y-127537827D01*
X96379999Y-126470000D01*
X95043011Y-126470000D01*
X95075924Y-126412993D01*
X95109999Y-126285826D01*
X95109999Y-126154174D01*
X95075924Y-126027007D01*
X95043011Y-125970000D01*
X96379999Y-125970000D01*
X96379999Y-124902172D01*
X96379998Y-124902155D01*
X96373597Y-124842627D01*
X96373595Y-124842620D01*
X96323353Y-124707913D01*
X96323349Y-124707906D01*
X96237189Y-124592812D01*
X96237186Y-124592809D01*
X96122092Y-124506649D01*
X96122085Y-124506645D01*
X95987378Y-124456403D01*
X95987371Y-124456401D01*
X95927843Y-124450000D01*
X94859999Y-124450000D01*
X94859999Y-125786988D01*
X94802992Y-125754075D01*
X94675825Y-125720000D01*
X94544173Y-125720000D01*
X94417006Y-125754075D01*
X94359999Y-125786988D01*
X94359999Y-124450000D01*
X93292154Y-124450000D01*
X93232626Y-124456401D01*
X93232619Y-124456403D01*
X93097912Y-124506645D01*
X93097905Y-124506649D01*
X92982811Y-124592809D01*
X92982808Y-124592812D01*
X92896648Y-124707906D01*
X92896644Y-124707913D01*
X92846402Y-124842620D01*
X92846400Y-124842627D01*
X92839999Y-124902155D01*
X92839999Y-125970000D01*
X94176987Y-125970000D01*
X94144074Y-126027007D01*
X94109999Y-126154174D01*
X94109999Y-126285826D01*
X94144074Y-126412993D01*
X94176987Y-126470000D01*
X92839999Y-126470000D01*
X92839999Y-127537844D01*
X84717993Y-127537844D01*
X84673889Y-127335104D01*
X84573907Y-127067041D01*
X84436807Y-126815961D01*
X84436806Y-126815960D01*
X84265359Y-126586934D01*
X84265349Y-126586922D01*
X84063076Y-126384649D01*
X84063064Y-126384639D01*
X83834038Y-126213192D01*
X83834037Y-126213191D01*
X83582956Y-126076091D01*
X83582957Y-126076091D01*
X83314894Y-125976109D01*
X83035361Y-125915300D01*
X82821435Y-125900000D01*
X81499999Y-125900000D01*
X81499999Y-127163497D01*
X81397472Y-127150000D01*
X81102526Y-127150000D01*
X80999999Y-127163497D01*
X80999999Y-125900000D01*
X79678562Y-125900000D01*
X79464636Y-125915300D01*
X79185103Y-125976109D01*
X78917040Y-126076091D01*
X78665960Y-126213191D01*
X78665959Y-126213192D01*
X78436933Y-126384639D01*
X78436921Y-126384649D01*
X78234648Y-126586922D01*
X78234638Y-126586934D01*
X78063191Y-126815960D01*
X78063190Y-126815961D01*
X77926090Y-127067041D01*
X77826108Y-127335104D01*
X77765299Y-127614637D01*
X77749999Y-127828563D01*
X77749999Y-129150000D01*
X79013497Y-129150000D01*
X78999999Y-129252527D01*
X78999999Y-129547473D01*
X79013497Y-129650000D01*
X77749999Y-129650000D01*
X77749999Y-130971436D01*
X77765299Y-131185362D01*
X77826108Y-131464895D01*
X77926090Y-131732958D01*
X78063190Y-131984038D01*
X78063191Y-131984039D01*
X78234638Y-132213065D01*
X78234648Y-132213077D01*
X78436921Y-132415350D01*
X78436933Y-132415360D01*
X78665959Y-132586807D01*
X78665960Y-132586808D01*
X78917041Y-132723908D01*
X78917040Y-132723908D01*
X79185103Y-132823890D01*
X79464636Y-132884699D01*
X79678562Y-132899999D01*
X79678565Y-132900000D01*
X80205452Y-132900000D01*
X80272491Y-132919685D01*
X80318246Y-132972489D01*
X80322202Y-133000000D01*
X67750499Y-133000000D01*
X67750499Y-53002125D01*
X67750571Y-52997892D01*
X67767837Y-52492447D01*
X67768413Y-52484014D01*
X67819919Y-51983001D01*
X67821065Y-51974671D01*
X67906640Y-51478345D01*
X67908362Y-51470061D01*
X68027603Y-50980752D01*
X68029872Y-50972653D01*
X68182236Y-50492592D01*
X68185057Y-50484654D01*
X68369838Y-50016082D01*
X68373177Y-50008395D01*
X68589493Y-49553548D01*
X68593363Y-49546079D01*
X68840211Y-49107061D01*
X68844596Y-49099850D01*
X69120827Y-48678701D01*
X69125679Y-48671827D01*
X69430002Y-48270517D01*
X69435332Y-48263966D01*
X69766323Y-47884370D01*
X69772073Y-47878213D01*
X70128213Y-47522073D01*
X70134354Y-47516337D01*
X70513982Y-47185319D01*
X70520516Y-47180003D01*
X70921826Y-46875680D01*
X70928700Y-46870828D01*
X71349849Y-46594596D01*
X71357060Y-46590211D01*
X71796078Y-46343363D01*
X71803547Y-46339493D01*
X72258375Y-46123187D01*
X72266100Y-46119830D01*
X72734662Y-45935054D01*
X72742581Y-45932240D01*
X73222652Y-45779872D01*
X73230751Y-45777603D01*
X73720067Y-45658360D01*
X73728344Y-45656640D01*
X74224670Y-45571065D01*
X74233000Y-45569919D01*
X74734013Y-45518413D01*
X74742432Y-45517837D01*
X75247862Y-45500571D01*
X75252095Y-45500500D01*
X78125999Y-45500500D01*
X78193038Y-45520185D01*
G37*
%TD.AperFunction*%
%TD*%
%TA.AperFunction,Conductor*%
%TO.N,+5V*%
G36*
X218249999Y-78000000D02*
G01*
X218249998Y-77999997D01*
X218067305Y-77643747D01*
X218054229Y-77575112D01*
X218080336Y-77510303D01*
X218137337Y-77469897D01*
X218138640Y-77469457D01*
X218169121Y-77459356D01*
X218169123Y-77459356D01*
X218249999Y-77409471D01*
X218249999Y-78000000D01*
G37*
%TD.AperFunction*%
%TA.AperFunction,Conductor*%
G36*
X218249999Y-74690527D02*
G01*
X218169127Y-74640645D01*
X218169118Y-74640641D01*
X218002696Y-74585494D01*
X218002689Y-74585493D01*
X217899985Y-74575000D01*
X217373999Y-74575000D01*
X217306960Y-74555315D01*
X217261205Y-74502511D01*
X217249999Y-74451000D01*
X217249999Y-66198999D01*
X217269684Y-66131960D01*
X217322488Y-66086205D01*
X217373999Y-66074999D01*
X217899971Y-66074999D01*
X217899985Y-66074998D01*
X218002696Y-66064505D01*
X218169118Y-66009358D01*
X218169123Y-66009356D01*
X218249999Y-65959471D01*
X218249999Y-74690527D01*
G37*
%TD.AperFunction*%
%TA.AperFunction,Conductor*%
G36*
X218249999Y-48611893D02*
G01*
X218017065Y-48666679D01*
X217622484Y-48798929D01*
X217241821Y-48967010D01*
X217241800Y-48967020D01*
X216878267Y-49169506D01*
X216878261Y-49169510D01*
X216534942Y-49404689D01*
X216534932Y-49404696D01*
X216214804Y-49670528D01*
X216214784Y-49670546D01*
X215920545Y-49964785D01*
X215920527Y-49964805D01*
X215654695Y-50284933D01*
X215654688Y-50284943D01*
X215419509Y-50628262D01*
X215419505Y-50628268D01*
X215217019Y-50991801D01*
X215217009Y-50991822D01*
X215048928Y-51372485D01*
X214916678Y-51767066D01*
X214821404Y-52172146D01*
X214821402Y-52172154D01*
X214763912Y-52584292D01*
X214763911Y-52584297D01*
X214763911Y-52584303D01*
X214744692Y-53000000D01*
X214763911Y-53415697D01*
X214763911Y-53415702D01*
X214763912Y-53415707D01*
X214821402Y-53827845D01*
X214821404Y-53827853D01*
X214916678Y-54232933D01*
X215048928Y-54627514D01*
X215217009Y-55008177D01*
X215217019Y-55008198D01*
X215419505Y-55371731D01*
X215419508Y-55371735D01*
X215419510Y-55371739D01*
X215654686Y-55715054D01*
X215654688Y-55715056D01*
X215654695Y-55715066D01*
X215868266Y-55972259D01*
X215920537Y-56035206D01*
X216214793Y-56329462D01*
X216214804Y-56329471D01*
X216534932Y-56595303D01*
X216534938Y-56595307D01*
X216534945Y-56595313D01*
X216878260Y-56830489D01*
X217241811Y-57032985D01*
X217372930Y-57090880D01*
X217622484Y-57201070D01*
X217622487Y-57201071D01*
X217622494Y-57201074D01*
X218017063Y-57333320D01*
X218249999Y-57388106D01*
X218249999Y-63240527D01*
X218169127Y-63190645D01*
X218169118Y-63190641D01*
X218002696Y-63135494D01*
X218002689Y-63135493D01*
X217899985Y-63125000D01*
X217499999Y-63125000D01*
X217499999Y-64195854D01*
X217433342Y-64157370D01*
X217312534Y-64125000D01*
X217187464Y-64125000D01*
X217066656Y-64157370D01*
X216999999Y-64195854D01*
X216999999Y-63125000D01*
X216600027Y-63125000D01*
X216600011Y-63125001D01*
X216497301Y-63135494D01*
X216330879Y-63190641D01*
X216330874Y-63190643D01*
X216181653Y-63282684D01*
X216057682Y-63406655D01*
X216057679Y-63406659D01*
X215962182Y-63561484D01*
X215910234Y-63608209D01*
X215841272Y-63619430D01*
X215777190Y-63591587D01*
X215768963Y-63584068D01*
X215629785Y-63444890D01*
X215457819Y-63319951D01*
X215268413Y-63223444D01*
X215268412Y-63223443D01*
X215268411Y-63223443D01*
X215066242Y-63157754D01*
X215066240Y-63157753D01*
X215066239Y-63157753D01*
X214904956Y-63132208D01*
X214856286Y-63124500D01*
X214643712Y-63124500D01*
X214596007Y-63132055D01*
X214446254Y-63155774D01*
X214376960Y-63146819D01*
X214338902Y-63120709D01*
X209249999Y-58000000D01*
X201723999Y-58000000D01*
X201656960Y-57980315D01*
X201611205Y-57927511D01*
X201599999Y-57876000D01*
X201599999Y-57250000D01*
X200683011Y-57250000D01*
X200715924Y-57192993D01*
X200749999Y-57065826D01*
X200749999Y-56934174D01*
X200715924Y-56807007D01*
X200683011Y-56750000D01*
X201599999Y-56750000D01*
X201599999Y-56102172D01*
X201599998Y-56102155D01*
X201593597Y-56042627D01*
X201593595Y-56042620D01*
X201543353Y-55907913D01*
X201543349Y-55907906D01*
X201457189Y-55792812D01*
X201457186Y-55792809D01*
X201342092Y-55706649D01*
X201342085Y-55706645D01*
X201207378Y-55656403D01*
X201207371Y-55656401D01*
X201147843Y-55650000D01*
X200499999Y-55650000D01*
X200499999Y-56566988D01*
X200442992Y-56534075D01*
X200315825Y-56500000D01*
X200184173Y-56500000D01*
X200057006Y-56534075D01*
X199999999Y-56566988D01*
X199999999Y-55650000D01*
X199352154Y-55650000D01*
X199292626Y-55656401D01*
X199292619Y-55656403D01*
X199157912Y-55706645D01*
X199157905Y-55706649D01*
X199042811Y-55792809D01*
X199042808Y-55792812D01*
X198956648Y-55907906D01*
X198956644Y-55907913D01*
X198906402Y-56042620D01*
X198906400Y-56042627D01*
X198899999Y-56102155D01*
X198899999Y-56750000D01*
X199816987Y-56750000D01*
X199784074Y-56807007D01*
X199749999Y-56934174D01*
X199749999Y-57065826D01*
X199784074Y-57192993D01*
X199816987Y-57250000D01*
X198899999Y-57250000D01*
X198899999Y-57876000D01*
X198880314Y-57943039D01*
X198827510Y-57988794D01*
X198775999Y-58000000D01*
X195855416Y-58000000D01*
X195788377Y-57980315D01*
X195742622Y-57927511D01*
X195732678Y-57858353D01*
X195753841Y-57804876D01*
X195857098Y-57657409D01*
X195857099Y-57657407D01*
X195950418Y-57457284D01*
X195950423Y-57457270D01*
X196007572Y-57243986D01*
X196007574Y-57243976D01*
X196026820Y-57024000D01*
X196026820Y-57023999D01*
X196007574Y-56804023D01*
X196007572Y-56804013D01*
X195950423Y-56590729D01*
X195950419Y-56590720D01*
X195857095Y-56390586D01*
X195811740Y-56325811D01*
X195811739Y-56325810D01*
X195249493Y-56888056D01*
X195233380Y-56827919D01*
X195166501Y-56712080D01*
X195071919Y-56617498D01*
X194956080Y-56550619D01*
X194895941Y-56534505D01*
X195458187Y-55972259D01*
X195458186Y-55972258D01*
X195393410Y-55926901D01*
X195393404Y-55926898D01*
X195193283Y-55833580D01*
X195193269Y-55833575D01*
X194979985Y-55776426D01*
X194979975Y-55776424D01*
X194760000Y-55757179D01*
X194759998Y-55757179D01*
X194540022Y-55776424D01*
X194540012Y-55776426D01*
X194326728Y-55833575D01*
X194326719Y-55833579D01*
X194126589Y-55926901D01*
X194061810Y-55972258D01*
X194624056Y-56534504D01*
X194563918Y-56550619D01*
X194448079Y-56617498D01*
X194353497Y-56712080D01*
X194286618Y-56827919D01*
X194270503Y-56888057D01*
X193708257Y-56325811D01*
X193662900Y-56390590D01*
X193569578Y-56590720D01*
X193569574Y-56590729D01*
X193512425Y-56804013D01*
X193512423Y-56804023D01*
X193493178Y-57023999D01*
X193493178Y-57024000D01*
X193512423Y-57243976D01*
X193512425Y-57243986D01*
X193569574Y-57457270D01*
X193569579Y-57457284D01*
X193662898Y-57657407D01*
X193662899Y-57657409D01*
X193766157Y-57804876D01*
X193788484Y-57871082D01*
X193771474Y-57938850D01*
X193720526Y-57986663D01*
X193664582Y-58000000D01*
X193304291Y-58000000D01*
X193237252Y-57980315D01*
X193213175Y-57960107D01*
X181904098Y-45708607D01*
X181873091Y-45645994D01*
X181880857Y-45576558D01*
X181924930Y-45522342D01*
X181991318Y-45500561D01*
X181995214Y-45500500D01*
X218249999Y-45500500D01*
X218249999Y-48611893D01*
G37*
%TD.AperFunction*%
%TD*%
M02*
