%TF.GenerationSoftware,KiCad,Pcbnew,8.0.0*%
%TF.CreationDate,2025-07-10T12:46:30-06:00*%
%TF.ProjectId,Motherboard,4d6f7468-6572-4626-9f61-72642e6b6963,A*%
%TF.SameCoordinates,Original*%
%TF.FileFunction,Profile,NP*%
%FSLAX46Y46*%
G04 Gerber Fmt 4.6, Leading zero omitted, Abs format (unit mm)*
G04 Created by KiCad (PCBNEW 8.0.0) date 2025-07-10 12:46:30*
%MOMM*%
%LPD*%
G01*
G04 APERTURE LIST*
%TA.AperFunction,Profile*%
%ADD10C,0.050000*%
%TD*%
G04 APERTURE END LIST*
D10*
X147249999Y-157000000D02*
X147249999Y-150000000D01*
X159249999Y-53000000D02*
G75*
G02*
X151249999Y-53000000I-4000000J0D01*
G01*
X151249999Y-53000000D02*
G75*
G02*
X159249999Y-53000000I4000000J0D01*
G01*
X75249999Y-45000000D02*
X219249999Y-45000000D01*
X147249999Y-157000000D02*
G75*
G02*
X139249999Y-165000000I-8000000J0D01*
G01*
X223249999Y-53000000D02*
G75*
G02*
X215249999Y-53000000I-4000000J0D01*
G01*
X215249999Y-53000000D02*
G75*
G02*
X223249999Y-53000000I4000000J0D01*
G01*
X79249999Y-157000000D02*
G75*
G02*
X71249999Y-157000000I-4000000J0D01*
G01*
X71249999Y-157000000D02*
G75*
G02*
X79249999Y-157000000I4000000J0D01*
G01*
X227249999Y-134000000D02*
X227249999Y-53000000D01*
X227249999Y-134000000D02*
G75*
G02*
X219249999Y-142000000I-8000000J0D01*
G01*
X147249999Y-150000000D02*
G75*
G02*
X155249999Y-142000000I8000000J0D01*
G01*
X219249999Y-142000000D02*
X155249999Y-142000000D01*
X75249999Y-165000000D02*
G75*
G02*
X67249999Y-157000000I0J8000000D01*
G01*
X143249999Y-157000000D02*
G75*
G02*
X135249999Y-157000000I-4000000J0D01*
G01*
X135249999Y-157000000D02*
G75*
G02*
X143249999Y-157000000I4000000J0D01*
G01*
X67249999Y-157000000D02*
X67249999Y-53000000D01*
X219249999Y-45000000D02*
G75*
G02*
X227249999Y-53000000I0J-8000000D01*
G01*
X67249999Y-53000000D02*
G75*
G02*
X75249999Y-45000000I8000000J0D01*
G01*
X75249999Y-165000000D02*
X139249999Y-165000000D01*
M02*
