M48
; DRILL file {KiCad 8.0.0} date 2025-07-10T12:46:35-0600
; FORMAT={-:-/ absolute / metric / decimal}
; #@! TF.CreationDate,2025-07-10T12:46:35-06:00
; #@! TF.GenerationSoftware,Kicad,Pcbnew,8.0.0
; #@! TF.FileFunction,Plated,1,2,PTH
FMAT,2
METRIC
; #@! TA.AperFunction,Plated,PTH,ViaDrill
T1C0.300
; #@! TA.AperFunction,Plated,PTH,ViaDrill
T2C0.500
; #@! TA.AperFunction,Plated,PTH,ViaDrill
T3C0.600
; #@! TA.AperFunction,Plated,PTH,ComponentDrill
T4C0.800
; #@! TA.AperFunction,Plated,PTH,ComponentDrill
T5C0.950
; #@! TA.AperFunction,Plated,PTH,ComponentDrill
T6C1.000
; #@! TA.AperFunction,Plated,PTH,ComponentDrill
T7C1.016
; #@! TA.AperFunction,Plated,PTH,ComponentDrill
T8C2.500
; #@! TA.AperFunction,Plated,PTH,ComponentDrill
T9C4.500
%
G90
G05
T1
X89.75Y-65.2
X89.75Y-84.3
X129.75Y-65.7
X129.75Y-81.9
X157.75Y-62.125
X157.75Y-66.625
X158.25Y-61.5
X158.25Y-66.0
X161.45Y-133.4
X180.725Y-126.0
X183.775Y-123.1
X216.25Y-138.6
T2
X82.25Y-66.5
X82.25Y-86.0
X180.647Y-47.991
T3
X85.5Y-81.25
X85.75Y-62.5
X147.0Y-59.25
T4
X120.25Y-152.0
X120.25Y-159.0
X130.41Y-152.0
X130.41Y-159.0
T5
X77.25Y-55.0
X77.25Y-74.0
X77.25Y-93.0
X79.75Y-55.0
X79.75Y-74.0
X79.75Y-93.0
X82.25Y-55.0
X82.25Y-74.0
X82.25Y-93.0
X84.75Y-55.0
X84.75Y-74.0
X84.75Y-93.0
X87.25Y-55.0
X87.25Y-74.0
X87.25Y-93.0
X89.75Y-55.0
X89.75Y-74.0
X89.75Y-93.0
X92.25Y-55.0
X92.25Y-74.0
X92.25Y-93.0
X94.75Y-55.0
X94.75Y-74.0
X94.75Y-93.0
X96.25Y-111.0
X98.75Y-111.0
X101.25Y-111.0
X103.75Y-111.0
X106.25Y-111.0
X108.75Y-111.0
X111.25Y-111.0
X113.75Y-111.0
X117.25Y-55.0
X117.25Y-74.0
X117.25Y-93.0
X119.75Y-55.0
X119.75Y-74.0
X119.75Y-93.0
X122.25Y-55.0
X122.25Y-74.0
X122.25Y-93.0
X124.75Y-55.0
X124.75Y-74.0
X124.75Y-93.0
X127.25Y-55.0
X127.25Y-74.0
X127.25Y-93.0
X129.75Y-55.0
X129.75Y-74.0
X129.75Y-93.0
X132.25Y-55.0
X132.25Y-74.0
X132.25Y-93.0
X134.75Y-55.0
X134.75Y-74.0
X134.75Y-93.0
X174.75Y-132.0
X177.25Y-132.0
X179.75Y-132.0
X182.25Y-132.0
X184.75Y-132.0
X187.25Y-132.0
X189.75Y-132.0
X192.25Y-132.0
X210.95Y-87.1
X212.25Y-64.6
X212.25Y-76.05
X213.45Y-87.1
X214.75Y-64.6
X214.75Y-76.05
X215.25Y-98.0
X215.25Y-100.5
X215.25Y-103.0
X215.25Y-105.5
X215.25Y-108.0
X215.25Y-110.5
X215.25Y-113.0
X215.25Y-121.5
X215.25Y-124.0
X215.25Y-126.5
X215.25Y-129.0
X215.25Y-131.5
X215.25Y-134.0
X215.25Y-136.5
X215.95Y-87.1
X217.25Y-64.6
X217.25Y-76.05
X218.45Y-87.1
T6
X89.85Y-155.0
X92.35Y-155.0
X94.61Y-126.22
X94.61Y-144.0
X105.85Y-155.0
X108.35Y-155.0
X135.25Y-126.22
X135.25Y-144.0
X142.15Y-124.6
X142.15Y-127.14
X147.63Y-101.03
X147.63Y-103.57
X147.63Y-106.11
X147.63Y-108.65
X147.63Y-111.19
X147.63Y-113.73
X147.63Y-116.27
X147.63Y-118.81
X147.63Y-121.35
X147.63Y-123.89
X147.63Y-126.43
X147.63Y-128.97
X162.87Y-101.03
X162.87Y-103.57
X162.87Y-106.11
X162.87Y-108.65
X162.87Y-111.19
X162.87Y-113.73
X162.87Y-116.27
X162.87Y-118.81
X162.87Y-121.35
X162.87Y-123.89
X162.87Y-126.43
X162.87Y-128.97
X174.25Y-57.0
X174.25Y-59.54
X174.25Y-62.08
X174.25Y-64.62
X174.25Y-67.16
X174.25Y-69.7
X174.25Y-72.24
X174.25Y-74.78
X174.25Y-77.32
X174.25Y-79.86
X174.25Y-82.4
X174.25Y-84.94
X174.25Y-87.48
X174.25Y-90.02
X174.25Y-92.56
X174.25Y-95.1
X174.25Y-97.64
X174.25Y-100.18
X174.25Y-102.72
X174.25Y-105.26
X174.25Y-107.8
X174.25Y-110.34
X174.25Y-112.88
X174.25Y-115.42
X200.25Y-57.0
X200.25Y-59.54
X200.25Y-62.08
X200.25Y-64.62
X200.25Y-67.16
X200.25Y-69.7
X200.25Y-72.24
X200.25Y-74.78
X200.25Y-77.32
X200.25Y-79.86
X200.25Y-82.4
X200.25Y-84.94
X200.25Y-87.48
X200.25Y-90.02
X200.25Y-92.56
X200.25Y-95.1
X200.25Y-97.64
X200.25Y-100.18
X200.25Y-102.72
X200.25Y-105.26
X200.25Y-107.8
X200.25Y-110.34
X200.25Y-112.88
X200.25Y-115.42
T7
X179.52Y-57.024
X179.52Y-59.564
X179.52Y-62.104
X179.52Y-64.644
X179.52Y-67.184
X179.52Y-69.724
X179.52Y-72.264
X179.52Y-74.804
X179.52Y-77.344
X179.52Y-79.884
X179.52Y-82.424
X179.52Y-84.964
X179.52Y-87.504
X179.52Y-90.044
X179.52Y-92.584
X179.52Y-95.124
X179.52Y-97.664
X179.52Y-100.204
X179.52Y-102.744
X179.52Y-105.284
X179.52Y-107.824
X179.52Y-110.364
X179.52Y-112.904
X179.52Y-115.444
X194.76Y-57.024
X194.76Y-59.564
X194.76Y-62.104
X194.76Y-64.644
X194.76Y-67.184
X194.76Y-69.724
X194.76Y-72.264
X194.76Y-74.804
X194.76Y-77.344
X194.76Y-79.884
X194.76Y-82.424
X194.76Y-84.964
X194.76Y-87.504
X194.76Y-90.044
X194.76Y-92.584
X194.76Y-95.124
X194.76Y-97.664
X194.76Y-100.204
X194.76Y-102.744
X194.76Y-105.284
X194.76Y-107.824
X194.76Y-110.364
X194.76Y-112.904
X194.76Y-115.444
T8
X155.25Y-102.3
X155.25Y-127.7
T9
X81.25Y-129.4
X81.25Y-136.6
M30
