0
SECTION
2
HEADER
0
ENDSEC
0
SECTION
2
TABLES
0
TABLE
2
LAYER
0
ENDTAB
0
ENDSEC
0
SECTION
2
ENTITIES
0
LINE
8
0
10
14.7198101
20
-0.9432345
11
15.0043085
21
-0.961465
0
LINE
8
0
10
15.0043085
20
-0.961465
11
15.010101
21
-0.9617286
0
LINE
8
0
10
15.010101
20
-0.9617286
11
15.0274927
21
-0.9620902
0
LINE
8
0
10
15.0274927
20
-0.9620902
11
15.0564845
21
-0.9619056
0
LINE
8
0
10
15.0564845
20
-0.9619056
11
15.0970505
21
-0.9605309
0
LINE
8
0
10
15.0970505
20
-0.9605309
11
15.149138
21
-0.9573234
0
LINE
8
0
10
15.149138
20
-0.9573234
11
15.2126677
21
-0.9516426
0
LINE
8
0
10
15.2126677
20
-0.9516426
11
15.2875334
21
-0.9428515
0
LINE
8
0
10
15.2875334
20
-0.9428515
11
15.3736026
21
-0.930317
0
LINE
8
0
10
15.3736026
20
-0.930317
11
15.4707161
21
-0.9134115
0
LINE
8
0
10
15.4707161
20
-0.9134115
11
15.5786888
21
-0.8915135
0
LINE
8
0
10
15.5786888
20
-0.8915135
11
15.6973095
21
-0.8640084
0
LINE
8
0
10
15.6973095
20
-0.8640084
11
15.8263415
21
-0.8302902
0
LINE
8
0
10
15.8263415
20
-0.8302902
11
15.9655224
21
-0.7897616
0
LINE
8
0
10
15.9655224
20
-0.7897616
11
16.114565
21
-0.7418354
0
LINE
8
0
10
16.114565
20
-0.7418354
11
16.2731572
21
-0.6859354
0
LINE
8
0
10
16.2731572
20
-0.6859354
11
16.4409628
21
-0.6214972
0
LINE
8
0
10
16.4409628
20
-0.6214972
11
16.6176214
21
-0.5479693
0
LINE
8
0
10
16.6176214
20
-0.5479693
11
16.8027494
21
-0.4648136
0
LINE
8
0
10
16.8027494
20
-0.4648136
11
16.9959402
21
-0.3715068
0
LINE
8
0
10
16.9959402
20
-0.3715068
11
16.9959402
21
-0.3715068
0
LINE
8
0
10
16.9959402
20
-0.3715068
11
16.9967499
21
-0.3324061
0
LINE
8
0
10
16.9967499
20
-0.3324061
11
16.9974696
21
-0.2933036
0
LINE
8
0
10
16.9974696
20
-0.2933036
11
16.9980994
21
-0.2541996
0
LINE
8
0
10
16.9980994
20
-0.2541996
11
16.9986392
21
-0.2150942
0
LINE
8
0
10
16.9986392
20
-0.2150942
11
16.999089
21
-0.1759878
0
LINE
8
0
10
16.999089
20
-0.1759878
11
16.9994489
21
-0.1368803
0
LINE
8
0
10
16.9994489
20
-0.1368803
11
16.9997188
21
-0.0977722
0
LINE
8
0
10
16.9997188
20
-0.0977722
11
16.9998988
21
-0.0586635
0
LINE
8
0
10
16.9998988
20
-0.0586635
11
16.9999888
21
-0.0195545
0
LINE
8
0
10
16.9999888
20
-0.0195545
11
16.9999888
21
0.0195545
0
LINE
8
0
10
16.9999888
20
0.0195545
11
16.9998988
21
0.0586635
0
LINE
8
0
10
16.9998988
20
0.0586635
11
16.9997188
21
0.0977722
0
LINE
8
0
10
16.9997188
20
0.0977722
11
16.9994489
21
0.1368803
0
LINE
8
0
10
16.9994489
20
0.1368803
11
16.999089
21
0.1759878
0
LINE
8
0
10
16.999089
20
0.1759878
11
16.9986392
21
0.2150942
0
LINE
8
0
10
16.9986392
20
0.2150942
11
16.9980994
21
0.2541996
0
LINE
8
0
10
16.9980994
20
0.2541996
11
16.9974696
21
0.2933036
0
LINE
8
0
10
16.9974696
20
0.2933036
11
16.9967499
21
0.3324061
0
LINE
8
0
10
16.9967499
20
0.3324061
11
16.9959402
21
0.3715068
0
LINE
8
0
10
16.9959402
20
0.3715068
11
16.9959402
21
0.3715068
0
LINE
8
0
10
16.9959402
20
0.3715068
11
16.8027494
21
0.4648136
0
LINE
8
0
10
16.8027494
20
0.4648136
11
16.6176214
21
0.5479693
0
LINE
8
0
10
16.6176214
20
0.5479693
11
16.4409628
21
0.6214972
0
LINE
8
0
10
16.4409628
20
0.6214972
11
16.2731572
21
0.6859354
0
LINE
8
0
10
16.2731572
20
0.6859354
11
16.114565
21
0.7418354
0
LINE
8
0
10
16.114565
20
0.7418354
11
15.9655224
21
0.7897616
0
LINE
8
0
10
15.9655224
20
0.7897616
11
15.8263415
21
0.8302902
0
LINE
8
0
10
15.8263415
20
0.8302902
11
15.6973095
21
0.8640084
0
LINE
8
0
10
15.6973095
20
0.8640084
11
15.5786888
21
0.8915135
0
LINE
8
0
10
15.5786888
20
0.8915135
11
15.4707161
21
0.9134115
0
LINE
8
0
10
15.4707161
20
0.9134115
11
15.3736026
21
0.930317
0
LINE
8
0
10
15.3736026
20
0.930317
11
15.2875334
21
0.9428515
0
LINE
8
0
10
15.2875334
20
0.9428515
11
15.2126677
21
0.9516426
0
LINE
8
0
10
15.2126677
20
0.9516426
11
15.149138
21
0.9573234
0
LINE
8
0
10
15.149138
20
0.9573234
11
15.0970505
21
0.9605309
0
LINE
8
0
10
15.0970505
20
0.9605309
11
15.0564845
21
0.9619056
0
LINE
8
0
10
15.0564845
20
0.9619056
11
15.0274927
21
0.9620902
0
LINE
8
0
10
15.0274927
20
0.9620902
11
15.010101
21
0.9617286
0
LINE
8
0
10
15.010101
20
0.9617286
11
15.0043085
21
0.961465
0
LINE
8
0
10
15.0043085
20
0.961465
11
14.7198101
21
0.9432345
0
LINE
8
0
10
14.7198101
20
0.9432345
11
14.7198101
21
0.9432345
0
LINE
8
0
10
14.7198101
20
0.9432345
11
14.7163208
21
0.9961933
0
LINE
8
0
10
14.7163208
20
0.9961933
11
14.7126411
21
1.0491392
0
LINE
8
0
10
14.7126411
20
1.0491392
11
14.7087708
21
1.1020714
0
LINE
8
0
10
14.7087708
20
1.1020714
11
14.7047101
21
1.1549894
0
LINE
8
0
10
14.7047101
20
1.1549894
11
14.700459
21
1.2078925
0
LINE
8
0
10
14.700459
20
1.2078925
11
14.6960176
21
1.2607799
0
LINE
8
0
10
14.6960176
20
1.2607799
11
14.6913859
21
1.313651
0
LINE
8
0
10
14.6913859
20
1.313651
11
14.6865641
21
1.3665051
0
LINE
8
0
10
14.6865641
20
1.3665051
11
14.681552
21
1.4193415
0
LINE
8
0
10
14.681552
20
1.4193415
11
14.6763499
21
1.4721595
0
LINE
8
0
10
14.6763499
20
1.4721595
11
14.6709578
21
1.5249584
0
LINE
8
0
10
14.6709578
20
1.5249584
11
14.6653757
21
1.5777377
0
LINE
8
0
10
14.6653757
20
1.5777377
11
14.6596037
21
1.6304964
0
LINE
8
0
10
14.6596037
20
1.6304964
11
14.653642
21
1.6832341
0
LINE
8
0
10
14.653642
20
1.6832341
11
14.6474905
21
1.73595
0
LINE
8
0
10
14.6474905
20
1.73595
11
14.6411494
21
1.7886434
0
LINE
8
0
10
14.6411494
20
1.7886434
11
14.6346187
21
1.8413136
0
LINE
8
0
10
14.6346187
20
1.8413136
11
14.6278985
21
1.8939601
0
LINE
8
0
10
14.6278985
20
1.8939601
11
14.620989
21
1.9465819
0
LINE
8
0
10
14.620989
20
1.9465819
11
14.620989
21
1.9465819
0
LINE
8
0
10
14.620989
20
1.9465819
11
14.9035774
21
1.9842047
0
LINE
8
0
10
14.9035774
20
1.9842047
11
14.9093101
21
1.9850762
0
LINE
8
0
10
14.9093101
20
1.9850762
11
14.9264381
21
1.9881145
0
LINE
8
0
10
14.9264381
20
1.9881145
11
14.9548368
21
1.9939515
0
LINE
8
0
10
14.9548368
20
1.9939515
11
14.9943552
21
2.0032139
0
LINE
8
0
10
14.9943552
20
2.0032139
11
15.0448161
21
2.0165216
0
LINE
8
0
10
15.0448161
20
2.0165216
11
15.1060169
21
2.0344872
0
LINE
8
0
10
15.1060169
20
2.0344872
11
15.177729
21
2.057715
0
LINE
8
0
10
15.177729
20
2.057715
11
15.2596989
21
2.0867998
0
LINE
8
0
10
15.2596989
20
2.0867998
11
15.3516483
21
2.1223264
0
LINE
8
0
10
15.3516483
20
2.1223264
11
15.4532743
21
2.1648681
0
LINE
8
0
10
15.4532743
20
2.1648681
11
15.5642498
21
2.2149864
0
LINE
8
0
10
15.5642498
20
2.2149864
11
15.6842244
21
2.2732296
0
LINE
8
0
10
15.6842244
20
2.2732296
11
15.8128242
21
2.3401324
0
LINE
8
0
10
15.8128242
20
2.3401324
11
15.9496531
21
2.4162144
0
LINE
8
0
10
15.9496531
20
2.4162144
11
16.0942925
21
2.5019801
0
LINE
8
0
10
16.0942925
20
2.5019801
11
16.2463024
21
2.5979174
0
LINE
8
0
10
16.2463024
20
2.5979174
11
16.405222
21
2.7044969
0
LINE
8
0
10
16.405222
20
2.7044969
11
16.5705699
21
2.8221714
0
LINE
8
0
10
16.5705699
20
2.8221714
11
16.7418453
21
2.9513751
0
LINE
8
0
10
16.7418453
20
2.9513751
11
16.7418453
21
2.9513751
0
LINE
8
0
10
16.7418453
20
2.9513751
11
16.7350113
21
2.9898824
0
LINE
8
0
10
16.7350113
20
2.9898824
11
16.7280887
21
3.028374
0
LINE
8
0
10
16.7280887
20
3.028374
11
16.7210775
21
3.0668495
0
LINE
8
0
10
16.7210775
20
3.0668495
11
16.7139779
21
3.1053087
0
LINE
8
0
10
16.7139779
20
3.1053087
11
16.7067898
21
3.1437516
0
LINE
8
0
10
16.7067898
20
3.1437516
11
16.6995133
21
3.1821778
0
LINE
8
0
10
16.6995133
20
3.1821778
11
16.6921484
21
3.2205871
0
LINE
8
0
10
16.6921484
20
3.2205871
11
16.6846952
21
3.2589794
0
LINE
8
0
10
16.6846952
20
3.2589794
11
16.6771536
21
3.2973545
0
LINE
8
0
10
16.6771536
20
3.2973545
11
16.6695238
21
3.3357121
0
LINE
8
0
10
16.6695238
20
3.3357121
11
16.6618058
21
3.374052
0
LINE
8
0
10
16.6618058
20
3.374052
11
16.6539996
21
3.4123741
0
LINE
8
0
10
16.6539996
20
3.4123741
11
16.6461053
21
3.4506782
0
LINE
8
0
10
16.6461053
20
3.4506782
11
16.6381228
21
3.488964
0
LINE
8
0
10
16.6381228
20
3.488964
11
16.6300523
21
3.5272313
0
LINE
8
0
10
16.6300523
20
3.5272313
11
16.6218938
21
3.5654799
0
LINE
8
0
10
16.6218938
20
3.5654799
11
16.6136473
21
3.6037097
0
LINE
8
0
10
16.6136473
20
3.6037097
11
16.6053129
21
3.6419204
0
LINE
8
0
10
16.6053129
20
3.6419204
11
16.5968906
21
3.6801118
0
LINE
8
0
10
16.5968906
20
3.6801118
11
16.5968906
21
3.6801118
0
LINE
8
0
10
16.5968906
20
3.6801118
11
16.3892086
21
3.7339361
0
LINE
8
0
10
16.3892086
20
3.7339361
11
16.1914149
21
3.7793773
0
LINE
8
0
10
16.1914149
20
3.7793773
11
16.0038062
21
3.8170281
0
LINE
8
0
10
16.0038062
20
3.8170281
11
15.8266537
21
3.8474908
0
LINE
8
0
10
15.8266537
20
3.8474908
11
15.6602033
21
3.8713769
0
LINE
8
0
10
15.6602033
20
3.8713769
11
15.5046745
21
3.8893054
0
LINE
8
0
10
15.5046745
20
3.8893054
11
15.3602612
21
3.9019025
0
LINE
8
0
10
15.3602612
20
3.9019025
11
15.2271304
21
3.9097999
0
LINE
8
0
10
15.2271304
20
3.9097999
11
15.105423
21
3.9136347
0
LINE
8
0
10
15.105423
20
3.9136347
11
14.9952528
21
3.9140476
0
LINE
8
0
10
14.9952528
20
3.9140476
11
14.8967073
21
3.9116823
0
LINE
8
0
10
14.8967073
20
3.9116823
11
14.8098466
21
3.9071847
0
LINE
8
0
10
14.8098466
20
3.9071847
11
14.7347043
21
3.9012013
0
LINE
8
0
10
14.7347043
20
3.9012013
11
14.6712871
21
3.8943789
0
LINE
8
0
10
14.6712871
20
3.8943789
11
14.6195746
21
3.887363
0
LINE
8
0
10
14.6195746
20
3.887363
11
14.5795199
21
3.8807973
0
LINE
8
0
10
14.5795199
20
3.8807973
11
14.5510492
21
3.8753223
0
LINE
8
0
10
14.5510492
20
3.8753223
11
14.5340622
21
3.8715747
0
LINE
8
0
10
14.5340622
20
3.8715747
11
14.5284324
21
3.8701861
0
LINE
8
0
10
14.5284324
20
3.8701861
11
14.2529571
21
3.796803
0
LINE
8
0
10
14.2529571
20
3.796803
11
14.2529571
21
3.796803
0
LINE
8
0
10
14.2529571
20
3.796803
11
14.2392032
21
3.8480635
0
LINE
8
0
10
14.2392032
20
3.8480635
11
14.2252649
21
3.8992741
0
LINE
8
0
10
14.2252649
20
3.8992741
11
14.2111424
21
3.9504343
0
LINE
8
0
10
14.2111424
20
3.9504343
11
14.196836
21
4.0015433
0
LINE
8
0
10
14.196836
20
4.0015433
11
14.1823457
21
4.0526005
0
LINE
8
0
10
14.1823457
20
4.0526005
11
14.1676718
21
4.1036052
0
LINE
8
0
10
14.1676718
20
4.1036052
11
14.1528145
21
4.1545568
0
LINE
8
0
10
14.1528145
20
4.1545568
11
14.1377739
21
4.2054546
0
LINE
8
0
10
14.1377739
20
4.2054546
11
14.1225503
21
4.2562979
0
LINE
8
0
10
14.1225503
20
4.2562979
11
14.1071439
21
4.3070862
0
LINE
8
0
10
14.1071439
20
4.3070862
11
14.0915548
21
4.3578187
0
LINE
8
0
10
14.0915548
20
4.3578187
11
14.0757833
21
4.4084947
0
LINE
8
0
10
14.0757833
20
4.4084947
11
14.0598295
21
4.4591137
0
LINE
8
0
10
14.0598295
20
4.4591137
11
14.0436937
21
4.509675
0
LINE
8
0
10
14.0436937
20
4.509675
11
14.027376
21
4.5601778
0
LINE
8
0
10
14.027376
20
4.5601778
11
14.0108768
21
4.6106217
0
LINE
8
0
10
14.0108768
20
4.6106217
11
13.9941961
21
4.6610058
0
LINE
8
0
10
13.9941961
20
4.6610058
11
13.9773343
21
4.7113296
0
LINE
8
0
10
13.9773343
20
4.7113296
11
13.9602915
21
4.7615924
0
LINE
8
0
10
13.9602915
20
4.7615924
11
13.9602915
21
4.7615924
0
LINE
8
0
10
13.9602915
20
4.7615924
11
14.2301103
21
4.8536225
0
LINE
8
0
10
14.2301103
20
4.8536225
11
14.2355627
21
4.8555956
0
LINE
8
0
10
14.2355627
20
4.8555956
11
14.2517689
21
4.861917
0
LINE
8
0
10
14.2517689
20
4.861917
11
14.2784832
21
4.8731823
0
LINE
8
0
10
14.2784832
20
4.8731823
11
14.3154352
21
4.8899763
0
LINE
8
0
10
14.3154352
20
4.8899763
11
14.3623304
21
4.9128727
0
LINE
8
0
10
14.3623304
20
4.9128727
11
14.4188502
21
4.9424328
0
LINE
8
0
10
14.4188502
20
4.9424328
11
14.4846529
21
4.9792046
0
LINE
8
0
10
14.4846529
20
4.9792046
11
14.5593737
21
5.0237221
0
LINE
8
0
10
14.5593737
20
5.0237221
11
14.6426254
21
5.0765045
0
LINE
8
0
10
14.6426254
20
5.0765045
11
14.7339991
21
5.1380551
0
LINE
8
0
10
14.7339991
20
5.1380551
11
14.8330647
21
5.2088606
0
LINE
8
0
10
14.8330647
20
5.2088606
11
14.9393713
21
5.2893906
0
LINE
8
0
10
14.9393713
20
5.2893906
11
15.0524481
21
5.3800964
0
LINE
8
0
10
15.0524481
20
5.3800964
11
15.1718049
21
5.4814105
0
LINE
8
0
10
15.1718049
20
5.4814105
11
15.296933
21
5.593746
0
LINE
8
0
10
15.296933
20
5.593746
11
15.4273057
21
5.7174955
0
LINE
8
0
10
15.4273057
20
5.7174955
11
15.5623791
21
5.8530308
0
LINE
8
0
10
15.5623791
20
5.8530308
11
15.7015927
21
6.000702
0
LINE
8
0
10
15.7015927
20
6.000702
11
15.8443708
21
6.1608372
0
LINE
8
0
10
15.8443708
20
6.1608372
11
15.8443708
21
6.1608372
0
LINE
8
0
10
15.8443708
20
6.1608372
11
15.8301556
21
6.1972714
0
LINE
8
0
10
15.8301556
20
6.1972714
11
15.8158567
21
6.2336728
0
LINE
8
0
10
15.8158567
20
6.2336728
11
15.8014741
21
6.2700412
0
LINE
8
0
10
15.8014741
20
6.2700412
11
15.7870078
21
6.3063764
0
LINE
8
0
10
15.7870078
20
6.3063764
11
15.772458
21
6.3426783
0
LINE
8
0
10
15.772458
20
6.3426783
11
15.7578248
21
6.3789465
0
LINE
8
0
10
15.7578248
20
6.3789465
11
15.7431081
21
6.415181
0
LINE
8
0
10
15.7431081
20
6.415181
11
15.7283081
21
6.4513816
0
LINE
8
0
10
15.7283081
20
6.4513816
11
15.7134249
21
6.487548
0
LINE
8
0
10
15.7134249
20
6.487548
11
15.6984585
21
6.5236801
0
LINE
8
0
10
15.6984585
20
6.5236801
11
15.683409
21
6.5597776
0
LINE
8
0
10
15.683409
20
6.5597776
11
15.6682765
21
6.5958405
0
LINE
8
0
10
15.6682765
20
6.5958405
11
15.6530611
21
6.6318684
0
LINE
8
0
10
15.6530611
20
6.6318684
11
15.6377628
21
6.6678612
0
LINE
8
0
10
15.6377628
20
6.6678612
11
15.6223818
21
6.7038188
0
LINE
8
0
10
15.6223818
20
6.7038188
11
15.6069181
21
6.7397408
0
LINE
8
0
10
15.6069181
20
6.7397408
11
15.5913718
21
6.7756272
0
LINE
8
0
10
15.5913718
20
6.7756272
11
15.575743
21
6.8114777
0
LINE
8
0
10
15.575743
20
6.8114777
11
15.5600318
21
6.8472922
0
LINE
8
0
10
15.5600318
20
6.8472922
11
15.5600318
21
6.8472922
0
LINE
8
0
10
15.5600318
20
6.8472922
11
15.3458398
21
6.8595656
0
LINE
8
0
10
15.3458398
20
6.8595656
11
15.1429815
21
6.865546
0
LINE
8
0
10
15.1429815
20
6.865546
11
14.9516323
21
6.8658727
0
LINE
8
0
10
14.9516323
20
6.8658727
11
14.7719408
21
6.8611894
0
LINE
8
0
10
14.7719408
20
6.8611894
11
14.6040287
21
6.8521436
0
LINE
8
0
10
14.6040287
20
6.8521436
11
14.4479907
21
6.8393855
0
LINE
8
0
10
14.4479907
20
6.8393855
11
14.3038947
21
6.8235668
0
LINE
8
0
10
14.3038947
20
6.8235668
11
14.1717813
21
6.80534
0
LINE
8
0
10
14.1717813
20
6.80534
11
14.0516643
21
6.7853571
0
LINE
8
0
10
14.0516643
20
6.7853571
11
13.9435305
21
6.7642689
0
LINE
8
0
10
13.9435305
20
6.7642689
11
13.8473398
21
6.7427239
0
LINE
8
0
10
13.8473398
20
6.7427239
11
13.7630256
21
6.721367
0
LINE
8
0
10
13.7630256
20
6.721367
11
13.6904945
21
6.700839
0
LINE
8
0
10
13.6904945
20
6.700839
11
13.6296268
21
6.6817756
0
LINE
8
0
10
13.6296268
20
6.6817756
11
13.5802767
21
6.6648059
0
LINE
8
0
10
13.5802767
20
6.6648059
11
13.5422725
21
6.6505521
0
LINE
8
0
10
13.5422725
20
6.6505521
11
13.515417
21
6.6396279
0
LINE
8
0
10
13.515417
20
6.6396279
11
13.4994875
21
6.6326383
0
LINE
8
0
10
13.4994875
20
6.6326383
11
13.4942368
21
6.6301781
0
LINE
8
0
10
13.4942368
20
6.6301781
11
13.238371
21
6.5044625
0
LINE
8
0
10
13.238371
20
6.5044625
11
13.238371
21
6.5044625
0
LINE
8
0
10
13.238371
20
6.5044625
11
13.2148809
21
6.5520548
0
LINE
8
0
10
13.2148809
20
6.5520548
11
13.1912198
21
6.5995622
0
LINE
8
0
10
13.1912198
20
6.5995622
11
13.1673878
21
6.6469841
0
LINE
8
0
10
13.1673878
20
6.6469841
11
13.1433854
21
6.69432
0
LINE
8
0
10
13.1433854
20
6.69432
11
13.1192128
21
6.7415693
0
LINE
8
0
10
13.1192128
20
6.7415693
11
13.0948703
21
6.7887312
0
LINE
8
0
10
13.0948703
20
6.7887312
11
13.0703583
21
6.8358053
0
LINE
8
0
10
13.0703583
20
6.8358053
11
13.0456771
21
6.8827908
0
LINE
8
0
10
13.0456771
20
6.8827908
11
13.020827
21
6.9296873
0
LINE
8
0
10
13.020827
20
6.9296873
11
12.9958082
21
6.976494
0
LINE
8
0
10
12.9958082
20
6.976494
11
12.9706213
21
7.0232104
0
LINE
8
0
10
12.9706213
20
7.0232104
11
12.9452664
21
7.0698358
0
LINE
8
0
10
12.9452664
20
7.0698358
11
12.9197439
21
7.1163698
0
LINE
8
0
10
12.9197439
20
7.1163698
11
12.8940541
21
7.1628115
0
LINE
8
0
10
12.8940541
20
7.1628115
11
12.8681974
21
7.2091606
0
LINE
8
0
10
12.8681974
20
7.2091606
11
12.842174
21
7.2554163
0
LINE
8
0
10
12.842174
20
7.2554163
11
12.8159844
21
7.3015781
0
LINE
8
0
10
12.8159844
20
7.3015781
11
12.7896289
21
7.3476453
0
LINE
8
0
10
12.7896289
20
7.3476453
11
12.7631078
21
7.3936175
0
LINE
8
0
10
12.7631078
20
7.3936175
11
12.7631078
21
7.3936175
0
LINE
8
0
10
12.7631078
20
7.3936175
11
13.0097879
21
7.5365183
0
LINE
8
0
10
13.0097879
20
7.5365183
11
13.0147507
21
7.5395172
0
LINE
8
0
10
13.0147507
20
7.5395172
11
13.0294122
21
7.5488789
0
LINE
8
0
10
13.0294122
20
7.5488789
11
13.0534154
21
7.5651393
0
LINE
8
0
10
13.0534154
20
7.5651393
11
13.0863811
21
7.5888196
0
LINE
8
0
10
13.0863811
20
7.5888196
11
13.1279083
21
7.6204249
0
LINE
8
0
10
13.1279083
20
7.6204249
11
13.1775752
21
7.6604434
0
LINE
8
0
10
13.1775752
20
7.6604434
11
13.2349397
21
7.7093462
0
LINE
8
0
10
13.2349397
20
7.7093462
11
13.2995398
21
7.7675856
0
LINE
8
0
10
13.2995398
20
7.7675856
11
13.3708945
21
7.8355954
0
LINE
8
0
10
13.3708945
20
7.8355954
11
13.4485047
21
7.9137894
0
LINE
8
0
10
13.4485047
20
7.9137894
11
13.5318532
21
8.0025612
0
LINE
8
0
10
13.5318532
20
8.0025612
11
13.6204065
21
8.1022832
0
LINE
8
0
10
13.6204065
20
8.1022832
11
13.7136148
21
8.2133063
0
LINE
8
0
10
13.7136148
20
8.2133063
11
13.8109128
21
8.3359591
0
LINE
8
0
10
13.8109128
20
8.3359591
11
13.911721
21
8.4705473
0
LINE
8
0
10
13.911721
20
8.4705473
11
14.0154463
21
8.6173535
0
LINE
8
0
10
14.0154463
20
8.6173535
11
14.1214826
21
8.776636
0
LINE
8
0
10
14.1214826
20
8.776636
11
14.2292121
21
8.948629
0
LINE
8
0
10
14.2292121
20
8.948629
11
14.3380059
21
9.1335419
0
LINE
8
0
10
14.3380059
20
9.1335419
11
14.3380059
21
9.1335419
0
LINE
8
0
10
14.3380059
20
9.1335419
11
14.3169559
21
9.1665027
0
LINE
8
0
10
14.3169559
20
9.1665027
11
14.2958302
21
9.1994151
0
LINE
8
0
10
14.2958302
20
9.1994151
11
14.2746288
21
9.2322788
0
LINE
8
0
10
14.2746288
20
9.2322788
11
14.2533519
21
9.2650936
0
LINE
8
0
10
14.2533519
20
9.2650936
11
14.2319995
21
9.2978594
0
LINE
8
0
10
14.2319995
20
9.2978594
11
14.2105718
21
9.330576
0
LINE
8
0
10
14.2105718
20
9.330576
11
14.1890689
21
9.3632432
0
LINE
8
0
10
14.1890689
20
9.3632432
11
14.167491
21
9.3958608
0
LINE
8
0
10
14.167491
20
9.3958608
11
14.145838
21
9.4284287
0
LINE
8
0
10
14.145838
20
9.4284287
11
14.1241101
21
9.4609467
0
LINE
8
0
10
14.1241101
20
9.4609467
11
14.1023075
21
9.4934147
0
LINE
8
0
10
14.1023075
20
9.4934147
11
14.0804303
21
9.5258324
0
LINE
8
0
10
14.0804303
20
9.5258324
11
14.0584786
21
9.5581996
0
LINE
8
0
10
14.0584786
20
9.5581996
11
14.0364524
21
9.5905163
0
LINE
8
0
10
14.0364524
20
9.5905163
11
14.014352
21
9.6227823
0
LINE
8
0
10
14.014352
20
9.6227823
11
13.9921774
21
9.6549973
0
LINE
8
0
10
13.9921774
20
9.6549973
11
13.9699287
21
9.6871612
0
LINE
8
0
10
13.9699287
20
9.6871612
11
13.9476061
21
9.7192738
0
LINE
8
0
10
13.9476061
20
9.7192738
11
13.9252097
21
9.751335
0
LINE
8
0
10
13.9252097
20
9.751335
11
13.9252097
21
9.751335
0
LINE
8
0
10
13.9252097
20
9.751335
11
13.7127389
21
9.7215858
0
LINE
8
0
10
13.7127389
20
9.7215858
11
13.5126118
21
9.6878756
0
LINE
8
0
10
13.5126118
20
9.6878756
11
13.3248756
21
9.6508656
0
LINE
8
0
10
13.3248756
20
9.6508656
11
13.1495505
21
9.6112162
0
LINE
8
0
10
13.1495505
20
9.6112162
11
12.9866295
21
9.5695862
0
LINE
8
0
10
12.9866295
20
9.5695862
11
12.8360787
21
9.5266318
0
LINE
8
0
10
12.8360787
20
9.5266318
11
12.6978375
21
9.4830053
0
LINE
8
0
10
12.6978375
20
9.4830053
11
12.5718185
21
9.4393547
0
LINE
8
0
10
12.5718185
20
9.4393547
11
12.457908
21
9.3963221
0
LINE
8
0
10
12.457908
20
9.3963221
11
12.355966
21
9.3545433
0
LINE
8
0
10
12.355966
20
9.3545433
11
12.2658269
21
9.3146463
0
LINE
8
0
10
12.2658269
20
9.3146463
11
12.1872993
21
9.2772509
0
LINE
8
0
10
12.1872993
20
9.2772509
11
12.1201666
21
9.2429673
0
LINE
8
0
10
12.1201666
20
9.2429673
11
12.0641876
21
9.2123954
0
LINE
8
0
10
12.0641876
20
9.2123954
11
12.0190963
21
9.1861241
0
LINE
8
0
10
12.0190963
20
9.1861241
11
11.9846032
21
9.1647299
0
LINE
8
0
10
11.9846032
20
9.1647299
11
11.9603949
21
9.1487764
0
LINE
8
0
10
11.9603949
20
9.1487764
11
11.9461351
21
9.1388134
0
LINE
8
0
10
11.9461351
20
9.1388134
11
11.9414653
21
9.1353761
0
LINE
8
0
10
11.9414653
20
9.1353761
11
11.7150417
21
8.9621592
0
LINE
8
0
10
11.7150417
20
8.9621592
11
11.7150417
21
8.9621592
0
LINE
8
0
10
11.7150417
20
8.9621592
11
11.6827182
21
9.0042542
0
LINE
8
0
10
11.6827182
20
9.0042542
11
11.6502435
21
9.0462327
0
LINE
8
0
10
11.6502435
20
9.0462327
11
11.6176179
21
9.0880941
0
LINE
8
0
10
11.6176179
20
9.0880941
11
11.5848419
21
9.1298378
0
LINE
8
0
10
11.5848419
20
9.1298378
11
11.5519159
21
9.1714634
0
LINE
8
0
10
11.5519159
20
9.1714634
11
11.5188403
21
9.2129701
0
LINE
8
0
10
11.5188403
20
9.2129701
11
11.4856156
21
9.2543576
0
LINE
8
0
10
11.4856156
20
9.2543576
11
11.4522422
21
9.2956253
0
LINE
8
0
10
11.4522422
20
9.2956253
11
11.4187205
21
9.3367726
0
LINE
8
0
10
11.4187205
20
9.3367726
11
11.385051
21
9.377799
0
LINE
8
0
10
11.385051
20
9.377799
11
11.351234
21
9.418704
0
LINE
8
0
10
11.351234
20
9.418704
11
11.3172702
21
9.4594871
0
LINE
8
0
10
11.3172702
20
9.4594871
11
11.2831597
21
9.5001477
0
LINE
8
0
10
11.2831597
20
9.5001477
11
11.2489032
21
9.5406853
0
LINE
8
0
10
11.2489032
20
9.5406853
11
11.2145011
21
9.5810994
0
LINE
8
0
10
11.2145011
20
9.5810994
11
11.1799538
21
9.6213894
0
LINE
8
0
10
11.1799538
20
9.6213894
11
11.1452617
21
9.6615549
0
LINE
8
0
10
11.1452617
20
9.6615549
11
11.1104253
21
9.7015952
0
LINE
8
0
10
11.1104253
20
9.7015952
11
11.0754451
21
9.74151
0
LINE
8
0
10
11.0754451
20
9.74151
11
11.0754451
21
9.74151
0
LINE
8
0
10
11.0754451
20
9.74151
11
11.2895067
21
9.9297899
0
LINE
8
0
10
11.2895067
20
9.9297899
11
11.293789
21
9.9336994
0
LINE
8
0
10
11.293789
20
9.9336994
11
11.3063425
21
9.9457415
0
LINE
8
0
10
11.3063425
20
9.9457415
11
11.3267123
21
9.9663723
0
LINE
8
0
10
11.3267123
20
9.9663723
11
11.3544247
21
9.9960289
0
LINE
8
0
10
11.3544247
20
9.9960289
11
11.3889881
21
10.0351284
0
LINE
8
0
10
11.3889881
20
10.0351284
11
11.4298935
21
10.0840676
0
LINE
8
0
10
11.4298935
20
10.0840676
11
11.4766152
21
10.1432219
0
LINE
8
0
10
11.4766152
20
10.1432219
11
11.5286121
21
10.2129451
0
LINE
8
0
10
11.5286121
20
10.2129451
11
11.5853277
21
10.2935688
0
LINE
8
0
10
11.5853277
20
10.2935688
11
11.6461917
21
10.3854013
0
LINE
8
0
10
11.6461917
20
10.3854013
11
11.7106202
21
10.4887278
0
LINE
8
0
10
11.7106202
20
10.4887278
11
11.7780172
21
10.6038096
0
LINE
8
0
10
11.7780172
20
10.6038096
11
11.8477749
21
10.7308834
0
LINE
8
0
10
11.8477749
20
10.7308834
11
11.919275
21
10.8701614
0
LINE
8
0
10
11.919275
20
10.8701614
11
11.9918894
21
11.0218303
0
LINE
8
0
10
11.9918894
20
11.0218303
11
12.0649812
21
11.1860514
0
LINE
8
0
10
12.0649812
20
11.1860514
11
12.1379056
21
11.36296
0
LINE
8
0
10
12.1379056
20
11.36296
11
12.2100109
21
11.5526652
0
LINE
8
0
10
12.2100109
20
11.5526652
11
12.2806395
21
11.7552496
0
LINE
8
0
10
12.2806395
20
11.7552496
11
12.2806395
21
11.7552496
0
LINE
8
0
10
12.2806395
20
11.7552496
11
12.2535637
21
11.7834705
0
LINE
8
0
10
12.2535637
20
11.7834705
11
12.226423
21
11.811629
0
LINE
8
0
10
12.226423
20
11.811629
11
12.1992176
21
11.8397251
0
LINE
8
0
10
12.1992176
20
11.8397251
11
12.1719476
21
11.8677584
0
LINE
8
0
10
12.1719476
20
11.8677584
11
12.1446133
21
11.895729
0
LINE
8
0
10
12.1446133
20
11.895729
11
12.1172146
21
11.9236366
0
LINE
8
0
10
12.1172146
20
11.9236366
11
12.0897518
21
11.9514811
0
LINE
8
0
10
12.0897518
20
11.9514811
11
12.0622251
21
11.9792623
0
LINE
8
0
10
12.0622251
20
11.9792623
11
12.0346345
21
12.0069802
0
LINE
8
0
10
12.0346345
20
12.0069802
11
12.0069802
21
12.0346345
0
LINE
8
0
10
12.0069802
20
12.0346345
11
11.9792623
21
12.0622251
0
LINE
8
0
10
11.9792623
20
12.0622251
11
11.9514811
21
12.0897518
0
LINE
8
0
10
11.9514811
20
12.0897518
11
11.9236366
21
12.1172146
0
LINE
8
0
10
11.9236366
20
12.1172146
11
11.895729
21
12.1446133
0
LINE
8
0
10
11.895729
20
12.1446133
11
11.8677584
21
12.1719476
0
LINE
8
0
10
11.8677584
20
12.1719476
11
11.8397251
21
12.1992176
0
LINE
8
0
10
11.8397251
20
12.1992176
11
11.811629
21
12.226423
0
LINE
8
0
10
11.811629
20
12.226423
11
11.7834705
21
12.2535637
0
LINE
8
0
10
11.7834705
20
12.2535637
11
11.7552496
21
12.2806395
0
LINE
8
0
10
11.7552496
20
12.2806395
11
11.7552496
21
12.2806395
0
LINE
8
0
10
11.7552496
20
12.2806395
11
11.5526652
21
12.2100109
0
LINE
8
0
10
11.5526652
20
12.2100109
11
11.36296
21
12.1379056
0
LINE
8
0
10
11.36296
20
12.1379056
11
11.1860514
21
12.0649812
0
LINE
8
0
10
11.1860514
20
12.0649812
11
11.0218303
21
11.9918894
0
LINE
8
0
10
11.0218303
20
11.9918894
11
10.8701614
21
11.919275
0
LINE
8
0
10
10.8701614
20
11.919275
11
10.7308834
21
11.8477749
0
LINE
8
0
10
10.7308834
20
11.8477749
11
10.6038096
21
11.7780172
0
LINE
8
0
10
10.6038096
20
11.7780172
11
10.4887278
21
11.7106202
0
LINE
8
0
10
10.4887278
20
11.7106202
11
10.3854013
21
11.6461917
0
LINE
8
0
10
10.3854013
20
11.6461917
11
10.2935688
21
11.5853277
0
LINE
8
0
10
10.2935688
20
11.5853277
11
10.2129451
21
11.5286121
0
LINE
8
0
10
10.2129451
20
11.5286121
11
10.1432219
21
11.4766152
0
LINE
8
0
10
10.1432219
20
11.4766152
11
10.0840676
21
11.4298935
0
LINE
8
0
10
10.0840676
20
11.4298935
11
10.0351284
21
11.3889881
0
LINE
8
0
10
10.0351284
20
11.3889881
11
9.9960289
21
11.3544247
0
LINE
8
0
10
9.9960289
20
11.3544247
11
9.9663723
21
11.3267123
0
LINE
8
0
10
9.9663723
20
11.3267123
11
9.9457415
21
11.3063425
0
LINE
8
0
10
9.9457415
20
11.3063425
11
9.9336994
21
11.293789
0
LINE
8
0
10
9.9336994
20
11.293789
11
9.9297899
21
11.2895067
0
LINE
8
0
10
9.9297899
20
11.2895067
11
9.74151
21
11.0754451
0
LINE
8
0
10
9.74151
20
11.0754451
11
9.74151
21
11.0754451
0
LINE
8
0
10
9.74151
20
11.0754451
11
9.7015952
21
11.1104253
0
LINE
8
0
10
9.7015952
20
11.1104253
11
9.6615549
21
11.1452617
0
LINE
8
0
10
9.6615549
20
11.1452617
11
9.6213894
21
11.1799538
0
LINE
8
0
10
9.6213894
20
11.1799538
11
9.5810994
21
11.2145011
0
LINE
8
0
10
9.5810994
20
11.2145011
11
9.5406853
21
11.2489032
0
LINE
8
0
10
9.5406853
20
11.2489032
11
9.5001477
21
11.2831597
0
LINE
8
0
10
9.5001477
20
11.2831597
11
9.4594871
21
11.3172702
0
LINE
8
0
10
9.4594871
20
11.3172702
11
9.418704
21
11.351234
0
LINE
8
0
10
9.418704
20
11.351234
11
9.377799
21
11.385051
0
LINE
8
0
10
9.377799
20
11.385051
11
9.3367726
21
11.4187205
0
LINE
8
0
10
9.3367726
20
11.4187205
11
9.2956253
21
11.4522422
0
LINE
8
0
10
9.2956253
20
11.4522422
11
9.2543576
21
11.4856156
0
LINE
8
0
10
9.2543576
20
11.4856156
11
9.2129701
21
11.5188403
0
LINE
8
0
10
9.2129701
20
11.5188403
11
9.1714634
21
11.5519159
0
LINE
8
0
10
9.1714634
20
11.5519159
11
9.1298378
21
11.5848419
0
LINE
8
0
10
9.1298378
20
11.5848419
11
9.0880941
21
11.6176179
0
LINE
8
0
10
9.0880941
20
11.6176179
11
9.0462327
21
11.6502435
0
LINE
8
0
10
9.0462327
20
11.6502435
11
9.0042542
21
11.6827182
0
LINE
8
0
10
9.0042542
20
11.6827182
11
8.9621592
21
11.7150417
0
LINE
8
0
10
8.9621592
20
11.7150417
11
8.9621592
21
11.7150417
0
LINE
8
0
10
8.9621592
20
11.7150417
11
9.1353761
21
11.9414653
0
LINE
8
0
10
9.1353761
20
11.9414653
11
9.1388134
21
11.9461351
0
LINE
8
0
10
9.1388134
20
11.9461351
11
9.1487764
21
11.9603949
0
LINE
8
0
10
9.1487764
20
11.9603949
11
9.1647299
21
11.9846032
0
LINE
8
0
10
9.1647299
20
11.9846032
11
9.1861241
21
12.0190963
0
LINE
8
0
10
9.1861241
20
12.0190963
11
9.2123954
21
12.0641876
0
LINE
8
0
10
9.2123954
20
12.0641876
11
9.2429673
21
12.1201666
0
LINE
8
0
10
9.2429673
20
12.1201666
11
9.2772509
21
12.1872993
0
LINE
8
0
10
9.2772509
20
12.1872993
11
9.3146463
21
12.2658269
0
LINE
8
0
10
9.3146463
20
12.2658269
11
9.3545433
21
12.355966
0
LINE
8
0
10
9.3545433
20
12.355966
11
9.3963221
21
12.457908
0
LINE
8
0
10
9.3963221
20
12.457908
11
9.4393547
21
12.5718185
0
LINE
8
0
10
9.4393547
20
12.5718185
11
9.4830053
21
12.6978375
0
LINE
8
0
10
9.4830053
20
12.6978375
11
9.5266318
21
12.8360787
0
LINE
8
0
10
9.5266318
20
12.8360787
11
9.5695862
21
12.9866295
0
LINE
8
0
10
9.5695862
20
12.9866295
11
9.6112162
21
13.1495505
0
LINE
8
0
10
9.6112162
20
13.1495505
11
9.6508656
21
13.3248756
0
LINE
8
0
10
9.6508656
20
13.3248756
11
9.6878756
21
13.5126118
0
LINE
8
0
10
9.6878756
20
13.5126118
11
9.7215858
21
13.7127389
0
LINE
8
0
10
9.7215858
20
13.7127389
11
9.751335
21
13.9252097
0
LINE
8
0
10
9.751335
20
13.9252097
11
9.751335
21
13.9252097
0
LINE
8
0
10
9.751335
20
13.9252097
11
9.7192738
21
13.9476061
0
LINE
8
0
10
9.7192738
20
13.9476061
11
9.6871612
21
13.9699287
0
LINE
8
0
10
9.6871612
20
13.9699287
11
9.6549973
21
13.9921774
0
LINE
8
0
10
9.6549973
20
13.9921774
11
9.6227823
21
14.014352
0
LINE
8
0
10
9.6227823
20
14.014352
11
9.5905163
21
14.0364524
0
LINE
8
0
10
9.5905163
20
14.0364524
11
9.5581996
21
14.0584786
0
LINE
8
0
10
9.5581996
20
14.0584786
11
9.5258324
21
14.0804303
0
LINE
8
0
10
9.5258324
20
14.0804303
11
9.4934147
21
14.1023075
0
LINE
8
0
10
9.4934147
20
14.1023075
11
9.4609467
21
14.1241101
0
LINE
8
0
10
9.4609467
20
14.1241101
11
9.4284287
21
14.145838
0
LINE
8
0
10
9.4284287
20
14.145838
11
9.3958608
21
14.167491
0
LINE
8
0
10
9.3958608
20
14.167491
11
9.3632432
21
14.1890689
0
LINE
8
0
10
9.3632432
20
14.1890689
11
9.330576
21
14.2105718
0
LINE
8
0
10
9.330576
20
14.2105718
11
9.2978594
21
14.2319995
0
LINE
8
0
10
9.2978594
20
14.2319995
11
9.2650936
21
14.2533519
0
LINE
8
0
10
9.2650936
20
14.2533519
11
9.2322788
21
14.2746288
0
LINE
8
0
10
9.2322788
20
14.2746288
11
9.1994151
21
14.2958302
0
LINE
8
0
10
9.1994151
20
14.2958302
11
9.1665027
21
14.3169559
0
LINE
8
0
10
9.1665027
20
14.3169559
11
9.1335419
21
14.3380059
0
LINE
8
0
10
9.1335419
20
14.3380059
11
9.1335419
21
14.3380059
0
LINE
8
0
10
9.1335419
20
14.3380059
11
8.948629
21
14.2292121
0
LINE
8
0
10
8.948629
20
14.2292121
11
8.776636
21
14.1214826
0
LINE
8
0
10
8.776636
20
14.1214826
11
8.6173535
21
14.0154463
0
LINE
8
0
10
8.6173535
20
14.0154463
11
8.4705473
21
13.911721
0
LINE
8
0
10
8.4705473
20
13.911721
11
8.3359591
21
13.8109128
0
LINE
8
0
10
8.3359591
20
13.8109128
11
8.2133063
21
13.7136148
0
LINE
8
0
10
8.2133063
20
13.7136148
11
8.1022832
21
13.6204065
0
LINE
8
0
10
8.1022832
20
13.6204065
11
8.0025612
21
13.5318532
0
LINE
8
0
10
8.0025612
20
13.5318532
11
7.9137894
21
13.4485047
0
LINE
8
0
10
7.9137894
20
13.4485047
11
7.8355954
21
13.3708945
0
LINE
8
0
10
7.8355954
20
13.3708945
11
7.7675856
21
13.2995398
0
LINE
8
0
10
7.7675856
20
13.2995398
11
7.7093462
21
13.2349397
0
LINE
8
0
10
7.7093462
20
13.2349397
11
7.6604434
21
13.1775752
0
LINE
8
0
10
7.6604434
20
13.1775752
11
7.6204249
21
13.1279083
0
LINE
8
0
10
7.6204249
20
13.1279083
11
7.5888196
21
13.0863811
0
LINE
8
0
10
7.5888196
20
13.0863811
11
7.5651393
21
13.0534154
0
LINE
8
0
10
7.5651393
20
13.0534154
11
7.5488789
21
13.0294122
0
LINE
8
0
10
7.5488789
20
13.0294122
11
7.5395172
21
13.0147507
0
LINE
8
0
10
7.5395172
20
13.0147507
11
7.5365183
21
13.0097879
0
LINE
8
0
10
7.5365183
20
13.0097879
11
7.3936175
21
12.7631078
0
LINE
8
0
10
7.3936175
20
12.7631078
11
7.3936175
21
12.7631078
0
LINE
8
0
10
7.3936175
20
12.7631078
11
7.3476453
21
12.7896289
0
LINE
8
0
10
7.3476453
20
12.7896289
11
7.3015781
21
12.8159844
0
LINE
8
0
10
7.3015781
20
12.8159844
11
7.2554163
21
12.842174
0
LINE
8
0
10
7.2554163
20
12.842174
11
7.2091606
21
12.8681974
0
LINE
8
0
10
7.2091606
20
12.8681974
11
7.1628115
21
12.8940541
0
LINE
8
0
10
7.1628115
20
12.8940541
11
7.1163698
21
12.9197439
0
LINE
8
0
10
7.1163698
20
12.9197439
11
7.0698358
21
12.9452664
0
LINE
8
0
10
7.0698358
20
12.9452664
11
7.0232104
21
12.9706213
0
LINE
8
0
10
7.0232104
20
12.9706213
11
6.976494
21
12.9958082
0
LINE
8
0
10
6.976494
20
12.9958082
11
6.9296873
21
13.020827
0
LINE
8
0
10
6.9296873
20
13.020827
11
6.8827908
21
13.0456771
0
LINE
8
0
10
6.8827908
20
13.0456771
11
6.8358053
21
13.0703583
0
LINE
8
0
10
6.8358053
20
13.0703583
11
6.7887312
21
13.0948703
0
LINE
8
0
10
6.7887312
20
13.0948703
11
6.7415693
21
13.1192128
0
LINE
8
0
10
6.7415693
20
13.1192128
11
6.69432
21
13.1433854
0
LINE
8
0
10
6.69432
20
13.1433854
11
6.6469841
21
13.1673878
0
LINE
8
0
10
6.6469841
20
13.1673878
11
6.5995622
21
13.1912198
0
LINE
8
0
10
6.5995622
20
13.1912198
11
6.5520548
21
13.2148809
0
LINE
8
0
10
6.5520548
20
13.2148809
11
6.5044625
21
13.238371
0
LINE
8
0
10
6.5044625
20
13.238371
11
6.5044625
21
13.238371
0
LINE
8
0
10
6.5044625
20
13.238371
11
6.6301781
21
13.4942368
0
LINE
8
0
10
6.6301781
20
13.4942368
11
6.6326383
21
13.4994875
0
LINE
8
0
10
6.6326383
20
13.4994875
11
6.6396279
21
13.515417
0
LINE
8
0
10
6.6396279
20
13.515417
11
6.6505521
21
13.5422725
0
LINE
8
0
10
6.6505521
20
13.5422725
11
6.6648059
21
13.5802767
0
LINE
8
0
10
6.6648059
20
13.5802767
11
6.6817756
21
13.6296268
0
LINE
8
0
10
6.6817756
20
13.6296268
11
6.700839
21
13.6904945
0
LINE
8
0
10
6.700839
20
13.6904945
11
6.721367
21
13.7630256
0
LINE
8
0
10
6.721367
20
13.7630256
11
6.7427239
21
13.8473398
0
LINE
8
0
10
6.7427239
20
13.8473398
11
6.7642689
21
13.9435305
0
LINE
8
0
10
6.7642689
20
13.9435305
11
6.7853571
21
14.0516643
0
LINE
8
0
10
6.7853571
20
14.0516643
11
6.80534
21
14.1717813
0
LINE
8
0
10
6.80534
20
14.1717813
11
6.8235668
21
14.3038947
0
LINE
8
0
10
6.8235668
20
14.3038947
11
6.8393855
21
14.4479907
0
LINE
8
0
10
6.8393855
20
14.4479907
11
6.8521436
21
14.6040287
0
LINE
8
0
10
6.8521436
20
14.6040287
11
6.8611894
21
14.7719408
0
LINE
8
0
10
6.8611894
20
14.7719408
11
6.8658727
21
14.9516323
0
LINE
8
0
10
6.8658727
20
14.9516323
11
6.865546
21
15.1429815
0
LINE
8
0
10
6.865546
20
15.1429815
11
6.8595656
21
15.3458398
0
LINE
8
0
10
6.8595656
20
15.3458398
11
6.8472922
21
15.5600318
0
LINE
8
0
10
6.8472922
20
15.5600318
11
6.8472922
21
15.5600318
0
LINE
8
0
10
6.8472922
20
15.5600318
11
6.8114777
21
15.575743
0
LINE
8
0
10
6.8114777
20
15.575743
11
6.7756272
21
15.5913718
0
LINE
8
0
10
6.7756272
20
15.5913718
11
6.7397408
21
15.6069181
0
LINE
8
0
10
6.7397408
20
15.6069181
11
6.7038188
21
15.6223818
0
LINE
8
0
10
6.7038188
20
15.6223818
11
6.6678612
21
15.6377628
0
LINE
8
0
10
6.6678612
20
15.6377628
11
6.6318684
21
15.6530611
0
LINE
8
0
10
6.6318684
20
15.6530611
11
6.5958405
21
15.6682765
0
LINE
8
0
10
6.5958405
20
15.6682765
11
6.5597776
21
15.683409
0
LINE
8
0
10
6.5597776
20
15.683409
11
6.5236801
21
15.6984585
0
LINE
8
0
10
6.5236801
20
15.6984585
11
6.487548
21
15.7134249
0
LINE
8
0
10
6.487548
20
15.7134249
11
6.4513816
21
15.7283081
0
LINE
8
0
10
6.4513816
20
15.7283081
11
6.415181
21
15.7431081
0
LINE
8
0
10
6.415181
20
15.7431081
11
6.3789465
21
15.7578248
0
LINE
8
0
10
6.3789465
20
15.7578248
11
6.3426783
21
15.772458
0
LINE
8
0
10
6.3426783
20
15.772458
11
6.3063764
21
15.7870078
0
LINE
8
0
10
6.3063764
20
15.7870078
11
6.2700412
21
15.8014741
0
LINE
8
0
10
6.2700412
20
15.8014741
11
6.2336728
21
15.8158567
0
LINE
8
0
10
6.2336728
20
15.8158567
11
6.1972714
21
15.8301556
0
LINE
8
0
10
6.1972714
20
15.8301556
11
6.1608372
21
15.8443708
0
LINE
8
0
10
6.1608372
20
15.8443708
11
6.1608372
21
15.8443708
0
LINE
8
0
10
6.1608372
20
15.8443708
11
6.000702
21
15.7015927
0
LINE
8
0
10
6.000702
20
15.7015927
11
5.8530308
21
15.5623791
0
LINE
8
0
10
5.8530308
20
15.5623791
11
5.7174955
21
15.4273057
0
LINE
8
0
10
5.7174955
20
15.4273057
11
5.593746
21
15.296933
0
LINE
8
0
10
5.593746
20
15.296933
11
5.4814105
21
15.1718049
0
LINE
8
0
10
5.4814105
20
15.1718049
11
5.3800964
21
15.0524481
0
LINE
8
0
10
5.3800964
20
15.0524481
11
5.2893906
21
14.9393713
0
LINE
8
0
10
5.2893906
20
14.9393713
11
5.2088606
21
14.8330647
0
LINE
8
0
10
5.2088606
20
14.8330647
11
5.1380551
21
14.7339991
0
LINE
8
0
10
5.1380551
20
14.7339991
11
5.0765045
21
14.6426254
0
LINE
8
0
10
5.0765045
20
14.6426254
11
5.0237221
21
14.5593737
0
LINE
8
0
10
5.0237221
20
14.5593737
11
4.9792046
21
14.4846529
0
LINE
8
0
10
4.9792046
20
14.4846529
11
4.9424328
21
14.4188502
0
LINE
8
0
10
4.9424328
20
14.4188502
11
4.9128727
21
14.3623304
0
LINE
8
0
10
4.9128727
20
14.3623304
11
4.8899763
21
14.3154352
0
LINE
8
0
10
4.8899763
20
14.3154352
11
4.8731823
21
14.2784832
0
LINE
8
0
10
4.8731823
20
14.2784832
11
4.861917
21
14.2517689
0
LINE
8
0
10
4.861917
20
14.2517689
11
4.8555956
21
14.2355627
0
LINE
8
0
10
4.8555956
20
14.2355627
11
4.8536225
21
14.2301103
0
LINE
8
0
10
4.8536225
20
14.2301103
11
4.7615924
21
13.9602915
0
LINE
8
0
10
4.7615924
20
13.9602915
11
4.7615924
21
13.9602915
0
LINE
8
0
10
4.7615924
20
13.9602915
11
4.7113296
21
13.9773343
0
LINE
8
0
10
4.7113296
20
13.9773343
11
4.6610058
21
13.9941961
0
LINE
8
0
10
4.6610058
20
13.9941961
11
4.6106217
21
14.0108768
0
LINE
8
0
10
4.6106217
20
14.0108768
11
4.5601778
21
14.027376
0
LINE
8
0
10
4.5601778
20
14.027376
11
4.509675
21
14.0436937
0
LINE
8
0
10
4.509675
20
14.0436937
11
4.4591137
21
14.0598295
0
LINE
8
0
10
4.4591137
20
14.0598295
11
4.4084947
21
14.0757833
0
LINE
8
0
10
4.4084947
20
14.0757833
11
4.3578187
21
14.0915548
0
LINE
8
0
10
4.3578187
20
14.0915548
11
4.3070862
21
14.1071439
0
LINE
8
0
10
4.3070862
20
14.1071439
11
4.2562979
21
14.1225503
0
LINE
8
0
10
4.2562979
20
14.1225503
11
4.2054546
21
14.1377739
0
LINE
8
0
10
4.2054546
20
14.1377739
11
4.1545568
21
14.1528145
0
LINE
8
0
10
4.1545568
20
14.1528145
11
4.1036052
21
14.1676718
0
LINE
8
0
10
4.1036052
20
14.1676718
11
4.0526005
21
14.1823457
0
LINE
8
0
10
4.0526005
20
14.1823457
11
4.0015433
21
14.196836
0
LINE
8
0
10
4.0015433
20
14.196836
11
3.9504343
21
14.2111424
0
LINE
8
0
10
3.9504343
20
14.2111424
11
3.8992741
21
14.2252649
0
LINE
8
0
10
3.8992741
20
14.2252649
11
3.8480635
21
14.2392032
0
LINE
8
0
10
3.8480635
20
14.2392032
11
3.796803
21
14.2529571
0
LINE
8
0
10
3.796803
20
14.2529571
11
3.796803
21
14.2529571
0
LINE
8
0
10
3.796803
20
14.2529571
11
3.8701861
21
14.5284324
0
LINE
8
0
10
3.8701861
20
14.5284324
11
3.8715747
21
14.5340622
0
LINE
8
0
10
3.8715747
20
14.5340622
11
3.8753223
21
14.5510492
0
LINE
8
0
10
3.8753223
20
14.5510492
11
3.8807973
21
14.5795199
0
LINE
8
0
10
3.8807973
20
14.5795199
11
3.887363
21
14.6195746
0
LINE
8
0
10
3.887363
20
14.6195746
11
3.8943789
21
14.6712871
0
LINE
8
0
10
3.8943789
20
14.6712871
11
3.9012013
21
14.7347043
0
LINE
8
0
10
3.9012013
20
14.7347043
11
3.9071847
21
14.8098466
0
LINE
8
0
10
3.9071847
20
14.8098466
11
3.9116823
21
14.8967073
0
LINE
8
0
10
3.9116823
20
14.8967073
11
3.9140476
21
14.9952528
0
LINE
8
0
10
3.9140476
20
14.9952528
11
3.9136347
21
15.105423
0
LINE
8
0
10
3.9136347
20
15.105423
11
3.9097999
21
15.2271304
0
LINE
8
0
10
3.9097999
20
15.2271304
11
3.9019025
21
15.3602612
0
LINE
8
0
10
3.9019025
20
15.3602612
11
3.8893054
21
15.5046745
0
LINE
8
0
10
3.8893054
20
15.5046745
11
3.8713769
21
15.6602033
0
LINE
8
0
10
3.8713769
20
15.6602033
11
3.8474908
21
15.8266537
0
LINE
8
0
10
3.8474908
20
15.8266537
11
3.8170281
21
16.0038062
0
LINE
8
0
10
3.8170281
20
16.0038062
11
3.7793773
21
16.1914149
0
LINE
8
0
10
3.7793773
20
16.1914149
11
3.7339361
21
16.3892086
0
LINE
8
0
10
3.7339361
20
16.3892086
11
3.6801118
21
16.5968906
0
LINE
8
0
10
3.6801118
20
16.5968906
11
3.6801118
21
16.5968906
0
LINE
8
0
10
3.6801118
20
16.5968906
11
3.6419204
21
16.6053129
0
LINE
8
0
10
3.6419204
20
16.6053129
11
3.6037097
21
16.6136473
0
LINE
8
0
10
3.6037097
20
16.6136473
11
3.5654799
21
16.6218938
0
LINE
8
0
10
3.5654799
20
16.6218938
11
3.5272313
21
16.6300523
0
LINE
8
0
10
3.5272313
20
16.6300523
11
3.488964
21
16.6381228
0
LINE
8
0
10
3.488964
20
16.6381228
11
3.4506782
21
16.6461053
0
LINE
8
0
10
3.4506782
20
16.6461053
11
3.4123741
21
16.6539996
0
LINE
8
0
10
3.4123741
20
16.6539996
11
3.374052
21
16.6618058
0
LINE
8
0
10
3.374052
20
16.6618058
11
3.3357121
21
16.6695238
0
LINE
8
0
10
3.3357121
20
16.6695238
11
3.2973545
21
16.6771536
0
LINE
8
0
10
3.2973545
20
16.6771536
11
3.2589794
21
16.6846952
0
LINE
8
0
10
3.2589794
20
16.6846952
11
3.2205871
21
16.6921484
0
LINE
8
0
10
3.2205871
20
16.6921484
11
3.1821778
21
16.6995133
0
LINE
8
0
10
3.1821778
20
16.6995133
11
3.1437516
21
16.7067898
0
LINE
8
0
10
3.1437516
20
16.7067898
11
3.1053087
21
16.7139779
0
LINE
8
0
10
3.1053087
20
16.7139779
11
3.0668495
21
16.7210775
0
LINE
8
0
10
3.0668495
20
16.7210775
11
3.028374
21
16.7280887
0
LINE
8
0
10
3.028374
20
16.7280887
11
2.9898824
21
16.7350113
0
LINE
8
0
10
2.9898824
20
16.7350113
11
2.9513751
21
16.7418453
0
LINE
8
0
10
2.9513751
20
16.7418453
11
2.9513751
21
16.7418453
0
LINE
8
0
10
2.9513751
20
16.7418453
11
2.8221714
21
16.5705699
0
LINE
8
0
10
2.8221714
20
16.5705699
11
2.7044969
21
16.405222
0
LINE
8
0
10
2.7044969
20
16.405222
11
2.5979174
21
16.2463024
0
LINE
8
0
10
2.5979174
20
16.2463024
11
2.5019801
21
16.0942925
0
LINE
8
0
10
2.5019801
20
16.0942925
11
2.4162144
21
15.9496531
0
LINE
8
0
10
2.4162144
20
15.9496531
11
2.3401324
21
15.8128242
0
LINE
8
0
10
2.3401324
20
15.8128242
11
2.2732296
21
15.6842244
0
LINE
8
0
10
2.2732296
20
15.6842244
11
2.2149864
21
15.5642498
0
LINE
8
0
10
2.2149864
20
15.5642498
11
2.1648681
21
15.4532743
0
LINE
8
0
10
2.1648681
20
15.4532743
11
2.1223264
21
15.3516483
0
LINE
8
0
10
2.1223264
20
15.3516483
11
2.0867998
21
15.2596989
0
LINE
8
0
10
2.0867998
20
15.2596989
11
2.057715
21
15.177729
0
LINE
8
0
10
2.057715
20
15.177729
11
2.0344872
21
15.1060169
0
LINE
8
0
10
2.0344872
20
15.1060169
11
2.0165216
21
15.0448161
0
LINE
8
0
10
2.0165216
20
15.0448161
11
2.0032139
21
14.9943552
0
LINE
8
0
10
2.0032139
20
14.9943552
11
1.9939515
21
14.9548368
0
LINE
8
0
10
1.9939515
20
14.9548368
11
1.9881145
21
14.9264381
0
LINE
8
0
10
1.9881145
20
14.9264381
11
1.9850762
21
14.9093101
0
LINE
8
0
10
1.9850762
20
14.9093101
11
1.9842047
21
14.9035774
0
LINE
8
0
10
1.9842047
20
14.9035774
11
1.9465819
21
14.620989
0
LINE
8
0
10
1.9465819
20
14.620989
11
1.9465819
21
14.620989
0
LINE
8
0
10
1.9465819
20
14.620989
11
1.8939601
21
14.6278985
0
LINE
8
0
10
1.8939601
20
14.6278985
11
1.8413136
21
14.6346187
0
LINE
8
0
10
1.8413136
20
14.6346187
11
1.7886434
21
14.6411494
0
LINE
8
0
10
1.7886434
20
14.6411494
11
1.73595
21
14.6474905
0
LINE
8
0
10
1.73595
20
14.6474905
11
1.6832341
21
14.653642
0
LINE
8
0
10
1.6832341
20
14.653642
11
1.6304964
21
14.6596037
0
LINE
8
0
10
1.6304964
20
14.6596037
11
1.5777377
21
14.6653757
0
LINE
8
0
10
1.5777377
20
14.6653757
11
1.5249584
21
14.6709578
0
LINE
8
0
10
1.5249584
20
14.6709578
11
1.4721595
21
14.6763499
0
LINE
8
0
10
1.4721595
20
14.6763499
11
1.4193415
21
14.681552
0
LINE
8
0
10
1.4193415
20
14.681552
11
1.3665051
21
14.6865641
0
LINE
8
0
10
1.3665051
20
14.6865641
11
1.313651
21
14.6913859
0
LINE
8
0
10
1.313651
20
14.6913859
11
1.2607799
21
14.6960176
0
LINE
8
0
10
1.2607799
20
14.6960176
11
1.2078925
21
14.700459
0
LINE
8
0
10
1.2078925
20
14.700459
11
1.1549894
21
14.7047101
0
LINE
8
0
10
1.1549894
20
14.7047101
11
1.1020714
21
14.7087708
0
LINE
8
0
10
1.1020714
20
14.7087708
11
1.0491392
21
14.7126411
0
LINE
8
0
10
1.0491392
20
14.7126411
11
0.9961933
21
14.7163208
0
LINE
8
0
10
0.9961933
20
14.7163208
11
0.9432345
21
14.7198101
0
LINE
8
0
10
0.9432345
20
14.7198101
11
0.9432345
21
14.7198101
0
LINE
8
0
10
0.9432345
20
14.7198101
11
0.961465
21
15.0043085
0
LINE
8
0
10
0.961465
20
15.0043085
11
0.9617286
21
15.010101
0
LINE
8
0
10
0.9617286
20
15.010101
11
0.9620902
21
15.0274927
0
LINE
8
0
10
0.9620902
20
15.0274927
11
0.9619056
21
15.0564845
0
LINE
8
0
10
0.9619056
20
15.0564845
11
0.9605309
21
15.0970505
0
LINE
8
0
10
0.9605309
20
15.0970505
11
0.9573234
21
15.149138
0
LINE
8
0
10
0.9573234
20
15.149138
11
0.9516426
21
15.2126677
0
LINE
8
0
10
0.9516426
20
15.2126677
11
0.9428515
21
15.2875334
0
LINE
8
0
10
0.9428515
20
15.2875334
11
0.930317
21
15.3736026
0
LINE
8
0
10
0.930317
20
15.3736026
11
0.9134115
21
15.4707161
0
LINE
8
0
10
0.9134115
20
15.4707161
11
0.8915135
21
15.5786888
0
LINE
8
0
10
0.8915135
20
15.5786888
11
0.8640084
21
15.6973095
0
LINE
8
0
10
0.8640084
20
15.6973095
11
0.8302902
21
15.8263415
0
LINE
8
0
10
0.8302902
20
15.8263415
11
0.7897616
21
15.9655224
0
LINE
8
0
10
0.7897616
20
15.9655224
11
0.7418354
21
16.114565
0
LINE
8
0
10
0.7418354
20
16.114565
11
0.6859354
21
16.2731572
0
LINE
8
0
10
0.6859354
20
16.2731572
11
0.6214972
21
16.4409628
0
LINE
8
0
10
0.6214972
20
16.4409628
11
0.5479693
21
16.6176214
0
LINE
8
0
10
0.5479693
20
16.6176214
11
0.4648136
21
16.8027494
0
LINE
8
0
10
0.4648136
20
16.8027494
11
0.3715068
21
16.9959402
0
LINE
8
0
10
0.3715068
20
16.9959402
11
0.3715068
21
16.9959402
0
LINE
8
0
10
0.3715068
20
16.9959402
11
0.3324061
21
16.9967499
0
LINE
8
0
10
0.3324061
20
16.9967499
11
0.2933036
21
16.9974696
0
LINE
8
0
10
0.2933036
20
16.9974696
11
0.2541996
21
16.9980994
0
LINE
8
0
10
0.2541996
20
16.9980994
11
0.2150942
21
16.9986392
0
LINE
8
0
10
0.2150942
20
16.9986392
11
0.1759878
21
16.999089
0
LINE
8
0
10
0.1759878
20
16.999089
11
0.1368803
21
16.9994489
0
LINE
8
0
10
0.1368803
20
16.9994489
11
0.0977722
21
16.9997188
0
LINE
8
0
10
0.0977722
20
16.9997188
11
0.0586635
21
16.9998988
0
LINE
8
0
10
0.0586635
20
16.9998988
11
0.0195545
21
16.9999888
0
LINE
8
0
10
0.0195545
20
16.9999888
11
-0.0195545
21
16.9999888
0
LINE
8
0
10
-0.0195545
20
16.9999888
11
-0.0586635
21
16.9998988
0
LINE
8
0
10
-0.0586635
20
16.9998988
11
-0.0977722
21
16.9997188
0
LINE
8
0
10
-0.0977722
20
16.9997188
11
-0.1368803
21
16.9994489
0
LINE
8
0
10
-0.1368803
20
16.9994489
11
-0.1759878
21
16.999089
0
LINE
8
0
10
-0.1759878
20
16.999089
11
-0.2150942
21
16.9986392
0
LINE
8
0
10
-0.2150942
20
16.9986392
11
-0.2541996
21
16.9980994
0
LINE
8
0
10
-0.2541996
20
16.9980994
11
-0.2933036
21
16.9974696
0
LINE
8
0
10
-0.2933036
20
16.9974696
11
-0.3324061
21
16.9967499
0
LINE
8
0
10
-0.3324061
20
16.9967499
11
-0.3715068
21
16.9959402
0
LINE
8
0
10
-0.3715068
20
16.9959402
11
-0.3715068
21
16.9959402
0
LINE
8
0
10
-0.3715068
20
16.9959402
11
-0.4648136
21
16.8027494
0
LINE
8
0
10
-0.4648136
20
16.8027494
11
-0.5479693
21
16.6176214
0
LINE
8
0
10
-0.5479693
20
16.6176214
11
-0.6214972
21
16.4409628
0
LINE
8
0
10
-0.6214972
20
16.4409628
11
-0.6859354
21
16.2731572
0
LINE
8
0
10
-0.6859354
20
16.2731572
11
-0.7418354
21
16.114565
0
LINE
8
0
10
-0.7418354
20
16.114565
11
-0.7897616
21
15.9655224
0
LINE
8
0
10
-0.7897616
20
15.9655224
11
-0.8302902
21
15.8263415
0
LINE
8
0
10
-0.8302902
20
15.8263415
11
-0.8640084
21
15.6973095
0
LINE
8
0
10
-0.8640084
20
15.6973095
11
-0.8915135
21
15.5786888
0
LINE
8
0
10
-0.8915135
20
15.5786888
11
-0.9134115
21
15.4707161
0
LINE
8
0
10
-0.9134115
20
15.4707161
11
-0.930317
21
15.3736026
0
LINE
8
0
10
-0.930317
20
15.3736026
11
-0.9428515
21
15.2875334
0
LINE
8
0
10
-0.9428515
20
15.2875334
11
-0.9516426
21
15.2126677
0
LINE
8
0
10
-0.9516426
20
15.2126677
11
-0.9573234
21
15.149138
0
LINE
8
0
10
-0.9573234
20
15.149138
11
-0.9605309
21
15.0970505
0
LINE
8
0
10
-0.9605309
20
15.0970505
11
-0.9619056
21
15.0564845
0
LINE
8
0
10
-0.9619056
20
15.0564845
11
-0.9620902
21
15.0274927
0
LINE
8
0
10
-0.9620902
20
15.0274927
11
-0.9617286
21
15.010101
0
LINE
8
0
10
-0.9617286
20
15.010101
11
-0.961465
21
15.0043085
0
LINE
8
0
10
-0.961465
20
15.0043085
11
-0.9432345
21
14.7198101
0
LINE
8
0
10
-0.9432345
20
14.7198101
11
-0.9432345
21
14.7198101
0
LINE
8
0
10
-0.9432345
20
14.7198101
11
-0.9961933
21
14.7163208
0
LINE
8
0
10
-0.9961933
20
14.7163208
11
-1.0491392
21
14.7126411
0
LINE
8
0
10
-1.0491392
20
14.7126411
11
-1.1020714
21
14.7087708
0
LINE
8
0
10
-1.1020714
20
14.7087708
11
-1.1549894
21
14.7047101
0
LINE
8
0
10
-1.1549894
20
14.7047101
11
-1.2078925
21
14.700459
0
LINE
8
0
10
-1.2078925
20
14.700459
11
-1.2607799
21
14.6960176
0
LINE
8
0
10
-1.2607799
20
14.6960176
11
-1.313651
21
14.6913859
0
LINE
8
0
10
-1.313651
20
14.6913859
11
-1.3665051
21
14.6865641
0
LINE
8
0
10
-1.3665051
20
14.6865641
11
-1.4193415
21
14.681552
0
LINE
8
0
10
-1.4193415
20
14.681552
11
-1.4721595
21
14.6763499
0
LINE
8
0
10
-1.4721595
20
14.6763499
11
-1.5249584
21
14.6709578
0
LINE
8
0
10
-1.5249584
20
14.6709578
11
-1.5777377
21
14.6653757
0
LINE
8
0
10
-1.5777377
20
14.6653757
11
-1.6304964
21
14.6596037
0
LINE
8
0
10
-1.6304964
20
14.6596037
11
-1.6832341
21
14.653642
0
LINE
8
0
10
-1.6832341
20
14.653642
11
-1.73595
21
14.6474905
0
LINE
8
0
10
-1.73595
20
14.6474905
11
-1.7886434
21
14.6411494
0
LINE
8
0
10
-1.7886434
20
14.6411494
11
-1.8413136
21
14.6346187
0
LINE
8
0
10
-1.8413136
20
14.6346187
11
-1.8939601
21
14.6278985
0
LINE
8
0
10
-1.8939601
20
14.6278985
11
-1.9465819
21
14.620989
0
LINE
8
0
10
-1.9465819
20
14.620989
11
-1.9465819
21
14.620989
0
LINE
8
0
10
-1.9465819
20
14.620989
11
-1.9842047
21
14.9035774
0
LINE
8
0
10
-1.9842047
20
14.9035774
11
-1.9850762
21
14.9093101
0
LINE
8
0
10
-1.9850762
20
14.9093101
11
-1.9881145
21
14.9264381
0
LINE
8
0
10
-1.9881145
20
14.9264381
11
-1.9939515
21
14.9548368
0
LINE
8
0
10
-1.9939515
20
14.9548368
11
-2.0032139
21
14.9943552
0
LINE
8
0
10
-2.0032139
20
14.9943552
11
-2.0165216
21
15.0448161
0
LINE
8
0
10
-2.0165216
20
15.0448161
11
-2.0344872
21
15.1060169
0
LINE
8
0
10
-2.0344872
20
15.1060169
11
-2.057715
21
15.177729
0
LINE
8
0
10
-2.057715
20
15.177729
11
-2.0867998
21
15.2596989
0
LINE
8
0
10
-2.0867998
20
15.2596989
11
-2.1223264
21
15.3516483
0
LINE
8
0
10
-2.1223264
20
15.3516483
11
-2.1648681
21
15.4532743
0
LINE
8
0
10
-2.1648681
20
15.4532743
11
-2.2149864
21
15.5642498
0
LINE
8
0
10
-2.2149864
20
15.5642498
11
-2.2732296
21
15.6842244
0
LINE
8
0
10
-2.2732296
20
15.6842244
11
-2.3401324
21
15.8128242
0
LINE
8
0
10
-2.3401324
20
15.8128242
11
-2.4162144
21
15.9496531
0
LINE
8
0
10
-2.4162144
20
15.9496531
11
-2.5019801
21
16.0942925
0
LINE
8
0
10
-2.5019801
20
16.0942925
11
-2.5979174
21
16.2463024
0
LINE
8
0
10
-2.5979174
20
16.2463024
11
-2.7044969
21
16.405222
0
LINE
8
0
10
-2.7044969
20
16.405222
11
-2.8221714
21
16.5705699
0
LINE
8
0
10
-2.8221714
20
16.5705699
11
-2.9513751
21
16.7418453
0
LINE
8
0
10
-2.9513751
20
16.7418453
11
-2.9513751
21
16.7418453
0
LINE
8
0
10
-2.9513751
20
16.7418453
11
-2.9898824
21
16.7350113
0
LINE
8
0
10
-2.9898824
20
16.7350113
11
-3.028374
21
16.7280887
0
LINE
8
0
10
-3.028374
20
16.7280887
11
-3.0668495
21
16.7210775
0
LINE
8
0
10
-3.0668495
20
16.7210775
11
-3.1053087
21
16.7139779
0
LINE
8
0
10
-3.1053087
20
16.7139779
11
-3.1437516
21
16.7067898
0
LINE
8
0
10
-3.1437516
20
16.7067898
11
-3.1821778
21
16.6995133
0
LINE
8
0
10
-3.1821778
20
16.6995133
11
-3.2205871
21
16.6921484
0
LINE
8
0
10
-3.2205871
20
16.6921484
11
-3.2589794
21
16.6846952
0
LINE
8
0
10
-3.2589794
20
16.6846952
11
-3.2973545
21
16.6771536
0
LINE
8
0
10
-3.2973545
20
16.6771536
11
-3.3357121
21
16.6695238
0
LINE
8
0
10
-3.3357121
20
16.6695238
11
-3.374052
21
16.6618058
0
LINE
8
0
10
-3.374052
20
16.6618058
11
-3.4123741
21
16.6539996
0
LINE
8
0
10
-3.4123741
20
16.6539996
11
-3.4506782
21
16.6461053
0
LINE
8
0
10
-3.4506782
20
16.6461053
11
-3.488964
21
16.6381228
0
LINE
8
0
10
-3.488964
20
16.6381228
11
-3.5272313
21
16.6300523
0
LINE
8
0
10
-3.5272313
20
16.6300523
11
-3.5654799
21
16.6218938
0
LINE
8
0
10
-3.5654799
20
16.6218938
11
-3.6037097
21
16.6136473
0
LINE
8
0
10
-3.6037097
20
16.6136473
11
-3.6419204
21
16.6053129
0
LINE
8
0
10
-3.6419204
20
16.6053129
11
-3.6801118
21
16.5968906
0
LINE
8
0
10
-3.6801118
20
16.5968906
11
-3.6801118
21
16.5968906
0
LINE
8
0
10
-3.6801118
20
16.5968906
11
-3.7339361
21
16.3892086
0
LINE
8
0
10
-3.7339361
20
16.3892086
11
-3.7793773
21
16.1914149
0
LINE
8
0
10
-3.7793773
20
16.1914149
11
-3.8170281
21
16.0038062
0
LINE
8
0
10
-3.8170281
20
16.0038062
11
-3.8474908
21
15.8266537
0
LINE
8
0
10
-3.8474908
20
15.8266537
11
-3.8713769
21
15.6602033
0
LINE
8
0
10
-3.8713769
20
15.6602033
11
-3.8893054
21
15.5046745
0
LINE
8
0
10
-3.8893054
20
15.5046745
11
-3.9019025
21
15.3602612
0
LINE
8
0
10
-3.9019025
20
15.3602612
11
-3.9097999
21
15.2271304
0
LINE
8
0
10
-3.9097999
20
15.2271304
11
-3.9136347
21
15.105423
0
LINE
8
0
10
-3.9136347
20
15.105423
11
-3.9140476
21
14.9952528
0
LINE
8
0
10
-3.9140476
20
14.9952528
11
-3.9116823
21
14.8967073
0
LINE
8
0
10
-3.9116823
20
14.8967073
11
-3.9071847
21
14.8098466
0
LINE
8
0
10
-3.9071847
20
14.8098466
11
-3.9012013
21
14.7347043
0
LINE
8
0
10
-3.9012013
20
14.7347043
11
-3.8943789
21
14.6712871
0
LINE
8
0
10
-3.8943789
20
14.6712871
11
-3.887363
21
14.6195746
0
LINE
8
0
10
-3.887363
20
14.6195746
11
-3.8807973
21
14.5795199
0
LINE
8
0
10
-3.8807973
20
14.5795199
11
-3.8753223
21
14.5510492
0
LINE
8
0
10
-3.8753223
20
14.5510492
11
-3.8715747
21
14.5340622
0
LINE
8
0
10
-3.8715747
20
14.5340622
11
-3.8701861
21
14.5284324
0
LINE
8
0
10
-3.8701861
20
14.5284324
11
-3.796803
21
14.2529571
0
LINE
8
0
10
-3.796803
20
14.2529571
11
-3.796803
21
14.2529571
0
LINE
8
0
10
-3.796803
20
14.2529571
11
-3.8480635
21
14.2392032
0
LINE
8
0
10
-3.8480635
20
14.2392032
11
-3.8992741
21
14.2252649
0
LINE
8
0
10
-3.8992741
20
14.2252649
11
-3.9504343
21
14.2111424
0
LINE
8
0
10
-3.9504343
20
14.2111424
11
-4.0015433
21
14.196836
0
LINE
8
0
10
-4.0015433
20
14.196836
11
-4.0526005
21
14.1823457
0
LINE
8
0
10
-4.0526005
20
14.1823457
11
-4.1036052
21
14.1676718
0
LINE
8
0
10
-4.1036052
20
14.1676718
11
-4.1545568
21
14.1528145
0
LINE
8
0
10
-4.1545568
20
14.1528145
11
-4.2054546
21
14.1377739
0
LINE
8
0
10
-4.2054546
20
14.1377739
11
-4.2562979
21
14.1225503
0
LINE
8
0
10
-4.2562979
20
14.1225503
11
-4.3070862
21
14.1071439
0
LINE
8
0
10
-4.3070862
20
14.1071439
11
-4.3578187
21
14.0915548
0
LINE
8
0
10
-4.3578187
20
14.0915548
11
-4.4084947
21
14.0757833
0
LINE
8
0
10
-4.4084947
20
14.0757833
11
-4.4591137
21
14.0598295
0
LINE
8
0
10
-4.4591137
20
14.0598295
11
-4.509675
21
14.0436937
0
LINE
8
0
10
-4.509675
20
14.0436937
11
-4.5601778
21
14.027376
0
LINE
8
0
10
-4.5601778
20
14.027376
11
-4.6106217
21
14.0108768
0
LINE
8
0
10
-4.6106217
20
14.0108768
11
-4.6610058
21
13.9941961
0
LINE
8
0
10
-4.6610058
20
13.9941961
11
-4.7113296
21
13.9773343
0
LINE
8
0
10
-4.7113296
20
13.9773343
11
-4.7615924
21
13.9602915
0
LINE
8
0
10
-4.7615924
20
13.9602915
11
-4.7615924
21
13.9602915
0
LINE
8
0
10
-4.7615924
20
13.9602915
11
-4.8536225
21
14.2301103
0
LINE
8
0
10
-4.8536225
20
14.2301103
11
-4.8555956
21
14.2355627
0
LINE
8
0
10
-4.8555956
20
14.2355627
11
-4.861917
21
14.2517689
0
LINE
8
0
10
-4.861917
20
14.2517689
11
-4.8731823
21
14.2784832
0
LINE
8
0
10
-4.8731823
20
14.2784832
11
-4.8899763
21
14.3154352
0
LINE
8
0
10
-4.8899763
20
14.3154352
11
-4.9128727
21
14.3623304
0
LINE
8
0
10
-4.9128727
20
14.3623304
11
-4.9424328
21
14.4188502
0
LINE
8
0
10
-4.9424328
20
14.4188502
11
-4.9792046
21
14.4846529
0
LINE
8
0
10
-4.9792046
20
14.4846529
11
-5.0237221
21
14.5593737
0
LINE
8
0
10
-5.0237221
20
14.5593737
11
-5.0765045
21
14.6426254
0
LINE
8
0
10
-5.0765045
20
14.6426254
11
-5.1380551
21
14.7339991
0
LINE
8
0
10
-5.1380551
20
14.7339991
11
-5.2088606
21
14.8330647
0
LINE
8
0
10
-5.2088606
20
14.8330647
11
-5.2893906
21
14.9393713
0
LINE
8
0
10
-5.2893906
20
14.9393713
11
-5.3800964
21
15.0524481
0
LINE
8
0
10
-5.3800964
20
15.0524481
11
-5.4814105
21
15.1718049
0
LINE
8
0
10
-5.4814105
20
15.1718049
11
-5.593746
21
15.296933
0
LINE
8
0
10
-5.593746
20
15.296933
11
-5.7174955
21
15.4273057
0
LINE
8
0
10
-5.7174955
20
15.4273057
11
-5.8530308
21
15.5623791
0
LINE
8
0
10
-5.8530308
20
15.5623791
11
-6.000702
21
15.7015927
0
LINE
8
0
10
-6.000702
20
15.7015927
11
-6.1608372
21
15.8443708
0
LINE
8
0
10
-6.1608372
20
15.8443708
11
-6.1608372
21
15.8443708
0
LINE
8
0
10
-6.1608372
20
15.8443708
11
-6.1972714
21
15.8301556
0
LINE
8
0
10
-6.1972714
20
15.8301556
11
-6.2336728
21
15.8158567
0
LINE
8
0
10
-6.2336728
20
15.8158567
11
-6.2700412
21
15.8014741
0
LINE
8
0
10
-6.2700412
20
15.8014741
11
-6.3063764
21
15.7870078
0
LINE
8
0
10
-6.3063764
20
15.7870078
11
-6.3426783
21
15.772458
0
LINE
8
0
10
-6.3426783
20
15.772458
11
-6.3789465
21
15.7578248
0
LINE
8
0
10
-6.3789465
20
15.7578248
11
-6.415181
21
15.7431081
0
LINE
8
0
10
-6.415181
20
15.7431081
11
-6.4513816
21
15.7283081
0
LINE
8
0
10
-6.4513816
20
15.7283081
11
-6.487548
21
15.7134249
0
LINE
8
0
10
-6.487548
20
15.7134249
11
-6.5236801
21
15.6984585
0
LINE
8
0
10
-6.5236801
20
15.6984585
11
-6.5597776
21
15.683409
0
LINE
8
0
10
-6.5597776
20
15.683409
11
-6.5958405
21
15.6682765
0
LINE
8
0
10
-6.5958405
20
15.6682765
11
-6.6318684
21
15.6530611
0
LINE
8
0
10
-6.6318684
20
15.6530611
11
-6.6678612
21
15.6377628
0
LINE
8
0
10
-6.6678612
20
15.6377628
11
-6.7038188
21
15.6223818
0
LINE
8
0
10
-6.7038188
20
15.6223818
11
-6.7397408
21
15.6069181
0
LINE
8
0
10
-6.7397408
20
15.6069181
11
-6.7756272
21
15.5913718
0
LINE
8
0
10
-6.7756272
20
15.5913718
11
-6.8114777
21
15.575743
0
LINE
8
0
10
-6.8114777
20
15.575743
11
-6.8472922
21
15.5600318
0
LINE
8
0
10
-6.8472922
20
15.5600318
11
-6.8472922
21
15.5600318
0
LINE
8
0
10
-6.8472922
20
15.5600318
11
-6.8595656
21
15.3458398
0
LINE
8
0
10
-6.8595656
20
15.3458398
11
-6.865546
21
15.1429815
0
LINE
8
0
10
-6.865546
20
15.1429815
11
-6.8658727
21
14.9516323
0
LINE
8
0
10
-6.8658727
20
14.9516323
11
-6.8611894
21
14.7719408
0
LINE
8
0
10
-6.8611894
20
14.7719408
11
-6.8521436
21
14.6040287
0
LINE
8
0
10
-6.8521436
20
14.6040287
11
-6.8393855
21
14.4479907
0
LINE
8
0
10
-6.8393855
20
14.4479907
11
-6.8235668
21
14.3038947
0
LINE
8
0
10
-6.8235668
20
14.3038947
11
-6.80534
21
14.1717813
0
LINE
8
0
10
-6.80534
20
14.1717813
11
-6.7853571
21
14.0516643
0
LINE
8
0
10
-6.7853571
20
14.0516643
11
-6.7642689
21
13.9435305
0
LINE
8
0
10
-6.7642689
20
13.9435305
11
-6.7427239
21
13.8473398
0
LINE
8
0
10
-6.7427239
20
13.8473398
11
-6.721367
21
13.7630256
0
LINE
8
0
10
-6.721367
20
13.7630256
11
-6.700839
21
13.6904945
0
LINE
8
0
10
-6.700839
20
13.6904945
11
-6.6817756
21
13.6296268
0
LINE
8
0
10
-6.6817756
20
13.6296268
11
-6.6648059
21
13.5802767
0
LINE
8
0
10
-6.6648059
20
13.5802767
11
-6.6505521
21
13.5422725
0
LINE
8
0
10
-6.6505521
20
13.5422725
11
-6.6396279
21
13.515417
0
LINE
8
0
10
-6.6396279
20
13.515417
11
-6.6326383
21
13.4994875
0
LINE
8
0
10
-6.6326383
20
13.4994875
11
-6.6301781
21
13.4942368
0
LINE
8
0
10
-6.6301781
20
13.4942368
11
-6.5044625
21
13.238371
0
LINE
8
0
10
-6.5044625
20
13.238371
11
-6.5044625
21
13.238371
0
LINE
8
0
10
-6.5044625
20
13.238371
11
-6.5520548
21
13.2148809
0
LINE
8
0
10
-6.5520548
20
13.2148809
11
-6.5995622
21
13.1912198
0
LINE
8
0
10
-6.5995622
20
13.1912198
11
-6.6469841
21
13.1673878
0
LINE
8
0
10
-6.6469841
20
13.1673878
11
-6.69432
21
13.1433854
0
LINE
8
0
10
-6.69432
20
13.1433854
11
-6.7415693
21
13.1192128
0
LINE
8
0
10
-6.7415693
20
13.1192128
11
-6.7887312
21
13.0948703
0
LINE
8
0
10
-6.7887312
20
13.0948703
11
-6.8358053
21
13.0703583
0
LINE
8
0
10
-6.8358053
20
13.0703583
11
-6.8827908
21
13.0456771
0
LINE
8
0
10
-6.8827908
20
13.0456771
11
-6.9296873
21
13.020827
0
LINE
8
0
10
-6.9296873
20
13.020827
11
-6.976494
21
12.9958082
0
LINE
8
0
10
-6.976494
20
12.9958082
11
-7.0232104
21
12.9706213
0
LINE
8
0
10
-7.0232104
20
12.9706213
11
-7.0698358
21
12.9452664
0
LINE
8
0
10
-7.0698358
20
12.9452664
11
-7.1163698
21
12.9197439
0
LINE
8
0
10
-7.1163698
20
12.9197439
11
-7.1628115
21
12.8940541
0
LINE
8
0
10
-7.1628115
20
12.8940541
11
-7.2091606
21
12.8681974
0
LINE
8
0
10
-7.2091606
20
12.8681974
11
-7.2554163
21
12.842174
0
LINE
8
0
10
-7.2554163
20
12.842174
11
-7.3015781
21
12.8159844
0
LINE
8
0
10
-7.3015781
20
12.8159844
11
-7.3476453
21
12.7896289
0
LINE
8
0
10
-7.3476453
20
12.7896289
11
-7.3936175
21
12.7631078
0
LINE
8
0
10
-7.3936175
20
12.7631078
11
-7.3936175
21
12.7631078
0
LINE
8
0
10
-7.3936175
20
12.7631078
11
-7.5365183
21
13.0097879
0
LINE
8
0
10
-7.5365183
20
13.0097879
11
-7.5395172
21
13.0147507
0
LINE
8
0
10
-7.5395172
20
13.0147507
11
-7.5488789
21
13.0294122
0
LINE
8
0
10
-7.5488789
20
13.0294122
11
-7.5651393
21
13.0534154
0
LINE
8
0
10
-7.5651393
20
13.0534154
11
-7.5888196
21
13.0863811
0
LINE
8
0
10
-7.5888196
20
13.0863811
11
-7.6204249
21
13.1279083
0
LINE
8
0
10
-7.6204249
20
13.1279083
11
-7.6604434
21
13.1775752
0
LINE
8
0
10
-7.6604434
20
13.1775752
11
-7.7093462
21
13.2349397
0
LINE
8
0
10
-7.7093462
20
13.2349397
11
-7.7675856
21
13.2995398
0
LINE
8
0
10
-7.7675856
20
13.2995398
11
-7.8355954
21
13.3708945
0
LINE
8
0
10
-7.8355954
20
13.3708945
11
-7.9137894
21
13.4485047
0
LINE
8
0
10
-7.9137894
20
13.4485047
11
-8.0025612
21
13.5318532
0
LINE
8
0
10
-8.0025612
20
13.5318532
11
-8.1022832
21
13.6204065
0
LINE
8
0
10
-8.1022832
20
13.6204065
11
-8.2133063
21
13.7136148
0
LINE
8
0
10
-8.2133063
20
13.7136148
11
-8.3359591
21
13.8109128
0
LINE
8
0
10
-8.3359591
20
13.8109128
11
-8.4705473
21
13.911721
0
LINE
8
0
10
-8.4705473
20
13.911721
11
-8.6173535
21
14.0154463
0
LINE
8
0
10
-8.6173535
20
14.0154463
11
-8.776636
21
14.1214826
0
LINE
8
0
10
-8.776636
20
14.1214826
11
-8.948629
21
14.2292121
0
LINE
8
0
10
-8.948629
20
14.2292121
11
-9.1335419
21
14.3380059
0
LINE
8
0
10
-9.1335419
20
14.3380059
11
-9.1335419
21
14.3380059
0
LINE
8
0
10
-9.1335419
20
14.3380059
11
-9.1665027
21
14.3169559
0
LINE
8
0
10
-9.1665027
20
14.3169559
11
-9.1994151
21
14.2958302
0
LINE
8
0
10
-9.1994151
20
14.2958302
11
-9.2322788
21
14.2746288
0
LINE
8
0
10
-9.2322788
20
14.2746288
11
-9.2650936
21
14.2533519
0
LINE
8
0
10
-9.2650936
20
14.2533519
11
-9.2978594
21
14.2319995
0
LINE
8
0
10
-9.2978594
20
14.2319995
11
-9.330576
21
14.2105718
0
LINE
8
0
10
-9.330576
20
14.2105718
11
-9.3632432
21
14.1890689
0
LINE
8
0
10
-9.3632432
20
14.1890689
11
-9.3958608
21
14.167491
0
LINE
8
0
10
-9.3958608
20
14.167491
11
-9.4284287
21
14.145838
0
LINE
8
0
10
-9.4284287
20
14.145838
11
-9.4609467
21
14.1241101
0
LINE
8
0
10
-9.4609467
20
14.1241101
11
-9.4934147
21
14.1023075
0
LINE
8
0
10
-9.4934147
20
14.1023075
11
-9.5258324
21
14.0804303
0
LINE
8
0
10
-9.5258324
20
14.0804303
11
-9.5581996
21
14.0584786
0
LINE
8
0
10
-9.5581996
20
14.0584786
11
-9.5905163
21
14.0364524
0
LINE
8
0
10
-9.5905163
20
14.0364524
11
-9.6227823
21
14.014352
0
LINE
8
0
10
-9.6227823
20
14.014352
11
-9.6549973
21
13.9921774
0
LINE
8
0
10
-9.6549973
20
13.9921774
11
-9.6871612
21
13.9699287
0
LINE
8
0
10
-9.6871612
20
13.9699287
11
-9.7192738
21
13.9476061
0
LINE
8
0
10
-9.7192738
20
13.9476061
11
-9.751335
21
13.9252097
0
LINE
8
0
10
-9.751335
20
13.9252097
11
-9.751335
21
13.9252097
0
LINE
8
0
10
-9.751335
20
13.9252097
11
-9.7215858
21
13.7127389
0
LINE
8
0
10
-9.7215858
20
13.7127389
11
-9.6878756
21
13.5126118
0
LINE
8
0
10
-9.6878756
20
13.5126118
11
-9.6508656
21
13.3248756
0
LINE
8
0
10
-9.6508656
20
13.3248756
11
-9.6112162
21
13.1495505
0
LINE
8
0
10
-9.6112162
20
13.1495505
11
-9.5695862
21
12.9866295
0
LINE
8
0
10
-9.5695862
20
12.9866295
11
-9.5266318
21
12.8360787
0
LINE
8
0
10
-9.5266318
20
12.8360787
11
-9.4830053
21
12.6978375
0
LINE
8
0
10
-9.4830053
20
12.6978375
11
-9.4393547
21
12.5718185
0
LINE
8
0
10
-9.4393547
20
12.5718185
11
-9.3963221
21
12.457908
0
LINE
8
0
10
-9.3963221
20
12.457908
11
-9.3545433
21
12.355966
0
LINE
8
0
10
-9.3545433
20
12.355966
11
-9.3146463
21
12.2658269
0
LINE
8
0
10
-9.3146463
20
12.2658269
11
-9.2772509
21
12.1872993
0
LINE
8
0
10
-9.2772509
20
12.1872993
11
-9.2429673
21
12.1201666
0
LINE
8
0
10
-9.2429673
20
12.1201666
11
-9.2123954
21
12.0641876
0
LINE
8
0
10
-9.2123954
20
12.0641876
11
-9.1861241
21
12.0190963
0
LINE
8
0
10
-9.1861241
20
12.0190963
11
-9.1647299
21
11.9846032
0
LINE
8
0
10
-9.1647299
20
11.9846032
11
-9.1487764
21
11.9603949
0
LINE
8
0
10
-9.1487764
20
11.9603949
11
-9.1388134
21
11.9461351
0
LINE
8
0
10
-9.1388134
20
11.9461351
11
-9.1353761
21
11.9414653
0
LINE
8
0
10
-9.1353761
20
11.9414653
11
-8.9621592
21
11.7150417
0
LINE
8
0
10
-8.9621592
20
11.7150417
11
-8.9621592
21
11.7150417
0
LINE
8
0
10
-8.9621592
20
11.7150417
11
-9.0042542
21
11.6827182
0
LINE
8
0
10
-9.0042542
20
11.6827182
11
-9.0462327
21
11.6502435
0
LINE
8
0
10
-9.0462327
20
11.6502435
11
-9.0880941
21
11.6176179
0
LINE
8
0
10
-9.0880941
20
11.6176179
11
-9.1298378
21
11.5848419
0
LINE
8
0
10
-9.1298378
20
11.5848419
11
-9.1714634
21
11.5519159
0
LINE
8
0
10
-9.1714634
20
11.5519159
11
-9.2129701
21
11.5188403
0
LINE
8
0
10
-9.2129701
20
11.5188403
11
-9.2543576
21
11.4856156
0
LINE
8
0
10
-9.2543576
20
11.4856156
11
-9.2956253
21
11.4522422
0
LINE
8
0
10
-9.2956253
20
11.4522422
11
-9.3367726
21
11.4187205
0
LINE
8
0
10
-9.3367726
20
11.4187205
11
-9.377799
21
11.385051
0
LINE
8
0
10
-9.377799
20
11.385051
11
-9.418704
21
11.351234
0
LINE
8
0
10
-9.418704
20
11.351234
11
-9.4594871
21
11.3172702
0
LINE
8
0
10
-9.4594871
20
11.3172702
11
-9.5001477
21
11.2831597
0
LINE
8
0
10
-9.5001477
20
11.2831597
11
-9.5406853
21
11.2489032
0
LINE
8
0
10
-9.5406853
20
11.2489032
11
-9.5810994
21
11.2145011
0
LINE
8
0
10
-9.5810994
20
11.2145011
11
-9.6213894
21
11.1799538
0
LINE
8
0
10
-9.6213894
20
11.1799538
11
-9.6615549
21
11.1452617
0
LINE
8
0
10
-9.6615549
20
11.1452617
11
-9.7015952
21
11.1104253
0
LINE
8
0
10
-9.7015952
20
11.1104253
11
-9.74151
21
11.0754451
0
LINE
8
0
10
-9.74151
20
11.0754451
11
-9.74151
21
11.0754451
0
LINE
8
0
10
-9.74151
20
11.0754451
11
-9.9297899
21
11.2895067
0
LINE
8
0
10
-9.9297899
20
11.2895067
11
-9.9336994
21
11.293789
0
LINE
8
0
10
-9.9336994
20
11.293789
11
-9.9457415
21
11.3063425
0
LINE
8
0
10
-9.9457415
20
11.3063425
11
-9.9663723
21
11.3267123
0
LINE
8
0
10
-9.9663723
20
11.3267123
11
-9.9960289
21
11.3544247
0
LINE
8
0
10
-9.9960289
20
11.3544247
11
-10.0351284
21
11.3889881
0
LINE
8
0
10
-10.0351284
20
11.3889881
11
-10.0840676
21
11.4298935
0
LINE
8
0
10
-10.0840676
20
11.4298935
11
-10.1432219
21
11.4766152
0
LINE
8
0
10
-10.1432219
20
11.4766152
11
-10.2129451
21
11.5286121
0
LINE
8
0
10
-10.2129451
20
11.5286121
11
-10.2935688
21
11.5853277
0
LINE
8
0
10
-10.2935688
20
11.5853277
11
-10.3854013
21
11.6461917
0
LINE
8
0
10
-10.3854013
20
11.6461917
11
-10.4887278
21
11.7106202
0
LINE
8
0
10
-10.4887278
20
11.7106202
11
-10.6038096
21
11.7780172
0
LINE
8
0
10
-10.6038096
20
11.7780172
11
-10.7308834
21
11.8477749
0
LINE
8
0
10
-10.7308834
20
11.8477749
11
-10.8701614
21
11.919275
0
LINE
8
0
10
-10.8701614
20
11.919275
11
-11.0218303
21
11.9918894
0
LINE
8
0
10
-11.0218303
20
11.9918894
11
-11.1860514
21
12.0649812
0
LINE
8
0
10
-11.1860514
20
12.0649812
11
-11.36296
21
12.1379056
0
LINE
8
0
10
-11.36296
20
12.1379056
11
-11.5526652
21
12.2100109
0
LINE
8
0
10
-11.5526652
20
12.2100109
11
-11.7552496
21
12.2806395
0
LINE
8
0
10
-11.7552496
20
12.2806395
11
-11.7552496
21
12.2806395
0
LINE
8
0
10
-11.7552496
20
12.2806395
11
-11.7834705
21
12.2535637
0
LINE
8
0
10
-11.7834705
20
12.2535637
11
-11.811629
21
12.226423
0
LINE
8
0
10
-11.811629
20
12.226423
11
-11.8397251
21
12.1992176
0
LINE
8
0
10
-11.8397251
20
12.1992176
11
-11.8677584
21
12.1719476
0
LINE
8
0
10
-11.8677584
20
12.1719476
11
-11.895729
21
12.1446133
0
LINE
8
0
10
-11.895729
20
12.1446133
11
-11.9236366
21
12.1172146
0
LINE
8
0
10
-11.9236366
20
12.1172146
11
-11.9514811
21
12.0897518
0
LINE
8
0
10
-11.9514811
20
12.0897518
11
-11.9792623
21
12.0622251
0
LINE
8
0
10
-11.9792623
20
12.0622251
11
-12.0069802
21
12.0346345
0
LINE
8
0
10
-12.0069802
20
12.0346345
11
-12.0346345
21
12.0069802
0
LINE
8
0
10
-12.0346345
20
12.0069802
11
-12.0622251
21
11.9792623
0
LINE
8
0
10
-12.0622251
20
11.9792623
11
-12.0897518
21
11.9514811
0
LINE
8
0
10
-12.0897518
20
11.9514811
11
-12.1172146
21
11.9236366
0
LINE
8
0
10
-12.1172146
20
11.9236366
11
-12.1446133
21
11.895729
0
LINE
8
0
10
-12.1446133
20
11.895729
11
-12.1719476
21
11.8677584
0
LINE
8
0
10
-12.1719476
20
11.8677584
11
-12.1992176
21
11.8397251
0
LINE
8
0
10
-12.1992176
20
11.8397251
11
-12.226423
21
11.811629
0
LINE
8
0
10
-12.226423
20
11.811629
11
-12.2535637
21
11.7834705
0
LINE
8
0
10
-12.2535637
20
11.7834705
11
-12.2806395
21
11.7552496
0
LINE
8
0
10
-12.2806395
20
11.7552496
11
-12.2806395
21
11.7552496
0
LINE
8
0
10
-12.2806395
20
11.7552496
11
-12.2100109
21
11.5526652
0
LINE
8
0
10
-12.2100109
20
11.5526652
11
-12.1379056
21
11.36296
0
LINE
8
0
10
-12.1379056
20
11.36296
11
-12.0649812
21
11.1860514
0
LINE
8
0
10
-12.0649812
20
11.1860514
11
-11.9918894
21
11.0218303
0
LINE
8
0
10
-11.9918894
20
11.0218303
11
-11.919275
21
10.8701614
0
LINE
8
0
10
-11.919275
20
10.8701614
11
-11.8477749
21
10.7308834
0
LINE
8
0
10
-11.8477749
20
10.7308834
11
-11.7780172
21
10.6038096
0
LINE
8
0
10
-11.7780172
20
10.6038096
11
-11.7106202
21
10.4887278
0
LINE
8
0
10
-11.7106202
20
10.4887278
11
-11.6461917
21
10.3854013
0
LINE
8
0
10
-11.6461917
20
10.3854013
11
-11.5853277
21
10.2935688
0
LINE
8
0
10
-11.5853277
20
10.2935688
11
-11.5286121
21
10.2129451
0
LINE
8
0
10
-11.5286121
20
10.2129451
11
-11.4766152
21
10.1432219
0
LINE
8
0
10
-11.4766152
20
10.1432219
11
-11.4298935
21
10.0840676
0
LINE
8
0
10
-11.4298935
20
10.0840676
11
-11.3889881
21
10.0351284
0
LINE
8
0
10
-11.3889881
20
10.0351284
11
-11.3544247
21
9.9960289
0
LINE
8
0
10
-11.3544247
20
9.9960289
11
-11.3267123
21
9.9663723
0
LINE
8
0
10
-11.3267123
20
9.9663723
11
-11.3063425
21
9.9457415
0
LINE
8
0
10
-11.3063425
20
9.9457415
11
-11.293789
21
9.9336994
0
LINE
8
0
10
-11.293789
20
9.9336994
11
-11.2895067
21
9.9297899
0
LINE
8
0
10
-11.2895067
20
9.9297899
11
-11.0754451
21
9.74151
0
LINE
8
0
10
-11.0754451
20
9.74151
11
-11.0754451
21
9.74151
0
LINE
8
0
10
-11.0754451
20
9.74151
11
-11.1104253
21
9.7015952
0
LINE
8
0
10
-11.1104253
20
9.7015952
11
-11.1452617
21
9.6615549
0
LINE
8
0
10
-11.1452617
20
9.6615549
11
-11.1799538
21
9.6213894
0
LINE
8
0
10
-11.1799538
20
9.6213894
11
-11.2145011
21
9.5810994
0
LINE
8
0
10
-11.2145011
20
9.5810994
11
-11.2489032
21
9.5406853
0
LINE
8
0
10
-11.2489032
20
9.5406853
11
-11.2831597
21
9.5001477
0
LINE
8
0
10
-11.2831597
20
9.5001477
11
-11.3172702
21
9.4594871
0
LINE
8
0
10
-11.3172702
20
9.4594871
11
-11.351234
21
9.418704
0
LINE
8
0
10
-11.351234
20
9.418704
11
-11.385051
21
9.377799
0
LINE
8
0
10
-11.385051
20
9.377799
11
-11.4187205
21
9.3367726
0
LINE
8
0
10
-11.4187205
20
9.3367726
11
-11.4522422
21
9.2956253
0
LINE
8
0
10
-11.4522422
20
9.2956253
11
-11.4856156
21
9.2543576
0
LINE
8
0
10
-11.4856156
20
9.2543576
11
-11.5188403
21
9.2129701
0
LINE
8
0
10
-11.5188403
20
9.2129701
11
-11.5519159
21
9.1714634
0
LINE
8
0
10
-11.5519159
20
9.1714634
11
-11.5848419
21
9.1298378
0
LINE
8
0
10
-11.5848419
20
9.1298378
11
-11.6176179
21
9.0880941
0
LINE
8
0
10
-11.6176179
20
9.0880941
11
-11.6502435
21
9.0462327
0
LINE
8
0
10
-11.6502435
20
9.0462327
11
-11.6827182
21
9.0042542
0
LINE
8
0
10
-11.6827182
20
9.0042542
11
-11.7150417
21
8.9621592
0
LINE
8
0
10
-11.7150417
20
8.9621592
11
-11.7150417
21
8.9621592
0
LINE
8
0
10
-11.7150417
20
8.9621592
11
-11.9414653
21
9.1353761
0
LINE
8
0
10
-11.9414653
20
9.1353761
11
-11.9461351
21
9.1388134
0
LINE
8
0
10
-11.9461351
20
9.1388134
11
-11.9603949
21
9.1487764
0
LINE
8
0
10
-11.9603949
20
9.1487764
11
-11.9846032
21
9.1647299
0
LINE
8
0
10
-11.9846032
20
9.1647299
11
-12.0190963
21
9.1861241
0
LINE
8
0
10
-12.0190963
20
9.1861241
11
-12.0641876
21
9.2123954
0
LINE
8
0
10
-12.0641876
20
9.2123954
11
-12.1201666
21
9.2429673
0
LINE
8
0
10
-12.1201666
20
9.2429673
11
-12.1872993
21
9.2772509
0
LINE
8
0
10
-12.1872993
20
9.2772509
11
-12.2658269
21
9.3146463
0
LINE
8
0
10
-12.2658269
20
9.3146463
11
-12.355966
21
9.3545433
0
LINE
8
0
10
-12.355966
20
9.3545433
11
-12.457908
21
9.3963221
0
LINE
8
0
10
-12.457908
20
9.3963221
11
-12.5718185
21
9.4393547
0
LINE
8
0
10
-12.5718185
20
9.4393547
11
-12.6978375
21
9.4830053
0
LINE
8
0
10
-12.6978375
20
9.4830053
11
-12.8360787
21
9.5266318
0
LINE
8
0
10
-12.8360787
20
9.5266318
11
-12.9866295
21
9.5695862
0
LINE
8
0
10
-12.9866295
20
9.5695862
11
-13.1495505
21
9.6112162
0
LINE
8
0
10
-13.1495505
20
9.6112162
11
-13.3248756
21
9.6508656
0
LINE
8
0
10
-13.3248756
20
9.6508656
11
-13.5126118
21
9.6878756
0
LINE
8
0
10
-13.5126118
20
9.6878756
11
-13.7127389
21
9.7215858
0
LINE
8
0
10
-13.7127389
20
9.7215858
11
-13.9252097
21
9.751335
0
LINE
8
0
10
-13.9252097
20
9.751335
11
-13.9252097
21
9.751335
0
LINE
8
0
10
-13.9252097
20
9.751335
11
-13.9476061
21
9.7192738
0
LINE
8
0
10
-13.9476061
20
9.7192738
11
-13.9699287
21
9.6871612
0
LINE
8
0
10
-13.9699287
20
9.6871612
11
-13.9921774
21
9.6549973
0
LINE
8
0
10
-13.9921774
20
9.6549973
11
-14.014352
21
9.6227823
0
LINE
8
0
10
-14.014352
20
9.6227823
11
-14.0364524
21
9.5905163
0
LINE
8
0
10
-14.0364524
20
9.5905163
11
-14.0584786
21
9.5581996
0
LINE
8
0
10
-14.0584786
20
9.5581996
11
-14.0804303
21
9.5258324
0
LINE
8
0
10
-14.0804303
20
9.5258324
11
-14.1023075
21
9.4934147
0
LINE
8
0
10
-14.1023075
20
9.4934147
11
-14.1241101
21
9.4609467
0
LINE
8
0
10
-14.1241101
20
9.4609467
11
-14.145838
21
9.4284287
0
LINE
8
0
10
-14.145838
20
9.4284287
11
-14.167491
21
9.3958608
0
LINE
8
0
10
-14.167491
20
9.3958608
11
-14.1890689
21
9.3632432
0
LINE
8
0
10
-14.1890689
20
9.3632432
11
-14.2105718
21
9.330576
0
LINE
8
0
10
-14.2105718
20
9.330576
11
-14.2319995
21
9.2978594
0
LINE
8
0
10
-14.2319995
20
9.2978594
11
-14.2533519
21
9.2650936
0
LINE
8
0
10
-14.2533519
20
9.2650936
11
-14.2746288
21
9.2322788
0
LINE
8
0
10
-14.2746288
20
9.2322788
11
-14.2958302
21
9.1994151
0
LINE
8
0
10
-14.2958302
20
9.1994151
11
-14.3169559
21
9.1665027
0
LINE
8
0
10
-14.3169559
20
9.1665027
11
-14.3380059
21
9.1335419
0
LINE
8
0
10
-14.3380059
20
9.1335419
11
-14.3380059
21
9.1335419
0
LINE
8
0
10
-14.3380059
20
9.1335419
11
-14.2292121
21
8.948629
0
LINE
8
0
10
-14.2292121
20
8.948629
11
-14.1214826
21
8.776636
0
LINE
8
0
10
-14.1214826
20
8.776636
11
-14.0154463
21
8.6173535
0
LINE
8
0
10
-14.0154463
20
8.6173535
11
-13.911721
21
8.4705473
0
LINE
8
0
10
-13.911721
20
8.4705473
11
-13.8109128
21
8.3359591
0
LINE
8
0
10
-13.8109128
20
8.3359591
11
-13.7136148
21
8.2133063
0
LINE
8
0
10
-13.7136148
20
8.2133063
11
-13.6204065
21
8.1022832
0
LINE
8
0
10
-13.6204065
20
8.1022832
11
-13.5318532
21
8.0025612
0
LINE
8
0
10
-13.5318532
20
8.0025612
11
-13.4485047
21
7.9137894
0
LINE
8
0
10
-13.4485047
20
7.9137894
11
-13.3708945
21
7.8355954
0
LINE
8
0
10
-13.3708945
20
7.8355954
11
-13.2995398
21
7.7675856
0
LINE
8
0
10
-13.2995398
20
7.7675856
11
-13.2349397
21
7.7093462
0
LINE
8
0
10
-13.2349397
20
7.7093462
11
-13.1775752
21
7.6604434
0
LINE
8
0
10
-13.1775752
20
7.6604434
11
-13.1279083
21
7.6204249
0
LINE
8
0
10
-13.1279083
20
7.6204249
11
-13.0863811
21
7.5888196
0
LINE
8
0
10
-13.0863811
20
7.5888196
11
-13.0534154
21
7.5651393
0
LINE
8
0
10
-13.0534154
20
7.5651393
11
-13.0294122
21
7.5488789
0
LINE
8
0
10
-13.0294122
20
7.5488789
11
-13.0147507
21
7.5395172
0
LINE
8
0
10
-13.0147507
20
7.5395172
11
-13.0097879
21
7.5365183
0
LINE
8
0
10
-13.0097879
20
7.5365183
11
-12.7631078
21
7.3936175
0
LINE
8
0
10
-12.7631078
20
7.3936175
11
-12.7631078
21
7.3936175
0
LINE
8
0
10
-12.7631078
20
7.3936175
11
-12.7896289
21
7.3476453
0
LINE
8
0
10
-12.7896289
20
7.3476453
11
-12.8159844
21
7.3015781
0
LINE
8
0
10
-12.8159844
20
7.3015781
11
-12.842174
21
7.2554163
0
LINE
8
0
10
-12.842174
20
7.2554163
11
-12.8681974
21
7.2091606
0
LINE
8
0
10
-12.8681974
20
7.2091606
11
-12.8940541
21
7.1628115
0
LINE
8
0
10
-12.8940541
20
7.1628115
11
-12.9197439
21
7.1163698
0
LINE
8
0
10
-12.9197439
20
7.1163698
11
-12.9452664
21
7.0698358
0
LINE
8
0
10
-12.9452664
20
7.0698358
11
-12.9706213
21
7.0232104
0
LINE
8
0
10
-12.9706213
20
7.0232104
11
-12.9958082
21
6.976494
0
LINE
8
0
10
-12.9958082
20
6.976494
11
-13.020827
21
6.9296873
0
LINE
8
0
10
-13.020827
20
6.9296873
11
-13.0456771
21
6.8827908
0
LINE
8
0
10
-13.0456771
20
6.8827908
11
-13.0703583
21
6.8358053
0
LINE
8
0
10
-13.0703583
20
6.8358053
11
-13.0948703
21
6.7887312
0
LINE
8
0
10
-13.0948703
20
6.7887312
11
-13.1192128
21
6.7415693
0
LINE
8
0
10
-13.1192128
20
6.7415693
11
-13.1433854
21
6.69432
0
LINE
8
0
10
-13.1433854
20
6.69432
11
-13.1673878
21
6.6469841
0
LINE
8
0
10
-13.1673878
20
6.6469841
11
-13.1912198
21
6.5995622
0
LINE
8
0
10
-13.1912198
20
6.5995622
11
-13.2148809
21
6.5520548
0
LINE
8
0
10
-13.2148809
20
6.5520548
11
-13.238371
21
6.5044625
0
LINE
8
0
10
-13.238371
20
6.5044625
11
-13.238371
21
6.5044625
0
LINE
8
0
10
-13.238371
20
6.5044625
11
-13.4942368
21
6.6301781
0
LINE
8
0
10
-13.4942368
20
6.6301781
11
-13.4994875
21
6.6326383
0
LINE
8
0
10
-13.4994875
20
6.6326383
11
-13.515417
21
6.6396279
0
LINE
8
0
10
-13.515417
20
6.6396279
11
-13.5422725
21
6.6505521
0
LINE
8
0
10
-13.5422725
20
6.6505521
11
-13.5802767
21
6.6648059
0
LINE
8
0
10
-13.5802767
20
6.6648059
11
-13.6296268
21
6.6817756
0
LINE
8
0
10
-13.6296268
20
6.6817756
11
-13.6904945
21
6.700839
0
LINE
8
0
10
-13.6904945
20
6.700839
11
-13.7630256
21
6.721367
0
LINE
8
0
10
-13.7630256
20
6.721367
11
-13.8473398
21
6.7427239
0
LINE
8
0
10
-13.8473398
20
6.7427239
11
-13.9435305
21
6.7642689
0
LINE
8
0
10
-13.9435305
20
6.7642689
11
-14.0516643
21
6.7853571
0
LINE
8
0
10
-14.0516643
20
6.7853571
11
-14.1717813
21
6.80534
0
LINE
8
0
10
-14.1717813
20
6.80534
11
-14.3038947
21
6.8235668
0
LINE
8
0
10
-14.3038947
20
6.8235668
11
-14.4479907
21
6.8393855
0
LINE
8
0
10
-14.4479907
20
6.8393855
11
-14.6040287
21
6.8521436
0
LINE
8
0
10
-14.6040287
20
6.8521436
11
-14.7719408
21
6.8611894
0
LINE
8
0
10
-14.7719408
20
6.8611894
11
-14.9516323
21
6.8658727
0
LINE
8
0
10
-14.9516323
20
6.8658727
11
-15.1429815
21
6.865546
0
LINE
8
0
10
-15.1429815
20
6.865546
11
-15.3458398
21
6.8595656
0
LINE
8
0
10
-15.3458398
20
6.8595656
11
-15.5600318
21
6.8472922
0
LINE
8
0
10
-15.5600318
20
6.8472922
11
-15.5600318
21
6.8472922
0
LINE
8
0
10
-15.5600318
20
6.8472922
11
-15.575743
21
6.8114777
0
LINE
8
0
10
-15.575743
20
6.8114777
11
-15.5913718
21
6.7756272
0
LINE
8
0
10
-15.5913718
20
6.7756272
11
-15.6069181
21
6.7397408
0
LINE
8
0
10
-15.6069181
20
6.7397408
11
-15.6223818
21
6.7038188
0
LINE
8
0
10
-15.6223818
20
6.7038188
11
-15.6377628
21
6.6678612
0
LINE
8
0
10
-15.6377628
20
6.6678612
11
-15.6530611
21
6.6318684
0
LINE
8
0
10
-15.6530611
20
6.6318684
11
-15.6682765
21
6.5958405
0
LINE
8
0
10
-15.6682765
20
6.5958405
11
-15.683409
21
6.5597776
0
LINE
8
0
10
-15.683409
20
6.5597776
11
-15.6984585
21
6.5236801
0
LINE
8
0
10
-15.6984585
20
6.5236801
11
-15.7134249
21
6.487548
0
LINE
8
0
10
-15.7134249
20
6.487548
11
-15.7283081
21
6.4513816
0
LINE
8
0
10
-15.7283081
20
6.4513816
11
-15.7431081
21
6.415181
0
LINE
8
0
10
-15.7431081
20
6.415181
11
-15.7578248
21
6.3789465
0
LINE
8
0
10
-15.7578248
20
6.3789465
11
-15.772458
21
6.3426783
0
LINE
8
0
10
-15.772458
20
6.3426783
11
-15.7870078
21
6.3063764
0
LINE
8
0
10
-15.7870078
20
6.3063764
11
-15.8014741
21
6.2700412
0
LINE
8
0
10
-15.8014741
20
6.2700412
11
-15.8158567
21
6.2336728
0
LINE
8
0
10
-15.8158567
20
6.2336728
11
-15.8301556
21
6.1972714
0
LINE
8
0
10
-15.8301556
20
6.1972714
11
-15.8443708
21
6.1608372
0
LINE
8
0
10
-15.8443708
20
6.1608372
11
-15.8443708
21
6.1608372
0
LINE
8
0
10
-15.8443708
20
6.1608372
11
-15.7015927
21
6.000702
0
LINE
8
0
10
-15.7015927
20
6.000702
11
-15.5623791
21
5.8530308
0
LINE
8
0
10
-15.5623791
20
5.8530308
11
-15.4273057
21
5.7174955
0
LINE
8
0
10
-15.4273057
20
5.7174955
11
-15.296933
21
5.593746
0
LINE
8
0
10
-15.296933
20
5.593746
11
-15.1718049
21
5.4814105
0
LINE
8
0
10
-15.1718049
20
5.4814105
11
-15.0524481
21
5.3800964
0
LINE
8
0
10
-15.0524481
20
5.3800964
11
-14.9393713
21
5.2893906
0
LINE
8
0
10
-14.9393713
20
5.2893906
11
-14.8330647
21
5.2088606
0
LINE
8
0
10
-14.8330647
20
5.2088606
11
-14.7339991
21
5.1380551
0
LINE
8
0
10
-14.7339991
20
5.1380551
11
-14.6426254
21
5.0765045
0
LINE
8
0
10
-14.6426254
20
5.0765045
11
-14.5593737
21
5.0237221
0
LINE
8
0
10
-14.5593737
20
5.0237221
11
-14.4846529
21
4.9792046
0
LINE
8
0
10
-14.4846529
20
4.9792046
11
-14.4188502
21
4.9424328
0
LINE
8
0
10
-14.4188502
20
4.9424328
11
-14.3623304
21
4.9128727
0
LINE
8
0
10
-14.3623304
20
4.9128727
11
-14.3154352
21
4.8899763
0
LINE
8
0
10
-14.3154352
20
4.8899763
11
-14.2784832
21
4.8731823
0
LINE
8
0
10
-14.2784832
20
4.8731823
11
-14.2517689
21
4.861917
0
LINE
8
0
10
-14.2517689
20
4.861917
11
-14.2355627
21
4.8555956
0
LINE
8
0
10
-14.2355627
20
4.8555956
11
-14.2301103
21
4.8536225
0
LINE
8
0
10
-14.2301103
20
4.8536225
11
-13.9602915
21
4.7615924
0
LINE
8
0
10
-13.9602915
20
4.7615924
11
-13.9602915
21
4.7615924
0
LINE
8
0
10
-13.9602915
20
4.7615924
11
-13.9773343
21
4.7113296
0
LINE
8
0
10
-13.9773343
20
4.7113296
11
-13.9941961
21
4.6610058
0
LINE
8
0
10
-13.9941961
20
4.6610058
11
-14.0108768
21
4.6106217
0
LINE
8
0
10
-14.0108768
20
4.6106217
11
-14.027376
21
4.5601778
0
LINE
8
0
10
-14.027376
20
4.5601778
11
-14.0436937
21
4.509675
0
LINE
8
0
10
-14.0436937
20
4.509675
11
-14.0598295
21
4.4591137
0
LINE
8
0
10
-14.0598295
20
4.4591137
11
-14.0757833
21
4.4084947
0
LINE
8
0
10
-14.0757833
20
4.4084947
11
-14.0915548
21
4.3578187
0
LINE
8
0
10
-14.0915548
20
4.3578187
11
-14.1071439
21
4.3070862
0
LINE
8
0
10
-14.1071439
20
4.3070862
11
-14.1225503
21
4.2562979
0
LINE
8
0
10
-14.1225503
20
4.2562979
11
-14.1377739
21
4.2054546
0
LINE
8
0
10
-14.1377739
20
4.2054546
11
-14.1528145
21
4.1545568
0
LINE
8
0
10
-14.1528145
20
4.1545568
11
-14.1676718
21
4.1036052
0
LINE
8
0
10
-14.1676718
20
4.1036052
11
-14.1823457
21
4.0526005
0
LINE
8
0
10
-14.1823457
20
4.0526005
11
-14.196836
21
4.0015433
0
LINE
8
0
10
-14.196836
20
4.0015433
11
-14.2111424
21
3.9504343
0
LINE
8
0
10
-14.2111424
20
3.9504343
11
-14.2252649
21
3.8992741
0
LINE
8
0
10
-14.2252649
20
3.8992741
11
-14.2392032
21
3.8480635
0
LINE
8
0
10
-14.2392032
20
3.8480635
11
-14.2529571
21
3.796803
0
LINE
8
0
10
-14.2529571
20
3.796803
11
-14.2529571
21
3.796803
0
LINE
8
0
10
-14.2529571
20
3.796803
11
-14.5284324
21
3.8701861
0
LINE
8
0
10
-14.5284324
20
3.8701861
11
-14.5340622
21
3.8715747
0
LINE
8
0
10
-14.5340622
20
3.8715747
11
-14.5510492
21
3.8753223
0
LINE
8
0
10
-14.5510492
20
3.8753223
11
-14.5795199
21
3.8807973
0
LINE
8
0
10
-14.5795199
20
3.8807973
11
-14.6195746
21
3.887363
0
LINE
8
0
10
-14.6195746
20
3.887363
11
-14.6712871
21
3.8943789
0
LINE
8
0
10
-14.6712871
20
3.8943789
11
-14.7347043
21
3.9012013
0
LINE
8
0
10
-14.7347043
20
3.9012013
11
-14.8098466
21
3.9071847
0
LINE
8
0
10
-14.8098466
20
3.9071847
11
-14.8967073
21
3.9116823
0
LINE
8
0
10
-14.8967073
20
3.9116823
11
-14.9952528
21
3.9140476
0
LINE
8
0
10
-14.9952528
20
3.9140476
11
-15.105423
21
3.9136347
0
LINE
8
0
10
-15.105423
20
3.9136347
11
-15.2271304
21
3.9097999
0
LINE
8
0
10
-15.2271304
20
3.9097999
11
-15.3602612
21
3.9019025
0
LINE
8
0
10
-15.3602612
20
3.9019025
11
-15.5046745
21
3.8893054
0
LINE
8
0
10
-15.5046745
20
3.8893054
11
-15.6602033
21
3.8713769
0
LINE
8
0
10
-15.6602033
20
3.8713769
11
-15.8266537
21
3.8474908
0
LINE
8
0
10
-15.8266537
20
3.8474908
11
-16.0038062
21
3.8170281
0
LINE
8
0
10
-16.0038062
20
3.8170281
11
-16.1914149
21
3.7793773
0
LINE
8
0
10
-16.1914149
20
3.7793773
11
-16.3892086
21
3.7339361
0
LINE
8
0
10
-16.3892086
20
3.7339361
11
-16.5968906
21
3.6801118
0
LINE
8
0
10
-16.5968906
20
3.6801118
11
-16.5968906
21
3.6801118
0
LINE
8
0
10
-16.5968906
20
3.6801118
11
-16.6053129
21
3.6419204
0
LINE
8
0
10
-16.6053129
20
3.6419204
11
-16.6136473
21
3.6037097
0
LINE
8
0
10
-16.6136473
20
3.6037097
11
-16.6218938
21
3.5654799
0
LINE
8
0
10
-16.6218938
20
3.5654799
11
-16.6300523
21
3.5272313
0
LINE
8
0
10
-16.6300523
20
3.5272313
11
-16.6381228
21
3.488964
0
LINE
8
0
10
-16.6381228
20
3.488964
11
-16.6461053
21
3.4506782
0
LINE
8
0
10
-16.6461053
20
3.4506782
11
-16.6539996
21
3.4123741
0
LINE
8
0
10
-16.6539996
20
3.4123741
11
-16.6618058
21
3.374052
0
LINE
8
0
10
-16.6618058
20
3.374052
11
-16.6695238
21
3.3357121
0
LINE
8
0
10
-16.6695238
20
3.3357121
11
-16.6771536
21
3.2973545
0
LINE
8
0
10
-16.6771536
20
3.2973545
11
-16.6846952
21
3.2589794
0
LINE
8
0
10
-16.6846952
20
3.2589794
11
-16.6921484
21
3.2205871
0
LINE
8
0
10
-16.6921484
20
3.2205871
11
-16.6995133
21
3.1821778
0
LINE
8
0
10
-16.6995133
20
3.1821778
11
-16.7067898
21
3.1437516
0
LINE
8
0
10
-16.7067898
20
3.1437516
11
-16.7139779
21
3.1053087
0
LINE
8
0
10
-16.7139779
20
3.1053087
11
-16.7210775
21
3.0668495
0
LINE
8
0
10
-16.7210775
20
3.0668495
11
-16.7280887
21
3.028374
0
LINE
8
0
10
-16.7280887
20
3.028374
11
-16.7350113
21
2.9898824
0
LINE
8
0
10
-16.7350113
20
2.9898824
11
-16.7418453
21
2.9513751
0
LINE
8
0
10
-16.7418453
20
2.9513751
11
-16.7418453
21
2.9513751
0
LINE
8
0
10
-16.7418453
20
2.9513751
11
-16.5705699
21
2.8221714
0
LINE
8
0
10
-16.5705699
20
2.8221714
11
-16.405222
21
2.7044969
0
LINE
8
0
10
-16.405222
20
2.7044969
11
-16.2463024
21
2.5979174
0
LINE
8
0
10
-16.2463024
20
2.5979174
11
-16.0942925
21
2.5019801
0
LINE
8
0
10
-16.0942925
20
2.5019801
11
-15.9496531
21
2.4162144
0
LINE
8
0
10
-15.9496531
20
2.4162144
11
-15.8128242
21
2.3401324
0
LINE
8
0
10
-15.8128242
20
2.3401324
11
-15.6842244
21
2.2732296
0
LINE
8
0
10
-15.6842244
20
2.2732296
11
-15.5642498
21
2.2149864
0
LINE
8
0
10
-15.5642498
20
2.2149864
11
-15.4532743
21
2.1648681
0
LINE
8
0
10
-15.4532743
20
2.1648681
11
-15.3516483
21
2.1223264
0
LINE
8
0
10
-15.3516483
20
2.1223264
11
-15.2596989
21
2.0867998
0
LINE
8
0
10
-15.2596989
20
2.0867998
11
-15.177729
21
2.057715
0
LINE
8
0
10
-15.177729
20
2.057715
11
-15.1060169
21
2.0344872
0
LINE
8
0
10
-15.1060169
20
2.0344872
11
-15.0448161
21
2.0165216
0
LINE
8
0
10
-15.0448161
20
2.0165216
11
-14.9943552
21
2.0032139
0
LINE
8
0
10
-14.9943552
20
2.0032139
11
-14.9548368
21
1.9939515
0
LINE
8
0
10
-14.9548368
20
1.9939515
11
-14.9264381
21
1.9881145
0
LINE
8
0
10
-14.9264381
20
1.9881145
11
-14.9093101
21
1.9850762
0
LINE
8
0
10
-14.9093101
20
1.9850762
11
-14.9035774
21
1.9842047
0
LINE
8
0
10
-14.9035774
20
1.9842047
11
-14.620989
21
1.9465819
0
LINE
8
0
10
-14.620989
20
1.9465819
11
-14.620989
21
1.9465819
0
LINE
8
0
10
-14.620989
20
1.9465819
11
-14.6278985
21
1.8939601
0
LINE
8
0
10
-14.6278985
20
1.8939601
11
-14.6346187
21
1.8413136
0
LINE
8
0
10
-14.6346187
20
1.8413136
11
-14.6411494
21
1.7886434
0
LINE
8
0
10
-14.6411494
20
1.7886434
11
-14.6474905
21
1.73595
0
LINE
8
0
10
-14.6474905
20
1.73595
11
-14.653642
21
1.6832341
0
LINE
8
0
10
-14.653642
20
1.6832341
11
-14.6596037
21
1.6304964
0
LINE
8
0
10
-14.6596037
20
1.6304964
11
-14.6653757
21
1.5777377
0
LINE
8
0
10
-14.6653757
20
1.5777377
11
-14.6709578
21
1.5249584
0
LINE
8
0
10
-14.6709578
20
1.5249584
11
-14.6763499
21
1.4721595
0
LINE
8
0
10
-14.6763499
20
1.4721595
11
-14.681552
21
1.4193415
0
LINE
8
0
10
-14.681552
20
1.4193415
11
-14.6865641
21
1.3665051
0
LINE
8
0
10
-14.6865641
20
1.3665051
11
-14.6913859
21
1.313651
0
LINE
8
0
10
-14.6913859
20
1.313651
11
-14.6960176
21
1.2607799
0
LINE
8
0
10
-14.6960176
20
1.2607799
11
-14.700459
21
1.2078925
0
LINE
8
0
10
-14.700459
20
1.2078925
11
-14.7047101
21
1.1549894
0
LINE
8
0
10
-14.7047101
20
1.1549894
11
-14.7087708
21
1.1020714
0
LINE
8
0
10
-14.7087708
20
1.1020714
11
-14.7126411
21
1.0491392
0
LINE
8
0
10
-14.7126411
20
1.0491392
11
-14.7163208
21
0.9961933
0
LINE
8
0
10
-14.7163208
20
0.9961933
11
-14.7198101
21
0.9432345
0
LINE
8
0
10
-14.7198101
20
0.9432345
11
-14.7198101
21
0.9432345
0
LINE
8
0
10
-14.7198101
20
0.9432345
11
-15.0043085
21
0.961465
0
LINE
8
0
10
-15.0043085
20
0.961465
11
-15.010101
21
0.9617286
0
LINE
8
0
10
-15.010101
20
0.9617286
11
-15.0274927
21
0.9620902
0
LINE
8
0
10
-15.0274927
20
0.9620902
11
-15.0564845
21
0.9619056
0
LINE
8
0
10
-15.0564845
20
0.9619056
11
-15.0970505
21
0.9605309
0
LINE
8
0
10
-15.0970505
20
0.9605309
11
-15.149138
21
0.9573234
0
LINE
8
0
10
-15.149138
20
0.9573234
11
-15.2126677
21
0.9516426
0
LINE
8
0
10
-15.2126677
20
0.9516426
11
-15.2875334
21
0.9428515
0
LINE
8
0
10
-15.2875334
20
0.9428515
11
-15.3736026
21
0.930317
0
LINE
8
0
10
-15.3736026
20
0.930317
11
-15.4707161
21
0.9134115
0
LINE
8
0
10
-15.4707161
20
0.9134115
11
-15.5786888
21
0.8915135
0
LINE
8
0
10
-15.5786888
20
0.8915135
11
-15.6973095
21
0.8640084
0
LINE
8
0
10
-15.6973095
20
0.8640084
11
-15.8263415
21
0.8302902
0
LINE
8
0
10
-15.8263415
20
0.8302902
11
-15.9655224
21
0.7897616
0
LINE
8
0
10
-15.9655224
20
0.7897616
11
-16.114565
21
0.7418354
0
LINE
8
0
10
-16.114565
20
0.7418354
11
-16.2731572
21
0.6859354
0
LINE
8
0
10
-16.2731572
20
0.6859354
11
-16.4409628
21
0.6214972
0
LINE
8
0
10
-16.4409628
20
0.6214972
11
-16.6176214
21
0.5479693
0
LINE
8
0
10
-16.6176214
20
0.5479693
11
-16.8027494
21
0.4648136
0
LINE
8
0
10
-16.8027494
20
0.4648136
11
-16.9959402
21
0.3715068
0
LINE
8
0
10
-16.9959402
20
0.3715068
11
-16.9959402
21
0.3715068
0
LINE
8
0
10
-16.9959402
20
0.3715068
11
-16.9967499
21
0.3324061
0
LINE
8
0
10
-16.9967499
20
0.3324061
11
-16.9974696
21
0.2933036
0
LINE
8
0
10
-16.9974696
20
0.2933036
11
-16.9980994
21
0.2541996
0
LINE
8
0
10
-16.9980994
20
0.2541996
11
-16.9986392
21
0.2150942
0
LINE
8
0
10
-16.9986392
20
0.2150942
11
-16.999089
21
0.1759878
0
LINE
8
0
10
-16.999089
20
0.1759878
11
-16.9994489
21
0.1368803
0
LINE
8
0
10
-16.9994489
20
0.1368803
11
-16.9997188
21
0.0977722
0
LINE
8
0
10
-16.9997188
20
0.0977722
11
-16.9998988
21
0.0586635
0
LINE
8
0
10
-16.9998988
20
0.0586635
11
-16.9999888
21
0.0195545
0
LINE
8
0
10
-16.9999888
20
0.0195545
11
-16.9999888
21
-0.0195545
0
LINE
8
0
10
-16.9999888
20
-0.0195545
11
-16.9998988
21
-0.0586635
0
LINE
8
0
10
-16.9998988
20
-0.0586635
11
-16.9997188
21
-0.0977722
0
LINE
8
0
10
-16.9997188
20
-0.0977722
11
-16.9994489
21
-0.1368803
0
LINE
8
0
10
-16.9994489
20
-0.1368803
11
-16.999089
21
-0.1759878
0
LINE
8
0
10
-16.999089
20
-0.1759878
11
-16.9986392
21
-0.2150942
0
LINE
8
0
10
-16.9986392
20
-0.2150942
11
-16.9980994
21
-0.2541996
0
LINE
8
0
10
-16.9980994
20
-0.2541996
11
-16.9974696
21
-0.2933036
0
LINE
8
0
10
-16.9974696
20
-0.2933036
11
-16.9967499
21
-0.3324061
0
LINE
8
0
10
-16.9967499
20
-0.3324061
11
-16.9959402
21
-0.3715068
0
LINE
8
0
10
-16.9959402
20
-0.3715068
11
-16.9959402
21
-0.3715068
0
LINE
8
0
10
-16.9959402
20
-0.3715068
11
-16.8027494
21
-0.4648136
0
LINE
8
0
10
-16.8027494
20
-0.4648136
11
-16.6176214
21
-0.5479693
0
LINE
8
0
10
-16.6176214
20
-0.5479693
11
-16.4409628
21
-0.6214972
0
LINE
8
0
10
-16.4409628
20
-0.6214972
11
-16.2731572
21
-0.6859354
0
LINE
8
0
10
-16.2731572
20
-0.6859354
11
-16.114565
21
-0.7418354
0
LINE
8
0
10
-16.114565
20
-0.7418354
11
-15.9655224
21
-0.7897616
0
LINE
8
0
10
-15.9655224
20
-0.7897616
11
-15.8263415
21
-0.8302902
0
LINE
8
0
10
-15.8263415
20
-0.8302902
11
-15.6973095
21
-0.8640084
0
LINE
8
0
10
-15.6973095
20
-0.8640084
11
-15.5786888
21
-0.8915135
0
LINE
8
0
10
-15.5786888
20
-0.8915135
11
-15.4707161
21
-0.9134115
0
LINE
8
0
10
-15.4707161
20
-0.9134115
11
-15.3736026
21
-0.930317
0
LINE
8
0
10
-15.3736026
20
-0.930317
11
-15.2875334
21
-0.9428515
0
LINE
8
0
10
-15.2875334
20
-0.9428515
11
-15.2126677
21
-0.9516426
0
LINE
8
0
10
-15.2126677
20
-0.9516426
11
-15.149138
21
-0.9573234
0
LINE
8
0
10
-15.149138
20
-0.9573234
11
-15.0970505
21
-0.9605309
0
LINE
8
0
10
-15.0970505
20
-0.9605309
11
-15.0564845
21
-0.9619056
0
LINE
8
0
10
-15.0564845
20
-0.9619056
11
-15.0274927
21
-0.9620902
0
LINE
8
0
10
-15.0274927
20
-0.9620902
11
-15.010101
21
-0.9617286
0
LINE
8
0
10
-15.010101
20
-0.9617286
11
-15.0043085
21
-0.961465
0
LINE
8
0
10
-15.0043085
20
-0.961465
11
-14.7198101
21
-0.9432345
0
LINE
8
0
10
-14.7198101
20
-0.9432345
11
-14.7198101
21
-0.9432345
0
LINE
8
0
10
-14.7198101
20
-0.9432345
11
-14.7163208
21
-0.9961933
0
LINE
8
0
10
-14.7163208
20
-0.9961933
11
-14.7126411
21
-1.0491392
0
LINE
8
0
10
-14.7126411
20
-1.0491392
11
-14.7087708
21
-1.1020714
0
LINE
8
0
10
-14.7087708
20
-1.1020714
11
-14.7047101
21
-1.1549894
0
LINE
8
0
10
-14.7047101
20
-1.1549894
11
-14.700459
21
-1.2078925
0
LINE
8
0
10
-14.700459
20
-1.2078925
11
-14.6960176
21
-1.2607799
0
LINE
8
0
10
-14.6960176
20
-1.2607799
11
-14.6913859
21
-1.313651
0
LINE
8
0
10
-14.6913859
20
-1.313651
11
-14.6865641
21
-1.3665051
0
LINE
8
0
10
-14.6865641
20
-1.3665051
11
-14.681552
21
-1.4193415
0
LINE
8
0
10
-14.681552
20
-1.4193415
11
-14.6763499
21
-1.4721595
0
LINE
8
0
10
-14.6763499
20
-1.4721595
11
-14.6709578
21
-1.5249584
0
LINE
8
0
10
-14.6709578
20
-1.5249584
11
-14.6653757
21
-1.5777377
0
LINE
8
0
10
-14.6653757
20
-1.5777377
11
-14.6596037
21
-1.6304964
0
LINE
8
0
10
-14.6596037
20
-1.6304964
11
-14.653642
21
-1.6832341
0
LINE
8
0
10
-14.653642
20
-1.6832341
11
-14.6474905
21
-1.73595
0
LINE
8
0
10
-14.6474905
20
-1.73595
11
-14.6411494
21
-1.7886434
0
LINE
8
0
10
-14.6411494
20
-1.7886434
11
-14.6346187
21
-1.8413136
0
LINE
8
0
10
-14.6346187
20
-1.8413136
11
-14.6278985
21
-1.8939601
0
LINE
8
0
10
-14.6278985
20
-1.8939601
11
-14.620989
21
-1.9465819
0
LINE
8
0
10
-14.620989
20
-1.9465819
11
-14.620989
21
-1.9465819
0
LINE
8
0
10
-14.620989
20
-1.9465819
11
-14.9035774
21
-1.9842047
0
LINE
8
0
10
-14.9035774
20
-1.9842047
11
-14.9093101
21
-1.9850762
0
LINE
8
0
10
-14.9093101
20
-1.9850762
11
-14.9264381
21
-1.9881145
0
LINE
8
0
10
-14.9264381
20
-1.9881145
11
-14.9548368
21
-1.9939515
0
LINE
8
0
10
-14.9548368
20
-1.9939515
11
-14.9943552
21
-2.0032139
0
LINE
8
0
10
-14.9943552
20
-2.0032139
11
-15.0448161
21
-2.0165216
0
LINE
8
0
10
-15.0448161
20
-2.0165216
11
-15.1060169
21
-2.0344872
0
LINE
8
0
10
-15.1060169
20
-2.0344872
11
-15.177729
21
-2.057715
0
LINE
8
0
10
-15.177729
20
-2.057715
11
-15.2596989
21
-2.0867998
0
LINE
8
0
10
-15.2596989
20
-2.0867998
11
-15.3516483
21
-2.1223264
0
LINE
8
0
10
-15.3516483
20
-2.1223264
11
-15.4532743
21
-2.1648681
0
LINE
8
0
10
-15.4532743
20
-2.1648681
11
-15.5642498
21
-2.2149864
0
LINE
8
0
10
-15.5642498
20
-2.2149864
11
-15.6842244
21
-2.2732296
0
LINE
8
0
10
-15.6842244
20
-2.2732296
11
-15.8128242
21
-2.3401324
0
LINE
8
0
10
-15.8128242
20
-2.3401324
11
-15.9496531
21
-2.4162144
0
LINE
8
0
10
-15.9496531
20
-2.4162144
11
-16.0942925
21
-2.5019801
0
LINE
8
0
10
-16.0942925
20
-2.5019801
11
-16.2463024
21
-2.5979174
0
LINE
8
0
10
-16.2463024
20
-2.5979174
11
-16.405222
21
-2.7044969
0
LINE
8
0
10
-16.405222
20
-2.7044969
11
-16.5705699
21
-2.8221714
0
LINE
8
0
10
-16.5705699
20
-2.8221714
11
-16.7418453
21
-2.9513751
0
LINE
8
0
10
-16.7418453
20
-2.9513751
11
-16.7418453
21
-2.9513751
0
LINE
8
0
10
-16.7418453
20
-2.9513751
11
-16.7350113
21
-2.9898824
0
LINE
8
0
10
-16.7350113
20
-2.9898824
11
-16.7280887
21
-3.028374
0
LINE
8
0
10
-16.7280887
20
-3.028374
11
-16.7210775
21
-3.0668495
0
LINE
8
0
10
-16.7210775
20
-3.0668495
11
-16.7139779
21
-3.1053087
0
LINE
8
0
10
-16.7139779
20
-3.1053087
11
-16.7067898
21
-3.1437516
0
LINE
8
0
10
-16.7067898
20
-3.1437516
11
-16.6995133
21
-3.1821778
0
LINE
8
0
10
-16.6995133
20
-3.1821778
11
-16.6921484
21
-3.2205871
0
LINE
8
0
10
-16.6921484
20
-3.2205871
11
-16.6846952
21
-3.2589794
0
LINE
8
0
10
-16.6846952
20
-3.2589794
11
-16.6771536
21
-3.2973545
0
LINE
8
0
10
-16.6771536
20
-3.2973545
11
-16.6695238
21
-3.3357121
0
LINE
8
0
10
-16.6695238
20
-3.3357121
11
-16.6618058
21
-3.374052
0
LINE
8
0
10
-16.6618058
20
-3.374052
11
-16.6539996
21
-3.4123741
0
LINE
8
0
10
-16.6539996
20
-3.4123741
11
-16.6461053
21
-3.4506782
0
LINE
8
0
10
-16.6461053
20
-3.4506782
11
-16.6381228
21
-3.488964
0
LINE
8
0
10
-16.6381228
20
-3.488964
11
-16.6300523
21
-3.5272313
0
LINE
8
0
10
-16.6300523
20
-3.5272313
11
-16.6218938
21
-3.5654799
0
LINE
8
0
10
-16.6218938
20
-3.5654799
11
-16.6136473
21
-3.6037097
0
LINE
8
0
10
-16.6136473
20
-3.6037097
11
-16.6053129
21
-3.6419204
0
LINE
8
0
10
-16.6053129
20
-3.6419204
11
-16.5968906
21
-3.6801118
0
LINE
8
0
10
-16.5968906
20
-3.6801118
11
-16.5968906
21
-3.6801118
0
LINE
8
0
10
-16.5968906
20
-3.6801118
11
-16.3892086
21
-3.7339361
0
LINE
8
0
10
-16.3892086
20
-3.7339361
11
-16.1914149
21
-3.7793773
0
LINE
8
0
10
-16.1914149
20
-3.7793773
11
-16.0038062
21
-3.8170281
0
LINE
8
0
10
-16.0038062
20
-3.8170281
11
-15.8266537
21
-3.8474908
0
LINE
8
0
10
-15.8266537
20
-3.8474908
11
-15.6602033
21
-3.8713769
0
LINE
8
0
10
-15.6602033
20
-3.8713769
11
-15.5046745
21
-3.8893054
0
LINE
8
0
10
-15.5046745
20
-3.8893054
11
-15.3602612
21
-3.9019025
0
LINE
8
0
10
-15.3602612
20
-3.9019025
11
-15.2271304
21
-3.9097999
0
LINE
8
0
10
-15.2271304
20
-3.9097999
11
-15.105423
21
-3.9136347
0
LINE
8
0
10
-15.105423
20
-3.9136347
11
-14.9952528
21
-3.9140476
0
LINE
8
0
10
-14.9952528
20
-3.9140476
11
-14.8967073
21
-3.9116823
0
LINE
8
0
10
-14.8967073
20
-3.9116823
11
-14.8098466
21
-3.9071847
0
LINE
8
0
10
-14.8098466
20
-3.9071847
11
-14.7347043
21
-3.9012013
0
LINE
8
0
10
-14.7347043
20
-3.9012013
11
-14.6712871
21
-3.8943789
0
LINE
8
0
10
-14.6712871
20
-3.8943789
11
-14.6195746
21
-3.887363
0
LINE
8
0
10
-14.6195746
20
-3.887363
11
-14.5795199
21
-3.8807973
0
LINE
8
0
10
-14.5795199
20
-3.8807973
11
-14.5510492
21
-3.8753223
0
LINE
8
0
10
-14.5510492
20
-3.8753223
11
-14.5340622
21
-3.8715747
0
LINE
8
0
10
-14.5340622
20
-3.8715747
11
-14.5284324
21
-3.8701861
0
LINE
8
0
10
-14.5284324
20
-3.8701861
11
-14.2529571
21
-3.796803
0
LINE
8
0
10
-14.2529571
20
-3.796803
11
-14.2529571
21
-3.796803
0
LINE
8
0
10
-14.2529571
20
-3.796803
11
-14.2392032
21
-3.8480635
0
LINE
8
0
10
-14.2392032
20
-3.8480635
11
-14.2252649
21
-3.8992741
0
LINE
8
0
10
-14.2252649
20
-3.8992741
11
-14.2111424
21
-3.9504343
0
LINE
8
0
10
-14.2111424
20
-3.9504343
11
-14.196836
21
-4.0015433
0
LINE
8
0
10
-14.196836
20
-4.0015433
11
-14.1823457
21
-4.0526005
0
LINE
8
0
10
-14.1823457
20
-4.0526005
11
-14.1676718
21
-4.1036052
0
LINE
8
0
10
-14.1676718
20
-4.1036052
11
-14.1528145
21
-4.1545568
0
LINE
8
0
10
-14.1528145
20
-4.1545568
11
-14.1377739
21
-4.2054546
0
LINE
8
0
10
-14.1377739
20
-4.2054546
11
-14.1225503
21
-4.2562979
0
LINE
8
0
10
-14.1225503
20
-4.2562979
11
-14.1071439
21
-4.3070862
0
LINE
8
0
10
-14.1071439
20
-4.3070862
11
-14.0915548
21
-4.3578187
0
LINE
8
0
10
-14.0915548
20
-4.3578187
11
-14.0757833
21
-4.4084947
0
LINE
8
0
10
-14.0757833
20
-4.4084947
11
-14.0598295
21
-4.4591137
0
LINE
8
0
10
-14.0598295
20
-4.4591137
11
-14.0436937
21
-4.509675
0
LINE
8
0
10
-14.0436937
20
-4.509675
11
-14.027376
21
-4.5601778
0
LINE
8
0
10
-14.027376
20
-4.5601778
11
-14.0108768
21
-4.6106217
0
LINE
8
0
10
-14.0108768
20
-4.6106217
11
-13.9941961
21
-4.6610058
0
LINE
8
0
10
-13.9941961
20
-4.6610058
11
-13.9773343
21
-4.7113296
0
LINE
8
0
10
-13.9773343
20
-4.7113296
11
-13.9602915
21
-4.7615924
0
LINE
8
0
10
-13.9602915
20
-4.7615924
11
-13.9602915
21
-4.7615924
0
LINE
8
0
10
-13.9602915
20
-4.7615924
11
-14.2301103
21
-4.8536225
0
LINE
8
0
10
-14.2301103
20
-4.8536225
11
-14.2355627
21
-4.8555956
0
LINE
8
0
10
-14.2355627
20
-4.8555956
11
-14.2517689
21
-4.861917
0
LINE
8
0
10
-14.2517689
20
-4.861917
11
-14.2784832
21
-4.8731823
0
LINE
8
0
10
-14.2784832
20
-4.8731823
11
-14.3154352
21
-4.8899763
0
LINE
8
0
10
-14.3154352
20
-4.8899763
11
-14.3623304
21
-4.9128727
0
LINE
8
0
10
-14.3623304
20
-4.9128727
11
-14.4188502
21
-4.9424328
0
LINE
8
0
10
-14.4188502
20
-4.9424328
11
-14.4846529
21
-4.9792046
0
LINE
8
0
10
-14.4846529
20
-4.9792046
11
-14.5593737
21
-5.0237221
0
LINE
8
0
10
-14.5593737
20
-5.0237221
11
-14.6426254
21
-5.0765045
0
LINE
8
0
10
-14.6426254
20
-5.0765045
11
-14.7339991
21
-5.1380551
0
LINE
8
0
10
-14.7339991
20
-5.1380551
11
-14.8330647
21
-5.2088606
0
LINE
8
0
10
-14.8330647
20
-5.2088606
11
-14.9393713
21
-5.2893906
0
LINE
8
0
10
-14.9393713
20
-5.2893906
11
-15.0524481
21
-5.3800964
0
LINE
8
0
10
-15.0524481
20
-5.3800964
11
-15.1718049
21
-5.4814105
0
LINE
8
0
10
-15.1718049
20
-5.4814105
11
-15.296933
21
-5.593746
0
LINE
8
0
10
-15.296933
20
-5.593746
11
-15.4273057
21
-5.7174955
0
LINE
8
0
10
-15.4273057
20
-5.7174955
11
-15.5623791
21
-5.8530308
0
LINE
8
0
10
-15.5623791
20
-5.8530308
11
-15.7015927
21
-6.000702
0
LINE
8
0
10
-15.7015927
20
-6.000702
11
-15.8443708
21
-6.1608372
0
LINE
8
0
10
-15.8443708
20
-6.1608372
11
-15.8443708
21
-6.1608372
0
LINE
8
0
10
-15.8443708
20
-6.1608372
11
-15.8301556
21
-6.1972714
0
LINE
8
0
10
-15.8301556
20
-6.1972714
11
-15.8158567
21
-6.2336728
0
LINE
8
0
10
-15.8158567
20
-6.2336728
11
-15.8014741
21
-6.2700412
0
LINE
8
0
10
-15.8014741
20
-6.2700412
11
-15.7870078
21
-6.3063764
0
LINE
8
0
10
-15.7870078
20
-6.3063764
11
-15.772458
21
-6.3426783
0
LINE
8
0
10
-15.772458
20
-6.3426783
11
-15.7578248
21
-6.3789465
0
LINE
8
0
10
-15.7578248
20
-6.3789465
11
-15.7431081
21
-6.415181
0
LINE
8
0
10
-15.7431081
20
-6.415181
11
-15.7283081
21
-6.4513816
0
LINE
8
0
10
-15.7283081
20
-6.4513816
11
-15.7134249
21
-6.487548
0
LINE
8
0
10
-15.7134249
20
-6.487548
11
-15.6984585
21
-6.5236801
0
LINE
8
0
10
-15.6984585
20
-6.5236801
11
-15.683409
21
-6.5597776
0
LINE
8
0
10
-15.683409
20
-6.5597776
11
-15.6682765
21
-6.5958405
0
LINE
8
0
10
-15.6682765
20
-6.5958405
11
-15.6530611
21
-6.6318684
0
LINE
8
0
10
-15.6530611
20
-6.6318684
11
-15.6377628
21
-6.6678612
0
LINE
8
0
10
-15.6377628
20
-6.6678612
11
-15.6223818
21
-6.7038188
0
LINE
8
0
10
-15.6223818
20
-6.7038188
11
-15.6069181
21
-6.7397408
0
LINE
8
0
10
-15.6069181
20
-6.7397408
11
-15.5913718
21
-6.7756272
0
LINE
8
0
10
-15.5913718
20
-6.7756272
11
-15.575743
21
-6.8114777
0
LINE
8
0
10
-15.575743
20
-6.8114777
11
-15.5600318
21
-6.8472922
0
LINE
8
0
10
-15.5600318
20
-6.8472922
11
-15.5600318
21
-6.8472922
0
LINE
8
0
10
-15.5600318
20
-6.8472922
11
-15.3458398
21
-6.8595656
0
LINE
8
0
10
-15.3458398
20
-6.8595656
11
-15.1429815
21
-6.865546
0
LINE
8
0
10
-15.1429815
20
-6.865546
11
-14.9516323
21
-6.8658727
0
LINE
8
0
10
-14.9516323
20
-6.8658727
11
-14.7719408
21
-6.8611894
0
LINE
8
0
10
-14.7719408
20
-6.8611894
11
-14.6040287
21
-6.8521436
0
LINE
8
0
10
-14.6040287
20
-6.8521436
11
-14.4479907
21
-6.8393855
0
LINE
8
0
10
-14.4479907
20
-6.8393855
11
-14.3038947
21
-6.8235668
0
LINE
8
0
10
-14.3038947
20
-6.8235668
11
-14.1717813
21
-6.80534
0
LINE
8
0
10
-14.1717813
20
-6.80534
11
-14.0516643
21
-6.7853571
0
LINE
8
0
10
-14.0516643
20
-6.7853571
11
-13.9435305
21
-6.7642689
0
LINE
8
0
10
-13.9435305
20
-6.7642689
11
-13.8473398
21
-6.7427239
0
LINE
8
0
10
-13.8473398
20
-6.7427239
11
-13.7630256
21
-6.721367
0
LINE
8
0
10
-13.7630256
20
-6.721367
11
-13.6904945
21
-6.700839
0
LINE
8
0
10
-13.6904945
20
-6.700839
11
-13.6296268
21
-6.6817756
0
LINE
8
0
10
-13.6296268
20
-6.6817756
11
-13.5802767
21
-6.6648059
0
LINE
8
0
10
-13.5802767
20
-6.6648059
11
-13.5422725
21
-6.6505521
0
LINE
8
0
10
-13.5422725
20
-6.6505521
11
-13.515417
21
-6.6396279
0
LINE
8
0
10
-13.515417
20
-6.6396279
11
-13.4994875
21
-6.6326383
0
LINE
8
0
10
-13.4994875
20
-6.6326383
11
-13.4942368
21
-6.6301781
0
LINE
8
0
10
-13.4942368
20
-6.6301781
11
-13.238371
21
-6.5044625
0
LINE
8
0
10
-13.238371
20
-6.5044625
11
-13.238371
21
-6.5044625
0
LINE
8
0
10
-13.238371
20
-6.5044625
11
-13.2148809
21
-6.5520548
0
LINE
8
0
10
-13.2148809
20
-6.5520548
11
-13.1912198
21
-6.5995622
0
LINE
8
0
10
-13.1912198
20
-6.5995622
11
-13.1673878
21
-6.6469841
0
LINE
8
0
10
-13.1673878
20
-6.6469841
11
-13.1433854
21
-6.69432
0
LINE
8
0
10
-13.1433854
20
-6.69432
11
-13.1192128
21
-6.7415693
0
LINE
8
0
10
-13.1192128
20
-6.7415693
11
-13.0948703
21
-6.7887312
0
LINE
8
0
10
-13.0948703
20
-6.7887312
11
-13.0703583
21
-6.8358053
0
LINE
8
0
10
-13.0703583
20
-6.8358053
11
-13.0456771
21
-6.8827908
0
LINE
8
0
10
-13.0456771
20
-6.8827908
11
-13.020827
21
-6.9296873
0
LINE
8
0
10
-13.020827
20
-6.9296873
11
-12.9958082
21
-6.976494
0
LINE
8
0
10
-12.9958082
20
-6.976494
11
-12.9706213
21
-7.0232104
0
LINE
8
0
10
-12.9706213
20
-7.0232104
11
-12.9452664
21
-7.0698358
0
LINE
8
0
10
-12.9452664
20
-7.0698358
11
-12.9197439
21
-7.1163698
0
LINE
8
0
10
-12.9197439
20
-7.1163698
11
-12.8940541
21
-7.1628115
0
LINE
8
0
10
-12.8940541
20
-7.1628115
11
-12.8681974
21
-7.2091606
0
LINE
8
0
10
-12.8681974
20
-7.2091606
11
-12.842174
21
-7.2554163
0
LINE
8
0
10
-12.842174
20
-7.2554163
11
-12.8159844
21
-7.3015781
0
LINE
8
0
10
-12.8159844
20
-7.3015781
11
-12.7896289
21
-7.3476453
0
LINE
8
0
10
-12.7896289
20
-7.3476453
11
-12.7631078
21
-7.3936175
0
LINE
8
0
10
-12.7631078
20
-7.3936175
11
-12.7631078
21
-7.3936175
0
LINE
8
0
10
-12.7631078
20
-7.3936175
11
-13.0097879
21
-7.5365183
0
LINE
8
0
10
-13.0097879
20
-7.5365183
11
-13.0147507
21
-7.5395172
0
LINE
8
0
10
-13.0147507
20
-7.5395172
11
-13.0294122
21
-7.5488789
0
LINE
8
0
10
-13.0294122
20
-7.5488789
11
-13.0534154
21
-7.5651393
0
LINE
8
0
10
-13.0534154
20
-7.5651393
11
-13.0863811
21
-7.5888196
0
LINE
8
0
10
-13.0863811
20
-7.5888196
11
-13.1279083
21
-7.6204249
0
LINE
8
0
10
-13.1279083
20
-7.6204249
11
-13.1775752
21
-7.6604434
0
LINE
8
0
10
-13.1775752
20
-7.6604434
11
-13.2349397
21
-7.7093462
0
LINE
8
0
10
-13.2349397
20
-7.7093462
11
-13.2995398
21
-7.7675856
0
LINE
8
0
10
-13.2995398
20
-7.7675856
11
-13.3708945
21
-7.8355954
0
LINE
8
0
10
-13.3708945
20
-7.8355954
11
-13.4485047
21
-7.9137894
0
LINE
8
0
10
-13.4485047
20
-7.9137894
11
-13.5318532
21
-8.0025612
0
LINE
8
0
10
-13.5318532
20
-8.0025612
11
-13.6204065
21
-8.1022832
0
LINE
8
0
10
-13.6204065
20
-8.1022832
11
-13.7136148
21
-8.2133063
0
LINE
8
0
10
-13.7136148
20
-8.2133063
11
-13.8109128
21
-8.3359591
0
LINE
8
0
10
-13.8109128
20
-8.3359591
11
-13.911721
21
-8.4705473
0
LINE
8
0
10
-13.911721
20
-8.4705473
11
-14.0154463
21
-8.6173535
0
LINE
8
0
10
-14.0154463
20
-8.6173535
11
-14.1214826
21
-8.776636
0
LINE
8
0
10
-14.1214826
20
-8.776636
11
-14.2292121
21
-8.948629
0
LINE
8
0
10
-14.2292121
20
-8.948629
11
-14.3380059
21
-9.1335419
0
LINE
8
0
10
-14.3380059
20
-9.1335419
11
-14.3380059
21
-9.1335419
0
LINE
8
0
10
-14.3380059
20
-9.1335419
11
-14.3169559
21
-9.1665027
0
LINE
8
0
10
-14.3169559
20
-9.1665027
11
-14.2958302
21
-9.1994151
0
LINE
8
0
10
-14.2958302
20
-9.1994151
11
-14.2746288
21
-9.2322788
0
LINE
8
0
10
-14.2746288
20
-9.2322788
11
-14.2533519
21
-9.2650936
0
LINE
8
0
10
-14.2533519
20
-9.2650936
11
-14.2319995
21
-9.2978594
0
LINE
8
0
10
-14.2319995
20
-9.2978594
11
-14.2105718
21
-9.330576
0
LINE
8
0
10
-14.2105718
20
-9.330576
11
-14.1890689
21
-9.3632432
0
LINE
8
0
10
-14.1890689
20
-9.3632432
11
-14.167491
21
-9.3958608
0
LINE
8
0
10
-14.167491
20
-9.3958608
11
-14.145838
21
-9.4284287
0
LINE
8
0
10
-14.145838
20
-9.4284287
11
-14.1241101
21
-9.4609467
0
LINE
8
0
10
-14.1241101
20
-9.4609467
11
-14.1023075
21
-9.4934147
0
LINE
8
0
10
-14.1023075
20
-9.4934147
11
-14.0804303
21
-9.5258324
0
LINE
8
0
10
-14.0804303
20
-9.5258324
11
-14.0584786
21
-9.5581996
0
LINE
8
0
10
-14.0584786
20
-9.5581996
11
-14.0364524
21
-9.5905163
0
LINE
8
0
10
-14.0364524
20
-9.5905163
11
-14.014352
21
-9.6227823
0
LINE
8
0
10
-14.014352
20
-9.6227823
11
-13.9921774
21
-9.6549973
0
LINE
8
0
10
-13.9921774
20
-9.6549973
11
-13.9699287
21
-9.6871612
0
LINE
8
0
10
-13.9699287
20
-9.6871612
11
-13.9476061
21
-9.7192738
0
LINE
8
0
10
-13.9476061
20
-9.7192738
11
-13.9252097
21
-9.751335
0
LINE
8
0
10
-13.9252097
20
-9.751335
11
-13.9252097
21
-9.751335
0
LINE
8
0
10
-13.9252097
20
-9.751335
11
-13.7127389
21
-9.7215858
0
LINE
8
0
10
-13.7127389
20
-9.7215858
11
-13.5126118
21
-9.6878756
0
LINE
8
0
10
-13.5126118
20
-9.6878756
11
-13.3248756
21
-9.6508656
0
LINE
8
0
10
-13.3248756
20
-9.6508656
11
-13.1495505
21
-9.6112162
0
LINE
8
0
10
-13.1495505
20
-9.6112162
11
-12.9866295
21
-9.5695862
0
LINE
8
0
10
-12.9866295
20
-9.5695862
11
-12.8360787
21
-9.5266318
0
LINE
8
0
10
-12.8360787
20
-9.5266318
11
-12.6978375
21
-9.4830053
0
LINE
8
0
10
-12.6978375
20
-9.4830053
11
-12.5718185
21
-9.4393547
0
LINE
8
0
10
-12.5718185
20
-9.4393547
11
-12.457908
21
-9.3963221
0
LINE
8
0
10
-12.457908
20
-9.3963221
11
-12.355966
21
-9.3545433
0
LINE
8
0
10
-12.355966
20
-9.3545433
11
-12.2658269
21
-9.3146463
0
LINE
8
0
10
-12.2658269
20
-9.3146463
11
-12.1872993
21
-9.2772509
0
LINE
8
0
10
-12.1872993
20
-9.2772509
11
-12.1201666
21
-9.2429673
0
LINE
8
0
10
-12.1201666
20
-9.2429673
11
-12.0641876
21
-9.2123954
0
LINE
8
0
10
-12.0641876
20
-9.2123954
11
-12.0190963
21
-9.1861241
0
LINE
8
0
10
-12.0190963
20
-9.1861241
11
-11.9846032
21
-9.1647299
0
LINE
8
0
10
-11.9846032
20
-9.1647299
11
-11.9603949
21
-9.1487764
0
LINE
8
0
10
-11.9603949
20
-9.1487764
11
-11.9461351
21
-9.1388134
0
LINE
8
0
10
-11.9461351
20
-9.1388134
11
-11.9414653
21
-9.1353761
0
LINE
8
0
10
-11.9414653
20
-9.1353761
11
-11.7150417
21
-8.9621592
0
LINE
8
0
10
-11.7150417
20
-8.9621592
11
-11.7150417
21
-8.9621592
0
LINE
8
0
10
-11.7150417
20
-8.9621592
11
-11.6827182
21
-9.0042542
0
LINE
8
0
10
-11.6827182
20
-9.0042542
11
-11.6502435
21
-9.0462327
0
LINE
8
0
10
-11.6502435
20
-9.0462327
11
-11.6176179
21
-9.0880941
0
LINE
8
0
10
-11.6176179
20
-9.0880941
11
-11.5848419
21
-9.1298378
0
LINE
8
0
10
-11.5848419
20
-9.1298378
11
-11.5519159
21
-9.1714634
0
LINE
8
0
10
-11.5519159
20
-9.1714634
11
-11.5188403
21
-9.2129701
0
LINE
8
0
10
-11.5188403
20
-9.2129701
11
-11.4856156
21
-9.2543576
0
LINE
8
0
10
-11.4856156
20
-9.2543576
11
-11.4522422
21
-9.2956253
0
LINE
8
0
10
-11.4522422
20
-9.2956253
11
-11.4187205
21
-9.3367726
0
LINE
8
0
10
-11.4187205
20
-9.3367726
11
-11.385051
21
-9.377799
0
LINE
8
0
10
-11.385051
20
-9.377799
11
-11.351234
21
-9.418704
0
LINE
8
0
10
-11.351234
20
-9.418704
11
-11.3172702
21
-9.4594871
0
LINE
8
0
10
-11.3172702
20
-9.4594871
11
-11.2831597
21
-9.5001477
0
LINE
8
0
10
-11.2831597
20
-9.5001477
11
-11.2489032
21
-9.5406853
0
LINE
8
0
10
-11.2489032
20
-9.5406853
11
-11.2145011
21
-9.5810994
0
LINE
8
0
10
-11.2145011
20
-9.5810994
11
-11.1799538
21
-9.6213894
0
LINE
8
0
10
-11.1799538
20
-9.6213894
11
-11.1452617
21
-9.6615549
0
LINE
8
0
10
-11.1452617
20
-9.6615549
11
-11.1104253
21
-9.7015952
0
LINE
8
0
10
-11.1104253
20
-9.7015952
11
-11.0754451
21
-9.74151
0
LINE
8
0
10
-11.0754451
20
-9.74151
11
-11.0754451
21
-9.74151
0
LINE
8
0
10
-11.0754451
20
-9.74151
11
-11.2895067
21
-9.9297899
0
LINE
8
0
10
-11.2895067
20
-9.9297899
11
-11.293789
21
-9.9336994
0
LINE
8
0
10
-11.293789
20
-9.9336994
11
-11.3063425
21
-9.9457415
0
LINE
8
0
10
-11.3063425
20
-9.9457415
11
-11.3267123
21
-9.9663723
0
LINE
8
0
10
-11.3267123
20
-9.9663723
11
-11.3544247
21
-9.9960289
0
LINE
8
0
10
-11.3544247
20
-9.9960289
11
-11.3889881
21
-10.0351284
0
LINE
8
0
10
-11.3889881
20
-10.0351284
11
-11.4298935
21
-10.0840676
0
LINE
8
0
10
-11.4298935
20
-10.0840676
11
-11.4766152
21
-10.1432219
0
LINE
8
0
10
-11.4766152
20
-10.1432219
11
-11.5286121
21
-10.2129451
0
LINE
8
0
10
-11.5286121
20
-10.2129451
11
-11.5853277
21
-10.2935688
0
LINE
8
0
10
-11.5853277
20
-10.2935688
11
-11.6461917
21
-10.3854013
0
LINE
8
0
10
-11.6461917
20
-10.3854013
11
-11.7106202
21
-10.4887278
0
LINE
8
0
10
-11.7106202
20
-10.4887278
11
-11.7780172
21
-10.6038096
0
LINE
8
0
10
-11.7780172
20
-10.6038096
11
-11.8477749
21
-10.7308834
0
LINE
8
0
10
-11.8477749
20
-10.7308834
11
-11.919275
21
-10.8701614
0
LINE
8
0
10
-11.919275
20
-10.8701614
11
-11.9918894
21
-11.0218303
0
LINE
8
0
10
-11.9918894
20
-11.0218303
11
-12.0649812
21
-11.1860514
0
LINE
8
0
10
-12.0649812
20
-11.1860514
11
-12.1379056
21
-11.36296
0
LINE
8
0
10
-12.1379056
20
-11.36296
11
-12.2100109
21
-11.5526652
0
LINE
8
0
10
-12.2100109
20
-11.5526652
11
-12.2806395
21
-11.7552496
0
LINE
8
0
10
-12.2806395
20
-11.7552496
11
-12.2806395
21
-11.7552496
0
LINE
8
0
10
-12.2806395
20
-11.7552496
11
-12.2535637
21
-11.7834705
0
LINE
8
0
10
-12.2535637
20
-11.7834705
11
-12.226423
21
-11.811629
0
LINE
8
0
10
-12.226423
20
-11.811629
11
-12.1992176
21
-11.8397251
0
LINE
8
0
10
-12.1992176
20
-11.8397251
11
-12.1719476
21
-11.8677584
0
LINE
8
0
10
-12.1719476
20
-11.8677584
11
-12.1446133
21
-11.895729
0
LINE
8
0
10
-12.1446133
20
-11.895729
11
-12.1172146
21
-11.9236366
0
LINE
8
0
10
-12.1172146
20
-11.9236366
11
-12.0897518
21
-11.9514811
0
LINE
8
0
10
-12.0897518
20
-11.9514811
11
-12.0622251
21
-11.9792623
0
LINE
8
0
10
-12.0622251
20
-11.9792623
11
-12.0346345
21
-12.0069802
0
LINE
8
0
10
-12.0346345
20
-12.0069802
11
-12.0069802
21
-12.0346345
0
LINE
8
0
10
-12.0069802
20
-12.0346345
11
-11.9792623
21
-12.0622251
0
LINE
8
0
10
-11.9792623
20
-12.0622251
11
-11.9514811
21
-12.0897518
0
LINE
8
0
10
-11.9514811
20
-12.0897518
11
-11.9236366
21
-12.1172146
0
LINE
8
0
10
-11.9236366
20
-12.1172146
11
-11.895729
21
-12.1446133
0
LINE
8
0
10
-11.895729
20
-12.1446133
11
-11.8677584
21
-12.1719476
0
LINE
8
0
10
-11.8677584
20
-12.1719476
11
-11.8397251
21
-12.1992176
0
LINE
8
0
10
-11.8397251
20
-12.1992176
11
-11.811629
21
-12.226423
0
LINE
8
0
10
-11.811629
20
-12.226423
11
-11.7834705
21
-12.2535637
0
LINE
8
0
10
-11.7834705
20
-12.2535637
11
-11.7552496
21
-12.2806395
0
LINE
8
0
10
-11.7552496
20
-12.2806395
11
-11.7552496
21
-12.2806395
0
LINE
8
0
10
-11.7552496
20
-12.2806395
11
-11.5526652
21
-12.2100109
0
LINE
8
0
10
-11.5526652
20
-12.2100109
11
-11.36296
21
-12.1379056
0
LINE
8
0
10
-11.36296
20
-12.1379056
11
-11.1860514
21
-12.0649812
0
LINE
8
0
10
-11.1860514
20
-12.0649812
11
-11.0218303
21
-11.9918894
0
LINE
8
0
10
-11.0218303
20
-11.9918894
11
-10.8701614
21
-11.919275
0
LINE
8
0
10
-10.8701614
20
-11.919275
11
-10.7308834
21
-11.8477749
0
LINE
8
0
10
-10.7308834
20
-11.8477749
11
-10.6038096
21
-11.7780172
0
LINE
8
0
10
-10.6038096
20
-11.7780172
11
-10.4887278
21
-11.7106202
0
LINE
8
0
10
-10.4887278
20
-11.7106202
11
-10.3854013
21
-11.6461917
0
LINE
8
0
10
-10.3854013
20
-11.6461917
11
-10.2935688
21
-11.5853277
0
LINE
8
0
10
-10.2935688
20
-11.5853277
11
-10.2129451
21
-11.5286121
0
LINE
8
0
10
-10.2129451
20
-11.5286121
11
-10.1432219
21
-11.4766152
0
LINE
8
0
10
-10.1432219
20
-11.4766152
11
-10.0840676
21
-11.4298935
0
LINE
8
0
10
-10.0840676
20
-11.4298935
11
-10.0351284
21
-11.3889881
0
LINE
8
0
10
-10.0351284
20
-11.3889881
11
-9.9960289
21
-11.3544247
0
LINE
8
0
10
-9.9960289
20
-11.3544247
11
-9.9663723
21
-11.3267123
0
LINE
8
0
10
-9.9663723
20
-11.3267123
11
-9.9457415
21
-11.3063425
0
LINE
8
0
10
-9.9457415
20
-11.3063425
11
-9.9336994
21
-11.293789
0
LINE
8
0
10
-9.9336994
20
-11.293789
11
-9.9297899
21
-11.2895067
0
LINE
8
0
10
-9.9297899
20
-11.2895067
11
-9.74151
21
-11.0754451
0
LINE
8
0
10
-9.74151
20
-11.0754451
11
-9.74151
21
-11.0754451
0
LINE
8
0
10
-9.74151
20
-11.0754451
11
-9.7015952
21
-11.1104253
0
LINE
8
0
10
-9.7015952
20
-11.1104253
11
-9.6615549
21
-11.1452617
0
LINE
8
0
10
-9.6615549
20
-11.1452617
11
-9.6213894
21
-11.1799538
0
LINE
8
0
10
-9.6213894
20
-11.1799538
11
-9.5810994
21
-11.2145011
0
LINE
8
0
10
-9.5810994
20
-11.2145011
11
-9.5406853
21
-11.2489032
0
LINE
8
0
10
-9.5406853
20
-11.2489032
11
-9.5001477
21
-11.2831597
0
LINE
8
0
10
-9.5001477
20
-11.2831597
11
-9.4594871
21
-11.3172702
0
LINE
8
0
10
-9.4594871
20
-11.3172702
11
-9.418704
21
-11.351234
0
LINE
8
0
10
-9.418704
20
-11.351234
11
-9.377799
21
-11.385051
0
LINE
8
0
10
-9.377799
20
-11.385051
11
-9.3367726
21
-11.4187205
0
LINE
8
0
10
-9.3367726
20
-11.4187205
11
-9.2956253
21
-11.4522422
0
LINE
8
0
10
-9.2956253
20
-11.4522422
11
-9.2543576
21
-11.4856156
0
LINE
8
0
10
-9.2543576
20
-11.4856156
11
-9.2129701
21
-11.5188403
0
LINE
8
0
10
-9.2129701
20
-11.5188403
11
-9.1714634
21
-11.5519159
0
LINE
8
0
10
-9.1714634
20
-11.5519159
11
-9.1298378
21
-11.5848419
0
LINE
8
0
10
-9.1298378
20
-11.5848419
11
-9.0880941
21
-11.6176179
0
LINE
8
0
10
-9.0880941
20
-11.6176179
11
-9.0462327
21
-11.6502435
0
LINE
8
0
10
-9.0462327
20
-11.6502435
11
-9.0042542
21
-11.6827182
0
LINE
8
0
10
-9.0042542
20
-11.6827182
11
-8.9621592
21
-11.7150417
0
LINE
8
0
10
-8.9621592
20
-11.7150417
11
-8.9621592
21
-11.7150417
0
LINE
8
0
10
-8.9621592
20
-11.7150417
11
-9.1353761
21
-11.9414653
0
LINE
8
0
10
-9.1353761
20
-11.9414653
11
-9.1388134
21
-11.9461351
0
LINE
8
0
10
-9.1388134
20
-11.9461351
11
-9.1487764
21
-11.9603949
0
LINE
8
0
10
-9.1487764
20
-11.9603949
11
-9.1647299
21
-11.9846032
0
LINE
8
0
10
-9.1647299
20
-11.9846032
11
-9.1861241
21
-12.0190963
0
LINE
8
0
10
-9.1861241
20
-12.0190963
11
-9.2123954
21
-12.0641876
0
LINE
8
0
10
-9.2123954
20
-12.0641876
11
-9.2429673
21
-12.1201666
0
LINE
8
0
10
-9.2429673
20
-12.1201666
11
-9.2772509
21
-12.1872993
0
LINE
8
0
10
-9.2772509
20
-12.1872993
11
-9.3146463
21
-12.2658269
0
LINE
8
0
10
-9.3146463
20
-12.2658269
11
-9.3545433
21
-12.355966
0
LINE
8
0
10
-9.3545433
20
-12.355966
11
-9.3963221
21
-12.457908
0
LINE
8
0
10
-9.3963221
20
-12.457908
11
-9.4393547
21
-12.5718185
0
LINE
8
0
10
-9.4393547
20
-12.5718185
11
-9.4830053
21
-12.6978375
0
LINE
8
0
10
-9.4830053
20
-12.6978375
11
-9.5266318
21
-12.8360787
0
LINE
8
0
10
-9.5266318
20
-12.8360787
11
-9.5695862
21
-12.9866295
0
LINE
8
0
10
-9.5695862
20
-12.9866295
11
-9.6112162
21
-13.1495505
0
LINE
8
0
10
-9.6112162
20
-13.1495505
11
-9.6508656
21
-13.3248756
0
LINE
8
0
10
-9.6508656
20
-13.3248756
11
-9.6878756
21
-13.5126118
0
LINE
8
0
10
-9.6878756
20
-13.5126118
11
-9.7215858
21
-13.7127389
0
LINE
8
0
10
-9.7215858
20
-13.7127389
11
-9.751335
21
-13.9252097
0
LINE
8
0
10
-9.751335
20
-13.9252097
11
-9.751335
21
-13.9252097
0
LINE
8
0
10
-9.751335
20
-13.9252097
11
-9.7192738
21
-13.9476061
0
LINE
8
0
10
-9.7192738
20
-13.9476061
11
-9.6871612
21
-13.9699287
0
LINE
8
0
10
-9.6871612
20
-13.9699287
11
-9.6549973
21
-13.9921774
0
LINE
8
0
10
-9.6549973
20
-13.9921774
11
-9.6227823
21
-14.014352
0
LINE
8
0
10
-9.6227823
20
-14.014352
11
-9.5905163
21
-14.0364524
0
LINE
8
0
10
-9.5905163
20
-14.0364524
11
-9.5581996
21
-14.0584786
0
LINE
8
0
10
-9.5581996
20
-14.0584786
11
-9.5258324
21
-14.0804303
0
LINE
8
0
10
-9.5258324
20
-14.0804303
11
-9.4934147
21
-14.1023075
0
LINE
8
0
10
-9.4934147
20
-14.1023075
11
-9.4609467
21
-14.1241101
0
LINE
8
0
10
-9.4609467
20
-14.1241101
11
-9.4284287
21
-14.145838
0
LINE
8
0
10
-9.4284287
20
-14.145838
11
-9.3958608
21
-14.167491
0
LINE
8
0
10
-9.3958608
20
-14.167491
11
-9.3632432
21
-14.1890689
0
LINE
8
0
10
-9.3632432
20
-14.1890689
11
-9.330576
21
-14.2105718
0
LINE
8
0
10
-9.330576
20
-14.2105718
11
-9.2978594
21
-14.2319995
0
LINE
8
0
10
-9.2978594
20
-14.2319995
11
-9.2650936
21
-14.2533519
0
LINE
8
0
10
-9.2650936
20
-14.2533519
11
-9.2322788
21
-14.2746288
0
LINE
8
0
10
-9.2322788
20
-14.2746288
11
-9.1994151
21
-14.2958302
0
LINE
8
0
10
-9.1994151
20
-14.2958302
11
-9.1665027
21
-14.3169559
0
LINE
8
0
10
-9.1665027
20
-14.3169559
11
-9.1335419
21
-14.3380059
0
LINE
8
0
10
-9.1335419
20
-14.3380059
11
-9.1335419
21
-14.3380059
0
LINE
8
0
10
-9.1335419
20
-14.3380059
11
-8.948629
21
-14.2292121
0
LINE
8
0
10
-8.948629
20
-14.2292121
11
-8.776636
21
-14.1214826
0
LINE
8
0
10
-8.776636
20
-14.1214826
11
-8.6173535
21
-14.0154463
0
LINE
8
0
10
-8.6173535
20
-14.0154463
11
-8.4705473
21
-13.911721
0
LINE
8
0
10
-8.4705473
20
-13.911721
11
-8.3359591
21
-13.8109128
0
LINE
8
0
10
-8.3359591
20
-13.8109128
11
-8.2133063
21
-13.7136148
0
LINE
8
0
10
-8.2133063
20
-13.7136148
11
-8.1022832
21
-13.6204065
0
LINE
8
0
10
-8.1022832
20
-13.6204065
11
-8.0025612
21
-13.5318532
0
LINE
8
0
10
-8.0025612
20
-13.5318532
11
-7.9137894
21
-13.4485047
0
LINE
8
0
10
-7.9137894
20
-13.4485047
11
-7.8355954
21
-13.3708945
0
LINE
8
0
10
-7.8355954
20
-13.3708945
11
-7.7675856
21
-13.2995398
0
LINE
8
0
10
-7.7675856
20
-13.2995398
11
-7.7093462
21
-13.2349397
0
LINE
8
0
10
-7.7093462
20
-13.2349397
11
-7.6604434
21
-13.1775752
0
LINE
8
0
10
-7.6604434
20
-13.1775752
11
-7.6204249
21
-13.1279083
0
LINE
8
0
10
-7.6204249
20
-13.1279083
11
-7.5888196
21
-13.0863811
0
LINE
8
0
10
-7.5888196
20
-13.0863811
11
-7.5651393
21
-13.0534154
0
LINE
8
0
10
-7.5651393
20
-13.0534154
11
-7.5488789
21
-13.0294122
0
LINE
8
0
10
-7.5488789
20
-13.0294122
11
-7.5395172
21
-13.0147507
0
LINE
8
0
10
-7.5395172
20
-13.0147507
11
-7.5365183
21
-13.0097879
0
LINE
8
0
10
-7.5365183
20
-13.0097879
11
-7.3936175
21
-12.7631078
0
LINE
8
0
10
-7.3936175
20
-12.7631078
11
-7.3936175
21
-12.7631078
0
LINE
8
0
10
-7.3936175
20
-12.7631078
11
-7.3476453
21
-12.7896289
0
LINE
8
0
10
-7.3476453
20
-12.7896289
11
-7.3015781
21
-12.8159844
0
LINE
8
0
10
-7.3015781
20
-12.8159844
11
-7.2554163
21
-12.842174
0
LINE
8
0
10
-7.2554163
20
-12.842174
11
-7.2091606
21
-12.8681974
0
LINE
8
0
10
-7.2091606
20
-12.8681974
11
-7.1628115
21
-12.8940541
0
LINE
8
0
10
-7.1628115
20
-12.8940541
11
-7.1163698
21
-12.9197439
0
LINE
8
0
10
-7.1163698
20
-12.9197439
11
-7.0698358
21
-12.9452664
0
LINE
8
0
10
-7.0698358
20
-12.9452664
11
-7.0232104
21
-12.9706213
0
LINE
8
0
10
-7.0232104
20
-12.9706213
11
-6.976494
21
-12.9958082
0
LINE
8
0
10
-6.976494
20
-12.9958082
11
-6.9296873
21
-13.020827
0
LINE
8
0
10
-6.9296873
20
-13.020827
11
-6.8827908
21
-13.0456771
0
LINE
8
0
10
-6.8827908
20
-13.0456771
11
-6.8358053
21
-13.0703583
0
LINE
8
0
10
-6.8358053
20
-13.0703583
11
-6.7887312
21
-13.0948703
0
LINE
8
0
10
-6.7887312
20
-13.0948703
11
-6.7415693
21
-13.1192128
0
LINE
8
0
10
-6.7415693
20
-13.1192128
11
-6.69432
21
-13.1433854
0
LINE
8
0
10
-6.69432
20
-13.1433854
11
-6.6469841
21
-13.1673878
0
LINE
8
0
10
-6.6469841
20
-13.1673878
11
-6.5995622
21
-13.1912198
0
LINE
8
0
10
-6.5995622
20
-13.1912198
11
-6.5520548
21
-13.2148809
0
LINE
8
0
10
-6.5520548
20
-13.2148809
11
-6.5044625
21
-13.238371
0
LINE
8
0
10
-6.5044625
20
-13.238371
11
-6.5044625
21
-13.238371
0
LINE
8
0
10
-6.5044625
20
-13.238371
11
-6.6301781
21
-13.4942368
0
LINE
8
0
10
-6.6301781
20
-13.4942368
11
-6.6326383
21
-13.4994875
0
LINE
8
0
10
-6.6326383
20
-13.4994875
11
-6.6396279
21
-13.515417
0
LINE
8
0
10
-6.6396279
20
-13.515417
11
-6.6505521
21
-13.5422725
0
LINE
8
0
10
-6.6505521
20
-13.5422725
11
-6.6648059
21
-13.5802767
0
LINE
8
0
10
-6.6648059
20
-13.5802767
11
-6.6817756
21
-13.6296268
0
LINE
8
0
10
-6.6817756
20
-13.6296268
11
-6.700839
21
-13.6904945
0
LINE
8
0
10
-6.700839
20
-13.6904945
11
-6.721367
21
-13.7630256
0
LINE
8
0
10
-6.721367
20
-13.7630256
11
-6.7427239
21
-13.8473398
0
LINE
8
0
10
-6.7427239
20
-13.8473398
11
-6.7642689
21
-13.9435305
0
LINE
8
0
10
-6.7642689
20
-13.9435305
11
-6.7853571
21
-14.0516643
0
LINE
8
0
10
-6.7853571
20
-14.0516643
11
-6.80534
21
-14.1717813
0
LINE
8
0
10
-6.80534
20
-14.1717813
11
-6.8235668
21
-14.3038947
0
LINE
8
0
10
-6.8235668
20
-14.3038947
11
-6.8393855
21
-14.4479907
0
LINE
8
0
10
-6.8393855
20
-14.4479907
11
-6.8521436
21
-14.6040287
0
LINE
8
0
10
-6.8521436
20
-14.6040287
11
-6.8611894
21
-14.7719408
0
LINE
8
0
10
-6.8611894
20
-14.7719408
11
-6.8658727
21
-14.9516323
0
LINE
8
0
10
-6.8658727
20
-14.9516323
11
-6.865546
21
-15.1429815
0
LINE
8
0
10
-6.865546
20
-15.1429815
11
-6.8595656
21
-15.3458398
0
LINE
8
0
10
-6.8595656
20
-15.3458398
11
-6.8472922
21
-15.5600318
0
LINE
8
0
10
-6.8472922
20
-15.5600318
11
-6.8472922
21
-15.5600318
0
LINE
8
0
10
-6.8472922
20
-15.5600318
11
-6.8114777
21
-15.575743
0
LINE
8
0
10
-6.8114777
20
-15.575743
11
-6.7756272
21
-15.5913718
0
LINE
8
0
10
-6.7756272
20
-15.5913718
11
-6.7397408
21
-15.6069181
0
LINE
8
0
10
-6.7397408
20
-15.6069181
11
-6.7038188
21
-15.6223818
0
LINE
8
0
10
-6.7038188
20
-15.6223818
11
-6.6678612
21
-15.6377628
0
LINE
8
0
10
-6.6678612
20
-15.6377628
11
-6.6318684
21
-15.6530611
0
LINE
8
0
10
-6.6318684
20
-15.6530611
11
-6.5958405
21
-15.6682765
0
LINE
8
0
10
-6.5958405
20
-15.6682765
11
-6.5597776
21
-15.683409
0
LINE
8
0
10
-6.5597776
20
-15.683409
11
-6.5236801
21
-15.6984585
0
LINE
8
0
10
-6.5236801
20
-15.6984585
11
-6.487548
21
-15.7134249
0
LINE
8
0
10
-6.487548
20
-15.7134249
11
-6.4513816
21
-15.7283081
0
LINE
8
0
10
-6.4513816
20
-15.7283081
11
-6.415181
21
-15.7431081
0
LINE
8
0
10
-6.415181
20
-15.7431081
11
-6.3789465
21
-15.7578248
0
LINE
8
0
10
-6.3789465
20
-15.7578248
11
-6.3426783
21
-15.772458
0
LINE
8
0
10
-6.3426783
20
-15.772458
11
-6.3063764
21
-15.7870078
0
LINE
8
0
10
-6.3063764
20
-15.7870078
11
-6.2700412
21
-15.8014741
0
LINE
8
0
10
-6.2700412
20
-15.8014741
11
-6.2336728
21
-15.8158567
0
LINE
8
0
10
-6.2336728
20
-15.8158567
11
-6.1972714
21
-15.8301556
0
LINE
8
0
10
-6.1972714
20
-15.8301556
11
-6.1608372
21
-15.8443708
0
LINE
8
0
10
-6.1608372
20
-15.8443708
11
-6.1608372
21
-15.8443708
0
LINE
8
0
10
-6.1608372
20
-15.8443708
11
-6.000702
21
-15.7015927
0
LINE
8
0
10
-6.000702
20
-15.7015927
11
-5.8530308
21
-15.5623791
0
LINE
8
0
10
-5.8530308
20
-15.5623791
11
-5.7174955
21
-15.4273057
0
LINE
8
0
10
-5.7174955
20
-15.4273057
11
-5.593746
21
-15.296933
0
LINE
8
0
10
-5.593746
20
-15.296933
11
-5.4814105
21
-15.1718049
0
LINE
8
0
10
-5.4814105
20
-15.1718049
11
-5.3800964
21
-15.0524481
0
LINE
8
0
10
-5.3800964
20
-15.0524481
11
-5.2893906
21
-14.9393713
0
LINE
8
0
10
-5.2893906
20
-14.9393713
11
-5.2088606
21
-14.8330647
0
LINE
8
0
10
-5.2088606
20
-14.8330647
11
-5.1380551
21
-14.7339991
0
LINE
8
0
10
-5.1380551
20
-14.7339991
11
-5.0765045
21
-14.6426254
0
LINE
8
0
10
-5.0765045
20
-14.6426254
11
-5.0237221
21
-14.5593737
0
LINE
8
0
10
-5.0237221
20
-14.5593737
11
-4.9792046
21
-14.4846529
0
LINE
8
0
10
-4.9792046
20
-14.4846529
11
-4.9424328
21
-14.4188502
0
LINE
8
0
10
-4.9424328
20
-14.4188502
11
-4.9128727
21
-14.3623304
0
LINE
8
0
10
-4.9128727
20
-14.3623304
11
-4.8899763
21
-14.3154352
0
LINE
8
0
10
-4.8899763
20
-14.3154352
11
-4.8731823
21
-14.2784832
0
LINE
8
0
10
-4.8731823
20
-14.2784832
11
-4.861917
21
-14.2517689
0
LINE
8
0
10
-4.861917
20
-14.2517689
11
-4.8555956
21
-14.2355627
0
LINE
8
0
10
-4.8555956
20
-14.2355627
11
-4.8536225
21
-14.2301103
0
LINE
8
0
10
-4.8536225
20
-14.2301103
11
-4.7615924
21
-13.9602915
0
LINE
8
0
10
-4.7615924
20
-13.9602915
11
-4.7615924
21
-13.9602915
0
LINE
8
0
10
-4.7615924
20
-13.9602915
11
-4.7113296
21
-13.9773343
0
LINE
8
0
10
-4.7113296
20
-13.9773343
11
-4.6610058
21
-13.9941961
0
LINE
8
0
10
-4.6610058
20
-13.9941961
11
-4.6106217
21
-14.0108768
0
LINE
8
0
10
-4.6106217
20
-14.0108768
11
-4.5601778
21
-14.027376
0
LINE
8
0
10
-4.5601778
20
-14.027376
11
-4.509675
21
-14.0436937
0
LINE
8
0
10
-4.509675
20
-14.0436937
11
-4.4591137
21
-14.0598295
0
LINE
8
0
10
-4.4591137
20
-14.0598295
11
-4.4084947
21
-14.0757833
0
LINE
8
0
10
-4.4084947
20
-14.0757833
11
-4.3578187
21
-14.0915548
0
LINE
8
0
10
-4.3578187
20
-14.0915548
11
-4.3070862
21
-14.1071439
0
LINE
8
0
10
-4.3070862
20
-14.1071439
11
-4.2562979
21
-14.1225503
0
LINE
8
0
10
-4.2562979
20
-14.1225503
11
-4.2054546
21
-14.1377739
0
LINE
8
0
10
-4.2054546
20
-14.1377739
11
-4.1545568
21
-14.1528145
0
LINE
8
0
10
-4.1545568
20
-14.1528145
11
-4.1036052
21
-14.1676718
0
LINE
8
0
10
-4.1036052
20
-14.1676718
11
-4.0526005
21
-14.1823457
0
LINE
8
0
10
-4.0526005
20
-14.1823457
11
-4.0015433
21
-14.196836
0
LINE
8
0
10
-4.0015433
20
-14.196836
11
-3.9504343
21
-14.2111424
0
LINE
8
0
10
-3.9504343
20
-14.2111424
11
-3.8992741
21
-14.2252649
0
LINE
8
0
10
-3.8992741
20
-14.2252649
11
-3.8480635
21
-14.2392032
0
LINE
8
0
10
-3.8480635
20
-14.2392032
11
-3.796803
21
-14.2529571
0
LINE
8
0
10
-3.796803
20
-14.2529571
11
-3.796803
21
-14.2529571
0
LINE
8
0
10
-3.796803
20
-14.2529571
11
-3.8701861
21
-14.5284324
0
LINE
8
0
10
-3.8701861
20
-14.5284324
11
-3.8715747
21
-14.5340622
0
LINE
8
0
10
-3.8715747
20
-14.5340622
11
-3.8753223
21
-14.5510492
0
LINE
8
0
10
-3.8753223
20
-14.5510492
11
-3.8807973
21
-14.5795199
0
LINE
8
0
10
-3.8807973
20
-14.5795199
11
-3.887363
21
-14.6195746
0
LINE
8
0
10
-3.887363
20
-14.6195746
11
-3.8943789
21
-14.6712871
0
LINE
8
0
10
-3.8943789
20
-14.6712871
11
-3.9012013
21
-14.7347043
0
LINE
8
0
10
-3.9012013
20
-14.7347043
11
-3.9071847
21
-14.8098466
0
LINE
8
0
10
-3.9071847
20
-14.8098466
11
-3.9116823
21
-14.8967073
0
LINE
8
0
10
-3.9116823
20
-14.8967073
11
-3.9140476
21
-14.9952528
0
LINE
8
0
10
-3.9140476
20
-14.9952528
11
-3.9136347
21
-15.105423
0
LINE
8
0
10
-3.9136347
20
-15.105423
11
-3.9097999
21
-15.2271304
0
LINE
8
0
10
-3.9097999
20
-15.2271304
11
-3.9019025
21
-15.3602612
0
LINE
8
0
10
-3.9019025
20
-15.3602612
11
-3.8893054
21
-15.5046745
0
LINE
8
0
10
-3.8893054
20
-15.5046745
11
-3.8713769
21
-15.6602033
0
LINE
8
0
10
-3.8713769
20
-15.6602033
11
-3.8474908
21
-15.8266537
0
LINE
8
0
10
-3.8474908
20
-15.8266537
11
-3.8170281
21
-16.0038062
0
LINE
8
0
10
-3.8170281
20
-16.0038062
11
-3.7793773
21
-16.1914149
0
LINE
8
0
10
-3.7793773
20
-16.1914149
11
-3.7339361
21
-16.3892086
0
LINE
8
0
10
-3.7339361
20
-16.3892086
11
-3.6801118
21
-16.5968906
0
LINE
8
0
10
-3.6801118
20
-16.5968906
11
-3.6801118
21
-16.5968906
0
LINE
8
0
10
-3.6801118
20
-16.5968906
11
-3.6419204
21
-16.6053129
0
LINE
8
0
10
-3.6419204
20
-16.6053129
11
-3.6037097
21
-16.6136473
0
LINE
8
0
10
-3.6037097
20
-16.6136473
11
-3.5654799
21
-16.6218938
0
LINE
8
0
10
-3.5654799
20
-16.6218938
11
-3.5272313
21
-16.6300523
0
LINE
8
0
10
-3.5272313
20
-16.6300523
11
-3.488964
21
-16.6381228
0
LINE
8
0
10
-3.488964
20
-16.6381228
11
-3.4506782
21
-16.6461053
0
LINE
8
0
10
-3.4506782
20
-16.6461053
11
-3.4123741
21
-16.6539996
0
LINE
8
0
10
-3.4123741
20
-16.6539996
11
-3.374052
21
-16.6618058
0
LINE
8
0
10
-3.374052
20
-16.6618058
11
-3.3357121
21
-16.6695238
0
LINE
8
0
10
-3.3357121
20
-16.6695238
11
-3.2973545
21
-16.6771536
0
LINE
8
0
10
-3.2973545
20
-16.6771536
11
-3.2589794
21
-16.6846952
0
LINE
8
0
10
-3.2589794
20
-16.6846952
11
-3.2205871
21
-16.6921484
0
LINE
8
0
10
-3.2205871
20
-16.6921484
11
-3.1821778
21
-16.6995133
0
LINE
8
0
10
-3.1821778
20
-16.6995133
11
-3.1437516
21
-16.7067898
0
LINE
8
0
10
-3.1437516
20
-16.7067898
11
-3.1053087
21
-16.7139779
0
LINE
8
0
10
-3.1053087
20
-16.7139779
11
-3.0668495
21
-16.7210775
0
LINE
8
0
10
-3.0668495
20
-16.7210775
11
-3.028374
21
-16.7280887
0
LINE
8
0
10
-3.028374
20
-16.7280887
11
-2.9898824
21
-16.7350113
0
LINE
8
0
10
-2.9898824
20
-16.7350113
11
-2.9513751
21
-16.7418453
0
LINE
8
0
10
-2.9513751
20
-16.7418453
11
-2.9513751
21
-16.7418453
0
LINE
8
0
10
-2.9513751
20
-16.7418453
11
-2.8221714
21
-16.5705699
0
LINE
8
0
10
-2.8221714
20
-16.5705699
11
-2.7044969
21
-16.405222
0
LINE
8
0
10
-2.7044969
20
-16.405222
11
-2.5979174
21
-16.2463024
0
LINE
8
0
10
-2.5979174
20
-16.2463024
11
-2.5019801
21
-16.0942925
0
LINE
8
0
10
-2.5019801
20
-16.0942925
11
-2.4162144
21
-15.9496531
0
LINE
8
0
10
-2.4162144
20
-15.9496531
11
-2.3401324
21
-15.8128242
0
LINE
8
0
10
-2.3401324
20
-15.8128242
11
-2.2732296
21
-15.6842244
0
LINE
8
0
10
-2.2732296
20
-15.6842244
11
-2.2149864
21
-15.5642498
0
LINE
8
0
10
-2.2149864
20
-15.5642498
11
-2.1648681
21
-15.4532743
0
LINE
8
0
10
-2.1648681
20
-15.4532743
11
-2.1223264
21
-15.3516483
0
LINE
8
0
10
-2.1223264
20
-15.3516483
11
-2.0867998
21
-15.2596989
0
LINE
8
0
10
-2.0867998
20
-15.2596989
11
-2.057715
21
-15.177729
0
LINE
8
0
10
-2.057715
20
-15.177729
11
-2.0344872
21
-15.1060169
0
LINE
8
0
10
-2.0344872
20
-15.1060169
11
-2.0165216
21
-15.0448161
0
LINE
8
0
10
-2.0165216
20
-15.0448161
11
-2.0032139
21
-14.9943552
0
LINE
8
0
10
-2.0032139
20
-14.9943552
11
-1.9939515
21
-14.9548368
0
LINE
8
0
10
-1.9939515
20
-14.9548368
11
-1.9881145
21
-14.9264381
0
LINE
8
0
10
-1.9881145
20
-14.9264381
11
-1.9850762
21
-14.9093101
0
LINE
8
0
10
-1.9850762
20
-14.9093101
11
-1.9842047
21
-14.9035774
0
LINE
8
0
10
-1.9842047
20
-14.9035774
11
-1.9465819
21
-14.620989
0
LINE
8
0
10
-1.9465819
20
-14.620989
11
-1.9465819
21
-14.620989
0
LINE
8
0
10
-1.9465819
20
-14.620989
11
-1.8939601
21
-14.6278985
0
LINE
8
0
10
-1.8939601
20
-14.6278985
11
-1.8413136
21
-14.6346187
0
LINE
8
0
10
-1.8413136
20
-14.6346187
11
-1.7886434
21
-14.6411494
0
LINE
8
0
10
-1.7886434
20
-14.6411494
11
-1.73595
21
-14.6474905
0
LINE
8
0
10
-1.73595
20
-14.6474905
11
-1.6832341
21
-14.653642
0
LINE
8
0
10
-1.6832341
20
-14.653642
11
-1.6304964
21
-14.6596037
0
LINE
8
0
10
-1.6304964
20
-14.6596037
11
-1.5777377
21
-14.6653757
0
LINE
8
0
10
-1.5777377
20
-14.6653757
11
-1.5249584
21
-14.6709578
0
LINE
8
0
10
-1.5249584
20
-14.6709578
11
-1.4721595
21
-14.6763499
0
LINE
8
0
10
-1.4721595
20
-14.6763499
11
-1.4193415
21
-14.681552
0
LINE
8
0
10
-1.4193415
20
-14.681552
11
-1.3665051
21
-14.6865641
0
LINE
8
0
10
-1.3665051
20
-14.6865641
11
-1.313651
21
-14.6913859
0
LINE
8
0
10
-1.313651
20
-14.6913859
11
-1.2607799
21
-14.6960176
0
LINE
8
0
10
-1.2607799
20
-14.6960176
11
-1.2078925
21
-14.700459
0
LINE
8
0
10
-1.2078925
20
-14.700459
11
-1.1549894
21
-14.7047101
0
LINE
8
0
10
-1.1549894
20
-14.7047101
11
-1.1020714
21
-14.7087708
0
LINE
8
0
10
-1.1020714
20
-14.7087708
11
-1.0491392
21
-14.7126411
0
LINE
8
0
10
-1.0491392
20
-14.7126411
11
-0.9961933
21
-14.7163208
0
LINE
8
0
10
-0.9961933
20
-14.7163208
11
-0.9432345
21
-14.7198101
0
LINE
8
0
10
-0.9432345
20
-14.7198101
11
-0.9432345
21
-14.7198101
0
LINE
8
0
10
-0.9432345
20
-14.7198101
11
-0.961465
21
-15.0043085
0
LINE
8
0
10
-0.961465
20
-15.0043085
11
-0.9617286
21
-15.010101
0
LINE
8
0
10
-0.9617286
20
-15.010101
11
-0.9620902
21
-15.0274927
0
LINE
8
0
10
-0.9620902
20
-15.0274927
11
-0.9619056
21
-15.0564845
0
LINE
8
0
10
-0.9619056
20
-15.0564845
11
-0.9605309
21
-15.0970505
0
LINE
8
0
10
-0.9605309
20
-15.0970505
11
-0.9573234
21
-15.149138
0
LINE
8
0
10
-0.9573234
20
-15.149138
11
-0.9516426
21
-15.2126677
0
LINE
8
0
10
-0.9516426
20
-15.2126677
11
-0.9428515
21
-15.2875334
0
LINE
8
0
10
-0.9428515
20
-15.2875334
11
-0.930317
21
-15.3736026
0
LINE
8
0
10
-0.930317
20
-15.3736026
11
-0.9134115
21
-15.4707161
0
LINE
8
0
10
-0.9134115
20
-15.4707161
11
-0.8915135
21
-15.5786888
0
LINE
8
0
10
-0.8915135
20
-15.5786888
11
-0.8640084
21
-15.6973095
0
LINE
8
0
10
-0.8640084
20
-15.6973095
11
-0.8302902
21
-15.8263415
0
LINE
8
0
10
-0.8302902
20
-15.8263415
11
-0.7897616
21
-15.9655224
0
LINE
8
0
10
-0.7897616
20
-15.9655224
11
-0.7418354
21
-16.114565
0
LINE
8
0
10
-0.7418354
20
-16.114565
11
-0.6859354
21
-16.2731572
0
LINE
8
0
10
-0.6859354
20
-16.2731572
11
-0.6214972
21
-16.4409628
0
LINE
8
0
10
-0.6214972
20
-16.4409628
11
-0.5479693
21
-16.6176214
0
LINE
8
0
10
-0.5479693
20
-16.6176214
11
-0.4648136
21
-16.8027494
0
LINE
8
0
10
-0.4648136
20
-16.8027494
11
-0.3715068
21
-16.9959402
0
LINE
8
0
10
-0.3715068
20
-16.9959402
11
-0.3715068
21
-16.9959402
0
LINE
8
0
10
-0.3715068
20
-16.9959402
11
-0.3324061
21
-16.9967499
0
LINE
8
0
10
-0.3324061
20
-16.9967499
11
-0.2933036
21
-16.9974696
0
LINE
8
0
10
-0.2933036
20
-16.9974696
11
-0.2541996
21
-16.9980994
0
LINE
8
0
10
-0.2541996
20
-16.9980994
11
-0.2150942
21
-16.9986392
0
LINE
8
0
10
-0.2150942
20
-16.9986392
11
-0.1759878
21
-16.999089
0
LINE
8
0
10
-0.1759878
20
-16.999089
11
-0.1368803
21
-16.9994489
0
LINE
8
0
10
-0.1368803
20
-16.9994489
11
-0.0977722
21
-16.9997188
0
LINE
8
0
10
-0.0977722
20
-16.9997188
11
-0.0586635
21
-16.9998988
0
LINE
8
0
10
-0.0586635
20
-16.9998988
11
-0.0195545
21
-16.9999888
0
LINE
8
0
10
-0.0195545
20
-16.9999888
11
0.0195545
21
-16.9999888
0
LINE
8
0
10
0.0195545
20
-16.9999888
11
0.0586635
21
-16.9998988
0
LINE
8
0
10
0.0586635
20
-16.9998988
11
0.0977722
21
-16.9997188
0
LINE
8
0
10
0.0977722
20
-16.9997188
11
0.1368803
21
-16.9994489
0
LINE
8
0
10
0.1368803
20
-16.9994489
11
0.1759878
21
-16.999089
0
LINE
8
0
10
0.1759878
20
-16.999089
11
0.2150942
21
-16.9986392
0
LINE
8
0
10
0.2150942
20
-16.9986392
11
0.2541996
21
-16.9980994
0
LINE
8
0
10
0.2541996
20
-16.9980994
11
0.2933036
21
-16.9974696
0
LINE
8
0
10
0.2933036
20
-16.9974696
11
0.3324061
21
-16.9967499
0
LINE
8
0
10
0.3324061
20
-16.9967499
11
0.3715068
21
-16.9959402
0
LINE
8
0
10
0.3715068
20
-16.9959402
11
0.3715068
21
-16.9959402
0
LINE
8
0
10
0.3715068
20
-16.9959402
11
0.4648136
21
-16.8027494
0
LINE
8
0
10
0.4648136
20
-16.8027494
11
0.5479693
21
-16.6176214
0
LINE
8
0
10
0.5479693
20
-16.6176214
11
0.6214972
21
-16.4409628
0
LINE
8
0
10
0.6214972
20
-16.4409628
11
0.6859354
21
-16.2731572
0
LINE
8
0
10
0.6859354
20
-16.2731572
11
0.7418354
21
-16.114565
0
LINE
8
0
10
0.7418354
20
-16.114565
11
0.7897616
21
-15.9655224
0
LINE
8
0
10
0.7897616
20
-15.9655224
11
0.8302902
21
-15.8263415
0
LINE
8
0
10
0.8302902
20
-15.8263415
11
0.8640084
21
-15.6973095
0
LINE
8
0
10
0.8640084
20
-15.6973095
11
0.8915135
21
-15.5786888
0
LINE
8
0
10
0.8915135
20
-15.5786888
11
0.9134115
21
-15.4707161
0
LINE
8
0
10
0.9134115
20
-15.4707161
11
0.930317
21
-15.3736026
0
LINE
8
0
10
0.930317
20
-15.3736026
11
0.9428515
21
-15.2875334
0
LINE
8
0
10
0.9428515
20
-15.2875334
11
0.9516426
21
-15.2126677
0
LINE
8
0
10
0.9516426
20
-15.2126677
11
0.9573234
21
-15.149138
0
LINE
8
0
10
0.9573234
20
-15.149138
11
0.9605309
21
-15.0970505
0
LINE
8
0
10
0.9605309
20
-15.0970505
11
0.9619056
21
-15.0564845
0
LINE
8
0
10
0.9619056
20
-15.0564845
11
0.9620902
21
-15.0274927
0
LINE
8
0
10
0.9620902
20
-15.0274927
11
0.9617286
21
-15.010101
0
LINE
8
0
10
0.9617286
20
-15.010101
11
0.961465
21
-15.0043085
0
LINE
8
0
10
0.961465
20
-15.0043085
11
0.9432345
21
-14.7198101
0
LINE
8
0
10
0.9432345
20
-14.7198101
11
0.9432345
21
-14.7198101
0
LINE
8
0
10
0.9432345
20
-14.7198101
11
0.9961933
21
-14.7163208
0
LINE
8
0
10
0.9961933
20
-14.7163208
11
1.0491392
21
-14.7126411
0
LINE
8
0
10
1.0491392
20
-14.7126411
11
1.1020714
21
-14.7087708
0
LINE
8
0
10
1.1020714
20
-14.7087708
11
1.1549894
21
-14.7047101
0
LINE
8
0
10
1.1549894
20
-14.7047101
11
1.2078925
21
-14.700459
0
LINE
8
0
10
1.2078925
20
-14.700459
11
1.2607799
21
-14.6960176
0
LINE
8
0
10
1.2607799
20
-14.6960176
11
1.313651
21
-14.6913859
0
LINE
8
0
10
1.313651
20
-14.6913859
11
1.3665051
21
-14.6865641
0
LINE
8
0
10
1.3665051
20
-14.6865641
11
1.4193415
21
-14.681552
0
LINE
8
0
10
1.4193415
20
-14.681552
11
1.4721595
21
-14.6763499
0
LINE
8
0
10
1.4721595
20
-14.6763499
11
1.5249584
21
-14.6709578
0
LINE
8
0
10
1.5249584
20
-14.6709578
11
1.5777377
21
-14.6653757
0
LINE
8
0
10
1.5777377
20
-14.6653757
11
1.6304964
21
-14.6596037
0
LINE
8
0
10
1.6304964
20
-14.6596037
11
1.6832341
21
-14.653642
0
LINE
8
0
10
1.6832341
20
-14.653642
11
1.73595
21
-14.6474905
0
LINE
8
0
10
1.73595
20
-14.6474905
11
1.7886434
21
-14.6411494
0
LINE
8
0
10
1.7886434
20
-14.6411494
11
1.8413136
21
-14.6346187
0
LINE
8
0
10
1.8413136
20
-14.6346187
11
1.8939601
21
-14.6278985
0
LINE
8
0
10
1.8939601
20
-14.6278985
11
1.9465819
21
-14.620989
0
LINE
8
0
10
1.9465819
20
-14.620989
11
1.9465819
21
-14.620989
0
LINE
8
0
10
1.9465819
20
-14.620989
11
1.9842047
21
-14.9035774
0
LINE
8
0
10
1.9842047
20
-14.9035774
11
1.9850762
21
-14.9093101
0
LINE
8
0
10
1.9850762
20
-14.9093101
11
1.9881145
21
-14.9264381
0
LINE
8
0
10
1.9881145
20
-14.9264381
11
1.9939515
21
-14.9548368
0
LINE
8
0
10
1.9939515
20
-14.9548368
11
2.0032139
21
-14.9943552
0
LINE
8
0
10
2.0032139
20
-14.9943552
11
2.0165216
21
-15.0448161
0
LINE
8
0
10
2.0165216
20
-15.0448161
11
2.0344872
21
-15.1060169
0
LINE
8
0
10
2.0344872
20
-15.1060169
11
2.057715
21
-15.177729
0
LINE
8
0
10
2.057715
20
-15.177729
11
2.0867998
21
-15.2596989
0
LINE
8
0
10
2.0867998
20
-15.2596989
11
2.1223264
21
-15.3516483
0
LINE
8
0
10
2.1223264
20
-15.3516483
11
2.1648681
21
-15.4532743
0
LINE
8
0
10
2.1648681
20
-15.4532743
11
2.2149864
21
-15.5642498
0
LINE
8
0
10
2.2149864
20
-15.5642498
11
2.2732296
21
-15.6842244
0
LINE
8
0
10
2.2732296
20
-15.6842244
11
2.3401324
21
-15.8128242
0
LINE
8
0
10
2.3401324
20
-15.8128242
11
2.4162144
21
-15.9496531
0
LINE
8
0
10
2.4162144
20
-15.9496531
11
2.5019801
21
-16.0942925
0
LINE
8
0
10
2.5019801
20
-16.0942925
11
2.5979174
21
-16.2463024
0
LINE
8
0
10
2.5979174
20
-16.2463024
11
2.7044969
21
-16.405222
0
LINE
8
0
10
2.7044969
20
-16.405222
11
2.8221714
21
-16.5705699
0
LINE
8
0
10
2.8221714
20
-16.5705699
11
2.9513751
21
-16.7418453
0
LINE
8
0
10
2.9513751
20
-16.7418453
11
2.9513751
21
-16.7418453
0
LINE
8
0
10
2.9513751
20
-16.7418453
11
2.9898824
21
-16.7350113
0
LINE
8
0
10
2.9898824
20
-16.7350113
11
3.028374
21
-16.7280887
0
LINE
8
0
10
3.028374
20
-16.7280887
11
3.0668495
21
-16.7210775
0
LINE
8
0
10
3.0668495
20
-16.7210775
11
3.1053087
21
-16.7139779
0
LINE
8
0
10
3.1053087
20
-16.7139779
11
3.1437516
21
-16.7067898
0
LINE
8
0
10
3.1437516
20
-16.7067898
11
3.1821778
21
-16.6995133
0
LINE
8
0
10
3.1821778
20
-16.6995133
11
3.2205871
21
-16.6921484
0
LINE
8
0
10
3.2205871
20
-16.6921484
11
3.2589794
21
-16.6846952
0
LINE
8
0
10
3.2589794
20
-16.6846952
11
3.2973545
21
-16.6771536
0
LINE
8
0
10
3.2973545
20
-16.6771536
11
3.3357121
21
-16.6695238
0
LINE
8
0
10
3.3357121
20
-16.6695238
11
3.374052
21
-16.6618058
0
LINE
8
0
10
3.374052
20
-16.6618058
11
3.4123741
21
-16.6539996
0
LINE
8
0
10
3.4123741
20
-16.6539996
11
3.4506782
21
-16.6461053
0
LINE
8
0
10
3.4506782
20
-16.6461053
11
3.488964
21
-16.6381228
0
LINE
8
0
10
3.488964
20
-16.6381228
11
3.5272313
21
-16.6300523
0
LINE
8
0
10
3.5272313
20
-16.6300523
11
3.5654799
21
-16.6218938
0
LINE
8
0
10
3.5654799
20
-16.6218938
11
3.6037097
21
-16.6136473
0
LINE
8
0
10
3.6037097
20
-16.6136473
11
3.6419204
21
-16.6053129
0
LINE
8
0
10
3.6419204
20
-16.6053129
11
3.6801118
21
-16.5968906
0
LINE
8
0
10
3.6801118
20
-16.5968906
11
3.6801118
21
-16.5968906
0
LINE
8
0
10
3.6801118
20
-16.5968906
11
3.7339361
21
-16.3892086
0
LINE
8
0
10
3.7339361
20
-16.3892086
11
3.7793773
21
-16.1914149
0
LINE
8
0
10
3.7793773
20
-16.1914149
11
3.8170281
21
-16.0038062
0
LINE
8
0
10
3.8170281
20
-16.0038062
11
3.8474908
21
-15.8266537
0
LINE
8
0
10
3.8474908
20
-15.8266537
11
3.8713769
21
-15.6602033
0
LINE
8
0
10
3.8713769
20
-15.6602033
11
3.8893054
21
-15.5046745
0
LINE
8
0
10
3.8893054
20
-15.5046745
11
3.9019025
21
-15.3602612
0
LINE
8
0
10
3.9019025
20
-15.3602612
11
3.9097999
21
-15.2271304
0
LINE
8
0
10
3.9097999
20
-15.2271304
11
3.9136347
21
-15.105423
0
LINE
8
0
10
3.9136347
20
-15.105423
11
3.9140476
21
-14.9952528
0
LINE
8
0
10
3.9140476
20
-14.9952528
11
3.9116823
21
-14.8967073
0
LINE
8
0
10
3.9116823
20
-14.8967073
11
3.9071847
21
-14.8098466
0
LINE
8
0
10
3.9071847
20
-14.8098466
11
3.9012013
21
-14.7347043
0
LINE
8
0
10
3.9012013
20
-14.7347043
11
3.8943789
21
-14.6712871
0
LINE
8
0
10
3.8943789
20
-14.6712871
11
3.887363
21
-14.6195746
0
LINE
8
0
10
3.887363
20
-14.6195746
11
3.8807973
21
-14.5795199
0
LINE
8
0
10
3.8807973
20
-14.5795199
11
3.8753223
21
-14.5510492
0
LINE
8
0
10
3.8753223
20
-14.5510492
11
3.8715747
21
-14.5340622
0
LINE
8
0
10
3.8715747
20
-14.5340622
11
3.8701861
21
-14.5284324
0
LINE
8
0
10
3.8701861
20
-14.5284324
11
3.796803
21
-14.2529571
0
LINE
8
0
10
3.796803
20
-14.2529571
11
3.796803
21
-14.2529571
0
LINE
8
0
10
3.796803
20
-14.2529571
11
3.8480635
21
-14.2392032
0
LINE
8
0
10
3.8480635
20
-14.2392032
11
3.8992741
21
-14.2252649
0
LINE
8
0
10
3.8992741
20
-14.2252649
11
3.9504343
21
-14.2111424
0
LINE
8
0
10
3.9504343
20
-14.2111424
11
4.0015433
21
-14.196836
0
LINE
8
0
10
4.0015433
20
-14.196836
11
4.0526005
21
-14.1823457
0
LINE
8
0
10
4.0526005
20
-14.1823457
11
4.1036052
21
-14.1676718
0
LINE
8
0
10
4.1036052
20
-14.1676718
11
4.1545568
21
-14.1528145
0
LINE
8
0
10
4.1545568
20
-14.1528145
11
4.2054546
21
-14.1377739
0
LINE
8
0
10
4.2054546
20
-14.1377739
11
4.2562979
21
-14.1225503
0
LINE
8
0
10
4.2562979
20
-14.1225503
11
4.3070862
21
-14.1071439
0
LINE
8
0
10
4.3070862
20
-14.1071439
11
4.3578187
21
-14.0915548
0
LINE
8
0
10
4.3578187
20
-14.0915548
11
4.4084947
21
-14.0757833
0
LINE
8
0
10
4.4084947
20
-14.0757833
11
4.4591137
21
-14.0598295
0
LINE
8
0
10
4.4591137
20
-14.0598295
11
4.509675
21
-14.0436937
0
LINE
8
0
10
4.509675
20
-14.0436937
11
4.5601778
21
-14.027376
0
LINE
8
0
10
4.5601778
20
-14.027376
11
4.6106217
21
-14.0108768
0
LINE
8
0
10
4.6106217
20
-14.0108768
11
4.6610058
21
-13.9941961
0
LINE
8
0
10
4.6610058
20
-13.9941961
11
4.7113296
21
-13.9773343
0
LINE
8
0
10
4.7113296
20
-13.9773343
11
4.7615924
21
-13.9602915
0
LINE
8
0
10
4.7615924
20
-13.9602915
11
4.7615924
21
-13.9602915
0
LINE
8
0
10
4.7615924
20
-13.9602915
11
4.8536225
21
-14.2301103
0
LINE
8
0
10
4.8536225
20
-14.2301103
11
4.8555956
21
-14.2355627
0
LINE
8
0
10
4.8555956
20
-14.2355627
11
4.861917
21
-14.2517689
0
LINE
8
0
10
4.861917
20
-14.2517689
11
4.8731823
21
-14.2784832
0
LINE
8
0
10
4.8731823
20
-14.2784832
11
4.8899763
21
-14.3154352
0
LINE
8
0
10
4.8899763
20
-14.3154352
11
4.9128727
21
-14.3623304
0
LINE
8
0
10
4.9128727
20
-14.3623304
11
4.9424328
21
-14.4188502
0
LINE
8
0
10
4.9424328
20
-14.4188502
11
4.9792046
21
-14.4846529
0
LINE
8
0
10
4.9792046
20
-14.4846529
11
5.0237221
21
-14.5593737
0
LINE
8
0
10
5.0237221
20
-14.5593737
11
5.0765045
21
-14.6426254
0
LINE
8
0
10
5.0765045
20
-14.6426254
11
5.1380551
21
-14.7339991
0
LINE
8
0
10
5.1380551
20
-14.7339991
11
5.2088606
21
-14.8330647
0
LINE
8
0
10
5.2088606
20
-14.8330647
11
5.2893906
21
-14.9393713
0
LINE
8
0
10
5.2893906
20
-14.9393713
11
5.3800964
21
-15.0524481
0
LINE
8
0
10
5.3800964
20
-15.0524481
11
5.4814105
21
-15.1718049
0
LINE
8
0
10
5.4814105
20
-15.1718049
11
5.593746
21
-15.296933
0
LINE
8
0
10
5.593746
20
-15.296933
11
5.7174955
21
-15.4273057
0
LINE
8
0
10
5.7174955
20
-15.4273057
11
5.8530308
21
-15.5623791
0
LINE
8
0
10
5.8530308
20
-15.5623791
11
6.000702
21
-15.7015927
0
LINE
8
0
10
6.000702
20
-15.7015927
11
6.1608372
21
-15.8443708
0
LINE
8
0
10
6.1608372
20
-15.8443708
11
6.1608372
21
-15.8443708
0
LINE
8
0
10
6.1608372
20
-15.8443708
11
6.1972714
21
-15.8301556
0
LINE
8
0
10
6.1972714
20
-15.8301556
11
6.2336728
21
-15.8158567
0
LINE
8
0
10
6.2336728
20
-15.8158567
11
6.2700412
21
-15.8014741
0
LINE
8
0
10
6.2700412
20
-15.8014741
11
6.3063764
21
-15.7870078
0
LINE
8
0
10
6.3063764
20
-15.7870078
11
6.3426783
21
-15.772458
0
LINE
8
0
10
6.3426783
20
-15.772458
11
6.3789465
21
-15.7578248
0
LINE
8
0
10
6.3789465
20
-15.7578248
11
6.415181
21
-15.7431081
0
LINE
8
0
10
6.415181
20
-15.7431081
11
6.4513816
21
-15.7283081
0
LINE
8
0
10
6.4513816
20
-15.7283081
11
6.487548
21
-15.7134249
0
LINE
8
0
10
6.487548
20
-15.7134249
11
6.5236801
21
-15.6984585
0
LINE
8
0
10
6.5236801
20
-15.6984585
11
6.5597776
21
-15.683409
0
LINE
8
0
10
6.5597776
20
-15.683409
11
6.5958405
21
-15.6682765
0
LINE
8
0
10
6.5958405
20
-15.6682765
11
6.6318684
21
-15.6530611
0
LINE
8
0
10
6.6318684
20
-15.6530611
11
6.6678612
21
-15.6377628
0
LINE
8
0
10
6.6678612
20
-15.6377628
11
6.7038188
21
-15.6223818
0
LINE
8
0
10
6.7038188
20
-15.6223818
11
6.7397408
21
-15.6069181
0
LINE
8
0
10
6.7397408
20
-15.6069181
11
6.7756272
21
-15.5913718
0
LINE
8
0
10
6.7756272
20
-15.5913718
11
6.8114777
21
-15.575743
0
LINE
8
0
10
6.8114777
20
-15.575743
11
6.8472922
21
-15.5600318
0
LINE
8
0
10
6.8472922
20
-15.5600318
11
6.8472922
21
-15.5600318
0
LINE
8
0
10
6.8472922
20
-15.5600318
11
6.8595656
21
-15.3458398
0
LINE
8
0
10
6.8595656
20
-15.3458398
11
6.865546
21
-15.1429815
0
LINE
8
0
10
6.865546
20
-15.1429815
11
6.8658727
21
-14.9516323
0
LINE
8
0
10
6.8658727
20
-14.9516323
11
6.8611894
21
-14.7719408
0
LINE
8
0
10
6.8611894
20
-14.7719408
11
6.8521436
21
-14.6040287
0
LINE
8
0
10
6.8521436
20
-14.6040287
11
6.8393855
21
-14.4479907
0
LINE
8
0
10
6.8393855
20
-14.4479907
11
6.8235668
21
-14.3038947
0
LINE
8
0
10
6.8235668
20
-14.3038947
11
6.80534
21
-14.1717813
0
LINE
8
0
10
6.80534
20
-14.1717813
11
6.7853571
21
-14.0516643
0
LINE
8
0
10
6.7853571
20
-14.0516643
11
6.7642689
21
-13.9435305
0
LINE
8
0
10
6.7642689
20
-13.9435305
11
6.7427239
21
-13.8473398
0
LINE
8
0
10
6.7427239
20
-13.8473398
11
6.721367
21
-13.7630256
0
LINE
8
0
10
6.721367
20
-13.7630256
11
6.700839
21
-13.6904945
0
LINE
8
0
10
6.700839
20
-13.6904945
11
6.6817756
21
-13.6296268
0
LINE
8
0
10
6.6817756
20
-13.6296268
11
6.6648059
21
-13.5802767
0
LINE
8
0
10
6.6648059
20
-13.5802767
11
6.6505521
21
-13.5422725
0
LINE
8
0
10
6.6505521
20
-13.5422725
11
6.6396279
21
-13.515417
0
LINE
8
0
10
6.6396279
20
-13.515417
11
6.6326383
21
-13.4994875
0
LINE
8
0
10
6.6326383
20
-13.4994875
11
6.6301781
21
-13.4942368
0
LINE
8
0
10
6.6301781
20
-13.4942368
11
6.5044625
21
-13.238371
0
LINE
8
0
10
6.5044625
20
-13.238371
11
6.5044625
21
-13.238371
0
LINE
8
0
10
6.5044625
20
-13.238371
11
6.5520548
21
-13.2148809
0
LINE
8
0
10
6.5520548
20
-13.2148809
11
6.5995622
21
-13.1912198
0
LINE
8
0
10
6.5995622
20
-13.1912198
11
6.6469841
21
-13.1673878
0
LINE
8
0
10
6.6469841
20
-13.1673878
11
6.69432
21
-13.1433854
0
LINE
8
0
10
6.69432
20
-13.1433854
11
6.7415693
21
-13.1192128
0
LINE
8
0
10
6.7415693
20
-13.1192128
11
6.7887312
21
-13.0948703
0
LINE
8
0
10
6.7887312
20
-13.0948703
11
6.8358053
21
-13.0703583
0
LINE
8
0
10
6.8358053
20
-13.0703583
11
6.8827908
21
-13.0456771
0
LINE
8
0
10
6.8827908
20
-13.0456771
11
6.9296873
21
-13.020827
0
LINE
8
0
10
6.9296873
20
-13.020827
11
6.976494
21
-12.9958082
0
LINE
8
0
10
6.976494
20
-12.9958082
11
7.0232104
21
-12.9706213
0
LINE
8
0
10
7.0232104
20
-12.9706213
11
7.0698358
21
-12.9452664
0
LINE
8
0
10
7.0698358
20
-12.9452664
11
7.1163698
21
-12.9197439
0
LINE
8
0
10
7.1163698
20
-12.9197439
11
7.1628115
21
-12.8940541
0
LINE
8
0
10
7.1628115
20
-12.8940541
11
7.2091606
21
-12.8681974
0
LINE
8
0
10
7.2091606
20
-12.8681974
11
7.2554163
21
-12.842174
0
LINE
8
0
10
7.2554163
20
-12.842174
11
7.3015781
21
-12.8159844
0
LINE
8
0
10
7.3015781
20
-12.8159844
11
7.3476453
21
-12.7896289
0
LINE
8
0
10
7.3476453
20
-12.7896289
11
7.3936175
21
-12.7631078
0
LINE
8
0
10
7.3936175
20
-12.7631078
11
7.3936175
21
-12.7631078
0
LINE
8
0
10
7.3936175
20
-12.7631078
11
7.5365183
21
-13.0097879
0
LINE
8
0
10
7.5365183
20
-13.0097879
11
7.5395172
21
-13.0147507
0
LINE
8
0
10
7.5395172
20
-13.0147507
11
7.5488789
21
-13.0294122
0
LINE
8
0
10
7.5488789
20
-13.0294122
11
7.5651393
21
-13.0534154
0
LINE
8
0
10
7.5651393
20
-13.0534154
11
7.5888196
21
-13.0863811
0
LINE
8
0
10
7.5888196
20
-13.0863811
11
7.6204249
21
-13.1279083
0
LINE
8
0
10
7.6204249
20
-13.1279083
11
7.6604434
21
-13.1775752
0
LINE
8
0
10
7.6604434
20
-13.1775752
11
7.7093462
21
-13.2349397
0
LINE
8
0
10
7.7093462
20
-13.2349397
11
7.7675856
21
-13.2995398
0
LINE
8
0
10
7.7675856
20
-13.2995398
11
7.8355954
21
-13.3708945
0
LINE
8
0
10
7.8355954
20
-13.3708945
11
7.9137894
21
-13.4485047
0
LINE
8
0
10
7.9137894
20
-13.4485047
11
8.0025612
21
-13.5318532
0
LINE
8
0
10
8.0025612
20
-13.5318532
11
8.1022832
21
-13.6204065
0
LINE
8
0
10
8.1022832
20
-13.6204065
11
8.2133063
21
-13.7136148
0
LINE
8
0
10
8.2133063
20
-13.7136148
11
8.3359591
21
-13.8109128
0
LINE
8
0
10
8.3359591
20
-13.8109128
11
8.4705473
21
-13.911721
0
LINE
8
0
10
8.4705473
20
-13.911721
11
8.6173535
21
-14.0154463
0
LINE
8
0
10
8.6173535
20
-14.0154463
11
8.776636
21
-14.1214826
0
LINE
8
0
10
8.776636
20
-14.1214826
11
8.948629
21
-14.2292121
0
LINE
8
0
10
8.948629
20
-14.2292121
11
9.1335419
21
-14.3380059
0
LINE
8
0
10
9.1335419
20
-14.3380059
11
9.1335419
21
-14.3380059
0
LINE
8
0
10
9.1335419
20
-14.3380059
11
9.1665027
21
-14.3169559
0
LINE
8
0
10
9.1665027
20
-14.3169559
11
9.1994151
21
-14.2958302
0
LINE
8
0
10
9.1994151
20
-14.2958302
11
9.2322788
21
-14.2746288
0
LINE
8
0
10
9.2322788
20
-14.2746288
11
9.2650936
21
-14.2533519
0
LINE
8
0
10
9.2650936
20
-14.2533519
11
9.2978594
21
-14.2319995
0
LINE
8
0
10
9.2978594
20
-14.2319995
11
9.330576
21
-14.2105718
0
LINE
8
0
10
9.330576
20
-14.2105718
11
9.3632432
21
-14.1890689
0
LINE
8
0
10
9.3632432
20
-14.1890689
11
9.3958608
21
-14.167491
0
LINE
8
0
10
9.3958608
20
-14.167491
11
9.4284287
21
-14.145838
0
LINE
8
0
10
9.4284287
20
-14.145838
11
9.4609467
21
-14.1241101
0
LINE
8
0
10
9.4609467
20
-14.1241101
11
9.4934147
21
-14.1023075
0
LINE
8
0
10
9.4934147
20
-14.1023075
11
9.5258324
21
-14.0804303
0
LINE
8
0
10
9.5258324
20
-14.0804303
11
9.5581996
21
-14.0584786
0
LINE
8
0
10
9.5581996
20
-14.0584786
11
9.5905163
21
-14.0364524
0
LINE
8
0
10
9.5905163
20
-14.0364524
11
9.6227823
21
-14.014352
0
LINE
8
0
10
9.6227823
20
-14.014352
11
9.6549973
21
-13.9921774
0
LINE
8
0
10
9.6549973
20
-13.9921774
11
9.6871612
21
-13.9699287
0
LINE
8
0
10
9.6871612
20
-13.9699287
11
9.7192738
21
-13.9476061
0
LINE
8
0
10
9.7192738
20
-13.9476061
11
9.751335
21
-13.9252097
0
LINE
8
0
10
9.751335
20
-13.9252097
11
9.751335
21
-13.9252097
0
LINE
8
0
10
9.751335
20
-13.9252097
11
9.7215858
21
-13.7127389
0
LINE
8
0
10
9.7215858
20
-13.7127389
11
9.6878756
21
-13.5126118
0
LINE
8
0
10
9.6878756
20
-13.5126118
11
9.6508656
21
-13.3248756
0
LINE
8
0
10
9.6508656
20
-13.3248756
11
9.6112162
21
-13.1495505
0
LINE
8
0
10
9.6112162
20
-13.1495505
11
9.5695862
21
-12.9866295
0
LINE
8
0
10
9.5695862
20
-12.9866295
11
9.5266318
21
-12.8360787
0
LINE
8
0
10
9.5266318
20
-12.8360787
11
9.4830053
21
-12.6978375
0
LINE
8
0
10
9.4830053
20
-12.6978375
11
9.4393547
21
-12.5718185
0
LINE
8
0
10
9.4393547
20
-12.5718185
11
9.3963221
21
-12.457908
0
LINE
8
0
10
9.3963221
20
-12.457908
11
9.3545433
21
-12.355966
0
LINE
8
0
10
9.3545433
20
-12.355966
11
9.3146463
21
-12.2658269
0
LINE
8
0
10
9.3146463
20
-12.2658269
11
9.2772509
21
-12.1872993
0
LINE
8
0
10
9.2772509
20
-12.1872993
11
9.2429673
21
-12.1201666
0
LINE
8
0
10
9.2429673
20
-12.1201666
11
9.2123954
21
-12.0641876
0
LINE
8
0
10
9.2123954
20
-12.0641876
11
9.1861241
21
-12.0190963
0
LINE
8
0
10
9.1861241
20
-12.0190963
11
9.1647299
21
-11.9846032
0
LINE
8
0
10
9.1647299
20
-11.9846032
11
9.1487764
21
-11.9603949
0
LINE
8
0
10
9.1487764
20
-11.9603949
11
9.1388134
21
-11.9461351
0
LINE
8
0
10
9.1388134
20
-11.9461351
11
9.1353761
21
-11.9414653
0
LINE
8
0
10
9.1353761
20
-11.9414653
11
8.9621592
21
-11.7150417
0
LINE
8
0
10
8.9621592
20
-11.7150417
11
8.9621592
21
-11.7150417
0
LINE
8
0
10
8.9621592
20
-11.7150417
11
9.0042542
21
-11.6827182
0
LINE
8
0
10
9.0042542
20
-11.6827182
11
9.0462327
21
-11.6502435
0
LINE
8
0
10
9.0462327
20
-11.6502435
11
9.0880941
21
-11.6176179
0
LINE
8
0
10
9.0880941
20
-11.6176179
11
9.1298378
21
-11.5848419
0
LINE
8
0
10
9.1298378
20
-11.5848419
11
9.1714634
21
-11.5519159
0
LINE
8
0
10
9.1714634
20
-11.5519159
11
9.2129701
21
-11.5188403
0
LINE
8
0
10
9.2129701
20
-11.5188403
11
9.2543576
21
-11.4856156
0
LINE
8
0
10
9.2543576
20
-11.4856156
11
9.2956253
21
-11.4522422
0
LINE
8
0
10
9.2956253
20
-11.4522422
11
9.3367726
21
-11.4187205
0
LINE
8
0
10
9.3367726
20
-11.4187205
11
9.377799
21
-11.385051
0
LINE
8
0
10
9.377799
20
-11.385051
11
9.418704
21
-11.351234
0
LINE
8
0
10
9.418704
20
-11.351234
11
9.4594871
21
-11.3172702
0
LINE
8
0
10
9.4594871
20
-11.3172702
11
9.5001477
21
-11.2831597
0
LINE
8
0
10
9.5001477
20
-11.2831597
11
9.5406853
21
-11.2489032
0
LINE
8
0
10
9.5406853
20
-11.2489032
11
9.5810994
21
-11.2145011
0
LINE
8
0
10
9.5810994
20
-11.2145011
11
9.6213894
21
-11.1799538
0
LINE
8
0
10
9.6213894
20
-11.1799538
11
9.6615549
21
-11.1452617
0
LINE
8
0
10
9.6615549
20
-11.1452617
11
9.7015952
21
-11.1104253
0
LINE
8
0
10
9.7015952
20
-11.1104253
11
9.74151
21
-11.0754451
0
LINE
8
0
10
9.74151
20
-11.0754451
11
9.74151
21
-11.0754451
0
LINE
8
0
10
9.74151
20
-11.0754451
11
9.9297899
21
-11.2895067
0
LINE
8
0
10
9.9297899
20
-11.2895067
11
9.9336994
21
-11.293789
0
LINE
8
0
10
9.9336994
20
-11.293789
11
9.9457415
21
-11.3063425
0
LINE
8
0
10
9.9457415
20
-11.3063425
11
9.9663723
21
-11.3267123
0
LINE
8
0
10
9.9663723
20
-11.3267123
11
9.9960289
21
-11.3544247
0
LINE
8
0
10
9.9960289
20
-11.3544247
11
10.0351284
21
-11.3889881
0
LINE
8
0
10
10.0351284
20
-11.3889881
11
10.0840676
21
-11.4298935
0
LINE
8
0
10
10.0840676
20
-11.4298935
11
10.1432219
21
-11.4766152
0
LINE
8
0
10
10.1432219
20
-11.4766152
11
10.2129451
21
-11.5286121
0
LINE
8
0
10
10.2129451
20
-11.5286121
11
10.2935688
21
-11.5853277
0
LINE
8
0
10
10.2935688
20
-11.5853277
11
10.3854013
21
-11.6461917
0
LINE
8
0
10
10.3854013
20
-11.6461917
11
10.4887278
21
-11.7106202
0
LINE
8
0
10
10.4887278
20
-11.7106202
11
10.6038096
21
-11.7780172
0
LINE
8
0
10
10.6038096
20
-11.7780172
11
10.7308834
21
-11.8477749
0
LINE
8
0
10
10.7308834
20
-11.8477749
11
10.8701614
21
-11.919275
0
LINE
8
0
10
10.8701614
20
-11.919275
11
11.0218303
21
-11.9918894
0
LINE
8
0
10
11.0218303
20
-11.9918894
11
11.1860514
21
-12.0649812
0
LINE
8
0
10
11.1860514
20
-12.0649812
11
11.36296
21
-12.1379056
0
LINE
8
0
10
11.36296
20
-12.1379056
11
11.5526652
21
-12.2100109
0
LINE
8
0
10
11.5526652
20
-12.2100109
11
11.7552496
21
-12.2806395
0
LINE
8
0
10
11.7552496
20
-12.2806395
11
11.7552496
21
-12.2806395
0
LINE
8
0
10
11.7552496
20
-12.2806395
11
11.7834705
21
-12.2535637
0
LINE
8
0
10
11.7834705
20
-12.2535637
11
11.811629
21
-12.226423
0
LINE
8
0
10
11.811629
20
-12.226423
11
11.8397251
21
-12.1992176
0
LINE
8
0
10
11.8397251
20
-12.1992176
11
11.8677584
21
-12.1719476
0
LINE
8
0
10
11.8677584
20
-12.1719476
11
11.895729
21
-12.1446133
0
LINE
8
0
10
11.895729
20
-12.1446133
11
11.9236366
21
-12.1172146
0
LINE
8
0
10
11.9236366
20
-12.1172146
11
11.9514811
21
-12.0897518
0
LINE
8
0
10
11.9514811
20
-12.0897518
11
11.9792623
21
-12.0622251
0
LINE
8
0
10
11.9792623
20
-12.0622251
11
12.0069802
21
-12.0346345
0
LINE
8
0
10
12.0069802
20
-12.0346345
11
12.0346345
21
-12.0069802
0
LINE
8
0
10
12.0346345
20
-12.0069802
11
12.0622251
21
-11.9792623
0
LINE
8
0
10
12.0622251
20
-11.9792623
11
12.0897518
21
-11.9514811
0
LINE
8
0
10
12.0897518
20
-11.9514811
11
12.1172146
21
-11.9236366
0
LINE
8
0
10
12.1172146
20
-11.9236366
11
12.1446133
21
-11.895729
0
LINE
8
0
10
12.1446133
20
-11.895729
11
12.1719476
21
-11.8677584
0
LINE
8
0
10
12.1719476
20
-11.8677584
11
12.1992176
21
-11.8397251
0
LINE
8
0
10
12.1992176
20
-11.8397251
11
12.226423
21
-11.811629
0
LINE
8
0
10
12.226423
20
-11.811629
11
12.2535637
21
-11.7834705
0
LINE
8
0
10
12.2535637
20
-11.7834705
11
12.2806395
21
-11.7552496
0
LINE
8
0
10
12.2806395
20
-11.7552496
11
12.2806395
21
-11.7552496
0
LINE
8
0
10
12.2806395
20
-11.7552496
11
12.2100109
21
-11.5526652
0
LINE
8
0
10
12.2100109
20
-11.5526652
11
12.1379056
21
-11.36296
0
LINE
8
0
10
12.1379056
20
-11.36296
11
12.0649812
21
-11.1860514
0
LINE
8
0
10
12.0649812
20
-11.1860514
11
11.9918894
21
-11.0218303
0
LINE
8
0
10
11.9918894
20
-11.0218303
11
11.919275
21
-10.8701614
0
LINE
8
0
10
11.919275
20
-10.8701614
11
11.8477749
21
-10.7308834
0
LINE
8
0
10
11.8477749
20
-10.7308834
11
11.7780172
21
-10.6038096
0
LINE
8
0
10
11.7780172
20
-10.6038096
11
11.7106202
21
-10.4887278
0
LINE
8
0
10
11.7106202
20
-10.4887278
11
11.6461917
21
-10.3854013
0
LINE
8
0
10
11.6461917
20
-10.3854013
11
11.5853277
21
-10.2935688
0
LINE
8
0
10
11.5853277
20
-10.2935688
11
11.5286121
21
-10.2129451
0
LINE
8
0
10
11.5286121
20
-10.2129451
11
11.4766152
21
-10.1432219
0
LINE
8
0
10
11.4766152
20
-10.1432219
11
11.4298935
21
-10.0840676
0
LINE
8
0
10
11.4298935
20
-10.0840676
11
11.3889881
21
-10.0351284
0
LINE
8
0
10
11.3889881
20
-10.0351284
11
11.3544247
21
-9.9960289
0
LINE
8
0
10
11.3544247
20
-9.9960289
11
11.3267123
21
-9.9663723
0
LINE
8
0
10
11.3267123
20
-9.9663723
11
11.3063425
21
-9.9457415
0
LINE
8
0
10
11.3063425
20
-9.9457415
11
11.293789
21
-9.9336994
0
LINE
8
0
10
11.293789
20
-9.9336994
11
11.2895067
21
-9.9297899
0
LINE
8
0
10
11.2895067
20
-9.9297899
11
11.0754451
21
-9.74151
0
LINE
8
0
10
11.0754451
20
-9.74151
11
11.0754451
21
-9.74151
0
LINE
8
0
10
11.0754451
20
-9.74151
11
11.1104253
21
-9.7015952
0
LINE
8
0
10
11.1104253
20
-9.7015952
11
11.1452617
21
-9.6615549
0
LINE
8
0
10
11.1452617
20
-9.6615549
11
11.1799538
21
-9.6213894
0
LINE
8
0
10
11.1799538
20
-9.6213894
11
11.2145011
21
-9.5810994
0
LINE
8
0
10
11.2145011
20
-9.5810994
11
11.2489032
21
-9.5406853
0
LINE
8
0
10
11.2489032
20
-9.5406853
11
11.2831597
21
-9.5001477
0
LINE
8
0
10
11.2831597
20
-9.5001477
11
11.3172702
21
-9.4594871
0
LINE
8
0
10
11.3172702
20
-9.4594871
11
11.351234
21
-9.418704
0
LINE
8
0
10
11.351234
20
-9.418704
11
11.385051
21
-9.377799
0
LINE
8
0
10
11.385051
20
-9.377799
11
11.4187205
21
-9.3367726
0
LINE
8
0
10
11.4187205
20
-9.3367726
11
11.4522422
21
-9.2956253
0
LINE
8
0
10
11.4522422
20
-9.2956253
11
11.4856156
21
-9.2543576
0
LINE
8
0
10
11.4856156
20
-9.2543576
11
11.5188403
21
-9.2129701
0
LINE
8
0
10
11.5188403
20
-9.2129701
11
11.5519159
21
-9.1714634
0
LINE
8
0
10
11.5519159
20
-9.1714634
11
11.5848419
21
-9.1298378
0
LINE
8
0
10
11.5848419
20
-9.1298378
11
11.6176179
21
-9.0880941
0
LINE
8
0
10
11.6176179
20
-9.0880941
11
11.6502435
21
-9.0462327
0
LINE
8
0
10
11.6502435
20
-9.0462327
11
11.6827182
21
-9.0042542
0
LINE
8
0
10
11.6827182
20
-9.0042542
11
11.7150417
21
-8.9621592
0
LINE
8
0
10
11.7150417
20
-8.9621592
11
11.7150417
21
-8.9621592
0
LINE
8
0
10
11.7150417
20
-8.9621592
11
11.9414653
21
-9.1353761
0
LINE
8
0
10
11.9414653
20
-9.1353761
11
11.9461351
21
-9.1388134
0
LINE
8
0
10
11.9461351
20
-9.1388134
11
11.9603949
21
-9.1487764
0
LINE
8
0
10
11.9603949
20
-9.1487764
11
11.9846032
21
-9.1647299
0
LINE
8
0
10
11.9846032
20
-9.1647299
11
12.0190963
21
-9.1861241
0
LINE
8
0
10
12.0190963
20
-9.1861241
11
12.0641876
21
-9.2123954
0
LINE
8
0
10
12.0641876
20
-9.2123954
11
12.1201666
21
-9.2429673
0
LINE
8
0
10
12.1201666
20
-9.2429673
11
12.1872993
21
-9.2772509
0
LINE
8
0
10
12.1872993
20
-9.2772509
11
12.2658269
21
-9.3146463
0
LINE
8
0
10
12.2658269
20
-9.3146463
11
12.355966
21
-9.3545433
0
LINE
8
0
10
12.355966
20
-9.3545433
11
12.457908
21
-9.3963221
0
LINE
8
0
10
12.457908
20
-9.3963221
11
12.5718185
21
-9.4393547
0
LINE
8
0
10
12.5718185
20
-9.4393547
11
12.6978375
21
-9.4830053
0
LINE
8
0
10
12.6978375
20
-9.4830053
11
12.8360787
21
-9.5266318
0
LINE
8
0
10
12.8360787
20
-9.5266318
11
12.9866295
21
-9.5695862
0
LINE
8
0
10
12.9866295
20
-9.5695862
11
13.1495505
21
-9.6112162
0
LINE
8
0
10
13.1495505
20
-9.6112162
11
13.3248756
21
-9.6508656
0
LINE
8
0
10
13.3248756
20
-9.6508656
11
13.5126118
21
-9.6878756
0
LINE
8
0
10
13.5126118
20
-9.6878756
11
13.7127389
21
-9.7215858
0
LINE
8
0
10
13.7127389
20
-9.7215858
11
13.9252097
21
-9.751335
0
LINE
8
0
10
13.9252097
20
-9.751335
11
13.9252097
21
-9.751335
0
LINE
8
0
10
13.9252097
20
-9.751335
11
13.9476061
21
-9.7192738
0
LINE
8
0
10
13.9476061
20
-9.7192738
11
13.9699287
21
-9.6871612
0
LINE
8
0
10
13.9699287
20
-9.6871612
11
13.9921774
21
-9.6549973
0
LINE
8
0
10
13.9921774
20
-9.6549973
11
14.014352
21
-9.6227823
0
LINE
8
0
10
14.014352
20
-9.6227823
11
14.0364524
21
-9.5905163
0
LINE
8
0
10
14.0364524
20
-9.5905163
11
14.0584786
21
-9.5581996
0
LINE
8
0
10
14.0584786
20
-9.5581996
11
14.0804303
21
-9.5258324
0
LINE
8
0
10
14.0804303
20
-9.5258324
11
14.1023075
21
-9.4934147
0
LINE
8
0
10
14.1023075
20
-9.4934147
11
14.1241101
21
-9.4609467
0
LINE
8
0
10
14.1241101
20
-9.4609467
11
14.145838
21
-9.4284287
0
LINE
8
0
10
14.145838
20
-9.4284287
11
14.167491
21
-9.3958608
0
LINE
8
0
10
14.167491
20
-9.3958608
11
14.1890689
21
-9.3632432
0
LINE
8
0
10
14.1890689
20
-9.3632432
11
14.2105718
21
-9.330576
0
LINE
8
0
10
14.2105718
20
-9.330576
11
14.2319995
21
-9.2978594
0
LINE
8
0
10
14.2319995
20
-9.2978594
11
14.2533519
21
-9.2650936
0
LINE
8
0
10
14.2533519
20
-9.2650936
11
14.2746288
21
-9.2322788
0
LINE
8
0
10
14.2746288
20
-9.2322788
11
14.2958302
21
-9.1994151
0
LINE
8
0
10
14.2958302
20
-9.1994151
11
14.3169559
21
-9.1665027
0
LINE
8
0
10
14.3169559
20
-9.1665027
11
14.3380059
21
-9.1335419
0
LINE
8
0
10
14.3380059
20
-9.1335419
11
14.3380059
21
-9.1335419
0
LINE
8
0
10
14.3380059
20
-9.1335419
11
14.2292121
21
-8.948629
0
LINE
8
0
10
14.2292121
20
-8.948629
11
14.1214826
21
-8.776636
0
LINE
8
0
10
14.1214826
20
-8.776636
11
14.0154463
21
-8.6173535
0
LINE
8
0
10
14.0154463
20
-8.6173535
11
13.911721
21
-8.4705473
0
LINE
8
0
10
13.911721
20
-8.4705473
11
13.8109128
21
-8.3359591
0
LINE
8
0
10
13.8109128
20
-8.3359591
11
13.7136148
21
-8.2133063
0
LINE
8
0
10
13.7136148
20
-8.2133063
11
13.6204065
21
-8.1022832
0
LINE
8
0
10
13.6204065
20
-8.1022832
11
13.5318532
21
-8.0025612
0
LINE
8
0
10
13.5318532
20
-8.0025612
11
13.4485047
21
-7.9137894
0
LINE
8
0
10
13.4485047
20
-7.9137894
11
13.3708945
21
-7.8355954
0
LINE
8
0
10
13.3708945
20
-7.8355954
11
13.2995398
21
-7.7675856
0
LINE
8
0
10
13.2995398
20
-7.7675856
11
13.2349397
21
-7.7093462
0
LINE
8
0
10
13.2349397
20
-7.7093462
11
13.1775752
21
-7.6604434
0
LINE
8
0
10
13.1775752
20
-7.6604434
11
13.1279083
21
-7.6204249
0
LINE
8
0
10
13.1279083
20
-7.6204249
11
13.0863811
21
-7.5888196
0
LINE
8
0
10
13.0863811
20
-7.5888196
11
13.0534154
21
-7.5651393
0
LINE
8
0
10
13.0534154
20
-7.5651393
11
13.0294122
21
-7.5488789
0
LINE
8
0
10
13.0294122
20
-7.5488789
11
13.0147507
21
-7.5395172
0
LINE
8
0
10
13.0147507
20
-7.5395172
11
13.0097879
21
-7.5365183
0
LINE
8
0
10
13.0097879
20
-7.5365183
11
12.7631078
21
-7.3936175
0
LINE
8
0
10
12.7631078
20
-7.3936175
11
12.7631078
21
-7.3936175
0
LINE
8
0
10
12.7631078
20
-7.3936175
11
12.7896289
21
-7.3476453
0
LINE
8
0
10
12.7896289
20
-7.3476453
11
12.8159844
21
-7.3015781
0
LINE
8
0
10
12.8159844
20
-7.3015781
11
12.842174
21
-7.2554163
0
LINE
8
0
10
12.842174
20
-7.2554163
11
12.8681974
21
-7.2091606
0
LINE
8
0
10
12.8681974
20
-7.2091606
11
12.8940541
21
-7.1628115
0
LINE
8
0
10
12.8940541
20
-7.1628115
11
12.9197439
21
-7.1163698
0
LINE
8
0
10
12.9197439
20
-7.1163698
11
12.9452664
21
-7.0698358
0
LINE
8
0
10
12.9452664
20
-7.0698358
11
12.9706213
21
-7.0232104
0
LINE
8
0
10
12.9706213
20
-7.0232104
11
12.9958082
21
-6.976494
0
LINE
8
0
10
12.9958082
20
-6.976494
11
13.020827
21
-6.9296873
0
LINE
8
0
10
13.020827
20
-6.9296873
11
13.0456771
21
-6.8827908
0
LINE
8
0
10
13.0456771
20
-6.8827908
11
13.0703583
21
-6.8358053
0
LINE
8
0
10
13.0703583
20
-6.8358053
11
13.0948703
21
-6.7887312
0
LINE
8
0
10
13.0948703
20
-6.7887312
11
13.1192128
21
-6.7415693
0
LINE
8
0
10
13.1192128
20
-6.7415693
11
13.1433854
21
-6.69432
0
LINE
8
0
10
13.1433854
20
-6.69432
11
13.1673878
21
-6.6469841
0
LINE
8
0
10
13.1673878
20
-6.6469841
11
13.1912198
21
-6.5995622
0
LINE
8
0
10
13.1912198
20
-6.5995622
11
13.2148809
21
-6.5520548
0
LINE
8
0
10
13.2148809
20
-6.5520548
11
13.238371
21
-6.5044625
0
LINE
8
0
10
13.238371
20
-6.5044625
11
13.238371
21
-6.5044625
0
LINE
8
0
10
13.238371
20
-6.5044625
11
13.4942368
21
-6.6301781
0
LINE
8
0
10
13.4942368
20
-6.6301781
11
13.4994875
21
-6.6326383
0
LINE
8
0
10
13.4994875
20
-6.6326383
11
13.515417
21
-6.6396279
0
LINE
8
0
10
13.515417
20
-6.6396279
11
13.5422725
21
-6.6505521
0
LINE
8
0
10
13.5422725
20
-6.6505521
11
13.5802767
21
-6.6648059
0
LINE
8
0
10
13.5802767
20
-6.6648059
11
13.6296268
21
-6.6817756
0
LINE
8
0
10
13.6296268
20
-6.6817756
11
13.6904945
21
-6.700839
0
LINE
8
0
10
13.6904945
20
-6.700839
11
13.7630256
21
-6.721367
0
LINE
8
0
10
13.7630256
20
-6.721367
11
13.8473398
21
-6.7427239
0
LINE
8
0
10
13.8473398
20
-6.7427239
11
13.9435305
21
-6.7642689
0
LINE
8
0
10
13.9435305
20
-6.7642689
11
14.0516643
21
-6.7853571
0
LINE
8
0
10
14.0516643
20
-6.7853571
11
14.1717813
21
-6.80534
0
LINE
8
0
10
14.1717813
20
-6.80534
11
14.3038947
21
-6.8235668
0
LINE
8
0
10
14.3038947
20
-6.8235668
11
14.4479907
21
-6.8393855
0
LINE
8
0
10
14.4479907
20
-6.8393855
11
14.6040287
21
-6.8521436
0
LINE
8
0
10
14.6040287
20
-6.8521436
11
14.7719408
21
-6.8611894
0
LINE
8
0
10
14.7719408
20
-6.8611894
11
14.9516323
21
-6.8658727
0
LINE
8
0
10
14.9516323
20
-6.8658727
11
15.1429815
21
-6.865546
0
LINE
8
0
10
15.1429815
20
-6.865546
11
15.3458398
21
-6.8595656
0
LINE
8
0
10
15.3458398
20
-6.8595656
11
15.5600318
21
-6.8472922
0
LINE
8
0
10
15.5600318
20
-6.8472922
11
15.5600318
21
-6.8472922
0
LINE
8
0
10
15.5600318
20
-6.8472922
11
15.575743
21
-6.8114777
0
LINE
8
0
10
15.575743
20
-6.8114777
11
15.5913718
21
-6.7756272
0
LINE
8
0
10
15.5913718
20
-6.7756272
11
15.6069181
21
-6.7397408
0
LINE
8
0
10
15.6069181
20
-6.7397408
11
15.6223818
21
-6.7038188
0
LINE
8
0
10
15.6223818
20
-6.7038188
11
15.6377628
21
-6.6678612
0
LINE
8
0
10
15.6377628
20
-6.6678612
11
15.6530611
21
-6.6318684
0
LINE
8
0
10
15.6530611
20
-6.6318684
11
15.6682765
21
-6.5958405
0
LINE
8
0
10
15.6682765
20
-6.5958405
11
15.683409
21
-6.5597776
0
LINE
8
0
10
15.683409
20
-6.5597776
11
15.6984585
21
-6.5236801
0
LINE
8
0
10
15.6984585
20
-6.5236801
11
15.7134249
21
-6.487548
0
LINE
8
0
10
15.7134249
20
-6.487548
11
15.7283081
21
-6.4513816
0
LINE
8
0
10
15.7283081
20
-6.4513816
11
15.7431081
21
-6.415181
0
LINE
8
0
10
15.7431081
20
-6.415181
11
15.7578248
21
-6.3789465
0
LINE
8
0
10
15.7578248
20
-6.3789465
11
15.772458
21
-6.3426783
0
LINE
8
0
10
15.772458
20
-6.3426783
11
15.7870078
21
-6.3063764
0
LINE
8
0
10
15.7870078
20
-6.3063764
11
15.8014741
21
-6.2700412
0
LINE
8
0
10
15.8014741
20
-6.2700412
11
15.8158567
21
-6.2336728
0
LINE
8
0
10
15.8158567
20
-6.2336728
11
15.8301556
21
-6.1972714
0
LINE
8
0
10
15.8301556
20
-6.1972714
11
15.8443708
21
-6.1608372
0
LINE
8
0
10
15.8443708
20
-6.1608372
11
15.8443708
21
-6.1608372
0
LINE
8
0
10
15.8443708
20
-6.1608372
11
15.7015927
21
-6.000702
0
LINE
8
0
10
15.7015927
20
-6.000702
11
15.5623791
21
-5.8530308
0
LINE
8
0
10
15.5623791
20
-5.8530308
11
15.4273057
21
-5.7174955
0
LINE
8
0
10
15.4273057
20
-5.7174955
11
15.296933
21
-5.593746
0
LINE
8
0
10
15.296933
20
-5.593746
11
15.1718049
21
-5.4814105
0
LINE
8
0
10
15.1718049
20
-5.4814105
11
15.0524481
21
-5.3800964
0
LINE
8
0
10
15.0524481
20
-5.3800964
11
14.9393713
21
-5.2893906
0
LINE
8
0
10
14.9393713
20
-5.2893906
11
14.8330647
21
-5.2088606
0
LINE
8
0
10
14.8330647
20
-5.2088606
11
14.7339991
21
-5.1380551
0
LINE
8
0
10
14.7339991
20
-5.1380551
11
14.6426254
21
-5.0765045
0
LINE
8
0
10
14.6426254
20
-5.0765045
11
14.5593737
21
-5.0237221
0
LINE
8
0
10
14.5593737
20
-5.0237221
11
14.4846529
21
-4.9792046
0
LINE
8
0
10
14.4846529
20
-4.9792046
11
14.4188502
21
-4.9424328
0
LINE
8
0
10
14.4188502
20
-4.9424328
11
14.3623304
21
-4.9128727
0
LINE
8
0
10
14.3623304
20
-4.9128727
11
14.3154352
21
-4.8899763
0
LINE
8
0
10
14.3154352
20
-4.8899763
11
14.2784832
21
-4.8731823
0
LINE
8
0
10
14.2784832
20
-4.8731823
11
14.2517689
21
-4.861917
0
LINE
8
0
10
14.2517689
20
-4.861917
11
14.2355627
21
-4.8555956
0
LINE
8
0
10
14.2355627
20
-4.8555956
11
14.2301103
21
-4.8536225
0
LINE
8
0
10
14.2301103
20
-4.8536225
11
13.9602915
21
-4.7615924
0
LINE
8
0
10
13.9602915
20
-4.7615924
11
13.9602915
21
-4.7615924
0
LINE
8
0
10
13.9602915
20
-4.7615924
11
13.9773343
21
-4.7113296
0
LINE
8
0
10
13.9773343
20
-4.7113296
11
13.9941961
21
-4.6610058
0
LINE
8
0
10
13.9941961
20
-4.6610058
11
14.0108768
21
-4.6106217
0
LINE
8
0
10
14.0108768
20
-4.6106217
11
14.027376
21
-4.5601778
0
LINE
8
0
10
14.027376
20
-4.5601778
11
14.0436937
21
-4.509675
0
LINE
8
0
10
14.0436937
20
-4.509675
11
14.0598295
21
-4.4591137
0
LINE
8
0
10
14.0598295
20
-4.4591137
11
14.0757833
21
-4.4084947
0
LINE
8
0
10
14.0757833
20
-4.4084947
11
14.0915548
21
-4.3578187
0
LINE
8
0
10
14.0915548
20
-4.3578187
11
14.1071439
21
-4.3070862
0
LINE
8
0
10
14.1071439
20
-4.3070862
11
14.1225503
21
-4.2562979
0
LINE
8
0
10
14.1225503
20
-4.2562979
11
14.1377739
21
-4.2054546
0
LINE
8
0
10
14.1377739
20
-4.2054546
11
14.1528145
21
-4.1545568
0
LINE
8
0
10
14.1528145
20
-4.1545568
11
14.1676718
21
-4.1036052
0
LINE
8
0
10
14.1676718
20
-4.1036052
11
14.1823457
21
-4.0526005
0
LINE
8
0
10
14.1823457
20
-4.0526005
11
14.196836
21
-4.0015433
0
LINE
8
0
10
14.196836
20
-4.0015433
11
14.2111424
21
-3.9504343
0
LINE
8
0
10
14.2111424
20
-3.9504343
11
14.2252649
21
-3.8992741
0
LINE
8
0
10
14.2252649
20
-3.8992741
11
14.2392032
21
-3.8480635
0
LINE
8
0
10
14.2392032
20
-3.8480635
11
14.2529571
21
-3.796803
0
LINE
8
0
10
14.2529571
20
-3.796803
11
14.2529571
21
-3.796803
0
LINE
8
0
10
14.2529571
20
-3.796803
11
14.5284324
21
-3.8701861
0
LINE
8
0
10
14.5284324
20
-3.8701861
11
14.5340622
21
-3.8715747
0
LINE
8
0
10
14.5340622
20
-3.8715747
11
14.5510492
21
-3.8753223
0
LINE
8
0
10
14.5510492
20
-3.8753223
11
14.5795199
21
-3.8807973
0
LINE
8
0
10
14.5795199
20
-3.8807973
11
14.6195746
21
-3.887363
0
LINE
8
0
10
14.6195746
20
-3.887363
11
14.6712871
21
-3.8943789
0
LINE
8
0
10
14.6712871
20
-3.8943789
11
14.7347043
21
-3.9012013
0
LINE
8
0
10
14.7347043
20
-3.9012013
11
14.8098466
21
-3.9071847
0
LINE
8
0
10
14.8098466
20
-3.9071847
11
14.8967073
21
-3.9116823
0
LINE
8
0
10
14.8967073
20
-3.9116823
11
14.9952528
21
-3.9140476
0
LINE
8
0
10
14.9952528
20
-3.9140476
11
15.105423
21
-3.9136347
0
LINE
8
0
10
15.105423
20
-3.9136347
11
15.2271304
21
-3.9097999
0
LINE
8
0
10
15.2271304
20
-3.9097999
11
15.3602612
21
-3.9019025
0
LINE
8
0
10
15.3602612
20
-3.9019025
11
15.5046745
21
-3.8893054
0
LINE
8
0
10
15.5046745
20
-3.8893054
11
15.6602033
21
-3.8713769
0
LINE
8
0
10
15.6602033
20
-3.8713769
11
15.8266537
21
-3.8474908
0
LINE
8
0
10
15.8266537
20
-3.8474908
11
16.0038062
21
-3.8170281
0
LINE
8
0
10
16.0038062
20
-3.8170281
11
16.1914149
21
-3.7793773
0
LINE
8
0
10
16.1914149
20
-3.7793773
11
16.3892086
21
-3.7339361
0
LINE
8
0
10
16.3892086
20
-3.7339361
11
16.5968906
21
-3.6801118
0
LINE
8
0
10
16.5968906
20
-3.6801118
11
16.5968906
21
-3.6801118
0
LINE
8
0
10
16.5968906
20
-3.6801118
11
16.6053129
21
-3.6419204
0
LINE
8
0
10
16.6053129
20
-3.6419204
11
16.6136473
21
-3.6037097
0
LINE
8
0
10
16.6136473
20
-3.6037097
11
16.6218938
21
-3.5654799
0
LINE
8
0
10
16.6218938
20
-3.5654799
11
16.6300523
21
-3.5272313
0
LINE
8
0
10
16.6300523
20
-3.5272313
11
16.6381228
21
-3.488964
0
LINE
8
0
10
16.6381228
20
-3.488964
11
16.6461053
21
-3.4506782
0
LINE
8
0
10
16.6461053
20
-3.4506782
11
16.6539996
21
-3.4123741
0
LINE
8
0
10
16.6539996
20
-3.4123741
11
16.6618058
21
-3.374052
0
LINE
8
0
10
16.6618058
20
-3.374052
11
16.6695238
21
-3.3357121
0
LINE
8
0
10
16.6695238
20
-3.3357121
11
16.6771536
21
-3.2973545
0
LINE
8
0
10
16.6771536
20
-3.2973545
11
16.6846952
21
-3.2589794
0
LINE
8
0
10
16.6846952
20
-3.2589794
11
16.6921484
21
-3.2205871
0
LINE
8
0
10
16.6921484
20
-3.2205871
11
16.6995133
21
-3.1821778
0
LINE
8
0
10
16.6995133
20
-3.1821778
11
16.7067898
21
-3.1437516
0
LINE
8
0
10
16.7067898
20
-3.1437516
11
16.7139779
21
-3.1053087
0
LINE
8
0
10
16.7139779
20
-3.1053087
11
16.7210775
21
-3.0668495
0
LINE
8
0
10
16.7210775
20
-3.0668495
11
16.7280887
21
-3.028374
0
LINE
8
0
10
16.7280887
20
-3.028374
11
16.7350113
21
-2.9898824
0
LINE
8
0
10
16.7350113
20
-2.9898824
11
16.7418453
21
-2.9513751
0
LINE
8
0
10
16.7418453
20
-2.9513751
11
16.7418453
21
-2.9513751
0
LINE
8
0
10
16.7418453
20
-2.9513751
11
16.5705699
21
-2.8221714
0
LINE
8
0
10
16.5705699
20
-2.8221714
11
16.405222
21
-2.7044969
0
LINE
8
0
10
16.405222
20
-2.7044969
11
16.2463024
21
-2.5979174
0
LINE
8
0
10
16.2463024
20
-2.5979174
11
16.0942925
21
-2.5019801
0
LINE
8
0
10
16.0942925
20
-2.5019801
11
15.9496531
21
-2.4162144
0
LINE
8
0
10
15.9496531
20
-2.4162144
11
15.8128242
21
-2.3401324
0
LINE
8
0
10
15.8128242
20
-2.3401324
11
15.6842244
21
-2.2732296
0
LINE
8
0
10
15.6842244
20
-2.2732296
11
15.5642498
21
-2.2149864
0
LINE
8
0
10
15.5642498
20
-2.2149864
11
15.4532743
21
-2.1648681
0
LINE
8
0
10
15.4532743
20
-2.1648681
11
15.3516483
21
-2.1223264
0
LINE
8
0
10
15.3516483
20
-2.1223264
11
15.2596989
21
-2.0867998
0
LINE
8
0
10
15.2596989
20
-2.0867998
11
15.177729
21
-2.057715
0
LINE
8
0
10
15.177729
20
-2.057715
11
15.1060169
21
-2.0344872
0
LINE
8
0
10
15.1060169
20
-2.0344872
11
15.0448161
21
-2.0165216
0
LINE
8
0
10
15.0448161
20
-2.0165216
11
14.9943552
21
-2.0032139
0
LINE
8
0
10
14.9943552
20
-2.0032139
11
14.9548368
21
-1.9939515
0
LINE
8
0
10
14.9548368
20
-1.9939515
11
14.9264381
21
-1.9881145
0
LINE
8
0
10
14.9264381
20
-1.9881145
11
14.9093101
21
-1.9850762
0
LINE
8
0
10
14.9093101
20
-1.9850762
11
14.9035774
21
-1.9842047
0
LINE
8
0
10
14.9035774
20
-1.9842047
11
14.620989
21
-1.9465819
0
LINE
8
0
10
14.620989
20
-1.9465819
11
14.620989
21
-1.9465819
0
LINE
8
0
10
14.620989
20
-1.9465819
11
14.6278985
21
-1.8939601
0
LINE
8
0
10
14.6278985
20
-1.8939601
11
14.6346187
21
-1.8413136
0
LINE
8
0
10
14.6346187
20
-1.8413136
11
14.6411494
21
-1.7886434
0
LINE
8
0
10
14.6411494
20
-1.7886434
11
14.6474905
21
-1.73595
0
LINE
8
0
10
14.6474905
20
-1.73595
11
14.653642
21
-1.6832341
0
LINE
8
0
10
14.653642
20
-1.6832341
11
14.6596037
21
-1.6304964
0
LINE
8
0
10
14.6596037
20
-1.6304964
11
14.6653757
21
-1.5777377
0
LINE
8
0
10
14.6653757
20
-1.5777377
11
14.6709578
21
-1.5249584
0
LINE
8
0
10
14.6709578
20
-1.5249584
11
14.6763499
21
-1.4721595
0
LINE
8
0
10
14.6763499
20
-1.4721595
11
14.681552
21
-1.4193415
0
LINE
8
0
10
14.681552
20
-1.4193415
11
14.6865641
21
-1.3665051
0
LINE
8
0
10
14.6865641
20
-1.3665051
11
14.6913859
21
-1.313651
0
LINE
8
0
10
14.6913859
20
-1.313651
11
14.6960176
21
-1.2607799
0
LINE
8
0
10
14.6960176
20
-1.2607799
11
14.700459
21
-1.2078925
0
LINE
8
0
10
14.700459
20
-1.2078925
11
14.7047101
21
-1.1549894
0
LINE
8
0
10
14.7047101
20
-1.1549894
11
14.7087708
21
-1.1020714
0
LINE
8
0
10
14.7087708
20
-1.1020714
11
14.7126411
21
-1.0491392
0
LINE
8
0
10
14.7126411
20
-1.0491392
11
14.7163208
21
-0.9961933
0
LINE
8
0
10
14.7163208
20
-0.9961933
11
14.7198101
21
-0.9432345
0
ENDSEC
0
EOF